<?xml version="1.0" encoding="utf-8"?>
<!-- Generator: Adobe Illustrator 22.0.0, SVG Export Plug-In . SVG Version: 6.00 Build 0)  -->
<svg version="1.1" id="图层_1" xmlns="http://www.w3.org/2000/svg" xmlns:xlink="http://www.w3.org/1999/xlink" x="0px" y="0px"
	 viewBox="0 0 682.1 121.4" style="enable-background:new 0 0 682.1 121.4;" xml:space="preserve">
<style type="text/css">
	.st0{fill:#1E4D91;}
</style>
<g>
	<g>
		<path class="st0" d="M27.5,77.9c-0.7-0.5-1.4-1.1-2.1-1.8c0.5,0,0.8,0,1.1,0c0.2,0,0.4-0.1,0.4-0.4h-0.4c-0.2-0.2-0.5-0.5-0.7-0.7
			c-1.9,0.5-3.6,0.7-5.3,0.7c0,1.6-0.9,2.5-2.8,2.5c-0.5,0-1.3-0.5-2.5-1.4c-0.5-0.5-0.8-0.7-1.1-0.7C12.7,74.1,12,68,12,57.9
			c0-6.3-0.5-12.4-1.4-18.3C8,38.9,6.3,37.7,5.3,36c0-2.6,1.1-4.8,3.2-6.7c1.6-0.7,3.2-2,4.6-3.9C20.3,17.5,24,11.3,24,6.8
			c0.2-0.5,0.5-1.4,0.7-2.8L25,3.7c0.7,0,1.8,0.5,3.2,1.4c0.2,0.5,0.5,0.7,0.7,0.7c3.8,4.7,4.8,8.6,3.2,11.6
			c-2.8,3.3-5.6,6.7-8.4,10.2c1.6,0,3.4-0.5,5.3-1.4c5.2-2.1,9-3.3,11.6-3.5h0.4c3,0,5.3,0.9,6.7,2.8c0.7,0.7,1.3,2.1,1.8,4.2
			c0,0.5,0,0.8,0,1.1c-0.9,7.3-1.9,16.8-2.8,28.5c-0.5,9.2-1.1,14.9-1.8,17.2c-0.5,3-1.8,5.7-3.9,8.1c-1.6,1.4-3.3,2-4.9,1.8
			c-0.7-0.5-1.6-1.4-2.8-2.8c-0.7-0.7-1.2-1.2-1.4-1.4C30.5,80.5,29.1,79.1,27.5,77.9z M26.8,75.1c2.3,1.2,5.2,1.9,8.4,2.1h0.7
			c1.2-0.2,2.1-3.5,2.8-9.9c1.9-12.9,2.6-25.5,2.1-37.7c0-1.6-0.9-2.2-2.8-1.8c-2.6,0-5.3,0.6-8.1,1.8c-2.3,0.7-4.9,0.8-7.7,0.4
			c-0.7,0.7-1.5,1.5-2.5,2.5c-0.7,0.9-1.3,1.6-1.8,2.1c0,0.7,0,2,0,3.9c0.2,2.1,0.4,3.8,0.4,4.9c0.2-0.2,0.8-0.5,1.8-0.7
			c1.6-0.7,2.8-1.3,3.5-1.8c6.3-3.5,10.6-4,12.7-1.4c0,0.7-0.2,1.2-0.7,1.4c0-0.2-0.1-0.2-0.4,0c-1.2,0.9-3.2,2.1-6,3.5
			c-1.2,0.5-2,0.8-2.5,1.1c-4.5,4-7.2,7.3-8.1,9.9c1.9,0,4.5-0.5,7.7-1.4c2.3-0.7,4.2-1.1,5.6-1.1c1.9-0.2,2.8,0.4,2.8,1.8
			c0,0.9-0.7,1.8-2.1,2.5c-0.7,0.2-1.2,0.5-1.4,0.7c-0.9,0.2-2,0.9-3.2,2.1c-1.2,1.4-2.5,2.5-3.9,3.2L24,62.8
			c1.9-1.9,3.3-3.4,4.2-4.6c-0.9,0-2.1,0.2-3.5,0.7c-0.9,0.5-1.6,0.7-2.1,0.7c-1.4,0.2-2.8,0.4-4.2,0.4c0,3.8,0.2,6.1,0.7,7
			c0.5,0,1.3-0.6,2.5-1.8c0.7-0.7,1.2-1.2,1.4-1.4h0.4c0,0.7-0.5,1.4-1.4,2.1c-1.2,1.4-1.8,2.6-1.8,3.5c0.2,0.7,0.6,1.1,1.1,1.1
			c3.3-0.7,6.5-1.2,9.5-1.4H31c2.3-0.2,3.4,0.2,3.2,1.4C34.7,73.4,32.2,74.9,26.8,75.1z M18,52.6c0.5-0.5,1.1-1.2,1.8-2.1
			c1.6-2.1,2.8-3.5,3.5-4.2c-1.9,0.2-3.5,0.4-4.9,0.4C18.1,48.5,18,50.5,18,52.6z"/>
		<path class="st0" d="M114.8,5.4c1.6,0,2.3,2,2.1,6c0,0.5,0,0.8,0,1.1c0,0.2,0,0.6,0,1.1c-0.2,5.4-0.7,11.3-1.4,17.6
			c2.8-0.9,5.6-1.6,8.4-2.1c2.6-0.2,3.9,0.7,3.9,2.8c-0.5,1.9-2.5,2.9-6,3.2c-2.3,0-4.8,0.5-7.4,1.4c-0.7,3.3-1.6,6.3-2.8,9.2
			c6.3,0.5,11.3,1.5,14.8,3.2c3.3,1.4,5.3,3.5,6,6.3c0.2,1.9-0.6,2.8-2.5,2.8c-0.7,0-1.6-0.4-2.8-1.1c-0.7-0.7-1.4-1.2-2.1-1.4
			c-0.2,0-0.6,0.1-1.1,0.4v-0.4c0-0.2,0.2-0.5,0.7-0.7c0.7,0,1.1-0.1,1.1-0.4c-1.9-2.1-7-3.9-15.5-5.3c-1.6,2.8-3.6,5.6-6,8.4
			c-1.6,1.2-3.3,1.9-4.9,2.1c-1.2-0.2-2.1-0.9-2.8-2.1c0-0.9,0.8-1.8,2.5-2.5c0.7-0.5,1.2-0.8,1.4-1.1c1.9-1.4,3.6-3.5,5.3-6.3
			c-0.7-1.4-0.2-2.3,1.4-2.8c0-0.2,0.2-0.7,0.7-1.4c0.7-2.1,1.3-3.8,1.8-4.9c-1.6,0.5-3.5,0.7-5.6,0.7c-0.5,0-1.3-0.1-2.5-0.4
			c-1.2-0.2-2.1-0.4-2.8-0.4c-1.4,3.8-3.1,7.6-4.9,11.6c-0.2,0.2-0.5,0.6-0.7,1.1c-3.8,8-7.7,12.2-12,12.7c-1.9-0.5-3.1-2.5-3.5-6
			c0-0.2,0.2-0.8,0.7-1.8c0.5-1.4,0.7-2.5,0.7-3.2l0.4,1.1c0,1.4,0.2,2,0.7,1.8c2.6-0.5,5-3,7.4-7.7c0.2-0.9,0.5-1.5,0.7-1.8
			c0.2-0.5,0.7-1.2,1.4-2.1c0.5-0.9,0.8-1.6,1.1-2.1c-1.2,0.5-3.1,1.4-5.6,2.8c-1.4,0.7-2.5,1.3-3.2,1.8c-4,2.1-6.6,3.2-7.7,3.2
			c-0.7,0-1.3-0.7-1.8-2.1l-0.4-0.4c-0.7-1.6-0.1-2.9,1.8-3.9c0.5-0.5,1.2-1.2,2.1-2.1c0.9-0.9,1.5-1.5,1.8-1.8v0.7
			c-0.2,0.2-0.5,0.6-0.7,1.1c-1.2,1.4-1.9,2.5-2.1,3.2c2.3-0.9,6-2.5,10.9-4.6c3-1.4,5.4-2.5,7-3.2c0.2-0.5,0.5-1.1,0.7-1.8
			c0.5-0.7,0.7-1.2,0.7-1.4c-0.9,0.7-2,0.8-3.2,0.4c-0.7-0.2-1.2-0.4-1.4-0.4c-1.9-1.9-3.3-3-4.2-3.5c-3.1,4.2-5.6,6.7-7.7,7.4
			c-1.4,0.2-2.2-0.8-2.5-3.2c-0.5-1.6,0.2-3.2,2.1-4.6c4.7-4.5,9-10.9,13-19.4c0-0.2,0.1-0.7,0.4-1.4c0-1.2,0.1-1.9,0.4-2.1
			c1.6,1.2,2.5,3.6,2.5,7.4c0,0.5-0.1,1.2-0.4,2.1c0,0.9-0.1,1.6-0.4,2.1c1.2,0,2.7-0.6,4.6-1.8c1.6-0.9,3-1.4,4.2-1.4
			c1.6,0,2.9,0.7,3.9,2.1c0.5,0.7,0.4,1.8-0.4,3.2c-0.5,0.7-0.7,1.2-0.7,1.4c-0.5,1.4-1.3,3.8-2.5,7c-0.9,3.1-1.8,5.4-2.5,7
			c1.4-0.5,3.4-1.1,6-1.8c2.8-0.9,4.8-1.5,6-1.8c1.9-8.4,2.5-16.1,1.8-22.9h-0.4c0-0.2,0-0.7,0-1.4V7.9
			C112.7,6.2,113.4,5.4,114.8,5.4z M74,79.3c0.2-1.6,1.6-3.8,4.2-6.3c0.2-0.5,0.7-0.9,1.4-1.4c0.9-1.2,1.5-2,1.8-2.5
			c0.2-0.5,0.7-0.9,1.4-1.4c0.5-0.5,0.8-0.8,1.1-1.1V67c0,0.9,0,1.6,0,2.1c0,0.5,0,0.8,0,1.1c0,0.2,0,0.5,0,0.7
			c0,2.1-0.9,4.8-2.8,8.1c-0.9,1.6-1.6,2.9-2.1,3.9c-0.7,1.2-1.6,1.3-2.8,0.4c-0.2-0.2-0.6-0.7-1.1-1.4C74.1,80.9,73.7,80,74,79.3z
			 M97.9,20.9c-0.7,0.5-2.7,0.7-6,0.7l-0.4,0.7c-0.5,0.7-0.8,1.2-1.1,1.4c-0.9,0.9-1.8,1.9-2.5,2.8c3,1.4,5.4,2.7,7,3.9
			C96.3,26.9,97.2,23.7,97.9,20.9z M92.3,68.4c0-0.5,0.1-0.7,0.4-0.7h0.7c1.9,0.2,3.4,1.2,4.6,2.8c0,1.2,0.1,1.9,0.4,2.1l0.4-0.4
			c0.5-0.7,0.9-1.1,1.4-1.1c0,0.5-0.4,1.1-1.1,1.8v4.2c-0.2,1.4-0.6,2.2-1.1,2.5c-0.2,0-0.6-0.1-1.1-0.4L96.5,79
			c0-0.2-0.2-0.4-0.7-0.4c-2.1-0.5-3.1-2.1-2.8-4.9C92.5,71.8,92.3,70.1,92.3,68.4z M107.8,69.5c-1.2-0.7-2.1-1.4-2.8-2.1
			c0.2-0.5,1.1-0.7,2.5-0.7c1.6,0,3.3,0.5,4.9,1.4c0.2,0.2,0.5,0.7,0.7,1.4c0.5,0.9,0.9,1.5,1.4,1.8l0.4-0.4c0.2,0,0.4,0.2,0.4,0.7
			c0,0.5,0.2,0.8,0.7,1.1c0,0.9,0,1.9,0,2.8c0.2,0.9-0.6,1.2-2.5,0.7c-0.2-0.2-0.5-0.4-0.7-0.4C110.8,75.3,109.2,73.2,107.8,69.5z
			 M118,18.8c0-0.2,0.2-0.5,0.7-0.7c2.6,0,4.2,0.1,4.9,0.4c0,0.2,0.1,0.4,0.4,0.4c0.2,0.2,0.7,0.5,1.4,0.7c3,1.2,4.6,2.9,4.6,5.3
			c-0.2,0.7-0.5,1.2-0.7,1.4c0,0.2-0.1,0.4-0.4,0.4l-0.7,0.4h-0.7c-0.9,0-1.8-0.2-2.5-0.7c-0.5-0.5-1.1-1.3-1.8-2.5
			c-0.9-0.9-1.6-1.6-2.1-2.1c-0.2-0.2-0.6-0.5-1.1-0.7C118.7,20.2,118,19.5,118,18.8z M121.8,64.6h1.4c3.5-0.2,6.5,1.6,8.8,5.6
			c1.2,1.9,1.8,3.8,1.8,5.6c0,1.2-0.7,1.8-2.1,1.8c-1.4,0.2-2.7-0.4-3.9-1.8c-0.2,0-0.6-0.7-1.1-2.1c-0.2-0.5-0.4-0.8-0.4-1.1
			c-0.7-1.6-1.9-3.6-3.5-6c-0.7-0.5-1.2-0.8-1.4-1.1c0-0.2-0.1-0.4-0.4-0.4l-0.4-0.4C120.8,64.7,121.1,64.6,121.8,64.6z"/>
		<path class="st0" d="M165.5,74.4v-3.5c0.5-3.3,0.9-8.4,1.4-15.5c0-1.2,0-2,0-2.5c-1.2,0.7-2.7,2-4.6,3.9c-2.1,1.9-3.8,3.3-4.9,4.2
			c-0.2,0.2-0.6,0.5-1.1,0.7c-0.9,0.5-1.6,0.9-2.1,1.4h-1.8c-0.2,0-0.5-0.1-0.7-0.4c-0.7-0.2-1.2-0.5-1.4-0.7c0-0.2,0-0.6,0-1.1
			l-0.4-0.7V60c0.5-1.4,1.5-2.8,3.2-4.2c1.4-2.1,3.6-5.3,6.7-9.5c3.5-4.5,6-7.7,7.4-9.9c-2.3,0.5-5.5,1.6-9.5,3.5
			c-0.7,0.2-1.8,0.7-3.2,1.4c-2.3,1.4-4.1,2.1-5.3,2.1h-0.7c-1.2,0-2.3,0-3.5,0c-0.7-0.2-1.6-0.7-2.8-1.4c-0.5-0.5-0.9-0.8-1.4-1.1
			c0.2-0.2,0.5-0.4,0.7-0.4c0.5-0.2,0.8-0.4,1.1-0.4c3.5-1.6,7.3-2.8,11.3-3.5c5.9-1.9,10.8-3.6,14.8-5.3c0-0.7,0-1.6,0-2.8
			c0.2-3.5,0.8-5.2,1.8-4.9c0.5,0,0.8,0,1.1,0v1.8c0.2,0.9,0.4,1.5,0.4,1.8c0.7,1.4,0.9,2.5,0.7,3.2c0.5,0,1.2-0.1,2.1-0.4
			c0.7,0,1.2,0,1.4,0c1.9,0.7,2.9,1.5,3.2,2.5l-2.5,0.7c-2.1,0.7-3.4,1.2-3.9,1.4c0,0.9-0.1,2.5-0.4,4.6c0,2.1-0.1,3.5-0.4,4.2
			c0.5-0.2,1.1-0.5,1.8-0.7c1.2-0.5,2.1-0.7,2.8-0.7c0,0.2-0.4,0.7-1.1,1.4c-0.7,0.7-1.3,1.3-1.8,1.8c-0.2,0.7-0.9,1.5-2.1,2.5
			c-0.5,3.3-0.8,9.7-1.1,19.4c-0.2,2.3-0.4,4-0.4,4.9c0,1.6-0.1,2.9-0.4,3.9h-0.4v0.4c-0.2,0-0.5,0.1-0.7,0.4c-0.2,0-0.5,0-0.7,0
			C167.4,76.3,166.4,75.6,165.5,74.4z M152.5,29.4c0.7-0.9,1.9-2,3.5-3.2c0.7-0.5,1.2-0.8,1.4-1.1c2.1-1.4,4.6-3.3,7.4-5.6
			c-0.2,0.2,0.1,0,1.1-0.7c0.5-0.5,1.4-1.1,2.8-1.8c1.6-0.9,2.7-1.8,3.2-2.5c0.2-0.2,0.4-0.6,0.4-1.1c0-0.7,0.5-1.1,1.4-1.1
			c2.6,0.7,4.1,2.3,4.6,4.9c0,0.7-0.5,1.4-1.4,2.1c-0.2,0.9-0.6,1.4-1.1,1.4c-0.9,0.7-2.3,1.3-4.2,1.8c-1.4,0.2-2.6,0.6-3.5,1.1
			c-4,1.4-8,2.7-12,3.9c-1.4,0.7-2.3,1.3-2.8,1.8H152.5z M165.8,47.3c0.2-0.2,0.5-0.4,0.7-0.4l0.7-0.4c0.2-0.9,0.4-1.6,0.4-2.1
			C166.7,45.9,166.1,46.8,165.8,47.3z M196.5,87.1c0-0.2-0.1-0.8-0.4-1.8v-1.1c0-0.2-0.1-0.7-0.4-1.4c-0.5-0.7-0.7-1.3-0.7-1.8
			c0-8.4,0.2-21,0.7-37.7c-2.3,0-5.9,0.9-10.6,2.8l-0.4,0.4c-0.9,0.5-1.8,0.7-2.5,0.7c-0.9,0.5-2.7,0.7-5.3,0.7h-1.8
			c-0.9-0.2-1.4-0.6-1.4-1.1c0.5-0.5,0.8-0.8,1.1-1.1h1.4c1.9-0.5,4.2-1.3,7-2.5c4.2-1.6,8.3-2.8,12.3-3.5c0.2-3.3,0.4-8.1,0.4-14.4
			c0-6.6,0-11.4,0-14.4c0-0.2,0-0.7,0-1.4c-0.2-0.9-0.4-1.6-0.4-2.1c0.2-1.2,0.6-1.9,1.1-2.1h1.8c0,0.2,0.1,0.5,0.4,0.7
			c0.2,0,0.5,0.1,0.7,0.4v0.4c0,0.5,0,0.8,0,1.1c0.7,2.6,1.1,6.8,1.1,12.7c0,3.1-0.1,7.5-0.4,13.4c-0.2,2.1-0.4,3.8-0.4,4.9
			c2.8-0.5,5.2-0.7,7-0.7c0-0.2-0.2-0.7-0.7-1.4c0-0.7,0.2-1.1,0.7-1.1c1.9,1.4,4.2,2.1,7,2.1c0,0.2,0.1,0.7,0.4,1.4
			c0,0.5,0,0.9,0,1.4v0.7l-0.4,0.4c-0.2,0-0.4,0.1-0.4,0.4h-1.1c-0.5,0-1.2-0.1-2.1-0.4c-0.9-0.2-1.6-0.4-2.1-0.4
			c-1.4,0-3.4,0.1-6,0.4c-0.9,0.2-1.8,0.4-2.5,0.4c0,14.1,0,27.1,0,39.1c0,0.2-0.1,0.6-0.4,1.1c-0.2,0.5-0.4,0.8-0.4,1.1l0.4,0.4
			c-0.7,1.9-1.5,3-2.5,3.5C196.9,87.1,196.7,87.1,196.5,87.1z M179.9,32.5c0-0.5,1.5-1.5,4.6-3.2c3-1.6,4.6-2.7,4.6-3.2
			c-1.6-1.4-3.6-2.8-6-4.2c-0.2,0-0.5-0.1-0.7-0.4c-0.5,0-0.7-0.2-0.7-0.7c0-0.5,0.6-0.7,1.8-0.7c6.1,1.6,9.6,4,10.6,7
			c0,1.2-0.4,1.8-1.1,1.8v-0.4l-1.4-0.4c-0.7-0.2-1.2-0.4-1.4-0.4c-0.2,0-0.5,0-0.7,0c-3.8,1.2-6.1,2.5-7,3.9c0,0.2,0.9,0.6,2.8,1.1
			c1.4,0,3,0.5,4.9,1.4l0.4,0.4c0.9,0.7,1.5,1.6,1.8,2.8c-0.5,0.7-0.8,1.1-1.1,1.1c-0.2-0.2-0.6-0.4-1.1-0.4c-0.2,0-0.6-0.1-1.1-0.4
			c-0.2-0.2-0.6-0.5-1.1-0.7c-0.7-0.5-1.2-0.7-1.4-0.7c-0.2,0-0.8-0.1-1.8-0.4C181.6,35.6,179.9,34.4,179.9,32.5z"/>
		<path class="st0" d="M224.3,47.3c-0.2-1.2,1.4-3.9,4.9-8.1c0.2-0.2,0.6-0.7,1.1-1.4c1.2-2.1,2-3.2,2.5-3.2h0.4
			c0.7,1.4,1.1,2.5,1.1,3.2c0.7-0.2,1.6-0.5,2.8-0.7c1.4-0.2,2.3-0.4,2.8-0.4c-0.9-1.4-1.4-4.1-1.4-8.1c0-3.5-0.6-6.3-1.8-8.4
			c0-0.2-0.2-0.6-0.7-1.1c-0.7-1.4-1.1-2.5-1.1-3.2v-0.7c0.5,0,0.8,0,1.1,0c3.3,0.5,5.5,1.4,6.7,2.8c1.4,2.8,2,7.3,1.8,13.4
			c0,2.1,0,3.6,0,4.6c0.2,0,0.6-0.1,1.1-0.4c0.5,0,0.8,0,1.1,0c-0.2-1.2-0.4-2-0.4-2.5c0.5-0.9,0.5-6.1,0-15.5
			c-0.2-3.5-0.4-6.3-0.4-8.4c0-0.2-0.2-0.5-0.7-0.7h-0.4c-0.2,0-0.4,0.1-0.4,0.4c-0.7,0.2-1.2,0.1-1.4-0.4c0-0.2,0.2-0.7,0.7-1.4
			c1.6-1.9,3.4-2.1,5.3-0.7c0.9,1.2,1.3,2.7,1.1,4.6c1.4,0,2.8,0.4,4.2,1.1c1.4-2.1,2.3-3.9,2.8-5.3c0-0.7-0.5-1.1-1.4-1.1
			c0-0.2,0.5-0.5,1.4-0.7h0.4c2.1-0.2,3.2,0.1,3.2,1.1c0,1.2-0.2,2.3-0.7,3.5c-0.9,1.4-1.8,2.8-2.5,4.2c0.2,0.2,0.6,0.5,1.1,0.7
			c0.7,0.5,1.3,0.9,1.8,1.4c0.2,0.2,0.5,0.5,0.7,0.7c0.9,0.5,1.4,0.9,1.4,1.4c3,0,5.2,0.1,6.3,0.4c0.7-1.9,1.1-3.8,1.1-5.6
			c0-0.2-0.9-0.5-2.8-0.7c-2.6,0-3.9-0.2-3.9-0.7v-0.4c2.6-0.9,5-1.4,7.4-1.4c2.3,0.2,3.6,1.5,3.9,3.9c0,0.2-0.2,0.9-0.7,2.1
			c-0.2,0.9-0.5,1.6-0.7,2.1c-0.5,1.6-1.2,4.1-2.1,7.4c-0.9,3.3-1.8,5.9-2.5,7.7c8.4,0,13.7,1.5,15.8,4.6c0,0.2,0.1,0.5,0.4,0.7
			c0.7,0.9,1.1,1.9,1.1,2.8c0,0.9-0.4,1.8-1.1,2.5c-0.2,0.5-1.3,0.7-3.2,0.7l-0.7-0.4c-0.5,0-0.8,0-1.1,0c-0.7,0-1.9,0.1-3.5,0.4
			c-1.4,0.2-2.6,0.4-3.5,0.4c-0.2,0-0.7-0.1-1.4-0.4c-0.5-0.2-0.9-0.4-1.4-0.4c-0.5,0.2-0.6,0.2-0.4,0c0.2-0.5,1.8-1.4,4.6-2.8
			c2.8-1.6,4.1-2.6,3.9-2.8c-1.4-2.3-4.9-3.2-10.6-2.5l-0.4,0.4c-1.2,1.6-2.2,2.7-3.2,3.2c-0.7,0-1.2,0-1.4,0
			c-0.2,0-0.4-0.2-0.4-0.7c0-0.2,0-0.5,0-0.7c0.2-1.2,0-1.8-0.7-1.8c-4.2,0.2-8,0.7-11.3,1.4c-0.2,0.7-0.6,1.2-1.1,1.4
			c-0.5,0-0.9-0.4-1.4-1.1c-0.9,0.2-2.5,0.5-4.6,0.7c-4,0.7-7,1.2-9.2,1.4c-2.8,6.6-5.4,10.1-7.7,10.6
			C224.9,50.2,224.3,49.2,224.3,47.3z M271.1,56.1c-3.1-0.5-4.7-0.7-4.9-0.7c-1.9,0-4.2,0-7,0c1.9,10.3,1.5,19.2-1.1,26.7
			c-0.9,1.6-2.8,3-5.6,4.2c-2.1-0.5-4.5-1.3-7-2.5c-1.2-0.5-1.9-0.8-2.1-1.1c-0.5-0.2-1.1-0.7-1.8-1.4c-0.5-0.7-0.8-1.1-1.1-1.1
			c-0.2-0.2-0.4-0.5-0.4-0.7c-0.2-0.2-0.4-0.5-0.4-0.7c-0.2,0-0.7-0.4-1.4-1.1v-0.4h0.4c6.3,1.9,11,2.7,14.1,2.5
			c1.6,0,2.9-1.4,3.9-4.2c1.9-5.6,1.9-12.3,0-20.1c-7.7,0.9-13,2.1-15.8,3.5c-1.4,0.7-3.6,1.1-6.7,1.1c-1.4-0.2-2.5-0.7-3.2-1.4
			c0-0.2,0.2-0.4,0.7-0.4c0.5-0.2,0.8-0.4,1.1-0.4c2.3-1.2,6.6-2.2,12.7-3.2c0.5,0,1.2-0.1,2.1-0.4c2.6-0.5,5.4-0.9,8.4-1.4
			c-0.2-0.5-0.5-0.9-0.7-1.4c-0.2-0.2-0.4-0.5-0.4-0.7h-0.4c-0.5,0-0.7,0.1-0.7,0.4h-0.4c0-0.2-0.1-0.4-0.4-0.4
			c0.7-0.2,0.9-0.6,0.7-1.1c-0.5-1.4-1.5-2.5-3.2-3.2c-0.2-0.2-0.5-0.4-0.7-0.4c-0.2,0-0.4-0.4-0.4-1.1c-0.5,0.2-1.2,0.6-2.1,1.1
			c-1.4,0.9-2.3,1.4-2.8,1.4c-1.6,0-2.3-1.1-2.1-3.2c0.7-2.3,1.9-4,3.5-4.9c0,0.2,0.2,0.5,0.7,0.7c0.2,0.2,0.4,0.5,0.4,0.7
			c0,0.2-0.1,0.5-0.4,0.7v0.4c0,0.7,0.4,1.1,1.1,1.1c1.2,0,2.7-0.4,4.6-1.1c1.2-0.5,2-0.8,2.5-1.1c0.5,0,1.2-0.2,2.1-0.7
			c3.3-0.7,5.9-1.1,7.7-1.1h1.8c0.9,0.2,1.4,0.9,1.4,2.1c0,0.2,0,0.5,0,0.7c0.5,0.2,0.5,0.7,0,1.4c-3.3,3.1-6.6,5.3-9.9,6.7
			c0,0.2,0.1,0.6,0.4,1.1c0,0.5,0,0.8,0,1.1c3.5-0.2,6.8-0.4,9.9-0.4c3,0.7,4.8,1.5,5.3,2.5C273.6,55.4,272.7,55.9,271.1,56.1z
			 M250,13.2c0,1.6,0,3.4,0,5.3c0.2-0.2,0.5-0.6,0.7-1.1c0.2-0.5,0.8-1.3,1.8-2.5c-0.2-0.2-0.6-0.6-1.1-1.1
			C250.7,13.6,250.2,13.4,250,13.2z M250.3,30.4c0.9-0.5,2.1-1.5,3.5-3.2c-1.4-2.3-2.6-3.5-3.5-3.5
			C250.3,25.8,250.3,28.1,250.3,30.4z M250.7,34.3c0,0.2,0,0.5,0,0.7c2.6-0.5,5-0.8,7.4-1.1c-0.2-0.5-0.7-1.4-1.4-2.8
			c-0.2-0.7-0.5-1.2-0.7-1.4C254.3,31.8,252.6,33.3,250.7,34.3z M258.1,18.8c0-0.5-0.9-1.2-2.8-2.1c-1.4,1.6-2.8,3.4-4.2,5.3
			c1.9,0.5,3.5,1.3,4.9,2.5C257.4,22.1,258.1,20.2,258.1,18.8z M253.2,43.4c-0.2,0-0.4,0.1-0.4,0.4c-0.2,0-0.5,0.1-0.7,0.4
			c-0.5,0.2-0.8,0.5-1.1,0.7c3.3,1.6,4.9,2.7,4.9,3.2c3.5-2.3,5.9-4.6,7-6.7C260.4,41.1,257.1,41.8,253.2,43.4z M253.2,43.8v-0.4
			c0,0.2-0.1,0.4-0.4,0.4H253.2z M262.3,19.1c-0.2,1.6-1.5,4.1-3.9,7.4c1.9,2.1,2.8,4.5,2.8,7c0.9,0,1.8,0,2.5,0
			c1.2-1.9,1.9-3.5,2.1-4.9c-0.2-0.2-0.7-0.4-1.4-0.4c-2.6-0.7-3.9-1.8-3.9-3.2c0-0.7,0.4-0.9,1.1-0.7c0,0.7,1.2,1.1,3.5,1.1h0.7
			h0.7c0.7-1.6,1.2-3,1.4-4.2h-3.2l-0.4,0.4l0.4-0.7v-0.4C264.3,20.1,263.5,19.6,262.3,19.1z M259.1,48l-0.4,0.4h0.4V48z
			 M259.5,47.3h-0.4C259.4,47.5,259.5,47.5,259.5,47.3z M263.7,22.3l0.4-0.4C264.1,22.2,263.9,22.3,263.7,22.3z"/>
		<path class="st0" d="M305.3,20.6c0-1.2,1.1-1.8,3.2-1.8h0.4c5.2,0.7,12.3,0.4,21.5-1.1c-0.7,0-1.3-0.5-1.8-1.4V16
			c-0.2-0.5-0.5-1.3-0.7-2.5c-0.7-1.6-1.2-2.7-1.4-3.2c-0.5-0.7-1.2-1.6-2.1-2.8c-1.2-1.9-2.1-3.4-2.8-4.6c0-0.2,0.1-0.5,0.4-0.7
			V1.6c0.7,0.5,1.6,0.8,2.8,1.1c0.2,0,0.7,0.1,1.4,0.4c3.5,0.7,5.9,1.8,7,3.2l0.4,1.1c0.2,0.7,0.5,1.1,0.7,1.1
			c0.2,0.7,0.5,1.8,0.7,3.2c0,2.8-0.8,4.9-2.5,6.3c2.1,0,5.3-0.2,9.5-0.7c4.9-0.5,8.3-0.7,10.2-0.7c4.7,0.2,7.2,0.9,7.4,2.1
			c0,1.2-0.6,1.6-1.8,1.4c-0.2,0-0.4,0.1-0.4,0.4c-0.9,0.2-1.9,0.4-2.8,0.4c-1.2,0-2.5,0-3.9,0c-8.9-0.7-20.5,0-34.8,2.1
			c-0.5,0-1.1,0.1-1.8,0.4c-2.6,0.5-4.5,0.7-5.6,0.7h-0.4C306.2,22.8,305.3,21.7,305.3,20.6z M339.4,76.5c0.5,0.2,1.1,0.7,1.8,1.4
			c1.2,0.9,2.2,1.4,3.2,1.4h0.4c1.9-0.7,3.3-1.9,4.2-3.5c4.2-8.2,6.5-15.7,6.7-22.5c0-1.2-0.8-1.9-2.5-2.1c-0.9,0-2.1,0-3.5,0
			c-9.6,0-18.5,0.8-26.7,2.5c-0.5,0-1.2,0.1-2.1,0.4c-1.9,0.5-3.2,0.7-3.9,0.7c-1.2,0-2.7-0.1-4.6-0.4c0.2,1.4,0.7,3.8,1.4,7
			c1.2,5.2,1.9,9,2.1,11.6c0.7,1.6,1.1,3,1.1,4.2c-0.2,0.9-0.7,1.6-1.4,2.1c-0.9-0.2-2-0.7-3.2-1.4c-0.2-0.9-0.5-1.6-0.7-2.1
			c-1.4-5.9-2.6-12.5-3.5-20.1c0-0.7,0.2-1.4,0.7-2.1c0.7-0.9,0.9-1.6,0.7-2.1h0.4c0.5,0,0.9,0.2,1.4,0.7c0.2,0.5,0.6,0.7,1.1,0.7
			c15.5-3.5,29.1-5.3,40.8-5.3c2.1,0,4.3,0.8,6.7,2.5c0.2,0.2,0.6,0.5,1.1,0.7c0.9,0.5,1.4,1.2,1.4,2.1c0,0.9-0.4,2.1-1.1,3.5
			c-0.5,0.9-0.8,1.6-1.1,2.1c-1.6,8.2-4,15.3-7,21.1c-1.9,3.8-3.9,5.6-6,5.6c-1.4,0-2.8-0.7-4.2-2.1C341,80.9,339.9,78.6,339.4,76.5
			z M325.7,45.2c-3.1-3-4.7-7.3-4.9-12.7c0-0.2,0.1-1.1,0.4-2.5c0-1.2,0-1.9,0-2.1c0.2-0.7,0.6-1.2,1.1-1.4c0.2,0,0.4,0.1,0.4,0.4
			c0.5,0,0.9,0.4,1.4,1.1c0.7,0.5,1.3,0.7,1.8,0.7h0.4c1.2-0.2,2.8-0.6,4.9-1.1c3.8-0.9,6.7-1.4,8.8-1.4c2.3,0.2,3.6,1.9,3.9,4.9
			c-1.2,1.9-2,2.9-2.5,3.2c-0.2,0.7-0.6,1.6-1.1,2.8c-0.5,1.2-0.9,2.1-1.4,2.8c-0.2,0.2-0.6,0.5-1.1,0.7c-0.2,0.2-0.5,0.9-0.7,2.1
			c-0.2,0.2-1.3,0.4-3.2,0.4c-1.6,0.2-2.7,0.4-3.2,0.4h-2.1l-0.4,1.1c0,0.5-0.1,0.8-0.4,1.1c-0.2,0-0.6-0.1-1.1-0.4
			C326.3,45.2,325.9,45.2,325.7,45.2z M320.7,58.6v-0.4h1.1c0.2,0,0.7,0.1,1.4,0.4c0.7,0.2,1.3,0.4,1.8,0.4c0.7,0,2-0.2,3.9-0.7
			c0.5-0.2,0.8-0.4,1.1-0.4c3.8-0.9,6.9-1.4,9.5-1.4c1.6,0,2.6,0.1,2.8,0.4c0.5,0,0.8,0.9,1.1,2.8c0,0.5-0.4,1.1-1.1,1.8
			c0,0.2-0.4,0.9-1.1,2.1c-0.5,0.5-0.7,0.8-0.7,1.1c-0.2,0.5-0.7,1.3-1.4,2.5c-0.9,1.4-1.4,2.3-1.4,2.8c-1.4,0.5-3.6,0.7-6.7,0.7
			c-0.7,0-1.3,0-1.8,0c-0.2,0.2-0.7,0.4-1.4,0.4c-0.2,0-0.6,0-1.1,0c-2.8-1.4-4.7-4.8-5.6-10.2c0-0.2,0-0.6,0-1.1
			C320.9,59.2,320.7,58.8,320.7,58.6z M325.7,32.2c0.5,4.7,1.2,7.4,2.1,8.1h0.7c2.6,0,4.3-0.1,5.3-0.4c1.6-4.2,2.8-7.6,3.5-10.2
			h-0.4c-1.4,0-4,0.5-7.7,1.4c-0.9,0.5-1.6,0.7-2.1,0.7C326.6,31.8,326.1,31.9,325.7,32.2z M329.9,60c-1.6,0.5-3.1,0.6-4.2,0.4
			c1.4,3.5,2.5,5.9,3.2,7c0.7-0.2,1.6-0.4,2.8-0.4c1.4-0.2,2.3-0.4,2.8-0.4c0.7-1.2,1.5-3,2.5-5.6c0.2-0.7,0.4-1.2,0.4-1.4l-0.4-0.4
			h-0.7c-0.2,0-1.2,0.1-2.8,0.4h-1.8C331.2,59.6,330.6,59.7,329.9,60z"/>
		<path class="st0" d="M398.2,61.7c-0.2,0.2-0.1,0.5,0.4,0.7c2.6,1.4,4,3.6,4.2,6.7c0,2.1-0.8,3.3-2.5,3.5c-0.5,0-0.9-0.1-1.4-0.4
			c-0.2-0.2-0.5-0.4-0.7-0.4c-0.5-0.7-0.8-2.3-1.1-4.9c-0.5-2.3-0.9-3.9-1.4-4.6c-1.6-0.5-3.1-1.2-4.2-2.1V60c0-0.2-0.1-0.5-0.4-0.7
			c-0.2-0.2-0.4-0.5-0.4-0.7c0-0.5,1.2-0.7,3.5-0.7c0.2,0,0.7,0,1.4,0c1.9,0.2,3,0.2,3.5,0c4.2-0.5,8.7-1.1,13.4-1.8v-8.8
			c-0.2,0-0.6,0-1.1,0c-1.4,0-2.3,0.2-2.8,0.7c-0.2,0-0.6,0.1-1.1,0.4c-0.7,0.5-1.3,0.7-1.8,0.7c-0.2,0-0.6-0.1-1.1-0.4
			c-0.5-0.2-0.9-0.4-1.4-0.4c-3.5,0.2-9.3,1.1-17.2,2.5c-0.5,0-1.2,0.2-2.1,0.7c-1.4,0.5-2.5,0.7-3.2,0.7c-3.3-0.9-5.2-2.2-5.6-3.9
			c0.2,0,0.7-0.1,1.4-0.4c1.2-0.2,2.1-0.4,2.8-0.4c4,0.2,10.6-0.4,19.7-1.8c4.5-0.7,6.5-2.2,6-4.6v-1.4v-0.7c-1.9,0.9-3.9,1.4-6,1.4
			h-0.4c-3.3-0.7-5.8-2.3-7.4-4.9c0.7-0.2,2.1-0.4,4.2-0.4c1.2,0,2.7-0.1,4.6-0.4c2.6,0,4.3-0.1,5.3-0.4c-0.2-1.4-0.2-3.5,0-6.3
			c0-1.2,0-2,0-2.5c0-1.2,0.8-1.8,2.5-1.8c0.2-0.5,0.4-0.8,0.4-1.1c0.5,0,0.8,0,1.1,0c0.7-1.4,1.4-2.5,2.1-3.2c4.7-6.6,7-11,7-13.4
			c0-0.7-0.1-1.1-0.4-1.1c-0.9,0-2,0.7-3.2,2.1c-0.2,0.2-0.5,0.5-0.7,0.7c-0.2,0.2-0.7,0.6-1.4,1.1c-0.9,0.5-1.8,1.1-2.5,1.8h-0.4
			c4-4.7,7.6-7.7,10.9-9.2c2.3,0,3.5,1.2,3.5,3.5c0,1.2-1.1,3.6-3.2,7.4l-0.4,0.4v0.4c0.7-0.2,1.6-0.5,2.8-0.7
			c0.7-0.5,1.3-0.7,1.8-0.7c1.4-0.7,2.8-1.1,4.2-1.1c1.2,0.7,1.9,1.4,2.1,2.1c0,1.4-1.6,2.1-4.9,2.1c-0.2,0-1.2,0.2-2.8,0.7
			c-1.6,0.5-2.7,0.8-3.2,1.1c-0.2,0-0.5,0.1-0.7,0.4c-0.7,0.2-1.2,0.5-1.4,0.7c3.8,1.6,5.9,4.2,6.3,7.7c0,0.7-0.2,1.2-0.7,1.4h-2.8
			c-0.2,0-0.6-0.5-1.1-1.4c-0.2-0.9-0.5-1.5-0.7-1.8c-0.5-0.5-1.1-1.1-1.8-1.8c-0.7-0.7-1.3-1.1-1.8-1.1h-0.4
			c-0.2,0.2-0.6,0.6-1.1,1.1c-1.6,2.3-3.3,3.5-4.9,3.5c0.2,2.1,0.4,4,0.4,5.6c0,0.5,1.1,0.6,3.2,0.4c0.7-0.2,1.5,0,2.5,0.7
			c0.9,0.2,1.4,0.8,1.4,1.8c0,1.2-1.3,1.9-3.9,2.1c-1.6,0-2.8,0.2-3.5,0.7c0,2.3,0,4.7,0,7c3.3-0.5,8.8-0.9,16.5-1.4
			c6.3,0,9.6,1.2,9.9,3.5c-0.2,0.9-1.1,1.5-2.5,1.8c-0.7,0-2-0.2-3.9-0.7c-0.7-0.2-1.3-0.4-1.8-0.4c-2.3-0.5-6.6-0.5-12.7,0
			c0,3.3-0.1,6.3-0.4,9.2c1.2-0.2,2.1-0.4,2.8-0.4c1.4,0.2,2.2,0,2.5-0.7h0.7c0.5,0,0.9,0,1.4,0c0.7,0.2,1.2,0.4,1.4,0.4
			c0.9,0.5,1.4,1.2,1.4,2.1c-0.2,0.9-0.7,1.4-1.4,1.4c-0.9,0.2-2.1,0.1-3.5-0.4c-1.4-0.2-2.5-0.4-3.2-0.4c-0.2,0-0.6,0-1.1,0
			c-0.5,0.2-0.8,0.4-1.1,0.4c0,1.6,0.1,3.9,0.4,6.7c0,2.8,0,4.9,0,6.3c0,5.2-0.1,8.4-0.4,9.9c-0.5,1.9-1.1,3.2-1.8,3.9l-0.7,0.4
			c-0.5,0.2-0.8,0.5-1.1,0.7c-0.9,0-1.9,0-2.8,0c-1.9,0-4-0.5-6.3-1.4l-2.1-1.1c-0.2-0.2-0.6-0.5-1.1-0.7c-0.2-0.2-0.8-0.6-1.8-1.1
			c-2.3-1.6-3.5-2.8-3.5-3.5c0.5,0,1.1,0.4,1.8,1.1c0.5,0.2,0.8,0.5,1.1,0.7c0.7,0,1.8,0.1,3.2,0.4c1.6,0.2,2.7,0.4,3.2,0.4
			c0.7,0,1.3,0,1.8,0c0-0.2,0.1-0.2,0.4,0c0.7-0.2,2-0.5,3.9-0.7c1.6-0.9,2.6-3.2,2.8-6.7c0-1.6,0-4,0-7c0.2-3.3,0.4-5.9,0.4-7.7
			c-3.1,0.5-6.9,1.2-11.6,2.1C399.6,61.5,398.7,61.7,398.2,61.7z M404.2,27.2c-0.2,0-0.7,0.2-1.4,0.7c-1.4,0-2.7-1.2-3.9-3.5
			c-0.9-1.6-1.8-2.8-2.5-3.5c-1.9,0.9-3.6,2-5.3,3.2c-0.9,0.9-1.8,1.5-2.5,1.8c-0.9,0-2-0.5-3.2-1.4c-0.2-0.2-0.8-1.6-1.8-4.2
			c0-1.2,0.7-2,2.1-2.5c1.9-0.9,3.2-2,3.9-3.2c0.2-0.5,0.5-1.3,0.7-2.5c0.9-3,2-4.6,3.2-4.6c1.9,0.7,3.5,2.8,4.9,6.3
			c0.7,0,1.4-0.2,2.1-0.7c0.2,0,0.9-0.2,2.1-0.7c1.6-0.7,2.8-1.1,3.5-1.1c0.5,0,1.1,0,1.8,0c0.7,0.2,1.2,0.4,1.4,0.4
			c0.5,0,0.7-0.1,0.7-0.4v1.4v0.7c0,1.2-0.8,2.1-2.5,2.8c-0.7,0.2-1.2,0.5-1.4,0.7c-0.2,0-0.5,0.2-0.7,0.7c-0.5,0.5-0.8,0.8-1.1,1.1
			l-0.4,1.1c-0.2,0.7-0.4,1.2-0.4,1.4v0.4c0,0.5,0.2,1.4,0.7,2.8c0.5,0.7,0.7,1.3,0.7,1.8C405,26.4,404.6,26.8,404.2,27.2z
			 M401.7,18.4v0.4c0.2,1.2,0.6,1.8,1.1,1.8c0.9-0.9,1.9-2.2,2.8-3.9C403.9,17.2,402.6,17.7,401.7,18.4z M408.7,23.7v0.4
			C409.2,23.8,409.2,23.7,408.7,23.7z M410.5,32.9v0.7l1.1-0.4L410.5,32.9z"/>
		<path class="st0" d="M466.5,57.2c-0.5,2.1-1.6,3.4-3.5,3.9c-2.3-1.2-4.1-4.6-5.3-10.2c-1.9,1.9-3.9,3.9-6,6
			c-1.6,1.4-3.3,2-4.9,1.8c-0.2-0.5-1.3-1.2-3.2-2.1l-1.4-1.1c0-0.9,0.9-2,2.8-3.2l0.4-0.4c7.3-3.5,14.7-14.5,22.2-33.1
			c-1.6,0-4.2-0.4-7.7-1.1c2.3,0.5,2,0.4-1.1-0.4c-0.5-0.5-0.8-0.8-1.1-1.1l-0.4-0.4c-0.7-0.5-1.1-0.8-1.1-1.1
			c0-1.6,2.7-2.7,8.1-3.2c1.2,0,1.9,0,2.1,0c1.4-1.2,2.9-1.8,4.6-1.8c3.3,0.2,5,1.6,5.3,4.2c0,1.2-0.7,2.9-2.1,5.3
			c-1.4,2.1-2.5,4.1-3.2,6c-2.1,5.2-4.5,10.1-7,14.8c0.7,0,1.9-0.5,3.5-1.4c2.1-0.9,3.6-1.4,4.6-1.4c4.7,0.2,7,2.1,7,5.6
			c-0.2,0.7-0.5,1.3-0.7,1.8c-0.2,3.5-1.5,6.8-3.9,9.9c-0.7,1.2-2.2,1.8-4.6,1.8C469.1,56.9,467.9,57.2,466.5,57.2z M464,46.3
			c0.2,0.5,0.6,1.5,1.1,3.2c0.5,1.4,0.7,2.5,0.7,3.2c0.2,0,0.6-0.1,1.1-0.4c1.4-0.2,2.3-0.6,2.8-1.1c0.7-2.1,1.1-4.7,1.1-7.7
			C468.1,44.1,465.9,45.1,464,46.3z M500.3,81.8c0-1.4,0-2.8,0-4.2c0.9-12.2,1.4-26.9,1.4-44c-1.4,0-3.6,0.2-6.7,0.7
			c-1.2,0.2-2,0.4-2.5,0.4c-0.9,15.3-2.8,26.3-5.6,33.1v0.4c-1.2,1.9-2.6,2.8-4.2,2.8c-0.7,0-1.1-0.1-1.1-0.4
			c-0.7,0-1.1-0.6-1.1-1.8v-0.7c0-0.2-0.1-0.4-0.4-0.4V67c-0.2-0.7-0.4-1.2-0.4-1.4c0-0.5,0.5-1.2,1.4-2.1l0.4-0.4
			c3-6.1,5-15.2,6-27.5c-0.7,0.2-1.8,0.5-3.2,0.7c-1.9,0.7-3.4,1.1-4.6,1.1c-1.4,0-2.3-0.4-2.8-1.1c-0.2-0.2-0.6-0.4-1.1-0.4
			c-0.5-0.2-0.7-0.6-0.7-1.1c0-1.4,0.6-2.1,1.8-2.1c0.9,0,1.8,0,2.5,0s1.5-0.1,2.5-0.4c0.9,0,1.6,0,2.1,0c1.4-0.5,2.7-0.8,3.9-1.1
			c0.5-6.6,0.4-11.6-0.4-15.1c-1.6-0.5-3.4-1.3-5.3-2.5c-1.4-0.5-2.5-0.9-3.2-1.4h0.4l0.4-0.4h0.4c0.2,0,0.7,0,1.4,0
			c1.2,0.2,2.1,0.2,2.8,0c0.5,0,1.3,0,2.5,0c4.7-0.2,8.3-0.8,10.9-1.8c0.2,0,0.6-0.1,1.1-0.4c4.7-1.2,8.2-1.4,10.6-0.7
			c0,0.2,0.1,0.6,0.4,1.1v0.7c0.2,0.7-1.2,1.8-4.2,3.2c0,4.7,0,9.5,0,14.4c1.9-0.2,2.5-0.4,1.8-0.4c3-0.2,4.8-0.4,5.3-0.4
			c3.5,0,5.3,0.9,5.3,2.8c-0.2,1.9-1.2,2.6-2.8,2.1c-3.3,0-6.5,0-9.5,0c0,15.3,0,30.2,0,44.7c0.2,2.8-0.4,5.3-1.8,7.4l-0.4-0.4
			c-0.2,0.2-0.6,0.5-1.1,0.7c-0.5,0-0.8,0.1-1.1,0.4C500.9,85.2,500.5,83.9,500.3,81.8z M491.1,16.3c1.2,2.3,1.8,6.6,1.8,12.7
			c0,0.7,0,1.3,0,1.8c1.6-0.2,2.2-0.4,1.8-0.4c3.3-0.5,5.6-0.8,7-1.1c0-4.9,0-9.7,0-14.4c-0.7,0-1.9,0.1-3.5,0.4
			C495.1,15.7,492.8,16.1,491.1,16.3z"/>
		<path class="st0" d="M536.9,80.4c-1.4,0.2-2-0.2-1.8-1.4h-1.1c0.2-0.5,1.1-1.2,2.5-2.1c1.2-0.5,1.9-0.8,2.1-1.1
			c6.3-6.8,10-15.5,10.9-26c-4.2,1.4-8.7,3.3-13.4,5.6c-0.2,0-0.6,0.1-1.1,0.4c-1.6,0.7-2.8,1.1-3.5,1.1c-2.1-0.5-3.3-1.1-3.5-1.8
			c0-0.2,0.5-0.6,1.4-1.1c0.9-0.5,1.4-0.8,1.4-1.1c3.8-1.6,9.7-3.9,18-6.7c0.5-0.2,0.8-0.4,1.1-0.4c0.2-0.9,0.4-2.7,0.4-5.3
			c0.2,0,0.4-0.1,0.4-0.4h0.4c0.7,0,1.5,1.6,2.5,4.9c0.7-0.2,1.9-0.6,3.5-1.1c2.3-0.5,3.9-0.8,4.6-1.1c0.2-0.2,1.1-0.6,2.5-1.1
			c0-0.2,0.2-0.4,0.7-0.4c1.2,0.2,1.9,0.9,2.1,2.1c0,0.9-0.5,2.2-1.4,3.9c-0.5,0.7-0.8,1.3-1.1,1.8c-1.9,5.6-2.9,10.9-3.2,15.8
			c0,3.5,1.4,6,4.2,7.4c1.9,0.7,4.7,1.3,8.4,1.8h0.4c6.3,0,11-0.7,14.1-2.1c0.5-0.2,0.7-0.5,0.7-0.7c0.5-0.7,0.9-1.8,1.4-3.2
			c0.7-1.4,1.2-2.3,1.4-2.8l0.4-2.1l0.4-0.7c0.2-0.9,0.6-1.4,1.1-1.4v3.2l0.4,0.4c0.2,1.6,0.5,2.8,0.7,3.5v1.1
			c0,0.2-0.1,0.5-0.4,0.7l-0.4,0.4c0,0.5,0.1,0.8,0.4,1.1l0.4-0.4c0.2-0.5,0.5-0.8,0.7-1.1c-0.9,2.6-1.6,4.2-2.1,4.9
			c-4.9,1.6-9,2.5-12.3,2.5c-15.7,0.7-23.5-3.6-23.2-13c0.2-4.7,1.5-10.9,3.9-18.7c-2.6,0.5-5.3,1.3-8.1,2.5
			c-0.7,5.2-1.8,10.1-3.2,14.8c-2.8,8.4-6.3,14-10.6,16.5l-0.4,0.4c-0.9,0.5-1.8,0.7-2.5,0.7V80.4z M529.2,31.5
			c0-2.1,1.1-4.2,3.2-6.3c0-0.2,0.7-1.1,2.1-2.5c2.6-2.3,4.1-3.6,4.6-3.9c0.9,0.9,1.5,2.6,1.8,4.9c5.9-1.4,10.8-2.2,14.8-2.5
			c-0.5-0.2-0.8-0.6-1.1-1.1c-0.7,0-1.6-0.5-2.8-1.4c-0.2-0.2-0.5-0.4-0.7-0.4c-1.4-0.5-2.7-0.7-3.9-0.7c-0.9,0-2.1,0.1-3.5,0.4
			c-1.4,0-2.5,0-3.2,0c0.2-0.5,2.2-0.8,6-1.1c2.8,0,4.9-0.1,6.3-0.4c0.2,0,0.4-0.1,0.4-0.4c-0.2-1.2-1.5-3.2-3.9-6
			c-1.4-1.4-2.1-2.2-2.1-2.5c-0.2,0-0.4-0.2-0.4-0.7c0-0.5,0.2-0.7,0.7-0.7v0.4c0.2,0,0.9,0.1,2.1,0.4h1.1c0.2,0,1.2,0.5,2.8,1.4
			c4,3.8,6.1,6.8,6.3,9.2c-0.2,0.5-0.4,0.9-0.4,1.4c0.2,1.2,0.7,1.6,1.4,1.4c0.7,0,1.9-0.1,3.5-0.4c1.4,0,2.5,0,3.2,0
			c6.3-0.2,11.7,0.7,16.2,2.8c1.6,1.2,2.3,2.1,2.1,2.8c0,0.9-0.2,1.5-0.7,1.8c-1.6,0.9-2.9,1.8-3.9,2.5c-2.1,0.7-4.6,1.2-7.4,1.4
			c-0.5-0.2-0.8-0.4-1.1-0.4c-0.7,0-1.2,0.1-1.4,0.4h-0.7c0.5-0.9,1.8-2.2,3.9-3.9l0.4-0.4c0.2-0.2,0.9-0.7,2.1-1.4
			c0.5-0.2,0.8-0.5,1.1-0.7c0.7-0.7,0.6-1.2-0.4-1.4c-2.1-0.9-5.9-1.4-11.3-1.4c-5.2,0-11.6,0.8-19.4,2.5c-2.3,0.2-4.6,0.6-6.7,1.1
			c-0.2,0.5-0.7,1.2-1.4,2.1c-0.7,0.9-1.2,1.6-1.4,2.1h1.4l-0.4,0.4c-0.2,0-0.6,0.2-1.1,0.7l-0.7,0.7c-0.5,0.2-0.8,0.5-1.1,0.7
			c-0.2,0.2-0.5,0.5-0.7,0.7c-0.2,0.7-0.8,1.1-1.8,1.1c-0.2,0-0.5,0-0.7,0H532c-0.2,0.2-0.5,0.4-0.7,0.4
			C530.6,34.6,529.9,33.6,529.2,31.5z M538.7,42.7c0-1.2,0.9-2.5,2.8-3.9c4.2-4,6.7-7.2,7.4-9.5c0-0.2,0-0.5,0-0.7l-0.4-0.7v-0.4
			c0-0.7,0.2-1.1,0.7-1.1c0.2,0,1.3,1.1,3.2,3.2c0.7,0.9,1.2,1.5,1.4,1.8c0.5,1.6,0.5,3.1,0,4.2c-1.9,2.1-4.2,4-7,5.6
			c-0.2,0-0.5,0.1-0.7,0.4l-0.4-0.4c-0.2,0-0.5,0-0.7,0c-0.2,0-0.8,0.4-1.8,1.1c-0.9,0.7-1.6,1.1-2.1,1.1c0-0.2-0.2-0.4-0.7-0.4
			C540.2,42.9,539.6,42.7,538.7,42.7z M568.2,37.5h-1.4l-0.4-0.4c-0.2-0.5-0.9-0.7-2.1-0.7c0.2,0,0.4-0.2,0.4-0.7h0.4v-0.4
			c0-0.9-0.7-2.1-2.1-3.5c-0.7-0.7-1.4-1.4-2.1-2.1c-0.5-0.5-0.7-0.9-0.7-1.4c0-0.5,0.4-0.7,1.1-0.7c2.1,0,4.7,1.5,7.7,4.6
			c1.4,1.9,2.1,3.6,2.1,5.3v0.4l-0.4-0.4c0-0.2-0.1-0.4-0.4-0.4H570c-0.2,0-0.5,0.1-0.7,0.4c0,0.2,0,0.5,0,0.7v0.4v-0.4
			c0-0.2-0.1-0.4-0.4-0.4C568.7,37.6,568.4,37.5,568.2,37.5z"/>
		<path class="st0" d="M607.3,86c-1.4-0.2-2.2-3.6-2.5-10.2c0.5-9.9,1.1-20.5,1.8-32c0-6.1,0.6-12.3,1.8-18.7c0-0.5,0.1-1.3,0.4-2.5
			c0.2-0.9,0.4-1.5,0.4-1.8c-0.2,0-0.6,0-1.1,0c-0.5,0.2-0.9,0.4-1.4,0.4c-4.9-0.2-7.5-1.2-7.7-2.8c0-0.7,0.5-1.1,1.4-1.1
			c4.5-1.2,8.3-2.5,11.6-3.9c0.5-0.2,1.2-0.6,2.1-1.1c2.8-1.6,4.9-2.6,6.3-2.8c3-0.5,4.8,0.5,5.3,2.8c0,2.8-1.8,7.7-5.3,14.8
			c0,0.2-0.1,0.6-0.4,1.1c-0.2,0.5-0.4,0.9-0.4,1.4c0,0.5,0.5,1.6,1.4,3.5c1.6,2.6,2.7,4.8,3.2,6.7c0.2,0.9,0.4,2.7,0.4,5.3
			c-0.2,3.8-1.5,5.8-3.9,6c-2.3,0-4.7-1.2-7-3.5c-0.5-0.5-0.8-0.8-1.1-1.1l-0.4-0.4c-0.2-0.5-0.5-0.7-0.7-0.7c0,10.8,0,21.2,0,31.3
			c0.5,3.8,0.1,6.3-1.1,7.7C609.8,85.8,608.7,86.3,607.3,86z M611.5,38.5v0.7c0,0.2,0,0.6,0,1.1c0,1.4,0.8,2.3,2.5,2.8
			c1.9,0.9,3,1.4,3.5,1.4c0.9,0,1.4-1.1,1.4-3.2c0.2-2.3-0.4-5.2-1.8-8.4c-0.2-0.5-0.5-1.2-0.7-2.1c-0.5-0.9-0.8-1.9-1.1-2.8
			c1.4-5.9,2.5-9.6,3.2-11.3h-0.4c-0.7,0.5-1.9,1.2-3.5,2.1c-1.2,0.5-2,0.8-2.5,1.1c0.2,0.7,0.4,1.5,0.4,2.5c0,0.5,0,1.3,0,2.5
			c-0.2,1.2-0.4,2.1-0.4,2.8C611.8,31.1,611.5,34.8,611.5,38.5z M623.8,35.3c-0.9-0.2-1.8-1.2-2.5-2.8c-0.2-0.5-0.4-0.8-0.4-1.1
			c0-0.5,0.6-1.3,1.8-2.5c2.3-2.3,4.2-4.6,5.6-6.7c1.6-2.6,2.8-4,3.5-4.2c0.7,0,1.2,1.1,1.4,3.2c0,0.2,0,0.6,0,1.1
			c-0.2,0.7-0.4,1.2-0.4,1.4c3-0.7,5.9-1.5,8.4-2.5l-0.4-0.4c-0.5,0-0.6-0.1-0.4-0.4c0-0.2,0.2-0.4,0.7-0.4c0.2-0.2,0.4-0.5,0.4-0.7
			c0-2.1-1.5-5.2-4.6-9.2c-0.5-0.7-0.7-1.4-0.7-2.1c0.9-0.7,2.9-0.1,6,1.8c2.3,1.9,4.1,5.3,5.3,10.2c0.7,0,1.8-0.1,3.2-0.4
			c4-0.5,6.9-0.7,8.8-0.7c2.8,0,5.5,0.5,8.1,1.4c1.6,1.4,2.6,2.6,2.8,3.5c0,0.9-0.1,1.5-0.4,1.8c-1.2,1.2-4.9,2.9-11.3,5.3v-0.7
			c0-0.2-0.1-0.4-0.4-0.4h-0.4l-0.4,0.4c0,0.2-0.1,0.4-0.4,0.4l-0.4-0.4c0-0.2-0.1-0.4-0.4-0.4c-0.5,0-1.5,0.4-3.2,1.1
			c-0.9,0.5-1.5,0.7-1.8,0.7h-0.4c0.2-0.5,2.6-2.5,7-6c2.6-1.9,4.1-3,4.6-3.5c-0.9-0.5-2.2-0.6-3.9-0.4c-0.7,0-1.2,0-1.4,0
			c-3.5,0-7,0.4-10.6,1.1c-0.9,0.5-2.1,0.6-3.5,0.4c-7.7,1.6-12.2,3.4-13.4,5.3c-0.2,0-0.4,0.1-0.4,0.4l-0.4,0.4
			C627.7,33.1,625.7,35.1,623.8,35.3z M622.1,75.5l0.4-0.4v-0.7c0-0.2-0.1-0.5-0.4-0.7c-0.2-0.2-0.4-0.5-0.4-0.7v-0.7
			c0.5-0.5,1.3-1.3,2.5-2.5c1.9-1.6,3.3-2.9,4.2-3.9c4.5-5.6,8-11.4,10.6-17.2c-4.2,2.3-8.2,3.5-12,3.5c-0.9,0-1.5-0.4-1.8-1.1
			c0-0.5,0-0.8,0-1.1c-0.2-0.2-0.5-0.5-0.7-0.7c0-0.9,0.7-1.8,2.1-2.5c0.7-0.2,1.2-0.5,1.4-0.7c1.6-1.4,3.2-2.7,4.6-3.9
			c0.2-0.2,0.7-0.6,1.4-1.1c1.4-0.9,2.7-2.2,3.9-3.9c0.2-0.2,0.5-0.5,0.7-0.7l0.7-0.4L639,36h-0.4c-0.2,0-0.5,0-0.7,0
			c-2.3-0.2-3.5-1.3-3.5-3.2c0-0.9,0.6-1.4,1.8-1.4c0.5,0,0.9,0,1.4,0c0.7,0.2,1.2,0.4,1.4,0.4c1.2,0,2.7-0.2,4.6-0.7
			c1.9-0.5,3.3-0.7,4.2-0.7c1.9-0.2,2.7,0.7,2.5,2.8c-0.7,0.9-2.3,1.9-4.9,2.8c0-0.2-0.1-0.4-0.4-0.4c-0.2,0-0.8,0.1-1.8,0.4
			c-0.9,0.5-1.5,0.7-1.8,0.7c-0.2,0.2-0.9,0.6-2.1,1.1c-0.2,0-0.6,0.1-1.1,0.4l-0.4,0.4c-1.4,1.4-2.7,2.7-3.9,3.9
			c-0.2,0.2-0.7,0.6-1.4,1.1c-1.4,1.2-2.1,1.9-2.1,2.1h0.4c0,0.2-0.1,0.4-0.4,0.4c-0.2,0.2-0.4,0.6-0.4,1.1
			c1.9,0.2,7.6-1.9,17.2-6.3c1.9-1.2,3.6-1.2,5.3,0c1.2,0.7,1.9,1.4,2.1,2.1c0,1.9-2,2.8-6,2.8h-0.4c-1.6,0.2-2.8,0.6-3.5,1.1
			c-0.9,0.9-2,2.6-3.2,4.9c-0.5,0.7-0.8,1.3-1.1,1.8c-1.6,4.2-3.9,8.4-6.7,12.7c-0.2,0.2-0.6,0.7-1.1,1.4c-2.8,4.5-5.4,7.3-7.7,8.4
			c-0.2,0-0.6,0-1.1,0C623,75.8,622.3,75.7,622.1,75.5z M640.7,68.8c0-0.2,0.1-0.6,0.4-1.1V67c1.2-4.9,2.2-9.7,3.2-14.4
			c0-0.7,0-1.3,0-1.8c2.1-0.2,3,1.1,2.8,3.9c-0.2,0.7-0.5,1.8-0.7,3.2c-1.2,4.7-1.9,8.3-2.1,10.9c-0.5,3.8,2.2,6,8.1,6.7
			c6.8,0.2,11.8-0.6,15.1-2.5c1.4-0.7,2.3-2.7,2.8-6c0-0.5,0-0.8,0-1.1v-0.7c-0.2-3.5-0.2-5.5,0-6c0.2-0.5,0.5-0.5,0.7,0
			c0,0.5,0.6,1.6,1.8,3.5c0.2,0.2,0.4,0.5,0.4,0.7c0.2,0.7,0.5,1.5,0.7,2.5c0.7,2.8,1.1,5,1.1,6.7c0,1.6-0.2,2.6-0.7,2.8
			c-0.5,0.2-0.9,0.4-1.4,0.4c-0.5,0.2-0.9,0.5-1.4,0.7c-5.2,1.2-10.6,1.8-16.2,1.8c-6.6-0.5-10.9-1.8-13-3.9
			C641.2,73.2,640.7,71.4,640.7,68.8z"/>
	</g>
	<g>
		<g>
			<path class="st0" d="M4.4,114.9L4.4,114.9l-0.1-0.5l0.1-0.1c0.4,0,0.7,0,0.8-0.1c0.1,0,0.2-0.1,0.3-0.2c0.1-0.1,0.3-0.5,0.5-1
				l0.9-1.9l2.2-5.1c0.4-1,0.8-2,1.3-3h0.5l3.5,8.3l0.5,1.1c0.1,0.3,0.3,0.7,0.5,1c0.2,0.4,0.3,0.6,0.4,0.6c0.1,0.1,0.2,0.1,0.3,0.2
				c0.1,0,0.3,0.1,0.7,0.1l0.1,0.1v0.4l-0.1,0.1c-0.6,0-1.1-0.1-1.6-0.1c-0.9,0-1.8,0.1-2.7,0.1l-0.1-0.1v-0.4l0.1-0.1
				c0.6,0,1,0,1.2-0.1s0.2-0.1,0.2-0.3c0-0.1,0-0.3-0.1-0.5l-1-2.5H7.9L7,113.1c-0.2,0.4-0.2,0.7-0.2,0.8c0,0.1,0.1,0.2,0.2,0.3
				c0.1,0.1,0.5,0.1,1.1,0.1l0.1,0.1v0.4l-0.1,0.1c-0.7,0-1.3-0.1-1.9-0.1C5.6,114.9,5,114.9,4.4,114.9z M8.2,110.3h4.2l-2.1-5
				L8.2,110.3z"/>
			<path class="st0" d="M17.7,103.3L17.7,103.3c1,0,1.7,0,2,0l3.8-0.1c1.1,0,2,0.1,2.7,0.3c0.7,0.2,1.3,0.6,1.9,1.1
				c0.5,0.5,1,1.1,1.2,1.8c0.3,0.7,0.4,1.4,0.4,2.2c0,0.7-0.1,1.5-0.4,2.2s-0.6,1.4-1.1,1.9c-0.5,0.6-1,1-1.6,1.4
				c-0.6,0.4-1.2,0.6-1.8,0.7c-0.6,0.1-1.2,0.2-1.9,0.2c-0.4,0-1.2,0-2.4,0c-0.4,0-0.6,0-0.8,0c-0.4,0-0.8,0-1.4,0.1l-0.1-0.1v-0.3
				l0.1-0.1c0.3-0.2,0.5-0.3,0.6-0.3c0,0,0.1-0.5,0.1-1.4c0-0.9,0-1.6,0-2.1v-3l0-1.9c0-0.4,0-0.7,0-1c0-0.3,0-0.4-0.1-0.5
				c0-0.1-0.1-0.2-0.1-0.2c0,0-0.1-0.1-0.2-0.1c-0.1,0-0.2-0.1-0.4-0.1l-0.6,0l-0.1-0.1V103.3z M20.8,114c0.6,0.1,1.2,0.2,1.9,0.2
				c1.3,0,2.3-0.2,3.1-0.6c0.8-0.4,1.3-1.1,1.7-1.9c0.4-0.8,0.6-1.8,0.6-2.8c0-1.6-0.4-2.8-1.2-3.6s-2.1-1.3-3.9-1.3
				c-0.7,0-1.4,0.1-2.1,0.2c0,0.9-0.1,1.9-0.1,3v2.6l0,2.4C20.7,112.6,20.8,113.2,20.8,114z"/>
			<path class="st0" d="M36.5,115c-0.1-0.2-0.4-1.2-1-2.8l-2.8-6.9c-0.3-0.8-0.5-1.2-0.6-1.3c-0.1-0.1-0.4-0.2-1-0.2l-0.1-0.1v-0.4
				l0.1-0.1c0.8,0,1.6,0.1,2.1,0.1c0.5,0,1.3,0,2.2-0.1l0.1,0.1v0.5l-0.1,0.1c-0.7,0-1.1,0-1.2,0.1c-0.1,0-0.2,0.1-0.2,0.2
				c0,0.1,0.1,0.4,0.3,0.9c0.2,0.5,0.3,1,0.5,1.3l2.6,6.5l2.1-5.4c0.1-0.4,0.4-1,0.6-1.8c0.3-0.8,0.4-1.3,0.4-1.5
				c0-0.1-0.1-0.2-0.2-0.3c-0.1,0-0.5-0.1-1.2-0.1l-0.1-0.1v-0.4l0.1-0.1c1,0,1.6,0.1,1.8,0.1c0.2,0,0.8,0,1.7-0.1l0.1,0.1v0.4
				l-0.1,0.1c-0.4,0-0.6,0-0.7,0.1c-0.1,0-0.2,0.1-0.2,0.3c-0.1,0.1-0.3,0.6-0.6,1.3l-2.6,6.3c-0.6,1.4-1,2.5-1.2,3.3H36.5z"/>
			<path class="st0" d="M42.1,114.9L42.1,114.9l-0.1-0.5l0.1-0.1c0.4,0,0.7,0,0.8-0.1c0.1,0,0.2-0.1,0.3-0.2c0.1-0.1,0.3-0.5,0.5-1
				l0.9-1.9l2.2-5.1c0.4-1,0.8-2,1.3-3h0.5l3.5,8.3l0.5,1.1c0.1,0.3,0.3,0.7,0.5,1c0.2,0.4,0.3,0.6,0.4,0.6s0.2,0.1,0.3,0.2
				c0.1,0,0.3,0.1,0.7,0.1l0.1,0.1v0.4l-0.1,0.1c-0.6,0-1.1-0.1-1.6-0.1c-0.9,0-1.8,0.1-2.7,0.1l-0.1-0.1v-0.4l0.1-0.1
				c0.6,0,1,0,1.2-0.1s0.2-0.1,0.2-0.3c0-0.1,0-0.3-0.1-0.5l-1-2.5h-4.8l-0.9,2.1c-0.2,0.4-0.2,0.7-0.2,0.8c0,0.1,0.1,0.2,0.2,0.3
				c0.1,0.1,0.5,0.1,1.1,0.1l0.1,0.1v0.4l-0.1,0.1c-0.7,0-1.3-0.1-1.9-0.1C43.4,114.9,42.7,114.9,42.1,114.9z M45.9,110.3H50l-2.1-5
				L45.9,110.3z"/>
			<path class="st0" d="M55.8,114.9L55.8,114.9l-0.1-0.5l0.1-0.1c0.3,0,0.6,0,0.8-0.1c0.2,0,0.3-0.1,0.4-0.2
				c0.1-0.1,0.1-0.2,0.1-0.4s0-0.6,0.1-1.2c0-0.6,0-1,0-1.3v-6.6c0-0.3-0.1-0.5-0.2-0.6c-0.1-0.1-0.2-0.2-0.4-0.3s-0.5-0.1-0.9-0.1
				l-0.1-0.1v-0.4l0.1-0.1c0.8,0,1.3,0,1.5,0c0.6,0,1,0,1.4,0l2.6,3.4l3.9,4.8c0.5,0.6,0.9,1.1,1.4,1.7v-6.4c0-0.2,0-0.6,0-1.3
				c0-0.6,0-1.1-0.1-1.2s-0.1-0.3-0.1-0.3c-0.1-0.1-0.2-0.1-0.4-0.1c-0.2,0-0.4,0-0.8-0.1l-0.1-0.1v-0.4l0.1-0.1c0.4,0,1.1,0,1.9,0
				c0.8,0,1.3,0,1.6,0l0.1,0.1v0.4l-0.1,0.1c-0.4,0-0.6,0-0.8,0.1c-0.2,0-0.3,0.1-0.4,0.2c0,0.1-0.1,0.2-0.1,0.4
				c0,0.2,0,0.5-0.1,1.1c0,0.6,0,1,0,1.3v3.9l0,2.3c0,0.7,0,1.5,0,2.2c-0.3-0.1-0.7-0.2-1.4-0.3l-0.6-0.7l-1.8-2.1l-5.6-7v6.3
				c0,0.3,0,0.7,0,1.3c0,0.6,0,1,0.1,1.2s0.1,0.2,0.1,0.3c0,0.1,0.1,0.1,0.3,0.1c0.1,0,0.4,0.1,0.9,0.1l0.1,0.1v0.4l-0.1,0.1
				c-0.3,0-0.7-0.1-1.4-0.1C57.1,114.9,56.4,114.9,55.8,114.9z"/>
			<path class="st0" d="M81,113.5l-0.3,0.8c-1.2,0.6-2.5,0.9-3.9,0.9c-2,0-3.6-0.6-4.8-1.7c-1.2-1.1-1.9-2.6-1.9-4.4
				c0-1.2,0.3-2.3,0.9-3.3c0.6-0.9,1.4-1.6,2.4-2.1c1-0.5,2.1-0.7,3.4-0.7c0.7,0,1.5,0.1,2.2,0.2s1.3,0.3,1.8,0.6l0.1,0.1
				c-0.1,0.3-0.2,1.1-0.4,2.3l-0.1,0.1h-0.4l-0.1-0.1l-0.1-1.4c-0.4-0.3-0.9-0.6-1.5-0.7c-0.6-0.2-1.2-0.3-1.8-0.3
				c-0.9,0-1.8,0.2-2.5,0.6s-1.3,1-1.7,1.7c-0.4,0.8-0.6,1.7-0.6,2.8c0,1.1,0.2,2.1,0.7,2.9c0.5,0.8,1.1,1.5,2,1.9
				c0.8,0.4,1.8,0.7,2.9,0.7c0.5,0,1,0,1.4-0.1c0.4-0.1,0.8-0.2,1.1-0.3s0.6-0.3,0.9-0.5L81,113.5z"/>
			<path class="st0" d="M82.4,103.3L82.4,103.3c1.9,0,3.2,0,3.7,0c1.8,0,3.4,0,4.8,0l0,0.1c-0.1,0.5-0.2,1.4-0.3,2.5l0,0.1h-0.4
				l-0.1-0.1c0,0,0-0.1,0-0.1c0-0.5,0-0.9-0.1-1.3c-0.3-0.2-0.8-0.3-1.4-0.3s-1.1-0.1-1.4-0.1c-0.4,0-1,0-1.7,0.1l0,1.3l0,1.5l0,1.7
				c0.6,0,1.1,0,1.6,0c0.5,0,0.9,0,1.3,0c0.3,0,0.5-0.1,0.6-0.1s0.1-0.1,0.1-0.2s0.1-0.3,0.1-0.5l0-0.5l0.1-0.1h0.4l0.1,0.1
				c0,0.6,0,1.2,0,1.8l0,1.9l-0.1,0.1h-0.4l-0.1-0.1l-0.1-0.5c0-0.4-0.1-0.6-0.1-0.7c0-0.1-0.1-0.1-0.2-0.2
				c-0.1-0.1-0.3-0.1-0.6-0.1c-0.3,0-0.8,0-1.4,0c-0.3,0-0.8,0-1.5,0c0,0.5,0,1.2,0,2.3c0,1.2,0,2,0,2.5H87c1.3,0,2.2,0,2.5,0
				c0.3,0,0.7-0.1,1-0.2c0-0.1,0.1-0.4,0.2-0.9s0.2-0.7,0.2-0.9l0.1-0.1h0.4l0.1,0.1c0,0.2-0.1,0.6-0.1,1.2s-0.1,1.1-0.1,1.5
				l-0.1,0.1c-1,0-2.4,0-4.1,0l-2.2,0c-0.5,0-1.1,0-1.6,0.1l-0.1-0.1v-0.3l0.1-0.1c0.3-0.2,0.5-0.3,0.6-0.3s0.1-0.5,0.1-1.4
				c0-0.9,0-1.6,0-2.1v-3l0-1.9c0-0.4,0-0.7,0-1c0-0.3,0-0.4-0.1-0.5c0-0.1-0.1-0.2-0.1-0.2c0,0-0.1-0.1-0.2-0.1
				c-0.1,0-0.2-0.1-0.4-0.1l-0.6,0l-0.1-0.1V103.3z"/>
			<path class="st0" d="M92.7,103.3L92.7,103.3c1,0,1.7,0,2,0l3.8-0.1c1.1,0,2,0.1,2.7,0.3c0.7,0.2,1.3,0.6,1.9,1.1
				c0.5,0.5,1,1.1,1.2,1.8s0.4,1.4,0.4,2.2c0,0.7-0.1,1.5-0.4,2.2s-0.6,1.4-1.1,1.9c-0.5,0.6-1,1-1.6,1.4c-0.6,0.4-1.2,0.6-1.8,0.7
				c-0.6,0.1-1.2,0.2-1.9,0.2c-0.4,0-1.2,0-2.4,0c-0.4,0-0.6,0-0.8,0c-0.4,0-0.8,0-1.4,0.1l-0.1-0.1v-0.3l0.1-0.1
				c0.3-0.2,0.5-0.3,0.6-0.3s0.1-0.5,0.1-1.4c0-0.9,0-1.6,0-2.1v-3l0-1.9c0-0.4,0-0.7,0-1c0-0.3,0-0.4-0.1-0.5
				c0-0.1-0.1-0.2-0.1-0.2c0,0-0.1-0.1-0.2-0.1c-0.1,0-0.2-0.1-0.4-0.1l-0.6,0l-0.1-0.1V103.3z M95.7,114c0.6,0.1,1.2,0.2,1.9,0.2
				c1.3,0,2.3-0.2,3.1-0.6s1.3-1.1,1.7-1.9s0.6-1.8,0.6-2.8c0-1.6-0.4-2.8-1.2-3.6c-0.8-0.9-2.1-1.3-3.9-1.3c-0.7,0-1.4,0.1-2.1,0.2
				c0,0.9-0.1,1.9-0.1,3v2.6l0,2.4C95.7,112.6,95.7,113.2,95.7,114z"/>
			<path class="st0" d="M110.9,103.2l1,0c0.7,0,1.1,0,1.3,0c0.2,0,1,0,2.4-0.1l0.1,0.1v0.4l-0.1,0.1c-0.4,0-0.7,0-0.9,0
				c-0.2,0-0.4,0.1-0.4,0.1c-0.1,0.1-0.2,0.2-0.2,0.4s0,0.5,0,0.9l0,1.9v3.8l0,1.6c0,0.6,0,1,0,1.2c0,0.2,0.1,0.3,0.1,0.4
				c0.1,0.1,0.2,0.1,0.3,0.2c0.1,0,0.5,0.1,1.1,0.1l0.1,0v0.4l-0.1,0.1c0,0-0.5,0-1.4,0c-0.4,0-0.7,0-0.9,0c-0.2,0-1,0-2.4,0.1
				l-0.1-0.1v-0.4l0.1,0c0.5,0,0.8,0,1-0.1c0.2,0,0.3-0.1,0.3-0.1s0.1-0.2,0.1-0.3c0-0.2,0.1-0.5,0.1-1.1l0-1.7v-3.8l0-1.6
				c0-0.6,0-1,0-1.2s-0.1-0.3-0.1-0.4c-0.1-0.1-0.2-0.1-0.3-0.1c-0.1,0-0.5-0.1-1.1-0.1l-0.1-0.1L110.9,103.2L110.9,103.2z"/>
			<path class="st0" d="M116.9,114.9L116.9,114.9l-0.1-0.5l0.1-0.1c0.3,0,0.6,0,0.8-0.1c0.2,0,0.3-0.1,0.4-0.2
				c0.1-0.1,0.1-0.2,0.1-0.4s0-0.6,0.1-1.2c0-0.6,0-1,0-1.3v-6.6c0-0.3-0.1-0.5-0.2-0.6c-0.1-0.1-0.2-0.2-0.4-0.3s-0.5-0.1-0.9-0.1
				l-0.1-0.1v-0.4l0.1-0.1c0.8,0,1.3,0,1.5,0c0.6,0,1,0,1.4,0l2.6,3.4l3.9,4.8c0.5,0.6,0.9,1.1,1.4,1.7v-6.4c0-0.2,0-0.6,0-1.3
				c0-0.6,0-1.1-0.1-1.2s-0.1-0.3-0.1-0.3c-0.1-0.1-0.2-0.1-0.4-0.1c-0.2,0-0.4,0-0.8-0.1l-0.1-0.1v-0.4l0.1-0.1c0.4,0,1.1,0,1.9,0
				c0.8,0,1.3,0,1.6,0l0.1,0.1v0.4l-0.1,0.1c-0.4,0-0.6,0-0.8,0.1c-0.2,0-0.3,0.1-0.4,0.2c0,0.1-0.1,0.2-0.1,0.4
				c0,0.2,0,0.5-0.1,1.1c0,0.6,0,1,0,1.3v3.9l0,2.3c0,0.7,0,1.5,0,2.2c-0.3-0.1-0.7-0.2-1.4-0.3l-0.6-0.7l-1.8-2.1l-5.6-7v6.3
				c0,0.3,0,0.7,0,1.3c0,0.6,0,1,0.1,1.2s0.1,0.2,0.1,0.3c0,0.1,0.1,0.1,0.3,0.1c0.1,0,0.4,0.1,0.9,0.1l0.1,0.1v0.4l-0.1,0.1
				c-0.3,0-0.7-0.1-1.4-0.1C118.3,114.9,117.5,114.9,116.9,114.9z"/>
			<path class="st0" d="M131.4,112L131.4,112l0.5-0.1l0.1,0.1c0,0.7,0.1,1.1,0.1,1.3c0,0.2,0.2,0.3,0.4,0.5c0.2,0.2,0.6,0.3,1,0.4
				c0.4,0.1,0.8,0.2,1.3,0.2c0.6,0,1.1-0.1,1.6-0.3s0.8-0.5,1.1-0.9c0.3-0.4,0.4-0.9,0.4-1.4c0-0.4-0.1-0.7-0.2-0.9
				s-0.3-0.5-0.5-0.6c-0.2-0.2-0.5-0.3-0.8-0.4c-0.3-0.1-0.7-0.2-1.3-0.3c-0.5-0.1-1-0.2-1.3-0.2s-0.6-0.2-0.9-0.3
				c-0.3-0.1-0.6-0.3-0.8-0.6c-0.2-0.2-0.4-0.5-0.5-0.8c-0.1-0.3-0.2-0.7-0.2-1.1c0-1,0.4-1.9,1.1-2.5s1.7-1,2.9-1
				c0.5,0,1,0.1,1.6,0.2c0.6,0.1,1.1,0.3,1.5,0.5l0.1,0.1c-0.1,0.5-0.2,1.2-0.2,2.2l-0.1,0.1h-0.4l-0.1-0.1c0-0.7,0-1.1,0-1.2
				c0-0.2-0.3-0.4-0.7-0.6c-0.5-0.3-1-0.4-1.6-0.4c-0.5,0-0.9,0.1-1.3,0.3c-0.4,0.2-0.7,0.5-0.9,0.9c-0.2,0.4-0.3,0.8-0.3,1.2
				c0,0.3,0.1,0.6,0.2,0.9c0.1,0.2,0.3,0.4,0.5,0.6s0.4,0.3,0.7,0.3c0.3,0.1,0.8,0.2,1.5,0.3c1,0.1,1.7,0.3,2.1,0.5
				c0.4,0.2,0.8,0.5,1.1,0.9c0.3,0.4,0.4,0.9,0.4,1.5c0,1.2-0.5,2.1-1.4,2.9s-2.1,1.2-3.5,1.2c-1.1,0-2.1-0.2-3-0.6l0-0.1
				C131.3,114.1,131.3,113.3,131.4,112z"/>
			<path class="st0" d="M149.8,103.2L149.8,103.2c0,0.6,0,1.4,0,2.7l-0.1,0.1h-0.4l-0.1-0.1l-0.1-0.8c0-0.4-0.1-0.7-0.1-0.7
				c0-0.1-0.1-0.2-0.1-0.2c-0.1,0-0.2-0.1-0.5-0.1s-0.6,0-1,0h-1.6c0,1.2-0.1,2-0.1,2.1v4.8l0,1.6c0,0.6,0,1,0,1.2
				c0,0.2,0.1,0.3,0.1,0.4c0.1,0.1,0.2,0.1,0.3,0.1c0.1,0,0.5,0.1,1.1,0.1l0.1,0v0.4l-0.1,0.1c-1.4,0-2.2-0.1-2.4-0.1
				c-0.2,0-1,0-2.3,0.1l-0.1-0.1v-0.4l0.1,0c0.5,0,0.9,0,1-0.1c0.2,0,0.3-0.1,0.3-0.1s0.1-0.2,0.1-0.3c0-0.2,0.1-0.5,0.1-1.1l0-1.7
				v-4.8c0-0.1,0-0.8-0.1-2.1H143c-0.5,0-0.9,0-1.3,0c-0.4,0-0.6,0.1-0.6,0.2c-0.1,0.1-0.1,0.4-0.2,0.9l-0.1,0.8l-0.1,0.1h-0.4
				l-0.1-0.1c0-1.3,0-2.2-0.1-2.6l0.1-0.1c1,0,2.5,0.1,4.8,0.1C147.3,103.3,148.9,103.3,149.8,103.2z"/>
			<path class="st0" d="M151,103.2l1,0c0.7,0,1.1,0,1.3,0c0.2,0,1,0,2.4-0.1l0.1,0.1v0.4l-0.1,0.1c-0.4,0-0.7,0-0.9,0
				c-0.2,0-0.4,0.1-0.4,0.1c-0.1,0.1-0.2,0.2-0.2,0.4s0,0.5,0,0.9l0,1.9v3.8l0,1.6c0,0.6,0,1,0,1.2c0,0.2,0.1,0.3,0.1,0.4
				c0.1,0.1,0.2,0.1,0.3,0.2c0.1,0,0.5,0.1,1.1,0.1l0.1,0v0.4l-0.1,0.1c0,0-0.5,0-1.4,0c-0.4,0-0.7,0-0.9,0c-0.2,0-1,0-2.4,0.1
				l-0.1-0.1v-0.4l0.1,0c0.5,0,0.8,0,1-0.1c0.2,0,0.3-0.1,0.3-0.1s0.1-0.2,0.1-0.3s0.1-0.5,0.1-1.1l0-1.7v-3.8l0-1.6
				c0-0.6,0-1,0-1.2c0-0.2-0.1-0.3-0.1-0.4c-0.1-0.1-0.2-0.1-0.3-0.1c-0.1,0-0.5-0.1-1.1-0.1l-0.1-0.1L151,103.2L151,103.2z"/>
			<path class="st0" d="M166.5,103.2L166.5,103.2c0,0.6,0,1.4,0,2.7l-0.1,0.1H166l-0.1-0.1l-0.1-0.8c0-0.4-0.1-0.7-0.1-0.7
				c0-0.1-0.1-0.2-0.1-0.2c-0.1,0-0.2-0.1-0.5-0.1s-0.6,0-1,0h-1.6c0,1.2-0.1,2-0.1,2.1v4.8l0,1.6c0,0.6,0,1,0,1.2
				c0,0.2,0.1,0.3,0.1,0.4c0.1,0.1,0.2,0.1,0.3,0.1c0.1,0,0.5,0.1,1.1,0.1l0.1,0v0.4l-0.1,0.1c-1.4,0-2.2-0.1-2.4-0.1
				c-0.2,0-1,0-2.3,0.1l-0.1-0.1v-0.4l0.1,0c0.5,0,0.9,0,1-0.1c0.2,0,0.3-0.1,0.3-0.1s0.1-0.2,0.1-0.3c0-0.2,0.1-0.5,0.1-1.1l0-1.7
				v-4.8c0-0.1,0-0.8-0.1-2.1h-1.2c-0.5,0-0.9,0-1.3,0c-0.4,0-0.6,0.1-0.6,0.2c-0.1,0.1-0.1,0.4-0.2,0.9l-0.1,0.8l-0.1,0.1H157
				l-0.1-0.1c0-1.3,0-2.2-0.1-2.6l0.1-0.1c1,0,2.5,0.1,4.8,0.1C164,103.3,165.6,103.3,166.5,103.2z"/>
			<path class="st0" d="M167.5,103.3L167.5,103.3c1.4,0,2.2,0,2.4,0c0.2,0,1,0,2.4-0.1l0.1,0.1v0.4l-0.1,0.1c-0.4,0-0.7,0-0.9,0
				c-0.2,0-0.4,0.1-0.4,0.1c-0.1,0.1-0.2,0.2-0.2,0.4c0,0.2,0,0.5,0,0.9l0,1.9v2.6c0,0.9,0,1.5,0.1,1.9c0,0.4,0.1,0.7,0.2,1
				s0.3,0.5,0.5,0.7c0.2,0.2,0.6,0.4,1,0.5c0.4,0.1,1,0.2,1.5,0.2c0.6,0,1.2-0.1,1.7-0.2c0.5-0.2,0.9-0.4,1.2-0.7
				c0.3-0.3,0.5-0.7,0.5-1.3c0.1-0.5,0.1-1.2,0.1-2.2v-2.5c0-0.4,0-1,0-1.8s0-1.2-0.1-1.3s-0.1-0.2-0.3-0.3
				c-0.1-0.1-0.5-0.1-1.2-0.1l-0.1-0.1v-0.4l0.1-0.1c0.8,0,1.5,0.1,1.9,0.1c0.4,0,1.1,0,1.9-0.1l0.1,0.1v0.4l-0.1,0.1
				c-0.5,0-0.9,0-1,0.1c-0.2,0-0.3,0.1-0.3,0.1c-0.1,0.1-0.1,0.2-0.1,0.3c0,0.1-0.1,0.5-0.1,1.1l0,1.9v2.5c0,1,0,1.8-0.1,2.4
				c-0.1,0.6-0.2,1-0.5,1.4c-0.3,0.4-0.6,0.7-0.9,0.9c-0.4,0.2-0.8,0.4-1.4,0.6c-0.6,0.1-1.2,0.2-1.8,0.2c-0.8,0-1.4-0.1-2-0.3
				c-0.6-0.2-1.1-0.4-1.4-0.7c-0.3-0.3-0.6-0.6-0.7-0.9s-0.2-0.7-0.3-1.1c0-0.4-0.1-1.1-0.1-1.9v-3.2l0-1.6c0-0.6,0-1,0-1.2
				c0-0.2-0.1-0.3-0.1-0.4c-0.1-0.1-0.2-0.1-0.3-0.1c-0.1,0-0.5-0.1-1.1-0.1l-0.1-0.1V103.3z"/>
			<path class="st0" d="M190.6,103.2L190.6,103.2c0,0.6,0,1.4,0,2.7l-0.1,0.1h-0.4l-0.1-0.1l-0.1-0.8c0-0.4-0.1-0.7-0.1-0.7
				c0-0.1-0.1-0.2-0.1-0.2c-0.1,0-0.2-0.1-0.5-0.1s-0.6,0-1,0h-1.6c0,1.2-0.1,2-0.1,2.1v4.8l0,1.6c0,0.6,0,1,0,1.2
				c0,0.2,0.1,0.3,0.1,0.4c0.1,0.1,0.2,0.1,0.3,0.1c0.1,0,0.5,0.1,1.1,0.1l0.1,0v0.4l-0.1,0.1c-1.4,0-2.2-0.1-2.4-0.1
				c-0.2,0-1,0-2.3,0.1l-0.1-0.1v-0.4l0.1,0c0.5,0,0.9,0,1-0.1c0.2,0,0.3-0.1,0.3-0.1s0.1-0.2,0.1-0.3c0-0.2,0.1-0.5,0.1-1.1l0-1.7
				v-4.8c0-0.1,0-0.8-0.1-2.1h-1.2c-0.5,0-0.9,0-1.3,0c-0.4,0-0.6,0.1-0.6,0.2c-0.1,0.1-0.1,0.4-0.2,0.9l-0.1,0.8l-0.1,0.1h-0.4
				l-0.1-0.1c0-1.3,0-2.2-0.1-2.6l0.1-0.1c1,0,2.5,0.1,4.8,0.1C188.1,103.3,189.7,103.3,190.6,103.2z"/>
			<path class="st0" d="M191.9,103.3L191.9,103.3c1.9,0,3.2,0,3.7,0c1.8,0,3.4,0,4.8,0l0,0.1c-0.1,0.5-0.2,1.4-0.3,2.5l0,0.1h-0.4
				l-0.1-0.1c0,0,0-0.1,0-0.1c0-0.5,0-0.9-0.1-1.3c-0.3-0.2-0.8-0.3-1.4-0.3s-1.1-0.1-1.4-0.1c-0.4,0-1,0-1.7,0.1l0,1.3l0,1.5l0,1.7
				c0.6,0,1.1,0,1.6,0c0.5,0,0.9,0,1.3,0c0.3,0,0.5-0.1,0.6-0.1s0.1-0.1,0.1-0.2s0.1-0.3,0.1-0.5l0-0.5l0.1-0.1h0.4l0.1,0.1
				c0,0.6,0,1.2,0,1.8l0,1.9l-0.1,0.1h-0.4l-0.1-0.1l-0.1-0.5c0-0.4-0.1-0.6-0.1-0.7c0-0.1-0.1-0.1-0.2-0.2
				c-0.1-0.1-0.3-0.1-0.6-0.1c-0.3,0-0.8,0-1.4,0c-0.3,0-0.8,0-1.5,0c0,0.5,0,1.2,0,2.3c0,1.2,0,2,0,2.5h1.5c1.3,0,2.2,0,2.5,0
				c0.3,0,0.7-0.1,1-0.2c0-0.1,0.1-0.4,0.2-0.9s0.2-0.7,0.2-0.9l0.1-0.1h0.4l0.1,0.1c0,0.2-0.1,0.6-0.1,1.2s-0.1,1.1-0.1,1.5
				l-0.1,0.1c-1,0-2.4,0-4.1,0l-2.2,0c-0.5,0-1.1,0-1.6,0.1l-0.1-0.1v-0.3l0.1-0.1c0.3-0.2,0.5-0.3,0.6-0.3s0.1-0.5,0.1-1.4
				c0-0.9,0-1.6,0-2.1v-3l0-1.9c0-0.4,0-0.7,0-1c0-0.3,0-0.4-0.1-0.5c0-0.1-0.1-0.2-0.1-0.2c0,0-0.1-0.1-0.2-0.1
				c-0.1,0-0.2-0.1-0.4-0.1l-0.6,0l-0.1-0.1V103.3z"/>
			<path class="st0" d="M206.9,109.2c0-0.8,0.1-1.6,0.4-2.3c0.2-0.7,0.6-1.4,1.2-2c0.6-0.6,1.3-1.1,2.1-1.4c0.8-0.3,1.7-0.5,2.7-0.5
				c1.9,0,3.4,0.5,4.5,1.5c1.1,1,1.7,2.4,1.7,4.2c0,1.2-0.3,2.4-0.8,3.3c-0.5,1-1.3,1.8-2.3,2.3c-1,0.5-2.1,0.8-3.4,0.8
				c-0.9,0-1.7-0.1-2.5-0.4s-1.4-0.7-1.9-1.3c-0.5-0.6-0.9-1.3-1.2-2.1S206.9,109.8,206.9,109.2z M208.6,108.6
				c0,0.7,0.1,1.4,0.3,2.2c0.2,0.8,0.5,1.4,1,2c0.4,0.6,0.9,1,1.5,1.2c0.6,0.3,1.2,0.4,1.9,0.4c0.9,0,1.6-0.2,2.3-0.6
				c0.7-0.4,1.2-1,1.5-1.8c0.3-0.8,0.5-1.7,0.5-2.8c0-1.1-0.2-2.1-0.6-3c-0.4-0.9-1-1.5-1.7-1.9c-0.7-0.4-1.5-0.6-2.4-0.6
				c-1.3,0-2.4,0.4-3.2,1.2C209,105.8,208.6,107,208.6,108.6z"/>
			<path class="st0" d="M223.7,109.3v1.7l0,1.6c0,0.6,0,1,0,1.2s0.1,0.3,0.1,0.4s0.2,0.1,0.3,0.1c0.1,0,0.5,0.1,1.1,0.1l0.1,0v0.4
				l-0.1,0.1c-1.4,0-2.2-0.1-2.4-0.1c-0.2,0-1,0-2.4,0.1l-0.1-0.1v-0.4l0.1,0c0.5,0,0.9,0,1-0.1c0.2,0,0.3-0.1,0.3-0.1
				s0.1-0.2,0.1-0.3c0-0.2,0.1-0.5,0.1-1.1l0-1.8v-3.8l0-1.6c0-0.6,0-1,0-1.2c0-0.2-0.1-0.3-0.1-0.4c-0.1-0.1-0.2-0.1-0.3-0.1
				c-0.1,0-0.5-0.1-1.1-0.1l-0.1-0.1v-0.4l0.1-0.1c2.3,0,3.7,0,4.1,0c1.3,0,2.6,0,4,0l0.1,0.1c-0.1,0.3-0.1,0.6-0.2,0.9
				c0,0.3-0.1,0.8-0.1,1.5l-0.1,0.1h-0.4l-0.1-0.1c0,0,0-0.2-0.1-0.6c0-0.3-0.1-0.6-0.1-0.8c-0.6-0.2-1.4-0.3-2.4-0.3
				c-0.5,0-1,0-1.6,0.1c-0.1,0.4-0.1,1.5-0.1,3.1v1.4c0.7,0,1.2,0,1.4,0c0.5,0,0.9,0,1.2-0.1c0.3,0,0.5-0.1,0.6-0.1
				c0.1,0,0.1-0.1,0.2-0.2c0-0.1,0.1-0.3,0.1-0.6l0-0.4l0.1-0.1h0.4l0.1,0.1l-0.1,1.8c0,0.2,0,0.5,0,0.9c0,0.4,0,0.8,0,1l-0.1,0.1
				h-0.4l-0.1-0.1l0-0.7c0-0.3,0-0.5-0.1-0.6c0-0.1-0.1-0.2-0.2-0.2c-0.1,0-0.3-0.1-0.6-0.1c-0.3,0-0.8,0-1.4,0
				C224.3,109.3,223.9,109.3,223.7,109.3z"/>
			<path class="st0" d="M234.9,114.9L234.9,114.9l-0.1-0.5l0.1-0.1c0.3,0,0.6,0,0.8-0.1c0.2,0,0.3-0.1,0.4-0.2
				c0.1-0.1,0.1-0.2,0.1-0.4s0-0.6,0.1-1.2c0-0.6,0-1,0-1.3v-6.6c0-0.3-0.1-0.5-0.2-0.6c-0.1-0.1-0.2-0.2-0.4-0.3s-0.5-0.1-0.9-0.1
				l-0.1-0.1v-0.4l0.1-0.1c0.8,0,1.3,0,1.5,0c0.6,0,1,0,1.4,0l2.6,3.4l3.9,4.8c0.5,0.6,0.9,1.1,1.4,1.7v-6.4c0-0.2,0-0.6,0-1.3
				c0-0.6,0-1.1-0.1-1.2s-0.1-0.3-0.1-0.3c-0.1-0.1-0.2-0.1-0.4-0.1c-0.2,0-0.4,0-0.8-0.1l-0.1-0.1v-0.4l0.1-0.1c0.4,0,1.1,0,1.9,0
				c0.8,0,1.3,0,1.6,0l0.1,0.1v0.4l-0.1,0.1c-0.4,0-0.6,0-0.8,0.1c-0.2,0-0.3,0.1-0.4,0.2c0,0.1-0.1,0.2-0.1,0.4
				c0,0.2,0,0.5-0.1,1.1c0,0.6,0,1,0,1.3v3.9l0,2.3c0,0.7,0,1.5,0,2.2c-0.3-0.1-0.7-0.2-1.4-0.3l-0.6-0.7l-1.8-2.1l-5.6-7v6.3
				c0,0.3,0,0.7,0,1.3c0,0.6,0,1,0.1,1.2s0.1,0.2,0.1,0.3c0,0.1,0.1,0.1,0.3,0.1c0.1,0,0.4,0.1,0.9,0.1l0.1,0.1v0.4l-0.1,0.1
				c-0.3,0-0.7-0.1-1.4-0.1C236.2,114.9,235.5,114.9,234.9,114.9z"/>
			<path class="st0" d="M249,114.9L249,114.9l-0.1-0.5l0.1-0.1c0.4,0,0.7,0,0.8-0.1c0.1,0,0.2-0.1,0.3-0.2c0.1-0.1,0.3-0.5,0.5-1
				l0.9-1.9l2.2-5.1c0.4-1,0.8-2,1.3-3h0.5l3.5,8.3l0.5,1.1c0.1,0.3,0.3,0.7,0.5,1c0.2,0.4,0.3,0.6,0.4,0.6s0.2,0.1,0.3,0.2
				c0.1,0,0.3,0.1,0.7,0.1l0.1,0.1v0.4l-0.1,0.1c-0.6,0-1.1-0.1-1.6-0.1c-0.9,0-1.8,0.1-2.7,0.1l-0.1-0.1v-0.4l0.1-0.1
				c0.6,0,1,0,1.2-0.1s0.2-0.1,0.2-0.3c0-0.1,0-0.3-0.1-0.5l-1-2.5h-4.8l-0.9,2.1c-0.2,0.4-0.2,0.7-0.2,0.8c0,0.1,0.1,0.2,0.2,0.3
				c0.1,0.1,0.5,0.1,1.1,0.1l0.1,0.1v0.4l-0.1,0.1c-0.7,0-1.3-0.1-1.9-0.1C250.2,114.9,249.6,114.9,249,114.9z M252.8,110.3h4.2
				l-2.1-5L252.8,110.3z"/>
			<path class="st0" d="M270.8,103.2L270.8,103.2c0,0.6,0,1.4,0,2.7l-0.1,0.1h-0.4l-0.1-0.1l-0.1-0.8c0-0.4-0.1-0.7-0.1-0.7
				c0-0.1-0.1-0.2-0.1-0.2s-0.2-0.1-0.5-0.1c-0.3,0-0.6,0-1,0h-1.6c0,1.2-0.1,2-0.1,2.1v4.8l0,1.6c0,0.6,0,1,0,1.2s0.1,0.3,0.1,0.4
				c0.1,0.1,0.2,0.1,0.3,0.1c0.1,0,0.5,0.1,1.1,0.1l0.1,0v0.4l-0.1,0.1c-1.4,0-2.2-0.1-2.4-0.1c-0.2,0-1,0-2.3,0.1l-0.1-0.1v-0.4
				l0.1,0c0.5,0,0.9,0,1-0.1c0.2,0,0.3-0.1,0.3-0.1s0.1-0.2,0.1-0.3s0.1-0.5,0.1-1.1l0-1.7v-4.8c0-0.1,0-0.8-0.1-2.1h-1.2
				c-0.5,0-0.9,0-1.3,0c-0.4,0-0.6,0.1-0.6,0.2s-0.1,0.4-0.2,0.9l-0.1,0.8l-0.1,0.1h-0.4l-0.1-0.1c0-1.3,0-2.2-0.1-2.6l0.1-0.1
				c1,0,2.5,0.1,4.8,0.1C268.3,103.3,269.9,103.3,270.8,103.2z"/>
			<path class="st0" d="M271.7,103.3L271.7,103.3c1.4,0,2.2,0,2.4,0c0.2,0,1,0,2.4-0.1l0.1,0.1v0.4l-0.1,0.1c-0.4,0-0.7,0-0.9,0
				c-0.2,0-0.4,0.1-0.4,0.1c-0.1,0.1-0.2,0.2-0.2,0.4s0,0.5,0,0.9l0,1.9v2.6c0,0.9,0,1.5,0.1,1.9c0,0.4,0.1,0.7,0.2,1
				c0.1,0.3,0.3,0.5,0.5,0.7s0.6,0.4,1,0.5s1,0.2,1.5,0.2c0.6,0,1.2-0.1,1.7-0.2c0.5-0.2,0.9-0.4,1.2-0.7c0.3-0.3,0.5-0.7,0.5-1.3
				c0.1-0.5,0.1-1.2,0.1-2.2v-2.5c0-0.4,0-1,0-1.8s0-1.2-0.1-1.3c-0.1-0.1-0.1-0.2-0.3-0.3s-0.5-0.1-1.2-0.1l-0.1-0.1v-0.4l0.1-0.1
				c0.8,0,1.5,0.1,1.9,0.1c0.4,0,1.1,0,1.9-0.1l0.1,0.1v0.4l-0.1,0.1c-0.5,0-0.9,0-1,0.1c-0.2,0-0.3,0.1-0.3,0.1
				c-0.1,0.1-0.1,0.2-0.1,0.3s-0.1,0.5-0.1,1.1l0,1.9v2.5c0,1,0,1.8-0.1,2.4c-0.1,0.6-0.2,1-0.5,1.4c-0.3,0.4-0.6,0.7-0.9,0.9
				c-0.4,0.2-0.8,0.4-1.4,0.6c-0.6,0.1-1.2,0.2-1.8,0.2c-0.8,0-1.4-0.1-2-0.3c-0.6-0.2-1.1-0.4-1.4-0.7c-0.3-0.3-0.6-0.6-0.7-0.9
				c-0.1-0.3-0.2-0.7-0.3-1.1c0-0.4-0.1-1.1-0.1-1.9v-3.2l0-1.6c0-0.6,0-1,0-1.2s-0.1-0.3-0.1-0.4c-0.1-0.1-0.2-0.1-0.3-0.1
				c-0.1,0-0.5-0.1-1.1-0.1l-0.1-0.1V103.3z"/>
			<path class="st0" d="M285.3,103.3L285.3,103.3c1.1,0,1.9,0,2.4,0c0.6,0,1.5,0,2.5-0.1c0.4,0,0.7,0,0.8,0c1.4,0,2.3,0.3,2.8,0.8
				c0.5,0.5,0.7,1.1,0.7,1.8c0,0.5-0.1,0.9-0.4,1.4c-0.2,0.4-0.6,0.8-1.1,1.1s-1.1,0.6-1.9,0.7c0.2,0.2,0.4,0.6,0.8,1.1l1.2,1.5
				c0.4,0.5,0.8,1,1.2,1.6c0.4,0.6,0.7,0.9,0.8,1c0.1,0.1,0.2,0.1,0.3,0.1c0.1,0,0.2,0,0.4,0l0.1,0.1v0.4l-0.1,0.1
				c-0.3,0-0.6,0-0.9,0c-0.4,0-0.8,0-1.3,0c-0.4-0.5-1-1.3-1.8-2.4c-0.9-1.3-1.9-2.5-2.9-3.7l0.1-0.3c0.3,0,0.5,0,0.7,0
				c0.9,0,1.7-0.2,2.2-0.7c0.5-0.5,0.8-1.1,0.8-1.9c0-0.7-0.2-1.3-0.7-1.6c-0.5-0.4-1.1-0.6-2-0.6c-0.6,0-1.1,0.1-1.6,0.2
				c-0.1,0.1-0.1,1.1-0.1,3.1v3.8l0,1.6c0,0.6,0,1,0,1.2c0,0.2,0.1,0.3,0.1,0.4c0.1,0.1,0.2,0.1,0.3,0.2c0.1,0,0.5,0.1,1.1,0.1
				l0.1,0v0.4l-0.1,0.1c0,0-0.5,0-1.4,0c-0.4,0-0.7,0-0.9,0c-0.2,0-1,0-2.4,0.1l-0.1-0.1v-0.4l0.1,0c0.5,0,0.9,0,1-0.1
				c0.2,0,0.3-0.1,0.3-0.1s0.1-0.2,0.1-0.3c0-0.2,0.1-0.5,0.1-1.1l0-1.7v-3.8l0-1.6c0-0.6,0-1,0-1.2c0-0.2-0.1-0.3-0.1-0.4
				c-0.1-0.1-0.2-0.1-0.3-0.1c-0.1,0-0.5-0.1-1.1-0.1l-0.1-0.1V103.3z"/>
			<path class="st0" d="M296.9,114.9L296.9,114.9l-0.1-0.5l0.1-0.1c0.4,0,0.7,0,0.8-0.1c0.1,0,0.2-0.1,0.3-0.2
				c0.1-0.1,0.3-0.5,0.5-1l0.9-1.9l2.2-5.1c0.4-1,0.8-2,1.3-3h0.5l3.5,8.3l0.5,1.1c0.1,0.3,0.3,0.7,0.5,1c0.2,0.4,0.3,0.6,0.4,0.6
				c0.1,0.1,0.2,0.1,0.3,0.2c0.1,0,0.3,0.1,0.7,0.1l0.1,0.1v0.4l-0.1,0.1c-0.6,0-1.1-0.1-1.6-0.1c-0.9,0-1.8,0.1-2.7,0.1l-0.1-0.1
				v-0.4l0.1-0.1c0.6,0,1,0,1.2-0.1s0.2-0.1,0.2-0.3c0-0.1,0-0.3-0.1-0.5l-1-2.5h-4.8l-0.9,2.1c-0.2,0.4-0.2,0.7-0.2,0.8
				c0,0.1,0.1,0.2,0.2,0.3c0.1,0.1,0.5,0.1,1.1,0.1l0.1,0.1v0.4l-0.1,0.1c-0.7,0-1.3-0.1-1.9-0.1
				C298.1,114.9,297.5,114.9,296.9,114.9z M300.6,110.3h4.2l-2.1-5L300.6,110.3z"/>
			<path class="st0" d="M310.3,103.3L310.3,103.3c1.4,0,2.2,0,2.4,0c0.2,0,1,0,2.4-0.1l0.1,0.1v0.4l-0.1,0.1c-0.4,0-0.7,0-0.9,0
				c-0.2,0-0.4,0.1-0.4,0.1c-0.1,0.1-0.2,0.2-0.2,0.4s0,0.5,0,0.9l0,1.9v3.6c0,0.9,0,1.5,0,1.9l0,1.4h1.7c1.3,0,2.2,0,2.5,0
				s0.7-0.1,1-0.2c0.1-0.1,0.1-0.5,0.3-0.9c0.1-0.5,0.2-0.8,0.2-0.9l0.1-0.1h0.4l0.1,0.1c0,0.2-0.1,0.6-0.1,1.3
				c0,0.6-0.1,1.1-0.1,1.5l-0.1,0.1c-1,0-2.4,0-4.1,0l-2.4,0c-0.5,0-1.1,0-1.7,0.1l-0.1-0.1v-0.3l0.1-0.1c0.3-0.2,0.5-0.3,0.6-0.3
				c0,0,0.1-0.4,0.1-1.1c0-0.7,0.1-1.5,0.1-2.4v-3.5l0-1.6c0-0.6,0-1,0-1.2s-0.1-0.3-0.1-0.4c-0.1-0.1-0.2-0.1-0.3-0.1
				c-0.1,0-0.5-0.1-1.1-0.1l-0.1-0.1V103.3z"/>
			<path class="st0" d="M325.8,112L325.8,112l0.5-0.1l0.1,0.1c0,0.7,0.1,1.1,0.1,1.3s0.2,0.3,0.4,0.5c0.2,0.2,0.6,0.3,1,0.4
				c0.4,0.1,0.8,0.2,1.3,0.2c0.6,0,1.1-0.1,1.6-0.3c0.5-0.2,0.8-0.5,1.1-0.9s0.4-0.9,0.4-1.4c0-0.4-0.1-0.7-0.2-0.9
				c-0.1-0.3-0.3-0.5-0.5-0.6c-0.2-0.2-0.5-0.3-0.8-0.4c-0.3-0.1-0.7-0.2-1.3-0.3c-0.5-0.1-1-0.2-1.3-0.2c-0.3-0.1-0.6-0.2-0.9-0.3
				c-0.3-0.1-0.6-0.3-0.8-0.6c-0.2-0.2-0.4-0.5-0.5-0.8c-0.1-0.3-0.2-0.7-0.2-1.1c0-1,0.4-1.9,1.1-2.5c0.7-0.7,1.7-1,2.9-1
				c0.5,0,1,0.1,1.6,0.2c0.6,0.1,1.1,0.3,1.5,0.5l0.1,0.1c-0.1,0.5-0.2,1.2-0.2,2.2l-0.1,0.1h-0.4l-0.1-0.1c0-0.7,0-1.1,0-1.2
				c0-0.2-0.3-0.4-0.7-0.6c-0.5-0.3-1-0.4-1.6-0.4c-0.5,0-0.9,0.1-1.3,0.3c-0.4,0.2-0.7,0.5-0.9,0.9c-0.2,0.4-0.3,0.8-0.3,1.2
				c0,0.3,0.1,0.6,0.2,0.9c0.1,0.2,0.3,0.4,0.5,0.6s0.4,0.3,0.7,0.3c0.3,0.1,0.8,0.2,1.5,0.3c1,0.1,1.7,0.3,2.1,0.5
				c0.4,0.2,0.8,0.5,1.1,0.9c0.3,0.4,0.4,0.9,0.4,1.5c0,1.2-0.5,2.1-1.4,2.9c-1,0.8-2.1,1.2-3.5,1.2c-1.1,0-2.1-0.2-3-0.6l0-0.1
				C325.7,114.1,325.8,113.3,325.8,112z"/>
			<path class="st0" d="M345.8,113.5l-0.3,0.8c-1.2,0.6-2.5,0.9-3.9,0.9c-2,0-3.6-0.6-4.8-1.7c-1.2-1.1-1.9-2.6-1.9-4.4
				c0-1.2,0.3-2.3,0.9-3.3c0.6-0.9,1.4-1.6,2.4-2.1c1-0.5,2.1-0.7,3.4-0.7c0.7,0,1.5,0.1,2.2,0.2c0.7,0.2,1.3,0.3,1.8,0.6l0.1,0.1
				c-0.1,0.3-0.2,1.1-0.4,2.3l-0.1,0.1h-0.4l-0.1-0.1l-0.1-1.4c-0.4-0.3-0.9-0.6-1.5-0.7c-0.6-0.2-1.2-0.3-1.8-0.3
				c-0.9,0-1.8,0.2-2.5,0.6c-0.7,0.4-1.3,1-1.7,1.7c-0.4,0.8-0.6,1.7-0.6,2.8c0,1.1,0.2,2.1,0.7,2.9c0.5,0.8,1.1,1.5,2,1.9
				c0.8,0.4,1.8,0.7,2.9,0.7c0.5,0,1,0,1.4-0.1c0.4-0.1,0.8-0.2,1.1-0.3s0.6-0.3,0.9-0.5L345.8,113.5z"/>
			<path class="st0" d="M347.1,103.2l1,0c0.7,0,1.1,0,1.3,0c0.2,0,1,0,2.4-0.1l0.1,0.1v0.4l-0.1,0.1c-0.4,0-0.7,0-0.9,0
				c-0.2,0-0.4,0.1-0.4,0.1c-0.1,0.1-0.2,0.2-0.2,0.4s0,0.5,0,0.9l0,1.9v3.8l0,1.6c0,0.6,0,1,0,1.2c0,0.2,0.1,0.3,0.1,0.4
				c0.1,0.1,0.2,0.1,0.3,0.2c0.1,0,0.5,0.1,1.1,0.1l0.1,0v0.4l-0.1,0.1c0,0-0.5,0-1.4,0c-0.4,0-0.7,0-0.9,0c-0.2,0-1,0-2.4,0.1
				l-0.1-0.1v-0.4l0.1,0c0.5,0,0.8,0,1-0.1c0.2,0,0.3-0.1,0.3-0.1s0.1-0.2,0.1-0.3s0.1-0.5,0.1-1.1l0-1.7v-3.8l0-1.6
				c0-0.6,0-1,0-1.2c0-0.2-0.1-0.3-0.1-0.4c-0.1-0.1-0.2-0.1-0.3-0.1c-0.1,0-0.5-0.1-1.1-0.1l-0.1-0.1L347.1,103.2L347.1,103.2z"/>
			<path class="st0" d="M353.2,103.3L353.2,103.3c1.9,0,3.2,0,3.7,0c1.8,0,3.4,0,4.8,0l0,0.1c-0.1,0.5-0.2,1.4-0.3,2.5l0,0.1H361
				l-0.1-0.1c0,0,0-0.1,0-0.1c0-0.5,0-0.9-0.1-1.3c-0.3-0.2-0.8-0.3-1.4-0.3s-1.1-0.1-1.4-0.1c-0.4,0-1,0-1.7,0.1l0,1.3l0,1.5l0,1.7
				c0.6,0,1.1,0,1.6,0c0.5,0,0.9,0,1.3,0c0.3,0,0.5-0.1,0.6-0.1s0.1-0.1,0.1-0.2s0.1-0.3,0.1-0.5l0-0.5l0.1-0.1h0.4l0.1,0.1
				c0,0.6,0,1.2,0,1.8l0,1.9l-0.1,0.1H360l-0.1-0.1l-0.1-0.5c0-0.4-0.1-0.6-0.1-0.7c0-0.1-0.1-0.1-0.2-0.2c-0.1-0.1-0.3-0.1-0.6-0.1
				c-0.3,0-0.8,0-1.4,0c-0.3,0-0.8,0-1.5,0c0,0.5,0,1.2,0,2.3c0,1.2,0,2,0,2.5h1.5c1.3,0,2.2,0,2.5,0c0.3,0,0.7-0.1,1-0.2
				c0-0.1,0.1-0.4,0.2-0.9s0.2-0.7,0.2-0.9l0.1-0.1h0.4l0.1,0.1c0,0.2-0.1,0.6-0.1,1.2s-0.1,1.1-0.1,1.5l-0.1,0.1c-1,0-2.4,0-4.1,0
				l-2.2,0c-0.5,0-1.1,0-1.6,0.1l-0.1-0.1v-0.3l0.1-0.1c0.3-0.2,0.5-0.3,0.6-0.3s0.1-0.5,0.1-1.4c0-0.9,0-1.6,0-2.1v-3l0-1.9
				c0-0.4,0-0.7,0-1c0-0.3,0-0.4-0.1-0.5c0-0.1-0.1-0.2-0.1-0.2c0,0-0.1-0.1-0.2-0.1c-0.1,0-0.2-0.1-0.4-0.1l-0.6,0l-0.1-0.1V103.3z
				"/>
			<path class="st0" d="M363.8,114.9L363.8,114.9l-0.1-0.5l0.1-0.1c0.3,0,0.6,0,0.8-0.1c0.2,0,0.3-0.1,0.4-0.2
				c0.1-0.1,0.1-0.2,0.1-0.4c0-0.2,0-0.6,0.1-1.2c0-0.6,0-1,0-1.3v-6.6c0-0.3-0.1-0.5-0.2-0.6s-0.2-0.2-0.4-0.3
				c-0.2,0-0.5-0.1-0.9-0.1l-0.1-0.1v-0.4l0.1-0.1c0.8,0,1.3,0,1.5,0c0.6,0,1,0,1.4,0l2.6,3.4l3.9,4.8c0.5,0.6,0.9,1.1,1.4,1.7v-6.4
				c0-0.2,0-0.6,0-1.3c0-0.6,0-1.1-0.1-1.2s-0.1-0.3-0.1-0.3s-0.2-0.1-0.4-0.1s-0.4,0-0.8-0.1l-0.1-0.1v-0.4l0.1-0.1
				c0.4,0,1.1,0,1.9,0c0.8,0,1.3,0,1.6,0l0.1,0.1v0.4l-0.1,0.1c-0.4,0-0.6,0-0.8,0.1c-0.2,0-0.3,0.1-0.4,0.2c0,0.1-0.1,0.2-0.1,0.4
				s0,0.5-0.1,1.1s0,1,0,1.3v3.9l0,2.3c0,0.7,0,1.5,0,2.2c-0.3-0.1-0.7-0.2-1.4-0.3l-0.6-0.7l-1.8-2.1l-5.6-7v6.3c0,0.3,0,0.7,0,1.3
				c0,0.6,0,1,0.1,1.2s0.1,0.2,0.1,0.3c0,0.1,0.1,0.1,0.3,0.1s0.4,0.1,0.9,0.1l0.1,0.1v0.4l-0.1,0.1c-0.3,0-0.7-0.1-1.4-0.1
				C365.1,114.9,364.4,114.9,363.8,114.9z"/>
			<path class="st0" d="M389,113.5l-0.3,0.8c-1.2,0.6-2.5,0.9-3.9,0.9c-2,0-3.6-0.6-4.8-1.7c-1.2-1.1-1.9-2.6-1.9-4.4
				c0-1.2,0.3-2.3,0.9-3.3c0.6-0.9,1.4-1.6,2.4-2.1c1-0.5,2.1-0.7,3.4-0.7c0.7,0,1.5,0.1,2.2,0.2c0.7,0.2,1.3,0.3,1.8,0.6l0.1,0.1
				c-0.1,0.3-0.2,1.1-0.4,2.3l-0.1,0.1h-0.4l-0.1-0.1l-0.1-1.4c-0.4-0.3-0.9-0.6-1.5-0.7c-0.6-0.2-1.2-0.3-1.8-0.3
				c-0.9,0-1.8,0.2-2.5,0.6c-0.7,0.4-1.3,1-1.7,1.7c-0.4,0.8-0.6,1.7-0.6,2.8c0,1.1,0.2,2.1,0.7,2.9c0.5,0.8,1.1,1.5,2,1.9
				c0.8,0.4,1.8,0.7,2.9,0.7c0.5,0,1,0,1.4-0.1c0.4-0.1,0.8-0.2,1.1-0.3s0.6-0.3,0.9-0.5L389,113.5z"/>
			<path class="st0" d="M390.4,103.3L390.4,103.3c1.9,0,3.1,0,3.7,0c1.8,0,3.4,0,4.8,0l0,0.1c-0.1,0.5-0.2,1.4-0.3,2.5l0,0.1h-0.4
				l-0.1-0.1c0,0,0-0.1,0-0.1c0-0.5,0-0.9-0.1-1.3c-0.3-0.2-0.8-0.3-1.4-0.3s-1.1-0.1-1.4-0.1c-0.4,0-1,0-1.7,0.1l0,1.3l0,1.5l0,1.7
				c0.6,0,1.1,0,1.6,0c0.5,0,0.9,0,1.3,0s0.5-0.1,0.6-0.1c0.1,0,0.1-0.1,0.1-0.2s0.1-0.3,0.1-0.5l0-0.5l0.1-0.1h0.4l0.1,0.1
				c0,0.6,0,1.2,0,1.8l0,1.9l-0.1,0.1h-0.4l-0.1-0.1l-0.1-0.5c0-0.4-0.1-0.6-0.1-0.7c0-0.1-0.1-0.1-0.2-0.2
				c-0.1-0.1-0.3-0.1-0.6-0.1c-0.3,0-0.8,0-1.4,0c-0.3,0-0.8,0-1.5,0c0,0.5,0,1.2,0,2.3c0,1.2,0,2,0,2.5h1.5c1.3,0,2.2,0,2.5,0
				c0.3,0,0.7-0.1,1-0.2c0-0.1,0.1-0.4,0.2-0.9s0.2-0.7,0.2-0.9l0.1-0.1h0.4l0.1,0.1c0,0.2-0.1,0.6-0.1,1.2c0,0.6-0.1,1.1-0.1,1.5
				l-0.1,0.1c-1,0-2.4,0-4.1,0l-2.2,0c-0.5,0-1.1,0-1.6,0.1l-0.1-0.1v-0.3l0.1-0.1c0.3-0.2,0.5-0.3,0.6-0.3c0,0,0.1-0.5,0.1-1.4
				c0-0.9,0-1.6,0-2.1v-3l0-1.9c0-0.4,0-0.7,0-1c0-0.3,0-0.4-0.1-0.5c0-0.1-0.1-0.2-0.1-0.2c0,0-0.1-0.1-0.2-0.1
				c-0.1,0-0.2-0.1-0.4-0.1l-0.6,0l-0.1-0.1V103.3z"/>
			<path class="st0" d="M401.1,112L401.1,112l0.5-0.1l0.1,0.1c0,0.7,0.1,1.1,0.1,1.3s0.2,0.3,0.4,0.5c0.2,0.2,0.6,0.3,1,0.4
				c0.4,0.1,0.8,0.2,1.3,0.2c0.6,0,1.1-0.1,1.6-0.3c0.5-0.2,0.8-0.5,1.1-0.9s0.4-0.9,0.4-1.4c0-0.4-0.1-0.7-0.2-0.9
				c-0.1-0.3-0.3-0.5-0.5-0.6c-0.2-0.2-0.5-0.3-0.8-0.4c-0.3-0.1-0.7-0.2-1.3-0.3c-0.5-0.1-1-0.2-1.3-0.2c-0.3-0.1-0.6-0.2-0.9-0.3
				c-0.3-0.1-0.6-0.3-0.8-0.6c-0.2-0.2-0.4-0.5-0.5-0.8c-0.1-0.3-0.2-0.7-0.2-1.1c0-1,0.4-1.9,1.1-2.5c0.7-0.7,1.7-1,2.9-1
				c0.5,0,1,0.1,1.6,0.2c0.6,0.1,1.1,0.3,1.5,0.5l0.1,0.1c-0.1,0.5-0.2,1.2-0.2,2.2l-0.1,0.1h-0.4l-0.1-0.1c0-0.7,0-1.1,0-1.2
				c0-0.2-0.3-0.4-0.7-0.6c-0.5-0.3-1-0.4-1.6-0.4c-0.5,0-0.9,0.1-1.3,0.3c-0.4,0.2-0.7,0.5-0.9,0.9c-0.2,0.4-0.3,0.8-0.3,1.2
				c0,0.3,0.1,0.6,0.2,0.9c0.1,0.2,0.3,0.4,0.5,0.6s0.4,0.3,0.7,0.3c0.3,0.1,0.8,0.2,1.5,0.3c1,0.1,1.7,0.3,2.1,0.5
				c0.4,0.2,0.8,0.5,1.1,0.9c0.3,0.4,0.4,0.9,0.4,1.5c0,1.2-0.5,2.1-1.4,2.9c-1,0.8-2.1,1.2-3.5,1.2c-1.1,0-2.1-0.2-3-0.6l0-0.1
				C401.1,114.1,401.1,113.3,401.1,112z"/>
			<path class="st0" d="M414.5,103.8L414.5,103.8l-0.1-0.5l0.1-0.1c0.9,0,1.7,0.1,2.2,0.1c0.2,0,1,0,2.3-0.1c0.4,0,0.7,0,0.9,0
				c0.7,0,1.3,0.1,1.8,0.2c0.4,0.1,0.8,0.4,1,0.8c0.3,0.4,0.4,0.8,0.4,1.3c0,0.6-0.2,1.2-0.7,1.7c-0.4,0.5-1.2,0.9-2.1,1.1
				c0.6,0.1,1.1,0.1,1.5,0.2c0.4,0.1,0.7,0.3,1,0.5s0.5,0.5,0.7,0.8c0.2,0.3,0.2,0.7,0.2,1.2c0,0.4-0.1,0.7-0.2,1.1
				c-0.1,0.4-0.3,0.7-0.6,1.1c-0.3,0.4-0.6,0.7-1.1,0.9c-0.4,0.3-0.8,0.4-1.3,0.6c-0.4,0.1-1,0.2-1.6,0.2c-0.1,0-0.5,0-1.2,0
				c-0.7,0-1.1,0-1.2,0c-0.4,0-0.8,0-1.4,0.1l-0.1-0.1v-0.3l0.1-0.1c0.3-0.1,0.5-0.2,0.6-0.3c0-0.1,0.1-0.5,0.1-1.5
				c0-0.9,0-1.6,0-2.1v-3l0-1.9c0-0.4,0-0.7,0-1c0-0.3,0-0.4,0-0.5c0-0.1-0.1-0.2-0.1-0.2s-0.1-0.1-0.2-0.1c-0.1,0-0.2-0.1-0.4-0.1
				L414.5,103.8z M417.4,108.1c0.3,0,0.6,0,0.9,0c1.1,0,1.9-0.2,2.4-0.6c0.4-0.4,0.7-1,0.7-1.7c0-0.4-0.1-0.8-0.3-1
				s-0.4-0.5-0.8-0.7c-0.4-0.2-0.9-0.2-1.5-0.2c-0.5,0-1,0-1.3,0.1c0,0.5-0.1,1.4-0.1,2.6V108.1z M417.5,114.1
				c0.4,0.1,0.9,0.1,1.3,0.1c0.8,0,1.4-0.1,1.8-0.4c0.4-0.3,0.8-0.6,1-1c0.2-0.4,0.3-0.9,0.3-1.5c0-0.8-0.2-1.4-0.7-1.9
				c-0.4-0.5-1.4-0.7-2.9-0.7c-0.2,0-0.5,0-0.9,0v2.8L417.5,114.1z"/>
			<path class="st0" d="M425.4,103.3L425.4,103.3c1.9,0,3.2,0,3.7,0c1.8,0,3.4,0,4.8,0l0,0.1c-0.1,0.5-0.2,1.4-0.3,2.5l0,0.1h-0.4
				l-0.1-0.1c0,0,0-0.1,0-0.1c0-0.5,0-0.9-0.1-1.3c-0.3-0.2-0.8-0.3-1.4-0.3s-1.1-0.1-1.4-0.1c-0.4,0-1,0-1.7,0.1l0,1.3l0,1.5l0,1.7
				c0.6,0,1.1,0,1.6,0c0.5,0,0.9,0,1.3,0c0.3,0,0.5-0.1,0.6-0.1s0.1-0.1,0.1-0.2s0.1-0.3,0.1-0.5l0-0.5l0.1-0.1h0.4l0.1,0.1
				c0,0.6,0,1.2,0,1.8l0,1.9l-0.1,0.1h-0.4l-0.1-0.1l-0.1-0.5c0-0.4-0.1-0.6-0.1-0.7c0-0.1-0.1-0.1-0.2-0.2
				c-0.1-0.1-0.3-0.1-0.6-0.1c-0.3,0-0.8,0-1.4,0c-0.3,0-0.8,0-1.5,0c0,0.5,0,1.2,0,2.3c0,1.2,0,2,0,2.5h1.5c1.3,0,2.2,0,2.5,0
				c0.3,0,0.7-0.1,1-0.2c0-0.1,0.1-0.4,0.2-0.9s0.2-0.7,0.2-0.9l0.1-0.1h0.4l0.1,0.1c0,0.2-0.1,0.6-0.1,1.2s-0.1,1.1-0.1,1.5
				l-0.1,0.1c-1,0-2.4,0-4.1,0l-2.2,0c-0.5,0-1.1,0-1.6,0.1l-0.1-0.1v-0.3l0.1-0.1c0.3-0.2,0.5-0.3,0.6-0.3s0.1-0.5,0.1-1.4
				c0-0.9,0-1.6,0-2.1v-3l0-1.9c0-0.4,0-0.7,0-1c0-0.3,0-0.4-0.1-0.5c0-0.1-0.1-0.2-0.1-0.2c0,0-0.1-0.1-0.2-0.1
				c-0.1,0-0.2-0.1-0.4-0.1l-0.6,0l-0.1-0.1V103.3z"/>
			<path class="st0" d="M435.9,103.2l1,0c0.7,0,1.1,0,1.3,0c0.2,0,1,0,2.4-0.1l0.1,0.1v0.4l-0.1,0.1c-0.4,0-0.7,0-0.9,0
				c-0.2,0-0.4,0.1-0.4,0.1c-0.1,0.1-0.2,0.2-0.2,0.4s0,0.5,0,0.9l0,1.9v3.8l0,1.6c0,0.6,0,1,0,1.2c0,0.2,0.1,0.3,0.1,0.4
				c0.1,0.1,0.2,0.1,0.3,0.2c0.1,0,0.5,0.1,1.1,0.1l0.1,0v0.4l-0.1,0.1c0,0-0.5,0-1.4,0c-0.4,0-0.7,0-0.9,0c-0.2,0-1,0-2.4,0.1
				l-0.1-0.1v-0.4l0.1,0c0.5,0,0.8,0,1-0.1c0.2,0,0.3-0.1,0.3-0.1s0.1-0.2,0.1-0.3c0-0.2,0.1-0.5,0.1-1.1l0-1.7v-3.8l0-1.6
				c0-0.6,0-1,0-1.2s-0.1-0.3-0.1-0.4c-0.1-0.1-0.2-0.1-0.3-0.1c-0.1,0-0.5-0.1-1.1-0.1l-0.1-0.1L435.9,103.2L435.9,103.2z"/>
			<path class="st0" d="M446.7,103.3v0.4l-0.1,0.1c-0.4,0-0.7,0-0.9,0c-0.2,0-0.4,0.1-0.4,0.1c-0.1,0.1-0.2,0.2-0.2,0.4s0,0.5,0,0.9
				l0,1.9v5.9c0,0.9-0.1,1.6-0.2,2.1s-0.4,1.1-0.8,1.5s-0.8,0.8-1.2,1c-0.4,0.2-0.8,0.3-1.2,0.3c-0.1,0-0.2,0-0.3,0
				c0-0.2,0-0.4,0-0.7c0-0.1,0-0.3,0-0.6l0.2-0.1c0.3,0.2,0.6,0.3,0.9,0.3c0.3,0,0.5-0.1,0.7-0.2s0.3-0.2,0.4-0.4s0.1-0.5,0.1-1
				c0-0.5,0-0.9,0-1.2v-7.1l0-1.6c0-0.6,0-1,0-1.2s-0.1-0.3-0.1-0.4c-0.1-0.1-0.2-0.1-0.3-0.1s-0.5-0.1-1.1-0.1l-0.1-0.1v-0.4
				l0.1-0.1c1.4,0,2.2,0.1,2.4,0.1C444.5,103.3,445.2,103.3,446.7,103.3L446.7,103.3z"/>
			<path class="st0" d="M447.9,103.2l1,0c0.7,0,1.1,0,1.3,0c0.2,0,1,0,2.4-0.1l0.1,0.1v0.4l-0.1,0.1c-0.4,0-0.7,0-0.9,0
				c-0.2,0-0.4,0.1-0.4,0.1c-0.1,0.1-0.2,0.2-0.2,0.4s0,0.5,0,0.9l0,1.9v3.8l0,1.6c0,0.6,0,1,0,1.2c0,0.2,0.1,0.3,0.1,0.4
				c0.1,0.1,0.2,0.1,0.3,0.2c0.1,0,0.5,0.1,1.1,0.1l0.1,0v0.4l-0.1,0.1c0,0-0.5,0-1.4,0c-0.4,0-0.7,0-0.9,0c-0.2,0-1,0-2.4,0.1
				l-0.1-0.1v-0.4l0.1,0c0.5,0,0.8,0,1-0.1c0.2,0,0.3-0.1,0.3-0.1s0.1-0.2,0.1-0.3s0.1-0.5,0.1-1.1l0-1.7v-3.8l0-1.6
				c0-0.6,0-1,0-1.2c0-0.2-0.1-0.3-0.1-0.4c-0.1-0.1-0.2-0.1-0.3-0.1c-0.1,0-0.5-0.1-1.1-0.1l-0.1-0.1L447.9,103.2L447.9,103.2z"/>
			<path class="st0" d="M454,114.9L454,114.9l-0.1-0.5l0.1-0.1c0.3,0,0.6,0,0.8-0.1c0.2,0,0.3-0.1,0.4-0.2c0.1-0.1,0.1-0.2,0.1-0.4
				s0-0.6,0.1-1.2c0-0.6,0-1,0-1.3v-6.6c0-0.3-0.1-0.5-0.2-0.6c-0.1-0.1-0.2-0.2-0.4-0.3s-0.5-0.1-0.9-0.1l-0.1-0.1v-0.4l0.1-0.1
				c0.8,0,1.3,0,1.5,0c0.6,0,1,0,1.4,0l2.6,3.4l3.9,4.8c0.5,0.6,0.9,1.1,1.4,1.7v-6.4c0-0.2,0-0.6,0-1.3c0-0.6,0-1.1-0.1-1.2
				s-0.1-0.3-0.1-0.3c-0.1-0.1-0.2-0.1-0.4-0.1c-0.2,0-0.4,0-0.8-0.1l-0.1-0.1v-0.4l0.1-0.1c0.4,0,1.1,0,1.9,0c0.8,0,1.3,0,1.6,0
				l0.1,0.1v0.4l-0.1,0.1c-0.4,0-0.6,0-0.8,0.1c-0.2,0-0.3,0.1-0.4,0.2c0,0.1-0.1,0.2-0.1,0.4c0,0.2,0,0.5-0.1,1.1c0,0.6,0,1,0,1.3
				v3.9l0,2.3c0,0.7,0,1.5,0,2.2c-0.3-0.1-0.7-0.2-1.4-0.3l-0.6-0.7l-1.8-2.1l-5.6-7v6.3c0,0.3,0,0.7,0,1.3c0,0.6,0,1,0.1,1.2
				s0.1,0.2,0.1,0.3c0,0.1,0.1,0.1,0.3,0.1c0.1,0,0.4,0.1,0.9,0.1l0.1,0.1v0.4l-0.1,0.1c-0.3,0-0.7-0.1-1.4-0.1
				C455.3,114.9,454.6,114.9,454,114.9z"/>
			<path class="st0" d="M480.1,110.4v0.2l0,0.1l-0.4,0.2c-0.1,0.1-0.2,0.1-0.2,0.1c0,0,0,0.2-0.1,0.5c0,0.3,0,0.7,0,1.1
				c0,0.5,0,1,0.1,1.6l0,0.1c-1.5,0.6-3,0.9-4.6,0.9c-1.2,0-2.3-0.2-3.3-0.7c-1-0.5-1.8-1.1-2.3-2c-0.6-0.9-0.9-2-0.9-3.2
				c0-1.9,0.6-3.4,1.9-4.5c1.3-1.1,3-1.7,5.1-1.7c1.5,0,2.9,0.3,4.1,0.8l0.1,0.1c-0.1,0.4-0.2,1.1-0.3,2.3l-0.1,0.1h-0.4l-0.1-0.1
				l0-0.9c0-0.3,0-0.5-0.1-0.5c0,0-0.1-0.1-0.2-0.2c-0.1-0.1-0.4-0.2-0.8-0.4s-0.8-0.3-1.2-0.4s-0.9-0.1-1.3-0.1
				c-1,0-1.9,0.2-2.7,0.6c-0.8,0.4-1.4,1-1.7,1.8c-0.4,0.8-0.6,1.7-0.6,2.7c0,1,0.2,1.9,0.6,2.8c0.4,0.9,1,1.5,1.8,2
				c0.8,0.5,1.7,0.7,2.8,0.7c0.5,0,0.9,0,1.4-0.1c0.5-0.1,0.9-0.2,1.2-0.4c0-0.2,0.1-0.5,0.1-1.1v-0.9c0-0.4,0-0.7-0.1-0.8
				c-0.1-0.1-0.2-0.2-0.4-0.2s-0.7-0.1-1.4-0.1l-0.1-0.1v-0.4l0.1-0.1l0.5,0c0.9,0,1.6,0,2.1,0C478.9,110.4,479.4,110.3,480.1,110.4
				L480.1,110.4z"/>
			<path class="st0" d="M486,114.9L486,114.9l-0.1-0.5l0.1-0.1c0.3,0,0.6,0,0.8-0.1c0.2,0,0.3-0.1,0.4-0.2c0.1-0.1,0.1-0.2,0.1-0.4
				c0-0.2,0-0.6,0.1-1.2c0-0.6,0-1,0-1.3v-6.6c0-0.3-0.1-0.5-0.2-0.6s-0.2-0.2-0.4-0.3c-0.2,0-0.5-0.1-0.9-0.1l-0.1-0.1v-0.4
				l0.1-0.1c0.8,0,1.3,0,1.5,0c0.6,0,1,0,1.4,0l2.6,3.4l3.9,4.8c0.5,0.6,0.9,1.1,1.4,1.7v-6.4c0-0.2,0-0.6,0-1.3
				c0-0.6,0-1.1-0.1-1.2s-0.1-0.3-0.1-0.3s-0.2-0.1-0.4-0.1s-0.4,0-0.8-0.1l-0.1-0.1v-0.4l0.1-0.1c0.4,0,1.1,0,1.9,0
				c0.8,0,1.3,0,1.6,0l0.1,0.1v0.4l-0.1,0.1c-0.4,0-0.6,0-0.8,0.1c-0.2,0-0.3,0.1-0.4,0.2c0,0.1-0.1,0.2-0.1,0.4s0,0.5-0.1,1.1
				s0,1,0,1.3v3.9l0,2.3c0,0.7,0,1.5,0,2.2c-0.3-0.1-0.7-0.2-1.4-0.3l-0.6-0.7l-1.8-2.1l-5.6-7v6.3c0,0.3,0,0.7,0,1.3
				c0,0.6,0,1,0.1,1.2s0.1,0.2,0.1,0.3c0,0.1,0.1,0.1,0.3,0.1s0.4,0.1,0.9,0.1l0.1,0.1v0.4l-0.1,0.1c-0.3,0-0.7-0.1-1.4-0.1
				C487.4,114.9,486.6,114.9,486,114.9z"/>
			<path class="st0" d="M500.2,109.2c0-0.8,0.1-1.6,0.4-2.3c0.2-0.7,0.6-1.4,1.2-2c0.6-0.6,1.3-1.1,2.1-1.4c0.8-0.3,1.7-0.5,2.7-0.5
				c1.9,0,3.4,0.5,4.5,1.5c1.1,1,1.7,2.4,1.7,4.2c0,1.2-0.3,2.4-0.8,3.3c-0.5,1-1.3,1.8-2.3,2.3c-1,0.5-2.1,0.8-3.4,0.8
				c-0.9,0-1.7-0.1-2.5-0.4s-1.4-0.7-1.9-1.3c-0.5-0.6-0.9-1.3-1.2-2.1S500.2,109.8,500.2,109.2z M501.9,108.6
				c0,0.7,0.1,1.4,0.3,2.2c0.2,0.8,0.5,1.4,1,2c0.4,0.6,0.9,1,1.5,1.2c0.6,0.3,1.2,0.4,1.9,0.4c0.9,0,1.6-0.2,2.3-0.6
				c0.7-0.4,1.2-1,1.5-1.8c0.3-0.8,0.5-1.7,0.5-2.8c0-1.1-0.2-2.1-0.6-3c-0.4-0.9-1-1.5-1.7-1.9c-0.7-0.4-1.5-0.6-2.4-0.6
				c-1.3,0-2.4,0.4-3.2,1.2C502.3,105.8,501.9,107,501.9,108.6z"/>
			<path class="st0" d="M513.7,103.3L513.7,103.3c1.1,0,1.9,0,2.4,0c0.6,0,1.5,0,2.5-0.1c0.4,0,0.7,0,0.8,0c1.4,0,2.3,0.3,2.8,0.8
				c0.5,0.5,0.7,1.1,0.7,1.8c0,0.5-0.1,0.9-0.4,1.4c-0.2,0.4-0.6,0.8-1.1,1.1s-1.1,0.6-1.9,0.7c0.2,0.2,0.4,0.6,0.8,1.1l1.2,1.5
				c0.4,0.5,0.8,1,1.2,1.6c0.4,0.6,0.7,0.9,0.8,1c0.1,0.1,0.2,0.1,0.3,0.1c0.1,0,0.2,0,0.4,0l0.1,0.1v0.4l-0.1,0.1
				c-0.3,0-0.6,0-0.9,0c-0.4,0-0.8,0-1.3,0c-0.4-0.5-1-1.3-1.8-2.4c-0.9-1.3-1.9-2.5-2.9-3.7l0.1-0.3c0.3,0,0.5,0,0.7,0
				c0.9,0,1.7-0.2,2.2-0.7c0.5-0.5,0.8-1.1,0.8-1.9c0-0.7-0.2-1.3-0.7-1.6c-0.5-0.4-1.1-0.6-2-0.6c-0.6,0-1.1,0.1-1.6,0.2
				c-0.1,0.1-0.1,1.1-0.1,3.1v3.8l0,1.6c0,0.6,0,1,0,1.2c0,0.2,0.1,0.3,0.1,0.4c0.1,0.1,0.2,0.1,0.3,0.2c0.1,0,0.5,0.1,1.1,0.1
				l0.1,0v0.4l-0.1,0.1c0,0-0.5,0-1.4,0c-0.4,0-0.7,0-0.9,0c-0.2,0-1,0-2.4,0.1l-0.1-0.1v-0.4l0.1,0c0.5,0,0.9,0,1-0.1
				c0.2,0,0.3-0.1,0.3-0.1s0.1-0.2,0.1-0.3c0-0.2,0.1-0.5,0.1-1.1l0-1.7v-3.8l0-1.6c0-0.6,0-1,0-1.2c0-0.2-0.1-0.3-0.1-0.4
				c-0.1-0.1-0.2-0.1-0.3-0.1c-0.1,0-0.5-0.1-1.1-0.1l-0.1-0.1V103.3z"/>
			<path class="st0" d="M540.5,103.3L540.5,103.3l0.1,0.5l-0.1,0.1c-0.6,0-1,0-1.1,0.1c-0.1,0-0.2,0.1-0.3,0.2s-0.1,0.3-0.1,0.6
				c0,0.3,0,1.1,0,2.5v3.8c0,0.5,0,1.2,0,1.9c0,0.7,0,1.1,0.1,1.2c0.1,0.1,0.1,0.2,0.3,0.2c0.1,0.1,0.5,0.1,1.2,0.1l0.1,0.1v0.4
				l-0.1,0.1c-0.9,0-1.7-0.1-2.3-0.1c-0.4,0-1.2,0-2.3,0.1l-0.1-0.1v-0.4l0.1-0.1c0.6,0,1,0,1.1-0.1c0.1,0,0.2-0.1,0.3-0.2
				c0.1-0.1,0.1-0.3,0.1-0.6s0-1.1,0-2.5v-6l-2.8,5.9c-0.7,1.5-1.3,2.9-1.9,4.2h-0.3c-0.3-0.7-0.6-1.3-0.8-1.7l-3.9-8.2v5.7
				c0,0.5,0,1.2,0,1.9c0,0.7,0,1.1,0.1,1.2c0.1,0.1,0.2,0.2,0.3,0.2s0.5,0.1,1.2,0.1l0.1,0.1v0.4l-0.1,0.1l-0.5,0c-0.5,0-1,0-1.4,0
				c-0.2,0-0.8,0-2,0.1l-0.1-0.1v-0.4l0.1-0.1c0.6,0,1,0,1.1-0.1s0.2-0.1,0.3-0.2c0.1-0.1,0.1-0.3,0.1-0.6c0-0.3,0-1.1,0-2.5v-3.8
				c0-0.5,0-1.1,0-1.8c0-0.7,0-1.1-0.1-1.2c-0.1-0.1-0.1-0.2-0.3-0.3s-0.5-0.1-1.2-0.1l-0.1-0.1v-0.4l0.1-0.1c0.4,0,0.9,0,1.5,0
				c0.6,0,1.1,0,1.6,0c0.5,1.1,0.9,2,1.3,2.9l3.1,6.4l2.8-5.9c0.8-1.6,1.3-2.7,1.5-3.4c0.5,0,1,0,1.6,0
				C539.3,103.3,539.8,103.3,540.5,103.3z"/>
			<path class="st0" d="M541.6,114.9L541.6,114.9l-0.1-0.5l0.1-0.1c0.4,0,0.7,0,0.8-0.1c0.1,0,0.2-0.1,0.3-0.2
				c0.1-0.1,0.3-0.5,0.5-1l0.9-1.9l2.2-5.1c0.4-1,0.8-2,1.3-3h0.5l3.5,8.3l0.5,1.1c0.1,0.3,0.3,0.7,0.5,1c0.2,0.4,0.3,0.6,0.4,0.6
				s0.2,0.1,0.3,0.2c0.1,0,0.3,0.1,0.7,0.1l0.1,0.1v0.4l-0.1,0.1c-0.6,0-1.1-0.1-1.6-0.1c-0.9,0-1.8,0.1-2.7,0.1l-0.1-0.1v-0.4
				l0.1-0.1c0.6,0,1,0,1.2-0.1s0.2-0.1,0.2-0.3c0-0.1,0-0.3-0.1-0.5l-1-2.5h-4.8l-0.9,2.1c-0.2,0.4-0.2,0.7-0.2,0.8
				c0,0.1,0.1,0.2,0.2,0.3c0.1,0.1,0.5,0.1,1.1,0.1l0.1,0.1v0.4l-0.1,0.1c-0.7,0-1.3-0.1-1.9-0.1
				C542.8,114.9,542.2,114.9,541.6,114.9z M545.4,110.3h4.2l-2.1-5L545.4,110.3z"/>
			<path class="st0" d="M555,103.3L555,103.3c1.4,0,2.2,0,2.4,0c0.2,0,1,0,2.4-0.1l0.1,0.1v0.4l-0.1,0.1c-0.4,0-0.7,0-0.9,0
				c-0.2,0-0.4,0.1-0.4,0.1c-0.1,0.1-0.2,0.2-0.2,0.4c0,0.2,0,0.5,0,0.9l0,1.9v3.6c0,0.9,0,1.5,0,1.9l0,1.4h1.7c1.3,0,2.2,0,2.5,0
				c0.3,0,0.7-0.1,1-0.2c0.1-0.1,0.1-0.5,0.3-0.9c0.1-0.5,0.2-0.8,0.2-0.9l0.1-0.1h0.4l0.1,0.1c0,0.2-0.1,0.6-0.1,1.3
				c0,0.6-0.1,1.1-0.1,1.5l-0.1,0.1c-1,0-2.4,0-4.1,0l-2.4,0c-0.5,0-1.1,0-1.7,0.1l-0.1-0.1v-0.3l0.1-0.1c0.3-0.2,0.5-0.3,0.6-0.3
				c0,0,0.1-0.4,0.1-1.1c0-0.7,0.1-1.5,0.1-2.4v-3.5l0-1.6c0-0.6,0-1,0-1.2c0-0.2-0.1-0.3-0.1-0.4c-0.1-0.1-0.2-0.1-0.3-0.1
				c-0.1,0-0.5-0.1-1.1-0.1l-0.1-0.1V103.3z"/>
			<path class="st0" d="M570.1,103.3L570.1,103.3c1.4,0,2.2,0,2.4,0c0.2,0,1,0,2.4-0.1l0.1,0.1v0.4l-0.1,0.1c-0.4,0-0.7,0-0.9,0
				c-0.2,0-0.4,0.1-0.4,0.1c-0.1,0.1-0.2,0.2-0.2,0.4c0,0.2,0,0.5,0,0.9l0,1.9v2.6c0,0.9,0,1.5,0.1,1.9c0,0.4,0.1,0.7,0.2,1
				s0.3,0.5,0.5,0.7c0.2,0.2,0.6,0.4,1,0.5c0.4,0.1,1,0.2,1.5,0.2c0.6,0,1.2-0.1,1.7-0.2c0.5-0.2,0.9-0.4,1.2-0.7
				c0.3-0.3,0.5-0.7,0.5-1.3c0.1-0.5,0.1-1.2,0.1-2.2v-2.5c0-0.4,0-1,0-1.8s0-1.2-0.1-1.3s-0.1-0.2-0.3-0.3
				c-0.1-0.1-0.5-0.1-1.2-0.1l-0.1-0.1v-0.4l0.1-0.1c0.8,0,1.5,0.1,1.9,0.1c0.4,0,1.1,0,1.9-0.1l0.1,0.1v0.4l-0.1,0.1
				c-0.5,0-0.9,0-1,0.1c-0.2,0-0.3,0.1-0.3,0.1c-0.1,0.1-0.1,0.2-0.1,0.3c0,0.1-0.1,0.5-0.1,1.1l0,1.9v2.5c0,1,0,1.8-0.1,2.4
				c-0.1,0.6-0.2,1-0.5,1.4c-0.3,0.4-0.6,0.7-0.9,0.9c-0.4,0.2-0.8,0.4-1.4,0.6c-0.6,0.1-1.2,0.2-1.8,0.2c-0.8,0-1.4-0.1-2-0.3
				c-0.6-0.2-1.1-0.4-1.4-0.7c-0.3-0.3-0.6-0.6-0.7-0.9s-0.2-0.7-0.3-1.1c0-0.4-0.1-1.1-0.1-1.9v-3.2l0-1.6c0-0.6,0-1,0-1.2
				c0-0.2-0.1-0.3-0.1-0.4c-0.1-0.1-0.2-0.1-0.3-0.1c-0.1,0-0.5-0.1-1.1-0.1l-0.1-0.1V103.3z"/>
			<path class="st0" d="M583.8,114.9L583.8,114.9l-0.1-0.5l0.1-0.1c0.3,0,0.6,0,0.8-0.1c0.2,0,0.3-0.1,0.4-0.2
				c0.1-0.1,0.1-0.2,0.1-0.4s0-0.6,0.1-1.2c0-0.6,0-1,0-1.3v-6.6c0-0.3-0.1-0.5-0.2-0.6c-0.1-0.1-0.2-0.2-0.4-0.3s-0.5-0.1-0.9-0.1
				l-0.1-0.1v-0.4l0.1-0.1c0.8,0,1.3,0,1.5,0c0.6,0,1,0,1.4,0l2.6,3.4l3.9,4.8c0.5,0.6,0.9,1.1,1.4,1.7v-6.4c0-0.2,0-0.6,0-1.3
				c0-0.6,0-1.1-0.1-1.2s-0.1-0.3-0.1-0.3c-0.1-0.1-0.2-0.1-0.4-0.1c-0.2,0-0.4,0-0.8-0.1l-0.1-0.1v-0.4l0.1-0.1c0.4,0,1.1,0,1.9,0
				c0.8,0,1.3,0,1.6,0l0.1,0.1v0.4l-0.1,0.1c-0.4,0-0.6,0-0.8,0.1c-0.2,0-0.3,0.1-0.4,0.2c0,0.1-0.1,0.2-0.1,0.4
				c0,0.2,0,0.5-0.1,1.1c0,0.6,0,1,0,1.3v3.9l0,2.3c0,0.7,0,1.5,0,2.2c-0.3-0.1-0.7-0.2-1.4-0.3l-0.6-0.7l-1.8-2.1l-5.6-7v6.3
				c0,0.3,0,0.7,0,1.3c0,0.6,0,1,0.1,1.2s0.1,0.2,0.1,0.3c0,0.1,0.1,0.1,0.3,0.1c0.1,0,0.4,0.1,0.9,0.1l0.1,0.1v0.4l-0.1,0.1
				c-0.3,0-0.7-0.1-1.4-0.1C585.2,114.9,584.5,114.9,583.8,114.9z"/>
			<path class="st0" d="M598.1,103.2l1,0c0.7,0,1.1,0,1.3,0c0.2,0,1,0,2.4-0.1l0.1,0.1v0.4l-0.1,0.1c-0.4,0-0.7,0-0.9,0
				c-0.2,0-0.4,0.1-0.4,0.1c-0.1,0.1-0.2,0.2-0.2,0.4s0,0.5,0,0.9l0,1.9v3.8l0,1.6c0,0.6,0,1,0,1.2c0,0.2,0.1,0.3,0.1,0.4
				c0.1,0.1,0.2,0.1,0.3,0.2c0.1,0,0.5,0.1,1.1,0.1l0.1,0v0.4l-0.1,0.1c0,0-0.5,0-1.4,0c-0.4,0-0.7,0-0.9,0c-0.2,0-1,0-2.4,0.1
				l-0.1-0.1v-0.4l0.1,0c0.5,0,0.8,0,1-0.1c0.2,0,0.3-0.1,0.3-0.1s0.1-0.2,0.1-0.3c0-0.2,0.1-0.5,0.1-1.1l0-1.7v-3.8l0-1.6
				c0-0.6,0-1,0-1.2s-0.1-0.3-0.1-0.4c-0.1-0.1-0.2-0.1-0.3-0.1c-0.1,0-0.5-0.1-1.1-0.1l-0.1-0.1L598.1,103.2L598.1,103.2z"/>
			<path class="st0" d="M609.3,115c-0.1-0.2-0.4-1.2-1-2.8l-2.8-6.9c-0.3-0.8-0.5-1.2-0.6-1.3c-0.1-0.1-0.4-0.2-1-0.2l-0.1-0.1v-0.4
				l0.1-0.1c0.8,0,1.6,0.1,2.1,0.1c0.5,0,1.3,0,2.2-0.1l0.1,0.1v0.5l-0.1,0.1c-0.7,0-1.1,0-1.2,0.1c-0.1,0-0.2,0.1-0.2,0.2
				c0,0.1,0.1,0.4,0.3,0.9c0.2,0.5,0.3,1,0.5,1.3l2.6,6.5l2.1-5.4c0.1-0.4,0.4-1,0.7-1.8c0.3-0.8,0.4-1.3,0.4-1.5
				c0-0.1-0.1-0.2-0.2-0.3c-0.1,0-0.5-0.1-1.2-0.1l-0.1-0.1v-0.4l0.1-0.1c1,0,1.6,0.1,1.8,0.1c0.2,0,0.8,0,1.7-0.1l0.1,0.1v0.4
				l-0.1,0.1c-0.4,0-0.6,0-0.7,0.1s-0.2,0.1-0.2,0.3c-0.1,0.1-0.3,0.6-0.6,1.3l-2.6,6.3c-0.6,1.4-1,2.5-1.2,3.3H609.3z"/>
			<path class="st0" d="M616.8,103.3L616.8,103.3c1.9,0,3.2,0,3.7,0c1.8,0,3.4,0,4.8,0l0,0.1c-0.1,0.5-0.2,1.4-0.3,2.5l0,0.1h-0.4
				l-0.1-0.1c0,0,0-0.1,0-0.1c0-0.5,0-0.9-0.1-1.3c-0.3-0.2-0.8-0.3-1.4-0.3s-1.1-0.1-1.4-0.1c-0.4,0-1,0-1.7,0.1l0,1.3l0,1.5l0,1.7
				c0.6,0,1.1,0,1.6,0c0.5,0,0.9,0,1.3,0c0.3,0,0.5-0.1,0.6-0.1s0.1-0.1,0.1-0.2s0.1-0.3,0.1-0.5l0-0.5l0.1-0.1h0.4l0.1,0.1
				c0,0.6,0,1.2,0,1.8l0,1.9l-0.1,0.1h-0.4l-0.1-0.1l-0.1-0.5c0-0.4-0.1-0.6-0.1-0.7c0-0.1-0.1-0.1-0.2-0.2
				c-0.1-0.1-0.3-0.1-0.6-0.1c-0.3,0-0.8,0-1.4,0c-0.3,0-0.8,0-1.5,0c0,0.5,0,1.2,0,2.3c0,1.2,0,2,0,2.5h1.5c1.3,0,2.2,0,2.5,0
				c0.3,0,0.7-0.1,1-0.2c0-0.1,0.1-0.4,0.2-0.9s0.2-0.7,0.2-0.9l0.1-0.1h0.4l0.1,0.1c0,0.2-0.1,0.6-0.1,1.2s-0.1,1.1-0.1,1.5
				l-0.1,0.1c-1,0-2.4,0-4.1,0l-2.2,0c-0.5,0-1.1,0-1.6,0.1l-0.1-0.1v-0.3l0.1-0.1c0.3-0.2,0.5-0.3,0.6-0.3s0.1-0.5,0.1-1.4
				c0-0.9,0-1.6,0-2.1v-3l0-1.9c0-0.4,0-0.7,0-1c0-0.3,0-0.4-0.1-0.5c0-0.1-0.1-0.2-0.1-0.2c0,0-0.1-0.1-0.2-0.1
				c-0.1,0-0.2-0.1-0.4-0.1l-0.6,0l-0.1-0.1V103.3z"/>
			<path class="st0" d="M627.1,103.3L627.1,103.3c1.1,0,1.9,0,2.4,0c0.6,0,1.5,0,2.5-0.1c0.4,0,0.7,0,0.8,0c1.4,0,2.3,0.3,2.8,0.8
				c0.5,0.5,0.7,1.1,0.7,1.8c0,0.5-0.1,0.9-0.4,1.4s-0.6,0.8-1.1,1.1s-1.1,0.6-1.9,0.7c0.2,0.2,0.4,0.6,0.8,1.1l1.2,1.5
				c0.4,0.5,0.8,1,1.2,1.6c0.4,0.6,0.7,0.9,0.8,1c0.1,0.1,0.2,0.1,0.3,0.1c0.1,0,0.2,0,0.4,0l0.1,0.1v0.4l-0.1,0.1
				c-0.3,0-0.6,0-0.9,0c-0.4,0-0.8,0-1.3,0c-0.4-0.5-1-1.3-1.8-2.4c-0.9-1.3-1.9-2.5-2.9-3.7l0.1-0.3c0.3,0,0.5,0,0.7,0
				c0.9,0,1.7-0.2,2.2-0.7s0.8-1.1,0.8-1.9c0-0.7-0.2-1.3-0.7-1.6c-0.5-0.4-1.1-0.6-2-0.6c-0.6,0-1.1,0.1-1.6,0.2
				c-0.1,0.1-0.1,1.1-0.1,3.1v3.8l0,1.6c0,0.6,0,1,0,1.2c0,0.2,0.1,0.3,0.1,0.4s0.2,0.1,0.3,0.2c0.1,0,0.5,0.1,1.1,0.1l0.1,0v0.4
				l-0.1,0.1c0,0-0.5,0-1.4,0c-0.4,0-0.7,0-0.9,0c-0.2,0-1,0-2.4,0.1l-0.1-0.1v-0.4l0.1,0c0.5,0,0.8,0,1-0.1c0.2,0,0.3-0.1,0.3-0.1
				s0.1-0.2,0.1-0.3c0-0.2,0.1-0.5,0.1-1.1l0-1.7v-3.8l0-1.6c0-0.6,0-1,0-1.2s-0.1-0.3-0.1-0.4c-0.1-0.1-0.2-0.1-0.3-0.1
				s-0.5-0.1-1.1-0.1l-0.1-0.1V103.3z"/>
			<path class="st0" d="M639,112L639,112l0.5-0.1l0.1,0.1c0,0.7,0.1,1.1,0.1,1.3c0,0.2,0.2,0.3,0.4,0.5c0.2,0.2,0.6,0.3,1,0.4
				c0.4,0.1,0.8,0.2,1.3,0.2c0.6,0,1.1-0.1,1.6-0.3s0.8-0.5,1.1-0.9c0.3-0.4,0.4-0.9,0.4-1.4c0-0.4-0.1-0.7-0.2-0.9
				s-0.3-0.5-0.5-0.6c-0.2-0.2-0.5-0.3-0.8-0.4c-0.3-0.1-0.7-0.2-1.3-0.3c-0.5-0.1-1-0.2-1.3-0.2s-0.6-0.2-0.9-0.3
				c-0.3-0.1-0.6-0.3-0.8-0.6c-0.2-0.2-0.4-0.5-0.5-0.8c-0.1-0.3-0.2-0.7-0.2-1.1c0-1,0.4-1.9,1.1-2.5s1.7-1,2.9-1
				c0.5,0,1,0.1,1.6,0.2c0.6,0.1,1.1,0.3,1.5,0.5l0.1,0.1c-0.1,0.5-0.2,1.2-0.2,2.2l-0.1,0.1h-0.4l-0.1-0.1c0-0.7,0-1.1,0-1.2
				c0-0.2-0.3-0.4-0.7-0.6c-0.5-0.3-1-0.4-1.6-0.4c-0.5,0-0.9,0.1-1.3,0.3c-0.4,0.2-0.7,0.5-0.9,0.9c-0.2,0.4-0.3,0.8-0.3,1.2
				c0,0.3,0.1,0.6,0.2,0.9c0.1,0.2,0.3,0.4,0.5,0.6s0.4,0.3,0.7,0.3c0.3,0.1,0.8,0.2,1.5,0.3c1,0.1,1.7,0.3,2.1,0.5
				c0.4,0.2,0.8,0.5,1.1,0.9c0.3,0.4,0.4,0.9,0.4,1.5c0,1.2-0.5,2.1-1.4,2.9s-2.1,1.2-3.5,1.2c-1.1,0-2.1-0.2-3-0.6l0-0.1
				C638.9,114.1,639,113.3,639,112z"/>
			<path class="st0" d="M648,103.2l1,0c0.7,0,1.1,0,1.3,0c0.2,0,1,0,2.4-0.1l0.1,0.1v0.4l-0.1,0.1c-0.4,0-0.7,0-0.9,0
				c-0.2,0-0.4,0.1-0.4,0.1c-0.1,0.1-0.2,0.2-0.2,0.4s0,0.5,0,0.9l0,1.9v3.8l0,1.6c0,0.6,0,1,0,1.2c0,0.2,0.1,0.3,0.1,0.4
				c0.1,0.1,0.2,0.1,0.3,0.2c0.1,0,0.5,0.1,1.1,0.1l0.1,0v0.4l-0.1,0.1c0,0-0.5,0-1.4,0c-0.4,0-0.7,0-0.9,0c-0.2,0-1,0-2.4,0.1
				l-0.1-0.1v-0.4l0.1,0c0.5,0,0.8,0,1-0.1c0.2,0,0.3-0.1,0.3-0.1s0.1-0.2,0.1-0.3c0-0.2,0.1-0.5,0.1-1.1l0-1.7v-3.8l0-1.6
				c0-0.6,0-1,0-1.2s-0.1-0.3-0.1-0.4c-0.1-0.1-0.2-0.1-0.3-0.1c-0.1,0-0.5-0.1-1.1-0.1l-0.1-0.1L648,103.2L648,103.2z"/>
			<path class="st0" d="M663.5,103.2L663.5,103.2c0,0.6,0,1.4,0,2.7l-0.1,0.1H663l-0.1-0.1l-0.1-0.8c0-0.4-0.1-0.7-0.1-0.7
				c0-0.1-0.1-0.2-0.1-0.2c-0.1,0-0.2-0.1-0.5-0.1s-0.6,0-1,0h-1.6c0,1.2-0.1,2-0.1,2.1v4.8l0,1.6c0,0.6,0,1,0,1.2
				c0,0.2,0.1,0.3,0.1,0.4c0.1,0.1,0.2,0.1,0.3,0.1c0.1,0,0.5,0.1,1.1,0.1l0.1,0v0.4l-0.1,0.1c-1.4,0-2.2-0.1-2.4-0.1
				c-0.2,0-1,0-2.3,0.1l-0.1-0.1v-0.4l0.1,0c0.5,0,0.9,0,1-0.1c0.2,0,0.3-0.1,0.3-0.1s0.1-0.2,0.1-0.3c0-0.2,0.1-0.5,0.1-1.1l0-1.7
				v-4.8c0-0.1,0-0.8-0.1-2.1h-1.2c-0.5,0-0.9,0-1.3,0c-0.4,0-0.6,0.1-0.6,0.2c-0.1,0.1-0.1,0.4-0.2,0.9l-0.1,0.8l-0.1,0.1H654
				l-0.1-0.1c0-1.3,0-2.2-0.1-2.6l0.1-0.1c1,0,2.5,0.1,4.8,0.1C661,103.3,662.6,103.3,663.5,103.2z"/>
			<path class="st0" d="M664.3,104L664.3,104l-0.1-0.4l0.1-0.1l2.3-0.4c0.2,0.1,0.3,0.3,0.5,0.4c0.2,0.2,0.4,0.5,0.7,1
				s0.7,1.1,1.2,2c0.5,0.9,0.9,1.7,1.4,2.6l0.8-1.3l0.9-1.6l1.7-3c0.2,0,0.4,0,0.6,0c0.1,0,0.3,0,0.6,0l0.1,0.1v0.2
				c-0.3,0.3-0.7,0.8-1.3,1.6c-0.6,0.8-1,1.4-1.3,1.9c-0.3,0.4-0.6,1-1,1.7c-0.4,0.7-0.6,1.1-0.7,1.2c0,0.1-0.1,0.3-0.1,0.5v1.2
				l0,1.2c0,0.5,0,0.8,0.1,1c0,0.2,0.1,0.3,0.1,0.4s0.2,0.1,0.3,0.1s0.5,0.1,1.1,0.1l0.1,0v0.4l-0.1,0.1c0,0-0.5,0-1.4,0
				c-0.4,0-0.7,0-0.9,0c-0.2,0-1,0-2.4,0.1l-0.1-0.1v-0.4l0.1,0c0.5,0,0.9,0,1-0.1c0.2,0,0.3-0.1,0.3-0.1s0.1-0.2,0.1-0.3
				c0-0.2,0.1-0.5,0.1-0.9l0-1.4V110c-0.1-0.3-0.5-1-1.2-2.1l-0.7-1.2c-0.2-0.4-0.5-0.8-0.9-1.3c-0.3-0.5-0.6-0.8-0.8-1
				c-0.2-0.2-0.3-0.3-0.4-0.3C665.1,104,664.8,104,664.3,104z"/>
		</g>
	</g>
</g>
</svg>
