<?xml version="1.0" encoding="utf-8"?>
<!-- Generator: Adobe Illustrator 22.0.0, SVG Export Plug-In . SVG Version: 6.00 Build 0)  -->
<svg version="1.1" id="图层_1" xmlns="http://www.w3.org/2000/svg" xmlns:xlink="http://www.w3.org/1999/xlink" x="0px" y="0px"
	 viewBox="0 0 184.3 184.3" style="enable-background:new 0 0 184.3 184.3;" xml:space="preserve">
<style type="text/css">
	.st0{fill:none;stroke:#FFFFFF;stroke-width:3;stroke-linecap:round;stroke-linejoin:round;stroke-miterlimit:10;}
</style>
<g>
	<line class="st0" x1="53.3" y1="151.3" x2="104.3" y2="151.3"/>
	<polyline class="st0" points="62.9,152.5 62.9,174.1 72.1,168.5 81.1,174.1 81.1,152.1 	"/>
	<line class="st0" x1="81.3" y1="162.3" x2="150.5" y2="162.3"/>
	<path class="st0" d="M36.4,144.2c0,0-0.5-110.5-0.5-118.9s6.8-15.2,15.2-15.2h99.4v121.7H51.2c-8.4,0-15.2,6.8-15.2,15.2
		s6.8,15.2,15.2,15.2H62"/>
	<line class="st0" x1="49" y1="26.2" x2="49" y2="116.3"/>
	<line class="st0" x1="65.7" y1="37.4" x2="117.9" y2="37.4"/>
	<line class="st0" x1="65.7" y1="56.6" x2="103.6" y2="56.6"/>
	<rect x="65.7" y="77.1" class="st0" width="25.5" height="34.2"/>
	<line class="st0" x1="76.3" y1="142.4" x2="140.3" y2="142.4"/>
	<line class="st0" x1="91.4" y1="171" x2="162.3" y2="171"/>
	<line class="st0" x1="22" y1="171" x2="51.3" y2="171"/>
</g>
</svg>
