<?xml version="1.0" encoding="utf-8"?>
<!-- Generator: Adobe Illustrator 22.0.0, SVG Export Plug-In . SVG Version: 6.00 Build 0)  -->
<svg version="1.1" id="图层_1" xmlns="http://www.w3.org/2000/svg" xmlns:xlink="http://www.w3.org/1999/xlink" x="0px" y="0px"
	 viewBox="0 0 184.3 184.3" style="enable-background:new 0 0 184.3 184.3;" xml:space="preserve">
<style type="text/css">
	.st0{fill:none;stroke:#FFFFFF;stroke-width:3;stroke-linecap:round;stroke-linejoin:round;stroke-miterlimit:10;}
</style>
<g>
	<g>
		<polyline class="st0" points="170.9,58.4 170.9,67.1 92.2,67.1 		"/>
		<g>
			<line class="st0" x1="153.7" y1="76.2" x2="158" y2="145.2"/>
		</g>
		<g>
			<polyline class="st0" points="129.1,67.1 129.1,76.2 143.5,76.2 146.5,76.2 161,76.2 161,67.1 			"/>
			<line class="st0" x1="136.3" y1="76.2" x2="132.1" y2="145.2"/>
		</g>
		<polyline class="st0" points="92.2,145.2 173.1,145.2 173.1,158.9 		"/>
		<polyline class="st0" points="92.2,158.9 180.5,158.9 180.5,172.6 92.2,172.6 		"/>
	</g>
	<polyline class="st0" points="92.2,58.4 3.8,58.4 3.8,45.6 92.2,11.7 180.5,45.6 180.5,58.4 92.2,58.4 	"/>
	<polyline class="st0" points="13.5,58.4 13.5,67.1 92.2,67.1 	"/>
	<g>
		<g>
			<line class="st0" x1="30.6" y1="76.2" x2="26.4" y2="145.2"/>
		</g>
		<g>
			<polyline class="st0" points="55.2,67.1 55.2,76.2 40.8,76.2 37.8,76.2 23.4,76.2 23.4,67.1 			"/>
			<line class="st0" x1="48" y1="76.2" x2="52.2" y2="145.2"/>
		</g>
	</g>
	<g>
		<g>
			<line class="st0" x1="83.4" y1="76.2" x2="79.2" y2="145.2"/>
		</g>
		<g>
			<polyline class="st0" points="108.1,67.1 108.1,76.2 93.7,76.2 90.7,76.2 76.2,76.2 76.2,67.1 			"/>
			<line class="st0" x1="100.9" y1="76.2" x2="105.1" y2="145.2"/>
		</g>
	</g>
	<polyline class="st0" points="92.2,145.2 11.2,145.2 11.2,158.9 	"/>
	<polyline class="st0" points="92.2,158.9 3.8,158.9 3.8,172.6 92.2,172.6 	"/>
</g>
</svg>
