<?xml version="1.0" encoding="utf-8"?>
<!-- Generator: Adobe Illustrator 22.0.0, SVG Export Plug-In . SVG Version: 6.00 Build 0)  -->
<svg version="1.1" id="图层_1" xmlns="http://www.w3.org/2000/svg" xmlns:xlink="http://www.w3.org/1999/xlink" x="0px" y="0px"
	 viewBox="0 0 184.3 184.3" style="enable-background:new 0 0 184.3 184.3;" xml:space="preserve">
<style type="text/css">
	.st0{fill:none;stroke:#FFFFFF;stroke-width:3;stroke-linecap:round;stroke-linejoin:round;stroke-miterlimit:10;}
</style>
<g>
	<path class="st0" d="M92.2,30.6c-2.7,0-57.1-10.2-57.1-11.3c0-1.1,53-10.7,57.1-10.7s57.1,9.5,57.1,10.7
		C149.3,20.4,94.9,30.6,92.2,30.6z"/>
	<path class="st0" d="M111.1,100.2c0,0-1.1,11.2,1.5,15.1c2.6,4,9.2,6.6,19.3,7.7s25.2,3.1,30.3,7.9c5.1,4.8,11,44.6,11,44.6h-81"/>
	<line class="st0" x1="158.4" y1="128.5" x2="92.2" y2="150.5"/>
	<path class="st0" d="M65.4,26.1c0,0-5.2,24.6-5.2,27.7c0,3.1,1.6,9.6,1.6,9.6c-3.1,0-4.7,1.4-3.9,5.1c0.8,3.6,2.5,8.6,2.4,11.6
		s2.1,6.7,5.1,4.8c0,6.9,4,12.5,7.9,15.4s11.9,8.8,19,8.8s15.1-5.9,19-8.8s7.9-8.5,7.9-15.4c3,1.9,5.2-1.8,5.1-4.8s1.6-8,2.4-11.6
		s-0.8-5.1-3.9-5.1c0,0,1.6-6.5,1.6-9.6s-5.2-27.7-5.2-27.7"/>
	<path class="st0" d="M73.2,100.2c0,0,1.1,11.2-1.5,15.1c-2.6,4-9.2,6.6-19.3,7.7s-25.2,3.1-30.3,7.9c-5.1,4.8-11,44.6-11,44.6h81.1
		"/>
	<polyline class="st0" points="72.9,112.2 92.2,121.6 111.5,112.2 	"/>
	<path class="st0" d="M69.4,117.8l10.8,15.6l12-10.4c0-0.7,12,10.4,12,10.4l10.8-15.6"/>
	<polyline class="st0" points="60.2,52.9 92.2,63.1 124.2,52.9 	"/>
	<line class="st0" x1="26" y1="128.5" x2="92.2" y2="150.5"/>
	<polyline class="st0" points="136.9,21.6 136.9,44.7 143.8,56.4 131.4,56.4 136.9,44.7 	"/>
	<line class="st0" x1="75.3" y1="144.9" x2="79.7" y2="175.6"/>
	<line class="st0" x1="109.7" y1="144.9" x2="105.1" y2="175.6"/>
</g>
</svg>
