<?xml version="1.0" encoding="utf-8"?>
<!-- Generator: Adobe Illustrator 22.0.0, SVG Export Plug-In . SVG Version: 6.00 Build 0)  -->
<svg version="1.1" id="图层_1" xmlns="http://www.w3.org/2000/svg" xmlns:xlink="http://www.w3.org/1999/xlink" x="0px" y="0px"
	 viewBox="0 0 288.2 58.3" style="enable-background:new 0 0 288.2 58.3;" xml:space="preserve">
<style type="text/css">
	.st0{fill:#FFFFFF;stroke:#FFFFFF;stroke-width:0.25;stroke-miterlimit:10;}
	.st1{fill:#FFFFFF;}
</style>
<g>
	<g>
		<path class="st0" d="M15,37.8c-0.3-0.2-0.6-0.4-0.9-0.7c0.2,0,0.3,0,0.4,0c0.1,0,0.1,0,0.1-0.1h-0.1c-0.1-0.1-0.2-0.2-0.3-0.3
			c-0.8,0.2-1.5,0.3-2.2,0.3c0,0.7-0.4,1-1.2,1c-0.2,0-0.5-0.2-1-0.6c-0.2-0.2-0.3-0.3-0.4-0.3c-0.6-0.9-0.9-3.4-0.9-7.5
			C8.6,27,8.4,24.5,8,22c-1.1-0.3-1.8-0.8-2.2-1.4c0-1.1,0.4-2,1.3-2.8C7.8,17.6,8.5,17,9,16.2c3-3.3,4.5-5.8,4.5-7.7
			c0.1-0.2,0.2-0.6,0.3-1.2L14,7.3c0.3,0,0.7,0.2,1.3,0.6c0.1,0.2,0.2,0.3,0.3,0.3c1.5,1.9,2,3.5,1.3,4.8c-1.2,1.4-2.3,2.8-3.5,4.2
			c0.7,0,1.4-0.2,2.2-0.6c2.1-0.9,3.7-1.4,4.8-1.4h0.1c1.3,0,2.2,0.4,2.8,1.2c0.3,0.3,0.5,0.9,0.7,1.7c0,0.2,0,0.3,0,0.4
			c-0.4,3-0.8,6.9-1.2,11.7c-0.2,3.8-0.4,6.1-0.7,7.1c-0.2,1.3-0.7,2.4-1.6,3.3c-0.7,0.6-1.4,0.8-2,0.7c-0.3-0.2-0.7-0.6-1.2-1.2
			c-0.3-0.3-0.5-0.5-0.6-0.6C16.2,38.9,15.6,38.3,15,37.8z M14.7,36.7c1,0.5,2.1,0.8,3.5,0.9h0.3c0.5-0.1,0.9-1.4,1.2-4.1
			c0.8-5.3,1.1-10.5,0.9-15.5c0-0.7-0.4-0.9-1.2-0.7c-1.1,0-2.2,0.2-3.3,0.7c-1,0.3-2,0.3-3.2,0.1c-0.3,0.3-0.6,0.6-1,1
			c-0.3,0.4-0.5,0.7-0.7,0.9c0,0.3,0,0.8,0,1.6c0.1,0.9,0.1,1.5,0.1,2c0.1-0.1,0.3-0.2,0.7-0.3c0.7-0.3,1.2-0.5,1.4-0.7
			c2.6-1.4,4.3-1.6,5.2-0.6c0,0.3-0.1,0.5-0.3,0.6c0-0.1,0-0.1-0.1,0c-0.5,0.4-1.3,0.9-2.5,1.4c-0.5,0.2-0.8,0.3-1,0.4
			c-1.8,1.6-2.9,3-3.3,4.1c0.8,0,1.8-0.2,3.2-0.6c1-0.3,1.7-0.4,2.3-0.4c0.8-0.1,1.2,0.1,1.2,0.7c0,0.4-0.3,0.7-0.9,1
			c-0.3,0.1-0.5,0.2-0.6,0.3c-0.4,0.1-0.8,0.4-1.3,0.9c-0.5,0.6-1,1-1.6,1.3l-0.1-0.1c0.8-0.8,1.4-1.4,1.7-1.9
			c-0.4,0-0.9,0.1-1.4,0.3c-0.4,0.2-0.7,0.3-0.9,0.3c-0.6,0.1-1.2,0.1-1.7,0.1c0,1.5,0.1,2.5,0.3,2.9c0.2,0,0.5-0.2,1-0.7
			c0.3-0.3,0.5-0.5,0.6-0.6h0.1c0,0.3-0.2,0.6-0.6,0.9c-0.5,0.6-0.7,1.1-0.7,1.4c0.1,0.3,0.2,0.4,0.4,0.4c1.4-0.3,2.7-0.5,3.9-0.6
			h0.1c1-0.1,1.4,0.1,1.3,0.6C17.9,35.9,16.9,36.6,14.7,36.7z M11.1,27.4c0.2-0.2,0.4-0.5,0.7-0.9c0.7-0.9,1.2-1.4,1.4-1.7
			c-0.8,0.1-1.4,0.1-2,0.1C11.1,25.7,11.1,26.5,11.1,27.4z"/>
		<path class="st0" d="M50.9,8c0.7,0,1,0.8,0.9,2.5c0,0.2,0,0.3,0,0.4c0,0.1,0,0.2,0,0.4c-0.1,2.2-0.3,4.6-0.6,7.2
			c1.2-0.4,2.3-0.7,3.5-0.9c1.1-0.1,1.6,0.3,1.6,1.2c-0.2,0.8-1,1.2-2.5,1.3c-1,0-2,0.2-3,0.6c-0.3,1.4-0.7,2.6-1.2,3.8
			c2.6,0.2,4.6,0.6,6.1,1.3c1.4,0.6,2.2,1.4,2.5,2.6c0.1,0.8-0.2,1.2-1,1.2c-0.3,0-0.7-0.1-1.2-0.4c-0.3-0.3-0.6-0.5-0.9-0.6
			c-0.1,0-0.2,0-0.4,0.1v-0.1c0-0.1,0.1-0.2,0.3-0.3c0.3,0,0.4,0,0.4-0.1c-0.8-0.9-2.9-1.6-6.4-2.2c-0.7,1.2-1.5,2.3-2.5,3.5
			c-0.7,0.5-1.4,0.8-2,0.9c-0.5-0.1-0.9-0.4-1.2-0.9c0-0.4,0.3-0.7,1-1c0.3-0.2,0.5-0.3,0.6-0.4c0.8-0.6,1.5-1.4,2.2-2.6
			c-0.3-0.6-0.1-1,0.6-1.2c0-0.1,0.1-0.3,0.3-0.6c0.3-0.9,0.5-1.5,0.7-2c-0.7,0.2-1.4,0.3-2.3,0.3c-0.2,0-0.5,0-1-0.1
			c-0.5-0.1-0.9-0.1-1.2-0.1c-0.6,1.5-1.3,3.1-2,4.8c-0.1,0.1-0.2,0.2-0.3,0.4c-1.5,3.3-3.2,5-4.9,5.2c-0.8-0.2-1.3-1-1.4-2.5
			c0-0.1,0.1-0.3,0.3-0.7c0.2-0.6,0.3-1,0.3-1.3l0.1,0.4c0,0.6,0.1,0.8,0.3,0.7c1.1-0.2,2.1-1.3,3-3.2c0.1-0.4,0.2-0.6,0.3-0.7
			c0.1-0.2,0.3-0.5,0.6-0.9c0.2-0.4,0.3-0.7,0.4-0.9c-0.5,0.2-1.3,0.6-2.3,1.2c-0.6,0.3-1,0.5-1.3,0.7c-1.6,0.9-2.7,1.3-3.2,1.3
			c-0.3,0-0.5-0.3-0.7-0.9l-0.1-0.1c-0.3-0.7,0-1.2,0.7-1.6c0.2-0.2,0.5-0.5,0.9-0.9c0.4-0.4,0.6-0.6,0.7-0.7v0.3
			c-0.1,0.1-0.2,0.2-0.3,0.4c-0.5,0.6-0.8,1-0.9,1.3c1-0.4,2.5-1,4.5-1.9c1.3-0.6,2.2-1,2.9-1.3c0.1-0.2,0.2-0.4,0.3-0.7
			c0.2-0.3,0.3-0.5,0.3-0.6c-0.4,0.3-0.8,0.3-1.3,0.1c-0.3-0.1-0.5-0.1-0.6-0.1c-0.8-0.8-1.4-1.3-1.7-1.4c-1.3,1.7-2.3,2.8-3.2,3
			c-0.6,0.1-0.9-0.3-1-1.3c-0.2-0.7,0.1-1.3,0.9-1.9c1.9-1.8,3.7-4.5,5.4-8c0-0.1,0-0.3,0.1-0.6c0-0.5,0-0.8,0.1-0.9
			c0.7,0.5,1,1.5,1,3c0,0.2,0,0.5-0.1,0.9c0,0.4,0,0.7-0.1,0.9c0.5,0,1.1-0.2,1.9-0.7c0.7-0.4,1.3-0.6,1.7-0.6
			c0.7,0,1.2,0.3,1.6,0.9c0.2,0.3,0.1,0.7-0.1,1.3c-0.2,0.3-0.3,0.5-0.3,0.6c-0.2,0.6-0.5,1.5-1,2.9c-0.4,1.3-0.7,2.2-1,2.9
			c0.6-0.2,1.4-0.4,2.5-0.7c1.2-0.4,2-0.6,2.5-0.7c0.8-3.5,1-6.6,0.7-9.4H50c0-0.1,0-0.3,0-0.6V9C50,8.3,50.3,8,50.9,8z M34.1,38.4
			c0.1-0.7,0.7-1.5,1.7-2.6c0.1-0.2,0.3-0.4,0.6-0.6c0.4-0.5,0.6-0.8,0.7-1c0.1-0.2,0.3-0.4,0.6-0.6c0.2-0.2,0.3-0.3,0.4-0.4v0.1
			c0,0.4,0,0.7,0,0.9c0,0.2,0,0.3,0,0.4c0,0.1,0,0.2,0,0.3c0,0.9-0.4,2-1.2,3.3c-0.4,0.7-0.7,1.2-0.9,1.6c-0.3,0.5-0.7,0.5-1.2,0.1
			c-0.1-0.1-0.2-0.3-0.4-0.6C34.1,39,34,38.7,34.1,38.4z M43.9,14.4c-0.3,0.2-1.1,0.3-2.5,0.3l-0.1,0.3c-0.2,0.3-0.3,0.5-0.4,0.6
			c-0.4,0.4-0.7,0.8-1,1.2c1.3,0.6,2.2,1.1,2.9,1.6C43.3,16.8,43.7,15.5,43.9,14.4z M41.6,33.9c0-0.2,0-0.3,0.1-0.3h0.3
			c0.8,0.1,1.4,0.5,1.9,1.2c0,0.5,0,0.8,0.1,0.9l0.1-0.1c0.2-0.3,0.4-0.4,0.6-0.4c0,0.2-0.1,0.4-0.4,0.7v1.7c-0.1,0.6-0.2,0.9-0.4,1
			c-0.1,0-0.2,0-0.4-0.1l-0.1-0.1c0-0.1-0.1-0.1-0.3-0.1c-0.9-0.2-1.3-0.9-1.2-2C41.7,35.3,41.6,34.6,41.6,33.9z M48,34.4
			c-0.5-0.3-0.9-0.6-1.2-0.9c0.1-0.2,0.4-0.3,1-0.3c0.7,0,1.4,0.2,2,0.6c0.1,0.1,0.2,0.3,0.3,0.6c0.2,0.4,0.4,0.6,0.6,0.7l0.1-0.1
			c0.1,0,0.1,0.1,0.1,0.3c0,0.2,0.1,0.3,0.3,0.4c0,0.4,0,0.8,0,1.2c0.1,0.4-0.2,0.5-1,0.3C50.2,37,50.1,37,50,37
			C49.3,36.8,48.6,35.9,48,34.4z M52.2,13.5c0-0.1,0.1-0.2,0.3-0.3c1.1,0,1.7,0,2,0.1c0,0.1,0,0.1,0.1,0.1c0.1,0.1,0.3,0.2,0.6,0.3
			c1.3,0.5,1.9,1.2,1.9,2.2c-0.1,0.3-0.2,0.5-0.3,0.6c0,0.1,0,0.1-0.1,0.1l-0.3,0.1h-0.3c-0.4,0-0.7-0.1-1-0.3
			c-0.2-0.2-0.4-0.5-0.7-1c-0.4-0.4-0.7-0.7-0.9-0.9c-0.1-0.1-0.2-0.2-0.4-0.3C52.5,14.1,52.2,13.8,52.2,13.5z M53.8,32.3h0.6
			c1.4-0.1,2.7,0.7,3.6,2.3c0.5,0.8,0.7,1.5,0.7,2.3c0,0.5-0.3,0.7-0.9,0.7c-0.6,0.1-1.1-0.1-1.6-0.7c-0.1,0-0.2-0.3-0.4-0.9
			c-0.1-0.2-0.1-0.3-0.1-0.4c-0.3-0.7-0.8-1.5-1.4-2.5c-0.3-0.2-0.5-0.3-0.6-0.4c0-0.1,0-0.1-0.1-0.1l-0.1-0.1
			C53.4,32.4,53.5,32.3,53.8,32.3z"/>
		<path class="st0" d="M71.8,36.4v-1.4c0.2-1.4,0.4-3.5,0.6-6.4c0-0.5,0-0.8,0-1c-0.5,0.3-1.1,0.8-1.9,1.6c-0.9,0.8-1.5,1.4-2,1.7
			c-0.1,0.1-0.2,0.2-0.4,0.3c-0.4,0.2-0.7,0.4-0.9,0.6h-0.7c-0.1,0-0.2,0-0.3-0.1c-0.3-0.1-0.5-0.2-0.6-0.3c0-0.1,0-0.2,0-0.4
			l-0.1-0.3v-0.1c0.2-0.6,0.6-1.2,1.3-1.7c0.6-0.9,1.5-2.2,2.8-3.9c1.4-1.8,2.5-3.2,3-4.1c-1,0.2-2.3,0.7-3.9,1.4
			c-0.3,0.1-0.7,0.3-1.3,0.6c-1,0.6-1.7,0.9-2.2,0.9h-0.3c-0.5,0-1,0-1.4,0c-0.3-0.1-0.7-0.3-1.2-0.6c-0.2-0.2-0.4-0.3-0.6-0.4
			c0.1-0.1,0.2-0.1,0.3-0.1c0.2-0.1,0.3-0.1,0.4-0.1c1.4-0.7,3-1.2,4.6-1.4c2.4-0.8,4.4-1.5,6.1-2.2c0-0.3,0-0.7,0-1.2
			c0.1-1.4,0.3-2.1,0.7-2c0.2,0,0.3,0,0.4,0v0.7c0.1,0.4,0.1,0.6,0.1,0.7c0.3,0.6,0.4,1,0.3,1.3c0.2,0,0.5,0,0.9-0.1
			c0.3,0,0.5,0,0.6,0c0.8,0.3,1.2,0.6,1.3,1l-1,0.3c-0.9,0.3-1.4,0.5-1.6,0.6c0,0.4,0,1-0.1,1.9c0,0.9,0,1.4-0.1,1.7
			c0.2-0.1,0.4-0.2,0.7-0.3c0.5-0.2,0.9-0.3,1.2-0.3c0,0.1-0.1,0.3-0.4,0.6c-0.3,0.3-0.5,0.5-0.7,0.7c-0.1,0.3-0.4,0.6-0.9,1
			c-0.2,1.4-0.3,4-0.4,8c-0.1,1-0.1,1.6-0.1,2c0,0.7,0,1.2-0.1,1.6h-0.1v0.1c-0.1,0-0.2,0-0.3,0.1c-0.1,0-0.2,0-0.3,0
			C72.5,37.2,72.1,36.9,71.8,36.4z M66.4,17.8c0.3-0.4,0.8-0.8,1.4-1.3c0.3-0.2,0.5-0.3,0.6-0.4c0.9-0.6,1.9-1.4,3-2.3
			c-0.1,0.1,0,0,0.4-0.3c0.2-0.2,0.6-0.4,1.2-0.7c0.7-0.4,1.1-0.7,1.3-1c0.1-0.1,0.1-0.2,0.1-0.4c0-0.3,0.2-0.4,0.6-0.4
			c1.1,0.3,1.7,1,1.9,2c0,0.3-0.2,0.6-0.6,0.9c-0.1,0.4-0.2,0.6-0.4,0.6c-0.4,0.3-1,0.5-1.7,0.7c-0.6,0.1-1.1,0.2-1.4,0.4
			c-1.6,0.6-3.3,1.1-4.9,1.6c-0.6,0.3-1,0.5-1.2,0.7H66.4z M71.9,25.2c0.1-0.1,0.2-0.1,0.3-0.1l0.3-0.1c0.1-0.4,0.1-0.7,0.1-0.9
			C72.2,24.6,72,25,71.9,25.2z M84.5,41.6c0-0.1,0-0.3-0.1-0.7v-0.4c0-0.1,0-0.3-0.1-0.6c-0.2-0.3-0.3-0.5-0.3-0.7
			c0-3.5,0.1-8.6,0.3-15.5c-1,0-2.4,0.4-4.3,1.2l-0.1,0.1c-0.4,0.2-0.7,0.3-1,0.3c-0.4,0.2-1.1,0.3-2.2,0.3h-0.7
			c-0.4-0.1-0.6-0.2-0.6-0.4c0.2-0.2,0.3-0.3,0.4-0.4h0.6c0.8-0.2,1.7-0.5,2.9-1c1.7-0.7,3.4-1.2,5.1-1.4c0.1-1.4,0.1-3.3,0.1-5.9
			c0-2.7,0-4.7,0-5.9c0-0.1,0-0.3,0-0.6c-0.1-0.4-0.1-0.7-0.1-0.9c0.1-0.5,0.2-0.8,0.4-0.9h0.7c0,0.1,0,0.2,0.1,0.3
			c0.1,0,0.2,0,0.3,0.1v0.1c0,0.2,0,0.3,0,0.4c0.3,1.1,0.4,2.8,0.4,5.2c0,1.3,0,3.1-0.1,5.5c-0.1,0.9-0.1,1.5-0.1,2
			c1.2-0.2,2.1-0.3,2.9-0.3c0-0.1-0.1-0.3-0.3-0.6c0-0.3,0.1-0.4,0.3-0.4c0.8,0.6,1.7,0.9,2.9,0.9c0,0.1,0,0.3,0.1,0.6
			c0,0.2,0,0.4,0,0.6v0.3l-0.1,0.1c-0.1,0-0.1,0-0.1,0.1h-0.4c-0.2,0-0.5,0-0.9-0.1c-0.4-0.1-0.7-0.1-0.9-0.1c-0.6,0-1.4,0-2.5,0.1
			c-0.4,0.1-0.7,0.1-1,0.1c0,5.8,0,11.2,0,16.1c0,0.1,0,0.2-0.1,0.4c-0.1,0.2-0.1,0.3-0.1,0.4l0.1,0.1c-0.3,0.8-0.6,1.3-1,1.4
			C84.7,41.6,84.6,41.6,84.5,41.6z M77.7,19.1c0-0.2,0.6-0.6,1.9-1.3c1.3-0.7,1.9-1.1,1.9-1.3C80.8,16,80,15.4,79,14.8
			c-0.1,0-0.2,0-0.3-0.1c-0.2,0-0.3-0.1-0.3-0.3c0-0.2,0.2-0.3,0.7-0.3c2.5,0.7,4,1.6,4.3,2.9c0,0.5-0.1,0.7-0.4,0.7v-0.1l-0.6-0.1
			c-0.3-0.1-0.5-0.1-0.6-0.1c-0.1,0-0.2,0-0.3,0c-1.5,0.5-2.5,1-2.9,1.6c0,0.1,0.4,0.2,1.2,0.4c0.6,0,1.3,0.2,2,0.6L82,20
			c0.4,0.3,0.6,0.7,0.7,1.2c-0.2,0.3-0.3,0.4-0.4,0.4c-0.1-0.1-0.2-0.1-0.4-0.1c-0.1,0-0.2,0-0.4-0.1c-0.1-0.1-0.2-0.2-0.4-0.3
			c-0.3-0.2-0.5-0.3-0.6-0.3c-0.1,0-0.3,0-0.7-0.1C78.4,20.4,77.7,19.9,77.7,19.1z"/>
		<path class="st0" d="M95.9,25.2c-0.1-0.5,0.6-1.6,2-3.3c0.1-0.1,0.2-0.3,0.4-0.6c0.5-0.9,0.8-1.3,1-1.3h0.1c0.3,0.6,0.4,1,0.4,1.3
			c0.3-0.1,0.7-0.2,1.2-0.3c0.6-0.1,1-0.1,1.2-0.1c-0.4-0.6-0.6-1.7-0.6-3.3c0-1.4-0.2-2.6-0.7-3.5c0-0.1-0.1-0.2-0.3-0.4
			c-0.3-0.6-0.4-1-0.4-1.3V12c0.2,0,0.3,0,0.4,0c1.4,0.2,2.3,0.6,2.8,1.2c0.6,1.2,0.8,3,0.7,5.5c0,0.9,0,1.5,0,1.9
			c0.1,0,0.2,0,0.4-0.1c0.2,0,0.3,0,0.4,0c-0.1-0.5-0.1-0.8-0.1-1c0.2-0.4,0.2-2.5,0-6.4c-0.1-1.4-0.1-2.6-0.1-3.5
			c0-0.1-0.1-0.2-0.3-0.3h-0.1c-0.1,0-0.1,0-0.1,0.1c-0.3,0.1-0.5,0-0.6-0.1c0-0.1,0.1-0.3,0.3-0.6c0.7-0.8,1.4-0.9,2.2-0.3
			c0.4,0.5,0.5,1.1,0.4,1.9c0.6,0,1.2,0.1,1.7,0.4c0.6-0.9,1-1.6,1.2-2.2c0-0.3-0.2-0.4-0.6-0.4c0-0.1,0.2-0.2,0.6-0.3h0.1
			c0.9-0.1,1.3,0,1.3,0.4c0,0.5-0.1,1-0.3,1.4c-0.4,0.6-0.7,1.2-1,1.7c0.1,0.1,0.2,0.2,0.4,0.3c0.3,0.2,0.5,0.4,0.7,0.6
			c0.1,0.1,0.2,0.2,0.3,0.3c0.4,0.2,0.6,0.4,0.6,0.6c1.3,0,2.1,0,2.6,0.1c0.3-0.8,0.4-1.5,0.4-2.3c0-0.1-0.4-0.2-1.2-0.3
			c-1.1,0-1.6-0.1-1.6-0.3v-0.1c1.1-0.4,2.1-0.6,3-0.6c1,0.1,1.5,0.6,1.6,1.6c0,0.1-0.1,0.4-0.3,0.9c-0.1,0.4-0.2,0.7-0.3,0.9
			c-0.2,0.7-0.5,1.7-0.9,3c-0.4,1.4-0.7,2.4-1,3.2c3.5,0,5.6,0.6,6.5,1.9c0,0.1,0,0.2,0.1,0.3c0.3,0.4,0.4,0.8,0.4,1.2
			c0,0.4-0.1,0.7-0.4,1c-0.1,0.2-0.5,0.3-1.3,0.3l-0.3-0.1c-0.2,0-0.3,0-0.4,0c-0.3,0-0.8,0-1.4,0.1c-0.6,0.1-1.1,0.1-1.4,0.1
			c-0.1,0-0.3,0-0.6-0.1c-0.2-0.1-0.4-0.1-0.6-0.1c-0.2,0.1-0.2,0.1-0.1,0c0.1-0.2,0.7-0.6,1.9-1.2c1.2-0.7,1.7-1.1,1.6-1.2
			c-0.6-1-2-1.3-4.3-1l-0.1,0.1c-0.5,0.7-0.9,1.1-1.3,1.3c-0.3,0-0.5,0-0.6,0c-0.1,0-0.1-0.1-0.1-0.3c0-0.1,0-0.2,0-0.3
			c0.1-0.5,0-0.7-0.3-0.7c-1.7,0.1-3.3,0.3-4.6,0.6c-0.1,0.3-0.2,0.5-0.4,0.6c-0.2,0-0.4-0.1-0.6-0.4c-0.4,0.1-1,0.2-1.9,0.3
			c-1.6,0.3-2.9,0.5-3.8,0.6c-1.2,2.7-2.2,4.2-3.2,4.3C96.2,26.4,95.9,26,95.9,25.2z M115.2,28.8c-1.3-0.2-1.9-0.3-2-0.3
			c-0.8,0-1.7,0-2.9,0c0.8,4.3,0.6,7.9-0.4,11c-0.4,0.7-1.2,1.3-2.3,1.7c-0.9-0.2-1.8-0.5-2.9-1c-0.5-0.2-0.8-0.3-0.9-0.4
			c-0.2-0.1-0.4-0.3-0.7-0.6c-0.2-0.3-0.3-0.4-0.4-0.4c-0.1-0.1-0.1-0.2-0.1-0.3c-0.1-0.1-0.1-0.2-0.1-0.3c-0.1,0-0.3-0.1-0.6-0.4
			v-0.1h0.1c2.6,0.8,4.5,1.1,5.8,1c0.7,0,1.2-0.6,1.6-1.7c0.8-2.3,0.8-5.1,0-8.3c-3.2,0.4-5.4,0.9-6.5,1.4c-0.6,0.3-1.5,0.4-2.8,0.4
			c-0.6-0.1-1-0.3-1.3-0.6c0-0.1,0.1-0.1,0.3-0.1c0.2-0.1,0.3-0.1,0.4-0.1c1-0.5,2.7-0.9,5.2-1.3c0.2,0,0.5,0,0.9-0.1
			c1.1-0.2,2.2-0.4,3.5-0.6c-0.1-0.2-0.2-0.4-0.3-0.6c-0.1-0.1-0.1-0.2-0.1-0.3h-0.1c-0.2,0-0.3,0-0.3,0.1H108c0-0.1,0-0.1-0.1-0.1
			c0.3-0.1,0.4-0.2,0.3-0.4c-0.2-0.6-0.6-1-1.3-1.3c-0.1-0.1-0.2-0.1-0.3-0.1c-0.1,0-0.1-0.1-0.1-0.4c-0.2,0.1-0.5,0.2-0.9,0.4
			c-0.6,0.4-1,0.6-1.2,0.6c-0.7,0-1-0.4-0.9-1.3c0.3-1,0.8-1.6,1.4-2c0,0.1,0.1,0.2,0.3,0.3c0.1,0.1,0.1,0.2,0.1,0.3
			c0,0.1,0,0.2-0.1,0.3v0.1c0,0.3,0.1,0.4,0.4,0.4c0.5,0,1.1-0.1,1.9-0.4c0.5-0.2,0.8-0.3,1-0.4c0.2,0,0.5-0.1,0.9-0.3
			c1.4-0.3,2.4-0.4,3.2-0.4h0.7c0.4,0.1,0.6,0.4,0.6,0.9c0,0.1,0,0.2,0,0.3c0.2,0.1,0.2,0.3,0,0.6c-1.4,1.3-2.7,2.2-4.1,2.8
			c0,0.1,0,0.2,0.1,0.4c0,0.2,0,0.3,0,0.4c1.4-0.1,2.8-0.1,4.1-0.1c1.3,0.3,2,0.6,2.2,1C116.2,28.6,115.9,28.8,115.2,28.8z
			 M106.5,11.2c0,0.7,0,1.4,0,2.2c0.1-0.1,0.2-0.2,0.3-0.4c0.1-0.2,0.3-0.5,0.7-1c-0.1-0.1-0.2-0.2-0.4-0.4
			C106.8,11.4,106.6,11.3,106.5,11.2z M106.7,18.3c0.4-0.2,0.9-0.6,1.4-1.3c-0.6-1-1.1-1.4-1.4-1.4
			C106.7,16.4,106.7,17.3,106.7,18.3z M106.8,19.9c0,0.1,0,0.2,0,0.3c1.1-0.2,2.1-0.3,3-0.4c-0.1-0.2-0.3-0.6-0.6-1.2
			c-0.1-0.3-0.2-0.5-0.3-0.6C108.3,18.9,107.6,19.5,106.8,19.9z M109.9,13.5c0-0.2-0.4-0.5-1.2-0.9c-0.6,0.7-1.2,1.4-1.7,2.2
			c0.8,0.2,1.4,0.5,2,1C109.6,14.9,109.9,14.1,109.9,13.5z M107.8,23.6c-0.1,0-0.1,0-0.1,0.1c-0.1,0-0.2,0-0.3,0.1
			c-0.2,0.1-0.3,0.2-0.4,0.3c1.4,0.7,2,1.1,2,1.3c1.4-1,2.4-1.9,2.9-2.8C110.8,22.7,109.5,23,107.8,23.6z M107.8,23.8v-0.1
			c0,0.1,0,0.1-0.1,0.1H107.8z M111.6,13.6c-0.1,0.7-0.6,1.7-1.6,3c0.8,0.9,1.2,1.8,1.2,2.9c0.4,0,0.7,0,1,0c0.5-0.8,0.8-1.4,0.9-2
			c-0.1-0.1-0.3-0.1-0.6-0.1c-1.1-0.3-1.6-0.7-1.6-1.3c0-0.3,0.1-0.4,0.4-0.3c0,0.3,0.5,0.4,1.4,0.4h0.3h0.3
			c0.3-0.7,0.5-1.3,0.6-1.7h-1.3l-0.1,0.1l0.1-0.3v-0.1C112.4,14,112.1,13.8,111.6,13.6z M110.3,25.5l-0.1,0.1h0.1V25.5z
			 M110.4,25.2h-0.1C110.4,25.3,110.4,25.3,110.4,25.2z M112.2,14.9l0.1-0.1C112.3,14.9,112.3,14.9,112.2,14.9z"/>
		<path class="st0" d="M129.3,14.2c0-0.5,0.4-0.7,1.3-0.7h0.1c2.1,0.3,5.1,0.1,8.8-0.4c-0.3,0-0.5-0.2-0.7-0.6v-0.1
			c-0.1-0.2-0.2-0.5-0.3-1c-0.3-0.7-0.5-1.1-0.6-1.3c-0.2-0.3-0.5-0.7-0.9-1.2c-0.5-0.8-0.9-1.4-1.2-1.9c0-0.1,0-0.2,0.1-0.3V6.4
			c0.3,0.2,0.7,0.3,1.2,0.4c0.1,0,0.3,0,0.6,0.1c1.4,0.3,2.4,0.7,2.9,1.3l0.1,0.4c0.1,0.3,0.2,0.4,0.3,0.4c0.1,0.3,0.2,0.7,0.3,1.3
			c0,1.2-0.3,2-1,2.6c0.9,0,2.2-0.1,3.9-0.3c2-0.2,3.4-0.3,4.2-0.3c1.9,0.1,2.9,0.4,3,0.9c0,0.5-0.2,0.7-0.7,0.6
			c-0.1,0-0.1,0-0.1,0.1c-0.4,0.1-0.8,0.1-1.2,0.1c-0.5,0-1,0-1.6,0c-3.7-0.3-8.4,0-14.3,0.9c-0.2,0-0.4,0-0.7,0.1
			c-1.1,0.2-1.8,0.3-2.3,0.3h-0.1C129.6,15.1,129.3,14.7,129.3,14.2z M143.3,37.2c0.2,0.1,0.4,0.3,0.7,0.6c0.5,0.4,0.9,0.6,1.3,0.6
			h0.1c0.8-0.3,1.4-0.8,1.7-1.4c1.7-3.4,2.7-6.5,2.8-9.3c0-0.5-0.3-0.8-1-0.9c-0.4,0-0.9,0-1.4,0c-4,0-7.6,0.3-11,1
			c-0.2,0-0.5,0-0.9,0.1c-0.8,0.2-1.3,0.3-1.6,0.3c-0.5,0-1.1,0-1.9-0.1c0.1,0.6,0.3,1.5,0.6,2.9c0.5,2.1,0.8,3.7,0.9,4.8
			c0.3,0.7,0.4,1.3,0.4,1.7c-0.1,0.4-0.3,0.7-0.6,0.9c-0.4-0.1-0.8-0.3-1.3-0.6c-0.1-0.4-0.2-0.7-0.3-0.9c-0.6-2.4-1.1-5.2-1.4-8.3
			c0-0.3,0.1-0.6,0.3-0.9c0.3-0.4,0.4-0.7,0.3-0.9h0.1c0.2,0,0.4,0.1,0.6,0.3c0.1,0.2,0.2,0.3,0.4,0.3c6.4-1.4,12-2.2,16.8-2.2
			c0.9,0,1.8,0.3,2.8,1c0.1,0.1,0.2,0.2,0.4,0.3c0.4,0.2,0.6,0.5,0.6,0.9c0,0.4-0.1,0.9-0.4,1.4c-0.2,0.4-0.3,0.7-0.4,0.9
			c-0.7,3.4-1.6,6.3-2.9,8.7c-0.8,1.5-1.6,2.3-2.5,2.3c-0.6,0-1.2-0.3-1.7-0.9C144,39,143.5,38.1,143.3,37.2z M137.7,24.4
			c-1.3-1.3-1.9-3-2-5.2c0-0.1,0-0.4,0.1-1c0-0.5,0-0.8,0-0.9c0.1-0.3,0.2-0.5,0.4-0.6c0.1,0,0.1,0,0.1,0.1c0.2,0,0.4,0.1,0.6,0.4
			c0.3,0.2,0.5,0.3,0.7,0.3h0.1c0.5-0.1,1.2-0.2,2-0.4c1.5-0.4,2.8-0.6,3.6-0.6c1,0.1,1.5,0.8,1.6,2c-0.5,0.8-0.8,1.2-1,1.3
			c-0.1,0.3-0.2,0.7-0.4,1.2c-0.2,0.5-0.4,0.9-0.6,1.2c-0.1,0.1-0.2,0.2-0.4,0.3c-0.1,0.1-0.2,0.4-0.3,0.9c-0.1,0.1-0.5,0.1-1.3,0.1
			c-0.7,0.1-1.1,0.1-1.3,0.1h-0.9l-0.1,0.4c0,0.2,0,0.3-0.1,0.4c-0.1,0-0.2,0-0.4-0.1C137.9,24.4,137.8,24.4,137.7,24.4z
			 M135.6,29.9v-0.1h0.4c0.1,0,0.3,0,0.6,0.1c0.3,0.1,0.5,0.1,0.7,0.1c0.3,0,0.8-0.1,1.6-0.3c0.2-0.1,0.3-0.1,0.4-0.1
			c1.5-0.4,2.8-0.6,3.9-0.6c0.7,0,1.1,0,1.2,0.1c0.2,0,0.3,0.4,0.4,1.2c0,0.2-0.1,0.4-0.4,0.7c0,0.1-0.1,0.4-0.4,0.9
			c-0.2,0.2-0.3,0.3-0.3,0.4c-0.1,0.2-0.3,0.5-0.6,1c-0.4,0.6-0.6,1-0.6,1.2c-0.6,0.2-1.5,0.3-2.8,0.3c-0.3,0-0.5,0-0.7,0
			c-0.1,0.1-0.3,0.1-0.6,0.1c-0.1,0-0.2,0-0.4,0c-1.2-0.6-1.9-2-2.3-4.2c0-0.1,0-0.2,0-0.4C135.7,30.1,135.6,30,135.6,29.9z
			 M137.7,19c0.2,1.9,0.5,3,0.9,3.3h0.3c1.1,0,1.8,0,2.2-0.1c0.7-1.7,1.2-3.1,1.4-4.2h-0.1c-0.6,0-1.6,0.2-3.2,0.6
			c-0.4,0.2-0.7,0.3-0.9,0.3C138,18.9,137.9,18.9,137.7,19z M139.4,30.4c-0.7,0.2-1.3,0.2-1.7,0.1c0.6,1.4,1,2.4,1.3,2.9
			c0.3-0.1,0.7-0.1,1.2-0.1c0.6-0.1,1-0.1,1.2-0.1c0.3-0.5,0.6-1.3,1-2.3c0.1-0.3,0.1-0.5,0.1-0.6l-0.1-0.1H142
			c-0.1,0-0.5,0-1.2,0.1h-0.7C139.9,30.3,139.7,30.3,139.4,30.4z"/>
		<path class="st0" d="M167.5,31.2c-0.1,0.1,0,0.2,0.1,0.3c1.1,0.6,1.6,1.5,1.7,2.8c0,0.9-0.3,1.4-1,1.4c-0.2,0-0.4,0-0.6-0.1
			c-0.1-0.1-0.2-0.1-0.3-0.1c-0.2-0.3-0.3-1-0.4-2c-0.2-1-0.4-1.6-0.6-1.9c-0.7-0.2-1.3-0.5-1.7-0.9v-0.1c0-0.1,0-0.2-0.1-0.3
			c-0.1-0.1-0.1-0.2-0.1-0.3c0-0.2,0.5-0.3,1.4-0.3c0.1,0,0.3,0,0.6,0c0.8,0.1,1.3,0.1,1.4,0c1.7-0.2,3.6-0.4,5.5-0.7v-3.6
			c-0.1,0-0.2,0-0.4,0c-0.6,0-1,0.1-1.2,0.3c-0.1,0-0.2,0-0.4,0.1c-0.3,0.2-0.5,0.3-0.7,0.3c-0.1,0-0.2,0-0.4-0.1
			c-0.2-0.1-0.4-0.1-0.6-0.1c-1.4,0.1-3.8,0.4-7.1,1c-0.2,0-0.5,0.1-0.9,0.3c-0.6,0.2-1,0.3-1.3,0.3c-1.4-0.4-2.1-0.9-2.3-1.6
			c0.1,0,0.3,0,0.6-0.1c0.5-0.1,0.9-0.1,1.2-0.1c1.6,0.1,4.3-0.1,8.1-0.7c1.8-0.3,2.7-0.9,2.5-1.9v-0.6v-0.3
			c-0.8,0.4-1.6,0.6-2.5,0.6h-0.1c-1.4-0.3-2.4-1-3-2c0.3-0.1,0.9-0.1,1.7-0.1c0.5,0,1.1,0,1.9-0.1c1.1,0,1.8,0,2.2-0.1
			c-0.1-0.6-0.1-1.4,0-2.6c0-0.5,0-0.8,0-1c0-0.5,0.3-0.7,1-0.7c0.1-0.2,0.1-0.3,0.1-0.4c0.2,0,0.3,0,0.4,0c0.3-0.6,0.6-1,0.9-1.3
			c1.9-2.7,2.9-4.5,2.9-5.5c0-0.3,0-0.4-0.1-0.4c-0.4,0-0.8,0.3-1.3,0.9c-0.1,0.1-0.2,0.2-0.3,0.3c-0.1,0.1-0.3,0.2-0.6,0.4
			c-0.4,0.2-0.7,0.4-1,0.7h-0.1c1.6-1.9,3.1-3.2,4.5-3.8c1,0,1.4,0.5,1.4,1.4c0,0.5-0.4,1.5-1.3,3l-0.1,0.1v0.1
			c0.3-0.1,0.7-0.2,1.2-0.3c0.3-0.2,0.5-0.3,0.7-0.3c0.6-0.3,1.2-0.4,1.7-0.4c0.5,0.3,0.8,0.6,0.9,0.9c0,0.6-0.7,0.9-2,0.9
			c-0.1,0-0.5,0.1-1.2,0.3c-0.7,0.2-1.1,0.3-1.3,0.4c-0.1,0-0.2,0-0.3,0.1c-0.3,0.1-0.5,0.2-0.6,0.3c1.5,0.7,2.4,1.7,2.6,3.2
			c0,0.3-0.1,0.5-0.3,0.6h-1.2c-0.1,0-0.2-0.2-0.4-0.6c-0.1-0.4-0.2-0.6-0.3-0.7c-0.2-0.2-0.4-0.4-0.7-0.7c-0.3-0.3-0.5-0.4-0.7-0.4
			h-0.1c-0.1,0.1-0.2,0.2-0.4,0.4c-0.7,1-1.4,1.4-2,1.4c0.1,0.9,0.1,1.6,0.1,2.3c0,0.2,0.4,0.2,1.3,0.1c0.3-0.1,0.6,0,1,0.3
			c0.4,0.1,0.6,0.3,0.6,0.7c0,0.5-0.5,0.8-1.6,0.9c-0.7,0-1.2,0.1-1.4,0.3c0,1,0,1.9,0,2.9c1.4-0.2,3.6-0.4,6.8-0.6
			c2.6,0,4,0.5,4.1,1.4c-0.1,0.4-0.4,0.6-1,0.7c-0.3,0-0.8-0.1-1.6-0.3c-0.3-0.1-0.5-0.1-0.7-0.1c-1-0.2-2.7-0.2-5.2,0
			c0,1.4,0,2.6-0.1,3.8c0.5-0.1,0.9-0.1,1.2-0.1c0.6,0.1,0.9,0,1-0.3h0.3c0.2,0,0.4,0,0.6,0c0.3,0.1,0.5,0.1,0.6,0.1
			c0.4,0.2,0.6,0.5,0.6,0.9c-0.1,0.4-0.3,0.6-0.6,0.6c-0.4,0.1-0.9,0-1.4-0.1c-0.6-0.1-1-0.1-1.3-0.1c-0.1,0-0.2,0-0.4,0
			c-0.2,0.1-0.3,0.1-0.4,0.1c0,0.7,0,1.6,0.1,2.8c0,1.2,0,2,0,2.6c0,2.1,0,3.5-0.1,4.1c-0.2,0.8-0.4,1.3-0.7,1.6l-0.3,0.1
			c-0.2,0.1-0.3,0.2-0.4,0.3c-0.4,0-0.8,0-1.2,0c-0.8,0-1.6-0.2-2.6-0.6l-0.9-0.4c-0.1-0.1-0.2-0.2-0.4-0.3
			c-0.1-0.1-0.3-0.2-0.7-0.4c-1-0.7-1.4-1.2-1.4-1.4c0.2,0,0.4,0.1,0.7,0.4c0.2,0.1,0.3,0.2,0.4,0.3c0.3,0,0.7,0,1.3,0.1
			c0.7,0.1,1.1,0.1,1.3,0.1c0.3,0,0.5,0,0.7,0c0-0.1,0-0.1,0.1,0c0.3-0.1,0.8-0.2,1.6-0.3c0.7-0.4,1.1-1.3,1.2-2.8
			c0-0.7,0-1.6,0-2.9c0.1-1.4,0.1-2.4,0.1-3.2c-1.3,0.2-2.8,0.5-4.8,0.9C168.1,31.1,167.7,31.2,167.5,31.2z M170,17
			c-0.1,0-0.3,0.1-0.6,0.3c-0.6,0-1.1-0.5-1.6-1.4c-0.4-0.7-0.7-1.2-1-1.4c-0.8,0.4-1.5,0.8-2.2,1.3c-0.4,0.4-0.7,0.6-1,0.7
			c-0.4,0-0.8-0.2-1.3-0.6c-0.1-0.1-0.3-0.7-0.7-1.7c0-0.5,0.3-0.8,0.9-1c0.8-0.4,1.3-0.8,1.6-1.3c0.1-0.2,0.2-0.5,0.3-1
			c0.4-1.3,0.8-1.9,1.3-1.9c0.8,0.3,1.4,1.2,2,2.6c0.3,0,0.6-0.1,0.9-0.3c0.1,0,0.4-0.1,0.9-0.3c0.7-0.3,1.2-0.4,1.4-0.4
			c0.2,0,0.4,0,0.7,0c0.3,0.1,0.5,0.1,0.6,0.1c0.2,0,0.3,0,0.3-0.1V11v0.3c0,0.5-0.3,0.9-1,1.2c-0.3,0.1-0.5,0.2-0.6,0.3
			c-0.1,0-0.2,0.1-0.3,0.3c-0.2,0.2-0.3,0.3-0.4,0.4l-0.1,0.4c-0.1,0.3-0.1,0.5-0.1,0.6v0.1c0,0.2,0.1,0.6,0.3,1.2
			c0.2,0.3,0.3,0.5,0.3,0.7C170.3,16.6,170.2,16.8,170,17z M169,13.4v0.1c0.1,0.5,0.2,0.7,0.4,0.7c0.4-0.4,0.8-0.9,1.2-1.6
			C169.9,12.8,169.3,13.1,169,13.4z M171.8,15.5v0.1C172,15.6,172,15.5,171.8,15.5z M172.6,19.3v0.3l0.4-0.1L172.6,19.3z"/>
		<path class="st0" d="M195.6,29.3c-0.2,0.9-0.7,1.4-1.4,1.6c-1-0.5-1.7-1.9-2.2-4.2c-0.8,0.8-1.6,1.6-2.5,2.5
			c-0.7,0.6-1.4,0.8-2,0.7c-0.1-0.2-0.5-0.5-1.3-0.9l-0.6-0.4c0-0.4,0.4-0.8,1.2-1.3l0.1-0.1c3-1.4,6-6,9.1-13.6
			c-0.7,0-1.7-0.1-3.2-0.4c1,0.2,0.8,0.1-0.4-0.1c-0.2-0.2-0.3-0.3-0.4-0.4l-0.1-0.1c-0.3-0.2-0.4-0.3-0.4-0.4
			c0-0.7,1.1-1.1,3.3-1.3c0.5,0,0.8,0,0.9,0c0.6-0.5,1.2-0.7,1.9-0.7c1.4,0.1,2.1,0.7,2.2,1.7c0,0.5-0.3,1.2-0.9,2.2
			c-0.6,0.9-1,1.7-1.3,2.5c-0.9,2.1-1.8,4.2-2.9,6.1c0.3,0,0.8-0.2,1.4-0.6c0.9-0.4,1.5-0.6,1.9-0.6c1.9,0.1,2.9,0.9,2.9,2.3
			c-0.1,0.3-0.2,0.5-0.3,0.7c-0.1,1.4-0.6,2.8-1.6,4.1c-0.3,0.5-0.9,0.7-1.9,0.7C196.7,29.2,196.2,29.3,195.6,29.3z M194.6,24.8
			c0.1,0.2,0.2,0.6,0.4,1.3c0.2,0.6,0.3,1,0.3,1.3c0.1,0,0.2,0,0.4-0.1c0.6-0.1,1-0.2,1.2-0.4c0.3-0.9,0.4-1.9,0.4-3.2
			C196.3,23.9,195.4,24.3,194.6,24.8z M209.5,39.4c0-0.6,0-1.2,0-1.7c0.4-5,0.6-11.1,0.6-18.1c-0.6,0-1.5,0.1-2.8,0.3
			c-0.5,0.1-0.8,0.1-1,0.1c-0.4,6.3-1.2,10.8-2.3,13.6v0.1c-0.5,0.8-1.1,1.2-1.7,1.2c-0.3,0-0.4,0-0.4-0.1c-0.3,0-0.4-0.2-0.4-0.7
			v-0.3c0-0.1,0-0.1-0.1-0.1v-0.3c-0.1-0.3-0.1-0.5-0.1-0.6c0-0.2,0.2-0.5,0.6-0.9l0.1-0.1c1.3-2.5,2.1-6.3,2.5-11.3
			c-0.3,0.1-0.7,0.2-1.3,0.3c-0.8,0.3-1.4,0.4-1.9,0.4c-0.6,0-1-0.1-1.2-0.4c-0.1-0.1-0.2-0.1-0.4-0.1c-0.2-0.1-0.3-0.2-0.3-0.4
			c0-0.6,0.2-0.9,0.7-0.9c0.4,0,0.7,0,1,0c0.3,0,0.6,0,1-0.1c0.4,0,0.7,0,0.9,0c0.6-0.2,1.1-0.3,1.6-0.4c0.2-2.7,0.1-4.8-0.1-6.2
			c-0.7-0.2-1.4-0.5-2.2-1c-0.6-0.2-1-0.4-1.3-0.6h0.1l0.1-0.1h0.1c0.1,0,0.3,0,0.6,0c0.5,0.1,0.9,0.1,1.2,0c0.2,0,0.5,0,1,0
			c1.9-0.1,3.4-0.3,4.5-0.7c0.1,0,0.2,0,0.4-0.1c1.9-0.5,3.4-0.6,4.3-0.3c0,0.1,0,0.2,0.1,0.4v0.3c0.1,0.3-0.5,0.7-1.7,1.3
			c0,1.9,0,3.9,0,5.9c0.8-0.1,1-0.1,0.7-0.1c1.3-0.1,2-0.1,2.2-0.1c1.4,0,2.2,0.4,2.2,1.2c-0.1,0.8-0.5,1.1-1.2,0.9
			c-1.4,0-2.7,0-3.9,0c0,6.3,0,12.4,0,18.4c0.1,1.2-0.1,2.2-0.7,3l-0.1-0.1c-0.1,0.1-0.2,0.2-0.4,0.3c-0.2,0-0.3,0-0.4,0.1
			C209.8,40.8,209.6,40.3,209.5,39.4z M205.7,12.5c0.5,1,0.7,2.7,0.7,5.2c0,0.3,0,0.5,0,0.7c0.7-0.1,0.9-0.1,0.7-0.1
			c1.4-0.2,2.3-0.3,2.9-0.4c0-2,0-4,0-5.9c-0.3,0-0.8,0-1.4,0.1C207.4,12.2,206.4,12.4,205.7,12.5z"/>
		<path class="st0" d="M224.6,38.8c-0.6,0.1-0.8-0.1-0.7-0.6h-0.4c0.1-0.2,0.4-0.5,1-0.9c0.5-0.2,0.8-0.3,0.9-0.4
			c2.6-2.8,4.1-6.4,4.5-10.7c-1.7,0.6-3.6,1.4-5.5,2.3c-0.1,0-0.2,0-0.4,0.1c-0.7,0.3-1.2,0.4-1.4,0.4c-0.9-0.2-1.4-0.4-1.4-0.7
			c0-0.1,0.2-0.2,0.6-0.4c0.4-0.2,0.6-0.3,0.6-0.4c1.5-0.7,4-1.6,7.4-2.8c0.2-0.1,0.3-0.1,0.4-0.1c0.1-0.4,0.1-1.1,0.1-2.2
			c0.1,0,0.1,0,0.1-0.1h0.1c0.3,0,0.6,0.7,1,2c0.3-0.1,0.8-0.2,1.4-0.4c1-0.2,1.6-0.3,1.9-0.4c0.1-0.1,0.4-0.2,1-0.4
			c0-0.1,0.1-0.1,0.3-0.1c0.5,0.1,0.8,0.4,0.9,0.9c0,0.4-0.2,0.9-0.6,1.6c-0.2,0.3-0.3,0.5-0.4,0.7c-0.8,2.3-1.2,4.5-1.3,6.5
			c0,1.4,0.6,2.5,1.7,3c0.8,0.3,1.9,0.5,3.5,0.7h0.1c2.6,0,4.5-0.3,5.8-0.9c0.2-0.1,0.3-0.2,0.3-0.3c0.2-0.3,0.4-0.7,0.6-1.3
			c0.3-0.6,0.5-1,0.6-1.2l0.1-0.9l0.1-0.3c0.1-0.4,0.2-0.6,0.4-0.6v1.3l0.1,0.1c0.1,0.7,0.2,1.2,0.3,1.4v0.4c0,0.1,0,0.2-0.1,0.3
			l-0.1,0.1c0,0.2,0,0.3,0.1,0.4l0.1-0.1c0.1-0.2,0.2-0.3,0.3-0.4c-0.4,1.1-0.7,1.7-0.9,2c-2,0.7-3.7,1-5.1,1
			c-6.5,0.3-9.7-1.5-9.6-5.4c0.1-1.9,0.6-4.5,1.6-7.7c-1.1,0.2-2.2,0.5-3.3,1c-0.3,2.1-0.7,4.2-1.3,6.1c-1.2,3.5-2.6,5.7-4.3,6.8
			l-0.1,0.1c-0.4,0.2-0.7,0.3-1,0.3V38.8z M221.4,18.7c0-0.9,0.4-1.7,1.3-2.6c0-0.1,0.3-0.4,0.9-1c1.1-1,1.7-1.5,1.9-1.6
			c0.4,0.4,0.6,1.1,0.7,2c2.4-0.6,4.4-0.9,6.1-1c-0.2-0.1-0.3-0.2-0.4-0.4c-0.3,0-0.7-0.2-1.2-0.6c-0.1-0.1-0.2-0.1-0.3-0.1
			c-0.6-0.2-1.1-0.3-1.6-0.3c-0.4,0-0.9,0-1.4,0.1c-0.6,0-1,0-1.3,0c0.1-0.2,0.9-0.3,2.5-0.4c1.2,0,2,0,2.6-0.1c0.1,0,0.1,0,0.1-0.1
			c-0.1-0.5-0.6-1.3-1.6-2.5c-0.6-0.6-0.9-0.9-0.9-1c-0.1,0-0.1-0.1-0.1-0.3c0-0.2,0.1-0.3,0.3-0.3v0.1c0.1,0,0.4,0,0.9,0.1h0.4
			c0.1,0,0.5,0.2,1.2,0.6c1.6,1.5,2.5,2.8,2.6,3.8c-0.1,0.2-0.1,0.4-0.1,0.6c0.1,0.5,0.3,0.7,0.6,0.6c0.3,0,0.8,0,1.4-0.1
			c0.6,0,1,0,1.3,0c2.6-0.1,4.8,0.3,6.7,1.2c0.7,0.5,1,0.9,0.9,1.2c0,0.4-0.1,0.6-0.3,0.7c-0.7,0.4-1.2,0.7-1.6,1
			c-0.9,0.3-1.9,0.5-3,0.6c-0.2-0.1-0.3-0.1-0.4-0.1c-0.3,0-0.5,0-0.6,0.1h-0.3c0.2-0.4,0.7-0.9,1.6-1.6l0.1-0.1
			c0.1-0.1,0.4-0.3,0.9-0.6c0.2-0.1,0.3-0.2,0.4-0.3c0.3-0.3,0.2-0.5-0.1-0.6c-0.9-0.4-2.4-0.6-4.6-0.6c-2.1,0-4.8,0.3-8,1
			c-1,0.1-1.9,0.2-2.8,0.4c-0.1,0.2-0.3,0.5-0.6,0.9c-0.3,0.4-0.5,0.7-0.6,0.9h0.6l-0.1,0.1c-0.1,0-0.2,0.1-0.4,0.3l-0.3,0.3
			c-0.2,0.1-0.3,0.2-0.4,0.3c-0.1,0.1-0.2,0.2-0.3,0.3c-0.1,0.3-0.3,0.4-0.7,0.4c-0.1,0-0.2,0-0.3,0h-0.3c-0.1,0.1-0.2,0.1-0.3,0.1
			C222,20,221.7,19.6,221.4,18.7z M225.3,23.3c0-0.5,0.4-1,1.2-1.6c1.7-1.6,2.8-2.9,3-3.9c0-0.1,0-0.2,0-0.3l-0.1-0.3v-0.1
			c0-0.3,0.1-0.4,0.3-0.4c0.1,0,0.5,0.4,1.3,1.3c0.3,0.4,0.5,0.6,0.6,0.7c0.2,0.7,0.2,1.3,0,1.7c-0.8,0.9-1.7,1.6-2.9,2.3
			c-0.1,0-0.2,0-0.3,0.1l-0.1-0.1c-0.1,0-0.2,0-0.3,0c-0.1,0-0.3,0.1-0.7,0.4c-0.4,0.3-0.7,0.4-0.9,0.4c0-0.1-0.1-0.1-0.3-0.1
			C225.9,23.4,225.7,23.3,225.3,23.3z M237.5,21.2h-0.6l-0.1-0.1c-0.1-0.2-0.4-0.3-0.9-0.3c0.1,0,0.1-0.1,0.1-0.3h0.1v-0.1
			c0-0.4-0.3-0.9-0.9-1.4c-0.3-0.3-0.6-0.6-0.9-0.9c-0.2-0.2-0.3-0.4-0.3-0.6c0-0.2,0.1-0.3,0.4-0.3c0.9,0,1.9,0.6,3.2,1.9
			c0.6,0.8,0.9,1.5,0.9,2.2v0.1l-0.1-0.1c0-0.1,0-0.1-0.1-0.1h-0.1c-0.1,0-0.2,0-0.3,0.1c0,0.1,0,0.2,0,0.3v0.1v-0.1
			c0-0.1,0-0.1-0.1-0.1C237.7,21.2,237.6,21.2,237.5,21.2z"/>
		<path class="st0" d="M253.6,41.2c-0.6-0.1-0.9-1.5-1-4.2c0.2-4.1,0.4-8.4,0.7-13.2c0-2.5,0.2-5.1,0.7-7.7c0-0.2,0-0.5,0.1-1
			c0.1-0.4,0.1-0.6,0.1-0.7c-0.1,0-0.2,0-0.4,0c-0.2,0.1-0.4,0.1-0.6,0.1c-2-0.1-3.1-0.5-3.2-1.2c0-0.3,0.2-0.4,0.6-0.4
			c1.8-0.5,3.4-1,4.8-1.6c0.2-0.1,0.5-0.2,0.9-0.4c1.2-0.7,2-1.1,2.6-1.2c1.3-0.2,2,0.2,2.2,1.2c0,1.2-0.7,3.2-2.2,6.1
			c0,0.1,0,0.2-0.1,0.4c-0.1,0.2-0.1,0.4-0.1,0.6c0,0.2,0.2,0.7,0.6,1.4c0.7,1.1,1.1,2,1.3,2.8c0.1,0.4,0.1,1.1,0.1,2.2
			c-0.1,1.5-0.6,2.4-1.6,2.5c-1,0-1.9-0.5-2.9-1.4c-0.2-0.2-0.3-0.3-0.4-0.4l-0.1-0.1c-0.1-0.2-0.2-0.3-0.3-0.3c0,4.4,0,8.7,0,12.9
			c0.2,1.5,0,2.6-0.4,3.2C254.6,41.1,254.1,41.3,253.6,41.2z M255.3,21.6v0.3c0,0.1,0,0.2,0,0.4c0,0.6,0.3,1,1,1.2
			c0.8,0.4,1.3,0.6,1.4,0.6c0.4,0,0.6-0.4,0.6-1.3c0.1-1-0.1-2.1-0.7-3.5c-0.1-0.2-0.2-0.5-0.3-0.9c-0.2-0.4-0.3-0.8-0.4-1.2
			c0.6-2.4,1-4,1.3-4.6H258c-0.3,0.2-0.8,0.5-1.4,0.9c-0.5,0.2-0.8,0.3-1,0.4c0.1,0.3,0.1,0.6,0.1,1c0,0.2,0,0.5,0,1
			c-0.1,0.5-0.1,0.9-0.1,1.2C255.4,18.6,255.3,20.1,255.3,21.6z M260.4,20.3c-0.4-0.1-0.7-0.5-1-1.2c-0.1-0.2-0.1-0.3-0.1-0.4
			c0-0.2,0.2-0.5,0.7-1c1-1,1.7-1.9,2.3-2.8c0.7-1.1,1.2-1.6,1.4-1.7c0.3,0,0.5,0.4,0.6,1.3c0,0.1,0,0.2,0,0.4
			c-0.1,0.3-0.1,0.5-0.1,0.6c1.3-0.3,2.4-0.6,3.5-1l-0.1-0.1c-0.2,0-0.2,0-0.1-0.1c0-0.1,0.1-0.1,0.3-0.1c0.1-0.1,0.1-0.2,0.1-0.3
			c0-0.9-0.6-2.1-1.9-3.8c-0.2-0.3-0.3-0.6-0.3-0.9c0.4-0.3,1.2,0,2.5,0.7c1,0.8,1.7,2.2,2.2,4.2c0.3,0,0.7,0,1.3-0.1
			c1.6-0.2,2.8-0.3,3.6-0.3c1.2,0,2.3,0.2,3.3,0.6c0.7,0.6,1.1,1.1,1.2,1.4c0,0.4,0,0.6-0.1,0.7c-0.5,0.5-2,1.2-4.6,2.2v-0.3
			c0-0.1,0-0.1-0.1-0.1h-0.1l-0.1,0.1c0,0.1,0,0.1-0.1,0.1l-0.1-0.1c0-0.1,0-0.1-0.1-0.1c-0.2,0-0.6,0.1-1.3,0.4
			c-0.4,0.2-0.6,0.3-0.7,0.3h-0.1c0.1-0.2,1.1-1,2.9-2.5c1.1-0.8,1.7-1.3,1.9-1.4c-0.4-0.2-0.9-0.2-1.6-0.1c-0.3,0-0.5,0-0.6,0
			c-1.4,0-2.9,0.1-4.3,0.4c-0.4,0.2-0.9,0.2-1.4,0.1c-3.2,0.7-5,1.4-5.5,2.2c-0.1,0-0.1,0-0.1,0.1l-0.1,0.1
			C262,19.4,261.1,20.2,260.4,20.3z M259.6,36.8l0.1-0.1v-0.3c0-0.1,0-0.2-0.1-0.3c-0.1-0.1-0.1-0.2-0.1-0.3v-0.3
			c0.2-0.2,0.5-0.5,1-1c0.8-0.7,1.4-1.2,1.7-1.6c1.8-2.3,3.3-4.7,4.3-7.1c-1.7,1-3.4,1.4-4.9,1.4c-0.4,0-0.6-0.1-0.7-0.4
			c0-0.2,0-0.3,0-0.4c-0.1-0.1-0.2-0.2-0.3-0.3c0-0.4,0.3-0.7,0.9-1c0.3-0.1,0.5-0.2,0.6-0.3c0.7-0.6,1.3-1.1,1.9-1.6
			c0.1-0.1,0.3-0.2,0.6-0.4c0.6-0.4,1.1-0.9,1.6-1.6c0.1-0.1,0.2-0.2,0.3-0.3l0.3-0.1l-0.1-0.1h-0.1c-0.1,0-0.2,0-0.3,0
			c-1-0.1-1.4-0.5-1.4-1.3c0-0.4,0.2-0.6,0.7-0.6c0.2,0,0.4,0,0.6,0c0.3,0.1,0.5,0.1,0.6,0.1c0.5,0,1.1-0.1,1.9-0.3
			c0.8-0.2,1.4-0.3,1.7-0.3c0.8-0.1,1.1,0.3,1,1.2c-0.3,0.4-1,0.8-2,1.2c0-0.1,0-0.1-0.1-0.1c-0.1,0-0.3,0-0.7,0.1
			c-0.4,0.2-0.6,0.3-0.7,0.3c-0.1,0.1-0.4,0.2-0.9,0.4c-0.1,0-0.2,0-0.4,0.1l-0.1,0.1c-0.6,0.6-1.1,1.1-1.6,1.6
			c-0.1,0.1-0.3,0.2-0.6,0.4c-0.6,0.5-0.9,0.8-0.9,0.9h0.1c0,0.1,0,0.1-0.1,0.1c-0.1,0.1-0.1,0.2-0.1,0.4c0.8,0.1,3.1-0.8,7.1-2.6
			c0.8-0.5,1.5-0.5,2.2,0c0.5,0.3,0.8,0.6,0.9,0.9c0,0.8-0.8,1.2-2.5,1.2h-0.1c-0.7,0.1-1.2,0.2-1.4,0.4c-0.4,0.4-0.8,1.1-1.3,2
			c-0.2,0.3-0.3,0.5-0.4,0.7c-0.7,1.7-1.6,3.5-2.8,5.2c-0.1,0.1-0.2,0.3-0.4,0.6c-1.2,1.8-2.2,3-3.2,3.5c-0.1,0-0.2,0-0.4,0
			C260,37,259.7,36.9,259.6,36.8z M267.3,34.1c0-0.1,0-0.2,0.1-0.4v-0.3c0.5-2,0.9-4,1.3-5.9c0-0.3,0-0.5,0-0.7
			c0.9-0.1,1.3,0.4,1.2,1.6c-0.1,0.3-0.2,0.7-0.3,1.3c-0.5,1.9-0.8,3.4-0.9,4.5c-0.2,1.5,0.9,2.5,3.3,2.8c2.8,0.1,4.9-0.2,6.2-1
			c0.6-0.3,1-1.1,1.2-2.5c0-0.2,0-0.3,0-0.4v-0.3c-0.1-1.4-0.1-2.3,0-2.5c0.1-0.2,0.2-0.2,0.3,0c0,0.2,0.2,0.7,0.7,1.4
			c0.1,0.1,0.1,0.2,0.1,0.3c0.1,0.3,0.2,0.6,0.3,1c0.3,1.2,0.4,2.1,0.4,2.8c0,0.7-0.1,1.1-0.3,1.2c-0.2,0.1-0.4,0.1-0.6,0.1
			c-0.2,0.1-0.4,0.2-0.6,0.3c-2.1,0.5-4.3,0.7-6.7,0.7c-2.7-0.2-4.5-0.7-5.4-1.6C267.5,35.9,267.3,35.1,267.3,34.1z"/>
	</g>
	<g>
		<g>
			<path class="st1" d="M5.5,53L5.5,53l0-0.2l0,0c0.2,0,0.3,0,0.3,0c0,0,0.1,0,0.1-0.1c0,0,0.1-0.2,0.2-0.4l0.4-0.8l0.9-2.1
				c0.2-0.4,0.3-0.8,0.5-1.2h0.2l1.4,3.4L9.8,52c0.1,0.1,0.1,0.3,0.2,0.4c0.1,0.2,0.1,0.2,0.2,0.3c0,0,0.1,0,0.1,0.1
				c0,0,0.1,0,0.3,0l0,0V53l0,0c-0.2,0-0.5,0-0.6,0c-0.4,0-0.7,0-1.1,0l0,0v-0.2l0,0c0.3,0,0.4,0,0.5,0c0.1,0,0.1-0.1,0.1-0.1
				c0,0,0-0.1,0-0.2l-0.4-1h-2l-0.4,0.9c-0.1,0.2-0.1,0.3-0.1,0.3c0,0.1,0,0.1,0.1,0.1c0.1,0,0.2,0,0.5,0l0,0V53l0,0
				c-0.3,0-0.5,0-0.8,0C6,53,5.7,53,5.5,53z M7,51.2h1.7l-0.8-2L7,51.2z"/>
			<path class="st1" d="M11,48.3L11,48.3c0.4,0,0.7,0,0.8,0l1.6,0c0.5,0,0.8,0,1.1,0.1c0.3,0.1,0.5,0.2,0.8,0.4
				c0.2,0.2,0.4,0.5,0.5,0.7c0.1,0.3,0.2,0.6,0.2,0.9c0,0.3-0.1,0.6-0.2,0.9s-0.3,0.6-0.5,0.8c-0.2,0.2-0.4,0.4-0.7,0.6
				c-0.2,0.1-0.5,0.2-0.7,0.3c-0.3,0-0.5,0.1-0.8,0.1c-0.2,0-0.5,0-1,0c-0.2,0-0.3,0-0.3,0c-0.2,0-0.3,0-0.6,0l0,0v-0.1l0,0
				c0.1-0.1,0.2-0.1,0.2-0.1c0,0,0-0.2,0-0.6c0-0.4,0-0.7,0-0.9v-1.2l0-0.8c0-0.2,0-0.3,0-0.4c0-0.1,0-0.2,0-0.2c0,0,0-0.1,0-0.1
				c0,0,0,0-0.1,0c0,0-0.1,0-0.2,0l-0.3,0l0,0V48.3z M12.2,52.7c0.2,0,0.5,0.1,0.8,0.1c0.5,0,0.9-0.1,1.3-0.3
				c0.3-0.2,0.5-0.4,0.7-0.8c0.2-0.3,0.2-0.7,0.2-1.2c0-0.6-0.2-1.1-0.5-1.5c-0.3-0.4-0.9-0.5-1.6-0.5c-0.3,0-0.6,0-0.9,0.1
				c0,0.4,0,0.8,0,1.3v1.1l0,1C12.2,52.1,12.2,52.4,12.2,52.7z"/>
			<path class="st1" d="M18.7,53.1c0-0.1-0.2-0.5-0.4-1.1l-1.2-2.8c-0.1-0.3-0.2-0.5-0.2-0.6c0,0-0.2-0.1-0.4-0.1l0,0v-0.2l0,0
				c0.3,0,0.6,0,0.9,0c0.2,0,0.5,0,0.9,0l0,0v0.2l0,0c-0.3,0-0.4,0-0.5,0c-0.1,0-0.1,0-0.1,0.1c0,0,0,0.1,0.1,0.4
				c0.1,0.2,0.1,0.4,0.2,0.5l1.1,2.7l0.9-2.2c0.1-0.2,0.2-0.4,0.3-0.7c0.1-0.3,0.2-0.5,0.2-0.6c0-0.1,0-0.1-0.1-0.1
				c-0.1,0-0.2,0-0.5-0.1l0,0v-0.2l0,0c0.4,0,0.6,0,0.8,0c0.1,0,0.3,0,0.7,0l0,0v0.2l0,0c-0.2,0-0.3,0-0.3,0c0,0-0.1,0.1-0.1,0.1
				c0,0.1-0.1,0.2-0.2,0.5l-1.1,2.6c-0.2,0.6-0.4,1-0.5,1.4H18.7z"/>
			<path class="st1" d="M21,53L21,53l0-0.2l0,0c0.2,0,0.3,0,0.3,0c0,0,0.1,0,0.1-0.1c0,0,0.1-0.2,0.2-0.4l0.4-0.8l0.9-2.1
				c0.2-0.4,0.3-0.8,0.5-1.2h0.2l1.4,3.4l0.2,0.5c0.1,0.1,0.1,0.3,0.2,0.4c0.1,0.2,0.1,0.2,0.2,0.3c0,0,0.1,0,0.1,0.1
				c0,0,0.1,0,0.3,0l0,0V53l0,0c-0.2,0-0.5,0-0.6,0c-0.4,0-0.7,0-1.1,0l0,0v-0.2l0,0c0.3,0,0.4,0,0.5,0c0.1,0,0.1-0.1,0.1-0.1
				c0,0,0-0.1,0-0.2l-0.4-1h-2l-0.4,0.9C22,52.5,22,52.6,22,52.6c0,0.1,0,0.1,0.1,0.1c0.1,0,0.2,0,0.5,0l0,0V53l0,0
				c-0.3,0-0.5,0-0.8,0C21.5,53,21.2,53,21,53z M22.5,51.2h1.7l-0.8-2L22.5,51.2z"/>
			<path class="st1" d="M26.6,53L26.6,53l0-0.2l0,0c0.1,0,0.2,0,0.3,0c0.1,0,0.1,0,0.2-0.1c0,0,0-0.1,0-0.2c0-0.1,0-0.2,0-0.5
				s0-0.4,0-0.5v-2.7c0-0.1,0-0.2-0.1-0.3c0-0.1-0.1-0.1-0.2-0.1c-0.1,0-0.2,0-0.4,0l0,0v-0.2l0,0c0.3,0,0.5,0,0.6,0
				c0.2,0,0.4,0,0.6,0l1.1,1.4l1.6,2c0.2,0.2,0.4,0.5,0.6,0.7v-2.6c0-0.1,0-0.3,0-0.5c0-0.3,0-0.4,0-0.5c0-0.1,0-0.1-0.1-0.1
				c0,0-0.1,0-0.2-0.1c-0.1,0-0.2,0-0.3,0l0,0v-0.2l0,0c0.2,0,0.4,0,0.8,0c0.3,0,0.5,0,0.7,0l0,0v0.2l0,0c-0.1,0-0.3,0-0.3,0
				c-0.1,0-0.1,0-0.2,0.1c0,0,0,0.1,0,0.1c0,0.1,0,0.2,0,0.5c0,0.2,0,0.4,0,0.5v1.6l0,0.9c0,0.3,0,0.6,0,0.9c-0.1,0-0.3-0.1-0.6-0.1
				l-0.2-0.3l-0.7-0.9L27.5,49v2.6c0,0.1,0,0.3,0,0.6c0,0.3,0,0.4,0,0.5c0,0.1,0,0.1,0,0.1c0,0,0.1,0,0.1,0.1c0.1,0,0.2,0,0.4,0l0,0
				V53l0,0c-0.1,0-0.3,0-0.6,0C27.1,53,26.8,53,26.6,53z"/>
			<path class="st1" d="M37,52.4l-0.1,0.3c-0.5,0.3-1,0.4-1.6,0.4c-0.8,0-1.5-0.2-2-0.7c-0.5-0.5-0.8-1.1-0.8-1.8
				c0-0.5,0.1-1,0.4-1.3c0.3-0.4,0.6-0.7,1-0.9c0.4-0.2,0.9-0.3,1.4-0.3c0.3,0,0.6,0,0.9,0.1c0.3,0.1,0.5,0.1,0.7,0.2l0,0
				c-0.1,0.1-0.1,0.4-0.1,0.9l0,0h-0.2l0,0l0-0.6c-0.2-0.1-0.4-0.2-0.6-0.3c-0.2-0.1-0.5-0.1-0.7-0.1c-0.4,0-0.7,0.1-1,0.2
				c-0.3,0.2-0.5,0.4-0.7,0.7c-0.2,0.3-0.3,0.7-0.3,1.1c0,0.5,0.1,0.8,0.3,1.2c0.2,0.3,0.5,0.6,0.8,0.8c0.3,0.2,0.7,0.3,1.2,0.3
				c0.2,0,0.4,0,0.6-0.1c0.2,0,0.3-0.1,0.5-0.1C36.7,52.5,36.8,52.5,37,52.4L37,52.4z"/>
			<path class="st1" d="M37.6,48.3L37.6,48.3c0.8,0,1.3,0,1.5,0c0.7,0,1.4,0,2,0l0,0c-0.1,0.2-0.1,0.6-0.1,1l0,0h-0.2l0,0
				c0,0,0,0,0-0.1c0-0.2,0-0.4,0-0.5c-0.1-0.1-0.3-0.1-0.6-0.1c-0.3,0-0.4,0-0.6,0c-0.2,0-0.4,0-0.7,0l0,0.5l0,0.6l0,0.7
				c0.2,0,0.5,0,0.7,0c0.2,0,0.4,0,0.5,0c0.1,0,0.2,0,0.2,0c0,0,0,0,0.1-0.1c0,0,0-0.1,0-0.2l0-0.2l0,0h0.2l0,0c0,0.2,0,0.5,0,0.7
				l0,0.8l0,0h-0.2l0,0l0-0.2c0-0.2,0-0.3,0-0.3c0,0,0-0.1-0.1-0.1c0,0-0.1,0-0.3-0.1s-0.3,0-0.6,0c-0.1,0-0.3,0-0.6,0
				c0,0.2,0,0.5,0,0.9c0,0.5,0,0.8,0,1h0.6c0.5,0,0.9,0,1,0c0.1,0,0.3,0,0.4-0.1c0-0.1,0.1-0.2,0.1-0.4c0-0.2,0.1-0.3,0.1-0.4l0,0
				h0.2l0,0c0,0.1,0,0.3-0.1,0.5c0,0.2,0,0.4,0,0.6l0,0c-0.4,0-1,0-1.7,0l-0.9,0c-0.2,0-0.4,0-0.7,0l0,0v-0.1l0,0
				c0.1-0.1,0.2-0.1,0.2-0.1c0,0,0-0.2,0-0.6c0-0.4,0-0.7,0-0.9v-1.2l0-0.8c0-0.2,0-0.3,0-0.4c0-0.1,0-0.2,0-0.2c0,0,0-0.1,0-0.1
				c0,0,0,0-0.1,0c0,0-0.1,0-0.2,0l-0.3,0l0,0V48.3z"/>
			<path class="st1" d="M41.8,48.3L41.8,48.3c0.4,0,0.7,0,0.8,0l1.6,0c0.5,0,0.8,0,1.1,0.1c0.3,0.1,0.5,0.2,0.8,0.4
				c0.2,0.2,0.4,0.5,0.5,0.7c0.1,0.3,0.2,0.6,0.2,0.9c0,0.3-0.1,0.6-0.2,0.9c-0.1,0.3-0.3,0.6-0.5,0.8c-0.2,0.2-0.4,0.4-0.7,0.6
				c-0.2,0.1-0.5,0.2-0.7,0.3C44.5,53,44.2,53,44,53c-0.2,0-0.5,0-1,0c-0.2,0-0.3,0-0.3,0c-0.2,0-0.3,0-0.6,0l0,0v-0.1l0,0
				c0.1-0.1,0.2-0.1,0.2-0.1c0,0,0-0.2,0-0.6c0-0.4,0-0.7,0-0.9v-1.2l0-0.8c0-0.2,0-0.3,0-0.4c0-0.1,0-0.2,0-0.2c0,0,0-0.1,0-0.1
				c0,0,0,0-0.1,0c0,0-0.1,0-0.2,0l-0.3,0l0,0V48.3z M43.1,52.7c0.2,0,0.5,0.1,0.8,0.1c0.5,0,0.9-0.1,1.3-0.3
				c0.3-0.2,0.5-0.4,0.7-0.8C46,51.4,46,51,46,50.5c0-0.6-0.2-1.1-0.5-1.5c-0.3-0.4-0.9-0.5-1.6-0.5c-0.3,0-0.6,0-0.9,0.1
				c0,0.4,0,0.8,0,1.3v1.1l0,1C43,52.1,43,52.4,43.1,52.7z"/>
			<path class="st1" d="M49.3,48.2l0.4,0c0.3,0,0.5,0,0.5,0c0.1,0,0.4,0,1,0l0,0v0.2l0,0c-0.2,0-0.3,0-0.4,0c-0.1,0-0.1,0-0.2,0.1
				c0,0-0.1,0.1-0.1,0.2c0,0.1,0,0.2,0,0.4l0,0.8v1.6l0,0.7c0,0.3,0,0.4,0,0.5c0,0.1,0,0.1,0,0.1c0,0,0.1,0,0.1,0.1
				c0.1,0,0.2,0,0.5,0l0,0V53l0,0c0,0-0.2,0-0.6,0c-0.2,0-0.3,0-0.4,0c-0.1,0-0.4,0-1,0l0,0v-0.2l0,0c0.2,0,0.3,0,0.4,0
				c0.1,0,0.1,0,0.1-0.1c0,0,0-0.1,0.1-0.1c0-0.1,0-0.2,0-0.5l0-0.7v-1.6l0-0.7c0-0.3,0-0.4,0-0.5c0-0.1,0-0.1,0-0.1
				c0,0-0.1,0-0.1-0.1c-0.1,0-0.2,0-0.5,0l0,0L49.3,48.2L49.3,48.2z"/>
			<path class="st1" d="M51.8,53L51.8,53l0-0.2l0,0c0.1,0,0.2,0,0.3,0c0.1,0,0.1,0,0.2-0.1c0,0,0-0.1,0-0.2c0-0.1,0-0.2,0-0.5
				s0-0.4,0-0.5v-2.7c0-0.1,0-0.2-0.1-0.3c0-0.1-0.1-0.1-0.2-0.1c-0.1,0-0.2,0-0.4,0l0,0v-0.2l0,0c0.3,0,0.5,0,0.6,0
				c0.2,0,0.4,0,0.6,0l1.1,1.4l1.6,2c0.2,0.2,0.4,0.5,0.6,0.7v-2.6c0-0.1,0-0.3,0-0.5c0-0.3,0-0.4,0-0.5c0-0.1,0-0.1-0.1-0.1
				c0,0-0.1,0-0.2-0.1s-0.2,0-0.3,0l0,0v-0.2l0,0c0.2,0,0.4,0,0.8,0c0.3,0,0.5,0,0.7,0l0,0v0.2l0,0c-0.1,0-0.3,0-0.3,0
				c-0.1,0-0.1,0-0.2,0.1c0,0,0,0.1,0,0.1c0,0.1,0,0.2,0,0.5c0,0.2,0,0.4,0,0.5v1.6l0,0.9c0,0.3,0,0.6,0,0.9c-0.1,0-0.3-0.1-0.6-0.1
				l-0.2-0.3l-0.7-0.9L52.6,49v2.6c0,0.1,0,0.3,0,0.6c0,0.3,0,0.4,0,0.5c0,0.1,0,0.1,0,0.1c0,0,0.1,0,0.1,0.1c0.1,0,0.2,0,0.4,0l0,0
				V53l0,0c-0.1,0-0.3,0-0.6,0C52.3,53,52,53,51.8,53z"/>
			<path class="st1" d="M57.7,51.9L57.7,51.9l0.2,0l0,0c0,0.3,0,0.5,0,0.5c0,0.1,0.1,0.1,0.2,0.2c0.1,0.1,0.2,0.1,0.4,0.2
				c0.2,0,0.3,0.1,0.5,0.1c0.2,0,0.5,0,0.6-0.1c0.2-0.1,0.3-0.2,0.4-0.4c0.1-0.2,0.2-0.4,0.2-0.6c0-0.1,0-0.3-0.1-0.4
				c-0.1-0.1-0.1-0.2-0.2-0.3C60,51,59.8,51,59.7,50.9c-0.1,0-0.3-0.1-0.5-0.1c-0.2,0-0.4-0.1-0.5-0.1c-0.1,0-0.3-0.1-0.4-0.1
				c-0.1-0.1-0.2-0.1-0.3-0.2c-0.1-0.1-0.2-0.2-0.2-0.3c-0.1-0.1-0.1-0.3-0.1-0.4c0-0.4,0.1-0.8,0.4-1c0.3-0.3,0.7-0.4,1.2-0.4
				c0.2,0,0.4,0,0.6,0.1c0.2,0,0.4,0.1,0.6,0.2l0,0c0,0.2-0.1,0.5-0.1,0.9l0,0h-0.2l0,0c0-0.3,0-0.4,0-0.5c0-0.1-0.1-0.2-0.3-0.3
				c-0.2-0.1-0.4-0.2-0.6-0.2c-0.2,0-0.4,0-0.5,0.1c-0.2,0.1-0.3,0.2-0.4,0.4c-0.1,0.2-0.1,0.3-0.1,0.5c0,0.1,0,0.3,0.1,0.4
				c0.1,0.1,0.1,0.2,0.2,0.2c0.1,0.1,0.2,0.1,0.3,0.1c0.1,0,0.3,0.1,0.6,0.1c0.4,0.1,0.7,0.1,0.9,0.2c0.2,0.1,0.3,0.2,0.4,0.4
				c0.1,0.2,0.2,0.4,0.2,0.6c0,0.5-0.2,0.9-0.6,1.2c-0.4,0.3-0.9,0.5-1.4,0.5c-0.5,0-0.9-0.1-1.2-0.3l0,0
				C57.7,52.7,57.7,52.4,57.7,51.9z"/>
			<path class="st1" d="M65.3,48.2L65.3,48.2c0,0.2,0,0.6,0,1.1l0,0h-0.2l0,0l0-0.3c0-0.2,0-0.3,0-0.3c0,0,0-0.1,0-0.1
				c0,0-0.1,0-0.2,0c-0.1,0-0.3,0-0.4,0h-0.6c0,0.5,0,0.8,0,0.9v2l0,0.7c0,0.3,0,0.4,0,0.5c0,0.1,0,0.1,0,0.1c0,0,0.1,0,0.1,0.1
				c0.1,0,0.2,0,0.5,0l0,0V53l0,0c-0.6,0-0.9,0-1,0c-0.1,0-0.4,0-1,0l0,0v-0.2l0,0c0.2,0,0.4,0,0.4,0c0.1,0,0.1,0,0.1-0.1
				c0,0,0-0.1,0.1-0.1s0-0.2,0-0.5l0-0.7v-2c0,0,0-0.3,0-0.9h-0.5c-0.2,0-0.4,0-0.5,0c-0.2,0-0.2,0-0.3,0.1c0,0,0,0.2-0.1,0.4l0,0.3
				l0,0h-0.2l0,0c0-0.5,0-0.9,0-1.1l0,0c0.4,0,1,0,2,0C64.3,48.3,64.9,48.3,65.3,48.2z"/>
			<path class="st1" d="M65.8,48.2l0.4,0c0.3,0,0.5,0,0.5,0c0.1,0,0.4,0,1,0l0,0v0.2l0,0c-0.2,0-0.3,0-0.4,0c-0.1,0-0.1,0-0.2,0.1
				c0,0-0.1,0.1-0.1,0.2c0,0.1,0,0.2,0,0.4l0,0.8v1.6l0,0.7c0,0.3,0,0.4,0,0.5c0,0.1,0,0.1,0,0.1c0,0,0.1,0,0.1,0.1
				c0.1,0,0.2,0,0.5,0l0,0V53l0,0c0,0-0.2,0-0.6,0c-0.2,0-0.3,0-0.4,0c-0.1,0-0.4,0-1,0l0,0v-0.2l0,0c0.2,0,0.3,0,0.4,0
				c0.1,0,0.1,0,0.1-0.1c0,0,0-0.1,0.1-0.1c0-0.1,0-0.2,0-0.5l0-0.7v-1.6l0-0.7c0-0.3,0-0.4,0-0.5c0-0.1,0-0.1,0-0.1
				c0,0-0.1,0-0.1-0.1c-0.1,0-0.2,0-0.5,0l0,0L65.8,48.2L65.8,48.2z"/>
			<path class="st1" d="M72.2,48.2L72.2,48.2c0,0.2,0,0.6,0,1.1l0,0H72l0,0l0-0.3c0-0.2,0-0.3,0-0.3c0,0,0-0.1,0-0.1
				c0,0-0.1,0-0.2,0c-0.1,0-0.3,0-0.4,0h-0.6c0,0.5,0,0.8,0,0.9v2l0,0.7c0,0.3,0,0.4,0,0.5c0,0.1,0,0.1,0,0.1c0,0,0.1,0,0.1,0.1
				c0.1,0,0.2,0,0.5,0l0,0V53l0,0c-0.6,0-0.9,0-1,0c-0.1,0-0.4,0-1,0l0,0v-0.2l0,0c0.2,0,0.4,0,0.4,0c0.1,0,0.1,0,0.1-0.1
				c0,0,0-0.1,0.1-0.1c0-0.1,0-0.2,0-0.5l0-0.7v-2c0,0,0-0.3,0-0.9h-0.5c-0.2,0-0.4,0-0.5,0c-0.2,0-0.2,0-0.3,0.1c0,0,0,0.2-0.1,0.4
				l0,0.3l0,0h-0.2l0,0c0-0.5,0-0.9,0-1.1l0,0c0.4,0,1,0,2,0C71.1,48.3,71.8,48.3,72.2,48.2z"/>
			<path class="st1" d="M72.6,48.3L72.6,48.3c0.6,0,0.9,0,1,0c0.1,0,0.4,0,1,0l0,0v0.2l0,0c-0.2,0-0.3,0-0.4,0c-0.1,0-0.1,0-0.2,0.1
				c0,0-0.1,0.1-0.1,0.2c0,0.1,0,0.2,0,0.4l0,0.8v1.1c0,0.4,0,0.6,0,0.8c0,0.2,0,0.3,0.1,0.4c0,0.1,0.1,0.2,0.2,0.3
				c0.1,0.1,0.2,0.1,0.4,0.2c0.2,0.1,0.4,0.1,0.6,0.1c0.2,0,0.5,0,0.7-0.1c0.2-0.1,0.4-0.2,0.5-0.3c0.1-0.1,0.2-0.3,0.2-0.5
				c0-0.2,0.1-0.5,0.1-0.9v-1c0-0.2,0-0.4,0-0.7s0-0.5,0-0.5c0,0-0.1-0.1-0.1-0.1c-0.1,0-0.2,0-0.5,0l0,0v-0.2l0,0
				c0.3,0,0.6,0,0.8,0c0.2,0,0.4,0,0.8,0l0,0v0.2l0,0c-0.2,0-0.4,0-0.4,0c-0.1,0-0.1,0-0.1,0.1c0,0,0,0.1-0.1,0.1c0,0.1,0,0.2,0,0.4
				l0,0.8v1c0,0.4,0,0.7,0,1c0,0.2-0.1,0.4-0.2,0.6c-0.1,0.2-0.2,0.3-0.4,0.4c-0.2,0.1-0.3,0.2-0.6,0.2c-0.2,0.1-0.5,0.1-0.7,0.1
				c-0.3,0-0.6,0-0.8-0.1c-0.2-0.1-0.4-0.2-0.6-0.3c-0.1-0.1-0.2-0.2-0.3-0.4c-0.1-0.1-0.1-0.3-0.1-0.4c0-0.2,0-0.4,0-0.8v-1.3
				l0-0.7c0-0.3,0-0.4,0-0.5c0-0.1,0-0.1,0-0.1c0,0-0.1,0-0.1-0.1c-0.1,0-0.2,0-0.5,0l0,0V48.3z"/>
			<path class="st1" d="M82.1,48.2L82.1,48.2c0,0.2,0,0.6,0,1.1l0,0h-0.2l0,0l0-0.3c0-0.2,0-0.3,0-0.3c0,0,0-0.1,0-0.1
				c0,0-0.1,0-0.2,0c-0.1,0-0.3,0-0.4,0h-0.6c0,0.5,0,0.8,0,0.9v2l0,0.7c0,0.3,0,0.4,0,0.5c0,0.1,0,0.1,0,0.1c0,0,0.1,0,0.1,0.1
				c0.1,0,0.2,0,0.5,0l0,0V53l0,0c-0.6,0-0.9,0-1,0c-0.1,0-0.4,0-1,0l0,0v-0.2l0,0c0.2,0,0.4,0,0.4,0c0.1,0,0.1,0,0.1-0.1
				c0,0,0-0.1,0.1-0.1c0-0.1,0-0.2,0-0.5l0-0.7v-2c0,0,0-0.3,0-0.9h-0.5c-0.2,0-0.4,0-0.5,0c-0.2,0-0.2,0-0.3,0.1c0,0,0,0.2-0.1,0.4
				l0,0.3l0,0h-0.2l0,0c0-0.5,0-0.9,0-1.1l0,0c0.4,0,1,0,2,0C81,48.3,81.7,48.3,82.1,48.2z"/>
			<path class="st1" d="M82.6,48.3L82.6,48.3c0.8,0,1.3,0,1.5,0c0.7,0,1.4,0,2,0l0,0c-0.1,0.2-0.1,0.6-0.1,1l0,0h-0.2l0,0
				c0,0,0,0,0-0.1c0-0.2,0-0.4,0-0.5c-0.1-0.1-0.3-0.1-0.6-0.1c-0.3,0-0.4,0-0.6,0c-0.2,0-0.4,0-0.7,0l0,0.5l0,0.6l0,0.7
				c0.2,0,0.5,0,0.7,0c0.2,0,0.4,0,0.5,0c0.1,0,0.2,0,0.2,0c0,0,0,0,0.1-0.1c0,0,0-0.1,0-0.2l0-0.2l0,0h0.2l0,0c0,0.2,0,0.5,0,0.7
				l0,0.8l0,0h-0.2l0,0l0-0.2c0-0.2,0-0.3,0-0.3c0,0,0-0.1-0.1-0.1c0,0-0.1,0-0.3-0.1s-0.3,0-0.6,0c-0.1,0-0.3,0-0.6,0
				c0,0.2,0,0.5,0,0.9c0,0.5,0,0.8,0,1h0.6c0.5,0,0.9,0,1,0c0.1,0,0.3,0,0.4-0.1c0-0.1,0.1-0.2,0.1-0.4c0-0.2,0.1-0.3,0.1-0.4l0,0
				h0.2l0,0c0,0.1,0,0.3-0.1,0.5c0,0.2,0,0.4,0,0.6l0,0c-0.4,0-1,0-1.7,0l-0.9,0c-0.2,0-0.4,0-0.7,0l0,0v-0.1l0,0
				c0.1-0.1,0.2-0.1,0.2-0.1c0,0,0-0.2,0-0.6c0-0.4,0-0.7,0-0.9v-1.2l0-0.8c0-0.2,0-0.3,0-0.4c0-0.1,0-0.2,0-0.2c0,0,0-0.1,0-0.1
				c0,0,0,0-0.1,0c0,0-0.1,0-0.2,0l-0.3,0l0,0V48.3z"/>
			<path class="st1" d="M88.8,50.7c0-0.3,0-0.7,0.1-0.9c0.1-0.3,0.3-0.6,0.5-0.8c0.2-0.2,0.5-0.4,0.8-0.6c0.3-0.1,0.7-0.2,1.1-0.2
				c0.8,0,1.4,0.2,1.8,0.6c0.5,0.4,0.7,1,0.7,1.7c0,0.5-0.1,1-0.3,1.4c-0.2,0.4-0.5,0.7-1,0.9c-0.4,0.2-0.9,0.3-1.4,0.3
				c-0.4,0-0.7-0.1-1-0.2c-0.3-0.1-0.6-0.3-0.8-0.5c-0.2-0.2-0.4-0.5-0.5-0.8C88.8,51.2,88.8,51,88.8,50.7z M89.5,50.5
				c0,0.3,0,0.6,0.1,0.9c0.1,0.3,0.2,0.6,0.4,0.8c0.2,0.2,0.4,0.4,0.6,0.5c0.2,0.1,0.5,0.2,0.8,0.2c0.3,0,0.7-0.1,0.9-0.2
				c0.3-0.2,0.5-0.4,0.6-0.7c0.1-0.3,0.2-0.7,0.2-1.1c0-0.5-0.1-0.9-0.2-1.2c-0.2-0.4-0.4-0.6-0.7-0.8c-0.3-0.2-0.6-0.3-1-0.3
				c-0.5,0-1,0.2-1.3,0.5C89.6,49.3,89.5,49.8,89.5,50.5z"/>
			<path class="st1" d="M95.7,50.7v0.7l0,0.7c0,0.2,0,0.4,0,0.5c0,0.1,0,0.1,0,0.2c0,0,0.1,0,0.1,0.1c0.1,0,0.2,0,0.5,0l0,0V53l0,0
				c-0.6,0-0.9,0-1,0c-0.1,0-0.4,0-1,0l0,0v-0.2l0,0c0.2,0,0.4,0,0.4,0c0.1,0,0.1,0,0.1-0.1c0,0,0-0.1,0.1-0.1c0-0.1,0-0.2,0-0.5
				l0-0.7v-1.6l0-0.7c0-0.3,0-0.4,0-0.5c0-0.1,0-0.1,0-0.1c0,0-0.1,0-0.1-0.1c-0.1,0-0.2,0-0.5,0l0,0v-0.2l0,0c1,0,1.5,0,1.7,0
				c0.5,0,1.1,0,1.7,0l0,0c0,0.1-0.1,0.2-0.1,0.4c0,0.1,0,0.3,0,0.6l0,0h-0.2l0,0c0,0,0-0.1,0-0.3c0-0.1,0-0.2-0.1-0.3
				c-0.2-0.1-0.6-0.1-1-0.1c-0.2,0-0.4,0-0.6,0c0,0.2,0,0.6,0,1.3v0.6c0.3,0,0.5,0,0.6,0c0.2,0,0.4,0,0.5,0c0.1,0,0.2,0,0.2,0
				c0,0,0,0,0.1-0.1c0,0,0-0.1,0-0.2l0-0.2l0,0h0.2l0,0l0,0.7c0,0.1,0,0.2,0,0.4c0,0.2,0,0.3,0,0.4l0,0h-0.2l0,0l0-0.3
				c0-0.1,0-0.2,0-0.2c0-0.1,0-0.1-0.1-0.1c0,0-0.1,0-0.2,0c-0.1,0-0.3,0-0.6,0C96,50.7,95.8,50.7,95.7,50.7z"/>
			<path class="st1" d="M100.3,53L100.3,53l0-0.2l0,0c0.1,0,0.2,0,0.3,0c0.1,0,0.1,0,0.2-0.1c0,0,0-0.1,0-0.2c0-0.1,0-0.2,0-0.5
				c0-0.2,0-0.4,0-0.5v-2.7c0-0.1,0-0.2-0.1-0.3c0-0.1-0.1-0.1-0.2-0.1c-0.1,0-0.2,0-0.4,0l0,0v-0.2l0,0c0.3,0,0.5,0,0.6,0
				c0.2,0,0.4,0,0.6,0l1.1,1.4l1.6,2c0.2,0.2,0.4,0.5,0.6,0.7v-2.6c0-0.1,0-0.3,0-0.5c0-0.3,0-0.4,0-0.5c0-0.1,0-0.1-0.1-0.1
				c0,0-0.1,0-0.2-0.1c-0.1,0-0.2,0-0.3,0l0,0v-0.2l0,0c0.2,0,0.4,0,0.8,0c0.3,0,0.5,0,0.7,0l0,0v0.2l0,0c-0.1,0-0.3,0-0.3,0
				c-0.1,0-0.1,0-0.2,0.1c0,0,0,0.1,0,0.1c0,0.1,0,0.2,0,0.5c0,0.2,0,0.4,0,0.5v1.6l0,0.9c0,0.3,0,0.6,0,0.9c-0.1,0-0.3-0.1-0.6-0.1
				l-0.2-0.3l-0.7-0.9l-2.3-2.9v2.6c0,0.1,0,0.3,0,0.6c0,0.3,0,0.4,0,0.5c0,0.1,0,0.1,0,0.1c0,0,0.1,0,0.1,0.1c0.1,0,0.2,0,0.4,0
				l0,0V53l0,0c-0.1,0-0.3,0-0.6,0C100.8,53,100.6,53,100.3,53z"/>
			<path class="st1" d="M106.1,53L106.1,53l0-0.2l0,0c0.2,0,0.3,0,0.3,0c0,0,0.1,0,0.1-0.1c0,0,0.1-0.2,0.2-0.4l0.4-0.8l0.9-2.1
				c0.2-0.4,0.3-0.8,0.5-1.2h0.2l1.4,3.4l0.2,0.5c0.1,0.1,0.1,0.3,0.2,0.4c0.1,0.2,0.1,0.2,0.2,0.3c0,0,0.1,0,0.1,0.1
				c0,0,0.1,0,0.3,0l0,0V53l0,0c-0.2,0-0.5,0-0.6,0c-0.4,0-0.7,0-1.1,0l0,0v-0.2l0,0c0.3,0,0.4,0,0.5,0c0.1,0,0.1-0.1,0.1-0.1
				c0,0,0-0.1,0-0.2l-0.4-1h-2l-0.4,0.9c-0.1,0.2-0.1,0.3-0.1,0.3c0,0.1,0,0.1,0.1,0.1c0.1,0,0.2,0,0.5,0l0,0V53l0,0
				c-0.3,0-0.5,0-0.8,0C106.6,53,106.4,53,106.1,53z M107.7,51.2h1.7l-0.8-2L107.7,51.2z"/>
			<path class="st1" d="M115.1,48.2L115.1,48.2c0,0.2,0,0.6,0,1.1l0,0h-0.2l0,0l0-0.3c0-0.2,0-0.3,0-0.3c0,0,0-0.1,0-0.1
				c0,0-0.1,0-0.2,0c-0.1,0-0.3,0-0.4,0h-0.6c0,0.5,0,0.8,0,0.9v2l0,0.7c0,0.3,0,0.4,0,0.5c0,0.1,0,0.1,0,0.1c0,0,0.1,0,0.1,0.1
				c0.1,0,0.2,0,0.5,0l0,0V53l0,0c-0.6,0-0.9,0-1,0c-0.1,0-0.4,0-1,0l0,0v-0.2l0,0c0.2,0,0.4,0,0.4,0c0.1,0,0.1,0,0.1-0.1
				c0,0,0-0.1,0.1-0.1c0-0.1,0-0.2,0-0.5l0-0.7v-2c0,0,0-0.3,0-0.9h-0.5c-0.2,0-0.4,0-0.5,0c-0.2,0-0.2,0-0.3,0.1c0,0,0,0.2-0.1,0.4
				l0,0.3l0,0h-0.2l0,0c0-0.5,0-0.9,0-1.1l0,0c0.4,0,1,0,2,0C114,48.3,114.7,48.3,115.1,48.2z"/>
			<path class="st1" d="M115.5,48.3L115.5,48.3c0.6,0,0.9,0,1,0c0.1,0,0.4,0,1,0l0,0v0.2l0,0c-0.2,0-0.3,0-0.4,0
				c-0.1,0-0.1,0-0.2,0.1c0,0-0.1,0.1-0.1,0.2c0,0.1,0,0.2,0,0.4l0,0.8v1.1c0,0.4,0,0.6,0,0.8c0,0.2,0,0.3,0.1,0.4
				c0,0.1,0.1,0.2,0.2,0.3c0.1,0.1,0.2,0.1,0.4,0.2c0.2,0.1,0.4,0.1,0.6,0.1c0.2,0,0.5,0,0.7-0.1c0.2-0.1,0.4-0.2,0.5-0.3
				c0.1-0.1,0.2-0.3,0.2-0.5c0-0.2,0.1-0.5,0.1-0.9v-1c0-0.2,0-0.4,0-0.7s0-0.5,0-0.5c0,0-0.1-0.1-0.1-0.1c-0.1,0-0.2,0-0.5,0l0,0
				v-0.2l0,0c0.3,0,0.6,0,0.8,0c0.2,0,0.4,0,0.8,0l0,0v0.2l0,0c-0.2,0-0.4,0-0.4,0c-0.1,0-0.1,0-0.1,0.1c0,0,0,0.1-0.1,0.1
				c0,0.1,0,0.2,0,0.4l0,0.8v1c0,0.4,0,0.7,0,1s-0.1,0.4-0.2,0.6c-0.1,0.2-0.2,0.3-0.4,0.4c-0.2,0.1-0.3,0.2-0.6,0.2
				c-0.2,0.1-0.5,0.1-0.7,0.1c-0.3,0-0.6,0-0.8-0.1c-0.2-0.1-0.4-0.2-0.6-0.3c-0.1-0.1-0.2-0.2-0.3-0.4c-0.1-0.1-0.1-0.3-0.1-0.4
				c0-0.2,0-0.4,0-0.8v-1.3l0-0.7c0-0.3,0-0.4,0-0.5c0-0.1,0-0.1,0-0.1c0,0-0.1,0-0.1-0.1c-0.1,0-0.2,0-0.5,0l0,0V48.3z"/>
			<path class="st1" d="M121,48.3L121,48.3c0.4,0,0.8,0,1,0c0.3,0,0.6,0,1,0c0.2,0,0.3,0,0.3,0c0.6,0,1,0.1,1.2,0.3
				c0.2,0.2,0.3,0.5,0.3,0.7c0,0.2,0,0.4-0.1,0.6c-0.1,0.2-0.2,0.3-0.4,0.5c-0.2,0.1-0.5,0.2-0.8,0.3c0.1,0.1,0.2,0.2,0.3,0.5
				l0.5,0.6c0.2,0.2,0.3,0.4,0.5,0.7c0.2,0.2,0.3,0.4,0.3,0.4c0.1,0,0.1,0,0.1,0.1c0,0,0.1,0,0.2,0l0,0V53l0,0c-0.1,0-0.2,0-0.4,0
				c-0.2,0-0.3,0-0.5,0c-0.2-0.2-0.4-0.5-0.7-1c-0.4-0.5-0.8-1-1.2-1.5l0-0.1c0.1,0,0.2,0,0.3,0c0.4,0,0.7-0.1,0.9-0.3
				c0.2-0.2,0.3-0.4,0.3-0.8c0-0.3-0.1-0.5-0.3-0.7c-0.2-0.2-0.5-0.2-0.8-0.2c-0.2,0-0.5,0-0.7,0.1c0,0-0.1,0.5-0.1,1.3v1.6l0,0.7
				c0,0.3,0,0.4,0,0.5c0,0.1,0,0.1,0,0.1c0,0,0.1,0,0.1,0.1c0.1,0,0.2,0,0.5,0l0,0V53l0,0c0,0-0.2,0-0.6,0c-0.2,0-0.3,0-0.4,0
				c-0.1,0-0.4,0-1,0l0,0v-0.2l0,0c0.2,0,0.3,0,0.4,0c0.1,0,0.1,0,0.1-0.1c0,0,0-0.1,0.1-0.1s0-0.2,0-0.5l0-0.7v-1.6l0-0.7
				c0-0.3,0-0.4,0-0.5c0-0.1,0-0.1,0-0.1c0,0-0.1,0-0.1-0.1c-0.1,0-0.2,0-0.5,0l0,0V48.3z"/>
			<path class="st1" d="M125.8,53L125.8,53l0-0.2l0,0c0.2,0,0.3,0,0.3,0c0,0,0.1,0,0.1-0.1c0,0,0.1-0.2,0.2-0.4l0.4-0.8l0.9-2.1
				c0.2-0.4,0.3-0.8,0.5-1.2h0.2l1.4,3.4l0.2,0.5c0.1,0.1,0.1,0.3,0.2,0.4c0.1,0.2,0.1,0.2,0.2,0.3c0,0,0.1,0,0.1,0.1
				c0,0,0.1,0,0.3,0l0,0V53l0,0c-0.2,0-0.5,0-0.6,0c-0.4,0-0.7,0-1.1,0l0,0v-0.2l0,0c0.3,0,0.4,0,0.5,0s0.1-0.1,0.1-0.1
				c0,0,0-0.1,0-0.2l-0.4-1h-2l-0.4,0.9c-0.1,0.2-0.1,0.3-0.1,0.3c0,0.1,0,0.1,0.1,0.1c0.1,0,0.2,0,0.5,0l0,0V53l0,0
				c-0.3,0-0.5,0-0.8,0C126.3,53,126.1,53,125.8,53z M127.4,51.2h1.7l-0.8-2L127.4,51.2z"/>
			<path class="st1" d="M131.3,48.3L131.3,48.3c0.6,0,0.9,0,1,0c0.1,0,0.4,0,1,0l0,0v0.2l0,0c-0.2,0-0.3,0-0.4,0
				c-0.1,0-0.1,0-0.2,0.1c0,0-0.1,0.1-0.1,0.2c0,0.1,0,0.2,0,0.4l0,0.8v1.5c0,0.4,0,0.6,0,0.8l0,0.6h0.7c0.6,0,0.9,0,1,0
				c0.1,0,0.3,0,0.4-0.1c0-0.1,0.1-0.2,0.1-0.4c0-0.2,0.1-0.3,0.1-0.4l0,0h0.2l0,0c0,0.1,0,0.3-0.1,0.5c0,0.3,0,0.5,0,0.6l0,0
				c-0.4,0-1,0-1.7,0l-1,0c-0.2,0-0.5,0-0.7,0l0,0v-0.1l0,0c0.1-0.1,0.2-0.1,0.2-0.1c0,0,0-0.2,0-0.4c0-0.3,0-0.6,0-1v-1.5l0-0.7
				c0-0.3,0-0.4,0-0.5c0-0.1,0-0.1,0-0.1c0,0-0.1,0-0.1-0.1c-0.1,0-0.2,0-0.4,0l0,0V48.3z"/>
			<path class="st1" d="M137.7,51.9L137.7,51.9l0.2,0l0,0c0,0.3,0,0.5,0,0.5c0,0.1,0.1,0.1,0.2,0.2c0.1,0.1,0.2,0.1,0.4,0.2
				c0.2,0,0.3,0.1,0.5,0.1c0.2,0,0.5,0,0.6-0.1c0.2-0.1,0.3-0.2,0.4-0.4c0.1-0.2,0.2-0.4,0.2-0.6c0-0.1,0-0.3-0.1-0.4
				c-0.1-0.1-0.1-0.2-0.2-0.3c-0.1-0.1-0.2-0.1-0.3-0.1c-0.1,0-0.3-0.1-0.5-0.1c-0.2,0-0.4-0.1-0.5-0.1c-0.1,0-0.3-0.1-0.4-0.1
				c-0.1-0.1-0.2-0.1-0.3-0.2c-0.1-0.1-0.2-0.2-0.2-0.3c-0.1-0.1-0.1-0.3-0.1-0.4c0-0.4,0.1-0.8,0.4-1c0.3-0.3,0.7-0.4,1.2-0.4
				c0.2,0,0.4,0,0.6,0.1c0.2,0,0.4,0.1,0.6,0.2l0,0c0,0.2-0.1,0.5-0.1,0.9l0,0h-0.2l0,0c0-0.3,0-0.4,0-0.5c0-0.1-0.1-0.2-0.3-0.3
				c-0.2-0.1-0.4-0.2-0.6-0.2c-0.2,0-0.4,0-0.5,0.1c-0.2,0.1-0.3,0.2-0.4,0.4c-0.1,0.2-0.1,0.3-0.1,0.5c0,0.1,0,0.3,0.1,0.4
				c0.1,0.1,0.1,0.2,0.2,0.2c0.1,0.1,0.2,0.1,0.3,0.1c0.1,0,0.3,0.1,0.6,0.1c0.4,0.1,0.7,0.1,0.9,0.2c0.2,0.1,0.3,0.2,0.4,0.4
				c0.1,0.2,0.2,0.4,0.2,0.6c0,0.5-0.2,0.9-0.6,1.2c-0.4,0.3-0.9,0.5-1.4,0.5c-0.5,0-0.9-0.1-1.2-0.3l0,0
				C137.7,52.7,137.7,52.4,137.7,51.9z"/>
			<path class="st1" d="M145.9,52.4l-0.1,0.3c-0.5,0.3-1,0.4-1.6,0.4c-0.8,0-1.5-0.2-2-0.7c-0.5-0.5-0.8-1.1-0.8-1.8
				c0-0.5,0.1-1,0.4-1.3c0.3-0.4,0.6-0.7,1-0.9c0.4-0.2,0.9-0.3,1.4-0.3c0.3,0,0.6,0,0.9,0.1c0.3,0.1,0.5,0.1,0.7,0.2l0,0
				c-0.1,0.1-0.1,0.4-0.1,0.9l0,0h-0.2l0,0l0-0.6c-0.2-0.1-0.4-0.2-0.6-0.3c-0.2-0.1-0.5-0.1-0.7-0.1c-0.4,0-0.7,0.1-1,0.2
				c-0.3,0.2-0.5,0.4-0.7,0.7c-0.2,0.3-0.3,0.7-0.3,1.1c0,0.5,0.1,0.8,0.3,1.2c0.2,0.3,0.5,0.6,0.8,0.8c0.3,0.2,0.7,0.3,1.2,0.3
				c0.2,0,0.4,0,0.6-0.1c0.2,0,0.3-0.1,0.5-0.1C145.7,52.5,145.8,52.5,145.9,52.4L145.9,52.4z"/>
			<path class="st1" d="M146.5,48.2l0.4,0c0.3,0,0.5,0,0.5,0c0.1,0,0.4,0,1,0l0,0v0.2l0,0c-0.2,0-0.3,0-0.4,0c-0.1,0-0.1,0-0.2,0.1
				c0,0-0.1,0.1-0.1,0.2c0,0.1,0,0.2,0,0.4l0,0.8v1.6l0,0.7c0,0.3,0,0.4,0,0.5c0,0.1,0,0.1,0,0.1c0,0,0.1,0,0.1,0.1
				c0.1,0,0.2,0,0.5,0l0,0V53l0,0c0,0-0.2,0-0.6,0c-0.2,0-0.3,0-0.4,0c-0.1,0-0.4,0-1,0l0,0v-0.2l0,0c0.2,0,0.3,0,0.4,0
				c0.1,0,0.1,0,0.1-0.1c0,0,0-0.1,0.1-0.1c0-0.1,0-0.2,0-0.5l0-0.7v-1.6l0-0.7c0-0.3,0-0.4,0-0.5c0-0.1,0-0.1,0-0.1
				c0,0-0.1,0-0.1-0.1c-0.1,0-0.2,0-0.4,0l0,0L146.5,48.2L146.5,48.2z"/>
			<path class="st1" d="M149,48.3L149,48.3c0.8,0,1.3,0,1.5,0c0.7,0,1.4,0,2,0l0,0c-0.1,0.2-0.1,0.6-0.1,1l0,0h-0.2l0,0
				c0,0,0,0,0-0.1c0-0.2,0-0.4,0-0.5c-0.1-0.1-0.3-0.1-0.6-0.1c-0.3,0-0.4,0-0.6,0c-0.2,0-0.4,0-0.7,0l0,0.5l0,0.6l0,0.7
				c0.2,0,0.5,0,0.7,0c0.2,0,0.4,0,0.5,0c0.1,0,0.2,0,0.2,0c0,0,0,0,0.1-0.1c0,0,0-0.1,0-0.2l0-0.2l0,0h0.2l0,0c0,0.2,0,0.5,0,0.7
				l0,0.8l0,0h-0.2l0,0l0-0.2c0-0.2,0-0.3,0-0.3c0,0,0-0.1-0.1-0.1c0,0-0.1,0-0.3-0.1c-0.1,0-0.3,0-0.6,0c-0.1,0-0.3,0-0.6,0
				c0,0.2,0,0.5,0,0.9c0,0.5,0,0.8,0,1h0.6c0.5,0,0.9,0,1,0c0.1,0,0.3,0,0.4-0.1c0-0.1,0.1-0.2,0.1-0.4c0-0.2,0.1-0.3,0.1-0.4l0,0
				h0.2l0,0c0,0.1,0,0.3-0.1,0.5c0,0.2,0,0.4,0,0.6l0,0c-0.4,0-1,0-1.7,0l-0.9,0c-0.2,0-0.4,0-0.7,0l0,0v-0.1l0,0
				c0.1-0.1,0.2-0.1,0.2-0.1c0,0,0-0.2,0-0.6c0-0.4,0-0.7,0-0.9v-1.2l0-0.8c0-0.2,0-0.3,0-0.4c0-0.1,0-0.2,0-0.2c0,0,0-0.1,0-0.1
				c0,0,0,0-0.1,0c0,0-0.1,0-0.2,0l-0.3,0l0,0V48.3z"/>
			<path class="st1" d="M153.3,53L153.3,53l0-0.2l0,0c0.1,0,0.2,0,0.3,0c0.1,0,0.1,0,0.2-0.1c0,0,0-0.1,0-0.2c0-0.1,0-0.2,0-0.5
				s0-0.4,0-0.5v-2.7c0-0.1,0-0.2-0.1-0.3c0-0.1-0.1-0.1-0.2-0.1c-0.1,0-0.2,0-0.4,0l0,0v-0.2l0,0c0.3,0,0.5,0,0.6,0
				c0.2,0,0.4,0,0.6,0l1.1,1.4l1.6,2c0.2,0.2,0.4,0.5,0.6,0.7v-2.6c0-0.1,0-0.3,0-0.5c0-0.3,0-0.4,0-0.5c0-0.1,0-0.1-0.1-0.1
				c0,0-0.1,0-0.2-0.1c-0.1,0-0.2,0-0.3,0l0,0v-0.2l0,0c0.2,0,0.4,0,0.8,0c0.3,0,0.5,0,0.7,0l0,0v0.2l0,0c-0.1,0-0.3,0-0.3,0
				c-0.1,0-0.1,0-0.2,0.1c0,0,0,0.1,0,0.1c0,0.1,0,0.2,0,0.5c0,0.2,0,0.4,0,0.5v1.6l0,0.9c0,0.3,0,0.6,0,0.9c-0.1,0-0.3-0.1-0.6-0.1
				l-0.2-0.3l-0.7-0.9l-2.3-2.9v2.6c0,0.1,0,0.3,0,0.6c0,0.3,0,0.4,0,0.5c0,0.1,0,0.1,0,0.1c0,0,0.1,0,0.1,0.1c0.1,0,0.2,0,0.4,0
				l0,0V53l0,0c-0.1,0-0.3,0-0.6,0C153.9,53,153.6,53,153.3,53z"/>
			<path class="st1" d="M163.7,52.4l-0.1,0.3c-0.5,0.3-1,0.4-1.6,0.4c-0.8,0-1.5-0.2-2-0.7c-0.5-0.5-0.8-1.1-0.8-1.8
				c0-0.5,0.1-1,0.4-1.3c0.3-0.4,0.6-0.7,1-0.9c0.4-0.2,0.9-0.3,1.4-0.3c0.3,0,0.6,0,0.9,0.1c0.3,0.1,0.5,0.1,0.7,0.2l0,0
				c-0.1,0.1-0.1,0.4-0.1,0.9l0,0h-0.2l0,0l0-0.6c-0.2-0.1-0.4-0.2-0.6-0.3c-0.2-0.1-0.5-0.1-0.7-0.1c-0.4,0-0.7,0.1-1,0.2
				c-0.3,0.2-0.5,0.4-0.7,0.7c-0.2,0.3-0.3,0.7-0.3,1.1c0,0.5,0.1,0.8,0.3,1.2c0.2,0.3,0.5,0.6,0.8,0.8c0.3,0.2,0.7,0.3,1.2,0.3
				c0.2,0,0.4,0,0.6-0.1c0.2,0,0.3-0.1,0.5-0.1C163.5,52.5,163.6,52.5,163.7,52.4L163.7,52.4z"/>
			<path class="st1" d="M164.3,48.3L164.3,48.3c0.8,0,1.3,0,1.5,0c0.7,0,1.4,0,2,0l0,0c-0.1,0.2-0.1,0.6-0.1,1l0,0h-0.2l0,0
				c0,0,0,0,0-0.1c0-0.2,0-0.4,0-0.5c-0.1-0.1-0.3-0.1-0.6-0.1c-0.3,0-0.4,0-0.6,0c-0.2,0-0.4,0-0.7,0l0,0.5l0,0.6l0,0.7
				c0.2,0,0.5,0,0.7,0c0.2,0,0.4,0,0.5,0c0.1,0,0.2,0,0.2,0c0,0,0,0,0.1-0.1c0,0,0-0.1,0-0.2l0-0.2l0,0h0.2l0,0c0,0.2,0,0.5,0,0.7
				l0,0.8l0,0h-0.2l0,0l0-0.2c0-0.2,0-0.3,0-0.3c0,0,0-0.1-0.1-0.1c0,0-0.1,0-0.3-0.1c-0.1,0-0.3,0-0.6,0c-0.1,0-0.3,0-0.6,0
				c0,0.2,0,0.5,0,0.9c0,0.5,0,0.8,0,1h0.6c0.5,0,0.9,0,1,0c0.1,0,0.3,0,0.4-0.1c0-0.1,0.1-0.2,0.1-0.4c0-0.2,0.1-0.3,0.1-0.4l0,0
				h0.2l0,0c0,0.1,0,0.3-0.1,0.5c0,0.2,0,0.4,0,0.6l0,0c-0.4,0-1,0-1.7,0l-0.9,0c-0.2,0-0.4,0-0.7,0l0,0v-0.1l0,0
				c0.1-0.1,0.2-0.1,0.2-0.1c0,0,0-0.2,0-0.6c0-0.4,0-0.7,0-0.9v-1.2l0-0.8c0-0.2,0-0.3,0-0.4c0-0.1,0-0.2,0-0.2c0,0,0-0.1,0-0.1
				c0,0,0,0-0.1,0c0,0-0.1,0-0.2,0l-0.3,0l0,0V48.3z"/>
			<path class="st1" d="M168.7,51.9L168.7,51.9l0.2,0l0,0c0,0.3,0,0.5,0,0.5c0,0.1,0.1,0.1,0.2,0.2c0.1,0.1,0.2,0.1,0.4,0.2
				c0.2,0,0.3,0.1,0.5,0.1c0.2,0,0.5,0,0.6-0.1c0.2-0.1,0.3-0.2,0.4-0.4c0.1-0.2,0.2-0.4,0.2-0.6c0-0.1,0-0.3-0.1-0.4
				c-0.1-0.1-0.1-0.2-0.2-0.3c-0.1-0.1-0.2-0.1-0.3-0.1c-0.1,0-0.3-0.1-0.5-0.1c-0.2,0-0.4-0.1-0.5-0.1c-0.1,0-0.3-0.1-0.4-0.1
				c-0.1-0.1-0.2-0.1-0.3-0.2c-0.1-0.1-0.2-0.2-0.2-0.3c-0.1-0.1-0.1-0.3-0.1-0.4c0-0.4,0.1-0.8,0.4-1c0.3-0.3,0.7-0.4,1.2-0.4
				c0.2,0,0.4,0,0.6,0.1c0.2,0,0.4,0.1,0.6,0.2l0,0c0,0.2-0.1,0.5-0.1,0.9l0,0h-0.2l0,0c0-0.3,0-0.4,0-0.5c0-0.1-0.1-0.2-0.3-0.3
				c-0.2-0.1-0.4-0.2-0.6-0.2c-0.2,0-0.4,0-0.5,0.1c-0.2,0.1-0.3,0.2-0.4,0.4c-0.1,0.2-0.1,0.3-0.1,0.5c0,0.1,0,0.3,0.1,0.4
				c0.1,0.1,0.1,0.2,0.2,0.2s0.2,0.1,0.3,0.1c0.1,0,0.3,0.1,0.6,0.1c0.4,0.1,0.7,0.1,0.9,0.2c0.2,0.1,0.3,0.2,0.4,0.4
				c0.1,0.2,0.2,0.4,0.2,0.6c0,0.5-0.2,0.9-0.6,1.2c-0.4,0.3-0.9,0.5-1.4,0.5c-0.5,0-0.9-0.1-1.2-0.3l0,0
				C168.7,52.7,168.7,52.4,168.7,51.9z"/>
			<path class="st1" d="M174.2,48.5L174.2,48.5l0-0.2l0,0c0.4,0,0.7,0,0.9,0c0.1,0,0.4,0,0.9,0c0.2,0,0.3,0,0.4,0
				c0.3,0,0.5,0,0.7,0.1c0.2,0.1,0.3,0.2,0.4,0.3c0.1,0.2,0.2,0.3,0.2,0.5c0,0.3-0.1,0.5-0.3,0.7c-0.2,0.2-0.5,0.4-0.9,0.5
				c0.2,0,0.4,0.1,0.6,0.1c0.2,0,0.3,0.1,0.4,0.2c0.1,0.1,0.2,0.2,0.3,0.3c0.1,0.1,0.1,0.3,0.1,0.5c0,0.1,0,0.3-0.1,0.4
				c0,0.2-0.1,0.3-0.2,0.5c-0.1,0.1-0.3,0.3-0.4,0.4c-0.2,0.1-0.3,0.2-0.5,0.2c-0.2,0-0.4,0.1-0.7,0.1c-0.1,0-0.2,0-0.5,0
				c-0.3,0-0.5,0-0.5,0c-0.2,0-0.3,0-0.6,0l0,0v-0.1l0,0c0.1-0.1,0.2-0.1,0.2-0.1c0,0,0-0.2,0-0.6c0-0.4,0-0.7,0-0.9v-1.2l0-0.8
				c0-0.2,0-0.3,0-0.4c0-0.1,0-0.2,0-0.2c0,0,0-0.1,0-0.1c0,0,0,0-0.1,0c0,0-0.1,0-0.2,0L174.2,48.5z M175.4,50.2c0.1,0,0.2,0,0.4,0
				c0.5,0,0.8-0.1,1-0.3c0.2-0.2,0.3-0.4,0.3-0.7c0-0.2,0-0.3-0.1-0.4c-0.1-0.1-0.2-0.2-0.3-0.3c-0.2-0.1-0.4-0.1-0.6-0.1
				c-0.2,0-0.4,0-0.6,0.1c0,0.2,0,0.6,0,1.1V50.2z M175.4,52.7c0.2,0,0.4,0.1,0.5,0.1c0.3,0,0.6-0.1,0.8-0.2
				c0.2-0.1,0.3-0.2,0.4-0.4c0.1-0.2,0.1-0.4,0.1-0.6c0-0.3-0.1-0.6-0.3-0.8c-0.2-0.2-0.6-0.3-1.2-0.3c-0.1,0-0.2,0-0.4,0v1.2
				L175.4,52.7z"/>
			<path class="st1" d="M178.7,48.3L178.7,48.3c0.8,0,1.3,0,1.5,0c0.7,0,1.4,0,2,0l0,0c-0.1,0.2-0.1,0.6-0.1,1l0,0h-0.2l0,0
				c0,0,0,0,0-0.1c0-0.2,0-0.4,0-0.5c-0.1-0.1-0.3-0.1-0.6-0.1c-0.3,0-0.4,0-0.6,0c-0.2,0-0.4,0-0.7,0l0,0.5l0,0.6l0,0.7
				c0.2,0,0.5,0,0.7,0c0.2,0,0.4,0,0.5,0c0.1,0,0.2,0,0.2,0c0,0,0,0,0.1-0.1c0,0,0-0.1,0-0.2l0-0.2l0,0h0.2l0,0c0,0.2,0,0.5,0,0.7
				l0,0.8l0,0h-0.2l0,0l0-0.2c0-0.2,0-0.3,0-0.3c0,0,0-0.1-0.1-0.1c0,0-0.1,0-0.3-0.1c-0.1,0-0.3,0-0.6,0c-0.1,0-0.3,0-0.6,0
				c0,0.2,0,0.5,0,0.9c0,0.5,0,0.8,0,1h0.6c0.5,0,0.9,0,1,0c0.1,0,0.3,0,0.4-0.1c0-0.1,0.1-0.2,0.1-0.4c0-0.2,0.1-0.3,0.1-0.4l0,0
				h0.2l0,0c0,0.1,0,0.3-0.1,0.5c0,0.2,0,0.4,0,0.6l0,0c-0.4,0-1,0-1.7,0l-0.9,0c-0.2,0-0.4,0-0.7,0l0,0v-0.1l0,0
				c0.1-0.1,0.2-0.1,0.2-0.1c0,0,0-0.2,0-0.6c0-0.4,0-0.7,0-0.9v-1.2l0-0.8c0-0.2,0-0.3,0-0.4c0-0.1,0-0.2,0-0.2c0,0,0-0.1,0-0.1
				c0,0,0,0-0.1,0c0,0-0.1,0-0.2,0l-0.3,0l0,0V48.3z"/>
			<path class="st1" d="M183,48.2l0.4,0c0.3,0,0.5,0,0.5,0c0.1,0,0.4,0,1,0l0,0v0.2l0,0c-0.2,0-0.3,0-0.4,0c-0.1,0-0.1,0-0.2,0.1
				c0,0-0.1,0.1-0.1,0.2c0,0.1,0,0.2,0,0.4l0,0.8v1.6l0,0.7c0,0.3,0,0.4,0,0.5c0,0.1,0,0.1,0,0.1c0,0,0.1,0,0.1,0.1
				c0.1,0,0.2,0,0.5,0l0,0V53l0,0c0,0-0.2,0-0.6,0c-0.2,0-0.3,0-0.4,0c-0.1,0-0.4,0-1,0l0,0v-0.2l0,0c0.2,0,0.3,0,0.4,0
				c0.1,0,0.1,0,0.1-0.1c0,0,0-0.1,0.1-0.1c0-0.1,0-0.2,0-0.5l0-0.7v-1.6l0-0.7c0-0.3,0-0.4,0-0.5c0-0.1,0-0.1,0-0.1
				c0,0-0.1,0-0.1-0.1c-0.1,0-0.2,0-0.4,0l0,0L183,48.2L183,48.2z"/>
			<path class="st1" d="M187.5,48.3v0.2l0,0c-0.2,0-0.3,0-0.4,0c-0.1,0-0.1,0-0.2,0.1c0,0-0.1,0.1-0.1,0.2c0,0.1,0,0.2,0,0.4l0,0.8
				v2.4c0,0.4,0,0.6-0.1,0.9c-0.1,0.2-0.2,0.4-0.3,0.6c-0.2,0.2-0.3,0.3-0.5,0.4c-0.2,0.1-0.3,0.1-0.5,0.1c0,0-0.1,0-0.1,0
				c0-0.1,0-0.2,0-0.3c0-0.1,0-0.1,0-0.3l0.1,0c0.1,0.1,0.2,0.1,0.4,0.1c0.1,0,0.2,0,0.3-0.1c0.1,0,0.1-0.1,0.2-0.2
				c0-0.1,0-0.2,0.1-0.4c0-0.2,0-0.4,0-0.5v-2.9l0-0.7c0-0.3,0-0.4,0-0.5c0-0.1,0-0.1,0-0.1c0,0-0.1,0-0.1-0.1c-0.1,0-0.2,0-0.5,0
				l0,0v-0.2l0,0c0.6,0,0.9,0,1,0C186.5,48.3,186.9,48.3,187.5,48.3L187.5,48.3z"/>
			<path class="st1" d="M188,48.2l0.4,0c0.3,0,0.5,0,0.5,0c0.1,0,0.4,0,1,0l0,0v0.2l0,0c-0.2,0-0.3,0-0.4,0c-0.1,0-0.1,0-0.2,0.1
				c0,0-0.1,0.1-0.1,0.2c0,0.1,0,0.2,0,0.4l0,0.8v1.6l0,0.7c0,0.3,0,0.4,0,0.5c0,0.1,0,0.1,0,0.1c0,0,0.1,0,0.1,0.1
				c0.1,0,0.2,0,0.5,0l0,0V53l0,0c0,0-0.2,0-0.6,0c-0.2,0-0.3,0-0.4,0c-0.1,0-0.4,0-1,0l0,0v-0.2l0,0c0.2,0,0.3,0,0.4,0
				c0.1,0,0.1,0,0.1-0.1c0,0,0-0.1,0.1-0.1c0-0.1,0-0.2,0-0.5l0-0.7v-1.6l0-0.7c0-0.3,0-0.4,0-0.5c0-0.1,0-0.1,0-0.1
				c0,0-0.1,0-0.1-0.1c-0.1,0-0.2,0-0.5,0l0,0L188,48.2L188,48.2z"/>
			<path class="st1" d="M190.5,53L190.5,53l0-0.2l0,0c0.1,0,0.2,0,0.3,0s0.1,0,0.2-0.1c0,0,0-0.1,0-0.2c0-0.1,0-0.2,0-0.5
				c0-0.2,0-0.4,0-0.5v-2.7c0-0.1,0-0.2-0.1-0.3c0-0.1-0.1-0.1-0.2-0.1c-0.1,0-0.2,0-0.4,0l0,0v-0.2l0,0c0.3,0,0.5,0,0.6,0
				c0.2,0,0.4,0,0.6,0l1.1,1.4l1.6,2c0.2,0.2,0.4,0.5,0.6,0.7v-2.6c0-0.1,0-0.3,0-0.5c0-0.3,0-0.4,0-0.5c0-0.1,0-0.1-0.1-0.1
				c0,0-0.1,0-0.2-0.1s-0.2,0-0.3,0l0,0v-0.2l0,0c0.2,0,0.4,0,0.8,0c0.3,0,0.5,0,0.7,0l0,0v0.2l0,0c-0.1,0-0.3,0-0.3,0
				c-0.1,0-0.1,0-0.2,0.1c0,0,0,0.1,0,0.1c0,0.1,0,0.2,0,0.5c0,0.2,0,0.4,0,0.5v1.6l0,0.9c0,0.3,0,0.6,0,0.9c-0.1,0-0.3-0.1-0.6-0.1
				l-0.2-0.3l-0.7-0.9l-2.3-2.9v2.6c0,0.1,0,0.3,0,0.6c0,0.3,0,0.4,0,0.5c0,0.1,0,0.1,0,0.1c0,0,0.1,0,0.1,0.1c0.1,0,0.2,0,0.4,0
				l0,0V53l0,0c-0.1,0-0.3,0-0.6,0C191,53,190.7,53,190.5,53z"/>
			<path class="st1" d="M201.2,51.2v0.1l0,0l-0.2,0.1c0,0-0.1,0-0.1,0.1c0,0,0,0.1,0,0.2c0,0.1,0,0.3,0,0.4c0,0.2,0,0.4,0,0.6l0,0
				c-0.6,0.2-1.3,0.4-1.9,0.4c-0.5,0-1-0.1-1.4-0.3c-0.4-0.2-0.7-0.5-1-0.8c-0.2-0.4-0.4-0.8-0.4-1.3c0-0.8,0.3-1.4,0.8-1.9
				c0.5-0.5,1.2-0.7,2.1-0.7c0.6,0,1.2,0.1,1.7,0.3l0,0c0,0.2-0.1,0.5-0.1,1l0,0h-0.2l0,0l0-0.4c0-0.1,0-0.2,0-0.2c0,0,0,0-0.1-0.1
				c0,0-0.1-0.1-0.3-0.2c-0.2-0.1-0.3-0.1-0.5-0.2c-0.2,0-0.4,0-0.5,0c-0.4,0-0.8,0.1-1.1,0.3c-0.3,0.2-0.6,0.4-0.7,0.7
				c-0.2,0.3-0.2,0.7-0.2,1.1c0,0.4,0.1,0.8,0.3,1.2c0.2,0.4,0.4,0.6,0.7,0.8c0.3,0.2,0.7,0.3,1.1,0.3c0.2,0,0.4,0,0.6-0.1
				c0.2,0,0.4-0.1,0.5-0.2c0-0.1,0-0.2,0-0.4v-0.4c0-0.2,0-0.3,0-0.3c0,0-0.1-0.1-0.2-0.1c-0.1,0-0.3,0-0.6,0l0,0v-0.1l0,0l0.2,0
				c0.4,0,0.6,0,0.9,0C200.7,51.2,200.9,51.2,201.2,51.2L201.2,51.2z"/>
			<path class="st1" d="M203.7,53L203.7,53l0-0.2l0,0c0.1,0,0.2,0,0.3,0c0.1,0,0.1,0,0.2-0.1c0,0,0-0.1,0-0.2c0-0.1,0-0.2,0-0.5
				s0-0.4,0-0.5v-2.7c0-0.1,0-0.2-0.1-0.3c0-0.1-0.1-0.1-0.2-0.1c-0.1,0-0.2,0-0.4,0l0,0v-0.2l0,0c0.3,0,0.5,0,0.6,0
				c0.2,0,0.4,0,0.6,0l1.1,1.4l1.6,2c0.2,0.2,0.4,0.5,0.6,0.7v-2.6c0-0.1,0-0.3,0-0.5c0-0.3,0-0.4,0-0.5c0-0.1,0-0.1-0.1-0.1
				c0,0-0.1,0-0.2-0.1c-0.1,0-0.2,0-0.3,0l0,0v-0.2l0,0c0.2,0,0.4,0,0.8,0c0.3,0,0.5,0,0.7,0l0,0v0.2l0,0c-0.1,0-0.3,0-0.3,0
				c-0.1,0-0.1,0-0.2,0.1c0,0,0,0.1,0,0.1c0,0.1,0,0.2,0,0.5c0,0.2,0,0.4,0,0.5v1.6l0,0.9c0,0.3,0,0.6,0,0.9c-0.1,0-0.3-0.1-0.6-0.1
				l-0.2-0.3l-0.7-0.9l-2.3-2.9v2.6c0,0.1,0,0.3,0,0.6c0,0.3,0,0.4,0,0.5c0,0.1,0,0.1,0,0.1c0,0,0.1,0,0.1,0.1c0.1,0,0.2,0,0.4,0
				l0,0V53l0,0c-0.1,0-0.3,0-0.6,0C204.2,53,203.9,53,203.7,53z"/>
			<path class="st1" d="M209.5,50.7c0-0.3,0-0.7,0.1-0.9c0.1-0.3,0.3-0.6,0.5-0.8c0.2-0.2,0.5-0.4,0.8-0.6c0.3-0.1,0.7-0.2,1.1-0.2
				c0.8,0,1.4,0.2,1.8,0.6c0.5,0.4,0.7,1,0.7,1.7c0,0.5-0.1,1-0.3,1.4c-0.2,0.4-0.5,0.7-1,0.9c-0.4,0.2-0.9,0.3-1.4,0.3
				c-0.4,0-0.7-0.1-1-0.2c-0.3-0.1-0.6-0.3-0.8-0.5c-0.2-0.2-0.4-0.5-0.5-0.8C209.5,51.2,209.5,51,209.5,50.7z M210.2,50.5
				c0,0.3,0,0.6,0.1,0.9c0.1,0.3,0.2,0.6,0.4,0.8c0.2,0.2,0.4,0.4,0.6,0.5c0.2,0.1,0.5,0.2,0.8,0.2c0.3,0,0.7-0.1,0.9-0.2
				c0.3-0.2,0.5-0.4,0.6-0.7c0.1-0.3,0.2-0.7,0.2-1.1c0-0.5-0.1-0.9-0.2-1.2c-0.2-0.4-0.4-0.6-0.7-0.8c-0.3-0.2-0.6-0.3-1-0.3
				c-0.5,0-1,0.2-1.3,0.5C210.3,49.3,210.2,49.8,210.2,50.5z"/>
			<path class="st1" d="M215.1,48.3L215.1,48.3c0.4,0,0.8,0,1,0c0.3,0,0.6,0,1,0c0.2,0,0.3,0,0.3,0c0.6,0,1,0.1,1.2,0.3
				s0.3,0.5,0.3,0.7c0,0.2,0,0.4-0.1,0.6c-0.1,0.2-0.2,0.3-0.4,0.5c-0.2,0.1-0.5,0.2-0.8,0.3c0.1,0.1,0.2,0.2,0.3,0.5l0.5,0.6
				c0.2,0.2,0.3,0.4,0.5,0.7c0.2,0.2,0.3,0.4,0.3,0.4c0.1,0,0.1,0,0.1,0.1c0,0,0.1,0,0.2,0l0,0V53l0,0c-0.1,0-0.2,0-0.4,0
				c-0.2,0-0.3,0-0.5,0c-0.2-0.2-0.4-0.5-0.7-1c-0.4-0.5-0.8-1-1.2-1.5l0-0.1c0.1,0,0.2,0,0.3,0c0.4,0,0.7-0.1,0.9-0.3
				c0.2-0.2,0.3-0.4,0.3-0.8c0-0.3-0.1-0.5-0.3-0.7c-0.2-0.2-0.5-0.2-0.8-0.2c-0.2,0-0.5,0-0.7,0.1c0,0-0.1,0.5-0.1,1.3v1.6l0,0.7
				c0,0.3,0,0.4,0,0.5c0,0.1,0,0.1,0,0.1c0,0,0.1,0,0.1,0.1c0.1,0,0.2,0,0.4,0l0,0V53l0,0c0,0-0.2,0-0.6,0c-0.2,0-0.3,0-0.4,0
				c-0.1,0-0.4,0-1,0l0,0v-0.2l0,0c0.2,0,0.3,0,0.4,0c0.1,0,0.1,0,0.1-0.1c0,0,0-0.1,0.1-0.1c0-0.1,0-0.2,0-0.5l0-0.7v-1.6l0-0.7
				c0-0.3,0-0.4,0-0.5c0-0.1,0-0.1,0-0.1c0,0-0.1,0-0.1-0.1c-0.1,0-0.2,0-0.5,0l0,0V48.3z"/>
			<path class="st1" d="M226,48.3L226,48.3l0,0.2l0,0c-0.2,0-0.4,0-0.5,0c-0.1,0-0.1,0-0.1,0.1c0,0,0,0.1,0,0.2c0,0.1,0,0.5,0,1v1.6
				c0,0.2,0,0.5,0,0.8c0,0.3,0,0.4,0,0.5c0,0,0.1,0.1,0.1,0.1c0.1,0,0.2,0,0.5,0l0,0V53l0,0c-0.4,0-0.7,0-1,0c-0.2,0-0.5,0-0.9,0
				l0,0v-0.2l0,0c0.2,0,0.4,0,0.5,0c0.1,0,0.1,0,0.1-0.1c0,0,0-0.1,0-0.2c0-0.1,0-0.5,0-1v-2.5l-1.2,2.4c-0.3,0.6-0.5,1.2-0.8,1.7
				h-0.1c-0.1-0.3-0.2-0.5-0.3-0.7l-1.6-3.4v2.4c0,0.2,0,0.5,0,0.8c0,0.3,0,0.5,0,0.5c0,0,0.1,0.1,0.1,0.1c0.1,0,0.2,0,0.5,0l0,0V53
				l0,0l-0.2,0c-0.2,0-0.4,0-0.6,0c-0.1,0-0.3,0-0.8,0l0,0v-0.2l0,0c0.2,0,0.4,0,0.5,0c0.1,0,0.1,0,0.1-0.1c0,0,0-0.1,0-0.2
				c0-0.1,0-0.5,0-1v-1.5c0-0.2,0-0.5,0-0.7c0-0.3,0-0.5,0-0.5c0,0-0.1-0.1-0.1-0.1c-0.1,0-0.2,0-0.5,0l0,0v-0.2l0,0
				c0.2,0,0.4,0,0.6,0c0.2,0,0.5,0,0.6,0c0.2,0.4,0.4,0.8,0.5,1.2l1.3,2.6l1.2-2.4c0.3-0.7,0.5-1.1,0.6-1.4c0.2,0,0.4,0,0.6,0
				C225.6,48.3,225.8,48.3,226,48.3z"/>
			<path class="st1" d="M226.5,53L226.5,53l0-0.2l0,0c0.2,0,0.3,0,0.3,0c0,0,0.1,0,0.1-0.1c0,0,0.1-0.2,0.2-0.4l0.4-0.8l0.9-2.1
				c0.2-0.4,0.3-0.8,0.5-1.2h0.2l1.4,3.4l0.2,0.5c0.1,0.1,0.1,0.3,0.2,0.4c0.1,0.2,0.1,0.2,0.2,0.3c0,0,0.1,0,0.1,0.1
				c0,0,0.1,0,0.3,0l0,0V53l0,0c-0.2,0-0.5,0-0.6,0c-0.4,0-0.7,0-1.1,0l0,0v-0.2l0,0c0.3,0,0.4,0,0.5,0c0.1,0,0.1-0.1,0.1-0.1
				c0,0,0-0.1,0-0.2l-0.4-1h-2l-0.4,0.9c-0.1,0.2-0.1,0.3-0.1,0.3c0,0.1,0,0.1,0.1,0.1c0.1,0,0.2,0,0.5,0l0,0V53l0,0
				c-0.3,0-0.5,0-0.8,0C227,53,226.8,53,226.5,53z M228.1,51.2h1.7l-0.8-2L228.1,51.2z"/>
			<path class="st1" d="M232,48.3L232,48.3c0.6,0,0.9,0,1,0c0.1,0,0.4,0,1,0l0,0v0.2l0,0c-0.2,0-0.3,0-0.4,0c-0.1,0-0.1,0-0.2,0.1
				c0,0-0.1,0.1-0.1,0.2c0,0.1,0,0.2,0,0.4l0,0.8v1.5c0,0.4,0,0.6,0,0.8l0,0.6h0.7c0.6,0,0.9,0,1,0c0.1,0,0.3,0,0.4-0.1
				c0-0.1,0.1-0.2,0.1-0.4c0-0.2,0.1-0.3,0.1-0.4l0,0h0.2l0,0c0,0.1,0,0.3-0.1,0.5c0,0.3,0,0.5,0,0.6l0,0c-0.4,0-1,0-1.7,0l-1,0
				c-0.2,0-0.5,0-0.7,0l0,0v-0.1l0,0c0.1-0.1,0.2-0.1,0.2-0.1c0,0,0-0.2,0-0.4c0-0.3,0-0.6,0-1v-1.5l0-0.7c0-0.3,0-0.4,0-0.5
				c0-0.1,0-0.1,0-0.1c0,0-0.1,0-0.1-0.1c-0.1,0-0.2,0-0.5,0l0,0V48.3z"/>
			<path class="st1" d="M238.2,48.3L238.2,48.3c0.6,0,0.9,0,1,0c0.1,0,0.4,0,1,0l0,0v0.2l0,0c-0.2,0-0.3,0-0.4,0
				c-0.1,0-0.1,0-0.2,0.1c0,0-0.1,0.1-0.1,0.2c0,0.1,0,0.2,0,0.4l0,0.8v1.1c0,0.4,0,0.6,0,0.8c0,0.2,0,0.3,0.1,0.4
				c0,0.1,0.1,0.2,0.2,0.3c0.1,0.1,0.2,0.1,0.4,0.2c0.2,0.1,0.4,0.1,0.6,0.1c0.2,0,0.5,0,0.7-0.1c0.2-0.1,0.4-0.2,0.5-0.3
				c0.1-0.1,0.2-0.3,0.2-0.5c0-0.2,0.1-0.5,0.1-0.9v-1c0-0.2,0-0.4,0-0.7s0-0.5,0-0.5c0,0-0.1-0.1-0.1-0.1c-0.1,0-0.2,0-0.5,0l0,0
				v-0.2l0,0c0.3,0,0.6,0,0.8,0c0.2,0,0.4,0,0.8,0l0,0v0.2l0,0c-0.2,0-0.4,0-0.4,0c-0.1,0-0.1,0-0.1,0.1c0,0,0,0.1-0.1,0.1
				c0,0.1,0,0.2,0,0.4l0,0.8v1c0,0.4,0,0.7,0,1c0,0.2-0.1,0.4-0.2,0.6c-0.1,0.2-0.2,0.3-0.4,0.4c-0.2,0.1-0.3,0.2-0.6,0.2
				c-0.2,0.1-0.5,0.1-0.7,0.1c-0.3,0-0.6,0-0.8-0.1c-0.2-0.1-0.4-0.2-0.6-0.3c-0.1-0.1-0.2-0.2-0.3-0.4c-0.1-0.1-0.1-0.3-0.1-0.4
				c0-0.2,0-0.4,0-0.8v-1.3l0-0.7c0-0.3,0-0.4,0-0.5c0-0.1,0-0.1,0-0.1c0,0-0.1,0-0.1-0.1c-0.1,0-0.2,0-0.4,0l0,0V48.3z"/>
			<path class="st1" d="M243.9,53L243.9,53l0-0.2l0,0c0.1,0,0.2,0,0.3,0c0.1,0,0.1,0,0.2-0.1c0,0,0-0.1,0-0.2c0-0.1,0-0.2,0-0.5
				c0-0.2,0-0.4,0-0.5v-2.7c0-0.1,0-0.2-0.1-0.3c0-0.1-0.1-0.1-0.2-0.1c-0.1,0-0.2,0-0.4,0l0,0v-0.2l0,0c0.3,0,0.5,0,0.6,0
				c0.2,0,0.4,0,0.6,0l1.1,1.4l1.6,2c0.2,0.2,0.4,0.5,0.6,0.7v-2.6c0-0.1,0-0.3,0-0.5c0-0.3,0-0.4,0-0.5c0-0.1,0-0.1-0.1-0.1
				c0,0-0.1,0-0.2-0.1c-0.1,0-0.2,0-0.3,0l0,0v-0.2l0,0c0.2,0,0.4,0,0.8,0c0.3,0,0.5,0,0.7,0l0,0v0.2l0,0c-0.1,0-0.3,0-0.3,0
				c-0.1,0-0.1,0-0.2,0.1c0,0,0,0.1,0,0.1c0,0.1,0,0.2,0,0.5c0,0.2,0,0.4,0,0.5v1.6l0,0.9c0,0.3,0,0.6,0,0.9c-0.1,0-0.3-0.1-0.6-0.1
				l-0.2-0.3l-0.7-0.9l-2.3-2.9v2.6c0,0.1,0,0.3,0,0.6c0,0.3,0,0.4,0,0.5c0,0.1,0,0.1,0,0.1c0,0,0.1,0,0.1,0.1c0.1,0,0.2,0,0.4,0
				l0,0V53l0,0c-0.1,0-0.3,0-0.6,0C244.4,53,244.2,53,243.9,53z"/>
			<path class="st1" d="M249.8,48.2l0.4,0c0.3,0,0.5,0,0.5,0c0.1,0,0.4,0,1,0l0,0v0.2l0,0c-0.2,0-0.3,0-0.4,0c-0.1,0-0.1,0-0.2,0.1
				c0,0-0.1,0.1-0.1,0.2c0,0.1,0,0.2,0,0.4l0,0.8v1.6l0,0.7c0,0.3,0,0.4,0,0.5c0,0.1,0,0.1,0,0.1c0,0,0.1,0,0.1,0.1
				c0.1,0,0.2,0,0.5,0l0,0V53l0,0c0,0-0.2,0-0.6,0c-0.2,0-0.3,0-0.4,0c-0.1,0-0.4,0-1,0l0,0v-0.2l0,0c0.2,0,0.3,0,0.4,0
				c0.1,0,0.1,0,0.1-0.1c0,0,0-0.1,0.1-0.1c0-0.1,0-0.2,0-0.5l0-0.7v-1.6l0-0.7c0-0.3,0-0.4,0-0.5c0-0.1,0-0.1,0-0.1
				c0,0-0.1,0-0.1-0.1c-0.1,0-0.2,0-0.4,0l0,0L249.8,48.2L249.8,48.2z"/>
			<path class="st1" d="M254.4,53.1c0-0.1-0.2-0.5-0.4-1.1l-1.2-2.8c-0.1-0.3-0.2-0.5-0.2-0.6c0,0-0.2-0.1-0.4-0.1l0,0v-0.2l0,0
				c0.3,0,0.6,0,0.9,0c0.2,0,0.5,0,0.9,0l0,0v0.2l0,0c-0.3,0-0.4,0-0.5,0c-0.1,0-0.1,0-0.1,0.1c0,0,0,0.1,0.1,0.4
				c0.1,0.2,0.1,0.4,0.2,0.5l1.1,2.7l0.9-2.2c0.1-0.2,0.2-0.4,0.3-0.7c0.1-0.3,0.2-0.5,0.2-0.6c0-0.1,0-0.1-0.1-0.1
				c-0.1,0-0.2,0-0.5-0.1l0,0v-0.2l0,0c0.4,0,0.6,0,0.8,0c0.1,0,0.3,0,0.7,0l0,0v0.2l0,0c-0.2,0-0.3,0-0.3,0c0,0-0.1,0.1-0.1,0.1
				c0,0.1-0.1,0.2-0.2,0.5l-1.1,2.6c-0.2,0.6-0.4,1-0.5,1.4H254.4z"/>
			<path class="st1" d="M257.4,48.3L257.4,48.3c0.8,0,1.3,0,1.5,0c0.7,0,1.4,0,2,0l0,0c-0.1,0.2-0.1,0.6-0.1,1l0,0h-0.2l0,0
				c0,0,0,0,0-0.1c0-0.2,0-0.4,0-0.5c-0.1-0.1-0.3-0.1-0.6-0.1c-0.3,0-0.4,0-0.6,0c-0.2,0-0.4,0-0.7,0l0,0.5l0,0.6l0,0.7
				c0.2,0,0.5,0,0.7,0c0.2,0,0.4,0,0.5,0c0.1,0,0.2,0,0.2,0c0,0,0,0,0.1-0.1c0,0,0-0.1,0-0.2l0-0.2l0,0h0.2l0,0c0,0.2,0,0.5,0,0.7
				l0,0.8l0,0h-0.2l0,0l0-0.2c0-0.2,0-0.3,0-0.3c0,0,0-0.1-0.1-0.1c0,0-0.1,0-0.3-0.1c-0.1,0-0.3,0-0.6,0c-0.1,0-0.3,0-0.6,0
				c0,0.2,0,0.5,0,0.9c0,0.5,0,0.8,0,1h0.6c0.5,0,0.9,0,1,0c0.1,0,0.3,0,0.4-0.1c0-0.1,0.1-0.2,0.1-0.4c0-0.2,0.1-0.3,0.1-0.4l0,0
				h0.2l0,0c0,0.1,0,0.3-0.1,0.5c0,0.2,0,0.4,0,0.6l0,0c-0.4,0-1,0-1.7,0l-0.9,0c-0.2,0-0.4,0-0.7,0l0,0v-0.1l0,0
				c0.1-0.1,0.2-0.1,0.2-0.1c0,0,0-0.2,0-0.6c0-0.4,0-0.7,0-0.9v-1.2l0-0.8c0-0.2,0-0.3,0-0.4c0-0.1,0-0.2,0-0.2c0,0,0-0.1,0-0.1
				c0,0,0,0-0.1,0c0,0-0.1,0-0.2,0l-0.3,0l0,0V48.3z"/>
			<path class="st1" d="M261.7,48.3L261.7,48.3c0.4,0,0.8,0,1,0c0.3,0,0.6,0,1,0c0.2,0,0.3,0,0.3,0c0.6,0,1,0.1,1.2,0.3
				c0.2,0.2,0.3,0.5,0.3,0.7c0,0.2,0,0.4-0.1,0.6c-0.1,0.2-0.2,0.3-0.4,0.5c-0.2,0.1-0.5,0.2-0.8,0.3c0.1,0.1,0.2,0.2,0.3,0.5
				l0.5,0.6c0.2,0.2,0.3,0.4,0.5,0.7c0.2,0.2,0.3,0.4,0.3,0.4c0.1,0,0.1,0,0.1,0.1c0,0,0.1,0,0.2,0l0,0V53l0,0c-0.1,0-0.2,0-0.4,0
				c-0.2,0-0.3,0-0.5,0c-0.2-0.2-0.4-0.5-0.7-1c-0.4-0.5-0.8-1-1.2-1.5l0-0.1c0.1,0,0.2,0,0.3,0c0.4,0,0.7-0.1,0.9-0.3
				c0.2-0.2,0.3-0.4,0.3-0.8c0-0.3-0.1-0.5-0.3-0.7c-0.2-0.2-0.5-0.2-0.8-0.2c-0.2,0-0.5,0-0.7,0.1c0,0-0.1,0.5-0.1,1.3v1.6l0,0.7
				c0,0.3,0,0.4,0,0.5c0,0.1,0,0.1,0,0.1c0,0,0.1,0,0.1,0.1c0.1,0,0.2,0,0.5,0l0,0V53l0,0c0,0-0.2,0-0.6,0c-0.2,0-0.3,0-0.4,0
				c-0.1,0-0.4,0-1,0l0,0v-0.2l0,0c0.2,0,0.3,0,0.4,0c0.1,0,0.1,0,0.1-0.1c0,0,0-0.1,0.1-0.1c0-0.1,0-0.2,0-0.5l0-0.7v-1.6l0-0.7
				c0-0.3,0-0.4,0-0.5c0-0.1,0-0.1,0-0.1c0,0-0.1,0-0.1-0.1c-0.1,0-0.2,0-0.5,0l0,0V48.3z"/>
			<path class="st1" d="M266.6,51.9L266.6,51.9l0.2,0l0,0c0,0.3,0,0.5,0,0.5c0,0.1,0.1,0.1,0.2,0.2c0.1,0.1,0.2,0.1,0.4,0.2
				c0.2,0,0.3,0.1,0.5,0.1c0.2,0,0.5,0,0.6-0.1c0.2-0.1,0.3-0.2,0.4-0.4c0.1-0.2,0.2-0.4,0.2-0.6c0-0.1,0-0.3-0.1-0.4
				c-0.1-0.1-0.1-0.2-0.2-0.3c-0.1-0.1-0.2-0.1-0.3-0.1c-0.1,0-0.3-0.1-0.5-0.1c-0.2,0-0.4-0.1-0.5-0.1c-0.1,0-0.3-0.1-0.4-0.1
				c-0.1-0.1-0.2-0.1-0.3-0.2c-0.1-0.1-0.2-0.2-0.2-0.3c-0.1-0.1-0.1-0.3-0.1-0.4c0-0.4,0.1-0.8,0.4-1c0.3-0.3,0.7-0.4,1.2-0.4
				c0.2,0,0.4,0,0.6,0.1c0.2,0,0.4,0.1,0.6,0.2l0,0c0,0.2-0.1,0.5-0.1,0.9l0,0h-0.2l0,0c0-0.3,0-0.4,0-0.5c0-0.1-0.1-0.2-0.3-0.3
				c-0.2-0.1-0.4-0.2-0.6-0.2c-0.2,0-0.4,0-0.5,0.1c-0.2,0.1-0.3,0.2-0.4,0.4c-0.1,0.2-0.1,0.3-0.1,0.5c0,0.1,0,0.3,0.1,0.4
				c0.1,0.1,0.1,0.2,0.2,0.2s0.2,0.1,0.3,0.1c0.1,0,0.3,0.1,0.6,0.1c0.4,0.1,0.7,0.1,0.9,0.2c0.2,0.1,0.3,0.2,0.4,0.4
				c0.1,0.2,0.2,0.4,0.2,0.6c0,0.5-0.2,0.9-0.6,1.2c-0.4,0.3-0.9,0.5-1.4,0.5c-0.5,0-0.9-0.1-1.2-0.3l0,0
				C266.6,52.7,266.6,52.4,266.6,51.9z"/>
			<path class="st1" d="M270.3,48.2l0.4,0c0.3,0,0.5,0,0.5,0c0.1,0,0.4,0,1,0l0,0v0.2l0,0c-0.2,0-0.3,0-0.4,0c-0.1,0-0.1,0-0.2,0.1
				c0,0-0.1,0.1-0.1,0.2c0,0.1,0,0.2,0,0.4l0,0.8v1.6l0,0.7c0,0.3,0,0.4,0,0.5c0,0.1,0,0.1,0,0.1c0,0,0.1,0,0.1,0.1
				c0.1,0,0.2,0,0.5,0l0,0V53l0,0c0,0-0.2,0-0.6,0c-0.2,0-0.3,0-0.4,0c-0.1,0-0.4,0-1,0l0,0v-0.2l0,0c0.2,0,0.3,0,0.4,0
				c0.1,0,0.1,0,0.1-0.1c0,0,0-0.1,0.1-0.1c0-0.1,0-0.2,0-0.5l0-0.7v-1.6l0-0.7c0-0.3,0-0.4,0-0.5c0-0.1,0-0.1,0-0.1
				c0,0-0.1,0-0.1-0.1c-0.1,0-0.2,0-0.5,0l0,0L270.3,48.2L270.3,48.2z"/>
			<path class="st1" d="M276.7,48.2L276.7,48.2c0,0.2,0,0.6,0,1.1l0,0h-0.2l0,0l0-0.3c0-0.2,0-0.3,0-0.3c0,0,0-0.1,0-0.1
				c0,0-0.1,0-0.2,0c-0.1,0-0.3,0-0.4,0h-0.6c0,0.5,0,0.8,0,0.9v2l0,0.7c0,0.3,0,0.4,0,0.5s0,0.1,0,0.1c0,0,0.1,0,0.1,0.1
				c0.1,0,0.2,0,0.5,0l0,0V53l0,0c-0.6,0-0.9,0-1,0c-0.1,0-0.4,0-1,0l0,0v-0.2l0,0c0.2,0,0.4,0,0.4,0c0.1,0,0.1,0,0.1-0.1
				c0,0,0-0.1,0.1-0.1c0-0.1,0-0.2,0-0.5l0-0.7v-2c0,0,0-0.3,0-0.9h-0.5c-0.2,0-0.4,0-0.5,0c-0.2,0-0.2,0-0.3,0.1c0,0,0,0.2-0.1,0.4
				l0,0.3l0,0h-0.2l0,0c0-0.5,0-0.9,0-1.1l0,0c0.4,0,1,0,2,0C275.6,48.3,276.3,48.3,276.7,48.2z"/>
			<path class="st1" d="M277,48.6L277,48.6l0-0.2l0,0l1-0.2c0.1,0,0.1,0.1,0.2,0.2s0.2,0.2,0.3,0.4c0.1,0.2,0.3,0.5,0.5,0.8
				c0.2,0.4,0.4,0.7,0.6,1.1l0.3-0.5l0.4-0.6l0.7-1.2c0.1,0,0.2,0,0.3,0c0.1,0,0.1,0,0.2,0l0,0v0.1c-0.1,0.1-0.3,0.3-0.5,0.7
				c-0.2,0.3-0.4,0.6-0.5,0.8c-0.1,0.2-0.3,0.4-0.4,0.7c-0.2,0.3-0.3,0.4-0.3,0.5c0,0.1,0,0.1,0,0.2v0.5l0,0.5c0,0.2,0,0.3,0,0.4
				c0,0.1,0,0.1,0.1,0.2c0,0,0.1,0,0.1,0.1c0.1,0,0.2,0,0.4,0l0,0V53l0,0c0,0-0.2,0-0.6,0c-0.2,0-0.3,0-0.4,0c-0.1,0-0.4,0-1,0l0,0
				v-0.2l0,0c0.2,0,0.4,0,0.4,0c0.1,0,0.1,0,0.1-0.1c0,0,0-0.1,0.1-0.1c0-0.1,0-0.2,0-0.4l0-0.6V51c0-0.1-0.2-0.4-0.5-0.9l-0.3-0.5
				c-0.1-0.2-0.2-0.3-0.4-0.5c-0.1-0.2-0.3-0.3-0.3-0.4s-0.1-0.1-0.2-0.1C277.3,48.6,277.2,48.6,277,48.6z"/>
		</g>
	</g>
</g>
</svg>
