<?xml version="1.0" encoding="utf-8"?>
<!-- Generator: Adobe Illustrator 22.0.0, SVG Export Plug-In . SVG Version: 6.00 Build 0)  -->
<svg version="1.1" id="图层_1" xmlns="http://www.w3.org/2000/svg" xmlns:xlink="http://www.w3.org/1999/xlink" x="0px" y="0px"
	 viewBox="0 0 176.4 68.9" style="enable-background:new 0 0 176.4 68.9;" xml:space="preserve">
<style type="text/css">
	.st0{fill:#FFFFFF;}
</style>
<g>
	<path class="st0" d="M17.2,45.8c0.5,0.4,1,0.8,1.4,1.4c0.2,0.3,0.4,0.4,0.5,0.4c0.2,0,0.3-0.3,0.3-0.7c0-0.6-0.4-1.1-1.2-1.6
		c-1.7-1.2-4.2-2.4-7.6-3.5c0.8-2,1.3-3.8,1.7-5.3c0.1-0.2,0.1-0.4,0.1-0.6c-0.2-0.4-0.5-0.6-1-0.7c0,0-0.1,0-0.2,0
		c-0.1,0-0.2,0.1-0.3,0.1c0,0,0,0.1,0,0.1v0.1c0,0.1,0.1,0.2,0.2,0.3c0.1,0.1,0.2,0.3,0.2,0.3c0,0,0.1,0.1,0.1,0.2
		c-0.5,1.9-1,3.6-1.8,5.2c0,0-0.1,0-0.2,0.1c-0.1,0-0.2,0-0.2,0.1c-0.1,0-0.2,0.1-0.1,0.1c-0.1,0-0.1,0-0.1,0.1
		c0,0.1,0.1,0.2,0.3,0.3c-0.8,1.6-1.8,2.8-3,3.5c-0.1,0-0.3,0.1-0.5,0.1c-0.2,0-0.3-0.1-0.3-0.3l-0.1-0.1c0,0-0.1,0.1-0.1,0.3
		c0,0-0.1,0-0.1,0.1L5.3,46c0,0.1,0,0.2,0,0.3c0,0.5,0.3,0.8,0.8,1c0.5,0.1,0.9-0.1,1.2-0.5c1-1,2.1-2.5,3.1-4.4
		C13.1,43.4,15.4,44.5,17.2,45.8z"/>
	<path class="st0" d="M24.7,35.9c0.3,0.5,0.5,0.9,0.5,1.2c0,0,0,0.1-0.1,0.1c-0.1,0-0.1,0.1-0.1,0.2c0,0.1,0.1,0.2,0.2,0.2h0.1
		l0.1-0.1c0,0,0.1,0.1,0.1,0.3c0.1,0.5,0.3,0.7,0.7,0.7c0.2-0.1,0.4-0.3,0.5-0.7c0-0.1,0-0.2-0.1-0.4c0-0.1-0.1-0.2-0.1-0.3
		c-0.3-1.1-1-1.7-2.1-1.8c0,0.1,0,0.3,0.1,0.4C24.6,35.8,24.7,35.8,24.7,35.9z"/>
	<path class="st0" d="M21,39.9c0,0,0.1,0.1,0.1,0.1c0.3,0.2,0.7,0.2,1.2,0.1c0.4-0.1,0.9-0.2,1.7-0.3c0.7-0.1,1.3-0.2,1.6-0.3
		c0.1,0,0.4-0.1,0.7-0.1c0.3,0,0.5-0.1,0.6-0.1c-0.1,0.1-0.1,0.2-0.1,0.3c-0.2,1.3-0.6,2.4-1.1,3.3c-0.3-0.3-0.5-0.6-0.7-0.9
		c-0.1-0.1-0.2-0.3-0.3-0.5c-0.4-0.8-0.8-1.2-1.2-1.2c-0.2,0-0.3,0.1-0.3,0.3c0,0.4,0.1,0.6,0.5,0.6c0.1,0,0.2,0.1,0.3,0.3l0.1,0.1
		c0.5,0.7,1,1.3,1.4,1.9c-0.7,1.2-1.7,2.2-2.9,2.8c-1,0.5-2.1,0.9-3.2,1.2v0.1c0.3,0.1,0.8,0.2,1.7,0.3c1-0.1,2.1-0.6,3.2-1.4
		c0.5-0.4,1.1-1.2,1.8-2.2c0.9,1,1.9,2,3,2.8c1,0.5,2.3,0.8,4.1,0.7c0.2,0,0.3,0,0.3-0.1c0-0.3-0.3-0.5-0.9-0.5c0,0-0.1,0-0.2-0.1
		c-1.7-0.5-2.9-1-3.7-1.5c-0.6-0.3-1.3-1-2.2-1.9c0.4-0.6,0.6-1.3,0.8-2c0,0,0-0.2,0.1-0.5c0.1-0.5,0.2-0.8,0.2-1
		c0-0.3-0.1-0.5-0.3-0.7c0.7,0,1.7-0.1,2.9-0.1c0.4,0,0.6-0.1,0.6-0.3c-0.1-0.3-0.6-0.5-1.4-0.5c-1.2,0.1-3,0.3-5.3,0.7
		c-0.4,0-0.7,0.1-1,0.1c-0.8,0.1-1.4,0.1-1.8,0.1c0,0-0.1,0-0.2,0c-0.1,0-0.2,0.1-0.3,0.1l0.1,0.1C20.7,39.7,20.8,39.8,21,39.9z"/>
	<path class="st0" d="M39.9,40.3c0.1,0,0.2-0.1,0.3-0.1c0.1,0,0.2-0.1,0.3-0.1c0,0,0.1-0.1,0.1-0.1h0.1l0.1-0.1c0,0,0.1,0,0.1-0.1
		v-0.1v-0.1c0,0,0-0.1,0-0.1c0,0,0-0.1,0-0.1v-0.1c0,0,0.1,0,0.1-0.1v-0.1h-0.1h-0.1h-0.1c-0.2,0-0.4-0.1-0.6-0.1
		c-0.4,0-0.8,0-1.3,0.1c0-0.2,0-0.5,0-0.8c0-0.4,0-0.8-0.1-1.2c1-0.3,1.4-0.7,1.4-1.3c-0.2-0.5-0.5-1-0.8-1.4
		c-0.1,0-0.1-0.1-0.1-0.1c-0.1,0-0.2,0-0.2-0.1c0,0-0.1,0-0.1,0.1c0,0,0.1,0.1,0.1,0.1c0,0.2,0,0.3,0,0.4c0,0.2,0,0.4-0.1,0.5
		c0,0-0.1,0.1-0.3,0.2c-0.1,0-0.2,0.1-0.4,0.1c-1.6,0.6-2.7,1.2-3.5,1.9c-0.1,0-0.2,0.1-0.3,0.3c0,0,0,0.1,0.1,0.1
		c0.1,0,0.2-0.1,0.3-0.1c1.1-0.2,2.2-0.4,3.1-0.5c0,0.1-0.1,0.5-0.1,1.2c0,0.5-0.1,0.9-0.1,1.1c-0.7,0.2-1.6,0.5-2.7,1
		c-0.2,0.1-0.4,0.2-0.5,0.2c-0.7,0.2-1.2,0.3-1.6,0.3c-0.1,0-0.1,0-0.1,0.1c0,0.1,0.2,0.2,0.5,0.3c0.6,0.3,1.2,0.4,1.7,0.1
		c0.2,0,0.5-0.1,0.8-0.3c0.9-0.4,1.6-0.6,2-0.7c0,0.1,0,0.2,0,0.3c-0.4,0.7-1.1,1.8-2.1,3.3c-0.4,0.5-0.7,1-0.9,1.3
		c-0.1,0.1-0.1,0.2-0.1,0.3c0,0.3,0.2,0.5,0.5,0.6h0.1c0.1,0,0.3,0.1,0.4,0.1c0.1,0,0.2,0,0.3-0.1c0.1,0,0.2-0.1,0.2-0.1
		c0.2-0.2,0.5-0.4,1-0.7c0.2-0.1,0.4-0.2,0.5-0.3c-0.1,1.2-0.1,1.3,0,0.2c-0.1,1.5-0.1,2.6-0.1,3.2v0.1c0,0.1,0.1,0.2,0.1,0.2h0.1
		V49c0.1,0.1,0.2,0.2,0.2,0.2c0.1,0.2,0.3,0.3,0.4,0.3c0.1,0,0.2-0.1,0.3-0.2c0,0,0-0.1-0.1-0.1v-0.1c0,0,0-0.1,0.1-0.2
		c0-0.1,0.1-0.2,0.1-0.3c0-1.4,0-2.8,0.1-4.3c1-1,1.6-1.7,1.9-2.2c0.2-0.3,0.1-0.3-0.1-0.1c-0.7,0.5-1.3,0.9-1.8,1.2
		c0-0.3,0-0.7,0-1.2c0-0.5,0.1-1,0.1-1.3c0,0,0.1-0.1,0.1-0.1l0.1-0.1c0.4-0.1,0.5-0.1,0.2,0C39.5,40.4,39.8,40.3,39.9,40.3z
		 M37.6,43.9c0,0-0.1,0-0.2,0.1c-0.1,0-0.2,0.1-0.3,0.1c0-0.1,0.1-0.2,0.3-0.5c0.1-0.2,0.2-0.3,0.2-0.4
		C37.6,43.5,37.6,43.7,37.6,43.9z"/>
	<path class="st0" d="M44.8,43.2c-0.5-0.2-1.2-0.2-2.1,0.1c-0.3-0.7-0.5-1.5-0.7-2.3c0-0.2-0.1-0.4-0.2-0.5c0-0.1,0-0.2-0.1-0.3
		c0-0.1-0.1-0.2-0.1-0.3h-0.1c0,0-0.1,0.1-0.2,0.1C41.1,40,41,40.2,41,40.3c-0.2,0.6-0.3,1.3-0.1,2c0.2,0.7,0.4,1.4,0.7,2
		c0.4,0.3,0.7,0.3,1,0.1c0.1-0.1,0.2-0.2,0.3-0.5c0,0,0-0.1,0-0.1c0.3,0,0.6,0,0.8,0c0.2,0.5,0.5,0.8,1,0.9c0.5,0,0.8-0.1,1-0.4
		c0.6-1.1,1-2.2,1.2-3.3c0.1-0.4,0.2-0.6,0.1-0.8c0-0.2-0.2-0.3-0.4-0.4c-0.2-0.1-0.5-0.2-0.8-0.3c0,0-0.1-0.1-0.1-0.1
		c-0.1,0-0.3,0.1-0.4,0.1c-1,0.1-2,0.4-3.1,0.7c-0.2,0-0.3,0.1-0.3,0.2l0.1,0.1c0,0,0.1,0,0.3,0c0.3,0,0.5,0.1,0.6,0.1
		c0.1,0,0.2,0,0.4-0.1c0.2,0,0.3-0.1,0.4-0.1c0.9-0.2,1.5-0.2,1.8,0c0.2,0.1,0.2,0.4,0.1,0.7C45.4,41.8,45.1,42.6,44.8,43.2z"/>
	<path class="st0" d="M50.4,34.2c-0.3,0-0.5,0.1-0.6,0.2v0.1c0,0.3,0.2,0.6,0.5,0.9l0.1,0.1c0,0,0.1,0.1,0.1,0.1
		c0,0.1,0.1,0.2,0.2,0.2c0,0.1,0.1,0.1,0.1,0.1c0,0.2,0.1,0.3,0.1,0.4c0,0,0,0.1-0.1,0.1c0,0.1-0.1,0.2-0.1,0.2
		c0,0.1,0.1,0.1,0.2,0.1c0.1,0,0.2,0,0.3-0.1c0.1-0.1,0.2-0.2,0.3-0.1c0,0,0.2,0,0.4,0.1h0.1c0.6,0,1-0.3,1-0.8c0-0.5-0.3-1-0.7-1.3
		c-0.7-0.3-1.3-0.5-1.9-0.4C50.5,34.2,50.4,34.2,50.4,34.2z"/>
	<path class="st0" d="M58.6,45.3c0.1,0,0.3,0,0.5,0.1c0.4,0.1,0.6,0.1,0.8,0.1c0.5-0.1,0.5-0.4,0.1-0.8c-0.2-0.2-0.6-0.3-1.2-0.3
		c-1,0-1.8,0-2.3,0.1c0.1-1,0.1-2.1,0.1-3.3c0.4-0.1,0.9-0.2,1.5-0.3c0.1,0,0.2,0,0.3-0.1c0.3-0.1,0.5-0.2,0.5-0.3
		c0.1-0.4,0-0.6-0.3-0.5c-0.1,0-0.4,0.1-0.7,0.1c-0.6,0.1-1,0.2-1.4,0.3c0-1,0-1.9,0-2.7c0,0,0-0.2,0.1-0.4v-0.2
		c0-0.8-0.3-1.2-0.7-1.2c-0.2,0-0.3,0.1-0.4,0.2c0,0.2,0.1,0.5,0.3,0.9c0,0.5,0,1.3,0,2.3c0,0.6,0,1,0,1.3c-1,0.2-1.8,0.3-2.5,0.3
		c0,0-0.1,0.1-0.2,0.1l-0.1-0.1c-0.2,0.2-0.3,0.4-0.3,0.4c0,0,0.1,0.1,0.1,0.1c-0.2,0.3-0.5,0.5-0.7,0.7c0-0.5,0.1-1.1,0.2-1.8
		c0.1-0.4,0.1-0.6,0.1-0.8c0.1-0.1,0.2-0.2,0.1-0.3c0-0.4-0.2-0.6-0.4-0.7c-0.4,0-0.7,0.1-1.2,0.3c-0.8,0.3-1.6,0.6-2.6,0.7h-0.1
		c-0.1,0-0.3,0-0.5-0.1c-0.2,0-0.4-0.1-0.5-0.1l-0.1,0.1c0,0,0,0.1,0,0.1c0,0-0.1,0-0.1,0.1c0,0,0,0.1,0.1,0.1
		c0.1,0.3,0.2,0.5,0.3,0.5c0.3,0.3,0.7,0.5,1.1,0.5c0.3,0,0.9-0.2,1.8-0.6c-0.2,0.3-0.4,0.7-0.7,1.2c-0.2,0.4-0.4,0.7-0.5,0.9
		c-0.5,0.9-1.2,1.8-1.9,2.7c0,0-0.1,0.1-0.1,0.2c-0.1,0.2-0.2,0.4-0.3,0.4v0.1c0,0.2,0,0.4,0.1,0.5l0.3,0.3c0.1,0,0.2,0,0.2,0
		c0.5,0,0.7,0,0.8-0.1c0.1-0.1,0.3-0.2,0.6-0.5c0.9-0.6,1.5-1.2,1.9-1.6c0,0.5,0,1.2-0.1,2.1c-0.1,1.1-0.2,2-0.2,2.6
		c0.1,0.4,0.3,0.6,0.5,0.7c0.5,0.1,0.7-0.2,0.7-1c0-0.1,0-0.2,0-0.3c0-1.8,0.1-3.5,0.3-5.3c0.2-0.3,0.4-0.5,0.6-0.7
		c0.1-0.2,0.2-0.4,0.3-0.5c0,0-0.1,0-0.2,0.1c0-0.1,0-0.2,0.1-0.3c0,0,0-0.1,0.1-0.2c0-0.1,0.1-0.2,0.1-0.2c0.3,0.1,0.6,0.1,1,0.1
		c0.5,0,0.9-0.1,1.4-0.2c0.2,0,0.4-0.1,0.5-0.1c0,1.9-0.2,3-0.8,3.3c-1.1,0.2-2,0.3-2.7,0.3c-0.1,0-0.2,0-0.2,0
		c0.2,0.3,0.4,0.5,0.5,0.6c0.2,0,0.3,0.1,0.5,0.1c0.3,0,0.7,0,1.2-0.1c0.4-0.1,0.7-0.1,1-0.1c0.1,0,0.4,0,0.7-0.1
		C57.2,45.2,58,45.2,58.6,45.3z M51,42.2c0,0.2,0,0.4,0,0.5c-0.1,0-0.3,0.1-0.5,0.3c-0.2,0.1-0.4,0.2-0.5,0.3
		c0.2-0.3,0.5-0.7,0.9-1.4c0-0.1,0.1-0.2,0.1-0.3C51.1,41.7,51.1,41.9,51,42.2z"/>
	<path class="st0" d="M67.2,41.9c0.1,0,0.3,0,0.4-0.1c0.7,0,1.1-0.1,1.2-0.3c-0.1-0.3-0.5-0.4-1.1-0.4c-0.3,0-0.7,0.1-1.2,0.1
		c-0.4,0-0.7,0.1-0.9,0.2c0,0,0.1,0.1,0.2,0.2l0.1,0.1c0.1,0,0.4,0.1,0.7,0.1c0.3,0,0.5,0.1,0.7,0.1L67,41.9H67.2z"/>
	<path class="st0" d="M70,43.4c0,0,0.1,0,0.2-0.1v-0.1C70,43.1,69.7,43,69.4,43c-0.7,0-1.6,0.2-2.7,0.4c-1.1,0.2-2,0.3-2.7,0.3
		c-0.3,0-0.5,0-0.7,0.1c0,0-0.1,0-0.1,0.1c0,0.3,0.5,0.4,1.4,0.5c0.2,0,0.5-0.1,1.1-0.2c0.3-0.1,0.5-0.2,0.7-0.2
		c-0.2,0.8-0.8,1.6-1.9,2.5c0,0-0.1,0.1-0.2,0.1c-0.4,0.2-0.6,0.4-0.7,0.7v0.1c0,0.1-0.1,0.2-0.1,0.2c0,0,0.1,0.1,0.2,0.2
		c0.1,0.3,0.4,0.4,0.7,0.4c0,0,0.1,0,0.2-0.1c0.1,0,0.2-0.1,0.2-0.1c1.7-0.5,3-0.9,4-1.4c0,0.1,0.1,0.4,0.1,0.7
		c0,0.3,0.1,0.5,0.1,0.6c0,0.1,0.2,0.2,0.3,0.3c0.1,0,0.2,0.1,0.3,0.2c0,0,0-0.1,0.1-0.1c0.1,0,0.2-0.1,0.2-0.1
		c0.1-0.2,0.1-0.4,0.1-0.5c0-0.8-0.3-1.6-0.7-2.5c-0.3-0.4-0.6-0.6-1.1-0.7c0,0.1,0,0.3,0.1,0.5c0.1,0.4,0.2,0.7,0.3,1.2
		c-0.7,0.3-1.6,0.5-2.7,0.7c-0.1,0-0.3,0-0.3-0.1c0.2-0.3,0.5-0.6,0.8-1c0.6-0.6,0.9-1.1,0.9-1.3c0-0.1,0-0.3-0.1-0.5
		c0-0.1-0.1-0.2-0.1-0.3c0.3-0.1,0.8-0.2,1.5-0.2C69.5,43.6,69.9,43.6,70,43.4z"/>
	<path class="st0" d="M68,35.2c0,0,0-0.1,0.1-0.1c0.1-0.1,0.1-0.2,0.1-0.3c-0.1-0.4-0.4-0.7-1-0.7h-0.1c-0.1,0-0.1,0-0.1,0.1
		c0,0,0,0.1,0.1,0.2c0.1,0.3,0.1,0.5,0.1,0.8c-1,3.5-2.7,6.2-5,7.8c-0.4,0.3-0.9,0.6-1.4,0.9c-0.2,0.1-0.3,0.2-0.4,0.2
		c0,0-0.1,0.1-0.2,0.1c0,0,0.1,0.1,0.2,0.1c0,0,0.2,0,0.4,0.1H61c0,0,0.1,0,0.2-0.1c0,0,0.1,0,0.1,0.1h0.1c0.1,0,0.2-0.1,0.2-0.1
		c1.9-0.6,3.7-2.8,5.4-6.5c0.4,0.1,1,0.6,1.6,1.4c0.9,1,2,2,3.3,3.3c0.9,0.6,2.1,0.9,3.5,1h0.4c0.2-0.1,0.3-0.2,0.3-0.3
		c0-0.2-0.2-0.3-0.4-0.4c-0.4-0.2-1-0.4-1.8-0.7c-0.6-0.2-1-0.3-1.2-0.4c-1.1-0.5-2.4-1.5-3.9-2.9c-0.4-0.5-1-0.9-1.7-1.3
		c0-0.1,0.1-0.3,0.2-0.6C67.7,36,67.9,35.5,68,35.2z"/>
	<path class="st0" d="M85.5,40.6c0-0.2,0-0.5,0.1-1c0-1.1,0.1-2,0.1-2.6c0-1.1-0.1-2-0.2-2.5c0,0,0-0.1,0-0.2v-0.1
		c0,0-0.1-0.1-0.1-0.1c0,0-0.1-0.1-0.1-0.1h-0.3c-0.1,0-0.2,0.2-0.2,0.4c0,0.1,0,0.2,0.1,0.4c0,0.1,0,0.2,0,0.3c0,0.6,0,1.5,0,2.8
		c0,1.2,0,2.2-0.1,2.8c-0.8,0.1-1.6,0.4-2.4,0.7c-0.5,0.2-1,0.4-1.4,0.5h-0.3c0,0-0.1,0.1-0.2,0.2c0,0.1,0.1,0.2,0.3,0.2h0.3
		c0.5,0,0.8,0,1-0.1c0.1,0,0.3,0,0.5-0.1l0.1-0.1c0.9-0.4,1.6-0.5,2-0.5c-0.1,3.2-0.1,5.7-0.1,7.3c0,0.1,0,0.2,0.1,0.3
		c0,0.1,0.1,0.2,0.1,0.3v0.2c0,0.2,0.1,0.3,0.1,0.3c0,0,0.1,0,0.1,0c0.2-0.1,0.3-0.3,0.5-0.7l-0.1-0.1c0,0,0-0.1,0.1-0.2
		c0-0.1,0.1-0.2,0.1-0.2c0-2.3,0-4.8,0-7.6c0.1,0,0.3,0,0.5-0.1c0.5,0,0.9-0.1,1.2-0.1c0.1,0,0.2,0,0.4,0.1c0.2,0,0.3,0.1,0.4,0.1
		h0.2c0,0,0-0.1,0.1-0.1l0.1-0.1v-0.1c0-0.1,0-0.2,0-0.3c0-0.1-0.1-0.2-0.1-0.3c-0.5,0-1-0.1-1.4-0.4c-0.1,0-0.1,0.1-0.1,0.2
		c0.1,0.1,0.1,0.2,0.1,0.3C86.5,40.4,86.1,40.5,85.5,40.6z"/>
	<path class="st0" d="M76.3,38.7h0.1c0.1-0.1,0.3-0.2,0.5-0.3c0.8-0.2,1.5-0.5,2.3-0.7c0.2-0.1,0.4-0.2,0.7-0.2
		c0.4-0.1,0.6-0.2,0.8-0.3c0.1,0,0.2-0.1,0.2-0.3c0.2-0.1,0.3-0.3,0.3-0.4c-0.1-0.5-0.4-0.8-0.9-1c-0.2,0-0.3,0.1-0.3,0.2
		c0,0.1,0,0.2-0.1,0.2c-0.1,0.1-0.3,0.3-0.6,0.5c-0.3,0.1-0.5,0.2-0.5,0.3c-0.2,0.1-0.3,0.2-0.2,0.1c-0.5,0.5-1,0.8-1.4,1.1
		c0,0-0.1,0.1-0.3,0.2C76.7,38.4,76.5,38.6,76.3,38.7z"/>
	<path class="st0" d="M82.5,38.7c-0.6,0.3-0.9,0.5-0.9,0.6c0,0.4,0.3,0.6,1,0.7c0.2,0,0.3,0.1,0.3,0.1c0,0,0.1,0,0.3,0.1
		c0.1,0,0.2,0.1,0.2,0.1c0.1,0,0.2,0.1,0.2,0.1c0.1,0,0.2,0,0.2,0.1c0,0,0.1-0.1,0.2-0.2c0-0.2-0.2-0.4-0.3-0.5l-0.1-0.1
		c-0.4-0.2-0.7-0.3-1-0.3c-0.4-0.1-0.5-0.2-0.5-0.2c0.2-0.3,0.6-0.5,1.4-0.7c0,0,0.1,0,0.1,0c0,0,0.1,0,0.3,0.1l0.3,0.1v0.1
		c0.1,0,0.2-0.1,0.2-0.3c-0.2-0.6-0.9-1-2-1.4c-0.2,0-0.3,0-0.3,0.1c0,0.1,0,0.1,0.1,0.1c0,0,0.1,0.1,0.1,0.1
		c0.5,0.3,0.8,0.5,1.2,0.8C83.4,38.2,83.1,38.4,82.5,38.7z"/>
	<path class="st0" d="M78.9,46.8v0.7c0.2,0.2,0.4,0.4,0.5,0.4c0,0,0.1,0,0.1,0c0,0,0.1-0.1,0.1-0.1v-0.1h0.1c0-0.2,0.1-0.4,0.1-0.7
		c0-0.2,0-0.5,0.1-1c0-1.9,0.1-3.1,0.2-3.7c0.2-0.2,0.4-0.3,0.4-0.5c0.1-0.1,0.2-0.2,0.3-0.3c0.1-0.1,0.2-0.2,0.2-0.3
		c-0.1,0-0.3,0-0.5,0.1c-0.1,0-0.3,0.1-0.3,0.1c0-0.1,0.1-0.4,0.1-0.8c0-0.4,0.1-0.7,0.1-0.9c0.1,0,0.3-0.1,0.7-0.3l0.5-0.1
		c0-0.2-0.3-0.3-0.6-0.5c0,0-0.1,0-0.3,0c-0.2,0-0.3,0.1-0.4,0.1c0-0.1,0-0.3-0.1-0.6c0,0,0-0.2-0.1-0.3v-0.3c0,0-0.1,0-0.2,0
		c-0.2,0-0.3,0.3-0.3,1c0,0.2,0,0.4,0,0.5c-0.8,0.3-1.7,0.7-2.9,1c-0.8,0.1-1.5,0.4-2.2,0.7c0,0-0.1,0-0.2,0.1c0,0-0.1,0-0.1,0.1
		c0.1,0,0.2,0.1,0.3,0.2c0.2,0.1,0.4,0.2,0.5,0.3c0.2,0,0.5,0,0.7,0h0.1c0.2,0,0.6-0.1,1-0.4c0.3-0.1,0.5-0.2,0.6-0.3
		c0.8-0.4,1.4-0.6,1.8-0.7c-0.3,0.4-0.7,1-1.4,1.9c-0.6,0.8-1,1.4-1.3,1.8c-0.3,0.3-0.5,0.5-0.6,0.8v0.1l0.1,0.1c0,0.1,0,0.2,0,0.2
		c0,0,0.1,0.1,0.3,0.1c0,0,0.1,0.1,0.1,0.1h0.3c0.1-0.1,0.2-0.2,0.4-0.3c0.1,0,0.2-0.1,0.2-0.1c0.2-0.2,0.5-0.5,1-0.8
		c0.4-0.4,0.7-0.6,0.9-0.7c0,0.1,0,0.3,0,0.5C79,45.1,79,46.1,78.9,46.8z M79.1,42.1c0,0-0.1,0-0.1,0.1c0-0.1,0.2-0.3,0.3-0.5
		c0,0.1,0,0.2-0.1,0.4L79.1,42.1z"/>
	<path class="st0" d="M95.7,34.4c-0.2-0.2-0.4-0.4-0.6-0.4c-0.3,0-0.4,0.2-0.5,0.3c0,0.4,0.1,0.6,0.2,0.7c0.2,0.4,0.3,0.7,0.3,0.9
		c0,0.1,0.1,0.2,0.1,0.3c0.5,0.4,0.9,0.2,1.1-0.3c0-0.5-0.1-0.9-0.3-1.2C96,34.6,95.9,34.5,95.7,34.4z"/>
	<path class="st0" d="M98,38.7c1.2,0,1.8,0.2,1.9,0.3h0.1c-0.6,0.6-1.3,1-2,1.4c0-0.3-0.3-0.5-0.6-0.5c-0.1,0-0.3,0-0.5,0.1
		c-0.3,0-0.7,0.1-1.2,0.3c-0.6,0.2-1.1,0.3-1.4,0.3c-0.3,0-0.5,0-0.7-0.1c-0.4,0-0.6,0.3-0.7,0.8c0.1,0.4,0.4,0.5,1,0.3
		c0.4-0.2,0.7-0.4,1-0.5c0.1,0,0.2-0.1,0.3-0.1c0.7-0.2,1.2-0.4,1.6-0.5c-0.5,0.8-1,1.4-1.6,1.8c0,0-0.2,0-0.4,0
		c-0.2,0-0.3,0-0.4,0.1v0.1c0,0.1,0.1,0.2,0.3,0.3c0.1,0,0.2,0,0.2,0.1c0.1-0.1,0.2-0.2,0.2-0.1c0.2,0,0.3,0.1,0.4,0.3
		c0.3,0.3,0.4,0.7,0.4,1.2c-2,0.5-3.2,1-3.6,1.3c0,0,0,0.1-0.1,0.1c-0.1,0.1-0.1,0.2-0.1,0.3c0,0.1,0,0.2,0,0.3v0.1
		c0,0,0.1-0.1,0.1-0.1c0.1-0.1,0.2-0.1,0.3-0.1c0,0,0.1,0,0.1,0.1c0,0,0,0.1-0.1,0.1c0,0.1-0.1,0.2-0.1,0.3c0,0,0.1-0.1,0.2-0.2
		c0.1-0.2,0.2-0.3,0.3-0.3c0.7-0.3,1.7-0.6,3.1-0.9c0.2,1.6,0,2.8-0.5,3.6c-0.2,0.3-0.5,0.4-0.8,0.4c-0.5,0-1.1-0.3-1.7-0.7
		c-0.2-0.2-0.2-0.2-0.1,0.1c0.3,0.4,0.7,0.9,1.2,1.4c0.3,0.2,0.6,0.3,0.9,0.3c0.8-0.2,1.3-0.7,1.6-1.4c0.3-1.1,0.4-2.4,0.1-3.7
		c0.3,0,0.7,0,1.1,0c0.2,0,0.3,0.1,0.4,0.1c0.5,0,0.8-0.2,0.9-0.5c0-0.2-0.4-0.3-1.2-0.5c-0.1,0-0.3,0-0.5,0.1c-0.4,0-0.6,0-0.8,0.1
		c-0.1-0.7-0.4-1.2-0.9-1.6c0.3,0,0.6-0.1,0.9-0.3c0.7-0.7,1.2-1.2,1.3-1.6c0.2-0.1,0.4-0.2,0.7-0.3c0,0,0.1,0,0.1,0.1h0.2
		c0,0,0.1,0.1,0.1,0.1c1,0,1.7-0.1,2.1-0.3c0.5-0.2,0.7-0.5,0.7-0.7c-0.3-0.5-0.9-0.9-1.8-1.2c-1-0.3-2.6-0.2-4.8,0.3
		c1.5-1,2.8-2.1,4-3.3c0,0,0.1-0.1,0.1-0.1c0.1-0.1,0.2-0.3,0.2-0.5c-0.2-0.5-0.7-0.7-1.4-0.9c-0.3,0-0.6,0.1-1,0.2v0.1h0.1
		c0.1,0,0.2,0,0.3,0c0.3,0,0.5,0.1,0.7,0.3c0,0.1-0.2,0.4-0.5,0.7c0,0.1-0.1,0.2-0.1,0.2c-1.1,1.3-2.4,2.5-3.7,3.6
		c-0.9,0.3-1.6,0.5-2,0.7c0,0,0-0.2-0.1-0.4c0-0.2-0.1-0.4-0.1-0.5c0.1-0.2,0.1-0.3-0.1-0.3c0,0-0.1-0.1-0.1-0.1
		c0,0.1-0.2,0.3-0.4,0.5c-0.1,0.1-0.2,0.2-0.3,0.3c-0.1,0.1-0.2,0.4-0.4,0.7c-0.1,0.1-0.2,0.3-0.2,0.3c-0.4,0.6-0.6,1.2-0.5,1.6
		c0.4,0.6,0.8,0.6,1.3-0.2c0,0,0.1-0.1,0.1-0.3c0.2-0.4,0.3-0.7,0.4-0.8C93.1,39.5,95.2,38.9,98,38.7z"/>
	<path class="st0" d="M94,35.7c-0.5-0.6-1.1-0.8-1.8-0.7h-0.1c0,0-0.1,0-0.2,0c0,0.4,0.3,0.8,0.7,1.4c0.3,0.7,0.5,1.1,0.5,1.2
		c0,0,0.1,0.1,0.3,0.1c0,0,0.1,0,0.1,0c0,0,0.1,0,0.1,0.1c0.1,0.1,0.2,0.1,0.3,0.1c0.4-0.1,0.5-0.4,0.4-0.8c0-0.1,0-0.2,0-0.3
		C94.4,36.3,94.2,36,94,35.7z"/>
	<path class="st0" d="M108.9,41.9c0,0,0.1-0.1,0.1-0.2l0.1-0.2h0.4c0.1,0,0.3,0,0.6-0.1c0.4,0,0.6,0,0.6-0.1c0-0.2,0.1-0.4,0.1-0.4
		c0.1,0,0.2-0.1,0.2-0.1c0.1-0.1,0.2-0.3,0.3-0.5c0.1-0.2,0.2-0.4,0.2-0.5c0.1,0,0.2-0.2,0.5-0.6c0-0.6-0.3-0.9-0.7-1
		c-0.4,0-1,0.1-1.7,0.3c-0.4,0.1-0.7,0.2-1,0.2h-0.1c-0.1,0-0.2,0-0.3-0.1c-0.1-0.1-0.2-0.2-0.3-0.2c0,0,0-0.1-0.1-0.1
		c-0.1,0-0.2,0.1-0.2,0.3c0,0,0,0.2,0,0.4c0,0.3-0.1,0.4-0.1,0.5c0,1,0.4,1.9,1,2.5c0,0,0.1,0,0.2,0
		C108.8,41.9,108.8,41.9,108.9,41.9z M108.7,39.2c0.1,0,0.2,0,0.4-0.1c0.7-0.2,1.2-0.3,1.5-0.3h0.1c-0.1,0.5-0.4,1.2-0.7,2
		c-0.2,0-0.5,0.1-1,0.1h-0.1c-0.2-0.1-0.3-0.7-0.4-1.6C108.6,39.2,108.6,39.2,108.7,39.2z"/>
	<path class="st0" d="M113.8,48.5c0.6-1.1,1-2.5,1.4-4.1c0-0.1,0.1-0.2,0.2-0.4c0.1-0.3,0.2-0.5,0.2-0.7c0-0.2-0.1-0.3-0.3-0.4
		c-0.1,0-0.2-0.1-0.2-0.1c-0.5-0.3-0.9-0.5-1.3-0.5c-2.3,0-4.9,0.3-7.9,1c-0.1,0-0.2,0-0.2-0.1c-0.1-0.1-0.2-0.1-0.3-0.1h-0.1
		c0,0.1,0,0.2-0.1,0.4c-0.1,0.1-0.1,0.3-0.1,0.4c0.2,1.5,0.4,2.7,0.7,3.9c0,0.1,0.1,0.2,0.1,0.4c0.2,0.1,0.4,0.2,0.6,0.3
		c0.1-0.1,0.2-0.2,0.3-0.4c0-0.2-0.1-0.5-0.2-0.8c0-0.5-0.2-1.2-0.4-2.2c-0.1-0.6-0.2-1.1-0.3-1.4c0.4,0,0.7,0.1,0.9,0.1
		c0.1,0,0.4,0,0.7-0.1c0.2,0,0.3-0.1,0.4-0.1c1.6-0.3,3.3-0.5,5.2-0.5c0.3,0,0.5,0,0.7,0c0.3,0,0.5,0.2,0.5,0.4
		c0,1.3-0.5,2.8-1.3,4.4c-0.2,0.3-0.5,0.5-0.8,0.7h-0.1c-0.2,0-0.4-0.1-0.6-0.3c-0.1-0.1-0.2-0.2-0.3-0.3c0.1,0.4,0.3,0.8,0.7,1.3
		c0.3,0.3,0.5,0.4,0.8,0.4C113,49.6,113.4,49.2,113.8,48.5z"/>
	<path class="st0" d="M111.5,45.3c0.1-0.2,0.2-0.4,0.2-0.4c0.1-0.1,0.2-0.2,0.2-0.3c0-0.4-0.1-0.5-0.2-0.5c0,0-0.2-0.1-0.5-0.1
		c-0.5,0-1.1,0.1-1.8,0.3c0,0-0.1,0-0.2,0.1c-0.4,0.1-0.6,0.1-0.7,0.1c-0.1,0-0.2,0-0.3-0.1c-0.1,0-0.2-0.1-0.3-0.1h-0.2v0.1
		c0,0,0,0.1,0.1,0.2c0,0.1,0,0.2,0,0.2c0.2,1,0.5,1.7,1.1,2c0.1,0,0.2,0,0.2,0c0.1,0,0.2,0,0.3-0.1c0.1,0,0.2,0,0.3,0
		c0.6,0,1,0,1.3-0.1c0-0.1,0.1-0.3,0.3-0.5c0.1-0.2,0.2-0.4,0.3-0.5C111.3,45.5,111.4,45.4,111.5,45.3z M110.6,44.9
		c-0.2,0.5-0.3,0.9-0.5,1.1c-0.1,0-0.3,0-0.5,0.1c-0.2,0-0.4,0-0.5,0.1c-0.1-0.2-0.3-0.7-0.6-1.4c0.2,0,0.5,0,0.8-0.1
		c0.1,0,0.2-0.1,0.3-0.1h0.3c0.3,0,0.5-0.1,0.5-0.1h0.1l0.1,0.1C110.7,44.6,110.7,44.7,110.6,44.9z"/>
	<path class="st0" d="M107.7,33.4v0.1c0,0-0.1,0.1-0.1,0.1c0.1,0.2,0.3,0.5,0.5,0.9c0.2,0.2,0.3,0.4,0.4,0.5c0,0.1,0.1,0.3,0.3,0.6
		c0,0.2,0.1,0.4,0.1,0.5v0.1c0.1,0.2,0.2,0.3,0.3,0.3c-1.8,0.3-3.2,0.3-4.2,0.2h-0.1c-0.4,0-0.6,0.1-0.6,0.3c0,0.2,0.2,0.4,0.5,0.6
		h0.1c0.2,0,0.6,0,1.1-0.1c0.1,0,0.2-0.1,0.3-0.1c2.8-0.4,5-0.5,6.7-0.4c0.3,0,0.5,0,0.7,0c0.2,0,0.4,0,0.5-0.1c0,0,0-0.1,0.1-0.1
		c0.2,0,0.3,0,0.3-0.3c0-0.2-0.5-0.4-1.4-0.4c-0.4,0-1,0-2,0.1c-0.8,0.1-1.4,0.1-1.8,0.1c0.3-0.3,0.5-0.7,0.5-1.2
		c0-0.3-0.1-0.5-0.1-0.6c0,0-0.1-0.1-0.1-0.2l-0.1-0.2c-0.2-0.3-0.7-0.5-1.4-0.6c-0.1,0-0.2-0.1-0.3-0.1
		C108,33.5,107.9,33.5,107.7,33.4z"/>
	<path class="st0" d="M127.1,35.4c-0.1,0-0.2,0-0.3,0.1c-0.2,0-0.4,0.1-0.5,0.1v-0.1l0.1-0.1c0.4-0.7,0.6-1.2,0.6-1.4
		c0-0.5-0.2-0.7-0.7-0.7c-0.6,0.3-1.3,0.9-2.1,1.8h0.1c0.1-0.1,0.3-0.2,0.5-0.3c0.1-0.1,0.2-0.2,0.3-0.2c0,0,0.1-0.1,0.1-0.1
		c0.2-0.3,0.4-0.4,0.6-0.4c0,0,0.1,0.1,0.1,0.2c0,0.5-0.5,1.3-1.4,2.6c-0.1,0.1-0.3,0.3-0.4,0.6c0,0-0.1,0-0.2,0c0,0,0,0.1-0.1,0.2
		c-0.3,0-0.5,0.1-0.5,0.3c0,0.1,0,0.3,0,0.5c0,0.5,0,1,0,1.2c-0.2,0-0.5,0.1-1,0.1c-0.4,0-0.7,0.1-0.9,0.1c-0.4,0-0.7,0-0.8,0.1
		c0.3,0.5,0.8,0.8,1.4,1h0.1c0.4,0,0.8-0.1,1.2-0.3v0.1v0.3c0.1,0.5-0.3,0.7-1.2,0.9c-1.8,0.3-3,0.4-3.8,0.3c-0.1,0-0.3,0-0.5,0.1
		c-0.1,0-0.2,0.1-0.3,0.1c0.1,0.3,0.5,0.6,1.1,0.7c0.1,0,0.3,0,0.6-0.1c0.2-0.1,0.3-0.1,0.4-0.1c1.5-0.3,2.7-0.4,3.3-0.5
		c0.1,0,0.2,0,0.3,0.1c0.1,0,0.2,0.1,0.2,0.1c0.1,0,0.2,0,0.3-0.1c0.1,0,0.2-0.1,0.2-0.1c0.1-0.1,0.3-0.1,0.5-0.1c0.1,0,0.2,0,0.2,0
		v1.7c-0.9,0.1-1.8,0.3-2.6,0.3c-0.1,0-0.3,0-0.7,0c-0.1,0-0.2,0-0.3,0c-0.5,0-0.7,0-0.7,0.1c0,0,0,0.1,0.1,0.1c0,0,0.1,0.1,0.1,0.1
		v0.1c0.2,0.2,0.5,0.3,0.8,0.4c0.1,0.1,0.2,0.4,0.3,0.9c0,0.5,0.1,0.8,0.2,1c0,0,0.1,0,0.1,0.1c0.1,0,0.2,0.1,0.3,0.1
		c0.3,0,0.5-0.3,0.5-0.7c0-0.6-0.3-1-0.8-1.3c-0.1,0-0.1-0.1-0.1-0.1c0.1,0,0.3,0,0.5-0.1c0.9-0.2,1.7-0.3,2.2-0.4
		c0,0.4,0,0.9-0.1,1.5c0,0.6,0,1,0,1.4c0,0.7-0.2,1.1-0.5,1.3c-0.4,0-0.6,0.1-0.7,0.1c0,0-0.1,0-0.1,0c-0.1,0-0.2,0-0.3,0
		c-0.1,0-0.3,0-0.6-0.1c-0.3,0-0.5-0.1-0.6-0.1c0,0-0.1-0.1-0.2-0.1c-0.1-0.1-0.2-0.2-0.3-0.2c0,0.1,0.2,0.4,0.7,0.7
		c0.2,0.1,0.3,0.2,0.3,0.2c0.1,0,0.2,0.1,0.2,0.1l0.4,0.2c0.5,0.2,0.9,0.3,1.2,0.3c0.2,0,0.4,0,0.5,0c0,0,0.1-0.1,0.2-0.1l0.1-0.1
		c0.1-0.1,0.2-0.4,0.3-0.7c0-0.3,0.1-0.9,0.1-1.9c0-0.3,0-0.7,0-1.2c0-0.5-0.1-1-0.1-1.3c0,0,0.1,0,0.2-0.1c0.1,0,0.2,0,0.2,0
		c0.1,0,0.3,0,0.6,0.1c0.3,0.1,0.5,0.1,0.7,0.1c0.1,0,0.2-0.1,0.3-0.3c0-0.2-0.1-0.3-0.3-0.4c0,0-0.1,0-0.3-0.1c-0.1,0-0.2,0-0.3,0
		h-0.1c0,0.1-0.2,0.2-0.5,0.1c-0.1,0-0.3,0-0.5,0.1c0-0.5,0.1-1.1,0.1-1.8c1.2-0.1,2-0.1,2.5,0c0.1,0,0.2,0,0.3,0.1
		c0.4,0.1,0.6,0.1,0.7,0.1c0.3,0,0.4-0.2,0.5-0.3c0-0.5-0.7-0.7-1.9-0.7c-1.5,0.1-2.6,0.2-3.2,0.3c0-0.5,0-0.9,0-1.4
		c0.1-0.1,0.4-0.1,0.7-0.1c0.5,0,0.7-0.2,0.7-0.4c0-0.2-0.1-0.3-0.3-0.3c-0.2-0.1-0.3-0.2-0.5-0.1c-0.4,0-0.6,0-0.6-0.1
		c0-0.3,0-0.7-0.1-1.1c0.3,0,0.6-0.2,1-0.7c0.1-0.1,0.2-0.2,0.2-0.2h0.1c0.1,0,0.2,0.1,0.3,0.2c0.1,0.1,0.2,0.2,0.3,0.3
		c0,0,0.1,0.2,0.1,0.3c0.1,0.2,0.2,0.3,0.2,0.3h0.5c0.1,0,0.1-0.1,0.1-0.3c-0.1-0.7-0.5-1.2-1.2-1.5c0,0,0.1-0.1,0.3-0.1
		c0,0,0.1-0.1,0.1-0.1c0.1,0,0.3-0.1,0.6-0.2c0.3-0.1,0.5-0.1,0.5-0.1c0.6,0,1-0.1,1-0.4c0-0.1-0.2-0.3-0.4-0.4
		C127.7,35.2,127.4,35.3,127.1,35.4z M123.8,37.7L123.8,37.7C123.9,37.7,123.9,37.7,123.8,37.7z M124.2,39.4l0.2,0.1l-0.2,0.1V39.4z
		"/>
	<path class="st0" d="M123,36.9l0.1-0.2c0,0,0.1-0.1,0.2-0.2c0-0.1,0.1-0.1,0.1-0.1c0,0,0.1-0.1,0.3-0.1c0.3-0.1,0.5-0.3,0.5-0.5
		v-0.1v-0.3c0,0,0,0.1-0.1,0.1c0,0-0.1,0-0.3-0.1c-0.1,0-0.2,0-0.3,0c-0.1,0-0.4,0.1-0.7,0.2c-0.2,0.1-0.4,0.1-0.4,0.1
		c-0.1,0.1-0.3,0.1-0.4,0.1c-0.3-0.7-0.6-1.1-1-1.2c-0.2,0-0.4,0.3-0.6,0.9c0,0.2-0.1,0.4-0.1,0.5c-0.1,0.2-0.4,0.4-0.7,0.6
		c-0.3,0.1-0.4,0.2-0.4,0.5c0.2,0.5,0.3,0.8,0.3,0.8c0.2,0.2,0.4,0.3,0.6,0.3c0.1,0,0.3-0.2,0.5-0.3c0.3-0.2,0.7-0.4,1-0.6
		c0.1,0.1,0.3,0.4,0.5,0.7c0.2,0.5,0.5,0.7,0.7,0.7c0.1-0.1,0.2-0.1,0.3-0.1c0.1-0.1,0.2-0.2,0.2-0.2c0-0.1,0-0.2-0.1-0.3
		c-0.1-0.3-0.1-0.5-0.1-0.5v-0.1C122.9,37.1,122.9,37,123,36.9z M122.7,37c-0.1,0-0.2-0.1-0.2-0.3v-0.1c0.2-0.1,0.4-0.2,0.7-0.3
		C123.1,36.6,122.9,36.9,122.7,37z"/>
	<path class="st0" d="M130.2,43.1L130.2,43.1c-0.4,0.3-0.6,0.5-0.6,0.7l0.3,0.2c0.4,0.2,0.6,0.3,0.6,0.4c0.3,0,0.6-0.1,1-0.3
		c0.4-0.4,0.8-0.8,1.2-1.2c0.2,1.1,0.6,1.7,1,2c0.4-0.1,0.6-0.3,0.7-0.7c0.3,0,0.5,0,0.7-0.1c0.5,0,0.7-0.1,0.9-0.3
		c0.5-0.6,0.7-1.2,0.7-1.9c0-0.1,0.1-0.2,0.1-0.3c0-0.7-0.5-1-1.4-1.1c-0.2,0-0.5,0.1-0.9,0.3c-0.3,0.2-0.5,0.3-0.7,0.3
		c0.5-0.9,1-1.9,1.4-2.9c0.1-0.4,0.3-0.7,0.6-1.2c0.3-0.5,0.4-0.8,0.4-1c0-0.5-0.4-0.8-1-0.8c-0.3,0-0.6,0.1-0.9,0.3
		c0,0-0.2,0-0.4,0c-1,0.1-1.6,0.3-1.6,0.6c0,0,0.1,0.1,0.2,0.2l0.1,0.1c0,0,0.1,0.1,0.2,0.2c0.4,0.1,0.5,0.1,0.5,0.1
		c0.5,0.1,0.9,0.2,1.2,0.2C133.1,40.3,131.6,42.4,130.2,43.1z M135.1,41.5c0,0.6-0.1,1.1-0.2,1.5c-0.1,0.1-0.3,0.2-0.5,0.2
		c-0.1,0-0.2,0.1-0.2,0.1c0-0.1,0-0.3-0.1-0.6c-0.1-0.3-0.2-0.5-0.2-0.6C134.2,41.8,134.6,41.6,135.1,41.5z"/>
	<path class="st0" d="M133.3,36.5c-0.1,0-0.2,0-0.3-0.1C133.2,36.5,133.3,36.5,133.3,36.5z"/>
	<path class="st0" d="M144.3,39c0-0.4-0.3-0.5-1-0.5c-0.1,0-0.4,0-1,0.1c0.1,0,0,0-0.3,0.1c0-1,0-1.9,0-2.8c0.6-0.3,0.9-0.5,0.8-0.6
		v-0.1c0-0.1-0.1-0.2-0.1-0.2c-0.5-0.1-1.1-0.1-2,0.1c-0.1,0-0.2,0.1-0.2,0.1c-0.5,0.2-1.2,0.3-2.1,0.3c-0.2,0-0.4,0-0.5,0
		c-0.1,0-0.3,0-0.5,0c-0.1,0-0.2,0-0.3,0h-0.1l-0.1,0.1h-0.1c0.1,0.1,0.3,0.2,0.6,0.3c0.4,0.2,0.7,0.4,1,0.5
		c0.1,0.7,0.2,1.7,0.1,2.9c-0.2,0-0.5,0.1-0.7,0.2c-0.1,0-0.2,0-0.4,0c-0.2,0-0.3,0.1-0.5,0.1c-0.1,0-0.3,0-0.5,0
		c-0.2,0-0.3,0.1-0.3,0.4c0,0.1,0,0.2,0.1,0.2c0.1,0,0.2,0,0.2,0.1c0.1,0.1,0.3,0.2,0.5,0.2c0.2,0,0.5-0.1,0.9-0.2
		c0.3,0,0.5-0.1,0.6-0.1c-0.2,2.4-0.6,4.1-1.2,5.3l-0.1,0.1c-0.2,0.2-0.3,0.3-0.3,0.4c0,0,0,0.1,0.1,0.3v0.1c0,0,0.1,0,0.1,0.1v0.1
		c0,0.2,0.1,0.3,0.2,0.3c0,0,0.1,0.1,0.2,0.1c0.3,0,0.6-0.2,0.8-0.5v-0.1c0.5-1.3,0.9-3.5,1.1-6.4c0.1,0,0.2,0,0.5-0.1
		c0.6-0.1,1-0.1,1.3-0.1c0,3.3-0.1,6.2-0.3,8.5c0,0.3,0,0.5,0,0.8c0,0.4,0.1,0.7,0.2,0.7c0,0,0.1-0.1,0.2-0.1c0.1,0,0.2-0.1,0.2-0.1
		l0.1,0.1c0.3-0.4,0.4-0.9,0.3-1.4c0-2.8,0-5.7,0-8.7c0.6,0,1.2,0,1.8,0C144,39.5,144.2,39.4,144.3,39z M141.1,38.7
		c-0.3,0-0.7,0.1-1.4,0.2c0.1,0,0,0-0.3,0.1c0-0.1,0-0.2,0-0.3c0-1.2-0.1-2-0.3-2.5c0.3,0,0.8-0.1,1.4-0.2c0.3,0,0.5-0.1,0.7-0.1
		C141.1,36.9,141.1,37.8,141.1,38.7z"/>
	<path class="st0" d="M154.4,47.5c-0.7-0.1-1.3-0.2-1.6-0.3c-0.5-0.3-0.8-0.7-0.8-1.4c0-1,0.2-2,0.6-3.1c0-0.1,0.1-0.2,0.2-0.3
		c0.2-0.3,0.3-0.6,0.3-0.7c0-0.2-0.2-0.4-0.4-0.4c-0.1,0-0.1,0-0.1,0.1c-0.3,0.1-0.4,0.2-0.5,0.2c-0.1,0-0.4,0.1-0.9,0.2
		c-0.3,0.1-0.5,0.2-0.7,0.2c-0.2-0.6-0.3-1-0.5-1h-0.1c0,0,0,0.1-0.1,0.1c0,0.5,0,0.8-0.1,1c0,0-0.1,0-0.2,0.1
		c-1.6,0.5-2.7,1-3.5,1.3c0,0-0.1,0.1-0.3,0.2c-0.2,0.1-0.3,0.2-0.3,0.2c0,0.1,0.3,0.2,0.7,0.3c0.1,0,0.4-0.1,0.7-0.2
		c0.1,0,0.2-0.1,0.2-0.1c0.9-0.5,1.8-0.8,2.6-1.1c-0.2,2-0.9,3.7-2.1,5c0,0-0.2,0.1-0.4,0.2c-0.3,0.2-0.4,0.3-0.5,0.4h0.2
		c0,0.2,0.1,0.3,0.3,0.3v0.1c0.1,0,0.3,0,0.5-0.1l0.1-0.1c0.8-0.5,1.5-1.6,2-3.2c0.3-0.9,0.5-1.9,0.6-2.9c0.5-0.2,1.1-0.4,1.6-0.5
		c-0.5,1.5-0.7,2.7-0.7,3.6c0,1.8,1.5,2.7,4.5,2.5c0.6,0,1.4-0.2,2.4-0.5c0.1-0.1,0.2-0.5,0.4-1c0,0-0.1,0.1-0.1,0.2l-0.1,0.1
		c0,0-0.1-0.1-0.1-0.2l0.1-0.1c0,0,0.1-0.1,0.1-0.1v-0.2c0-0.1-0.1-0.4-0.1-0.7l-0.1-0.1v-0.6c-0.1,0-0.2,0.1-0.2,0.3l-0.1,0.1
		l-0.1,0.4c0,0.1-0.1,0.3-0.3,0.5c-0.1,0.3-0.2,0.5-0.3,0.6c0,0,0,0.1-0.1,0.1C156.6,47.3,155.7,47.5,154.4,47.5L154.4,47.5z"/>
	<path class="st0" d="M152.6,40c0,0.1,0,0.1-0.1,0.1c0.2,0,0.4,0,0.4,0.1l0.1,0.1h0.3c0,0,0.1,0,0.1,0.1c0,0,0.1,0,0.1,0.1
		c0,0,0-0.1,0-0.1c0,0,0.1-0.1,0.1-0.1h0.1c0,0,0.1,0,0.1,0.1l0.1,0.1v-0.1c0-0.3-0.1-0.7-0.4-1c-0.6-0.6-1.1-0.9-1.5-0.9
		c-0.1,0-0.2,0-0.2,0.1c0,0.1,0,0.2,0.1,0.3c0.1,0.1,0.3,0.3,0.4,0.4C152.6,39.5,152.7,39.7,152.6,40L152.6,40L152.6,40z"/>
	<path class="st0" d="M147.7,36.7c-0.1,0-0.4,0.3-0.9,0.7c-0.3,0.3-0.4,0.4-0.4,0.5c-0.4,0.4-0.6,0.8-0.6,1.2
		c0.1,0.4,0.3,0.6,0.4,0.6c0,0,0.1,0,0.1-0.1h0.1c0,0,0.1,0,0.1,0c0.2,0,0.3-0.1,0.3-0.2c0,0,0.1-0.1,0.1-0.1c0,0,0.1-0.1,0.2-0.1
		l0.1-0.1c0.1-0.1,0.2-0.1,0.2-0.1l0.1-0.1h-0.3c0-0.1,0.1-0.2,0.3-0.4c0.1-0.2,0.2-0.3,0.3-0.4c0.4-0.1,0.8-0.2,1.3-0.2
		c1.5-0.3,2.7-0.5,3.7-0.5c1,0,1.8,0.1,2.2,0.3c0.2,0,0.2,0.1,0.1,0.3c0,0-0.1,0.1-0.2,0.1c-0.2,0.1-0.4,0.2-0.4,0.3l-0.1,0.1
		c-0.4,0.3-0.7,0.6-0.7,0.7h0.1c0,0,0.1-0.1,0.3-0.1c0,0,0.1,0,0.2,0.1c0.5,0,1-0.1,1.4-0.3c0.2-0.1,0.4-0.3,0.7-0.5
		c0.1,0,0.1-0.2,0.1-0.3c0-0.1-0.1-0.3-0.4-0.5c-0.9-0.4-1.9-0.6-3.1-0.5c-0.1,0-0.3,0-0.6,0c-0.3,0-0.5,0.1-0.7,0.1
		c-0.1,0-0.2,0-0.3-0.3c0-0.1,0-0.2,0.1-0.3c0-0.5-0.5-1-1.2-1.8c-0.3-0.2-0.5-0.3-0.5-0.3h-0.2c-0.2,0-0.4-0.1-0.4-0.1v-0.1
		c-0.1,0-0.1,0-0.1,0.1c0,0.1,0,0.1,0.1,0.1c0,0,0.1,0.2,0.4,0.5c0.5,0.5,0.7,0.9,0.7,1.2c0,0,0,0.1-0.1,0.1c-0.3,0-0.7,0.1-1.2,0.1
		c-0.7,0-1.1,0.1-1.2,0.2c0.1,0,0.3,0,0.6,0c0.3,0,0.5-0.1,0.7-0.1c0.2,0,0.5,0,0.7,0.1c0,0,0.1,0,0.1,0.1c0.2,0.2,0.4,0.3,0.5,0.3
		c0,0.1,0.1,0.2,0.2,0.2c-0.8,0-1.7,0.2-2.9,0.5C148,37.2,147.8,36.9,147.7,36.7z"/>
	<path class="st0" d="M148.1,40.6c-0.4,0.3-0.5,0.5-0.5,0.7c0.2,0,0.3,0,0.3,0.1c0.1,0,0.1,0,0.1,0.1c0.1,0,0.2-0.1,0.4-0.2
		c0.2-0.1,0.3-0.2,0.3-0.2c0,0,0.1,0,0.1,0l0.1,0.1c0,0,0.1-0.1,0.1-0.1c0.5-0.3,1-0.7,1.4-1.1c0.1-0.2,0.1-0.5,0-0.8
		c0,0-0.1-0.2-0.3-0.3c-0.4-0.4-0.6-0.6-0.6-0.6c-0.1,0-0.1,0.1-0.1,0.2v0.1l0.1,0.1c0,0,0,0.1,0,0.1
		C149.4,39.2,149,39.8,148.1,40.6z"/>
	<path class="st0" d="M163,47.7c0,0,0.2,0.1,0.4,0.1c0.1,0,0.2,0,0.2,0c0.5-0.2,1-0.8,1.5-1.6c0.1-0.1,0.2-0.2,0.2-0.3
		c0.5-0.8,1-1.6,1.3-2.5c0-0.1,0.1-0.2,0.2-0.3c0.2-0.5,0.4-0.8,0.6-1c0.1-0.1,0.4-0.2,0.7-0.2h0.1c0.8,0,1.2-0.2,1.2-0.5
		c0-0.1-0.2-0.3-0.4-0.4c-0.3-0.2-0.7-0.2-1,0c-1.9,0.9-3,1.3-3.3,1.2c0-0.1,0-0.2,0.1-0.2c0,0,0.1,0,0.1-0.1h-0.1
		c0,0,0.1-0.2,0.4-0.4c0.1-0.1,0.2-0.2,0.3-0.2c0.2-0.2,0.5-0.5,0.7-0.7l0.1-0.1c0.1,0,0.2-0.1,0.2-0.1c0.2-0.1,0.4-0.2,0.4-0.2
		c0,0,0.2,0,0.3-0.1c0.2,0,0.3-0.1,0.3-0.1c0,0,0.1,0,0.1,0.1c0.5-0.2,0.8-0.4,1-0.5c0-0.4-0.1-0.6-0.5-0.5c-0.2,0-0.5,0-0.8,0.1
		c-0.4,0.1-0.7,0.1-0.9,0.1c0,0-0.1,0-0.3-0.1c-0.1,0-0.2,0-0.3,0c-0.2,0-0.3,0.1-0.3,0.3c0,0.4,0.2,0.6,0.7,0.6c0,0,0.1,0,0.1,0
		h0.1l0.1,0.1l-0.1,0.1c0,0-0.1,0.1-0.1,0.1c-0.2,0.3-0.5,0.6-0.7,0.7c-0.1,0.1-0.2,0.2-0.3,0.2c-0.3,0.2-0.6,0.5-0.9,0.7
		c0,0-0.1,0.1-0.3,0.1c-0.3,0.1-0.4,0.3-0.4,0.5c0,0,0.1,0.1,0.1,0.1c0,0,0,0.1,0,0.2c0,0.1,0.2,0.2,0.3,0.2c0.7,0,1.5-0.2,2.3-0.7
		c-0.5,1.1-1.2,2.2-2,3.3c-0.2,0.2-0.5,0.4-0.8,0.7c-0.2,0.2-0.4,0.4-0.5,0.5v0.1c0,0,0,0.1,0.1,0.1c0,0,0.1,0.1,0.1,0.1L163,47.7
		L163,47.7z"/>
	<path class="st0" d="M162.8,39.2c0,0,0,0.1,0.1,0.2c0.1,0.3,0.3,0.5,0.5,0.5c0.4,0,0.7-0.4,1.2-1.2l0.1-0.1c0,0,0-0.1,0.1-0.1
		c0.2-0.4,1.1-0.7,2.6-1c0.3,0,0.5,0,0.7-0.1c0.7-0.1,1.4-0.2,2-0.2c0,0,0.1,0,0.3,0c0.3,0,0.6,0,0.7,0.1c-0.1,0.1-0.4,0.3-0.9,0.7
		c-0.9,0.7-1.3,1.1-1.4,1.2h0.1c0,0,0.2,0,0.3-0.1c0.3-0.1,0.5-0.2,0.6-0.2c0,0,0.1,0,0.1,0.1l0.1,0.1c0,0,0.1,0,0.1-0.1l0.1-0.1
		h0.1c0,0,0.1,0,0.1,0.1v0.1c1.2-0.5,2-0.8,2.2-1c0,0,0.1-0.2,0.1-0.3c0-0.2-0.2-0.4-0.5-0.7c-0.5-0.2-1-0.3-1.6-0.3
		c-0.4,0-0.9,0-1.7,0.1c-0.3,0-0.5,0.1-0.6,0.1c-0.2-1-0.6-1.6-1-2c-0.6-0.4-1-0.5-1.2-0.3c0,0.1,0,0.3,0.1,0.4
		c0.6,0.8,0.9,1.4,0.9,1.8c0,0,0,0.1-0.1,0.1c-0.1,0-0.1,0-0.1,0.1c0,0,0,0.1,0.1,0.1l0.1,0.1c-0.5,0.2-1,0.3-1.6,0.5
		c0,0,0-0.1,0.1-0.3c0-0.1,0-0.2,0-0.2c0-0.4-0.1-0.6-0.3-0.6c-0.1,0-0.4,0.3-0.7,0.8c-0.3,0.4-0.6,0.8-1.1,1.3
		C162.9,38.9,162.8,39.1,162.8,39.2z"/>
	<path class="st0" d="M160,37.2c0.1,0,0.2,0,0.3-0.1c0.1,0,0.2,0,0.2,0c0,0,0,0.2-0.1,0.3c0,0.2-0.1,0.4-0.1,0.5
		c-0.2,1.2-0.3,2.4-0.3,3.6c-0.1,2.2-0.2,4.3-0.3,6.2c0,1.3,0.2,1.9,0.5,2c0.3,0,0.5,0,0.6-0.3c0.2-0.3,0.3-0.8,0.2-1.5
		c0-2,0-4,0-6.1c0,0,0.1,0,0.1,0.1l0.1,0.1c0,0,0.1,0.1,0.2,0.2c0.5,0.5,0.9,0.7,1.4,0.7c0.5,0,0.7-0.4,0.7-1.2c0-0.5,0-0.8-0.1-1
		c-0.1-0.4-0.3-0.8-0.6-1.3c-0.2-0.4-0.3-0.6-0.3-0.7c0-0.1,0-0.2,0.1-0.3c0-0.1,0.1-0.2,0.1-0.2c0.7-1.4,1-2.3,1-2.9
		c-0.1-0.5-0.4-0.6-1-0.5c-0.3,0-0.7,0.2-1.2,0.5c-0.2,0.1-0.3,0.2-0.4,0.2c-0.6,0.3-1.4,0.5-2.2,0.7c-0.2,0-0.3,0.1-0.3,0.2
		C158.6,36.9,159.1,37.1,160,37.2z M161,40.7v-0.1c0-0.7,0-1.4,0.1-2.1c0-0.1,0-0.3,0.1-0.5c0-0.2,0-0.4,0-0.5c0-0.2,0-0.3-0.1-0.5
		c0.1,0,0.2-0.1,0.5-0.2c0.3-0.2,0.5-0.3,0.7-0.4h0.1c-0.1,0.3-0.3,1-0.6,2.2c0,0.2,0.1,0.4,0.2,0.5c0,0.2,0.1,0.3,0.1,0.4
		c0.3,0.6,0.4,1.2,0.3,1.6c0,0.4-0.1,0.6-0.3,0.6c-0.1,0-0.3-0.1-0.7-0.3c-0.3-0.1-0.5-0.3-0.5-0.5C161,40.8,161,40.7,161,40.7z"/>
	<path class="st0" d="M172.4,44.5c0,0.1,0,0.5,0,1.2v0.1c0,0,0,0.1,0,0.2c-0.1,0.6-0.3,1-0.5,1.2c-0.6,0.4-1.6,0.5-2.9,0.5
		c-1.1-0.1-1.7-0.6-1.6-1.3c0-0.5,0.2-1.2,0.4-2.1c0-0.3,0.1-0.5,0.1-0.6c0-0.5-0.1-0.8-0.5-0.7c0,0.1,0,0.2,0,0.3
		c-0.2,0.9-0.4,1.8-0.6,2.8v0.1c0,0.1-0.1,0.2-0.1,0.2c0,0.5,0.1,0.9,0.3,1.1c0.4,0.4,1.2,0.7,2.5,0.7c1.1,0,2.1-0.1,3.1-0.3
		c0.1,0,0.2-0.1,0.3-0.1c0.1,0,0.2,0,0.3-0.1c0.1,0,0.1-0.2,0.1-0.5c0-0.3-0.1-0.7-0.2-1.3c0-0.2-0.1-0.3-0.1-0.5c0,0,0-0.1-0.1-0.1
		c-0.2-0.4-0.3-0.6-0.3-0.7C172.5,44.4,172.4,44.4,172.4,44.5z"/>
	<path class="st0" d="M6.4,54.6c-0.4,0-0.7,0-0.9,0l0,0v0.2l0,0c0.2,0,0.3,0,0.3,0c0.1,0,0.1,0,0.1,0.1c0,0.1,0,0.4,0,0.9v1.5
		c0,0.4,0,0.7,0,0.9c0,0.1,0,0.1-0.1,0.1c0,0-0.1,0-0.3,0l0,0v0.2l0,0c0.2,0,0.5,0,0.9,0c0.4,0,0.7,0,0.9,0l0,0v-0.2l0,0
		c-0.2,0-0.3,0-0.3,0c-0.1,0-0.1,0-0.1-0.1c0-0.1,0-0.4,0-0.9v-1.5c0-0.4,0-0.7,0-0.9c0-0.1,0-0.1,0.1-0.1c0,0,0.1,0,0.3,0l0,0v-0.2
		l0,0C7.1,54.6,6.8,54.6,6.4,54.6z"/>
	<path class="st0" d="M11.4,54.6c-0.2,0-0.4,0-0.6,0l0,0v0.2l0,0c0.2,0,0.3,0,0.3,0c0.1,0,0.1,0,0.1,0.1c0,0.1,0,0.4,0,0.9v1.6
		c-0.9-1-1.7-2-2.4-2.9c-0.2,0-0.4,0-0.6,0c-0.2,0-0.3,0-0.5,0l0,0v0.2l0,0c0.2,0,0.3,0,0.3,0c0.1,0,0.1,0,0.1,0.1
		c0,0.1,0,0.4,0,0.9v1.5c0,0.4,0,0.7,0,0.9c0,0.1,0,0.1-0.1,0.1c0,0-0.1,0-0.3,0l0,0v0.2l0,0c0.2,0,0.4,0,0.6,0c0.2,0,0.4,0,0.6,0
		l0,0v-0.2l0,0c-0.2,0-0.3,0-0.3,0c-0.1,0-0.1,0-0.1-0.1c0-0.1,0-0.4,0-0.9v-1.8c1.2,1.5,2.1,2.5,2.6,3.1c0.1,0,0.3,0,0.5,0.1l0,0
		c0-0.3,0-0.8,0-1.6v-1.1c0-0.4,0-0.7,0-0.9c0-0.1,0-0.1,0.1-0.1c0,0,0.1,0,0.3,0l0,0v-0.2l0,0C11.9,54.6,11.6,54.6,11.4,54.6z"/>
	<path class="st0" d="M14.9,56.3c-0.1,0-0.2-0.1-0.3-0.1c-0.2,0-0.3-0.1-0.3-0.1c-0.4-0.1-0.6-0.1-0.7-0.2c-0.2-0.1-0.2-0.3-0.2-0.5
		c0-0.2,0.1-0.4,0.2-0.5c0.1-0.1,0.3-0.2,0.6-0.2c0.2,0,0.3,0,0.5,0.1c0.1,0.1,0.2,0.1,0.3,0.2c0,0.1,0,0.2,0,0.4l0,0h0.2l0,0
		c0-0.3,0-0.6,0.1-0.8l0-0.1c-0.3-0.1-0.6-0.2-1.1-0.2c-0.5,0-0.9,0.1-1.1,0.4c-0.3,0.2-0.4,0.5-0.4,0.9c0,0.4,0.1,0.6,0.4,0.8
		c0.2,0.1,0.5,0.2,1,0.3c0.2,0,0.4,0.1,0.5,0.1c0.2,0.1,0.3,0.3,0.3,0.5c0,0.1,0,0.3-0.1,0.4c-0.1,0.3-0.4,0.4-0.8,0.4
		c-0.2,0-0.4,0-0.6-0.1c-0.2-0.1-0.3-0.2-0.4-0.3c0-0.2,0-0.3,0-0.4v-0.1l0,0h-0.2l0,0c0,0.4,0,0.7-0.1,0.9l0,0.1
		c0.4,0.2,0.8,0.3,1.1,0.3c0.3,0,0.6,0,0.8-0.1c0.2-0.1,0.4-0.3,0.6-0.5c0.2-0.2,0.3-0.5,0.3-0.8c0-0.2-0.1-0.4-0.2-0.6
		C15.2,56.5,15.1,56.4,14.9,56.3z"/>
	<path class="st0" d="M18.5,58.5v-0.2l0,0c-0.2,0-0.3,0-0.3,0c-0.1,0-0.1,0-0.1-0.1c0-0.1,0-0.4,0-0.9v-1.6c0-0.5,0-0.7,0-0.8h0.4
		c0.3,0,0.5,0,0.5,0c0.1,0,0.2,0.1,0.2,0.1c0,0,0,0.2,0,0.4l0,0h0.2l0,0l0-0.5c0-0.1,0-0.3,0-0.4l0,0c-0.2,0-0.6,0-1.2,0h-1.1
		c-0.7,0-1.1,0-1.2,0l0,0c0,0.1,0,0.3,0,0.4l0,0.5l0,0h0.2l0,0c0-0.1,0-0.2,0-0.3c0-0.1,0-0.1,0-0.2c0,0,0,0,0.1,0
		c0.1,0,0.3,0,0.6,0h0.4c0,0.1,0,0.3,0,0.8v1.6c0,0.4,0,0.7,0,0.9c0,0.1,0,0.1-0.1,0.1c0,0-0.1,0-0.3,0l0,0v0.2l0,0
		c0.2,0,0.5,0,0.9,0C18,58.5,18.3,58.5,18.5,58.5L18.5,58.5z"/>
	<path class="st0" d="M20.7,54.6c-0.4,0-0.7,0-0.9,0l0,0v0.2l0,0c0.2,0,0.3,0,0.3,0c0.1,0,0.1,0,0.1,0.1c0,0.1,0,0.4,0,0.9v1.5
		c0,0.4,0,0.7,0,0.9c0,0.1,0,0.1-0.1,0.1c0,0-0.1,0-0.3,0l0,0v0.2l0,0c0.2,0,0.5,0,0.9,0c0.4,0,0.7,0,0.9,0l0,0v-0.2l0,0
		c-0.2,0-0.3,0-0.3,0c-0.1,0-0.1,0-0.1-0.1c0-0.1,0-0.4,0-0.9v-1.5c0-0.4,0-0.7,0-0.9c0-0.1,0-0.1,0.1-0.1c0,0,0.1,0,0.3,0l0,0v-0.2
		l0,0C21.3,54.6,21.1,54.6,20.7,54.6z"/>
	<path class="st0" d="M24.1,54.9h0.4c0.3,0,0.5,0,0.5,0c0.1,0,0.2,0.1,0.2,0.1c0,0,0,0.2,0,0.4l0,0h0.2l0,0l0-0.5c0-0.1,0-0.3,0-0.4
		l0,0c-0.2,0-0.6,0-1.2,0h-1.1c-0.7,0-1.1,0-1.2,0l0,0c0,0.1,0,0.3,0,0.4l0,0.5l0,0h0.2l0,0c0-0.1,0-0.2,0-0.3c0-0.1,0-0.1,0-0.2
		c0,0,0,0,0.1,0c0.1,0,0.2,0,0.6,0h0.4c0,0.1,0,0.3,0,0.8v1.6c0,0.4,0,0.7,0,0.9c0,0.1,0,0.1-0.1,0.1c0,0-0.1,0-0.3,0l0,0v0.2l0,0
		c0.2,0,0.5,0,0.9,0c0.4,0,0.7,0,0.9,0l0,0v-0.2l0,0c-0.2,0-0.3,0-0.3,0c-0.1,0-0.1,0-0.1-0.1c0-0.1,0-0.4,0-0.9v-1.6
		C24.1,55.2,24.1,55,24.1,54.9z"/>
	<path class="st0" d="M26.7,58.4c0.3,0.2,0.7,0.2,1.1,0.2c0.5,0,0.9-0.2,1.2-0.5c0.2-0.2,0.3-0.6,0.3-1.2v-0.9c0-0.3,0-0.5,0-0.7
		c0-0.2,0-0.4,0-0.4c0-0.1,0.2-0.2,0.4-0.2l0,0v-0.2l0,0c-0.4,0-0.6,0-0.7,0c-0.2,0-0.3,0-0.5,0l0,0v0.2l0,0c0.2,0,0.3,0,0.3,0
		c0.1,0,0.1,0,0.1,0.1c0,0.1,0,0.2,0,0.3c0,0.2,0,0.5,0,1v0.6c0,0.2,0,0.3,0,0.5c0,0.2,0,0.3-0.1,0.4c0,0.1-0.1,0.2-0.2,0.2
		c-0.2,0.2-0.4,0.2-0.8,0.2c-0.5,0-0.8-0.2-0.9-0.5c-0.1-0.2-0.1-0.6-0.1-1.3v-0.6c0-0.4,0-0.7,0-0.9c0-0.1,0-0.1,0.1-0.1
		c0,0,0.1,0,0.3,0l0,0v-0.2l0,0c-0.2,0-0.5,0-0.9,0c-0.4,0-0.7,0-0.9,0l0,0v0.2l0,0c0.2,0,0.3,0,0.3,0c0.1,0,0.1,0,0.1,0.1
		c0,0.1,0,0.4,0,0.9v0.7c0,0.7,0,1.1,0.1,1.3C26.4,58,26.5,58.2,26.7,58.4z"/>
	<path class="st0" d="M31.5,54.9c0,0.1,0,0.3,0,0.8v1.6c0,0.4,0,0.7,0,0.9c0,0.1,0,0.1-0.1,0.1c0,0-0.1,0-0.3,0l0,0v0.2l0,0
		c0.2,0,0.5,0,0.9,0c0.4,0,0.7,0,0.9,0l0,0v-0.2l0,0c-0.2,0-0.3,0-0.3,0c-0.1,0-0.1,0-0.1-0.1c0-0.1,0-0.4,0-0.9v-1.6
		c0-0.5,0-0.7,0-0.8h0.4c0.3,0,0.5,0,0.5,0c0.1,0,0.2,0.1,0.2,0.1c0,0,0,0.2,0,0.4l0,0h0.2l0,0l0-0.5c0-0.1,0-0.3,0-0.4l0,0
		c-0.2,0-0.6,0-1.2,0h-1.1c-0.7,0-1.1,0-1.2,0l0,0c0,0.1,0,0.3,0,0.4l0,0.5l0,0h0.2l0,0c0-0.1,0-0.2,0-0.3c0-0.1,0-0.1,0-0.2
		c0,0,0,0,0.1,0c0.1,0,0.2,0,0.6,0H31.5z"/>
	<path class="st0" d="M36.9,57.5L36.9,57.5l-0.1,0.4c0,0.1,0,0.1-0.1,0.2c0,0,0,0,0,0c-0.1,0-0.5,0.1-1,0.1h-0.4c0-0.2,0-0.5,0-0.7
		v-0.9c0.1,0,0.2,0,0.4,0c0.1,0,0.2,0,0.4,0c0.2,0,0.2,0,0.3,0.1c0,0,0,0.2,0,0.4l0,0h0.2l0,0c0-0.2,0-0.4,0-0.6c0-0.2,0-0.4,0-0.6
		l0,0h-0.2l0,0c0,0.2,0,0.3-0.1,0.4c0,0-0.1,0-0.3,0l-0.4,0c-0.1,0-0.2,0-0.4,0v-0.6c0-0.3,0-0.6,0-0.8c0.2,0,0.3,0,0.5,0
		c0.1,0,0.3,0,0.5,0c0.2,0,0.3,0,0.3,0.1c0,0,0,0.2,0,0.4l0,0h0.2l0,0l0-0.3c0-0.1,0-0.2,0-0.3l0-0.3l0,0c-1,0-1.6,0-2,0
		c-0.4,0-0.7,0-0.9,0l0,0v0.2l0,0c0.2,0,0.3,0,0.3,0c0.1,0,0.1,0,0.1,0.1c0,0.1,0,0.4,0,0.9v1.4l0,0.6c0,0.2,0,0.3,0,0.4
		c0,0-0.1,0.1-0.2,0.2l0,0v0.1l0,0c0.1,0,0.4,0,0.7,0l2,0l0,0c0-0.3,0-0.6,0.1-0.9l0,0H36.9z"/>
	<path class="st0" d="M43.2,56.4c0-0.6-0.2-1.1-0.5-1.4c-0.4-0.3-0.9-0.5-1.5-0.5c-0.5,0-0.8,0.1-1.1,0.2c-0.7,0.3-1,1-1,1.9
		c0,0.6,0.2,1.1,0.5,1.5c0.4,0.4,0.9,0.5,1.5,0.5c0.7,0,1.2-0.2,1.6-0.6C43,57.7,43.2,57.1,43.2,56.4z M42.2,57.5
		c-0.2,0.5-0.5,0.8-1.1,0.8c-0.4,0-0.8-0.2-1-0.5c-0.2-0.3-0.3-0.8-0.3-1.4c0-0.3,0-0.6,0.1-0.9c0.2-0.5,0.5-0.7,1.1-0.7
		c0.4,0,0.7,0.2,1,0.5c0.2,0.3,0.3,0.7,0.3,1.3C42.4,56.9,42.3,57.2,42.2,57.5z"/>
	<path class="st0" d="M45.3,56.6c0.1,0,0.2,0,0.3,0c0.2,0,0.3,0.1,0.3,0.1c0,0,0,0.1,0,0.3l0,0h0.2l0,0c0-0.2,0-0.4,0-0.6
		c0-0.2,0-0.4,0-0.6l0,0H46l0,0c0,0.2,0,0.3-0.1,0.4c0,0-0.1,0-0.1,0c-0.3,0-0.4,0-0.5,0l-0.3,0v-0.4c0-0.5,0-0.8,0-1
		c0.2,0,0.3,0,0.4,0c0.5,0,0.7,0,0.8,0.1c0,0,0,0.2,0,0.4l0,0h0.2l0,0l0-0.2c0-0.1,0-0.2,0-0.3l0-0.3l0,0c-1,0-1.6,0-1.9,0
		c-0.4,0-0.7,0-0.9,0l0,0v0.2l0,0c0.2,0,0.3,0,0.3,0c0.1,0,0.1,0,0.1,0.1c0,0.1,0,0.4,0,0.9v1.5c0,0.4,0,0.7,0,0.9
		c0,0.1,0,0.1-0.1,0.1c0,0-0.1,0-0.3,0l0,0v0.2l0,0c0.3,0,0.5,0,0.7,0l1.1,0l0,0v-0.2l0,0c-0.3,0-0.4,0-0.4,0c-0.1,0-0.1,0-0.1-0.1
		c0-0.1,0-0.4,0-0.9v-0.7C45,56.6,45.2,56.6,45.3,56.6z"/>
	<path class="st0" d="M50.7,58.3l-0.2,0l0,0v0.2l0,0c0.3,0,0.6,0,1,0c0.1,0,0.3,0,0.7,0l0,0v-0.2l0,0c-0.1,0-0.2,0-0.3,0
		c0,0-0.1-0.1-0.2-0.2l-1.5-3.5h-0.4c-0.1,0.3-0.2,0.5-0.2,0.6L48.9,57c-0.3,0.7-0.4,1.1-0.5,1.2c0,0.1-0.2,0.1-0.4,0.1l0,0v0.2l0,0
		c0.3,0,0.5,0,0.6,0c0.1,0,0.3,0,0.7,0l0,0v-0.2l0,0c-0.1,0-0.2,0-0.3,0c-0.1,0-0.1-0.1-0.1-0.1c0-0.1,0-0.2,0.1-0.5l0.1-0.3
		c0.3,0,0.5,0,0.6,0c0.3,0,0.5,0,0.8,0l0.2,0.6c0.1,0.1,0.1,0.2,0.1,0.3C50.9,58.2,50.8,58.3,50.7,58.3z M49.8,57
		c-0.2,0-0.4,0-0.6,0l0.6-1.5l0.6,1.5C50.3,57,50.1,57,49.8,57z"/>
	<path class="st0" d="M53,57.8c0,0.2,0,0.3,0,0.4c0,0-0.1,0.1-0.2,0.2l0,0v0.1l0,0c0.2,0,0.4,0,0.7,0l1,0c0.4,0,0.8,0,1.1-0.2
		c0.3-0.1,0.5-0.3,0.7-0.5c0.4-0.4,0.6-0.9,0.6-1.6c0-0.4-0.1-0.8-0.2-1c-0.2-0.3-0.4-0.4-0.7-0.6c-0.3-0.1-0.6-0.2-1.1-0.2
		c-0.2,0-0.3,0-0.5,0c-0.3,0-0.7,0-1.2,0c-0.2,0-0.4,0-0.6,0l0,0v0.2l0,0c0.2,0,0.3,0,0.3,0c0.1,0,0.1,0,0.1,0.1c0,0.1,0,0.4,0,0.9
		v1.4L53,57.8z M53.8,54.9c0.2,0,0.3,0,0.5,0c0.3,0,0.6,0,0.8,0.1c0.2,0.1,0.4,0.2,0.5,0.3c0.2,0.3,0.4,0.7,0.4,1.2
		c0,0.4-0.1,0.7-0.2,1c-0.1,0.3-0.3,0.5-0.5,0.6c-0.2,0.1-0.5,0.2-0.9,0.2c-0.2,0-0.3,0-0.5,0c0-0.1,0-0.3,0-0.5l0-1.2
		C53.8,55.6,53.8,55.1,53.8,54.9z"/>
	<path class="st0" d="M57.6,54.9c0.1,0,0.1,0.2,0.3,0.6l1.3,3.1h0.4c0.1-0.3,0.3-0.9,0.6-1.6l0.4-0.9l0.2-0.5
		c0.1-0.3,0.2-0.5,0.2-0.5c0-0.1,0.1-0.1,0.1-0.1c0,0,0.1,0,0.2,0l0,0v-0.2l0,0c-0.2,0-0.4,0-0.6,0c-0.2,0-0.4,0-0.7,0l0,0v0.2l0,0
		c0.2,0,0.3,0,0.4,0c0,0,0.1,0.1,0.1,0.1c0,0.1-0.1,0.3-0.2,0.6c-0.1,0.2-0.1,0.4-0.2,0.4l-0.6,1.6l-0.7-1.7l-0.1-0.3
		c-0.1-0.3-0.2-0.5-0.2-0.5c0,0,0-0.1,0-0.1c0.1,0,0.2,0,0.4,0l0,0v-0.2l0,0c-0.3,0-0.6,0-1,0c-0.3,0-0.5,0-0.7,0l0,0v0.2l0,0
		C57.4,54.8,57.5,54.8,57.6,54.9z"/>
	<path class="st0" d="M63.8,58.3l-0.2,0l0,0v0.2l0,0c0.3,0,0.6,0,1,0c0.1,0,0.3,0,0.7,0l0,0v-0.2l0,0c-0.1,0-0.2,0-0.3,0
		c0,0-0.1-0.1-0.2-0.2l-1.5-3.5H63c-0.1,0.3-0.2,0.5-0.2,0.6L62,57c-0.3,0.7-0.4,1.1-0.5,1.2c0,0.1-0.2,0.1-0.4,0.1l0,0v0.2l0,0
		c0.3,0,0.5,0,0.6,0c0.1,0,0.3,0,0.7,0l0,0v-0.2l0,0c-0.1,0-0.2,0-0.3,0c-0.1,0-0.1-0.1-0.1-0.1c0-0.1,0-0.2,0.1-0.5l0.1-0.3
		c0.3,0,0.5,0,0.6,0c0.3,0,0.5,0,0.8,0l0.2,0.6c0.1,0.1,0.1,0.2,0.1,0.3C63.9,58.2,63.9,58.3,63.8,58.3z M62.9,57
		c-0.2,0-0.4,0-0.6,0l0.6-1.5l0.6,1.5C63.4,57,63.2,57,62.9,57z"/>
	<path class="st0" d="M69.5,54.9c0-0.1,0-0.1,0.1-0.1c0,0,0.1,0,0.3,0l0,0v-0.2l0,0c-0.2,0-0.4,0-0.6,0c-0.2,0-0.4,0-0.6,0l0,0v0.2
		l0,0c0.2,0,0.3,0,0.3,0c0.1,0,0.1,0,0.1,0.1c0,0.1,0,0.4,0,0.9v1.6c-0.9-1-1.7-2-2.4-2.9c-0.2,0-0.4,0-0.6,0c-0.2,0-0.3,0-0.5,0
		l0,0v0.2l0,0c0.2,0,0.3,0,0.3,0c0.1,0,0.1,0,0.1,0.1c0,0.1,0,0.4,0,0.9v1.5c0,0.4,0,0.7,0,0.9c0,0.1,0,0.1-0.1,0.1c0,0-0.1,0-0.3,0
		l0,0v0.2l0,0c0.2,0,0.4,0,0.6,0c0.2,0,0.4,0,0.6,0l0,0v-0.2l0,0c-0.2,0-0.3,0-0.3,0c-0.1,0-0.1,0-0.1-0.1c0-0.1,0-0.4,0-0.9v-1.8
		c1.2,1.5,2.1,2.5,2.6,3.1c0.1,0,0.3,0,0.5,0.1l0,0c0-0.3,0-0.8,0-1.6v-1.1C69.5,55.4,69.5,55.1,69.5,54.9z"/>
	<path class="st0" d="M74,58.3l0.1-0.3L74,57.9c-0.4,0.2-0.7,0.3-1.1,0.3c-0.4,0-0.7-0.1-1-0.3c-0.5-0.4-0.7-0.9-0.7-1.5
		c0-0.5,0.1-0.9,0.4-1.2c0.3-0.3,0.6-0.4,1.1-0.4c0.4,0,0.8,0.1,1,0.4c0,0.1,0,0.2,0,0.5l0,0H74l0,0c0-0.3,0.1-0.6,0.1-0.9l0,0
		c-0.4-0.2-0.9-0.2-1.3-0.2c-0.7,0-1.3,0.2-1.7,0.6c-0.4,0.4-0.6,0.8-0.6,1.5c0,0.4,0.1,0.7,0.2,1.1c0.4,0.7,1,1,2,1
		C73.1,58.6,73.6,58.5,74,58.3z"/>
	<path class="st0" d="M74.9,57.8c0,0.2,0,0.3,0,0.4c0,0-0.1,0.1-0.2,0.2l0,0v0.1l0,0c0.1,0,0.4,0,0.7,0l2,0l0,0c0-0.3,0-0.6,0.1-0.9
		l0,0h-0.2l0,0l-0.1,0.3c0,0.1,0,0.1-0.1,0.2c0,0,0,0,0,0c-0.1,0-0.5,0.1-1,0.1h-0.4c0-0.2,0-0.5,0-0.7v-0.9c0.1,0,0.2,0,0.4,0
		c0.1,0,0.2,0,0.4,0c0.2,0,0.2,0,0.3,0.1c0,0,0,0.2,0,0.4l0,0H77l0,0c0-0.2,0-0.4,0-0.6c0-0.2,0-0.4,0-0.6l0,0h-0.2l0,0
		c0,0.2,0,0.3-0.1,0.4c0,0-0.1,0-0.3,0l-0.4,0c-0.1,0-0.2,0-0.4,0v-0.6c0-0.3,0-0.6,0-0.8c0.2,0,0.3,0,0.5,0c0.1,0,0.3,0,0.5,0
		c0.2,0,0.3,0,0.3,0.1c0,0,0,0.2,0,0.4l0,0h0.2l0,0l0-0.3c0-0.1,0-0.2,0-0.3l0-0.3l0,0c-1,0-1.6,0-2,0c-0.4,0-0.7,0-0.9,0l0,0v0.2
		l0,0c0.2,0,0.3,0,0.3,0c0.1,0,0.1,0,0.1,0.1c0,0.1,0,0.4,0,0.9v1.4L74.9,57.8z"/>
	<path class="st0" d="M81.6,57.9c0.4-0.4,0.6-0.9,0.6-1.6c0-0.4-0.1-0.8-0.2-1c-0.2-0.3-0.4-0.4-0.7-0.6c-0.3-0.1-0.6-0.2-1.1-0.2
		c-0.2,0-0.3,0-0.5,0c-0.3,0-0.7,0-1.2,0c-0.2,0-0.4,0-0.6,0l0,0v0.2l0,0c0.2,0,0.3,0,0.3,0c0.1,0,0.1,0,0.1,0.1c0,0.1,0,0.4,0,0.9
		v1.4l0,0.6c0,0.2,0,0.3,0,0.4c0,0-0.1,0.1-0.2,0.2l0,0v0.1l0,0c0.2,0,0.4,0,0.7,0l1,0c0.4,0,0.8,0,1.1-0.2
		C81.2,58.2,81.4,58.1,81.6,57.9z M79.7,58.2c-0.2,0-0.3,0-0.5,0c0-0.1,0-0.3,0-0.5l0-1.2c0-0.8,0-1.3,0-1.5c0.2,0,0.3,0,0.5,0
		c0.3,0,0.6,0,0.8,0.1c0.2,0.1,0.4,0.2,0.5,0.3c0.2,0.3,0.4,0.7,0.4,1.2c0,0.4-0.1,0.7-0.2,1c-0.1,0.3-0.3,0.5-0.5,0.6
		C80.4,58.2,80.1,58.2,79.7,58.2z"/>
	<path class="st0" d="M86.8,58c0.2-0.2,0.3-0.5,0.3-0.8c0-0.2-0.1-0.4-0.2-0.6c-0.1-0.1-0.2-0.3-0.4-0.3c-0.1,0-0.2-0.1-0.3-0.1
		c-0.2,0-0.3-0.1-0.3-0.1c-0.4-0.1-0.6-0.1-0.7-0.2C85,55.9,85,55.7,85,55.5c0-0.2,0.1-0.4,0.2-0.5c0.1-0.1,0.3-0.2,0.6-0.2
		c0.2,0,0.3,0,0.5,0.1c0.1,0.1,0.2,0.1,0.3,0.2c0,0.1,0,0.2,0,0.4l0,0h0.2l0,0c0-0.3,0-0.6,0.1-0.8l0-0.1c-0.3-0.1-0.6-0.2-1.1-0.2
		c-0.5,0-0.9,0.1-1.1,0.4c-0.3,0.2-0.4,0.5-0.4,0.9c0,0.4,0.1,0.6,0.4,0.8c0.2,0.1,0.5,0.2,1,0.3c0.2,0,0.4,0.1,0.5,0.1
		c0.2,0.1,0.3,0.3,0.3,0.5c0,0.1,0,0.3-0.1,0.4c-0.1,0.3-0.4,0.4-0.8,0.4c-0.2,0-0.4,0-0.6-0.1c-0.2-0.1-0.3-0.2-0.4-0.3
		c0-0.2,0-0.3,0-0.4v-0.1l0,0h-0.2l0,0c0,0.4,0,0.7-0.1,0.9l0,0.1c0.4,0.2,0.8,0.3,1.1,0.3c0.3,0,0.6,0,0.8-0.1
		C86.5,58.4,86.7,58.2,86.8,58z"/>
	<path class="st0" d="M89.9,54.6h-1.1c-0.7,0-1.1,0-1.2,0l0,0c0,0.1,0,0.3,0,0.4l0,0.5l0,0h0.2l0,0c0-0.1,0-0.2,0-0.3
		c0-0.1,0-0.1,0-0.2c0,0,0,0,0.1,0c0.1,0,0.2,0,0.6,0h0.4c0,0.1,0,0.3,0,0.8v1.6c0,0.4,0,0.7,0,0.9c0,0.1,0,0.1-0.1,0.1
		c0,0-0.1,0-0.3,0l0,0v0.2l0,0c0.2,0,0.5,0,0.9,0c0.4,0,0.7,0,0.9,0l0,0v-0.2l0,0c-0.2,0-0.3,0-0.3,0c-0.1,0-0.1,0-0.1-0.1
		c0-0.1,0-0.4,0-0.9v-1.6c0-0.5,0-0.7,0-0.8h0.4c0.3,0,0.5,0,0.5,0c0.1,0,0.2,0.1,0.2,0.1c0,0,0,0.2,0,0.4l0,0H91l0,0l0-0.5
		c0-0.1,0-0.3,0-0.4l0,0C90.9,54.6,90.5,54.6,89.9,54.6z"/>
	<path class="st0" d="M91.8,54.9c0,0.1,0,0.4,0,0.9v0.7c0,0.7,0,1.1,0.1,1.3c0.1,0.3,0.2,0.4,0.5,0.6c0.3,0.2,0.7,0.2,1.1,0.2
		c0.5,0,0.9-0.2,1.2-0.5c0.2-0.2,0.3-0.6,0.3-1.2v-0.9c0-0.3,0-0.5,0-0.7c0-0.2,0-0.4,0-0.4c0-0.1,0.2-0.2,0.4-0.2l0,0v-0.2l0,0
		c-0.4,0-0.6,0-0.7,0c-0.2,0-0.3,0-0.5,0l0,0v0.2l0,0c0.2,0,0.3,0,0.3,0c0.1,0,0.1,0,0.1,0.1c0,0.1,0,0.2,0,0.3c0,0.2,0,0.5,0,1v0.6
		c0,0.2,0,0.3,0,0.5c0,0.2,0,0.3-0.1,0.4c0,0.1-0.1,0.2-0.2,0.2c-0.2,0.2-0.4,0.2-0.8,0.2c-0.5,0-0.8-0.2-0.9-0.5
		c-0.1-0.2-0.1-0.6-0.1-1.3v-0.6c0-0.4,0-0.7,0-0.9c0-0.1,0-0.1,0.1-0.1c0,0,0.1,0,0.3,0l0,0v-0.2l0,0c-0.2,0-0.5,0-0.9,0
		c-0.4,0-0.7,0-0.9,0l0,0v0.2l0,0c0.2,0,0.3,0,0.3,0C91.8,54.9,91.8,54.9,91.8,54.9z"/>
	<path class="st0" d="M98.8,58.3c0.3-0.1,0.5-0.3,0.7-0.5c0.4-0.4,0.6-0.9,0.6-1.6c0-0.4-0.1-0.8-0.2-1c-0.2-0.3-0.4-0.4-0.7-0.6
		c-0.3-0.1-0.6-0.2-1.1-0.2c-0.2,0-0.3,0-0.5,0c-0.3,0-0.7,0-1.2,0c-0.2,0-0.4,0-0.6,0l0,0v0.2l0,0c0.2,0,0.3,0,0.3,0
		c0.1,0,0.1,0,0.1,0.1c0,0.1,0,0.4,0,0.9v1.4l0,0.6c0,0.2,0,0.3,0,0.4c0,0-0.1,0.1-0.2,0.2l0,0v0.1l0,0c0.2,0,0.4,0,0.7,0l1,0
		C98.1,58.5,98.5,58.5,98.8,58.3z M97.1,58.2c0-0.1,0-0.3,0-0.5l0-1.2c0-0.8,0-1.3,0-1.5c0.2,0,0.3,0,0.5,0c0.3,0,0.6,0,0.8,0.1
		c0.2,0.1,0.4,0.2,0.5,0.3c0.2,0.3,0.4,0.7,0.4,1.2c0,0.4-0.1,0.7-0.2,1c-0.1,0.3-0.3,0.5-0.5,0.6c-0.2,0.1-0.5,0.2-0.9,0.2
		C97.5,58.2,97.3,58.2,97.1,58.2z"/>
	<path class="st0" d="M101.9,54.9c0-0.1,0-0.1,0.1-0.1c0,0,0.1,0,0.3,0l0,0v-0.2l0,0c-0.2,0-0.5,0-0.9,0c-0.4,0-0.7,0-0.9,0l0,0v0.2
		l0,0c0.2,0,0.3,0,0.3,0c0.1,0,0.1,0,0.1,0.1c0,0.1,0,0.4,0,0.9v1.5c0,0.4,0,0.7,0,0.9c0,0.1,0,0.1-0.1,0.1c0,0-0.1,0-0.3,0l0,0v0.2
		l0,0c0.2,0,0.5,0,0.9,0c0.4,0,0.7,0,0.9,0l0,0v-0.2l0,0c-0.2,0-0.3,0-0.3,0c-0.1,0-0.1,0-0.1-0.1c0-0.1,0-0.4,0-0.9v-1.5
		C101.9,55.4,101.9,55.1,101.9,54.9z"/>
	<path class="st0" d="M103.3,57.8c0,0.2,0,0.3,0,0.4c0,0-0.1,0.1-0.2,0.2l0,0v0.1l0,0c0.1,0,0.4,0,0.7,0l2,0l0,0
		c0-0.3,0-0.6,0.1-0.9l0,0h-0.2l0,0l-0.1,0.3c0,0.1,0,0.1-0.1,0.2c0,0,0,0,0,0c-0.1,0-0.5,0.1-1,0.1h-0.4c0-0.2,0-0.5,0-0.7v-0.9
		c0.1,0,0.2,0,0.4,0c0.1,0,0.2,0,0.4,0c0.2,0,0.2,0,0.3,0.1c0,0,0,0.2,0,0.4l0,0h0.2l0,0c0-0.2,0-0.4,0-0.6c0-0.2,0-0.4,0-0.6l0,0
		h-0.2l0,0c0,0.2,0,0.3-0.1,0.4c0,0-0.1,0-0.3,0l-0.4,0c-0.1,0-0.2,0-0.4,0v-0.6c0-0.3,0-0.6,0-0.8c0.2,0,0.3,0,0.5,0
		c0.1,0,0.3,0,0.5,0c0.2,0,0.3,0,0.3,0.1c0,0,0,0.2,0,0.4l0,0h0.2l0,0l0-0.3c0-0.1,0-0.2,0-0.3l0-0.3l0,0c-1,0-1.6,0-2,0
		c-0.4,0-0.7,0-0.9,0l0,0v0.2l0,0c0.2,0,0.3,0,0.3,0c0.1,0,0.1,0,0.1,0.1c0,0.1,0,0.4,0,0.9v1.4L103.3,57.8z"/>
	<path class="st0" d="M107.9,54.8c0.2,0,0.3,0,0.5,0.1c0.1,0.1,0.2,0.1,0.3,0.2c0,0.1,0,0.2,0,0.4l0,0h0.2l0,0c0-0.3,0-0.6,0.1-0.8
		l0-0.1c-0.3-0.1-0.6-0.2-1.1-0.2c-0.5,0-0.9,0.1-1.1,0.4c-0.3,0.2-0.4,0.5-0.4,0.9c0,0.4,0.1,0.6,0.4,0.8c0.2,0.1,0.5,0.2,1,0.3
		c0.2,0,0.4,0.1,0.5,0.1c0.2,0.1,0.3,0.3,0.3,0.5c0,0.1,0,0.3-0.1,0.4c-0.1,0.3-0.4,0.4-0.8,0.4c-0.2,0-0.4,0-0.6-0.1
		c-0.2-0.1-0.3-0.2-0.4-0.3c0-0.2,0-0.3,0-0.4v-0.1l0,0h-0.2l0,0c0,0.4,0,0.7-0.1,0.9l0,0.1c0.4,0.2,0.8,0.3,1.1,0.3
		c0.3,0,0.6,0,0.8-0.1c0.2-0.1,0.4-0.3,0.6-0.5c0.2-0.2,0.3-0.5,0.3-0.8c0-0.2-0.1-0.4-0.2-0.6c-0.1-0.1-0.2-0.3-0.4-0.3
		c-0.1,0-0.2-0.1-0.3-0.1c-0.2,0-0.3-0.1-0.3-0.1c-0.4-0.1-0.6-0.1-0.7-0.2c-0.2-0.1-0.2-0.3-0.2-0.5c0-0.2,0.1-0.4,0.2-0.5
		C107.5,54.9,107.7,54.8,107.9,54.8z"/>
	<path class="st0" d="M112.5,54.9c0-0.1,0-0.1,0.1-0.1c0,0,0.1,0,0.3,0l0,0v-0.2l0,0c-0.2,0-0.5,0-0.9,0c-0.4,0-0.7,0-0.9,0l0,0v0.2
		l0,0c0.2,0,0.3,0,0.3,0c0.1,0,0.1,0,0.1,0.1c0,0.1,0,0.4,0,0.9v1.5c0,0.4,0,0.7,0,0.9c0,0.1,0,0.1-0.1,0.1c0,0-0.1,0-0.3,0l0,0v0.2
		l0,0c0.2,0,0.5,0,0.9,0c0.4,0,0.7,0,0.9,0l0,0v-0.2l0,0c-0.2,0-0.3,0-0.3,0c-0.1,0-0.1,0-0.1-0.1c0-0.1,0-0.4,0-0.9v-1.5
		C112.5,55.4,112.5,55.1,112.5,54.9z"/>
	<path class="st0" d="M117.3,54.9c0-0.1,0-0.1,0.1-0.1c0,0,0.1,0,0.3,0l0,0v-0.2l0,0c-0.2,0-0.4,0-0.6,0c-0.2,0-0.4,0-0.6,0l0,0v0.2
		l0,0c0.2,0,0.3,0,0.3,0c0.1,0,0.1,0,0.1,0.1c0,0.1,0,0.4,0,0.9v1.6c-0.9-1-1.7-2-2.4-2.9c-0.2,0-0.4,0-0.6,0c-0.2,0-0.3,0-0.5,0
		l0,0v0.2l0,0c0.2,0,0.3,0,0.3,0c0.1,0,0.1,0,0.1,0.1c0,0.1,0,0.4,0,0.9v1.5c0,0.4,0,0.7,0,0.9c0,0.1,0,0.1-0.1,0.1c0,0-0.1,0-0.3,0
		l0,0v0.2l0,0c0.2,0,0.4,0,0.6,0c0.2,0,0.4,0,0.6,0l0,0v-0.2l0,0c-0.2,0-0.3,0-0.3,0c-0.1,0-0.1,0-0.1-0.1c0-0.1,0-0.4,0-0.9v-1.8
		c1.2,1.5,2.1,2.5,2.6,3.1c0.1,0,0.3,0,0.5,0.1l0,0c0-0.3,0-0.8,0-1.6v-1.1C117.3,55.4,117.3,55.1,117.3,54.9z"/>
	<path class="st0" d="M123.5,54.9c0-0.1,0-0.1,0.1-0.1c0,0,0.1,0,0.3,0l0,0v-0.2l0,0c-0.2,0-0.5,0-0.9,0c-0.4,0-0.7,0-0.9,0l0,0v0.2
		l0,0c0.2,0,0.3,0,0.3,0c0.1,0,0.1,0,0.1,0.1c0,0.1,0,0.4,0,0.9v0.5c-0.1,0-0.5,0-1,0c-0.3,0-0.6,0-0.8,0v-0.5c0-0.4,0-0.7,0-0.9
		c0-0.1,0-0.1,0.1-0.1c0,0,0.1,0,0.3,0l0,0v-0.2l0,0c-0.2,0-0.5,0-0.9,0c-0.4,0-0.7,0-0.9,0l0,0v0.2l0,0c0.2,0,0.3,0,0.3,0
		c0.1,0,0.1,0,0.1,0.1c0,0.1,0,0.4,0,0.9v1.5c0,0.4,0,0.7,0,0.9c0,0.1,0,0.1-0.1,0.1c0,0-0.1,0-0.3,0l0,0v0.2l0,0c0.2,0,0.5,0,0.9,0
		c0.4,0,0.7,0,0.9,0l0,0v-0.2l0,0c-0.2,0-0.3,0-0.3,0c-0.1,0-0.1,0-0.1-0.1c0-0.1,0-0.4,0-0.9v-0.7c0.1,0,0.5,0,0.9,0
		c0.5,0,0.8,0,0.9,0v0.7c0,0.4,0,0.7,0,0.9c0,0.1,0,0.1-0.1,0.1c0,0-0.1,0-0.3,0l0,0v0.2l0,0c0.2,0,0.5,0,0.9,0c0.4,0,0.7,0,0.9,0
		l0,0v-0.2l0,0c-0.2,0-0.3,0-0.3,0c-0.1,0-0.1,0-0.1-0.1c0-0.1,0-0.4,0-0.9v-1.5C123.5,55.4,123.5,55.1,123.5,54.9z"/>
	<path class="st0" d="M127.7,58.1c0.2-0.2,0.3-0.6,0.3-1.2v-0.9c0-0.3,0-0.5,0-0.7c0-0.2,0-0.4,0-0.4c0-0.1,0.2-0.2,0.4-0.2l0,0
		v-0.2l0,0c-0.4,0-0.6,0-0.7,0c-0.2,0-0.3,0-0.5,0l0,0v0.2l0,0c0.2,0,0.3,0,0.3,0c0.1,0,0.1,0,0.1,0.1c0,0.1,0,0.2,0,0.3
		c0,0.2,0,0.5,0,1v0.6c0,0.2,0,0.3,0,0.5c0,0.2,0,0.3-0.1,0.4c0,0.1-0.1,0.2-0.2,0.2c-0.2,0.2-0.4,0.2-0.8,0.2
		c-0.5,0-0.8-0.2-0.9-0.5c-0.1-0.2-0.1-0.6-0.1-1.3v-0.6c0-0.4,0-0.7,0-0.9c0-0.1,0-0.1,0.1-0.1c0,0,0.1,0,0.3,0l0,0v-0.2l0,0
		c-0.2,0-0.5,0-0.9,0c-0.4,0-0.7,0-0.9,0l0,0v0.2l0,0c0.2,0,0.3,0,0.3,0c0.1,0,0.1,0,0.1,0.1c0,0.1,0,0.4,0,0.9v0.7
		c0,0.7,0,1.1,0.1,1.3c0.1,0.3,0.2,0.4,0.5,0.6c0.3,0.2,0.7,0.2,1.1,0.2C127,58.6,127.4,58.5,127.7,58.1z"/>
	<path class="st0" d="M131.1,58.6h0.2l0.5-1.1c0.2-0.4,0.3-0.7,0.4-0.8l0.6-1.3v1.9c0,0.4,0,0.7,0,0.9c0,0.1,0,0.1-0.1,0.1
		c0,0-0.1,0-0.3,0l0,0v0.2l0,0c0.2,0,0.5,0,0.9,0c0.4,0,0.7,0,0.9,0l0,0v-0.2l0,0c-0.2,0-0.3,0-0.3,0c-0.1,0-0.1,0-0.1-0.1
		c0-0.1,0-0.4,0-0.9v-1.5c0-0.4,0-0.7,0-0.9c0-0.1,0-0.1,0.1-0.1c0,0,0.1,0,0.3,0l0,0v-0.2l0,0c-0.2,0-0.5,0-0.8,0
		c-0.1,0-0.2,0-0.4,0c-0.1,0.2-0.2,0.4-0.2,0.5l-0.7,1.4l-0.4,0.9l-0.9-1.9l-0.2-0.4c-0.1-0.3-0.2-0.5-0.3-0.6c-0.2,0-0.4,0-0.6,0
		c-0.3,0-0.5,0-0.7,0l0,0v0.2l0,0c0.2,0,0.3,0,0.3,0c0.1,0,0.1,0,0.1,0.1c0,0.1,0,0.4,0,0.9v1.5c0,0.4,0,0.7,0,0.9
		c0,0.1,0,0.1-0.1,0.1c0,0-0.1,0-0.3,0l0,0v0.2l0,0c0.2,0,0.4,0,0.6,0c0.2,0,0.4,0,0.6,0l0,0v-0.2l0,0c-0.2,0-0.3,0-0.3,0
		c-0.1,0-0.1,0-0.1-0.1c0-0.1,0-0.4,0-0.9v-1.9l0.7,1.5l0.4,0.8C130.9,58,131,58.3,131.1,58.6z"/>
	<path class="st0" d="M135.7,58.5v-0.2l0,0c-0.1,0-0.2,0-0.3,0c-0.1,0-0.1-0.1-0.1-0.1c0-0.1,0-0.2,0.1-0.5l0.1-0.3
		c0.3,0,0.5,0,0.6,0c0.3,0,0.5,0,0.8,0l0.2,0.6c0.1,0.1,0.1,0.2,0.1,0.3c0,0.1-0.1,0.1-0.2,0.1l-0.2,0l0,0v0.2l0,0c0.3,0,0.6,0,1,0
		c0.1,0,0.3,0,0.7,0l0,0v-0.2l0,0c-0.1,0-0.2,0-0.3,0c0,0-0.1-0.1-0.2-0.2l-1.5-3.5h-0.4c-0.1,0.3-0.2,0.5-0.2,0.6l-0.7,1.8
		c-0.3,0.7-0.4,1.1-0.5,1.2c0,0.1-0.2,0.1-0.4,0.1l0,0v0.2l0,0c0.3,0,0.5,0,0.6,0C135.1,58.5,135.4,58.5,135.7,58.5L135.7,58.5z
		 M136.2,55.5l0.6,1.5c-0.1,0-0.3,0-0.6,0c-0.2,0-0.4,0-0.6,0L136.2,55.5z"/>
	<path class="st0" d="M142.9,54.9c0-0.1,0-0.1,0.1-0.1c0,0,0.1,0,0.3,0l0,0v-0.2l0,0c-0.2,0-0.4,0-0.6,0c-0.2,0-0.4,0-0.6,0l0,0v0.2
		l0,0c0.2,0,0.3,0,0.3,0c0.1,0,0.1,0,0.1,0.1c0,0.1,0,0.4,0,0.9v1.6c-0.9-1-1.7-2-2.4-2.9c-0.2,0-0.4,0-0.6,0c-0.2,0-0.3,0-0.5,0
		l0,0v0.2l0,0c0.2,0,0.3,0,0.3,0c0.1,0,0.1,0,0.1,0.1c0,0.1,0,0.4,0,0.9v1.5c0,0.4,0,0.7,0,0.9c0,0.1,0,0.1-0.1,0.1c0,0-0.1,0-0.3,0
		l0,0v0.2l0,0c0.2,0,0.4,0,0.6,0c0.2,0,0.4,0,0.6,0l0,0v-0.2l0,0c-0.2,0-0.3,0-0.3,0c-0.1,0-0.1,0-0.1-0.1c0-0.1,0-0.4,0-0.9v-1.8
		c1.2,1.5,2.1,2.5,2.6,3.1c0.1,0,0.3,0,0.5,0.1l0,0c0-0.3,0-0.8,0-1.6v-1.1C142.8,55.4,142.8,55.1,142.9,54.9z"/>
	<path class="st0" d="M145.1,54.9c0-0.1,0-0.1,0.1-0.1c0,0,0.1,0,0.3,0l0,0v-0.2l0,0c-0.2,0-0.5,0-0.9,0c-0.4,0-0.7,0-0.9,0l0,0v0.2
		l0,0c0.2,0,0.3,0,0.3,0c0.1,0,0.1,0,0.1,0.1c0,0.1,0,0.4,0,0.9v1.5c0,0.4,0,0.7,0,0.9c0,0.1,0,0.1-0.1,0.1c0,0-0.1,0-0.3,0l0,0v0.2
		l0,0c0.2,0,0.5,0,0.9,0c0.4,0,0.7,0,0.9,0l0,0v-0.2l0,0c-0.2,0-0.3,0-0.3,0c-0.1,0-0.1,0-0.1-0.1c0-0.1,0-0.4,0-0.9v-1.5
		C145,55.4,145,55.1,145.1,54.9z"/>
	<path class="st0" d="M148.2,54.6h-1.1c-0.7,0-1.1,0-1.2,0l0,0c0,0.1,0,0.3,0,0.4l0,0.5l0,0h0.2l0,0c0-0.1,0-0.2,0-0.3
		c0-0.1,0-0.1,0-0.2c0,0,0,0,0.1,0c0.1,0,0.2,0,0.6,0h0.4c0,0.1,0,0.3,0,0.8v1.6c0,0.4,0,0.7,0,0.9c0,0.1,0,0.1-0.1,0.1
		c0,0-0.1,0-0.3,0l0,0v0.2l0,0c0.2,0,0.5,0,0.9,0c0.4,0,0.7,0,0.9,0l0,0v-0.2l0,0c-0.2,0-0.3,0-0.3,0c-0.1,0-0.1,0-0.1-0.1
		c0-0.1,0-0.4,0-0.9v-1.6c0-0.5,0-0.7,0-0.8h0.4c0.3,0,0.5,0,0.5,0c0.1,0,0.2,0.1,0.2,0.1c0,0,0,0.2,0,0.4l0,0h0.2l0,0l0-0.5
		c0-0.1,0-0.3,0-0.4l0,0C149.2,54.6,148.8,54.6,148.2,54.6z"/>
	<path class="st0" d="M151.1,54.9c0-0.1,0-0.1,0.1-0.1c0,0,0.1,0,0.3,0l0,0v-0.2l0,0c-0.2,0-0.5,0-0.9,0c-0.4,0-0.7,0-0.9,0l0,0v0.2
		l0,0c0.2,0,0.3,0,0.3,0c0.1,0,0.1,0,0.1,0.1c0,0.1,0,0.4,0,0.9v1.5c0,0.4,0,0.7,0,0.9c0,0.1,0,0.1-0.1,0.1c0,0-0.1,0-0.3,0l0,0v0.2
		l0,0c0.2,0,0.5,0,0.9,0c0.4,0,0.7,0,0.9,0l0,0v-0.2l0,0c-0.2,0-0.3,0-0.3,0c-0.1,0-0.1,0-0.1-0.1c0-0.1,0-0.4,0-0.9v-1.5
		C151,55.4,151.1,55.1,151.1,54.9z"/>
	<path class="st0" d="M154.8,57.5L154.8,57.5l-0.1,0.4c0,0.1,0,0.1-0.1,0.2c0,0,0,0,0,0c-0.1,0-0.5,0.1-1,0.1h-0.4
		c0-0.2,0-0.5,0-0.7v-0.9c0.1,0,0.2,0,0.4,0c0.1,0,0.2,0,0.4,0c0.2,0,0.2,0,0.3,0.1c0,0,0,0.2,0,0.4l0,0h0.2l0,0c0-0.2,0-0.4,0-0.6
		c0-0.2,0-0.4,0-0.6l0,0h-0.2l0,0c0,0.2,0,0.3-0.1,0.4c0,0-0.1,0-0.3,0l-0.4,0c-0.1,0-0.2,0-0.4,0v-0.6c0-0.3,0-0.6,0-0.8
		c0.2,0,0.3,0,0.5,0c0.1,0,0.3,0,0.5,0c0.2,0,0.3,0,0.3,0.1c0,0,0,0.2,0,0.4l0,0h0.2l0,0l0-0.3c0-0.1,0-0.2,0-0.3l0-0.3l0,0
		c-1,0-1.6,0-2,0c-0.4,0-0.7,0-0.9,0l0,0v0.2l0,0c0.2,0,0.3,0,0.3,0c0.1,0,0.1,0,0.1,0.1c0,0.1,0,0.4,0,0.9v1.4l0,0.6
		c0,0.2,0,0.3,0,0.4c0,0-0.1,0.1-0.2,0.2l0,0v0.1l0,0c0.1,0,0.4,0,0.7,0l2,0l0,0c0-0.3,0-0.6,0.1-0.9l0,0H154.8z"/>
	<path class="st0" d="M155.8,57.4h-0.2l0,0c0,0.4,0,0.7-0.1,0.9l0,0.1c0.4,0.2,0.8,0.3,1.1,0.3c0.3,0,0.6,0,0.8-0.1
		c0.2-0.1,0.4-0.3,0.6-0.5c0.2-0.2,0.3-0.5,0.3-0.8c0-0.2-0.1-0.4-0.2-0.6c-0.1-0.1-0.2-0.3-0.4-0.3c-0.1,0-0.2-0.1-0.3-0.1
		c-0.2,0-0.3-0.1-0.3-0.1c-0.4-0.1-0.6-0.1-0.7-0.2c-0.2-0.1-0.2-0.3-0.2-0.5c0-0.2,0.1-0.4,0.2-0.5c0.1-0.1,0.3-0.2,0.6-0.2
		c0.2,0,0.3,0,0.5,0.1c0.1,0.1,0.2,0.1,0.3,0.2c0,0.1,0,0.2,0,0.4l0,0h0.2l0,0c0-0.3,0-0.6,0.1-0.8l0-0.1c-0.3-0.1-0.6-0.2-1.1-0.2
		c-0.5,0-0.9,0.1-1.1,0.4c-0.3,0.2-0.4,0.5-0.4,0.9c0,0.4,0.1,0.6,0.4,0.8c0.2,0.1,0.5,0.2,1,0.3c0.2,0,0.4,0.1,0.5,0.1
		c0.2,0.1,0.3,0.3,0.3,0.5c0,0.1,0,0.3-0.1,0.4c-0.1,0.3-0.4,0.4-0.8,0.4c-0.2,0-0.4,0-0.6-0.1c-0.2-0.1-0.3-0.2-0.4-0.3
		C155.9,57.7,155.9,57.6,155.8,57.4L155.8,57.4L155.8,57.4z"/>
	<path class="st0" d="M163.9,58.2c0,0-0.1-0.1-0.2-0.2l-1.5-3.5h-0.4c-0.1,0.3-0.2,0.5-0.2,0.6l-0.7,1.8c-0.3,0.7-0.4,1.1-0.5,1.2
		c0,0.1-0.2,0.1-0.4,0.1l0,0v0.2l0,0c0.3,0,0.5,0,0.6,0c0.1,0,0.3,0,0.7,0l0,0v-0.2l0,0c-0.1,0-0.2,0-0.3,0c-0.1,0-0.1-0.1-0.1-0.1
		c0-0.1,0-0.2,0.1-0.5l0.1-0.3c0.3,0,0.5,0,0.6,0c0.3,0,0.5,0,0.8,0l0.2,0.6c0.1,0.1,0.1,0.2,0.1,0.3c0,0.1-0.1,0.1-0.2,0.1l-0.2,0
		l0,0v0.2l0,0c0.3,0,0.6,0,1,0c0.1,0,0.3,0,0.7,0l0,0v-0.2l0,0C164.1,58.3,164,58.3,163.9,58.2z M161.9,57c-0.2,0-0.4,0-0.6,0
		l0.6-1.5l0.6,1.5C162.3,57,162.1,57,161.9,57z"/>
	<path class="st0" d="M168.3,54.6c-0.2,0-0.4,0-0.6,0l0,0v0.2l0,0c0.2,0,0.3,0,0.3,0c0.1,0,0.1,0,0.1,0.1c0,0.1,0,0.4,0,0.9v1.6
		c-0.9-1-1.7-2-2.4-2.9c-0.2,0-0.4,0-0.6,0c-0.2,0-0.3,0-0.5,0l0,0v0.2l0,0c0.2,0,0.3,0,0.3,0c0.1,0,0.1,0,0.1,0.1
		c0,0.1,0,0.4,0,0.9v1.5c0,0.4,0,0.7,0,0.9c0,0.1,0,0.1-0.1,0.1c0,0-0.1,0-0.3,0l0,0v0.2l0,0c0.2,0,0.4,0,0.6,0c0.2,0,0.4,0,0.6,0
		l0,0v-0.2l0,0c-0.2,0-0.3,0-0.3,0c-0.1,0-0.1,0-0.1-0.1c0-0.1,0-0.4,0-0.9v-1.8c1.2,1.5,2.1,2.5,2.6,3.1c0.1,0,0.3,0,0.5,0.1l0,0
		c0-0.3,0-0.8,0-1.6v-1.1c0-0.4,0-0.7,0-0.9c0-0.1,0-0.1,0.1-0.1c0,0,0.1,0,0.3,0l0,0v-0.2l0,0C168.7,54.6,168.5,54.6,168.3,54.6z"
		/>
	<path class="st0" d="M173.4,55.3c-0.2-0.3-0.4-0.4-0.7-0.6c-0.3-0.1-0.6-0.2-1.1-0.2c-0.2,0-0.3,0-0.5,0c-0.3,0-0.7,0-1.2,0
		c-0.2,0-0.4,0-0.6,0l0,0v0.2l0,0c0.2,0,0.3,0,0.3,0c0.1,0,0.1,0,0.1,0.1c0,0.1,0,0.4,0,0.9v1.4l0,0.6c0,0.2,0,0.3,0,0.4
		c0,0-0.1,0.1-0.2,0.2l0,0v0.1l0,0c0.2,0,0.4,0,0.7,0l1,0c0.4,0,0.8,0,1.1-0.2c0.3-0.1,0.5-0.3,0.7-0.5c0.4-0.4,0.6-0.9,0.6-1.6
		C173.6,55.9,173.5,55.6,173.4,55.3z M172.5,57.5c-0.1,0.3-0.3,0.5-0.5,0.6c-0.2,0.1-0.5,0.2-0.9,0.2c-0.2,0-0.3,0-0.5,0
		c0-0.1,0-0.3,0-0.5l0-1.2c0-0.8,0-1.3,0-1.5c0.2,0,0.3,0,0.5,0c0.3,0,0.6,0,0.8,0.1c0.2,0.1,0.4,0.2,0.5,0.3
		c0.2,0.3,0.4,0.7,0.4,1.2C172.7,56.8,172.7,57.2,172.5,57.5z"/>
	<path class="st0" d="M20.6,64.3c-0.1,0-0.2-0.1-0.3-0.1c-0.2,0-0.3-0.1-0.3-0.1c-0.4-0.1-0.6-0.1-0.7-0.2c-0.2-0.1-0.2-0.3-0.2-0.5
		c0-0.2,0.1-0.4,0.2-0.5c0.1-0.1,0.3-0.2,0.6-0.2c0.2,0,0.3,0,0.5,0.1c0.1,0.1,0.2,0.1,0.3,0.2c0,0.1,0,0.2,0,0.4l0,0h0.2l0,0
		c0-0.3,0-0.6,0.1-0.8l0-0.1c-0.3-0.1-0.6-0.2-1.1-0.2c-0.5,0-0.9,0.1-1.1,0.4c-0.3,0.2-0.4,0.5-0.4,0.9c0,0.4,0.1,0.6,0.4,0.8
		c0.2,0.1,0.5,0.2,1,0.3c0.2,0,0.4,0.1,0.5,0.1c0.2,0.1,0.3,0.3,0.3,0.5c0,0.1,0,0.3-0.1,0.4c-0.1,0.3-0.4,0.4-0.8,0.4
		c-0.2,0-0.4,0-0.6-0.1c-0.2-0.1-0.3-0.2-0.4-0.3c0-0.2,0-0.3,0-0.4v-0.1l0,0h-0.2l0,0c0,0.4,0,0.7-0.1,0.9l0,0.1
		c0.4,0.2,0.8,0.3,1.1,0.3c0.3,0,0.6,0,0.8-0.1c0.2-0.1,0.4-0.3,0.6-0.5c0.2-0.2,0.3-0.5,0.3-0.8c0-0.2-0.1-0.4-0.2-0.6
		C20.9,64.4,20.8,64.3,20.6,64.3z"/>
	<path class="st0" d="M23.9,62.5c-0.5,0-0.8,0.1-1.1,0.2c-0.7,0.3-1,1-1,1.9c0,0.6,0.2,1.1,0.5,1.5c0.4,0.4,0.9,0.5,1.5,0.5
		c0.7,0,1.2-0.2,1.6-0.6c0.4-0.4,0.6-0.9,0.6-1.6c0-0.6-0.2-1.1-0.5-1.4C25,62.6,24.5,62.5,23.9,62.5z M24.9,65.5
		c-0.2,0.5-0.5,0.8-1.1,0.8c-0.4,0-0.8-0.2-1-0.5c-0.2-0.3-0.3-0.8-0.3-1.4c0-0.3,0-0.6,0.1-0.9c0.2-0.5,0.5-0.7,1.1-0.7
		c0.4,0,0.7,0.2,1,0.5c0.2,0.3,0.3,0.7,0.3,1.3C25.1,64.9,25,65.2,24.9,65.5z"/>
	<path class="st0" d="M29,66.2c-0.4,0-0.7-0.1-1-0.3c-0.5-0.4-0.7-0.9-0.7-1.5c0-0.5,0.1-0.9,0.4-1.2c0.3-0.3,0.6-0.4,1.1-0.4
		c0.4,0,0.8,0.1,1,0.4c0,0.1,0,0.2,0,0.5l0,0H30l0,0c0-0.3,0.1-0.6,0.1-0.9l0,0c-0.4-0.2-0.9-0.2-1.3-0.2c-0.7,0-1.3,0.2-1.7,0.6
		c-0.4,0.4-0.6,0.8-0.6,1.5c0,0.4,0.1,0.7,0.2,1.1c0.4,0.7,1,1,2,1c0.5,0,0.9-0.1,1.3-0.3l0.1-0.3l-0.1-0.1
		C29.7,66.1,29.4,66.2,29,66.2z"/>
	<path class="st0" d="M31.4,62.5c-0.4,0-0.7,0-0.9,0l0,0v0.2l0,0c0.2,0,0.3,0,0.3,0c0.1,0,0.1,0,0.1,0.1c0,0.1,0,0.4,0,0.9v1.5
		c0,0.4,0,0.7,0,0.9c0,0.1,0,0.1-0.1,0.1c0,0-0.1,0-0.3,0l0,0v0.2l0,0c0.2,0,0.5,0,0.9,0c0.4,0,0.7,0,0.9,0l0,0v-0.2l0,0
		c-0.2,0-0.3,0-0.3,0c-0.1,0-0.1,0-0.1-0.1c0-0.1,0-0.4,0-0.9v-1.5c0-0.4,0-0.7,0-0.9c0-0.1,0-0.1,0.1-0.1c0,0,0.1,0,0.3,0l0,0v-0.2
		l0,0C32.1,62.5,31.8,62.5,31.4,62.5z"/>
	<path class="st0" d="M36.6,66.2c0,0-0.1-0.1-0.2-0.2l-1.5-3.5h-0.4c-0.1,0.3-0.2,0.5-0.2,0.6L33.6,65c-0.3,0.7-0.4,1.1-0.5,1.2
		c0,0.1-0.2,0.1-0.4,0.1l0,0v0.2l0,0c0.3,0,0.5,0,0.6,0c0.1,0,0.3,0,0.7,0l0,0v-0.2l0,0c-0.1,0-0.2,0-0.3,0c-0.1,0-0.1-0.1-0.1-0.1
		c0-0.1,0-0.2,0.1-0.5l0.1-0.3c0.3,0,0.5,0,0.6,0c0.3,0,0.5,0,0.8,0l0.2,0.6c0.1,0.1,0.1,0.2,0.1,0.3c0,0.1-0.1,0.1-0.2,0.1l-0.2,0
		l0,0v0.2l0,0c0.3,0,0.6,0,1,0c0.1,0,0.3,0,0.7,0l0,0v-0.2l0,0C36.7,66.2,36.6,66.2,36.6,66.2z M34.5,65c-0.2,0-0.4,0-0.6,0l0.6-1.5
		l0.6,1.5C34.9,64.9,34.8,65,34.5,65z"/>
	<path class="st0" d="M40,65.5L40,65.5l-0.1,0.4c0,0.1,0,0.1-0.1,0.2c0,0,0,0,0,0c-0.1,0-0.5,0.1-1,0.1h-0.4c0-0.2,0-0.5,0-0.7v-1.7
		c0-0.4,0-0.7,0-0.9c0-0.1,0-0.1,0.1-0.1c0,0,0.1,0,0.3,0l0,0v-0.2l0,0c-0.2,0-0.5,0-0.9,0c-0.4,0-0.7,0-0.8,0l0,0v0.2l0,0
		c0.2,0,0.3,0,0.3,0c0.1,0,0.1,0,0.1,0.1c0,0.1,0,0.4,0,0.9v1.4l0,0.6c0,0.2,0,0.3,0,0.4c0,0-0.1,0.1-0.2,0.2l0,0v0.1l0,0
		c0.1,0,0.4,0,0.7,0l2,0l0,0c0-0.3,0-0.6,0.1-0.9l0,0H40z"/>
	<path class="st0" d="M44.5,64.3c-0.1,0-0.2-0.1-0.3-0.1c-0.2,0-0.3-0.1-0.3-0.1c-0.4-0.1-0.6-0.1-0.7-0.2c-0.2-0.1-0.2-0.3-0.2-0.5
		c0-0.2,0.1-0.4,0.2-0.5c0.1-0.1,0.3-0.2,0.6-0.2c0.2,0,0.3,0,0.5,0.1c0.1,0.1,0.2,0.1,0.3,0.2c0,0.1,0,0.2,0,0.4l0,0h0.2l0,0
		c0-0.3,0-0.6,0.1-0.8l0-0.1c-0.3-0.1-0.6-0.2-1.1-0.2c-0.5,0-0.9,0.1-1.1,0.4c-0.3,0.2-0.4,0.5-0.4,0.9c0,0.4,0.1,0.6,0.4,0.8
		c0.2,0.1,0.5,0.2,1,0.3c0.2,0,0.4,0.1,0.5,0.1c0.2,0.1,0.3,0.3,0.3,0.5c0,0.1,0,0.3-0.1,0.4c-0.1,0.3-0.4,0.4-0.8,0.4
		c-0.2,0-0.4,0-0.6-0.1c-0.2-0.1-0.3-0.2-0.4-0.3c0-0.2,0-0.3,0-0.4v-0.1l0,0h-0.2l0,0c0,0.4,0,0.7-0.1,0.9l0,0.1
		c0.4,0.2,0.8,0.3,1.1,0.3c0.3,0,0.6,0,0.8-0.1c0.2-0.1,0.4-0.3,0.6-0.5c0.2-0.2,0.3-0.5,0.3-0.8c0-0.2-0.1-0.4-0.2-0.6
		C44.8,64.4,44.7,64.3,44.5,64.3z"/>
	<path class="st0" d="M48.2,66.2c-0.4,0-0.7-0.1-1-0.3c-0.5-0.4-0.7-0.9-0.7-1.5c0-0.5,0.1-0.9,0.4-1.2c0.3-0.3,0.6-0.4,1.1-0.4
		c0.4,0,0.8,0.1,1,0.4c0,0.1,0,0.2,0,0.5l0,0h0.2l0,0c0-0.3,0.1-0.6,0.1-0.9l0,0c-0.4-0.2-0.9-0.2-1.3-0.2c-0.7,0-1.3,0.2-1.7,0.6
		c-0.4,0.4-0.6,0.8-0.6,1.5c0,0.4,0.1,0.7,0.2,1.1c0.4,0.7,1,1,2,1c0.5,0,0.9-0.1,1.3-0.3l0.1-0.3l-0.1-0.1
		C48.9,66.1,48.5,66.2,48.2,66.2z"/>
	<path class="st0" d="M50.6,62.5c-0.4,0-0.7,0-0.9,0l0,0v0.2l0,0c0.2,0,0.3,0,0.3,0c0.1,0,0.1,0,0.1,0.1c0,0.1,0,0.4,0,0.9v1.5
		c0,0.4,0,0.7,0,0.9c0,0.1,0,0.1-0.1,0.1c0,0-0.1,0-0.3,0l0,0v0.2l0,0c0.2,0,0.5,0,0.9,0c0.4,0,0.7,0,0.9,0l0,0v-0.2l0,0
		c-0.2,0-0.3,0-0.3,0c-0.1,0-0.1,0-0.1-0.1c0-0.1,0-0.4,0-0.9v-1.5c0-0.4,0-0.7,0-0.9c0-0.1,0-0.1,0.1-0.1c0,0,0.1,0,0.3,0l0,0v-0.2
		l0,0C51.3,62.5,51,62.5,50.6,62.5z"/>
	<path class="st0" d="M54.8,65.5L54.8,65.5l-0.1,0.4c0,0.1,0,0.1-0.1,0.2c0,0,0,0,0,0c-0.1,0-0.5,0.1-1,0.1h-0.4c0-0.2,0-0.5,0-0.7
		v-0.9c0.1,0,0.2,0,0.4,0c0.1,0,0.2,0,0.4,0c0.2,0,0.2,0,0.3,0.1c0,0,0,0.2,0,0.4l0,0h0.2l0,0c0-0.2,0-0.4,0-0.6c0-0.2,0-0.4,0-0.6
		l0,0h-0.2l0,0c0,0.2,0,0.3-0.1,0.4c0,0-0.1,0-0.3,0l-0.4,0c-0.1,0-0.2,0-0.4,0v-0.6c0-0.3,0-0.6,0-0.8c0.2,0,0.3,0,0.5,0
		c0.1,0,0.3,0,0.5,0c0.2,0,0.3,0,0.3,0.1c0,0,0,0.2,0,0.4l0,0h0.2l0,0l0-0.3c0-0.1,0-0.2,0-0.3l0-0.3l0,0c-1,0-1.6,0-2,0
		c-0.4,0-0.7,0-0.9,0l0,0v0.2l0,0c0.2,0,0.3,0,0.3,0c0.1,0,0.1,0,0.1,0.1c0,0.1,0,0.4,0,0.9v1.4l0,0.6c0,0.2,0,0.3,0,0.4
		c0,0-0.1,0.1-0.2,0.2l0,0v0.1l0,0c0.1,0,0.4,0,0.7,0l2,0l0,0c0-0.3,0-0.6,0.1-0.9l0,0H54.8z"/>
	<path class="st0" d="M59.1,62.5c-0.2,0-0.4,0-0.6,0l0,0v0.2l0,0c0.2,0,0.3,0,0.3,0c0.1,0,0.1,0,0.1,0.1c0,0.1,0,0.4,0,0.9v1.6
		c-0.9-1-1.7-2-2.4-2.9c-0.2,0-0.4,0-0.6,0c-0.2,0-0.3,0-0.5,0l0,0v0.2l0,0c0.2,0,0.3,0,0.3,0c0.1,0,0.1,0,0.1,0.1
		c0,0.1,0,0.4,0,0.9v1.5c0,0.4,0,0.7,0,0.9c0,0.1,0,0.1-0.1,0.1c0,0-0.1,0-0.3,0l0,0v0.2l0,0c0.2,0,0.4,0,0.6,0c0.2,0,0.4,0,0.6,0
		l0,0v-0.2l0,0c-0.2,0-0.3,0-0.3,0c-0.1,0-0.1,0-0.1-0.1c0-0.1,0-0.4,0-0.9v-1.8c1.2,1.5,2.1,2.5,2.6,3.1c0.1,0,0.3,0,0.5,0.1l0,0
		c0-0.3,0-0.8,0-1.6v-1.1c0-0.4,0-0.7,0-0.9c0-0.1,0-0.1,0.1-0.1c0,0,0.1,0,0.3,0l0,0v-0.2l0,0C59.5,62.5,59.3,62.5,59.1,62.5z"/>
	<path class="st0" d="M62.7,66.2c-0.4,0-0.7-0.1-1-0.3c-0.5-0.4-0.7-0.9-0.7-1.5c0-0.5,0.1-0.9,0.4-1.2c0.3-0.3,0.6-0.4,1.1-0.4
		c0.4,0,0.8,0.1,1,0.4c0,0.1,0,0.2,0,0.5l0,0h0.2l0,0c0-0.3,0.1-0.6,0.1-0.9l0,0c-0.4-0.2-0.9-0.2-1.3-0.2c-0.7,0-1.3,0.2-1.7,0.6
		c-0.4,0.4-0.6,0.8-0.6,1.5c0,0.4,0.1,0.7,0.2,1.1c0.4,0.7,1,1,2,1c0.5,0,0.9-0.1,1.3-0.3l0.1-0.3l-0.1-0.1
		C63.4,66.1,63.1,66.2,62.7,66.2z"/>
	<path class="st0" d="M67.1,65.5L67.1,65.5L67,65.9C67,66,67,66,67,66c0,0,0,0,0,0c-0.1,0-0.5,0.1-1,0.1h-0.4c0-0.2,0-0.5,0-0.7
		v-0.9c0.1,0,0.2,0,0.4,0c0.1,0,0.2,0,0.4,0c0.2,0,0.2,0,0.3,0.1c0,0,0,0.2,0,0.4l0,0h0.2l0,0c0-0.2,0-0.4,0-0.6c0-0.2,0-0.4,0-0.6
		l0,0h-0.2l0,0c0,0.2,0,0.3-0.1,0.4c0,0-0.1,0-0.3,0l-0.4,0c-0.1,0-0.2,0-0.4,0v-0.6c0-0.3,0-0.6,0-0.8c0.2,0,0.3,0,0.5,0
		c0.1,0,0.3,0,0.5,0c0.2,0,0.3,0,0.3,0.1c0,0,0,0.2,0,0.4l0,0H67l0,0l0-0.3c0-0.1,0-0.2,0-0.3l0-0.3l0,0c-1,0-1.6,0-2,0
		c-0.4,0-0.7,0-0.9,0l0,0v0.2l0,0c0.2,0,0.3,0,0.3,0c0.1,0,0.1,0,0.1,0.1c0,0.1,0,0.4,0,0.9v1.4l0,0.6c0,0.2,0,0.3,0,0.4
		c0,0-0.1,0.1-0.2,0.2l0,0v0.1l0,0c0.1,0,0.4,0,0.7,0l2,0l0,0c0-0.3,0-0.6,0.1-0.9l0,0H67.1z"/>
	<path class="st0" d="M70.1,64.3c-0.1,0-0.2-0.1-0.3-0.1c-0.2,0-0.3-0.1-0.3-0.1c-0.4-0.1-0.6-0.1-0.7-0.2c-0.2-0.1-0.2-0.3-0.2-0.5
		c0-0.2,0.1-0.4,0.2-0.5c0.1-0.1,0.3-0.2,0.6-0.2c0.2,0,0.3,0,0.5,0.1c0.1,0.1,0.2,0.1,0.3,0.2c0,0.1,0,0.2,0,0.4l0,0h0.2l0,0
		c0-0.3,0-0.6,0.1-0.8l0-0.1c-0.3-0.1-0.6-0.2-1.1-0.2c-0.5,0-0.9,0.1-1.1,0.4c-0.3,0.2-0.4,0.5-0.4,0.9c0,0.4,0.1,0.6,0.4,0.8
		c0.2,0.1,0.5,0.2,1,0.3c0.2,0,0.4,0.1,0.5,0.1c0.2,0.1,0.3,0.3,0.3,0.5c0,0.1,0,0.3-0.1,0.4c-0.1,0.3-0.4,0.4-0.8,0.4
		c-0.2,0-0.4,0-0.6-0.1c-0.2-0.1-0.3-0.2-0.4-0.3c0-0.2,0-0.3,0-0.4v-0.1l0,0H68l0,0c0,0.4,0,0.7-0.1,0.9l0,0.1
		c0.4,0.2,0.8,0.3,1.1,0.3c0.3,0,0.6,0,0.8-0.1c0.2-0.1,0.4-0.3,0.6-0.5c0.2-0.2,0.3-0.5,0.3-0.8c0-0.2-0.1-0.4-0.2-0.6
		C70.5,64.4,70.3,64.3,70.1,64.3z"/>
	<path class="st0" d="M74.7,64.3c0.1,0,0.3-0.1,0.4-0.1c0.1,0,0.2-0.1,0.3-0.2c0.2-0.2,0.3-0.4,0.3-0.7c0-0.2,0-0.3-0.1-0.4
		c-0.2-0.2-0.5-0.4-1-0.4c-0.1,0-0.3,0-0.4,0c-0.2,0-0.4,0-0.7,0c-0.4,0-0.7,0-0.9,0l0,0v0.2l0,0c0.2,0,0.3,0,0.3,0
		c0.1,0,0.1,0,0.1,0.1c0,0.1,0,0.4,0,0.9v1.4l0,0.6c0,0.2,0,0.3,0,0.4c0,0-0.1,0.1-0.2,0.2l0,0v0.1l0,0c0.1,0,0.3,0,0.6,0l0.7,0
		c0.1,0,0.2,0,0.3,0c0.4,0,0.6-0.1,0.9-0.2c0.5-0.3,0.7-0.6,0.7-1.1C75.9,64.6,75.5,64.3,74.7,64.3z M73.9,63.4c0-0.2,0-0.3,0-0.5
		c0.1,0,0.2,0,0.4,0c0.4,0,0.6,0.2,0.6,0.6c0,0.1,0,0.3-0.1,0.4c-0.1,0.2-0.3,0.3-0.7,0.3c-0.1,0-0.2,0-0.3,0V63.4z M74.8,65.9
		c-0.1,0.2-0.3,0.2-0.6,0.2c-0.1,0-0.2,0-0.3,0c0-0.1,0-0.3,0-0.4v-1.3c0.1,0,0.2,0,0.3,0c0.6,0,0.9,0.3,0.9,0.8
		C75,65.6,75,65.8,74.8,65.9z"/>
	<path class="st0" d="M79.2,65.5L79.2,65.5l-0.1,0.4c0,0.1,0,0.1-0.1,0.2c0,0,0,0,0,0c-0.1,0-0.5,0.1-1,0.1h-0.4c0-0.2,0-0.5,0-0.7
		v-0.9c0.1,0,0.2,0,0.4,0c0.1,0,0.2,0,0.4,0c0.2,0,0.2,0,0.3,0.1c0,0,0,0.2,0,0.4l0,0h0.2l0,0c0-0.2,0-0.4,0-0.6c0-0.2,0-0.4,0-0.6
		l0,0h-0.2l0,0c0,0.2,0,0.3-0.1,0.4c0,0-0.1,0-0.3,0l-0.4,0c-0.1,0-0.2,0-0.4,0v-0.6c0-0.3,0-0.6,0-0.8c0.2,0,0.3,0,0.5,0
		c0.1,0,0.3,0,0.5,0c0.2,0,0.3,0,0.3,0.1c0,0,0,0.2,0,0.4l0,0h0.2l0,0l0-0.3c0-0.1,0-0.2,0-0.3l0-0.3l0,0c-1,0-1.6,0-2,0
		c-0.4,0-0.7,0-0.9,0l0,0v0.2l0,0c0.2,0,0.3,0,0.3,0c0.1,0,0.1,0,0.1,0.1c0,0.1,0,0.4,0,0.9v1.4l0,0.6c0,0.2,0,0.3,0,0.4
		c0,0-0.1,0.1-0.2,0.2l0,0v0.1l0,0c0.1,0,0.4,0,0.7,0l2,0l0,0c0-0.3,0-0.6,0.1-0.9l0,0H79.2z"/>
	<path class="st0" d="M80.8,62.5c-0.4,0-0.7,0-0.9,0l0,0v0.2l0,0c0.2,0,0.3,0,0.3,0c0.1,0,0.1,0,0.1,0.1c0,0.1,0,0.4,0,0.9v1.5
		c0,0.4,0,0.7,0,0.9c0,0.1,0,0.1-0.1,0.1c0,0-0.1,0-0.3,0l0,0v0.2l0,0c0.2,0,0.5,0,0.9,0c0.4,0,0.7,0,0.9,0l0,0v-0.2l0,0
		c-0.2,0-0.3,0-0.3,0c-0.1,0-0.1,0-0.1-0.1c0-0.1,0-0.4,0-0.9v-1.5c0-0.4,0-0.7,0-0.9c0-0.1,0-0.1,0.1-0.1c0,0,0.1,0,0.3,0l0,0v-0.2
		l0,0C81.4,62.5,81.2,62.5,80.8,62.5z"/>
	<path class="st0" d="M83.1,62.5c-0.4,0-0.7,0-0.9,0l0,0v0.2l0,0c0.2,0,0.4,0,0.4,0c0.1,0,0.1,0,0.1,0.1c0,0.1,0,0.4,0,0.9v2.3
		c0,0.4,0,0.8,0,1c0,0.2-0.1,0.3-0.3,0.3c-0.1,0-0.2-0.1-0.4-0.2l-0.1,0c0,0.2,0,0.4,0,0.5c0.1,0,0.2,0,0.2,0c0.2,0,0.5-0.1,0.7-0.3
		c0.2-0.2,0.4-0.4,0.5-0.7c0.1-0.2,0.1-0.5,0.1-0.9v-2.1c0-0.4,0-0.7,0-0.9c0-0.1,0-0.1,0.1-0.1c0,0,0.1,0,0.3,0l0,0v-0.2l0,0
		C83.8,62.5,83.5,62.5,83.1,62.5z"/>
	<path class="st0" d="M85.2,62.5c-0.4,0-0.7,0-0.9,0l0,0v0.2l0,0c0.2,0,0.3,0,0.3,0c0.1,0,0.1,0,0.1,0.1c0,0.1,0,0.4,0,0.9v1.5
		c0,0.4,0,0.7,0,0.9c0,0.1,0,0.1-0.1,0.1c0,0-0.1,0-0.3,0l0,0v0.2l0,0c0.2,0,0.5,0,0.9,0c0.4,0,0.7,0,0.9,0l0,0v-0.2l0,0
		c-0.2,0-0.3,0-0.3,0c-0.1,0-0.1,0-0.1-0.1c0-0.1,0-0.4,0-0.9v-1.5c0-0.4,0-0.7,0-0.9c0-0.1,0-0.1,0.1-0.1c0,0,0.1,0,0.3,0l0,0v-0.2
		l0,0C85.9,62.5,85.6,62.5,85.2,62.5z"/>
	<path class="st0" d="M90.2,62.5c-0.2,0-0.4,0-0.6,0l0,0v0.2l0,0c0.2,0,0.3,0,0.3,0c0.1,0,0.1,0,0.1,0.1c0,0.1,0,0.4,0,0.9v1.6
		c-0.9-1-1.7-2-2.4-2.9c-0.2,0-0.4,0-0.6,0c-0.2,0-0.3,0-0.5,0l0,0v0.2l0,0c0.2,0,0.3,0,0.3,0c0.1,0,0.1,0,0.1,0.1
		c0,0.1,0,0.4,0,0.9v1.5c0,0.4,0,0.7,0,0.9c0,0.1,0,0.1-0.1,0.1c0,0-0.1,0-0.3,0l0,0v0.2l0,0c0.2,0,0.4,0,0.6,0c0.2,0,0.4,0,0.6,0
		l0,0v-0.2l0,0c-0.2,0-0.3,0-0.3,0c-0.1,0-0.1,0-0.1-0.1c0-0.1,0-0.4,0-0.9v-1.8c1.2,1.5,2.1,2.5,2.6,3.1c0.1,0,0.3,0,0.5,0.1l0,0
		c0-0.3,0-0.8,0-1.6v-1.1c0-0.4,0-0.7,0-0.9c0-0.1,0-0.1,0.1-0.1c0,0,0.1,0,0.3,0l0,0v-0.2l0,0C90.7,62.5,90.5,62.5,90.2,62.5z"/>
	<path class="st0" d="M94.8,64.9c-0.3,0-0.6,0-0.8,0l0,0v0.2l0,0c0.3,0,0.4,0,0.5,0c0.1,0,0.1,0,0.1,0.1c0,0,0,0.2,0,0.3
		c0,0.2,0,0.4,0,0.5c-0.2,0.1-0.5,0.2-0.7,0.2c-0.5,0-0.8-0.2-1.1-0.5c-0.3-0.3-0.4-0.8-0.4-1.3c0-0.3,0.1-0.6,0.2-0.9
		c0.3-0.5,0.7-0.8,1.4-0.8c0.2,0,0.5,0,0.7,0.1c0.2,0.1,0.3,0.2,0.4,0.3c0,0,0,0.1,0,0.2c0,0.1,0,0.2,0,0.2l0,0h0.2l0,0
		c0-0.4,0.1-0.7,0.1-0.9l0-0.1c-0.1-0.1-0.3-0.1-0.6-0.2c-0.3-0.1-0.6-0.1-0.9-0.1c-0.5,0-0.9,0.1-1.3,0.2c-0.7,0.4-1.1,1-1.1,1.8
		c0,0.6,0.2,1.2,0.6,1.5c0.4,0.4,1,0.6,1.6,0.6c0.5,0,1.1-0.1,1.7-0.4c0-0.2,0-0.3,0-0.5c0-0.3,0-0.5,0-0.6c0,0,0.1-0.1,0.2-0.1l0,0
		v-0.1l0,0C95.2,64.9,94.9,64.9,94.8,64.9z"/>
	<path class="st0" d="M101.2,62.5c-0.2,0-0.4,0-0.6,0l0,0v0.2l0,0c0.2,0,0.3,0,0.3,0c0.1,0,0.1,0,0.1,0.1c0,0.1,0,0.4,0,0.9v1.6
		c-0.9-1-1.7-2-2.4-2.9c-0.2,0-0.4,0-0.6,0c-0.2,0-0.3,0-0.5,0l0,0v0.2l0,0c0.2,0,0.3,0,0.3,0c0.1,0,0.1,0,0.1,0.1
		c0,0.1,0,0.4,0,0.9v1.5c0,0.4,0,0.7,0,0.9c0,0.1,0,0.1-0.1,0.1c0,0-0.1,0-0.3,0l0,0v0.2l0,0c0.2,0,0.4,0,0.6,0c0.2,0,0.4,0,0.6,0
		l0,0v-0.2l0,0c-0.2,0-0.3,0-0.3,0c-0.1,0-0.1,0-0.1-0.1c0-0.1,0-0.4,0-0.9v-1.8c1.2,1.5,2.1,2.5,2.6,3.1c0.1,0,0.3,0,0.5,0.1l0,0
		c0-0.3,0-0.8,0-1.6v-1.1c0-0.4,0-0.7,0-0.9c0-0.1,0-0.1,0.1-0.1c0,0,0.1,0,0.3,0l0,0v-0.2l0,0C101.6,62.5,101.4,62.5,101.2,62.5z"
		/>
	<path class="st0" d="M104.5,62.5c-0.5,0-0.8,0.1-1.1,0.2c-0.7,0.3-1,1-1,1.9c0,0.6,0.2,1.1,0.5,1.5c0.4,0.4,0.9,0.5,1.5,0.5
		c0.7,0,1.2-0.2,1.6-0.6c0.4-0.4,0.6-0.9,0.6-1.6c0-0.6-0.2-1.1-0.5-1.4C105.6,62.6,105.1,62.5,104.5,62.5z M105.5,65.5
		c-0.2,0.5-0.5,0.8-1.1,0.8c-0.4,0-0.8-0.2-1-0.5c-0.2-0.3-0.3-0.8-0.3-1.4c0-0.3,0-0.6,0.1-0.9c0.2-0.5,0.5-0.7,1.1-0.7
		c0.4,0,0.7,0.2,1,0.5c0.2,0.3,0.3,0.7,0.3,1.3C105.7,64.9,105.6,65.2,105.5,65.5z"/>
	<path class="st0" d="M110.6,66.2c-0.1-0.1-0.3-0.3-0.5-0.7l-0.4-0.7c-0.1-0.2-0.2-0.3-0.3-0.5c0.6-0.2,0.9-0.6,0.9-1.1
		c0-0.1,0-0.2-0.1-0.3c-0.1-0.2-0.2-0.3-0.4-0.4c-0.2-0.1-0.4-0.1-0.7-0.1c-0.1,0-0.3,0-0.6,0c-0.1,0-0.3,0-0.6,0
		c-0.4,0-0.7,0-0.9,0l0,0v0.2l0,0c0.2,0,0.3,0,0.3,0c0.1,0,0.1,0,0.1,0.1c0,0.1,0,0.4,0,0.9v1.5c0,0.4,0,0.7,0,0.9
		c0,0.1,0,0.1-0.1,0.1c0,0-0.1,0-0.3,0l0,0v0.2l0,0c0.2,0,0.5,0,0.9,0c0.4,0,0.7,0,0.9,0l0,0v-0.2l0,0c-0.2,0-0.3,0-0.3,0
		c-0.1,0-0.1,0-0.1-0.1c0-0.1,0-0.4,0-0.9v-1.5c0-0.4,0-0.7,0-0.9c0.1,0,0.2,0,0.3,0c0.2,0,0.4,0,0.5,0.1c0.2,0.1,0.4,0.3,0.4,0.6
		c0,0.2,0,0.3-0.1,0.5c-0.1,0.1-0.2,0.2-0.3,0.3c-0.1,0.1-0.2,0.1-0.4,0.1c0,0-0.1,0-0.1,0l0,0.1c0.1,0.1,0.1,0.1,0.2,0.2l0.3,0.5
		l0.7,1.2c0.1,0.1,0.1,0.2,0.1,0.2c0.2,0,0.4,0,0.5,0c0.1,0,0.2,0,0.5,0c0.1,0,0.1,0,0.1,0l0,0v-0.2l0,0
		C110.7,66.2,110.6,66.2,110.6,66.2z"/>
	<path class="st0" d="M115.5,62.5c-0.1,0-0.2,0-0.4,0c-0.1,0.2-0.2,0.4-0.2,0.5l-0.7,1.4l-0.4,0.9l-0.9-1.9l-0.2-0.4
		c-0.1-0.3-0.2-0.5-0.3-0.6c-0.2,0-0.4,0-0.6,0c-0.3,0-0.5,0-0.7,0l0,0v0.2l0,0c0.2,0,0.3,0,0.3,0c0.1,0,0.1,0,0.1,0.1
		c0,0.1,0,0.4,0,0.9v1.5c0,0.4,0,0.7,0,0.9c0,0.1,0,0.1-0.1,0.1c0,0-0.1,0-0.3,0l0,0v0.2l0,0c0.2,0,0.4,0,0.6,0c0.2,0,0.4,0,0.6,0
		l0,0v-0.2l0,0c-0.2,0-0.3,0-0.3,0c-0.1,0-0.1,0-0.1-0.1c0-0.1,0-0.4,0-0.9v-1.9l0.7,1.5l0.4,0.8c0.2,0.4,0.3,0.6,0.4,0.9h0.2
		l0.5-1.1c0.2-0.4,0.3-0.7,0.4-0.8l0.6-1.3v1.9c0,0.4,0,0.7,0,0.9c0,0.1,0,0.1-0.1,0.1c0,0-0.1,0-0.3,0l0,0v0.2l0,0
		c0.2,0,0.5,0,0.9,0c0.4,0,0.7,0,0.9,0l0,0v-0.2l0,0c-0.2,0-0.3,0-0.3,0c-0.1,0-0.1,0-0.1-0.1c0-0.1,0-0.4,0-0.9v-1.5
		c0-0.4,0-0.7,0-0.9c0-0.1,0-0.1,0.1-0.1c0,0,0.1,0,0.3,0l0,0v-0.2l0,0C116.1,62.5,115.9,62.5,115.5,62.5z"/>
	<path class="st0" d="M120.6,66.2c0,0-0.1-0.1-0.2-0.2l-1.5-3.5h-0.4c-0.1,0.3-0.2,0.5-0.2,0.6l-0.7,1.8c-0.3,0.7-0.4,1.1-0.5,1.2
		c0,0.1-0.2,0.1-0.4,0.1l0,0v0.2l0,0c0.3,0,0.5,0,0.6,0c0.1,0,0.3,0,0.7,0l0,0v-0.2l0,0c-0.1,0-0.2,0-0.3,0c-0.1,0-0.1-0.1-0.1-0.1
		c0-0.1,0-0.2,0.1-0.5l0.1-0.3c0.3,0,0.5,0,0.6,0c0.3,0,0.5,0,0.8,0l0.2,0.6c0.1,0.1,0.1,0.2,0.1,0.3c0,0.1-0.1,0.1-0.2,0.1l-0.2,0
		l0,0v0.2l0,0c0.3,0,0.6,0,1,0c0.1,0,0.3,0,0.7,0l0,0v-0.2l0,0C120.7,66.2,120.6,66.2,120.6,66.2z M118.5,65c-0.2,0-0.4,0-0.6,0
		l0.6-1.5l0.6,1.5C119,64.9,118.8,65,118.5,65z"/>
	<path class="st0" d="M124,65.5L124,65.5l-0.1,0.4c0,0.1,0,0.1-0.1,0.2c0,0,0,0,0,0c-0.1,0-0.5,0.1-1,0.1h-0.4c0-0.2,0-0.5,0-0.7
		v-1.7c0-0.4,0-0.7,0-0.9c0-0.1,0-0.1,0.1-0.1c0,0,0.1,0,0.3,0l0,0v-0.2l0,0c-0.2,0-0.5,0-0.9,0c-0.4,0-0.7,0-0.8,0l0,0v0.2l0,0
		c0.2,0,0.3,0,0.3,0c0.1,0,0.1,0,0.1,0.1c0,0.1,0,0.4,0,0.9v1.4l0,0.6c0,0.2,0,0.3,0,0.4c0,0-0.1,0.1-0.2,0.2l0,0v0.1l0,0
		c0.1,0,0.4,0,0.7,0l2,0l0,0c0-0.3,0-0.6,0.1-0.9l0,0H124z"/>
	<path class="st0" d="M129.4,62.5c-0.2,0-0.3,0-0.5,0l0,0v0.2l0,0c0.2,0,0.3,0,0.3,0c0.1,0,0.1,0,0.1,0.1c0,0.1,0,0.2,0,0.3
		c0,0.2,0,0.5,0,1v0.6c0,0.2,0,0.3,0,0.5c0,0.2,0,0.3-0.1,0.4c0,0.1-0.1,0.2-0.2,0.2c-0.2,0.2-0.4,0.2-0.8,0.2
		c-0.5,0-0.8-0.2-0.9-0.5c-0.1-0.2-0.1-0.6-0.1-1.3v-0.6c0-0.4,0-0.7,0-0.9c0-0.1,0-0.1,0.1-0.1c0,0,0.1,0,0.3,0l0,0v-0.2l0,0
		c-0.2,0-0.5,0-0.9,0c-0.4,0-0.7,0-0.9,0l0,0v0.2l0,0c0.2,0,0.3,0,0.3,0c0.1,0,0.1,0,0.1,0.1c0,0.1,0,0.4,0,0.9v0.7
		c0,0.7,0,1.1,0.1,1.3c0.1,0.3,0.2,0.4,0.5,0.6c0.3,0.2,0.7,0.2,1.1,0.2c0.5,0,0.9-0.2,1.2-0.5c0.2-0.2,0.3-0.6,0.3-1.2v-0.9
		c0-0.3,0-0.5,0-0.7c0-0.2,0-0.4,0-0.4c0-0.1,0.2-0.2,0.4-0.2l0,0v-0.2l0,0C129.8,62.5,129.5,62.5,129.4,62.5z"/>
	<path class="st0" d="M134.2,62.5c-0.2,0-0.4,0-0.6,0l0,0v0.2l0,0c0.2,0,0.3,0,0.3,0c0.1,0,0.1,0,0.1,0.1c0,0.1,0,0.4,0,0.9v1.6
		c-0.9-1-1.7-2-2.4-2.9c-0.2,0-0.4,0-0.6,0c-0.2,0-0.3,0-0.5,0l0,0v0.2l0,0c0.2,0,0.3,0,0.3,0c0.1,0,0.1,0,0.1,0.1
		c0,0.1,0,0.4,0,0.9v1.5c0,0.4,0,0.7,0,0.9c0,0.1,0,0.1-0.1,0.1c0,0-0.1,0-0.3,0l0,0v0.2l0,0c0.2,0,0.4,0,0.6,0c0.2,0,0.4,0,0.6,0
		l0,0v-0.2l0,0c-0.2,0-0.3,0-0.3,0c-0.1,0-0.1,0-0.1-0.1c0-0.1,0-0.4,0-0.9v-1.8c1.2,1.5,2.1,2.5,2.6,3.1c0.1,0,0.3,0,0.5,0.1l0,0
		c0-0.3,0-0.8,0-1.6v-1.1c0-0.4,0-0.7,0-0.9c0-0.1,0-0.1,0.1-0.1c0,0,0.1,0,0.3,0l0,0v-0.2l0,0C134.7,62.5,134.5,62.5,134.2,62.5z"
		/>
	<path class="st0" d="M136.2,62.5c-0.4,0-0.7,0-0.9,0l0,0v0.2l0,0c0.2,0,0.3,0,0.3,0c0.1,0,0.1,0,0.1,0.1c0,0.1,0,0.4,0,0.9v1.5
		c0,0.4,0,0.7,0,0.9c0,0.1,0,0.1-0.1,0.1c0,0-0.1,0-0.3,0l0,0v0.2l0,0c0.2,0,0.5,0,0.9,0c0.4,0,0.7,0,0.9,0l0,0v-0.2l0,0
		c-0.2,0-0.3,0-0.3,0c-0.1,0-0.1,0-0.1-0.1c0-0.1,0-0.4,0-0.9v-1.5c0-0.4,0-0.7,0-0.9c0-0.1,0-0.1,0.1-0.1c0,0,0.1,0,0.3,0l0,0v-0.2
		l0,0C136.9,62.5,136.6,62.5,136.2,62.5z"/>
	<path class="st0" d="M141,62.5c-0.2,0-0.4,0-0.7,0l0,0v0.2l0,0c0.2,0,0.3,0,0.4,0c0,0,0.1,0.1,0.1,0.1c0,0.1-0.1,0.3-0.2,0.6
		c-0.1,0.2-0.1,0.4-0.2,0.4l-0.6,1.6l-0.7-1.7l-0.1-0.3c-0.1-0.3-0.2-0.5-0.2-0.5c0,0,0-0.1,0-0.1c0.1,0,0.2,0,0.4-0.1l0,0v-0.2l0,0
		c-0.3,0-0.6,0-1,0c-0.3,0-0.5,0-0.7,0l0,0v0.2l0,0c0.2,0,0.3,0,0.3,0.1c0.1,0,0.1,0.2,0.3,0.6l1.3,3.1h0.4c0.1-0.3,0.3-0.9,0.6-1.6
		l0.4-0.9l0.2-0.5c0.1-0.3,0.2-0.5,0.2-0.5c0-0.1,0.1-0.1,0.1-0.1c0,0,0.1,0,0.2,0l0,0v-0.2l0,0C141.4,62.5,141.2,62.5,141,62.5z"/>
	<path class="st0" d="M144.8,65.5L144.8,65.5l-0.1,0.4c0,0.1,0,0.1-0.1,0.2c0,0,0,0,0,0c-0.1,0-0.5,0.1-1,0.1h-0.4
		c0-0.2,0-0.5,0-0.7v-0.9c0.1,0,0.2,0,0.4,0c0.1,0,0.2,0,0.4,0c0.2,0,0.2,0,0.3,0.1c0,0,0,0.2,0,0.4l0,0h0.2l0,0c0-0.2,0-0.4,0-0.6
		c0-0.2,0-0.4,0-0.6l0,0h-0.2l0,0c0,0.2,0,0.3-0.1,0.4c0,0-0.1,0-0.3,0l-0.4,0c-0.1,0-0.2,0-0.4,0v-0.6c0-0.3,0-0.6,0-0.8
		c0.2,0,0.3,0,0.5,0c0.1,0,0.3,0,0.5,0c0.2,0,0.3,0,0.3,0.1c0,0,0,0.2,0,0.4l0,0h0.2l0,0l0-0.3c0-0.1,0-0.2,0-0.3l0-0.3l0,0
		c-1,0-1.6,0-2,0c-0.4,0-0.7,0-0.9,0l0,0v0.2l0,0c0.2,0,0.3,0,0.3,0c0.1,0,0.1,0,0.1,0.1c0,0.1,0,0.4,0,0.9v1.4l0,0.6
		c0,0.2,0,0.3,0,0.4c0,0-0.1,0.1-0.2,0.2l0,0v0.1l0,0c0.1,0,0.4,0,0.7,0l2,0l0,0c0-0.3,0-0.6,0.1-0.9l0,0H144.8z"/>
	<path class="st0" d="M149,66.2c-0.1-0.1-0.3-0.3-0.5-0.7l-0.4-0.7c-0.1-0.2-0.2-0.3-0.3-0.5c0.6-0.2,0.9-0.6,0.9-1.1
		c0-0.1,0-0.2-0.1-0.3c-0.1-0.2-0.2-0.3-0.4-0.4c-0.2-0.1-0.4-0.1-0.7-0.1c-0.1,0-0.3,0-0.6,0c-0.1,0-0.3,0-0.6,0
		c-0.4,0-0.7,0-0.9,0l0,0v0.2l0,0c0.2,0,0.3,0,0.3,0c0.1,0,0.1,0,0.1,0.1c0,0.1,0,0.4,0,0.9v1.5c0,0.4,0,0.7,0,0.9
		c0,0.1,0,0.1-0.1,0.1c0,0-0.1,0-0.3,0l0,0v0.2l0,0c0.2,0,0.5,0,0.9,0c0.4,0,0.7,0,0.9,0l0,0v-0.2l0,0c-0.2,0-0.3,0-0.3,0
		c-0.1,0-0.1,0-0.1-0.1c0-0.1,0-0.4,0-0.9v-1.5c0-0.4,0-0.7,0-0.9c0.1,0,0.2,0,0.3,0c0.2,0,0.4,0,0.5,0.1c0.2,0.1,0.4,0.3,0.4,0.6
		c0,0.2,0,0.3-0.1,0.5c-0.1,0.1-0.2,0.2-0.3,0.3c-0.1,0.1-0.2,0.1-0.4,0.1c0,0-0.1,0-0.1,0l0,0.1c0.1,0.1,0.1,0.1,0.2,0.2l0.3,0.5
		l0.7,1.2c0.1,0.1,0.1,0.2,0.1,0.2c0.2,0,0.4,0,0.5,0c0.1,0,0.2,0,0.5,0c0.1,0,0.1,0,0.1,0l0,0v-0.2l0,0
		C149.1,66.2,149,66.2,149,66.2z"/>
	<path class="st0" d="M151.9,64.3c-0.1,0-0.2-0.1-0.3-0.1c-0.2,0-0.3-0.1-0.3-0.1c-0.4-0.1-0.6-0.1-0.7-0.2
		c-0.2-0.1-0.2-0.3-0.2-0.5c0-0.2,0.1-0.4,0.2-0.5c0.1-0.1,0.3-0.2,0.6-0.2c0.2,0,0.3,0,0.5,0.1c0.1,0.1,0.2,0.1,0.3,0.2
		c0,0.1,0,0.2,0,0.4l0,0h0.2l0,0c0-0.3,0-0.6,0.1-0.8l0-0.1c-0.3-0.1-0.6-0.2-1.1-0.2c-0.5,0-0.9,0.1-1.1,0.4
		c-0.3,0.2-0.4,0.5-0.4,0.9c0,0.4,0.1,0.6,0.4,0.8c0.2,0.1,0.5,0.2,1,0.3c0.2,0,0.4,0.1,0.5,0.1c0.2,0.1,0.3,0.3,0.3,0.5
		c0,0.1,0,0.3-0.1,0.4c-0.1,0.3-0.4,0.4-0.8,0.4c-0.2,0-0.4,0-0.6-0.1c-0.2-0.1-0.3-0.2-0.4-0.3c0-0.2,0-0.3,0-0.4v-0.1l0,0h-0.2
		l0,0c0,0.4,0,0.7-0.1,0.9l0,0.1c0.4,0.2,0.8,0.3,1.1,0.3c0.3,0,0.6,0,0.8-0.1c0.2-0.1,0.4-0.3,0.6-0.5c0.2-0.2,0.3-0.5,0.3-0.8
		c0-0.2-0.1-0.4-0.2-0.6C152.2,64.4,152.1,64.3,151.9,64.3z"/>
	<path class="st0" d="M153.9,62.5c-0.4,0-0.7,0-0.9,0l0,0v0.2l0,0c0.2,0,0.3,0,0.3,0c0.1,0,0.1,0,0.1,0.1c0,0.1,0,0.4,0,0.9v1.5
		c0,0.4,0,0.7,0,0.9c0,0.1,0,0.1-0.1,0.1c0,0-0.1,0-0.3,0l0,0v0.2l0,0c0.2,0,0.5,0,0.9,0c0.4,0,0.7,0,0.9,0l0,0v-0.2l0,0
		c-0.2,0-0.3,0-0.3,0c-0.1,0-0.1,0-0.1-0.1c0-0.1,0-0.4,0-0.9v-1.5c0-0.4,0-0.7,0-0.9c0-0.1,0-0.1,0.1-0.1c0,0,0.1,0,0.3,0l0,0v-0.2
		l0,0C154.6,62.5,154.3,62.5,153.9,62.5z"/>
	<path class="st0" d="M157.5,62.5h-1.1c-0.7,0-1.1,0-1.2,0l0,0c0,0.1,0,0.3,0,0.4l0,0.5l0,0h0.2l0,0c0-0.1,0-0.2,0-0.3
		c0-0.1,0-0.1,0-0.2c0,0,0,0,0.1,0c0.1,0,0.2,0,0.6,0h0.4c0,0.1,0,0.3,0,0.8v1.6c0,0.4,0,0.7,0,0.9c0,0.1,0,0.1-0.1,0.1
		c0,0-0.1,0-0.3,0l0,0v0.2l0,0c0.2,0,0.5,0,0.9,0c0.4,0,0.7,0,0.9,0l0,0v-0.2l0,0c-0.2,0-0.3,0-0.3,0c-0.1,0-0.1,0-0.1-0.1
		c0-0.1,0-0.4,0-0.9v-1.6c0-0.5,0-0.7,0-0.8h0.4c0.3,0,0.5,0,0.5,0c0.1,0,0.2,0.1,0.2,0.1c0,0,0,0.2,0,0.4l0,0h0.2l0,0l0-0.5
		c0-0.1,0-0.3,0-0.4l0,0C158.5,62.5,158.1,62.5,157.5,62.5z"/>
	<path class="st0" d="M162.1,62.5c-0.1,0.1-0.1,0.2-0.1,0.3l-0.3,0.6c-0.3,0.5-0.5,0.9-0.6,1.1l-0.4-0.7c-0.3-0.5-0.5-0.9-0.6-1
		c-0.1-0.1-0.2-0.1-0.3-0.2c-0.1,0-0.4,0.1-0.9,0.2l0,0v0.2l0,0c0.1,0,0.2,0,0.2,0c0,0,0.1,0.1,0.2,0.1c0.2,0.2,0.4,0.5,0.7,1
		c0.3,0.5,0.4,0.8,0.4,0.8v0.3c0,0.5,0,0.8-0.1,0.9c0,0,0,0-0.1,0.1c0,0-0.2,0-0.3,0l0,0v0.2l0,0c0.2,0,0.5,0,0.9,0
		c0.4,0,0.7,0,0.9,0l0,0v-0.2l0,0c-0.2,0-0.3,0-0.3,0c0,0,0,0-0.1-0.1c0-0.1-0.1-0.4-0.1-0.9V65c0-0.1,0-0.2,0-0.2
		c0-0.1,0.1-0.3,0.3-0.6c0.3-0.6,0.7-1.1,1-1.5v-0.1l0,0H162.1z"/>
	<path class="st0" d="M111,26c5.7,1.2,7.5-5.7,7.8-7.3c0.3-1.6,3.5-2.4,3.5-2.4c1.2-0.4,1.5-0.4,2.1-0.6c0.9-0.3,1.6-1.5,1.4-1.5
		c0.3-0.8-0.9-0.7-0.9-0.7c-0.6,0-1.6-1-1.6-1c-1.3-0.9-0.2,1-0.2,1c1.4,1.9-2.9,2.4-2.9,2.4c-1,0.5-0.4-0.7-0.4-0.7
		c0.3-1.2,1-4.6,1.4-6c0.5-1.7-0.1-2.9-0.2-2.9c-0.6-1-2.1-1.9-2.1-1.9c-0.6-0.1,0,2.8,0,3.1c0.2,3.5-0.6,8.1-0.7,8.2
		c-0.1,0.4,0,0.8-0.4,1.1c-1,0.8-3.6,1.6-4.8,2c-0.8,0.3-1.8,0.7-2.1,0.6c-0.3-0.1-0.3-0.3-0.6-0.3c-0.7,0,0.3,1.8,0.3,1.8
		c0.4,0.7,1.8-0.4,4.5-1.6c1.3-0.6,1.7-0.6,2.1-0.8c0.2-0.1,0.3,0.3,0,0.6c-2.5,6.6-5.8,6.1-6.8,5.9c-0.7-0.2-0.6-0.1-0.7,0.1
		C110,25.9,111,26,111,26z"/>
	<path class="st0" d="M124.3,23.1c-0.5-0.3-4.7-4.2-4.7-4.2c0-0.2-0.2-0.2-0.2-0.2c-0.4-0.1,0,0.6,0,0.6c0.7,1.3,1.6,2.7,2.1,4.1
		c-0.1,0.2,0,0.3,0,0.3c1,1.9,1.6,3.2,3,2.7c1.1-0.3,2.6-1.7,3.5-2.3c0.1-0.7-0.5-0.4-0.5-0.4C124.9,23.8,124.3,23.1,124.3,23.1z"/>
	<path class="st0" d="M70.3,21.4c-0.1,1.1,0.2,1.6,0.8,2.1c0.5,0.4,0.6,0.5,0.8,0.3c1-0.9,0.6-2.9,0-4c-0.3-0.5-0.5-1.2-0.4-1.7
		c0.1-0.6-0.5-0.3-0.5-0.3c-0.3,0.3-0.1,1.4-0.1,1.4c0,0.3,0,0.7-0.1,0.9C70.6,20.4,70.4,20.7,70.3,21.4z"/>
	<path class="st0" d="M75,13.1c0,0-2.2,1.5-3.1,2.3c-0.4,0.3-0.8,0.6-0.2,0.8c0,0,0.3,0,0.6,0c0.2,0,0.3,0,0.5-0.1
		c0.3-0.2,0.9-0.5,1-0.5c0,0,0.5-0.3,0.3,0.3c0,0-0.6,0.4-0.3,1.1c0,0,0,0.4,0.5,0.4c0.8,0.1,2.2,0.3,1.9-0.7c0-0.3-0.4-0.7-0.6-0.8
		c0,0-0.4-0.2,0.2-0.7c0,0,1.4-1.5,1.2-2.3C76.6,12.2,75.6,12.9,75,13.1z"/>
	<path class="st0" d="M79.5,16.7c-0.1,0-0.6,0.5-0.6,0.5l0,0.5c0.2-0.1,0.1,0.3,0.3,0.1c0-0.1,0.2-0.3,0.2-0.3
		c0-0.1,0.1-0.2,0.1-0.2l0-0.3c0,0,0,0,0.2-0.1c0.2-0.2,0.2,0.8,0.2,1.5c0,0-0.2,0.1-0.1,0.1c0.1,0,0,0.1,0,0.1
		c-0.4,0.4-0.3,0.8-0.3,1.3c0,2.1-0.3,4.2-0.3,6.3c0,0,0,0.6,0,0.6c0.1,0.3,0.4,1,0.4,1c0.3,0.6,0.5,0.4,0.5,0.3
		c0.5-0.5,0.6-1.1,0.8-1.7c0-0.3,0.2-1.8,0-2c-0.1-1.2,0-2.2,0-2.2c0-0.8-0.1-2.7,0.1-3.2c0-0.4,0.2-0.1,0.2-0.1
		c0.1,0.2,0.1,0,0.3,0.1c0.3,0.2,1.1-0.7,1.2-0.8c1-1.3,1.9-1.9,2.7-3.6c0.1-0.4,0-0.7-0.2-0.9c-0.1-0.1-0.3-0.1-0.4-0.1
		c-0.4,0-1.2,0.1-1.6,0.2c-0.3,0.1-0.9,0.3-1.2,0.4c-0.1,0.1-0.3,0.1-0.5,0.1c-0.3-0.4-0.4-0.5-0.9-0.8c-0.2,0-0.1-0.4,0.1-0.4
		c0.2,0,2.3-1.5,2.3-1.5c0.3,0,1.7-1.3,2-1.6c0.5-0.2,0.5-0.8,0.1-1.1l-1.1,0c-0.9,0-4.5,1.6-5,2.1c-0.1,0.2-0.1,0.3-0.3,0.4
		c-0.3,0.1,0.5,1,0.5,1c0.3,0,0.2-0.2,0.4-0.2c0.2,0,0.7,0.1,0.7,0.3c0,0.1-0.1,0.2-0.2,0.3c-0.4,0.2-0.3,0.5-0.5,0.8
		c-0.1,0.1-0.1,0.2-0.1,0.4c0,0.1,0.1,0.4,0.2,0.5c0.3,0.3,0,1,0.1,1.4C80.1,16.1,79.6,16.6,79.5,16.7z M81.3,17.5
		c0-0.4,0.4-1.1,0.3-1.6c0-0.3,0.5-0.4,0.5-0.4c0.1-0.1,0.2-0.3,0.2-0.3l0-0.4c0.1-0.2,0.4-0.3,0.4-0.3c0.1-0.1,0.4-0.1,0.6-0.1
		c0.2-0.1,1.1-0.4,1.2-0.2c0.1,0.2,0,0.4-0.2,0.6C84.3,15,84,15.4,84,15.6c-0.2,0.5-1.8,2.4-2.1,2.1C81.1,17.9,81.3,17.5,81.3,17.5z
		"/>
	<path class="st0" d="M77.4,18.9C77.4,18.9,77.4,18.9,77.4,18.9C77.4,19,77.4,19,77.4,18.9c0.1,0.1,0.2,0.1,0.3,0.2
		c0.2,0,0.2,0,0.3-0.1c0.3-0.4,0.9-0.4,0.5-0.9c-0.2-0.3-0.7,0.1-0.9,0.2c-0.3,0-0.5,0.2-0.3,0.5C77.3,18.8,77.3,18.9,77.4,18.9z"/>
	<path class="st0" d="M69.1,16.8c1.1,0,4.8-6.7,6.4-8c1.2-0.9,1.1-1.4,1.1-1.4c0-1.5-2.3-1.8-2.6-1.8c-0.9,0.1,0.4,0.9,0.4,0.9
		c1,1-1.9,5-2.9,6.3c-0.8,1.1-1.6,2.4-2.4,3.5C68.9,16.4,68.6,16.8,69.1,16.8z"/>
	<path class="st0" d="M73.9,21.2c0,0-0.3,1.8,1.4,1.1c0,0,1-0.4,0.8-1.4c0.2-0.8,0.6-1.3,0.6-2.1c0-0.2,0-0.2-0.1-0.3
		c-0.3-0.4-0.5-0.7-1.1-0.4l-1.7,0.8c-0.2-0.1-0.7,0.3-0.1,0.7c0.4,0.1,0.7,0,0.8,0.2c0.1,0.1,0,0.4-0.1,0.7
		C74.4,20.3,74,20.9,73.9,21.2z M75.5,19c0.1-0.1,0.2-0.2,0.2,0.1c0,0.1-0.6,1.3-0.8,1.4c-0.2,0.3-0.4,0-0.4,0
		C74.7,20.5,75.1,19.5,75.5,19z"/>
	<path class="st0" d="M102.9,12.1c-0.1,0.1-2.1,0.9-2.3,1.1c-0.3,0.2,0,0.3,0.2,0.4c0.5,0,1-0.4,1.3-0.4c0.2,0,0.2,0.2-0.1,0.6
		c-0.4,0.4-0.8,1.4-1.6,2.3c-0.2,0.2-0.2,0.3-0.2,0.4c-0.1,0.1-0.2,0.6-0.2,0.9c0,0.3,0.1,0.7,0.3,0.9c0.1,0.1,0.5,0.5,0.9,0.7
		c0.1,0.1,0.5,0.2,0.6,0.1c0.3-0.1,0.7-0.3,0.6-0.3c0,0,0.1-0.5,0-0.6c-0.1-0.1-0.4-0.3-0.5-0.4c-0.1-0.1-0.4-0.3-0.5-0.3
		c-0.3,0-0.2,0-0.3-0.2c-0.1-0.2,0.1-0.5,0.2-0.7c0.6-0.7,1.9-2.2,2.1-2.4c0.2-0.2,0.5-0.4,0.7-0.5c0.2-0.2,0.3-0.3,0.3-0.4
		c0.2-1-0.6-1.2-0.9-1.3C102.9,11.8,103.1,12,102.9,12.1z"/>
	<path class="st0" d="M93.7,8.4c0,0.1,1.8,0.5,1.8,1.3c0.1,0.3,0.4,0.5,0.6,0.7c0.4,0.4,1.5-0.4,1.5-1c0.2-0.5-0.3-0.7-0.4-0.9
		c-0.2-0.2,0.4-0.7,0.7-0.9c0.2-0.2,3-1.6,2.9-0.8c-0.7,1-1.5,1.6-2.4,2.2c0,0-0.3,0.1-0.1,0.3c0,0,0.2,0.2,0.4,0
		c0.7-0.4,3.6-2.3,4.9-2.6c0,0,0.6-0.1,0.5-0.5L104,5.9c0,0-0.1-0.2-0.4-0.4c-0.2-0.2-0.4-0.3-0.5-0.4c-0.6-0.5-1.1,0.1-1.3,0.3
		c0,0-0.2,0.4-1,0.5c-1.3,0.4-2.7,1.1-4.1,1.7c-0.5,0.2-0.8,0.1-1.1,0c-0.2-0.1-0.2-0.2-0.7-0.1c0,0-0.4,0.1-0.9,0.3
		C93.6,8,93.6,8,93.6,8.3C93.6,8.3,93.6,8.3,93.7,8.4z"/>
	<path class="st0" d="M88.6,25.3c0.5,0.1,0.4,0,0.9-0.3c0.5-0.3,1.4-1.2,2.3-1.6c0.5-0.2-0.3,2.1-0.5,2.3l0,0.8
		C91.6,27.1,92,28,92,28c1.1,1.4,1.3-0.2,1.4-0.6c0.2-0.7,0.4-1.5,0.6-2.4c0.2-0.7,0.3-2.3,0.6-2.7c1.1-0.2,1.6-0.8,1.6-0.8
		c0.6-1,0.2-2.1,0-2.6c-0.1-0.2-0.2-0.7-0.3-0.6c-0.2,0.2-0.3-0.3-0.3-0.5c0-0.5,0.3-0.5,0.4-0.7c1.6-1.6,1-2.4,0.6-2.6
		c-0.4-0.2-1.7,0.3-1.7,0.3c-0.3-0.1,0-0.8,0.1-0.8c0.1,0,0.3-0.2,0.1-0.4C95,13.3,95,13.2,95,13.2c0.1-0.5,0-0.9-0.1-1.3
		c-0.6-1-1.2,0-1.1,0.2c0.3,0.5,0.1,1-0.4,1.5C93,13.9,92.6,14,92.6,14c-0.4,0.4-0.1,0.6,0.2,0.4c0.3-0.2,0.4-0.2,0.4,0.7
		c0,0.9-1,1.1-1.3,1.3c-0.3,0.3-0.4,0.2-0.4,0.2c0,0.1-0.2,0.1-0.6,0.5c-0.4,0.4-0.3-0.1-0.2-0.3c0.1-0.2,0-0.4-0.3-0.3
		c-0.2,0.1-0.5,0.8-0.5,0.8c-0.4,0.6-0.3,1-0.1,1.5c0.4,0.3,0.9-0.3,0.9-0.3s1.4-1.3,1.6-1.5c0.7-0.6,0.3-0.2,0.4,0.1
		c0.2,0.3,0,0.4,0,0.4s0.1,0.1-0.5,0.3c-0.6,0.2-0.2,0.7-0.2,0.7c0.8,0.4-1.7,2.2-2.2,2.7c-0.8,0.9-1.1,1-1.8,2.1
		C87.5,24.8,88.6,25.3,88.6,25.3z M94.8,16.1c0-0.3,0.1-0.6,0.2-0.8c0.2-0.3,0.6-0.4,0.7-0.3c0.1,0.1,0.1,0.2,0.1,0.2
		c0.4,0.3-0.7,1.1-0.8,1.2C94.9,16.5,94.8,16.4,94.8,16.1z M94.6,18.6c0.1-0.2,0.4,0.8,0.2,1.2c-0.1,0.4-0.4,1-0.6,0.8
		C94.1,19.9,94.3,19.3,94.6,18.6z M89.3,23c0.9-0.9,2-1.8,2.7-2.2c0.1-0.1,0.4,0.6,0.2,1.1c-0.7,0.2-1.5,0.6-2.2,1
		C89.6,23.1,89.1,23.2,89.3,23z"/>
	<path class="st0" d="M106.5,22c-0.1,0-0.1-0.1-0.1,0.4c0,0.5-0.7,0.6-0.9,0.6c-1.7,0.3-3.4,0.5-5.3,0.6c-0.3,0-0.4-0.2-0.4-0.2
		c0-0.3,0-1.9,0.2-2.2c0.4-0.6,0-1.9,0-2.4l0-3c-0.1-0.3-0.3-0.1-0.4,0.2c0,0.3-0.3,0.6-0.4,0.8c-0.2,0.3-0.6,0.7-0.6,1
		c0,0.4-1,3.3-0.7,5.3c0,0.3,0.7,1.4,1.2,1.9c2,0.7,7.3,0.5,8.7-0.2c0.7-0.4,0.7-0.1,0.9-0.9c0.1-0.9-0.1-1.2-0.1-1.2
		c-0.6-1.1-1.3-4.5-2.1-5.5c-0.1-0.2-0.2-0.3-0.5-0.2c-0.3,0.2,0,0.7,0.2,1.2C106.1,18.5,106.9,21.9,106.5,22z"/>
	<path class="st0" d="M91.7,11.7c0.6-0.8,0.5-1.7,0.5-1.9c0-0.7-0.4-0.2-0.5-0.6l0-2.3c0-0.2-0.1-0.3-0.1-0.4
		C91.5,6,91.2,6.6,91,6.8c-0.4,0.8-1.3,2.3-1.3,3.3c0,0.3,0.2,1,0.4,1.4C90.6,12.2,91.4,12.1,91.7,11.7z"/>
	<path class="st0" d="M30.3,31.3c2.5,0.6,4.7-4.4,4.5-4.3c0.4-1.9,1.9,0.8,1.9,0.8c0,0.3,0.5,0.5,0.5,0.5c2.5-0.3,1.9-4.1,1.9-4.1
		c-1.1-4.2-0.5-11.5,0.1-15.9c0.2-1.9-0.9-2.6-0.9-2.6c-0.4-0.2-2-1.2-2-1.2c-0.3,0.5,0.4,1.1,0.4,1.1c0.3,2.1-0.4,5.3-0.4,5.3
		C36,12.2,35.8,20,35.8,20c-0.2,1.2,0.3,4.3,0.4,5.1c0.1,0.8-0.4,0.8-0.7,0.3c-0.3-0.5,0.7-0.8-0.1-1.1c-0.8-0.3-1.7,1.3-2.8,1.9
		c-1,0.6-0.9,0.2-0.9-0.2c0-0.4,1.6-3.6,2.1-3.6c1.2,0,1.3-1.3,1.3-1.3c-0.2-1.7-3.4-2.3-4-2.3c-2,0.1-0.4,1.2-0.4,1.2
		c2.6,2.4-0.2,6.7-0.2,6.7c-0.5,1.2-1.3,1.6-1.4,1.6C27.8,29,30.3,31.3,30.3,31.3z"/>
	<path class="st0" d="M40,19.9c0,0,3.3-1.4,3.1-0.1c0,0,0.2,1.6-0.1,3.8c-0.5,4,4.9,3,7.2,1.9c1.7-0.8,1.3-0.8,1.2-1.1
		c0-0.2-0.1-0.5-0.1-0.8c0-0.2,0-0.3-0.1-0.4c-0.8-1-1.9-0.2-3.1,0.5c-1.3,0.8-2.5,1.3-2.2-0.6c0.4-2.4-0.7-4.9,1.2-4.5
		c0,0,0.6,0.2,1.6-0.9c1-0.9,2.3-2.4,1-4.5c-1.2-2.5-3.4-3.9-4.1-5.9C45,5.9,45,6.5,44.6,7c-0.4,0.5-0.4,0.8-0.7,2
		c-0.3,1.2-0.8,7.4-0.8,7.4c0.3,1.9-1.1,1.9-2.4,2.7C39.5,20,40.1,19.8,40,19.9z M46,8.5c0,0,2.3,3.3,2.8,4.7c0.5,1.5-0.7,1-1.8,2.3
		c-1.2,1.3-1-0.8-1-0.8c0,0,0-3-0.1-3.6c-0.1-0.6-0.5-2.1-0.5-2.1C45.3,7.1,46,8.5,46,8.5z"/>
	<path class="st0" d="M130.4,22.5c0.5,0.1,1.4-0.6,2.1-1.6c0.9-1.3,4-3.4,4.9-4.1c1-0.7,3.3-1.9,3.8-2.2l0.3,0
		c0.2,0.2,0.5,0.1,0.6,0c0.1-0.1,0.3-0.2,0.3-0.2c0.8,0.2,1-0.9,1.3-0.9c0.2,0,1.6-0.6,1.8-0.6c0.6,0,0.8-0.1,1.3,0.3
		c0.1,0.1,0,0.2,0,0.2c-0.6,0.5-3.5,2.3-4.6,2.9c-0.1,0-1.5,0.7-1.9,1c-0.4,0.2-0.6,0.3-0.9,0.4c-0.5,0.1-0.7,0.1-1,0.4
		c-0.2,0.2-0.4,0.4-0.3,0.8c0.1,0.4,0.6,0.4,1.1,0.2c0.4-0.1,0.6-0.1,0.8-0.1c0.2,0,0.1,0.2,0.2,0.3c0.1,0.3-0.1,1.6-0.2,1.6
		c-3.3,0.7-5.6,1.9-8.1,3.3c-0.1,0.1-0.6,0.5-0.7,0.5c-0.9,0.9-0.3,1.2,0.2,1.4c2.1,1.9,4.9,2.7,7.3,3.5c0.2,0.1,0.5,0.2,0.7,0.3
		c0.7,0.4,1,0.5,1.3-0.2c0.2-0.4,0.3-1.2,0.2-1.7c-0.1-0.6-0.3-1.3-0.2-2.1c0.1-1.3-0.2-2.5-0.1-3c0-0.2,0.3-0.4,0.8-0.4
		c0.5-0.1,1.1-0.1,1.6-0.1c0.6,0,0.6,0,1.1,0.2c0.2,0.1,0.4,0,0.4,0c0.2,0,0.2-0.4,0.4-0.6c0.1-0.4,0.4-0.4,0.1-0.9
		c-0.3-0.5-0.9-0.6-1.4-1.1c-0.2-0.1-0.3-0.2-0.5-0.1c-0.2,0.1-0.4,0.3-0.5,0.4c-0.3,0.2-1,0.5-1.2,0.4c-0.2,0-0.5-0.1-0.6-0.3
		c0-0.1,0.1-1.1,0.1-1.2c0-0.2,0.1-0.2,0.1-0.2c0.1,0,0.2-0.1,0.2-0.1c0.2-0.2,0.1-0.7,0-0.9c0-0.1-0.4-0.2-0.5-0.2
		c-0.2-0.3,0.2-0.2,0.4-0.4c0.3-0.2,0.7-0.4,1.3-0.8c1.5-0.9,3.4-2.1,4.2-3c0.1-0.2,0.3-0.1,0.3-0.3c0.5-2.5-2.1-1-2.9-0.8
		c-0.1,0.2-0.2,0-0.2,0c0-0.3,0.2-0.6,0.3-0.8c0.7-1.3,2.2-7.2,2.5-7.4c0-0.5-0.1-0.4-0.3-0.7c-0.2-0.2-0.7,0-0.9,0.2
		c-0.3-0.1-0.8,0.4-1.1,0.5c-0.2,0.1-1.1,0.7-1.2,0.8c-0.8,0.4-2.7,1.6-3.2,2.1c-0.1,0.1-0.1,0.1-0.3,0.1c-0.2,0.1-0.1,0.1-0.2-0.1
		c0-0.1,0.4-0.5,0.8-1c0.4-0.4,0.7-0.9,0.7-0.9c0.6-0.2,1-0.5,0.8-1c-0.3-0.8-2.1-1.9-2.5-1.2l0,0.6c0.2,0.2,0.1,0.3,0.1,0.3
		c0.3,0.6-1.2,2.8-1.7,3.6c-0.1,0.1-0.2,0-0.3-0.1c0.1-0.9-1.5-1.9-2.1-2.2c-0.3-0.1-0.7-0.3-1.1-0.6c-0.4-0.4-1.5-0.6-0.7,0.5
		c0.3,0.4,0.6,0.7,0.7,1.1c0.3,0.8,0.3,1.6,0.7,2.5c0.4,0.9,0.3,3-0.5,3.7c-0.7,0.6-0.9-0.7-0.9-0.7c-0.1-0.2-0.2-0.2-0.4-0.8
		c-0.1-0.3-0.8-1.1-1.2-0.8c0,0-0.4,0.3,0.1,0.8c0.4,0.4,0.4,1.3,0.3,1.7c-0.1,0.6,0,1.3,0.2,1.9c0.3,0.8,1.6-0.1,1.8-0.9
		c1.1-1.7,2.5-3.2,3.8-4.8c0.4-0.5,0.5,0,0.5,0c0,0.3-0.2,0.5-0.4,0.8c-0.1,0.2-0.3,0.4-0.5,0.6c-0.2,0.1-0.4-0.1-0.6,0.1
		c-0.3,0.2-0.1,0.4,0.1,0.5c0.4,0.1,0.1,1.1-0.7,2c-0.3,0.4-0.2,0.9-0.4,1c-0.4,0.4-1.4,0.8-1.9,1.2c-0.6,0.4-1.3,1.3-2,1.8
		c-1.1,0.9-3.4,2.9-3.3,4.1C129.4,21.8,129.8,22.3,130.4,22.5z M139.5,27.8c0.1,0.1,0,0.4-0.1,0.5c-0.3,0.1-0.8,0-1.5,0
		c-2.1-0.1-5-1.2-5.4-1.8c-0.2-0.2-0.1-0.3,1.1-0.5c0.3-0.1,0.6-0.4,1-0.8c0.4-0.3,0.8-0.6,1.3-0.8c0.8-0.4,1.5-0.5,1.7-0.6
		c0.5-0.1,0.9-0.3,1.6-0.5c0.2,0,0.3-0.1,0.4,0.1C139.7,23.5,139.2,27.1,139.5,27.8z M141.4,10.5c0,0,0-0.4-0.1-0.5
		c0.1-0.4-0.3-0.7-0.2-1.2c0,0,0.3-0.3,0.4,0c0,0.5,0,1.2,0.2,1.4C141.7,10.1,141.6,10.7,141.4,10.5z M140.9,7.6
		c0-0.1,2.9-2,3.2-2.3c0.2-0.2,1.1-0.7,1.4-0.8c0.3-0.2,0.2-0.2,0.5-0.1c0.2,0.1,0.1,0.2,0,0.4c-1.1,2.7-2.1,5.2-3.4,7.8
		c-0.2,0.3-0.4,0-0.4,0l0-0.5c0.5-0.6,1.2-3.5,0-4.1c-0.2-0.1-0.5-0.1-0.7-0.1l-0.6,0C140.8,7.8,140.9,7.7,140.9,7.6z M137.5,13.7
		c0.2-0.4,0.5-1.1,1-1.5c0,0,0.3-0.3,0.4-0.1c0.2,0.3,0.6,0.6,0.9,0.3c0.3-0.3,0.6-0.7,0.1-1.1c-0.1-0.1-0.2-0.2-0.4-0.2
		c-0.1,0-0.2-0.4-0.1-0.4c0.1-0.1,0.1-0.1,0.1-0.2c0,0,0.6-1,0.8-0.6c0.1,0.6,0.3,2,0.3,2.4c0,0.4-0.3,0.5-0.9,0.7
		c-0.6,0.2-1.4,0.6-2,0.8C137.8,13.7,137.4,13.9,137.5,13.7z"/>
	<path class="st0" d="M55.5,25.3c-0.4,0-0.4,0.1-0.6-0.1c-0.2-0.2-0.4-0.3-0.5,0.2c-0.1,0.5,0,0.4,0.2,0.6c0.1,0.2,0.4,0.5,0.6,0.7
		c0.3,0.3,0.8,0.5,1-0.1c0.1-0.5,0.1-0.5,0.1-0.5c0,0,0,0,0,0c0,0,0,0,0,0c0.1-0.2,0-0.3,0.1-0.4c0.1-0.1-0.2-0.3,0.5-0.2
		c0.7,0.5,1.6,0.8,2.4,1.3c0.5,0.3,0.6,0.6,1.1,0.9c0.8,0.6,0.9,0,0.9-0.7c0-1.1,0-2.1,0-3.2c0-0.3-0.7-2.9,0-2.7
		c0.3,0.1,0.3,0,0.5,0.1c0.7-0.1,0.7,1.8,0.7,2.1c0.1,0.9-0.1,0.6,0.1,1.1c0.1,0.3,0.1,0.2,0.1,0.4c0,0.2,0.3,0,0.5-0.1
		c0.2-0.1,0.3,0,0.5,0.2c0.2,0.2,0.5-0.1,0.7-0.2c0.3-0.1,0.4-0.2,0.5-0.4c0-0.2,0.1-0.9,0-1c-0.8-0.6-1.5-1.5-2.2-2.2
		c-0.3-0.3-0.3-0.3-0.8-0.4c-0.4-0.2-0.8,0-0.8,0c-0.2,0.5-0.4-0.6-0.5-0.8c-0.1-0.2-0.2-0.3-0.4-0.3c-0.2,0-0.3,0.2-0.4,0.5
		c-0.1,0.5-0.1,0.6-0.1,1.4c0,0.3,0,0.3,0,0.6c0.1,1,0,2.1,0.1,3c0.1,0.7-1.3,0.3-1.6,0.2c-0.4,0-0.7-0.2-1.1-0.3
		c-0.4-0.1,0-0.3,0-0.5c0.1-0.2,0.8-0.9,1-1c0.2-0.2,0.3-0.3,0.6-0.4c0.2-0.1,0.3-0.2,0.3-0.3c0-0.1,0-0.1,0.2-0.4
		c0.3-0.3,0.3-0.4,0.3-0.4h-0.3c0,0-0.3,0.2-0.7,0.6c-0.6,0.5-1.9,1.7-2.3,2.1C56.1,25.1,56,25.3,55.5,25.3z"/>
	<path class="st0" d="M58,18.2c0.3,0.7,0.6,1.2,0.8,1.4c0.1,0.1,0.2,0,0.4-0.1c0.2-0.1,0.3-0.1,0.3-0.3c0-1-0.2-1-0.2-1.2
		c0-0.2,0.8-1.1,1-1.4c0.5-0.6,1.5-1.2,2-1.5c0.5-0.3,0.4,0,0.2,0.2c-0.1,0.3,0,0.2-0.2,0.4c-0.6,0.6-1.3,1.7-1.9,2.4
		c-0.2,0.3-0.1,0.2,0.1,0.5c0.1,0.3,0.6,0.2,0.6,0.2c1.1-0.5,1.6-0.5,2.2-0.7c0.3-0.2,0.2-0.6,0.1-1c-0.1-0.4-0.1-0.3-0.6-0.1
		c-0.9,0.3,0.3-1.1,1-1.8c0.6-0.7,0.8-0.8,0.7-0.9c-0.1-0.1-0.4-0.5-0.7-0.6c-0.2-0.1-2.1,1.2-2.4,1.4c-0.6,0.4-1.5,1.3-1.5,1.3
		c-0.4,0.4-0.7,1-1.2,1c-0.4,0-0.2-0.3-0.3-0.5c-0.1-0.2-0.1-0.4-0.2-0.3c-0.1,0.1-0.2,0.2-0.2,0.2c0,0.4-0.1,0.5-0.2,0.9
		C57.8,17.8,57.9,18,58,18.2z"/>
	<path class="st0" d="M60.5,5.8c0.5,0.4,0.9,0.8,1.1,1.3c0.3,0.7-0.5,0.5-0.4,1c0.1,0.5,1.2-0.3,1.4-0.1c0.3,0.3,1.2-0.1,1.4-0.6
		c0.2-0.7-0.3-1.5-1.1-1.9c-1.1-0.6-2.6-0.6-2.8-0.4C59.9,5.3,60.3,5.7,60.5,5.8z"/>
	<path class="st0" d="M54.6,17.7c0.4,0,0.5-0.2,0.7-0.5c0.2-0.4,0.5-1,0.8-1.4c0.9-0.9,2.1-1.7,3-2.2c1.2-0.8,2.7-1.9,4.1-2.6
		c0.2-0.1,0.6-0.4,0.9-0.5c0.1-0.1,0.2,0,0,0.2c-1.3,1.1-2.6,1.9-3.5,2.4c-0.1,0-0.1,0.3-0.1,0.3c0,0,0.1,0.1,0.2,0.1
		c1-0.5,1-0.6,1.8-1c0.6-0.3,1.3-0.8,2.1-1.2c0.6-0.3,1.1-0.6,1.5-0.8c0.5-0.2,0.6-0.4,1.1-0.5c0.9-0.1,1.1-0.5,1-0.7
		c-0.1-0.4-0.4-0.5-0.7-0.6c-0.4-0.1-0.4-0.3-0.8-0.4c-0.4-0.1-1.1,0.3-1.1,0.8c0,0.2-0.3,0.4-0.6,0.7c-0.3,0.2-0.6,0.1-0.9,0.3
		c-0.5,0.3-0.9,0.4-1.2,0.6c-1.3,0.7-2.7,1.4-4,2.3c-0.9,0.6-1.4,0.9-2.1,1.3c-0.2,0.1-1.8,1.2-2.7,1.2c-0.1,0-0.2-0.1-0.2-0.3
		c0.1-0.5-0.1-0.7-0.1-0.7c-0.1-0.1-0.1-0.4-0.5-0.1c-0.2,0.1-0.3,0.2-0.3,0.4c-0.4,0.6-0.3,1.4,0.1,2.1
		C53.6,17.6,53.8,17.8,54.6,17.7z"/>
</g>
</svg>
