<?xml version="1.0" encoding="utf-8"?>
<!-- Generator: Adobe Illustrator 22.0.0, SVG Export Plug-In . SVG Version: 6.00 Build 0)  -->
<svg version="1.1" id="图层_1" xmlns="http://www.w3.org/2000/svg" xmlns:xlink="http://www.w3.org/1999/xlink" x="0px" y="0px"
	 viewBox="0 0 173.6 71.2" style="enable-background:new 0 0 173.6 71.2;" xml:space="preserve">
<style type="text/css">
	.st0{fill:#FFFFFF;}
	.st1{fill-rule:evenodd;clip-rule:evenodd;fill:#FFFFFF;}
</style>
<g>
	<g>
		<path class="st0" d="M9.9,46.5c-0.1-0.1-0.3-0.2-0.4-0.4c0.1,0,0.2,0,0.2,0c0,0,0.1,0,0.1-0.1H9.7c0,0-0.1-0.1-0.1-0.1
			C9.2,46,8.8,46,8.5,46c0,0.3-0.2,0.5-0.6,0.5c-0.1,0-0.3-0.1-0.5-0.3c-0.1-0.1-0.2-0.1-0.2-0.1c-0.3-0.4-0.4-1.7-0.4-3.8
			c0-1.3-0.1-2.6-0.3-3.8c-0.5-0.1-0.9-0.4-1.1-0.7c0-0.5,0.2-1,0.7-1.4c0.3-0.1,0.7-0.4,0.9-0.8c1.5-1.6,2.2-2.9,2.2-3.8
			c0-0.1,0.1-0.3,0.1-0.6l0.1-0.1c0.1,0,0.4,0.1,0.7,0.3c0,0.1,0.1,0.1,0.1,0.1c0.8,1,1,1.8,0.7,2.4c-0.6,0.7-1.2,1.4-1.7,2.1
			c0.3,0,0.7-0.1,1.1-0.3c1.1-0.4,1.9-0.7,2.4-0.7h0.1c0.6,0,1.1,0.2,1.4,0.6c0.1,0.1,0.3,0.4,0.4,0.9c0,0.1,0,0.2,0,0.2
			c-0.2,1.5-0.4,3.5-0.6,5.9c-0.1,1.9-0.2,3.1-0.4,3.6c-0.1,0.6-0.4,1.2-0.8,1.7c-0.3,0.3-0.7,0.4-1,0.4c-0.1-0.1-0.3-0.3-0.6-0.6
			c-0.1-0.1-0.2-0.2-0.3-0.3C10.5,47,10.2,46.7,9.9,46.5z M9.8,45.9c0.5,0.2,1.1,0.4,1.7,0.4h0.1c0.2,0,0.4-0.7,0.6-2
			c0.4-2.7,0.5-5.2,0.4-7.8c0-0.3-0.2-0.5-0.6-0.4c-0.5,0-1.1,0.1-1.7,0.4c-0.5,0.1-1,0.2-1.6,0.1c-0.1,0.1-0.3,0.3-0.5,0.5
			c-0.1,0.2-0.3,0.3-0.4,0.4c0,0.1,0,0.4,0,0.8c0,0.4,0.1,0.8,0.1,1c0,0,0.2-0.1,0.4-0.1c0.3-0.1,0.6-0.3,0.7-0.4
			c1.3-0.7,2.2-0.8,2.6-0.3c0,0.1,0,0.2-0.1,0.3c0,0,0,0-0.1,0c-0.2,0.2-0.7,0.4-1.2,0.7c-0.2,0.1-0.4,0.2-0.5,0.2
			c-0.9,0.8-1.5,1.5-1.7,2c0.4,0,0.9-0.1,1.6-0.3c0.5-0.1,0.9-0.2,1.2-0.2c0.4,0,0.6,0.1,0.6,0.4c0,0.2-0.1,0.4-0.4,0.5
			c-0.1,0-0.2,0.1-0.3,0.1c-0.2,0-0.4,0.2-0.7,0.4c-0.2,0.3-0.5,0.5-0.8,0.7l-0.1-0.1c0.4-0.4,0.7-0.7,0.9-0.9c-0.2,0-0.4,0-0.7,0.1
			c-0.2,0.1-0.3,0.1-0.4,0.1c-0.3,0-0.6,0.1-0.9,0.1c0,0.8,0,1.3,0.1,1.5c0.1,0,0.3-0.1,0.5-0.4c0.1-0.1,0.2-0.2,0.3-0.3H9
			c0,0.1-0.1,0.3-0.3,0.4c-0.2,0.3-0.4,0.5-0.4,0.7c0,0.1,0.1,0.2,0.2,0.2c0.7-0.1,1.3-0.2,2-0.3h0.1c0.5,0,0.7,0,0.7,0.3
			C11.4,45.5,10.9,45.8,9.8,45.9z M7.9,41.2C8,41.1,8.2,41,8.3,40.8c0.3-0.4,0.6-0.7,0.7-0.9C8.6,40,8.3,40,8,40
			C8,40.4,7.9,40.8,7.9,41.2z"/>
		<path class="st0" d="M31.2,31.5c0.3,0,0.5,0.4,0.4,1.2c0,0.1,0,0.2,0,0.2c0,0,0,0.1,0,0.2c0,1.1-0.1,2.3-0.3,3.6
			c0.6-0.2,1.2-0.3,1.7-0.4c0.5,0,0.8,0.1,0.8,0.6c-0.1,0.4-0.5,0.6-1.2,0.7c-0.5,0-1,0.1-1.5,0.3c-0.1,0.7-0.3,1.3-0.6,1.9
			c1.3,0.1,2.3,0.3,3,0.7c0.7,0.3,1.1,0.7,1.2,1.3c0,0.4-0.1,0.6-0.5,0.6c-0.1,0-0.3-0.1-0.6-0.2c-0.1-0.1-0.3-0.2-0.4-0.3
			c0,0-0.1,0-0.2,0.1v-0.1c0,0,0-0.1,0.1-0.1c0.1,0,0.2,0,0.2-0.1c-0.4-0.4-1.5-0.8-3.2-1.1c-0.3,0.6-0.8,1.2-1.2,1.7
			c-0.3,0.2-0.7,0.4-1,0.4c-0.2,0-0.4-0.2-0.6-0.4c0-0.2,0.2-0.4,0.5-0.5c0.1-0.1,0.2-0.2,0.3-0.2c0.4-0.3,0.7-0.7,1.1-1.3
			c-0.1-0.3,0-0.5,0.3-0.6c0,0,0-0.1,0.1-0.3c0.1-0.4,0.3-0.8,0.4-1c-0.3,0.1-0.7,0.1-1.2,0.1c-0.1,0-0.3,0-0.5-0.1
			c-0.2,0-0.4-0.1-0.6-0.1c-0.3,0.8-0.6,1.6-1,2.4c0,0-0.1,0.1-0.1,0.2c-0.8,1.6-1.6,2.5-2.5,2.6c-0.4-0.1-0.6-0.5-0.7-1.2
			c0,0,0-0.2,0.1-0.4c0.1-0.3,0.1-0.5,0.1-0.7l0.1,0.2c0,0.3,0,0.4,0.1,0.4c0.5-0.1,1-0.6,1.5-1.6c0-0.2,0.1-0.3,0.1-0.4
			c0-0.1,0.1-0.2,0.3-0.4c0.1-0.2,0.2-0.3,0.2-0.4c-0.2,0.1-0.6,0.3-1.2,0.6c-0.3,0.1-0.5,0.3-0.7,0.4c-0.8,0.4-1.4,0.7-1.6,0.7
			c-0.1,0-0.3-0.1-0.4-0.4l-0.1-0.1c-0.1-0.3,0-0.6,0.4-0.8c0.1-0.1,0.2-0.2,0.4-0.4c0.2-0.2,0.3-0.3,0.4-0.4v0.1
			c0,0-0.1,0.1-0.1,0.2c-0.2,0.3-0.4,0.5-0.4,0.7c0.5-0.2,1.2-0.5,2.2-0.9c0.6-0.3,1.1-0.5,1.5-0.7c0-0.1,0.1-0.2,0.1-0.4
			c0.1-0.1,0.1-0.2,0.1-0.3c-0.2,0.1-0.4,0.2-0.7,0.1c-0.1,0-0.2-0.1-0.3-0.1c-0.4-0.4-0.7-0.6-0.9-0.7c-0.6,0.9-1.2,1.4-1.6,1.5
			c-0.3,0-0.5-0.2-0.5-0.7c-0.1-0.3,0-0.7,0.4-0.9c1-0.9,1.9-2.2,2.7-4c0,0,0-0.1,0.1-0.3c0-0.2,0-0.4,0.1-0.4
			c0.3,0.2,0.5,0.8,0.5,1.5c0,0.1,0,0.2-0.1,0.4c0,0.2,0,0.3-0.1,0.4c0.2,0,0.6-0.1,0.9-0.4c0.3-0.2,0.6-0.3,0.9-0.3
			c0.3,0,0.6,0.1,0.8,0.4c0.1,0.1,0.1,0.4-0.1,0.7c-0.1,0.1-0.1,0.2-0.1,0.3c-0.1,0.3-0.3,0.8-0.5,1.5c-0.2,0.6-0.4,1.1-0.5,1.5
			c0.3-0.1,0.7-0.2,1.2-0.4c0.6-0.2,1-0.3,1.2-0.4c0.4-1.7,0.5-3.3,0.4-4.7h-0.1c0,0,0-0.1,0-0.3V32C30.8,31.7,30.9,31.5,31.2,31.5z
			 M22.8,46.7c0-0.3,0.3-0.8,0.9-1.3c0-0.1,0.1-0.2,0.3-0.3c0.2-0.2,0.3-0.4,0.4-0.5c0-0.1,0.1-0.2,0.3-0.3c0.1-0.1,0.2-0.2,0.2-0.2
			v0.1c0,0.2,0,0.3,0,0.4c0,0.1,0,0.2,0,0.2c0,0,0,0.1,0,0.1c0,0.4-0.2,1-0.6,1.7c-0.2,0.3-0.3,0.6-0.4,0.8
			c-0.1,0.2-0.3,0.3-0.6,0.1c0,0-0.1-0.1-0.2-0.3C22.8,47.1,22.8,46.9,22.8,46.7z M27.8,34.7c-0.1,0.1-0.6,0.1-1.2,0.1L26.4,35
			c-0.1,0.1-0.2,0.2-0.2,0.3c-0.2,0.2-0.4,0.4-0.5,0.6c0.6,0.3,1.1,0.6,1.5,0.8C27.4,35.9,27.6,35.3,27.8,34.7z M26.6,44.5
			c0-0.1,0-0.1,0.1-0.1h0.1c0.4,0,0.7,0.2,0.9,0.6c0,0.2,0,0.4,0.1,0.4l0.1-0.1c0.1-0.1,0.2-0.2,0.3-0.2c0,0.1-0.1,0.2-0.2,0.4v0.9
			c0,0.3-0.1,0.5-0.2,0.5c0,0-0.1,0-0.2-0.1l-0.1-0.1c0,0,0-0.1-0.1-0.1c-0.4-0.1-0.6-0.4-0.6-1C26.6,45.2,26.6,44.8,26.6,44.5z
			 M29.8,44.7c-0.2-0.1-0.4-0.3-0.6-0.4c0-0.1,0.2-0.1,0.5-0.1c0.3,0,0.7,0.1,1,0.3c0,0,0.1,0.1,0.1,0.3c0.1,0.2,0.2,0.3,0.3,0.4
			l0.1-0.1c0,0,0.1,0,0.1,0.1c0,0.1,0,0.2,0.1,0.2c0,0.2,0,0.4,0,0.6c0,0.2-0.1,0.2-0.5,0.1c0,0-0.1-0.1-0.1-0.1
			C30.4,45.9,30.1,45.5,29.8,44.7z M31.9,34.3c0,0,0-0.1,0.1-0.1c0.5,0,0.9,0,1,0.1c0,0,0,0.1,0.1,0.1c0,0,0.1,0.1,0.3,0.1
			c0.6,0.2,0.9,0.6,0.9,1.1c0,0.1-0.1,0.2-0.1,0.3c0,0,0,0.1-0.1,0.1L34,35.9h-0.1c-0.2,0-0.4,0-0.5-0.1c-0.1-0.1-0.2-0.3-0.4-0.5
			c-0.2-0.2-0.3-0.3-0.4-0.4c0,0-0.1-0.1-0.2-0.1C32,34.6,31.9,34.4,31.9,34.3z M32.7,43.7H33c0.7,0,1.3,0.3,1.8,1.2
			c0.2,0.4,0.4,0.8,0.4,1.2c0,0.2-0.1,0.4-0.4,0.4c-0.3,0-0.6-0.1-0.8-0.4c0,0-0.1-0.1-0.2-0.4c0-0.1-0.1-0.2-0.1-0.2
			c-0.1-0.3-0.4-0.7-0.7-1.2c-0.1-0.1-0.2-0.2-0.3-0.2c0,0,0-0.1-0.1-0.1l-0.1-0.1C32.5,43.7,32.5,43.7,32.7,43.7z"/>
		<path class="st0" d="M45,45.7V45c0.1-0.7,0.2-1.7,0.3-3.2c0-0.2,0-0.4,0-0.5c-0.2,0.1-0.6,0.4-0.9,0.8c-0.4,0.4-0.8,0.7-1,0.9
			c0,0-0.1,0.1-0.2,0.1c-0.2,0.1-0.3,0.2-0.4,0.3h-0.4c0,0-0.1,0-0.1-0.1c-0.1,0-0.2-0.1-0.3-0.1c0,0,0-0.1,0-0.2l-0.1-0.1v-0.1
			c0.1-0.3,0.3-0.6,0.7-0.9c0.3-0.4,0.7-1.1,1.4-2c0.7-0.9,1.2-1.6,1.5-2c-0.5,0.1-1.1,0.3-2,0.7c-0.1,0-0.4,0.1-0.7,0.3
			c-0.5,0.3-0.8,0.4-1.1,0.4h-0.1c-0.2,0-0.5,0-0.7,0c-0.1,0-0.3-0.1-0.6-0.3C40.1,39,40,38.9,40,38.8c0,0,0.1-0.1,0.1-0.1
			c0.1,0,0.2-0.1,0.2-0.1c0.7-0.3,1.5-0.6,2.3-0.7c1.2-0.4,2.2-0.7,3-1.1c0-0.1,0-0.3,0-0.6c0-0.7,0.2-1.1,0.4-1c0.1,0,0.2,0,0.2,0
			v0.4c0,0.2,0.1,0.3,0.1,0.4c0.1,0.3,0.2,0.5,0.1,0.7c0.1,0,0.2,0,0.4-0.1c0.1,0,0.2,0,0.3,0c0.4,0.1,0.6,0.3,0.7,0.5l-0.5,0.1
			c-0.4,0.1-0.7,0.2-0.8,0.3c0,0.2,0,0.5-0.1,0.9c0,0.4,0,0.7-0.1,0.9c0.1,0,0.2-0.1,0.4-0.1c0.2-0.1,0.4-0.1,0.6-0.1
			c0,0-0.1,0.1-0.2,0.3c-0.1,0.1-0.3,0.3-0.4,0.4c0,0.1-0.2,0.3-0.4,0.5c-0.1,0.7-0.2,2-0.2,4c0,0.5-0.1,0.8-0.1,1
			c0,0.3,0,0.6-0.1,0.8h-0.1v0.1c0,0-0.1,0-0.1,0.1c0,0-0.1,0-0.1,0C45.4,46.1,45.2,46,45,45.7z M42.3,36.4c0.1-0.2,0.4-0.4,0.7-0.7
			c0.1-0.1,0.2-0.2,0.3-0.2c0.4-0.3,0.9-0.7,1.5-1.2c0,0,0,0,0.2-0.1c0.1-0.1,0.3-0.2,0.6-0.4c0.3-0.2,0.6-0.4,0.7-0.5
			c0,0,0.1-0.1,0.1-0.2c0-0.1,0.1-0.2,0.3-0.2c0.5,0.1,0.8,0.5,0.9,1c0,0.1-0.1,0.3-0.3,0.4c0,0.2-0.1,0.3-0.2,0.3
			c-0.2,0.1-0.5,0.3-0.9,0.4c-0.3,0-0.5,0.1-0.7,0.2c-0.8,0.3-1.6,0.6-2.5,0.8c-0.3,0.1-0.5,0.3-0.6,0.4H42.3z M45.1,40.1
			c0,0,0.1-0.1,0.1-0.1l0.1-0.1c0-0.2,0.1-0.3,0.1-0.4C45.3,39.8,45.1,40,45.1,40.1z M51.4,48.3c0,0,0-0.2-0.1-0.4v-0.2
			c0,0,0-0.1-0.1-0.3c-0.1-0.1-0.1-0.3-0.1-0.4c0-1.7,0-4.3,0.1-7.8c-0.5,0-1.2,0.2-2.2,0.6L49,40c-0.2,0.1-0.4,0.1-0.5,0.1
			c-0.2,0.1-0.6,0.1-1.1,0.1h-0.4c-0.2,0-0.3-0.1-0.3-0.2c0.1-0.1,0.2-0.2,0.2-0.2h0.3c0.4-0.1,0.9-0.3,1.5-0.5
			c0.9-0.3,1.7-0.6,2.5-0.7c0-0.7,0.1-1.7,0.1-3c0-1.4,0-2.3,0-3c0,0,0-0.1,0-0.3c0-0.2-0.1-0.3-0.1-0.4c0-0.2,0.1-0.4,0.2-0.4h0.4
			c0,0,0,0.1,0.1,0.1c0,0,0.1,0,0.1,0.1v0.1c0,0.1,0,0.2,0,0.2c0.1,0.5,0.2,1.4,0.2,2.6c0,0.6,0,1.5-0.1,2.8c0,0.4-0.1,0.8-0.1,1
			c0.6-0.1,1.1-0.1,1.5-0.1c0,0,0-0.1-0.1-0.3c0-0.1,0-0.2,0.1-0.2c0.4,0.3,0.9,0.4,1.5,0.4c0,0,0,0.1,0.1,0.3c0,0.1,0,0.2,0,0.3
			v0.1L55,39c0,0-0.1,0-0.1,0.1h-0.2c-0.1,0-0.2,0-0.4-0.1c-0.2,0-0.3-0.1-0.4-0.1c-0.3,0-0.7,0-1.2,0.1c-0.2,0-0.4,0.1-0.5,0.1
			c0,2.9,0,5.6,0,8.1c0,0,0,0.1-0.1,0.2c0,0.1-0.1,0.2-0.1,0.2l0.1,0.1c-0.1,0.4-0.3,0.6-0.5,0.7C51.5,48.3,51.5,48.3,51.4,48.3z
			 M48,37.1c0-0.1,0.3-0.3,0.9-0.7c0.6-0.3,0.9-0.6,0.9-0.7c-0.3-0.3-0.8-0.6-1.2-0.9c0,0-0.1,0-0.1-0.1c-0.1,0-0.1,0-0.1-0.1
			c0-0.1,0.1-0.1,0.4-0.1c1.3,0.3,2,0.8,2.2,1.5c0,0.2-0.1,0.4-0.2,0.4v-0.1l-0.3-0.1c-0.1,0-0.2-0.1-0.3-0.1c0,0-0.1,0-0.1,0
			c-0.8,0.2-1.3,0.5-1.5,0.8c0,0,0.2,0.1,0.6,0.2c0.3,0,0.6,0.1,1,0.3l0.1,0.1c0.2,0.1,0.3,0.3,0.4,0.6c-0.1,0.1-0.2,0.2-0.2,0.2
			c0,0-0.1-0.1-0.2-0.1c0,0-0.1,0-0.2-0.1c0,0-0.1-0.1-0.2-0.1c-0.1-0.1-0.2-0.1-0.3-0.1c0,0-0.2,0-0.4-0.1
			C48.3,37.7,48,37.5,48,37.1z"/>
		<path class="st0" d="M60.5,40.1c0-0.2,0.3-0.8,1-1.7c0,0,0.1-0.1,0.2-0.3c0.2-0.4,0.4-0.7,0.5-0.7h0.1c0.1,0.3,0.2,0.5,0.2,0.7
			c0.1,0,0.3-0.1,0.6-0.1c0.3,0,0.5-0.1,0.6-0.1c-0.2-0.3-0.3-0.8-0.3-1.7c0-0.7-0.1-1.3-0.4-1.7c0,0,0-0.1-0.1-0.2
			c-0.1-0.3-0.2-0.5-0.2-0.7v-0.1c0.1,0,0.2,0,0.2,0c0.7,0.1,1.1,0.3,1.4,0.6c0.3,0.6,0.4,1.5,0.4,2.8c0,0.4,0,0.8,0,0.9
			c0,0,0.1,0,0.2-0.1c0.1,0,0.2,0,0.2,0c0-0.2-0.1-0.4-0.1-0.5c0.1-0.2,0.1-1.3,0-3.2c0-0.7-0.1-1.3-0.1-1.7c0,0,0-0.1-0.1-0.1h-0.1
			c0,0-0.1,0-0.1,0.1c-0.1,0-0.2,0-0.3-0.1c0,0,0-0.1,0.1-0.3c0.3-0.4,0.7-0.4,1.1-0.1c0.2,0.2,0.3,0.6,0.2,0.9
			c0.3,0,0.6,0.1,0.9,0.2c0.3-0.4,0.5-0.8,0.6-1.1c0-0.1-0.1-0.2-0.3-0.2c0,0,0.1-0.1,0.3-0.1h0.1c0.4,0,0.7,0,0.7,0.2
			c0,0.2,0,0.5-0.1,0.7c-0.2,0.3-0.4,0.6-0.5,0.9c0,0,0.1,0.1,0.2,0.1c0.1,0.1,0.3,0.2,0.4,0.3c0,0,0.1,0.1,0.1,0.1
			c0.2,0.1,0.3,0.2,0.3,0.3c0.6,0,1.1,0,1.3,0.1c0.1-0.4,0.2-0.8,0.2-1.2c0,0-0.2-0.1-0.6-0.1c-0.5,0-0.8,0-0.8-0.1v-0.1
			c0.5-0.2,1-0.3,1.5-0.3c0.5,0,0.7,0.3,0.8,0.8c0,0,0,0.2-0.1,0.4c0,0.2-0.1,0.3-0.1,0.4c-0.1,0.3-0.2,0.8-0.4,1.5
			c-0.2,0.7-0.4,1.2-0.5,1.6c1.7,0,2.8,0.3,3.3,0.9c0,0,0,0.1,0.1,0.1c0.1,0.2,0.2,0.4,0.2,0.6c0,0.2-0.1,0.4-0.2,0.5
			c0,0.1-0.3,0.1-0.7,0.1l-0.1-0.1c-0.1,0-0.2,0-0.2,0c-0.1,0-0.4,0-0.7,0.1c-0.3,0-0.5,0.1-0.7,0.1c0,0-0.1,0-0.3-0.1
			c-0.1,0-0.2-0.1-0.3-0.1c-0.1,0-0.1,0-0.1,0c0-0.1,0.4-0.3,0.9-0.6c0.6-0.3,0.8-0.5,0.8-0.6c-0.3-0.5-1-0.7-2.2-0.5l-0.1,0.1
			c-0.2,0.3-0.5,0.6-0.7,0.7c-0.1,0-0.2,0-0.3,0c0,0-0.1,0-0.1-0.1c0,0,0-0.1,0-0.1c0-0.2,0-0.4-0.1-0.4c-0.9,0-1.6,0.1-2.3,0.3
			c0,0.1-0.1,0.2-0.2,0.3c-0.1,0-0.2-0.1-0.3-0.2c-0.2,0-0.5,0.1-0.9,0.1c-0.8,0.1-1.5,0.2-1.9,0.3c-0.6,1.4-1.1,2.1-1.6,2.2
			C60.6,40.7,60.5,40.5,60.5,40.1z M70.1,42c-0.6-0.1-1-0.1-1-0.1c-0.4,0-0.9,0-1.5,0c0.4,2.1,0.3,4-0.2,5.5
			c-0.2,0.3-0.6,0.6-1.2,0.9c-0.4-0.1-0.9-0.3-1.5-0.5c-0.2-0.1-0.4-0.2-0.4-0.2c-0.1,0-0.2-0.1-0.4-0.3C63.9,47,63.9,47,63.8,47
			c0,0-0.1-0.1-0.1-0.1c0,0-0.1-0.1-0.1-0.1c0,0-0.1-0.1-0.3-0.2v-0.1h0.1c1.3,0.4,2.3,0.6,2.9,0.5c0.3,0,0.6-0.3,0.8-0.9
			c0.4-1.2,0.4-2.5,0-4.1c-1.6,0.2-2.7,0.4-3.3,0.7c-0.3,0.1-0.8,0.2-1.4,0.2c-0.3,0-0.5-0.1-0.7-0.3c0,0,0-0.1,0.1-0.1
			c0.1,0,0.2-0.1,0.2-0.1c0.5-0.2,1.4-0.5,2.6-0.7c0.1,0,0.2,0,0.4-0.1c0.5-0.1,1.1-0.2,1.7-0.3c0-0.1-0.1-0.2-0.1-0.3
			c0,0-0.1-0.1-0.1-0.1h-0.1c-0.1,0-0.1,0-0.1,0.1h-0.1c0,0,0-0.1-0.1-0.1c0.1,0,0.2-0.1,0.1-0.2c-0.1-0.3-0.3-0.5-0.7-0.7
			c0,0-0.1-0.1-0.1-0.1c0,0-0.1-0.1-0.1-0.2c-0.1,0-0.2,0.1-0.4,0.2c-0.3,0.2-0.5,0.3-0.6,0.3c-0.3,0-0.5-0.2-0.4-0.7
			c0.1-0.5,0.4-0.8,0.7-1c0,0,0,0.1,0.1,0.1c0,0,0.1,0.1,0.1,0.1c0,0,0,0.1-0.1,0.1v0.1c0,0.1,0.1,0.2,0.2,0.2
			c0.2,0,0.6-0.1,0.9-0.2c0.2-0.1,0.4-0.2,0.5-0.2c0.1,0,0.2,0,0.4-0.1c0.7-0.1,1.2-0.2,1.6-0.2h0.4c0.2,0,0.3,0.2,0.3,0.4
			c0,0,0,0.1,0,0.1c0.1,0,0.1,0.1,0,0.3c-0.7,0.6-1.4,1.1-2,1.4c0,0,0,0.1,0.1,0.2c0,0.1,0,0.2,0,0.2c0.7,0,1.4-0.1,2-0.1
			c0.6,0.1,1,0.3,1.1,0.5C70.6,41.8,70.5,41.9,70.1,42z M65.8,33.1c0,0.3,0,0.7,0,1.1c0,0,0.1-0.1,0.1-0.2c0-0.1,0.2-0.3,0.4-0.5
			c0,0-0.1-0.1-0.2-0.2C65.9,33.2,65.8,33.2,65.8,33.1z M65.9,36.7c0.2-0.1,0.4-0.3,0.7-0.7c-0.3-0.5-0.5-0.7-0.7-0.7
			C65.9,35.7,65.9,36.2,65.9,36.7z M65.9,37.5c0,0,0,0.1,0,0.1c0.5-0.1,1-0.2,1.5-0.2c0-0.1-0.1-0.3-0.3-0.6c0-0.1-0.1-0.2-0.1-0.3
			C66.7,36.9,66.3,37.3,65.9,37.5z M67.5,34.3c0-0.1-0.2-0.2-0.6-0.4c-0.3,0.3-0.6,0.7-0.9,1.1c0.4,0.1,0.7,0.3,1,0.5
			C67.3,34.9,67.5,34.6,67.5,34.3z M66.4,39.3C66.4,39.3,66.4,39.4,66.4,39.3c-0.1,0.1-0.2,0.1-0.2,0.1c-0.1,0-0.2,0.1-0.2,0.1
			c0.7,0.3,1,0.6,1,0.7c0.7-0.5,1.2-0.9,1.5-1.4C67.9,38.9,67.3,39,66.4,39.3z M66.4,39.4L66.4,39.4C66.4,39.4,66.4,39.4,66.4,39.4
			L66.4,39.4z M68.3,34.3c0,0.3-0.3,0.8-0.8,1.5c0.4,0.4,0.6,0.9,0.6,1.5c0.2,0,0.4,0,0.5,0c0.2-0.4,0.4-0.7,0.4-1
			c0,0-0.1-0.1-0.3-0.1c-0.5-0.1-0.8-0.4-0.8-0.7c0-0.1,0.1-0.2,0.2-0.1c0,0.1,0.2,0.2,0.7,0.2H69h0.1c0.1-0.3,0.2-0.6,0.3-0.9h-0.7
			l-0.1,0.1l0.1-0.1v-0.1C68.7,34.5,68.6,34.4,68.3,34.3z M67.7,40.3L67.7,40.3L67.7,40.3L67.7,40.3z M67.7,40.1L67.7,40.1
			C67.7,40.2,67.7,40.2,67.7,40.1z M68.6,35L68.6,35C68.7,35,68.7,35,68.6,35z"/>
		<path class="st0" d="M80.5,34.6c0-0.2,0.2-0.4,0.7-0.4h0.1c1.1,0.1,2.5,0.1,4.4-0.2c-0.1,0-0.3-0.1-0.4-0.3v-0.1
			c0-0.1-0.1-0.3-0.1-0.5c-0.1-0.3-0.2-0.6-0.3-0.7c-0.1-0.1-0.2-0.3-0.4-0.6c-0.2-0.4-0.4-0.7-0.6-0.9c0,0,0-0.1,0.1-0.1v-0.1
			c0.1,0.1,0.3,0.2,0.6,0.2c0,0,0.1,0,0.3,0.1c0.7,0.1,1.2,0.4,1.5,0.7l0.1,0.2c0,0.1,0.1,0.2,0.1,0.2c0,0.1,0.1,0.4,0.1,0.7
			c0,0.6-0.2,1-0.5,1.3c0.4,0,1.1,0,2-0.1c1-0.1,1.7-0.1,2.1-0.1c1,0,1.5,0.2,1.5,0.4c0,0.2-0.1,0.3-0.4,0.3c0,0-0.1,0-0.1,0.1
			c-0.2,0-0.4,0.1-0.6,0.1c-0.2,0-0.5,0-0.8,0c-1.8-0.1-4.2,0-7.2,0.4c-0.1,0-0.2,0-0.4,0.1c-0.5,0.1-0.9,0.1-1.2,0.1h-0.1
			C80.7,35.1,80.5,34.9,80.5,34.6z M87.6,46.2c0.1,0,0.2,0.1,0.4,0.3c0.2,0.2,0.5,0.3,0.7,0.3h0.1c0.4-0.1,0.7-0.4,0.9-0.7
			c0.9-1.7,1.3-3.2,1.4-4.6c0-0.2-0.2-0.4-0.5-0.4c-0.2,0-0.4,0-0.7,0c-2,0-3.8,0.2-5.5,0.5c-0.1,0-0.2,0-0.4,0.1
			c-0.4,0.1-0.7,0.1-0.8,0.1c-0.2,0-0.6,0-0.9-0.1c0,0.3,0.1,0.8,0.3,1.5c0.2,1.1,0.4,1.9,0.4,2.4c0.1,0.3,0.2,0.6,0.2,0.9
			c0,0.2-0.1,0.3-0.3,0.4c-0.2,0-0.4-0.1-0.7-0.3c0-0.2-0.1-0.3-0.1-0.4c-0.3-1.2-0.5-2.6-0.7-4.1c0-0.1,0-0.3,0.1-0.4
			c0.1-0.2,0.2-0.3,0.1-0.4h0.1c0.1,0,0.2,0,0.3,0.1c0,0.1,0.1,0.1,0.2,0.1c3.2-0.7,6-1.1,8.4-1.1c0.4,0,0.9,0.2,1.4,0.5
			c0,0,0.1,0.1,0.2,0.1c0.2,0.1,0.3,0.2,0.3,0.4c0,0.2-0.1,0.4-0.2,0.7c-0.1,0.2-0.2,0.3-0.2,0.4c-0.3,1.7-0.8,3.1-1.5,4.4
			C90,47.6,89.6,48,89.1,48c-0.3,0-0.6-0.1-0.9-0.4C87.9,47.1,87.6,46.6,87.6,46.2z M84.7,39.7c-0.6-0.6-1-1.5-1-2.6
			c0,0,0-0.2,0.1-0.5c0-0.2,0-0.4,0-0.4c0-0.1,0.1-0.2,0.2-0.3c0,0,0.1,0,0.1,0.1c0.1,0,0.2,0.1,0.3,0.2c0.1,0.1,0.3,0.1,0.4,0.1
			h0.1c0.2,0,0.6-0.1,1-0.2c0.8-0.2,1.4-0.3,1.8-0.3c0.5,0,0.7,0.4,0.8,1c-0.2,0.4-0.4,0.6-0.5,0.7c0,0.1-0.1,0.3-0.2,0.6
			c-0.1,0.2-0.2,0.4-0.3,0.6c0,0-0.1,0.1-0.2,0.1c0,0-0.1,0.2-0.1,0.4c0,0-0.3,0.1-0.7,0.1c-0.3,0-0.6,0.1-0.7,0.1h-0.4l-0.1,0.2
			c0,0.1,0,0.2-0.1,0.2c0,0-0.1,0-0.2-0.1C84.8,39.7,84.8,39.7,84.7,39.7z M83.7,42.5L83.7,42.5l0.2-0.1c0,0,0.1,0,0.3,0.1
			c0.1,0,0.3,0.1,0.4,0.1c0.1,0,0.4,0,0.8-0.1c0.1,0,0.2-0.1,0.2-0.1c0.8-0.2,1.4-0.3,2-0.3c0.3,0,0.5,0,0.6,0.1
			c0.1,0,0.2,0.2,0.2,0.6c0,0.1-0.1,0.2-0.2,0.4c0,0-0.1,0.2-0.2,0.4c-0.1,0.1-0.1,0.2-0.1,0.2c0,0.1-0.1,0.3-0.3,0.5
			c-0.2,0.3-0.3,0.5-0.3,0.6c-0.3,0.1-0.8,0.1-1.4,0.1c-0.1,0-0.3,0-0.4,0c0,0-0.1,0.1-0.3,0.1c0,0-0.1,0-0.2,0
			c-0.6-0.3-1-1-1.2-2.1c0,0,0-0.1,0-0.2C83.7,42.6,83.7,42.5,83.7,42.5z M84.7,37c0.1,1,0.2,1.5,0.4,1.7h0.1c0.5,0,0.9,0,1.1-0.1
			c0.3-0.9,0.6-1.6,0.7-2.1H87c-0.3,0-0.8,0.1-1.6,0.3c-0.2,0.1-0.3,0.1-0.4,0.1C84.9,36.9,84.8,37,84.7,37z M85.6,42.8
			c-0.3,0.1-0.6,0.1-0.9,0.1c0.3,0.7,0.5,1.2,0.7,1.5c0.1,0,0.3-0.1,0.6-0.1c0.3,0,0.5-0.1,0.6-0.1c0.1-0.2,0.3-0.6,0.5-1.2
			c0-0.1,0.1-0.2,0.1-0.3L87,42.6h-0.1c0,0-0.2,0-0.6,0.1H86C85.9,42.7,85.7,42.7,85.6,42.8z"/>
		<path class="st0" d="M103,43.1c0,0,0,0.1,0.1,0.1c0.5,0.3,0.8,0.8,0.9,1.4c0,0.4-0.2,0.7-0.5,0.7c-0.1,0-0.2,0-0.3-0.1
			c0,0-0.1-0.1-0.1-0.1c-0.1-0.1-0.2-0.5-0.2-1c-0.1-0.5-0.2-0.8-0.3-0.9c-0.3-0.1-0.6-0.2-0.9-0.4v-0.1c0,0,0-0.1-0.1-0.1
			c0,0-0.1-0.1-0.1-0.1c0-0.1,0.2-0.1,0.7-0.1c0,0,0.1,0,0.3,0c0.4,0,0.6,0,0.7,0c0.9-0.1,1.8-0.2,2.8-0.4v-1.8c0,0-0.1,0-0.2,0
			c-0.3,0-0.5,0-0.6,0.1c0,0-0.1,0-0.2,0.1c-0.1,0.1-0.3,0.1-0.4,0.1c0,0-0.1,0-0.2-0.1c-0.1,0-0.2-0.1-0.3-0.1
			c-0.7,0-1.9,0.2-3.6,0.5c-0.1,0-0.2,0-0.4,0.1c-0.3,0.1-0.5,0.1-0.7,0.1c-0.7-0.2-1.1-0.5-1.2-0.8c0,0,0.1,0,0.3-0.1
			c0.2,0,0.4-0.1,0.6-0.1c0.8,0,2.2-0.1,4.1-0.4c0.9-0.1,1.3-0.5,1.2-0.9v-0.3v-0.1c-0.4,0.2-0.8,0.3-1.2,0.3h-0.1
			c-0.7-0.1-1.2-0.5-1.5-1c0.1,0,0.4-0.1,0.9-0.1c0.2,0,0.6,0,0.9-0.1c0.5,0,0.9,0,1.1-0.1c0-0.3,0-0.7,0-1.3c0-0.2,0-0.4,0-0.5
			c0-0.2,0.2-0.4,0.5-0.4c0-0.1,0.1-0.2,0.1-0.2c0.1,0,0.2,0,0.2,0c0.1-0.3,0.3-0.5,0.4-0.7c1-1.4,1.5-2.3,1.5-2.8
			c0-0.1,0-0.2-0.1-0.2c-0.2,0-0.4,0.1-0.7,0.4c0,0-0.1,0.1-0.1,0.1c0,0-0.1,0.1-0.3,0.2c-0.2,0.1-0.4,0.2-0.5,0.4h-0.1
			c0.8-1,1.6-1.6,2.2-1.9c0.5,0,0.7,0.2,0.7,0.7c0,0.2-0.2,0.8-0.7,1.5l-0.1,0.1v0.1c0.1,0,0.3-0.1,0.6-0.1c0.1-0.1,0.3-0.1,0.4-0.1
			c0.3-0.1,0.6-0.2,0.9-0.2c0.2,0.1,0.4,0.3,0.4,0.4c0,0.3-0.3,0.4-1,0.4c0,0-0.2,0-0.6,0.1c-0.3,0.1-0.6,0.2-0.7,0.2
			c0,0-0.1,0-0.1,0.1c-0.1,0-0.2,0.1-0.3,0.1c0.8,0.3,1.2,0.9,1.3,1.6c0,0.1,0,0.2-0.1,0.3h-0.6c0,0-0.1-0.1-0.2-0.3
			c0-0.2-0.1-0.3-0.1-0.4c-0.1-0.1-0.2-0.2-0.4-0.4c-0.1-0.1-0.3-0.2-0.4-0.2h-0.1c0,0-0.1,0.1-0.2,0.2c-0.3,0.5-0.7,0.7-1,0.7
			c0,0.4,0.1,0.8,0.1,1.2c0,0.1,0.2,0.1,0.7,0.1c0.1,0,0.3,0,0.5,0.1c0.2,0,0.3,0.2,0.3,0.4c0,0.2-0.3,0.4-0.8,0.4
			c-0.3,0-0.6,0-0.7,0.1c0,0.5,0,1,0,1.5c0.7-0.1,1.8-0.2,3.4-0.3c1.3,0,2,0.2,2,0.7c0,0.2-0.2,0.3-0.5,0.4c-0.1,0-0.4,0-0.8-0.1
			c-0.1,0-0.3-0.1-0.4-0.1c-0.5-0.1-1.4-0.1-2.6,0c0,0.7,0,1.3-0.1,1.9c0.2,0,0.4-0.1,0.6-0.1c0.3,0,0.5,0,0.5-0.1h0.1
			c0.1,0,0.2,0,0.3,0c0.1,0,0.2,0.1,0.3,0.1c0.2,0.1,0.3,0.2,0.3,0.4c0,0.2-0.1,0.3-0.3,0.3c-0.2,0-0.4,0-0.7-0.1
			c-0.3,0-0.5-0.1-0.7-0.1c0,0-0.1,0-0.2,0c-0.1,0-0.2,0.1-0.2,0.1c0,0.3,0,0.8,0.1,1.4c0,0.6,0,1,0,1.3c0,1.1,0,1.7-0.1,2
			c-0.1,0.4-0.2,0.7-0.4,0.8l-0.1,0.1c-0.1,0-0.2,0.1-0.2,0.1c-0.2,0-0.4,0-0.6,0c-0.4,0-0.8-0.1-1.3-0.3l-0.4-0.2
			c0,0-0.1-0.1-0.2-0.1c0,0-0.2-0.1-0.4-0.2c-0.5-0.3-0.7-0.6-0.7-0.7c0.1,0,0.2,0.1,0.4,0.2c0.1,0,0.2,0.1,0.2,0.1
			c0.1,0,0.4,0,0.7,0.1c0.3,0,0.6,0.1,0.7,0.1c0.1,0,0.3,0,0.4,0c0,0,0,0,0.1,0c0.1,0,0.4-0.1,0.8-0.1c0.3-0.2,0.5-0.7,0.6-1.4
			c0-0.3,0-0.8,0-1.5c0-0.7,0.1-1.2,0.1-1.6c-0.6,0.1-1.4,0.2-2.4,0.4C103.3,43.1,103.1,43.1,103,43.1z M104.2,36c0,0-0.1,0-0.3,0.1
			c-0.3,0-0.6-0.2-0.8-0.7c-0.2-0.3-0.4-0.6-0.5-0.7c-0.4,0.2-0.8,0.4-1.1,0.7c-0.2,0.2-0.4,0.3-0.5,0.4c-0.2,0-0.4-0.1-0.7-0.3
			c0,0-0.2-0.3-0.4-0.9c0-0.2,0.1-0.4,0.4-0.5c0.4-0.2,0.7-0.4,0.8-0.7c0-0.1,0.1-0.3,0.1-0.5c0.2-0.6,0.4-0.9,0.7-0.9
			c0.4,0.1,0.7,0.6,1,1.3c0.1,0,0.3,0,0.4-0.1c0,0,0.2,0,0.4-0.1c0.3-0.1,0.6-0.2,0.7-0.2c0.1,0,0.2,0,0.4,0c0.1,0,0.2,0.1,0.3,0.1
			c0.1,0,0.1,0,0.1-0.1V33v0.1c0,0.2-0.2,0.4-0.5,0.6c-0.1,0-0.2,0.1-0.3,0.1c0,0-0.1,0-0.1,0.1c-0.1,0.1-0.2,0.2-0.2,0.2l-0.1,0.2
			c0,0.1-0.1,0.2-0.1,0.3v0.1c0,0.1,0,0.3,0.1,0.6c0.1,0.1,0.1,0.3,0.1,0.4C104.4,35.8,104.3,35.9,104.2,36z M103.7,34.2L103.7,34.2
			c0,0.3,0.1,0.4,0.2,0.4c0.2-0.2,0.4-0.5,0.6-0.8C104.2,33.9,103.9,34,103.7,34.2z M105.2,35.3L105.2,35.3
			C105.3,35.3,105.3,35.3,105.2,35.3z M105.5,37.2v0.1l0.2-0.1L105.5,37.2z"/>
		<path class="st0" d="M120.4,42.2c-0.1,0.4-0.3,0.7-0.7,0.8c-0.5-0.2-0.8-0.9-1.1-2.1c-0.4,0.4-0.8,0.8-1.2,1.2
			c-0.3,0.3-0.7,0.4-1,0.4c0-0.1-0.3-0.2-0.7-0.4l-0.3-0.2c0-0.2,0.2-0.4,0.6-0.7l0.1-0.1c1.5-0.7,3-3,4.6-6.8
			c-0.3,0-0.9-0.1-1.6-0.2c0.5,0.1,0.4,0.1-0.2-0.1c-0.1-0.1-0.2-0.2-0.2-0.2l-0.1-0.1c-0.1-0.1-0.2-0.2-0.2-0.2
			c0-0.3,0.6-0.6,1.7-0.7c0.2,0,0.4,0,0.4,0c0.3-0.2,0.6-0.4,0.9-0.4c0.7,0,1,0.3,1.1,0.9c0,0.2-0.1,0.6-0.4,1.1
			c-0.3,0.4-0.5,0.8-0.7,1.2c-0.4,1.1-0.9,2.1-1.5,3c0.1,0,0.4-0.1,0.7-0.3c0.4-0.2,0.7-0.3,0.9-0.3c1,0,1.5,0.4,1.5,1.2
			c0,0.1-0.1,0.3-0.1,0.4c0,0.7-0.3,1.4-0.8,2c-0.1,0.2-0.5,0.4-0.9,0.4C121,42.1,120.7,42.2,120.4,42.2z M119.9,39.9
			c0,0.1,0.1,0.3,0.2,0.7c0.1,0.3,0.1,0.5,0.1,0.7c0,0,0.1,0,0.2-0.1c0.3,0,0.5-0.1,0.6-0.2c0.1-0.4,0.2-1,0.2-1.6
			C120.8,39.5,120.3,39.7,119.9,39.9z M127.4,47.2c0-0.3,0-0.6,0-0.9c0.2-2.5,0.3-5.5,0.3-9.1c-0.3,0-0.8,0-1.4,0.1
			c-0.2,0-0.4,0.1-0.5,0.1c-0.2,3.1-0.6,5.4-1.2,6.8v0.1c-0.2,0.4-0.5,0.6-0.9,0.6c-0.1,0-0.2,0-0.2-0.1c-0.1,0-0.2-0.1-0.2-0.4
			v-0.1c0,0,0-0.1-0.1-0.1v-0.1c0-0.1-0.1-0.2-0.1-0.3c0-0.1,0.1-0.2,0.3-0.4l0.1-0.1c0.6-1.3,1-3.1,1.2-5.7c-0.1,0-0.4,0.1-0.7,0.1
			c-0.4,0.1-0.7,0.2-0.9,0.2c-0.3,0-0.5-0.1-0.6-0.2c0,0-0.1-0.1-0.2-0.1c-0.1,0-0.1-0.1-0.1-0.2c0-0.3,0.1-0.4,0.4-0.4
			c0.2,0,0.4,0,0.5,0c0.1,0,0.3,0,0.5-0.1c0.2,0,0.3,0,0.4,0c0.3-0.1,0.6-0.2,0.8-0.2c0.1-1.4,0.1-2.4-0.1-3.1
			c-0.3-0.1-0.7-0.3-1.1-0.5c-0.3-0.1-0.5-0.2-0.7-0.3h0.1l0.1-0.1h0.1c0,0,0.1,0,0.3,0c0.2,0,0.4,0,0.6,0c0.1,0,0.3,0,0.5,0
			c1,0,1.7-0.2,2.2-0.4c0,0,0.1,0,0.2-0.1c1-0.2,1.7-0.3,2.2-0.1c0,0,0,0.1,0.1,0.2v0.1c0,0.1-0.2,0.4-0.9,0.7c0,1,0,2,0,3
			c0.4,0,0.5-0.1,0.4-0.1c0.6,0,1-0.1,1.1-0.1c0.7,0,1.1,0.2,1.1,0.6c0,0.4-0.2,0.5-0.6,0.4c-0.7,0-1.3,0-2,0c0,3.1,0,6.2,0,9.2
			c0,0.6-0.1,1.1-0.4,1.5l-0.1-0.1c0,0-0.1,0.1-0.2,0.1c-0.1,0-0.2,0-0.2,0.1C127.5,47.9,127.4,47.7,127.4,47.2z M125.5,33.8
			c0.2,0.5,0.4,1.4,0.4,2.6c0,0.1,0,0.3,0,0.4c0.3,0,0.5-0.1,0.4-0.1c0.7-0.1,1.2-0.2,1.5-0.2c0-1,0-2,0-3c-0.1,0-0.4,0-0.7,0.1
			C126.3,33.6,125.8,33.7,125.5,33.8z"/>
		<path class="st0" d="M138.3,47c-0.3,0-0.4,0-0.4-0.3h-0.2c0-0.1,0.2-0.2,0.5-0.4c0.2-0.1,0.4-0.2,0.4-0.2c1.3-1.4,2.1-3.2,2.2-5.4
			c-0.9,0.3-1.8,0.7-2.8,1.2c0,0-0.1,0-0.2,0.1c-0.3,0.1-0.6,0.2-0.7,0.2c-0.4-0.1-0.7-0.2-0.7-0.4c0,0,0.1-0.1,0.3-0.2
			c0.2-0.1,0.3-0.2,0.3-0.2c0.8-0.3,2-0.8,3.7-1.4c0.1,0,0.2-0.1,0.2-0.1c0-0.2,0.1-0.6,0.1-1.1c0,0,0.1,0,0.1-0.1h0.1
			c0.1,0,0.3,0.3,0.5,1c0.1,0,0.4-0.1,0.7-0.2c0.5-0.1,0.8-0.2,0.9-0.2c0,0,0.2-0.1,0.5-0.2c0,0,0-0.1,0.1-0.1
			c0.2,0,0.4,0.2,0.4,0.4c0,0.2-0.1,0.5-0.3,0.8c-0.1,0.1-0.2,0.3-0.2,0.4c-0.4,1.2-0.6,2.2-0.7,3.3c0,0.7,0.3,1.2,0.9,1.5
			c0.4,0.1,1,0.3,1.7,0.4h0.1c1.3,0,2.3-0.1,2.9-0.4c0.1,0,0.1-0.1,0.1-0.1c0.1-0.1,0.2-0.4,0.3-0.7c0.1-0.3,0.2-0.5,0.3-0.6
			l0.1-0.4l0.1-0.1c0-0.2,0.1-0.3,0.2-0.3v0.7l0.1,0.1c0,0.3,0.1,0.6,0.1,0.7v0.2c0,0,0,0.1-0.1,0.1l-0.1,0.1c0,0.1,0,0.2,0.1,0.2
			l0.1-0.1c0-0.1,0.1-0.2,0.1-0.2c-0.2,0.5-0.3,0.9-0.4,1c-1,0.3-1.9,0.5-2.5,0.5c-3.2,0.1-4.8-0.7-4.8-2.7c0-1,0.3-2.2,0.8-3.8
			c-0.5,0.1-1.1,0.3-1.7,0.5c-0.1,1.1-0.4,2.1-0.7,3c-0.6,1.7-1.3,2.9-2.2,3.4l-0.1,0.1C138.6,47,138.4,47,138.3,47L138.3,47z
			 M136.7,36.9c0-0.4,0.2-0.9,0.7-1.3c0,0,0.1-0.2,0.4-0.5c0.5-0.5,0.8-0.7,0.9-0.8c0.2,0.2,0.3,0.5,0.4,1c1.2-0.3,2.2-0.5,3-0.5
			c-0.1,0-0.2-0.1-0.2-0.2c-0.1,0-0.3-0.1-0.6-0.3c0,0-0.1-0.1-0.1-0.1c-0.3-0.1-0.6-0.1-0.8-0.1c-0.2,0-0.4,0-0.7,0.1
			c-0.3,0-0.5,0-0.7,0c0-0.1,0.5-0.2,1.2-0.2c0.6,0,1,0,1.3-0.1c0,0,0.1,0,0.1-0.1c0-0.2-0.3-0.7-0.8-1.2c-0.3-0.3-0.4-0.5-0.4-0.5
			c0,0-0.1,0-0.1-0.1c0-0.1,0-0.1,0.1-0.1v0.1c0,0,0.2,0,0.4,0.1h0.2c0,0,0.2,0.1,0.6,0.3c0.8,0.8,1.3,1.4,1.3,1.9
			c0,0.1-0.1,0.2-0.1,0.3c0,0.2,0.1,0.3,0.3,0.3c0.1,0,0.4,0,0.7-0.1c0.3,0,0.5,0,0.7,0c1.3,0,2.4,0.1,3.3,0.6
			c0.3,0.2,0.5,0.4,0.4,0.6c0,0.2,0,0.3-0.1,0.4c-0.3,0.2-0.6,0.4-0.8,0.5c-0.4,0.1-0.9,0.2-1.5,0.3c-0.1,0-0.2-0.1-0.2-0.1
			c-0.1,0-0.2,0-0.3,0.1h-0.1c0.1-0.2,0.4-0.5,0.8-0.8l0.1-0.1c0,0,0.2-0.1,0.4-0.3c0.1,0,0.2-0.1,0.2-0.1c0.1-0.1,0.1-0.2-0.1-0.3
			c-0.4-0.2-1.2-0.3-2.3-0.3c-1.1,0-2.4,0.2-4,0.5c-0.5,0-0.9,0.1-1.4,0.2c0,0.1-0.1,0.2-0.3,0.4c-0.1,0.2-0.2,0.3-0.3,0.4h0.3
			l-0.1,0.1c0,0-0.1,0-0.2,0.1l-0.1,0.1c-0.1,0-0.2,0.1-0.2,0.1c0,0-0.1,0.1-0.1,0.1c0,0.1-0.2,0.2-0.4,0.2c0,0-0.1,0-0.1,0h-0.1
			c0,0-0.1,0.1-0.1,0.1C137,37.5,136.8,37.3,136.7,36.9z M138.6,39.2c0-0.2,0.2-0.5,0.6-0.8c0.9-0.8,1.4-1.5,1.5-2c0,0,0-0.1,0-0.1
			l-0.1-0.1v-0.1c0-0.1,0-0.2,0.1-0.2c0,0,0.3,0.2,0.7,0.7c0.1,0.2,0.2,0.3,0.3,0.4c0.1,0.3,0.1,0.6,0,0.9c-0.4,0.4-0.9,0.8-1.5,1.2
			c0,0-0.1,0-0.1,0.1l-0.1-0.1c0,0-0.1,0-0.1,0c0,0-0.2,0.1-0.4,0.2c-0.2,0.1-0.3,0.2-0.4,0.2c0,0,0-0.1-0.1-0.1
			C139,39.2,138.8,39.2,138.6,39.2z M144.7,38.1h-0.3l-0.1-0.1c0-0.1-0.2-0.1-0.4-0.1c0,0,0.1,0,0.1-0.1h0.1v-0.1
			c0-0.2-0.1-0.4-0.4-0.7c-0.1-0.1-0.3-0.3-0.4-0.4c-0.1-0.1-0.1-0.2-0.1-0.3c0-0.1,0.1-0.1,0.2-0.1c0.4,0,1,0.3,1.6,0.9
			c0.3,0.4,0.4,0.8,0.4,1.1v0.1l-0.1-0.1c0,0,0-0.1-0.1-0.1h-0.1c0,0-0.1,0-0.1,0.1c0,0,0,0.1,0,0.1v0.1v-0.1c0,0,0-0.1-0.1-0.1
			C144.8,38.1,144.8,38.1,144.7,38.1z"/>
		<path class="st0" d="M156.1,48.1c-0.3,0-0.5-0.8-0.5-2.1c0.1-2,0.2-4.2,0.4-6.6c0-1.3,0.1-2.5,0.4-3.8c0-0.1,0-0.3,0.1-0.5
			c0-0.2,0.1-0.3,0.1-0.4c0,0-0.1,0-0.2,0c-0.1,0-0.2,0.1-0.3,0.1c-1,0-1.5-0.2-1.6-0.6c0-0.1,0.1-0.2,0.3-0.2
			c0.9-0.2,1.7-0.5,2.4-0.8c0.1,0,0.2-0.1,0.4-0.2c0.6-0.3,1-0.5,1.3-0.6c0.6-0.1,1,0.1,1.1,0.6c0,0.6-0.4,1.6-1.1,3
			c0,0,0,0.1-0.1,0.2c0,0.1-0.1,0.2-0.1,0.3c0,0.1,0.1,0.3,0.3,0.7c0.3,0.5,0.6,1,0.7,1.4c0,0.2,0.1,0.6,0.1,1.1
			c0,0.8-0.3,1.2-0.8,1.2c-0.5,0-1-0.2-1.5-0.7c-0.1-0.1-0.2-0.2-0.2-0.2l-0.1-0.1c0-0.1-0.1-0.1-0.1-0.1c0,2.2,0,4.4,0,6.5
			c0.1,0.8,0,1.3-0.2,1.6C156.6,48.1,156.4,48.2,156.1,48.1z M157,38.3v0.1c0,0,0,0.1,0,0.2c0,0.3,0.2,0.5,0.5,0.6
			c0.4,0.2,0.6,0.3,0.7,0.3c0.2,0,0.3-0.2,0.3-0.7c0-0.5-0.1-1.1-0.4-1.7c0-0.1-0.1-0.2-0.1-0.4c-0.1-0.2-0.2-0.4-0.2-0.6
			c0.3-1.2,0.5-2,0.7-2.3h-0.1c-0.1,0.1-0.4,0.2-0.7,0.4c-0.2,0.1-0.4,0.2-0.5,0.2c0,0.1,0.1,0.3,0.1,0.5c0,0.1,0,0.3,0,0.5
			c0,0.2-0.1,0.4-0.1,0.6C157.1,36.8,157,37.6,157,38.3z M159.5,37.7c-0.2,0-0.4-0.2-0.5-0.6c0-0.1-0.1-0.2-0.1-0.2
			c0-0.1,0.1-0.3,0.4-0.5c0.5-0.5,0.9-0.9,1.2-1.4c0.3-0.5,0.6-0.8,0.7-0.9c0.1,0,0.2,0.2,0.3,0.7c0,0,0,0.1,0,0.2
			c0,0.1-0.1,0.2-0.1,0.3c0.6-0.1,1.2-0.3,1.7-0.5l-0.1-0.1c-0.1,0-0.1,0-0.1-0.1c0,0,0-0.1,0.1-0.1c0,0,0.1-0.1,0.1-0.1
			c0-0.4-0.3-1.1-0.9-1.9c-0.1-0.1-0.1-0.3-0.1-0.4c0.2-0.1,0.6,0,1.2,0.4c0.5,0.4,0.8,1.1,1.1,2.1c0.1,0,0.4,0,0.7-0.1
			c0.8-0.1,1.4-0.1,1.8-0.1c0.6,0,1.1,0.1,1.7,0.3c0.3,0.3,0.5,0.5,0.6,0.7c0,0.2,0,0.3-0.1,0.4c-0.2,0.2-1,0.6-2.3,1.1v-0.1
			c0,0,0-0.1-0.1-0.1h-0.1l-0.1,0.1c0,0,0,0.1-0.1,0.1l-0.1-0.1c0,0,0-0.1-0.1-0.1c-0.1,0-0.3,0.1-0.7,0.2c-0.2,0.1-0.3,0.1-0.4,0.1
			h-0.1c0-0.1,0.5-0.5,1.5-1.2c0.5-0.4,0.8-0.6,0.9-0.7c-0.2-0.1-0.5-0.1-0.8-0.1c-0.1,0-0.2,0-0.3,0c-0.7,0-1.5,0.1-2.2,0.2
			c-0.2,0.1-0.4,0.1-0.7,0.1c-1.6,0.3-2.5,0.7-2.8,1.1c0,0-0.1,0-0.1,0.1l-0.1,0.1C160.3,37.2,159.9,37.6,159.5,37.7z M159.2,45.9
			L159.2,45.9l0.1-0.2c0,0,0-0.1-0.1-0.1c0,0-0.1-0.1-0.1-0.1v-0.1c0.1-0.1,0.3-0.3,0.5-0.5c0.4-0.3,0.7-0.6,0.9-0.8
			c0.9-1.2,1.6-2.3,2.2-3.6c-0.9,0.5-1.7,0.7-2.5,0.7c-0.2,0-0.3-0.1-0.4-0.2c0-0.1,0-0.2,0-0.2c0,0-0.1-0.1-0.1-0.1
			c0-0.2,0.1-0.4,0.4-0.5c0.1,0,0.2-0.1,0.3-0.1c0.3-0.3,0.7-0.6,0.9-0.8c0,0,0.1-0.1,0.3-0.2c0.3-0.2,0.6-0.5,0.8-0.8
			c0,0,0.1-0.1,0.1-0.1l0.1-0.1l-0.1-0.1h-0.1c0,0-0.1,0-0.1,0c-0.5,0-0.7-0.3-0.7-0.7c0-0.2,0.1-0.3,0.4-0.3c0.1,0,0.2,0,0.3,0
			c0.1,0,0.2,0.1,0.3,0.1c0.2,0,0.6,0,0.9-0.1c0.4-0.1,0.7-0.1,0.9-0.1c0.4,0,0.6,0.1,0.5,0.6c-0.1,0.2-0.5,0.4-1,0.6
			c0,0,0-0.1-0.1-0.1c0,0-0.2,0-0.4,0.1c-0.2,0.1-0.3,0.1-0.4,0.1c0,0-0.2,0.1-0.4,0.2c0,0-0.1,0-0.2,0.1l-0.1,0.1
			c-0.3,0.3-0.6,0.6-0.8,0.8c0,0-0.1,0.1-0.3,0.2c-0.3,0.2-0.4,0.4-0.4,0.4h0.1c0,0,0,0.1-0.1,0.1c0,0-0.1,0.1-0.1,0.2
			c0.4,0,1.6-0.4,3.6-1.3c0.4-0.2,0.7-0.2,1.1,0c0.2,0.1,0.4,0.3,0.4,0.4c0,0.4-0.4,0.6-1.2,0.6h-0.1c-0.3,0-0.6,0.1-0.7,0.2
			c-0.2,0.2-0.4,0.5-0.7,1c-0.1,0.1-0.2,0.3-0.2,0.4c-0.3,0.9-0.8,1.7-1.4,2.6c0,0-0.1,0.1-0.2,0.3c-0.6,0.9-1.1,1.5-1.6,1.7
			c0,0-0.1,0-0.2,0C159.4,46,159.2,46,159.2,45.9z M163,44.6c0,0,0-0.1,0.1-0.2v-0.1c0.2-1,0.5-2,0.7-3c0-0.1,0-0.3,0-0.4
			c0.4,0,0.6,0.2,0.6,0.8c0,0.1-0.1,0.4-0.1,0.7c-0.2,1-0.4,1.7-0.4,2.2c-0.1,0.8,0.5,1.2,1.7,1.4c1.4,0,2.4-0.1,3.1-0.5
			c0.3-0.1,0.5-0.6,0.6-1.2c0-0.1,0-0.2,0-0.2v-0.1c0-0.7,0-1.1,0-1.2c0-0.1,0.1-0.1,0.1,0c0,0.1,0.1,0.3,0.4,0.7
			c0,0,0.1,0.1,0.1,0.1c0,0.1,0.1,0.3,0.1,0.5c0.1,0.6,0.2,1,0.2,1.4c0,0.3,0,0.5-0.1,0.6c-0.1,0-0.2,0.1-0.3,0.1
			c-0.1,0-0.2,0.1-0.3,0.1c-1.1,0.2-2.2,0.4-3.3,0.4c-1.4-0.1-2.2-0.4-2.7-0.8C163.1,45.5,163,45.1,163,44.6z"/>
	</g>
	<g>
		<g>
			<path class="st0" d="M4.7,57.7L4.7,57.7l0-0.2l0,0c0.2,0,0.3,0,0.3,0s0.1,0,0.1-0.1c0,0,0.1-0.2,0.2-0.4l0.4-0.8l0.9-2.1
				c0.2-0.4,0.3-0.8,0.5-1.2h0.2l1.4,3.4L9,56.7C9,56.8,9.1,57,9.2,57.1c0.1,0.1,0.1,0.2,0.2,0.3c0,0,0.1,0,0.1,0.1c0,0,0.1,0,0.3,0
				l0,0v0.2l0,0c-0.2,0-0.5,0-0.6,0c-0.4,0-0.7,0-1.1,0l0,0v-0.2l0,0c0.2,0,0.4,0,0.5,0c0.1,0,0.1-0.1,0.1-0.1c0,0,0-0.1,0-0.2
				l-0.4-1H6.1L5.7,57c-0.1,0.2-0.1,0.3-0.1,0.3c0,0.1,0,0.1,0.1,0.1c0.1,0,0.2,0,0.5,0l0,0v0.2l0,0c-0.3,0-0.5,0-0.8,0
				C5.2,57.7,4.9,57.7,4.7,57.7z M6.2,55.8h1.7l-0.8-2L6.2,55.8z"/>
			<path class="st0" d="M10.1,53L10.1,53c0.4,0,0.7,0,0.8,0l1.6,0c0.4,0,0.8,0,1.1,0.1c0.3,0.1,0.5,0.2,0.8,0.4
				c0.2,0.2,0.4,0.4,0.5,0.7c0.1,0.3,0.2,0.6,0.2,0.9c0,0.3-0.1,0.6-0.2,0.9c-0.1,0.3-0.3,0.6-0.4,0.8c-0.2,0.2-0.4,0.4-0.7,0.6
				c-0.2,0.1-0.5,0.2-0.7,0.3c-0.2,0-0.5,0.1-0.8,0.1c-0.2,0-0.5,0-1,0c-0.2,0-0.3,0-0.3,0c-0.2,0-0.3,0-0.6,0l0,0v-0.1l0,0
				c0.1-0.1,0.2-0.1,0.2-0.1c0,0,0-0.2,0-0.6c0-0.4,0-0.7,0-0.9v-1.2l0-0.8c0-0.2,0-0.3,0-0.4c0-0.1,0-0.2,0-0.2c0,0,0-0.1,0-0.1
				c0,0,0,0-0.1,0c0,0-0.1,0-0.2,0l-0.3,0l0,0V53z M11.3,57.3c0.2,0,0.5,0.1,0.8,0.1c0.5,0,0.9-0.1,1.2-0.3c0.3-0.2,0.5-0.4,0.7-0.8
				c0.2-0.3,0.2-0.7,0.2-1.2c0-0.6-0.2-1.1-0.5-1.5s-0.9-0.5-1.6-0.5c-0.3,0-0.6,0-0.9,0.1c0,0.4,0,0.8,0,1.2v1.1l0,1
				C11.3,56.8,11.3,57,11.3,57.3z"/>
			<path class="st0" d="M17.8,57.7c0-0.1-0.2-0.5-0.4-1.1l-1.1-2.8c-0.1-0.3-0.2-0.5-0.2-0.5c0,0-0.2-0.1-0.4-0.1l0,0V53l0,0
				c0.3,0,0.6,0,0.9,0c0.2,0,0.5,0,0.9,0l0,0v0.2l0,0c-0.3,0-0.4,0-0.5,0c-0.1,0-0.1,0-0.1,0.1c0,0,0,0.1,0.1,0.4
				c0.1,0.2,0.1,0.4,0.2,0.5l1,2.6l0.9-2.2c0.1-0.1,0.1-0.4,0.3-0.7c0.1-0.3,0.2-0.5,0.2-0.6c0-0.1,0-0.1-0.1-0.1
				c-0.1,0-0.2,0-0.5-0.1l0,0V53l0,0c0.4,0,0.6,0,0.7,0c0.1,0,0.3,0,0.7,0l0,0v0.2l0,0c-0.2,0-0.3,0-0.3,0c0,0-0.1,0.1-0.1,0.1
				c0,0.1-0.1,0.2-0.2,0.5l-1,2.6c-0.2,0.6-0.4,1-0.5,1.3H17.8z"/>
			<path class="st0" d="M20,57.7L20,57.7l0-0.2l0,0c0.2,0,0.3,0,0.3,0c0,0,0.1,0,0.1-0.1c0,0,0.1-0.2,0.2-0.4l0.4-0.8l0.9-2.1
				c0.2-0.4,0.3-0.8,0.5-1.2h0.2l1.4,3.4l0.2,0.4c0.1,0.1,0.1,0.3,0.2,0.4c0.1,0.1,0.1,0.2,0.2,0.3c0,0,0.1,0,0.1,0.1
				c0,0,0.1,0,0.3,0l0,0v0.2l0,0c-0.2,0-0.4,0-0.6,0c-0.4,0-0.7,0-1.1,0l0,0v-0.2l0,0c0.2,0,0.4,0,0.5,0c0.1,0,0.1-0.1,0.1-0.1
				c0,0,0-0.1,0-0.2l-0.4-1h-1.9L21.1,57C21,57.1,21,57.2,21,57.3c0,0.1,0,0.1,0.1,0.1c0.1,0,0.2,0,0.5,0l0,0v0.2l0,0
				c-0.3,0-0.5,0-0.8,0C20.5,57.7,20.3,57.7,20,57.7z M21.6,55.8h1.7l-0.8-2L21.6,55.8z"/>
			<path class="st0" d="M25.6,57.7L25.6,57.7l0-0.2l0,0c0.1,0,0.2,0,0.3,0c0.1,0,0.1,0,0.2-0.1c0,0,0-0.1,0-0.2c0-0.1,0-0.2,0-0.5
				c0-0.2,0-0.4,0-0.5v-2.7c0-0.1,0-0.2-0.1-0.3c0-0.1-0.1-0.1-0.2-0.1c-0.1,0-0.2,0-0.4,0l0,0V53l0,0c0.3,0,0.5,0,0.6,0
				c0.2,0,0.4,0,0.6,0l1.1,1.4l1.6,2c0.2,0.2,0.4,0.5,0.6,0.7v-2.6c0-0.1,0-0.3,0-0.5c0-0.3,0-0.4,0-0.5c0-0.1,0-0.1-0.1-0.1
				c0,0-0.1,0-0.2-0.1c-0.1,0-0.2,0-0.3,0l0,0V53l0,0c0.2,0,0.4,0,0.8,0c0.3,0,0.5,0,0.7,0l0,0v0.2l0,0c-0.1,0-0.3,0-0.3,0
				c-0.1,0-0.1,0-0.2,0.1c0,0,0,0.1,0,0.1s0,0.2,0,0.5c0,0.2,0,0.4,0,0.5V56l0,0.9c0,0.3,0,0.6,0,0.9c-0.1,0-0.3-0.1-0.6-0.1
				l-0.2-0.3l-0.7-0.9l-2.3-2.8v2.6c0,0.1,0,0.3,0,0.5c0,0.3,0,0.4,0,0.5c0,0.1,0,0.1,0,0.1c0,0,0.1,0,0.1,0.1c0.1,0,0.2,0,0.4,0
				l0,0v0.2l0,0c-0.1,0-0.3,0-0.6,0C26.1,57.7,25.8,57.7,25.6,57.7z"/>
			<path class="st0" d="M35.9,57.1l-0.1,0.3c-0.5,0.3-1,0.4-1.6,0.4c-0.8,0-1.5-0.2-2-0.7c-0.5-0.5-0.8-1.1-0.8-1.8
				c0-0.5,0.1-1,0.4-1.3c0.3-0.4,0.6-0.7,1-0.9c0.4-0.2,0.9-0.3,1.4-0.3c0.3,0,0.6,0,0.9,0.1c0.3,0.1,0.5,0.1,0.7,0.2l0,0
				c-0.1,0.1-0.1,0.4-0.1,0.9l0,0h-0.2l0,0l0-0.6c-0.2-0.1-0.4-0.2-0.6-0.3c-0.2-0.1-0.5-0.1-0.7-0.1c-0.4,0-0.7,0.1-1,0.2
				c-0.3,0.2-0.5,0.4-0.7,0.7c-0.2,0.3-0.2,0.7-0.2,1.1c0,0.4,0.1,0.8,0.3,1.2c0.2,0.3,0.5,0.6,0.8,0.8c0.3,0.2,0.7,0.3,1.2,0.3
				c0.2,0,0.4,0,0.6-0.1c0.2,0,0.3-0.1,0.5-0.1C35.6,57.2,35.7,57.1,35.9,57.1L35.9,57.1z"/>
			<path class="st0" d="M36.5,53L36.5,53c0.8,0,1.3,0,1.5,0c0.7,0,1.4,0,2,0l0,0c-0.1,0.2-0.1,0.6-0.1,1l0,0h-0.2l0,0c0,0,0,0,0-0.1
				c0-0.2,0-0.4,0-0.5c-0.1-0.1-0.3-0.1-0.6-0.1c-0.2,0-0.4,0-0.6,0c-0.2,0-0.4,0-0.7,0l0,0.5l0,0.6l0,0.7c0.2,0,0.5,0,0.7,0
				c0.2,0,0.4,0,0.5,0c0.1,0,0.2,0,0.2,0c0,0,0,0,0.1-0.1c0,0,0-0.1,0-0.2l0-0.2l0,0h0.2l0,0c0,0.2,0,0.5,0,0.7l0,0.8l0,0h-0.2l0,0
				l0-0.2c0-0.2,0-0.2,0-0.3c0,0,0-0.1-0.1-0.1c0,0-0.1,0-0.2-0.1c-0.1,0-0.3,0-0.6,0c-0.1,0-0.3,0-0.6,0c0,0.2,0,0.5,0,0.9
				c0,0.5,0,0.8,0,1h0.6c0.5,0,0.9,0,1,0c0.1,0,0.3,0,0.4-0.1c0-0.1,0.1-0.2,0.1-0.4c0-0.2,0.1-0.3,0.1-0.4l0,0h0.2l0,0
				c0,0.1,0,0.3-0.1,0.5c0,0.2,0,0.4,0,0.6l0,0c-0.4,0-1,0-1.7,0l-0.9,0c-0.2,0-0.4,0-0.7,0l0,0v-0.1l0,0c0.1-0.1,0.2-0.1,0.2-0.1
				c0,0,0-0.2,0-0.6c0-0.4,0-0.7,0-0.9v-1.2l0-0.8c0-0.2,0-0.3,0-0.4c0-0.1,0-0.2,0-0.2c0,0,0-0.1,0-0.1c0,0,0,0-0.1,0
				c0,0-0.1,0-0.2,0l-0.3,0l0,0V53z"/>
			<path class="st0" d="M40.6,53L40.6,53c0.4,0,0.7,0,0.8,0l1.6,0c0.4,0,0.8,0,1.1,0.1c0.3,0.1,0.5,0.2,0.8,0.4
				c0.2,0.2,0.4,0.4,0.5,0.7c0.1,0.3,0.2,0.6,0.2,0.9c0,0.3-0.1,0.6-0.2,0.9c-0.1,0.3-0.3,0.6-0.4,0.8c-0.2,0.2-0.4,0.4-0.7,0.6
				c-0.2,0.1-0.5,0.2-0.7,0.3c-0.2,0-0.5,0.1-0.8,0.1c-0.2,0-0.5,0-1,0c-0.2,0-0.3,0-0.3,0c-0.2,0-0.3,0-0.6,0l0,0v-0.1l0,0
				c0.1-0.1,0.2-0.1,0.2-0.1s0-0.2,0-0.6c0-0.4,0-0.7,0-0.9v-1.2l0-0.8c0-0.2,0-0.3,0-0.4c0-0.1,0-0.2,0-0.2c0,0,0-0.1,0-0.1
				c0,0,0,0-0.1,0c0,0-0.1,0-0.2,0l-0.3,0l0,0V53z M41.9,57.3c0.2,0,0.5,0.1,0.8,0.1c0.5,0,0.9-0.1,1.2-0.3c0.3-0.2,0.5-0.4,0.7-0.8
				c0.2-0.3,0.2-0.7,0.2-1.2c0-0.6-0.2-1.1-0.5-1.5c-0.3-0.3-0.9-0.5-1.6-0.5c-0.3,0-0.6,0-0.9,0.1c0,0.4,0,0.8,0,1.2v1.1l0,1
				C41.9,56.8,41.9,57,41.9,57.3z"/>
			<path class="st0" d="M48,52.9l0.4,0c0.3,0,0.5,0,0.5,0c0.1,0,0.4,0,1,0l0,0v0.2l0,0c-0.2,0-0.3,0-0.4,0s-0.1,0-0.2,0.1
				c0,0-0.1,0.1-0.1,0.2c0,0.1,0,0.2,0,0.4l0,0.8v1.6l0,0.7c0,0.3,0,0.4,0,0.5c0,0.1,0,0.1,0,0.1c0,0,0.1,0,0.1,0.1
				c0.1,0,0.2,0,0.4,0l0,0v0.2l0,0c0,0-0.2,0-0.6,0c-0.2,0-0.3,0-0.4,0c-0.1,0-0.4,0-1,0l0,0v-0.2l0,0c0.2,0,0.3,0,0.4,0
				c0.1,0,0.1,0,0.1-0.1c0,0,0-0.1,0.1-0.1c0-0.1,0-0.2,0-0.5l0-0.7v-1.6l0-0.7c0-0.3,0-0.4,0-0.5c0-0.1,0-0.1,0-0.1
				c0,0-0.1,0-0.1-0.1c-0.1,0-0.2,0-0.4,0l0,0L48,52.9L48,52.9z"/>
			<path class="st0" d="M50.5,57.7L50.5,57.7l0-0.2l0,0c0.1,0,0.2,0,0.3,0c0.1,0,0.1,0,0.2-0.1c0,0,0-0.1,0-0.2c0-0.1,0-0.2,0-0.5
				c0-0.2,0-0.4,0-0.5v-2.7c0-0.1,0-0.2-0.1-0.3c0-0.1-0.1-0.1-0.2-0.1c-0.1,0-0.2,0-0.4,0l0,0V53l0,0c0.3,0,0.5,0,0.6,0
				c0.2,0,0.4,0,0.6,0l1.1,1.4l1.6,2c0.2,0.2,0.4,0.5,0.6,0.7v-2.6c0-0.1,0-0.3,0-0.5c0-0.3,0-0.4,0-0.5c0-0.1,0-0.1-0.1-0.1
				c0,0-0.1,0-0.2-0.1c-0.1,0-0.2,0-0.3,0l0,0V53l0,0c0.2,0,0.4,0,0.8,0c0.3,0,0.5,0,0.7,0l0,0v0.2l0,0c-0.1,0-0.3,0-0.3,0
				c-0.1,0-0.1,0-0.2,0.1c0,0,0,0.1,0,0.1s0,0.2,0,0.5c0,0.2,0,0.4,0,0.5V56l0,0.9c0,0.3,0,0.6,0,0.9c-0.1,0-0.3-0.1-0.6-0.1
				l-0.2-0.3l-0.7-0.9l-2.3-2.8v2.6c0,0.1,0,0.3,0,0.5c0,0.3,0,0.4,0,0.5c0,0.1,0,0.1,0,0.1c0,0,0.1,0,0.1,0.1c0.1,0,0.2,0,0.4,0
				l0,0v0.2l0,0c-0.1,0-0.3,0-0.6,0C51,57.7,50.8,57.7,50.5,57.7z"/>
			<path class="st0" d="M56.4,56.5L56.4,56.5l0.2,0l0,0c0,0.3,0,0.5,0,0.5c0,0.1,0.1,0.1,0.2,0.2c0.1,0.1,0.2,0.1,0.4,0.2
				c0.2,0,0.3,0.1,0.5,0.1c0.2,0,0.4,0,0.6-0.1c0.2-0.1,0.3-0.2,0.4-0.4c0.1-0.2,0.2-0.4,0.2-0.6c0-0.1,0-0.3-0.1-0.4
				c0-0.1-0.1-0.2-0.2-0.3c-0.1-0.1-0.2-0.1-0.3-0.1c-0.1,0-0.3-0.1-0.5-0.1c-0.2,0-0.4-0.1-0.5-0.1c-0.1,0-0.3-0.1-0.4-0.1
				c-0.1-0.1-0.2-0.1-0.3-0.2c-0.1-0.1-0.2-0.2-0.2-0.3c-0.1-0.1-0.1-0.3-0.1-0.4c0-0.4,0.1-0.8,0.4-1c0.3-0.3,0.7-0.4,1.2-0.4
				c0.2,0,0.4,0,0.6,0.1c0.2,0,0.4,0.1,0.6,0.2l0,0c0,0.2-0.1,0.5-0.1,0.9l0,0H59l0,0c0-0.3,0-0.4,0-0.5c0-0.1-0.1-0.2-0.3-0.3
				c-0.2-0.1-0.4-0.2-0.6-0.2c-0.2,0-0.4,0-0.5,0.1c-0.2,0.1-0.3,0.2-0.4,0.4c-0.1,0.2-0.1,0.3-0.1,0.5c0,0.1,0,0.2,0.1,0.3
				c0.1,0.1,0.1,0.2,0.2,0.2c0.1,0.1,0.2,0.1,0.3,0.1c0.1,0,0.3,0.1,0.6,0.1c0.4,0.1,0.7,0.1,0.9,0.2c0.2,0.1,0.3,0.2,0.4,0.4
				c0.1,0.2,0.2,0.4,0.2,0.6c0,0.5-0.2,0.9-0.6,1.2c-0.4,0.3-0.9,0.5-1.4,0.5c-0.5,0-0.9-0.1-1.2-0.2l0,0
				C56.4,57.4,56.4,57,56.4,56.5z"/>
			<path class="st0" d="M63.9,52.9L63.9,52.9c0,0.2,0,0.6,0,1.1l0,0h-0.2l0,0l0-0.3c0-0.2,0-0.3,0-0.3c0,0,0-0.1,0-0.1
				c0,0-0.1,0-0.2,0c-0.1,0-0.3,0-0.4,0h-0.6c0,0.5,0,0.8,0,0.9v2l0,0.7c0,0.3,0,0.4,0,0.5c0,0.1,0,0.1,0,0.1c0,0,0.1,0,0.1,0.1
				c0.1,0,0.2,0,0.4,0l0,0v0.2l0,0c-0.6,0-0.9,0-1,0c-0.1,0-0.4,0-1,0l0,0v-0.2l0,0c0.2,0,0.3,0,0.4,0c0.1,0,0.1,0,0.1-0.1
				c0,0,0-0.1,0.1-0.1c0-0.1,0-0.2,0-0.5l0-0.7v-2c0,0,0-0.3,0-0.9h-0.5c-0.2,0-0.4,0-0.5,0c-0.1,0-0.2,0-0.3,0.1c0,0,0,0.2-0.1,0.4
				l0,0.3l0,0H60l0,0c0-0.5,0-0.9,0-1.1l0,0c0.4,0,1,0,1.9,0C62.9,53,63.5,53,63.9,52.9z"/>
			<path class="st0" d="M64.4,52.9l0.4,0c0.3,0,0.5,0,0.5,0c0.1,0,0.4,0,1,0l0,0v0.2l0,0c-0.2,0-0.3,0-0.4,0c-0.1,0-0.1,0-0.2,0.1
				c0,0-0.1,0.1-0.1,0.2c0,0.1,0,0.2,0,0.4l0,0.8v1.6l0,0.7c0,0.3,0,0.4,0,0.5c0,0.1,0,0.1,0,0.1c0,0,0.1,0,0.1,0.1
				c0.1,0,0.2,0,0.4,0l0,0v0.2l0,0c0,0-0.2,0-0.6,0c-0.2,0-0.3,0-0.4,0c-0.1,0-0.4,0-1,0l0,0v-0.2l0,0c0.2,0,0.3,0,0.4,0
				c0.1,0,0.1,0,0.1-0.1c0,0,0-0.1,0.1-0.1c0-0.1,0-0.2,0-0.5l0-0.7v-1.6l0-0.7c0-0.3,0-0.4,0-0.5c0-0.1,0-0.1,0-0.1
				c0,0-0.1,0-0.1-0.1c-0.1,0-0.2,0-0.4,0l0,0L64.4,52.9L64.4,52.9z"/>
			<path class="st0" d="M70.7,52.9L70.7,52.9c0,0.2,0,0.6,0,1.1l0,0h-0.2l0,0l0-0.3c0-0.2,0-0.3,0-0.3c0,0,0-0.1,0-0.1
				c0,0-0.1,0-0.2,0c-0.1,0-0.3,0-0.4,0h-0.6c0,0.5,0,0.8,0,0.9v2l0,0.7c0,0.3,0,0.4,0,0.5c0,0.1,0,0.1,0,0.1c0,0,0.1,0,0.1,0.1
				c0.1,0,0.2,0,0.4,0l0,0v0.2l0,0c-0.6,0-0.9,0-1,0c-0.1,0-0.4,0-1,0l0,0v-0.2l0,0c0.2,0,0.3,0,0.4,0c0.1,0,0.1,0,0.1-0.1
				c0,0,0-0.1,0.1-0.1c0-0.1,0-0.2,0-0.5l0-0.7v-2c0,0,0-0.3,0-0.9h-0.5c-0.2,0-0.4,0-0.5,0c-0.1,0-0.2,0-0.3,0.1c0,0,0,0.2-0.1,0.4
				l0,0.3l0,0h-0.2l0,0c0-0.5,0-0.9,0-1.1l0,0c0.4,0,1,0,1.9,0C69.7,53,70.3,53,70.7,52.9z"/>
			<path class="st0" d="M71.1,53L71.1,53c0.6,0,0.9,0,1,0c0.1,0,0.4,0,1,0l0,0v0.2l0,0c-0.2,0-0.3,0-0.4,0c-0.1,0-0.1,0-0.2,0.1
				c0,0-0.1,0.1-0.1,0.2c0,0.1,0,0.2,0,0.4l0,0.8v1.1c0,0.4,0,0.6,0,0.8c0,0.2,0,0.3,0.1,0.4c0,0.1,0.1,0.2,0.2,0.3
				c0.1,0.1,0.2,0.1,0.4,0.2c0.2,0.1,0.4,0.1,0.6,0.1c0.2,0,0.5,0,0.7-0.1c0.2-0.1,0.4-0.2,0.5-0.3c0.1-0.1,0.2-0.3,0.2-0.5
				c0-0.2,0.1-0.5,0.1-0.9v-1c0-0.2,0-0.4,0-0.7c0-0.3,0-0.5,0-0.5c0,0-0.1-0.1-0.1-0.1c-0.1,0-0.2,0-0.5,0l0,0V53l0,0
				c0.3,0,0.6,0,0.8,0c0.2,0,0.4,0,0.8,0l0,0v0.2l0,0c-0.2,0-0.3,0-0.4,0c-0.1,0-0.1,0-0.1,0.1c0,0,0,0.1-0.1,0.1c0,0.1,0,0.2,0,0.4
				l0,0.8v1c0,0.4,0,0.7,0,1c0,0.2-0.1,0.4-0.2,0.6c-0.1,0.2-0.2,0.3-0.4,0.4c-0.1,0.1-0.3,0.2-0.6,0.2c-0.2,0.1-0.5,0.1-0.7,0.1
				c-0.3,0-0.6,0-0.8-0.1c-0.2-0.1-0.4-0.2-0.6-0.3c-0.1-0.1-0.2-0.2-0.3-0.4c-0.1-0.1-0.1-0.3-0.1-0.4c0-0.2,0-0.4,0-0.8v-1.3
				l0-0.7c0-0.3,0-0.4,0-0.5c0-0.1,0-0.1,0-0.1c0,0-0.1,0-0.1-0.1c-0.1,0-0.2,0-0.4,0l0,0V53z"/>
			<path class="st0" d="M80.5,52.9L80.5,52.9c0,0.2,0,0.6,0,1.1l0,0h-0.2l0,0l0-0.3c0-0.2,0-0.3,0-0.3c0,0,0-0.1,0-0.1
				c0,0-0.1,0-0.2,0c-0.1,0-0.3,0-0.4,0h-0.6c0,0.5,0,0.8,0,0.9v2l0,0.7c0,0.3,0,0.4,0,0.5c0,0.1,0,0.1,0,0.1c0,0,0.1,0,0.1,0.1
				c0.1,0,0.2,0,0.4,0l0,0v0.2l0,0c-0.6,0-0.9,0-1,0c-0.1,0-0.4,0-1,0l0,0v-0.2l0,0c0.2,0,0.3,0,0.4,0c0.1,0,0.1,0,0.1-0.1
				c0,0,0-0.1,0.1-0.1c0-0.1,0-0.2,0-0.5l0-0.7v-2c0,0,0-0.3,0-0.9h-0.5c-0.2,0-0.4,0-0.5,0c-0.1,0-0.2,0-0.3,0.1c0,0,0,0.2-0.1,0.4
				l0,0.3l0,0h-0.2l0,0c0-0.5,0-0.9,0-1.1l0,0c0.4,0,1,0,1.9,0C79.5,53,80.1,53,80.5,52.9z"/>
			<path class="st0" d="M81,53L81,53c0.8,0,1.3,0,1.5,0c0.7,0,1.4,0,2,0l0,0c-0.1,0.2-0.1,0.6-0.1,1l0,0h-0.2l0,0c0,0,0,0,0-0.1
				c0-0.2,0-0.4,0-0.5c-0.1-0.1-0.3-0.1-0.6-0.1c-0.2,0-0.4,0-0.6,0c-0.2,0-0.4,0-0.7,0l0,0.5l0,0.6l0,0.7c0.2,0,0.5,0,0.7,0
				c0.2,0,0.4,0,0.5,0c0.1,0,0.2,0,0.2,0c0,0,0,0,0.1-0.1c0,0,0-0.1,0-0.2l0-0.2l0,0H84l0,0c0,0.2,0,0.5,0,0.7l0,0.8l0,0h-0.2l0,0
				l0-0.2c0-0.2,0-0.2,0-0.3c0,0,0-0.1-0.1-0.1c0,0-0.1,0-0.2-0.1c-0.1,0-0.3,0-0.6,0c-0.1,0-0.3,0-0.6,0c0,0.2,0,0.5,0,0.9
				c0,0.5,0,0.8,0,1h0.6c0.5,0,0.9,0,1,0c0.1,0,0.3,0,0.4-0.1c0-0.1,0.1-0.2,0.1-0.4c0-0.2,0.1-0.3,0.1-0.4l0,0h0.2l0,0
				c0,0.1,0,0.3-0.1,0.5c0,0.2,0,0.4,0,0.6l0,0c-0.4,0-1,0-1.7,0l-0.9,0c-0.2,0-0.4,0-0.7,0l0,0v-0.1l0,0c0.1-0.1,0.2-0.1,0.2-0.1
				c0,0,0-0.2,0-0.6c0-0.4,0-0.7,0-0.9v-1.2l0-0.8c0-0.2,0-0.3,0-0.4c0-0.1,0-0.2,0-0.2c0,0,0-0.1,0-0.1c0,0,0,0-0.1,0
				c0,0-0.1,0-0.2,0l-0.3,0l0,0V53z"/>
			<path class="st0" d="M87.1,55.4c0-0.3,0-0.6,0.1-0.9c0.1-0.3,0.3-0.6,0.5-0.8c0.2-0.2,0.5-0.4,0.8-0.6c0.3-0.1,0.7-0.2,1.1-0.2
				c0.8,0,1.4,0.2,1.8,0.6c0.5,0.4,0.7,1,0.7,1.7c0,0.5-0.1,1-0.3,1.4c-0.2,0.4-0.5,0.7-0.9,0.9c-0.4,0.2-0.9,0.3-1.4,0.3
				c-0.4,0-0.7-0.1-1-0.2c-0.3-0.1-0.6-0.3-0.8-0.5c-0.2-0.2-0.4-0.5-0.5-0.8C87.2,55.9,87.1,55.6,87.1,55.4z M87.8,55.1
				c0,0.3,0,0.6,0.1,0.9c0.1,0.3,0.2,0.6,0.4,0.8c0.2,0.2,0.4,0.4,0.6,0.5c0.2,0.1,0.5,0.2,0.8,0.2c0.3,0,0.7-0.1,0.9-0.2
				c0.3-0.2,0.5-0.4,0.6-0.7c0.1-0.3,0.2-0.7,0.2-1.1c0-0.5-0.1-0.9-0.2-1.2c-0.2-0.4-0.4-0.6-0.7-0.8c-0.3-0.2-0.6-0.2-1-0.2
				c-0.5,0-1,0.2-1.3,0.5C88,54,87.8,54.5,87.8,55.1z"/>
			<path class="st0" d="M94,55.4v0.7l0,0.7c0,0.2,0,0.4,0,0.5c0,0.1,0,0.1,0,0.2c0,0,0.1,0,0.1,0.1c0.1,0,0.2,0,0.4,0l0,0v0.2l0,0
				c-0.6,0-0.9,0-1,0c-0.1,0-0.4,0-1,0l0,0v-0.2l0,0c0.2,0,0.3,0,0.4,0c0.1,0,0.1,0,0.1-0.1c0,0,0-0.1,0.1-0.1c0-0.1,0-0.2,0-0.5
				l0-0.7v-1.6l0-0.7c0-0.3,0-0.4,0-0.5c0-0.1,0-0.1,0-0.1c0,0-0.1,0-0.1-0.1c-0.1,0-0.2,0-0.4,0l0,0V53l0,0c0.9,0,1.5,0,1.7,0
				c0.5,0,1.1,0,1.6,0l0,0c0,0.1-0.1,0.2-0.1,0.4c0,0.1,0,0.3,0,0.6l0,0h-0.2l0,0c0,0,0-0.1,0-0.3c0-0.1,0-0.2-0.1-0.3
				c-0.2-0.1-0.6-0.1-1-0.1c-0.2,0-0.4,0-0.6,0c0,0.2,0,0.6,0,1.3v0.6c0.3,0,0.5,0,0.6,0c0.2,0,0.4,0,0.5,0c0.1,0,0.2,0,0.2,0
				c0,0,0,0,0.1-0.1c0,0,0-0.1,0-0.2l0-0.2l0,0h0.2l0,0l0,0.7c0,0.1,0,0.2,0,0.4c0,0.2,0,0.3,0,0.4l0,0h-0.2l0,0l0-0.3
				c0-0.1,0-0.2,0-0.2c0-0.1,0-0.1-0.1-0.1c0,0-0.1,0-0.2,0c-0.1,0-0.3,0-0.6,0C94.3,55.4,94.1,55.4,94,55.4z"/>
			<path class="st0" d="M98.5,57.7L98.5,57.7l0-0.2l0,0c0.1,0,0.2,0,0.3,0c0.1,0,0.1,0,0.2-0.1c0,0,0-0.1,0-0.2c0-0.1,0-0.2,0-0.5
				c0-0.2,0-0.4,0-0.5v-2.7c0-0.1,0-0.2-0.1-0.3c0-0.1-0.1-0.1-0.2-0.1c-0.1,0-0.2,0-0.4,0l0,0V53l0,0c0.3,0,0.5,0,0.6,0
				c0.2,0,0.4,0,0.6,0l1.1,1.4l1.6,2c0.2,0.2,0.4,0.5,0.6,0.7v-2.6c0-0.1,0-0.3,0-0.5c0-0.3,0-0.4,0-0.5c0-0.1,0-0.1-0.1-0.1
				c0,0-0.1,0-0.2-0.1c-0.1,0-0.2,0-0.3,0l0,0V53l0,0c0.2,0,0.4,0,0.8,0c0.3,0,0.5,0,0.7,0l0,0v0.2l0,0c-0.1,0-0.3,0-0.3,0
				c-0.1,0-0.1,0-0.2,0.1c0,0,0,0.1,0,0.1c0,0.1,0,0.2,0,0.5c0,0.2,0,0.4,0,0.5V56l0,0.9c0,0.3,0,0.6,0,0.9c-0.1,0-0.3-0.1-0.6-0.1
				l-0.2-0.3l-0.7-0.9l-2.3-2.8v2.6c0,0.1,0,0.3,0,0.5c0,0.3,0,0.4,0,0.5c0,0.1,0,0.1,0,0.1c0,0,0.1,0,0.1,0.1c0.1,0,0.2,0,0.4,0
				l0,0v0.2l0,0c-0.1,0-0.3,0-0.6,0C99.1,57.7,98.8,57.7,98.5,57.7z"/>
			<path class="st0" d="M104.3,57.7L104.3,57.7l0-0.2l0,0c0.2,0,0.3,0,0.3,0c0,0,0.1,0,0.1-0.1c0,0,0.1-0.2,0.2-0.4l0.4-0.8l0.9-2.1
				c0.2-0.4,0.3-0.8,0.5-1.2h0.2l1.4,3.4l0.2,0.4c0.1,0.1,0.1,0.3,0.2,0.4c0.1,0.1,0.1,0.2,0.2,0.3c0,0,0.1,0,0.1,0.1
				c0,0,0.1,0,0.3,0l0,0v0.2l0,0c-0.2,0-0.4,0-0.6,0c-0.4,0-0.7,0-1.1,0l0,0v-0.2l0,0c0.2,0,0.4,0,0.5,0c0.1,0,0.1-0.1,0.1-0.1
				c0,0,0-0.1,0-0.2l-0.4-1h-1.9l-0.4,0.9c-0.1,0.2-0.1,0.3-0.1,0.3c0,0.1,0,0.1,0.1,0.1c0.1,0,0.2,0,0.5,0l0,0v0.2l0,0
				c-0.3,0-0.5,0-0.8,0C104.8,57.7,104.6,57.7,104.3,57.7z M105.8,55.8h1.7l-0.8-2L105.8,55.8z"/>
			<path class="st0" d="M113.2,52.9L113.2,52.9c0,0.2,0,0.6,0,1.1l0,0H113l0,0l0-0.3c0-0.2,0-0.3,0-0.3c0,0,0-0.1,0-0.1
				c0,0-0.1,0-0.2,0c-0.1,0-0.3,0-0.4,0h-0.6c0,0.5,0,0.8,0,0.9v2l0,0.7c0,0.3,0,0.4,0,0.5c0,0.1,0,0.1,0,0.1c0,0,0.1,0,0.1,0.1
				c0.1,0,0.2,0,0.4,0l0,0v0.2l0,0c-0.6,0-0.9,0-1,0c-0.1,0-0.4,0-1,0l0,0v-0.2l0,0c0.2,0,0.3,0,0.4,0c0.1,0,0.1,0,0.1-0.1
				c0,0,0-0.1,0.1-0.1c0-0.1,0-0.2,0-0.5l0-0.7v-2c0,0,0-0.3,0-0.9h-0.5c-0.2,0-0.4,0-0.5,0c-0.1,0-0.2,0-0.3,0.1c0,0,0,0.2-0.1,0.4
				l0,0.3l0,0h-0.2l0,0c0-0.5,0-0.9,0-1.1l0,0c0.4,0,1,0,1.9,0C112.1,53,112.8,53,113.2,52.9z"/>
			<path class="st0" d="M113.6,53L113.6,53c0.6,0,0.9,0,1,0c0.1,0,0.4,0,1,0l0,0v0.2l0,0c-0.2,0-0.3,0-0.4,0c-0.1,0-0.1,0-0.2,0.1
				c0,0-0.1,0.1-0.1,0.2c0,0.1,0,0.2,0,0.4l0,0.8v1.1c0,0.4,0,0.6,0,0.8c0,0.2,0,0.3,0.1,0.4c0,0.1,0.1,0.2,0.2,0.3
				c0.1,0.1,0.2,0.1,0.4,0.2c0.2,0.1,0.4,0.1,0.6,0.1c0.2,0,0.5,0,0.7-0.1c0.2-0.1,0.4-0.2,0.5-0.3c0.1-0.1,0.2-0.3,0.2-0.5
				c0-0.2,0.1-0.5,0.1-0.9v-1c0-0.2,0-0.4,0-0.7c0-0.3,0-0.5,0-0.5c0,0-0.1-0.1-0.1-0.1c-0.1,0-0.2,0-0.5,0l0,0V53l0,0
				c0.3,0,0.6,0,0.8,0c0.2,0,0.4,0,0.8,0l0,0v0.2l0,0c-0.2,0-0.3,0-0.4,0c-0.1,0-0.1,0-0.1,0.1c0,0,0,0.1-0.1,0.1c0,0.1,0,0.2,0,0.4
				l0,0.8v1c0,0.4,0,0.7,0,1c0,0.2-0.1,0.4-0.2,0.6c-0.1,0.2-0.2,0.3-0.4,0.4c-0.1,0.1-0.3,0.2-0.6,0.2c-0.2,0.1-0.5,0.1-0.7,0.1
				c-0.3,0-0.6,0-0.8-0.1c-0.2-0.1-0.4-0.2-0.6-0.3c-0.1-0.1-0.2-0.2-0.3-0.4c-0.1-0.1-0.1-0.3-0.1-0.4c0-0.2,0-0.4,0-0.8v-1.3
				l0-0.7c0-0.3,0-0.4,0-0.5c0-0.1,0-0.1,0-0.1c0,0-0.1,0-0.1-0.1c-0.1,0-0.2,0-0.4,0l0,0V53z"/>
			<path class="st0" d="M119.1,53L119.1,53c0.4,0,0.8,0,1,0c0.3,0,0.6,0,1,0c0.2,0,0.3,0,0.3,0c0.6,0,0.9,0.1,1.1,0.3
				c0.2,0.2,0.3,0.4,0.3,0.7c0,0.2,0,0.4-0.1,0.6c-0.1,0.2-0.2,0.3-0.4,0.5c-0.2,0.1-0.5,0.2-0.8,0.3c0.1,0.1,0.2,0.2,0.3,0.5
				l0.5,0.6c0.2,0.2,0.3,0.4,0.5,0.7c0.2,0.2,0.3,0.4,0.3,0.4c0.1,0,0.1,0,0.1,0.1c0,0,0.1,0,0.2,0l0,0v0.2l0,0c-0.1,0-0.2,0-0.4,0
				c-0.2,0-0.3,0-0.5,0c-0.2-0.2-0.4-0.5-0.7-1c-0.4-0.5-0.8-1-1.2-1.5l0-0.1c0.1,0,0.2,0,0.3,0c0.4,0,0.7-0.1,0.9-0.3
				c0.2-0.2,0.3-0.4,0.3-0.8c0-0.3-0.1-0.5-0.3-0.7c-0.2-0.2-0.5-0.2-0.8-0.2c-0.2,0-0.5,0-0.7,0.1c0,0-0.1,0.5-0.1,1.3v1.6l0,0.7
				c0,0.3,0,0.4,0,0.5c0,0.1,0,0.1,0,0.1c0,0,0.1,0,0.1,0.1c0.1,0,0.2,0,0.4,0l0,0v0.2l0,0c0,0-0.2,0-0.6,0c-0.2,0-0.3,0-0.4,0
				c-0.1,0-0.4,0-1,0l0,0v-0.2l0,0c0.2,0,0.3,0,0.4,0c0.1,0,0.1,0,0.1-0.1c0,0,0-0.1,0.1-0.1c0-0.1,0-0.2,0-0.5l0-0.7v-1.6l0-0.7
				c0-0.3,0-0.4,0-0.5c0-0.1,0-0.1,0-0.1c0,0-0.1,0-0.1-0.1c-0.1,0-0.2,0-0.4,0l0,0V53z"/>
			<path class="st0" d="M123.8,57.7L123.8,57.7l0-0.2l0,0c0.2,0,0.3,0,0.3,0c0,0,0.1,0,0.1-0.1c0,0,0.1-0.2,0.2-0.4l0.4-0.8l0.9-2.1
				c0.2-0.4,0.3-0.8,0.5-1.2h0.2l1.4,3.4l0.2,0.4c0.1,0.1,0.1,0.3,0.2,0.4c0.1,0.1,0.1,0.2,0.2,0.3c0,0,0.1,0,0.1,0.1
				c0,0,0.1,0,0.3,0l0,0v0.2l0,0c-0.2,0-0.4,0-0.6,0c-0.4,0-0.7,0-1.1,0l0,0v-0.2l0,0c0.2,0,0.4,0,0.5,0c0.1,0,0.1-0.1,0.1-0.1
				c0,0,0-0.1,0-0.2l-0.4-1h-1.9l-0.4,0.9c-0.1,0.2-0.1,0.3-0.1,0.3c0,0.1,0,0.1,0.1,0.1c0.1,0,0.2,0,0.5,0l0,0v0.2l0,0
				c-0.3,0-0.5,0-0.8,0C124.3,57.7,124.1,57.7,123.8,57.7z M125.3,55.8h1.7l-0.8-2L125.3,55.8z"/>
			<path class="st0" d="M129.3,53L129.3,53c0.6,0,0.9,0,1,0c0.1,0,0.4,0,1,0l0,0v0.2l0,0c-0.2,0-0.3,0-0.4,0c-0.1,0-0.1,0-0.2,0.1
				c0,0-0.1,0.1-0.1,0.2c0,0.1,0,0.2,0,0.4l0,0.8V56c0,0.4,0,0.6,0,0.8l0,0.6h0.7c0.5,0,0.9,0,1,0c0.1,0,0.3,0,0.4-0.1
				c0-0.1,0.1-0.2,0.1-0.4c0-0.2,0.1-0.3,0.1-0.3l0,0h0.2l0,0c0,0.1,0,0.3-0.1,0.5c0,0.3,0,0.5,0,0.6l0,0c-0.4,0-1,0-1.7,0l-1,0
				c-0.2,0-0.5,0-0.7,0l0,0v-0.1l0,0c0.1-0.1,0.2-0.1,0.2-0.1c0,0,0-0.2,0-0.4c0-0.3,0-0.6,0-1v-1.4l0-0.7c0-0.3,0-0.4,0-0.5
				c0-0.1,0-0.1,0-0.1c0,0-0.1,0-0.1-0.1c-0.1,0-0.2,0-0.4,0l0,0V53z"/>
			<path class="st0" d="M135.6,56.5L135.6,56.5l0.2,0l0,0c0,0.3,0,0.5,0,0.5c0,0.1,0.1,0.1,0.2,0.2c0.1,0.1,0.2,0.1,0.4,0.2
				c0.2,0,0.3,0.1,0.5,0.1c0.2,0,0.4,0,0.6-0.1c0.2-0.1,0.3-0.2,0.4-0.4c0.1-0.2,0.2-0.4,0.2-0.6c0-0.1,0-0.3-0.1-0.4
				c-0.1-0.1-0.1-0.2-0.2-0.3c-0.1-0.1-0.2-0.1-0.3-0.1c-0.1,0-0.3-0.1-0.5-0.1c-0.2,0-0.4-0.1-0.5-0.1c-0.1,0-0.3-0.1-0.4-0.1
				c-0.1-0.1-0.2-0.1-0.3-0.2c-0.1-0.1-0.2-0.2-0.2-0.3c-0.1-0.1-0.1-0.3-0.1-0.4c0-0.4,0.1-0.8,0.4-1c0.3-0.3,0.7-0.4,1.2-0.4
				c0.2,0,0.4,0,0.6,0.1c0.2,0,0.4,0.1,0.6,0.2l0,0c0,0.2-0.1,0.5-0.1,0.9l0,0h-0.2l0,0c0-0.3,0-0.4,0-0.5c0-0.1-0.1-0.2-0.3-0.3
				c-0.2-0.1-0.4-0.2-0.6-0.2c-0.2,0-0.4,0-0.5,0.1c-0.2,0.1-0.3,0.2-0.4,0.4c-0.1,0.2-0.1,0.3-0.1,0.5c0,0.1,0,0.2,0.1,0.3
				c0.1,0.1,0.1,0.2,0.2,0.2c0.1,0.1,0.2,0.1,0.3,0.1c0.1,0,0.3,0.1,0.6,0.1c0.4,0.1,0.7,0.1,0.9,0.2c0.2,0.1,0.3,0.2,0.4,0.4
				c0.1,0.2,0.2,0.4,0.2,0.6c0,0.5-0.2,0.9-0.6,1.2c-0.4,0.3-0.9,0.5-1.4,0.5c-0.5,0-0.9-0.1-1.2-0.2l0,0
				C135.5,57.4,135.6,57,135.6,56.5z"/>
			<path class="st0" d="M143.7,57.1l-0.1,0.3c-0.5,0.3-1,0.4-1.6,0.4c-0.8,0-1.5-0.2-2-0.7c-0.5-0.5-0.8-1.1-0.8-1.8
				c0-0.5,0.1-1,0.4-1.3c0.3-0.4,0.6-0.7,1-0.9c0.4-0.2,0.9-0.3,1.4-0.3c0.3,0,0.6,0,0.9,0.1c0.3,0.1,0.5,0.1,0.7,0.2l0,0
				c-0.1,0.1-0.1,0.4-0.1,0.9l0,0h-0.2l0,0l0-0.6c-0.2-0.1-0.4-0.2-0.6-0.3c-0.2-0.1-0.5-0.1-0.7-0.1c-0.4,0-0.7,0.1-1,0.2
				c-0.3,0.2-0.5,0.4-0.7,0.7c-0.2,0.3-0.2,0.7-0.2,1.1c0,0.4,0.1,0.8,0.3,1.2c0.2,0.3,0.5,0.6,0.8,0.8c0.3,0.2,0.7,0.3,1.2,0.3
				c0.2,0,0.4,0,0.6-0.1c0.2,0,0.3-0.1,0.5-0.1C143.4,57.2,143.5,57.1,143.7,57.1L143.7,57.1z"/>
			<path class="st0" d="M144.2,52.9l0.4,0c0.3,0,0.5,0,0.5,0c0.1,0,0.4,0,1,0l0,0v0.2l0,0c-0.2,0-0.3,0-0.4,0c-0.1,0-0.1,0-0.2,0.1
				c0,0-0.1,0.1-0.1,0.2c0,0.1,0,0.2,0,0.4l0,0.8v1.6l0,0.7c0,0.3,0,0.4,0,0.5c0,0.1,0,0.1,0,0.1c0,0,0.1,0,0.1,0.1
				c0.1,0,0.2,0,0.4,0l0,0v0.2l0,0c0,0-0.2,0-0.6,0c-0.2,0-0.3,0-0.4,0c-0.1,0-0.4,0-1,0l0,0v-0.2l0,0c0.2,0,0.3,0,0.4,0
				c0.1,0,0.1,0,0.1-0.1c0,0,0-0.1,0.1-0.1c0-0.1,0-0.2,0-0.5l0-0.7v-1.6l0-0.7c0-0.3,0-0.4,0-0.5c0-0.1,0-0.1,0-0.1
				c0,0-0.1,0-0.1-0.1c-0.1,0-0.2,0-0.4,0l0,0L144.2,52.9L144.2,52.9z"/>
			<path class="st0" d="M146.7,53L146.7,53c0.8,0,1.3,0,1.5,0c0.7,0,1.4,0,2,0l0,0c-0.1,0.2-0.1,0.6-0.1,1l0,0h-0.2l0,0
				c0,0,0,0,0-0.1c0-0.2,0-0.4,0-0.5c-0.1-0.1-0.3-0.1-0.6-0.1c-0.2,0-0.4,0-0.6,0c-0.2,0-0.4,0-0.7,0l0,0.5l0,0.6l0,0.7
				c0.2,0,0.5,0,0.7,0c0.2,0,0.4,0,0.5,0c0.1,0,0.2,0,0.2,0c0,0,0,0,0.1-0.1c0,0,0-0.1,0-0.2l0-0.2l0,0h0.2l0,0c0,0.2,0,0.5,0,0.7
				l0,0.8l0,0h-0.2l0,0l0-0.2c0-0.2,0-0.2,0-0.3c0,0,0-0.1-0.1-0.1c0,0-0.1,0-0.2-0.1c-0.1,0-0.3,0-0.6,0c-0.1,0-0.3,0-0.6,0
				c0,0.2,0,0.5,0,0.9c0,0.5,0,0.8,0,1h0.6c0.5,0,0.9,0,1,0c0.1,0,0.3,0,0.4-0.1c0-0.1,0.1-0.2,0.1-0.4c0-0.2,0.1-0.3,0.1-0.4l0,0
				h0.2l0,0c0,0.1,0,0.3-0.1,0.5c0,0.2,0,0.4,0,0.6l0,0c-0.4,0-1,0-1.7,0l-0.9,0c-0.2,0-0.4,0-0.7,0l0,0v-0.1l0,0
				c0.1-0.1,0.2-0.1,0.2-0.1c0,0,0-0.2,0-0.6c0-0.4,0-0.7,0-0.9v-1.2l0-0.8c0-0.2,0-0.3,0-0.4c0-0.1,0-0.2,0-0.2c0,0,0-0.1,0-0.1
				c0,0,0,0-0.1,0c0,0-0.1,0-0.2,0l-0.3,0l0,0V53z"/>
			<path class="st0" d="M151,57.7L151,57.7l0-0.2l0,0c0.1,0,0.2,0,0.3,0c0.1,0,0.1,0,0.2-0.1c0,0,0-0.1,0-0.2c0-0.1,0-0.2,0-0.5
				c0-0.2,0-0.4,0-0.5v-2.7c0-0.1,0-0.2-0.1-0.3c0-0.1-0.1-0.1-0.2-0.1c-0.1,0-0.2,0-0.4,0l0,0V53l0,0c0.3,0,0.5,0,0.6,0
				c0.2,0,0.4,0,0.6,0l1.1,1.4l1.6,2c0.2,0.2,0.4,0.5,0.6,0.7v-2.6c0-0.1,0-0.3,0-0.5c0-0.3,0-0.4,0-0.5c0-0.1,0-0.1-0.1-0.1
				c0,0-0.1,0-0.2-0.1c-0.1,0-0.2,0-0.3,0l0,0V53l0,0c0.2,0,0.4,0,0.8,0c0.3,0,0.5,0,0.7,0l0,0v0.2l0,0c-0.1,0-0.3,0-0.3,0
				c-0.1,0-0.1,0-0.2,0.1c0,0,0,0.1,0,0.1s0,0.2,0,0.5c0,0.2,0,0.4,0,0.5V56l0,0.9c0,0.3,0,0.6,0,0.9c-0.1,0-0.3-0.1-0.6-0.1
				l-0.2-0.3l-0.7-0.9l-2.3-2.8v2.6c0,0.1,0,0.3,0,0.5c0,0.3,0,0.4,0,0.5c0,0.1,0,0.1,0,0.1c0,0,0.1,0,0.1,0.1c0.1,0,0.2,0,0.4,0
				l0,0v0.2l0,0c-0.1,0-0.3,0-0.6,0C151.6,57.7,151.3,57.7,151,57.7z"/>
			<path class="st0" d="M161.3,57.1l-0.1,0.3c-0.5,0.3-1,0.4-1.6,0.4c-0.8,0-1.5-0.2-2-0.7c-0.5-0.5-0.8-1.1-0.8-1.8
				c0-0.5,0.1-1,0.4-1.3c0.3-0.4,0.6-0.7,1-0.9c0.4-0.2,0.9-0.3,1.4-0.3c0.3,0,0.6,0,0.9,0.1c0.3,0.1,0.5,0.1,0.7,0.2l0,0
				c-0.1,0.1-0.1,0.4-0.1,0.9l0,0H161l0,0l0-0.6c-0.2-0.1-0.4-0.2-0.6-0.3c-0.2-0.1-0.5-0.1-0.7-0.1c-0.4,0-0.7,0.1-1,0.2
				c-0.3,0.2-0.5,0.4-0.7,0.7c-0.2,0.3-0.2,0.7-0.2,1.1c0,0.4,0.1,0.8,0.3,1.2c0.2,0.3,0.5,0.6,0.8,0.8c0.3,0.2,0.7,0.3,1.2,0.3
				c0.2,0,0.4,0,0.6-0.1c0.2,0,0.3-0.1,0.5-0.1C161,57.2,161.2,57.1,161.3,57.1L161.3,57.1z"/>
			<path class="st0" d="M161.9,53L161.9,53c0.8,0,1.3,0,1.5,0c0.7,0,1.4,0,2,0l0,0c-0.1,0.2-0.1,0.6-0.1,1l0,0h-0.2l0,0
				c0,0,0,0,0-0.1c0-0.2,0-0.4,0-0.5c-0.1-0.1-0.3-0.1-0.6-0.1c-0.2,0-0.4,0-0.6,0c-0.2,0-0.4,0-0.7,0l0,0.5l0,0.6l0,0.7
				c0.2,0,0.5,0,0.7,0c0.2,0,0.4,0,0.5,0c0.1,0,0.2,0,0.2,0c0,0,0,0,0.1-0.1c0,0,0-0.1,0-0.2l0-0.2l0,0h0.2l0,0c0,0.2,0,0.5,0,0.7
				l0,0.8l0,0h-0.2l0,0l0-0.2c0-0.2,0-0.2,0-0.3c0,0,0-0.1-0.1-0.1c0,0-0.1,0-0.2-0.1c-0.1,0-0.3,0-0.6,0c-0.1,0-0.3,0-0.6,0
				c0,0.2,0,0.5,0,0.9c0,0.5,0,0.8,0,1h0.6c0.5,0,0.9,0,1,0c0.1,0,0.3,0,0.4-0.1c0-0.1,0.1-0.2,0.1-0.4c0-0.2,0.1-0.3,0.1-0.4l0,0
				h0.2l0,0c0,0.1,0,0.3-0.1,0.5c0,0.2,0,0.4,0,0.6l0,0c-0.4,0-1,0-1.7,0l-0.9,0c-0.2,0-0.4,0-0.7,0l0,0v-0.1l0,0
				c0.1-0.1,0.2-0.1,0.2-0.1c0,0,0-0.2,0-0.6c0-0.4,0-0.7,0-0.9v-1.2l0-0.8c0-0.2,0-0.3,0-0.4c0-0.1,0-0.2,0-0.2c0,0,0-0.1,0-0.1
				c0,0,0,0-0.1,0c0,0-0.1,0-0.2,0l-0.3,0l0,0V53z"/>
			<path class="st0" d="M166.3,56.5L166.3,56.5l0.2,0l0,0c0,0.3,0,0.5,0,0.5c0,0.1,0.1,0.1,0.2,0.2c0.1,0.1,0.2,0.1,0.4,0.2
				c0.2,0,0.3,0.1,0.5,0.1c0.2,0,0.4,0,0.6-0.1c0.2-0.1,0.3-0.2,0.4-0.4c0.1-0.2,0.2-0.4,0.2-0.6c0-0.1,0-0.3-0.1-0.4
				c-0.1-0.1-0.1-0.2-0.2-0.3c-0.1-0.1-0.2-0.1-0.3-0.1c-0.1,0-0.3-0.1-0.5-0.1c-0.2,0-0.4-0.1-0.5-0.1c-0.1,0-0.3-0.1-0.4-0.1
				c-0.1-0.1-0.2-0.1-0.3-0.2c-0.1-0.1-0.2-0.2-0.2-0.3c-0.1-0.1-0.1-0.3-0.1-0.4c0-0.4,0.1-0.8,0.4-1c0.3-0.3,0.7-0.4,1.2-0.4
				c0.2,0,0.4,0,0.6,0.1c0.2,0,0.4,0.1,0.6,0.2l0,0c0,0.2-0.1,0.5-0.1,0.9l0,0h-0.2l0,0c0-0.3,0-0.4,0-0.5c0-0.1-0.1-0.2-0.3-0.3
				c-0.2-0.1-0.4-0.2-0.6-0.2c-0.2,0-0.4,0-0.5,0.1c-0.2,0.1-0.3,0.2-0.4,0.4c-0.1,0.2-0.1,0.3-0.1,0.5c0,0.1,0,0.2,0.1,0.3
				c0.1,0.1,0.1,0.2,0.2,0.2c0.1,0.1,0.2,0.1,0.3,0.1c0.1,0,0.3,0.1,0.6,0.1c0.4,0.1,0.7,0.1,0.9,0.2c0.2,0.1,0.3,0.2,0.4,0.4
				c0.1,0.2,0.2,0.4,0.2,0.6c0,0.5-0.2,0.9-0.6,1.2c-0.4,0.3-0.9,0.5-1.4,0.5c-0.5,0-0.9-0.1-1.2-0.2l0,0
				C166.2,57.4,166.2,57,166.3,56.5z"/>
			<path class="st0" d="M34.9,62.7L34.9,62.7l0-0.2l0,0c0.4,0,0.7,0,0.9,0c0.1,0,0.4,0,0.9,0c0.2,0,0.3,0,0.4,0c0.3,0,0.5,0,0.7,0.1
				c0.2,0.1,0.3,0.2,0.4,0.3c0.1,0.2,0.2,0.3,0.2,0.5c0,0.2-0.1,0.5-0.3,0.7c-0.2,0.2-0.5,0.4-0.9,0.5c0.2,0,0.4,0.1,0.6,0.1
				c0.2,0,0.3,0.1,0.4,0.2c0.1,0.1,0.2,0.2,0.3,0.3c0.1,0.1,0.1,0.3,0.1,0.5c0,0.1,0,0.3-0.1,0.4c0,0.1-0.1,0.3-0.2,0.4
				c-0.1,0.1-0.3,0.3-0.4,0.4c-0.2,0.1-0.3,0.2-0.5,0.2c-0.2,0-0.4,0.1-0.7,0.1c-0.1,0-0.2,0-0.5,0c-0.3,0-0.5,0-0.5,0
				c-0.2,0-0.3,0-0.6,0l0,0v-0.1l0,0c0.1-0.1,0.2-0.1,0.2-0.1c0,0,0-0.2,0-0.6c0-0.4,0-0.7,0-0.9v-1.2l0-0.8c0-0.2,0-0.3,0-0.4
				c0-0.1,0-0.2,0-0.2c0,0,0-0.1,0-0.1c0,0,0,0-0.1,0c0,0-0.1,0-0.2,0L34.9,62.7z M36.1,64.5c0.1,0,0.2,0,0.4,0c0.5,0,0.8-0.1,1-0.2
				c0.2-0.2,0.3-0.4,0.3-0.7c0-0.2,0-0.3-0.1-0.4c-0.1-0.1-0.2-0.2-0.3-0.3c-0.1-0.1-0.4-0.1-0.6-0.1c-0.2,0-0.4,0-0.5,0.1
				c0,0.2,0,0.6,0,1.1V64.5z M36.1,66.9c0.2,0,0.3,0.1,0.5,0.1c0.3,0,0.6-0.1,0.8-0.2c0.2-0.1,0.3-0.2,0.4-0.4
				c0.1-0.2,0.1-0.4,0.1-0.6c0-0.3-0.1-0.6-0.3-0.8c-0.2-0.2-0.6-0.3-1.2-0.3c-0.1,0-0.2,0-0.4,0v1.1L36.1,66.9z"/>
			<path class="st0" d="M39.4,62.5L39.4,62.5c0.8,0,1.3,0,1.5,0c0.7,0,1.4,0,2,0l0,0c-0.1,0.2-0.1,0.6-0.1,1l0,0h-0.2l0,0
				c0,0,0,0,0-0.1c0-0.2,0-0.4,0-0.5c-0.1-0.1-0.3-0.1-0.6-0.1c-0.2,0-0.4,0-0.6,0c-0.2,0-0.4,0-0.7,0l0,0.5l0,0.6l0,0.7
				c0.2,0,0.5,0,0.7,0c0.2,0,0.4,0,0.5,0c0.1,0,0.2,0,0.2,0c0,0,0,0,0.1-0.1c0,0,0-0.1,0-0.2l0-0.2l0,0h0.2l0,0c0,0.2,0,0.5,0,0.7
				l0,0.8l0,0h-0.2l0,0l0-0.2c0-0.2,0-0.2,0-0.3c0,0,0-0.1-0.1-0.1c0,0-0.1,0-0.2-0.1c-0.1,0-0.3,0-0.6,0c-0.1,0-0.3,0-0.6,0
				c0,0.2,0,0.5,0,0.9c0,0.5,0,0.8,0,1h0.6c0.5,0,0.9,0,1,0s0.3,0,0.4-0.1c0-0.1,0.1-0.2,0.1-0.4c0-0.2,0.1-0.3,0.1-0.4l0,0H43l0,0
				c0,0.1,0,0.3-0.1,0.5c0,0.2,0,0.4,0,0.6l0,0c-0.4,0-1,0-1.7,0l-0.9,0c-0.2,0-0.4,0-0.7,0l0,0v-0.1l0,0c0.1-0.1,0.2-0.1,0.2-0.1
				c0,0,0-0.2,0-0.6c0-0.4,0-0.7,0-0.9v-1.2l0-0.8c0-0.2,0-0.3,0-0.4c0-0.1,0-0.2,0-0.2c0,0,0-0.1,0-0.1c0,0,0,0-0.1,0
				c0,0-0.1,0-0.2,0l-0.3,0l0,0V62.5z"/>
			<path class="st0" d="M43.6,62.5l0.4,0c0.3,0,0.5,0,0.5,0c0.1,0,0.4,0,1,0l0,0v0.2l0,0c-0.2,0-0.3,0-0.4,0c-0.1,0-0.1,0-0.2,0.1
				c0,0-0.1,0.1-0.1,0.2c0,0.1,0,0.2,0,0.4l0,0.8v1.6l0,0.7c0,0.3,0,0.4,0,0.5c0,0.1,0,0.1,0,0.1c0,0,0.1,0,0.1,0.1
				c0.1,0,0.2,0,0.4,0l0,0v0.2l0,0c0,0-0.2,0-0.6,0c-0.2,0-0.3,0-0.4,0c-0.1,0-0.4,0-1,0l0,0v-0.2l0,0c0.2,0,0.3,0,0.4,0
				c0.1,0,0.1,0,0.1-0.1c0,0,0-0.1,0.1-0.1s0-0.2,0-0.5l0-0.7v-1.6l0-0.7c0-0.3,0-0.4,0-0.5c0-0.1,0-0.1,0-0.1c0,0-0.1,0-0.1-0.1
				c-0.1,0-0.2,0-0.4,0l0,0L43.6,62.5L43.6,62.5z"/>
			<path class="st0" d="M48,62.5v0.2l0,0c-0.2,0-0.3,0-0.4,0c-0.1,0-0.1,0-0.2,0.1c0,0-0.1,0.1-0.1,0.2c0,0.1,0,0.2,0,0.4l0,0.8v2.4
				c0,0.4,0,0.6-0.1,0.9c-0.1,0.2-0.2,0.4-0.3,0.6c-0.2,0.2-0.3,0.3-0.5,0.4c-0.2,0.1-0.3,0.1-0.5,0.1c0,0-0.1,0-0.1,0
				c0-0.1,0-0.2,0-0.3c0-0.1,0-0.1,0-0.2l0.1,0c0.1,0.1,0.2,0.1,0.4,0.1c0.1,0,0.2,0,0.3-0.1c0.1,0,0.1-0.1,0.1-0.2
				c0-0.1,0-0.2,0.1-0.4c0-0.2,0-0.3,0-0.5v-2.9l0-0.7c0-0.3,0-0.4,0-0.5c0-0.1,0-0.1,0-0.1c0,0-0.1,0-0.1-0.1c-0.1,0-0.2,0-0.4,0
				l0,0v-0.2l0,0c0.6,0,0.9,0,1,0C47.1,62.5,47.4,62.5,48,62.5L48,62.5z"/>
			<path class="st0" d="M48.5,62.5l0.4,0c0.3,0,0.5,0,0.5,0c0.1,0,0.4,0,1,0l0,0v0.2l0,0c-0.2,0-0.3,0-0.4,0c-0.1,0-0.1,0-0.2,0.1
				c0,0-0.1,0.1-0.1,0.2c0,0.1,0,0.2,0,0.4l0,0.8v1.6l0,0.7c0,0.3,0,0.4,0,0.5c0,0.1,0,0.1,0,0.1c0,0,0.1,0,0.1,0.1
				c0.1,0,0.2,0,0.4,0l0,0v0.2l0,0c0,0-0.2,0-0.6,0c-0.2,0-0.3,0-0.4,0c-0.1,0-0.4,0-1,0l0,0v-0.2l0,0c0.2,0,0.3,0,0.4,0
				c0.1,0,0.1,0,0.1-0.1c0,0,0-0.1,0.1-0.1c0-0.1,0-0.2,0-0.5l0-0.7v-1.6l0-0.7c0-0.3,0-0.4,0-0.5c0-0.1,0-0.1,0-0.1
				c0,0-0.1,0-0.1-0.1c-0.1,0-0.2,0-0.4,0l0,0L48.5,62.5L48.5,62.5z"/>
			<path class="st0" d="M51,67.3L51,67.3l0-0.2l0,0c0.1,0,0.2,0,0.3,0c0.1,0,0.1,0,0.2-0.1c0,0,0-0.1,0-0.2c0-0.1,0-0.2,0-0.5
				c0-0.2,0-0.4,0-0.5v-2.7c0-0.1,0-0.2-0.1-0.3c0-0.1-0.1-0.1-0.2-0.1c-0.1,0-0.2,0-0.4,0l0,0v-0.2l0,0c0.3,0,0.5,0,0.6,0
				c0.2,0,0.4,0,0.6,0l1.1,1.4l1.6,2c0.2,0.2,0.4,0.5,0.6,0.7V64c0-0.1,0-0.3,0-0.5c0-0.3,0-0.4,0-0.5c0-0.1,0-0.1-0.1-0.1
				c0,0-0.1,0-0.2-0.1c-0.1,0-0.2,0-0.3,0l0,0v-0.2l0,0c0.2,0,0.4,0,0.8,0c0.3,0,0.5,0,0.7,0l0,0v0.2l0,0c-0.1,0-0.3,0-0.3,0
				c-0.1,0-0.1,0-0.2,0.1c0,0,0,0.1,0,0.1s0,0.2,0,0.5c0,0.2,0,0.4,0,0.5v1.6l0,0.9c0,0.3,0,0.6,0,0.9c-0.1,0-0.3-0.1-0.6-0.1
				L54.8,67l-0.7-0.9l-2.3-2.8v2.6c0,0.1,0,0.3,0,0.5c0,0.3,0,0.4,0,0.5c0,0.1,0,0.1,0,0.1c0,0,0.1,0,0.1,0.1c0.1,0,0.2,0,0.4,0l0,0
				v0.2l0,0c-0.1,0-0.3,0-0.6,0C51.5,67.2,51.2,67.2,51,67.3z"/>
			<path class="st0" d="M61.6,65.4v0.1l0,0l-0.2,0.1c0,0-0.1,0-0.1,0.1s0,0.1,0,0.2c0,0.1,0,0.3,0,0.4c0,0.2,0,0.4,0,0.6l0,0
				c-0.6,0.2-1.2,0.4-1.9,0.4c-0.5,0-0.9-0.1-1.3-0.3c-0.4-0.2-0.7-0.5-1-0.8c-0.2-0.4-0.4-0.8-0.4-1.3c0-0.8,0.3-1.4,0.8-1.8
				c0.5-0.5,1.2-0.7,2.1-0.7c0.6,0,1.2,0.1,1.7,0.3l0,0c0,0.1-0.1,0.5-0.1,0.9l0,0h-0.2l0,0l0-0.4c0-0.1,0-0.2,0-0.2
				c0,0,0,0-0.1-0.1c0,0-0.1-0.1-0.3-0.2c-0.2-0.1-0.3-0.1-0.5-0.2c-0.2,0-0.3,0-0.5,0c-0.4,0-0.8,0.1-1.1,0.3
				c-0.3,0.2-0.6,0.4-0.7,0.7c-0.2,0.3-0.2,0.7-0.2,1.1c0,0.4,0.1,0.8,0.3,1.1c0.2,0.4,0.4,0.6,0.7,0.8c0.3,0.2,0.7,0.3,1.1,0.3
				c0.2,0,0.4,0,0.6-0.1c0.2,0,0.4-0.1,0.5-0.2c0-0.1,0-0.2,0-0.4V66c0-0.2,0-0.3,0-0.3c0,0-0.1-0.1-0.2-0.1c-0.1,0-0.3,0-0.6,0l0,0
				v-0.1l0,0l0.2,0c0.4,0,0.6,0,0.9,0C61.2,65.4,61.3,65.4,61.6,65.4L61.6,65.4z"/>
			<path class="st0" d="M64,67.3L64,67.3l0-0.2l0,0c0.1,0,0.2,0,0.3,0c0.1,0,0.1,0,0.2-0.1c0,0,0-0.1,0-0.2c0-0.1,0-0.2,0-0.5
				c0-0.2,0-0.4,0-0.5v-2.7c0-0.1,0-0.2-0.1-0.3c0-0.1-0.1-0.1-0.2-0.1c-0.1,0-0.2,0-0.4,0l0,0v-0.2l0,0c0.3,0,0.5,0,0.6,0
				c0.2,0,0.4,0,0.6,0l1.1,1.4l1.6,2c0.2,0.2,0.4,0.5,0.6,0.7V64c0-0.1,0-0.3,0-0.5c0-0.3,0-0.4,0-0.5c0-0.1,0-0.1-0.1-0.1
				c0,0-0.1,0-0.2-0.1c-0.1,0-0.2,0-0.3,0l0,0v-0.2l0,0c0.2,0,0.4,0,0.8,0c0.3,0,0.5,0,0.7,0l0,0v0.2l0,0c-0.1,0-0.3,0-0.3,0
				c-0.1,0-0.1,0-0.2,0.1c0,0,0,0.1,0,0.1c0,0.1,0,0.2,0,0.5c0,0.2,0,0.4,0,0.5v1.6l0,0.9c0,0.3,0,0.6,0,0.9c-0.1,0-0.3-0.1-0.6-0.1
				L67.9,67l-0.7-0.9l-2.3-2.8v2.6c0,0.1,0,0.3,0,0.5c0,0.3,0,0.4,0,0.5c0,0.1,0,0.1,0,0.1c0,0,0.1,0,0.1,0.1c0.1,0,0.2,0,0.4,0l0,0
				v0.2l0,0c-0.1,0-0.3,0-0.6,0C64.6,67.2,64.3,67.2,64,67.3z"/>
			<path class="st0" d="M69.8,64.9c0-0.3,0-0.6,0.1-0.9c0.1-0.3,0.3-0.6,0.5-0.8c0.2-0.2,0.5-0.4,0.8-0.6c0.3-0.1,0.7-0.2,1.1-0.2
				c0.8,0,1.4,0.2,1.8,0.6c0.5,0.4,0.7,1,0.7,1.7c0,0.5-0.1,1-0.3,1.4c-0.2,0.4-0.5,0.7-0.9,0.9c-0.4,0.2-0.9,0.3-1.4,0.3
				c-0.4,0-0.7-0.1-1-0.2c-0.3-0.1-0.6-0.3-0.8-0.5c-0.2-0.2-0.4-0.5-0.5-0.8C69.9,65.5,69.8,65.2,69.8,64.9z M70.5,64.7
				c0,0.3,0,0.6,0.1,0.9c0.1,0.3,0.2,0.6,0.4,0.8c0.2,0.2,0.4,0.4,0.6,0.5c0.2,0.1,0.5,0.2,0.8,0.2c0.3,0,0.7-0.1,0.9-0.2
				c0.3-0.2,0.5-0.4,0.6-0.7c0.1-0.3,0.2-0.7,0.2-1.1c0-0.5-0.1-0.9-0.2-1.2c-0.2-0.4-0.4-0.6-0.7-0.8c-0.3-0.2-0.6-0.2-1-0.2
				c-0.5,0-1,0.2-1.3,0.5C70.7,63.5,70.5,64,70.5,64.7z"/>
			<path class="st0" d="M75.3,62.5L75.3,62.5c0.4,0,0.8,0,1,0c0.3,0,0.6,0,1,0c0.2,0,0.3,0,0.3,0c0.6,0,0.9,0.1,1.1,0.3
				c0.2,0.2,0.3,0.4,0.3,0.7c0,0.2,0,0.4-0.1,0.6c-0.1,0.2-0.2,0.3-0.4,0.5c-0.2,0.1-0.5,0.2-0.8,0.3c0.1,0.1,0.2,0.2,0.3,0.5
				l0.5,0.6c0.2,0.2,0.3,0.4,0.5,0.7c0.2,0.2,0.3,0.4,0.3,0.4c0.1,0,0.1,0,0.1,0.1c0,0,0.1,0,0.2,0l0,0v0.2l0,0c-0.1,0-0.2,0-0.4,0
				c-0.2,0-0.3,0-0.5,0c-0.2-0.2-0.4-0.5-0.7-1c-0.4-0.5-0.8-1-1.2-1.5l0-0.1c0.1,0,0.2,0,0.3,0c0.4,0,0.7-0.1,0.9-0.3
				c0.2-0.2,0.3-0.4,0.3-0.8c0-0.3-0.1-0.5-0.3-0.7c-0.2-0.2-0.5-0.2-0.8-0.2c-0.2,0-0.5,0-0.7,0.1c0,0-0.1,0.5-0.1,1.3v1.6l0,0.7
				c0,0.3,0,0.4,0,0.5c0,0.1,0,0.1,0,0.1c0,0,0.1,0,0.1,0.1c0.1,0,0.2,0,0.4,0l0,0v0.2l0,0c0,0-0.2,0-0.6,0c-0.2,0-0.3,0-0.4,0
				c-0.1,0-0.4,0-1,0l0,0v-0.2l0,0c0.2,0,0.3,0,0.4,0c0.1,0,0.1,0,0.1-0.1c0,0,0-0.1,0.1-0.1c0-0.1,0-0.2,0-0.5l0-0.7v-1.6l0-0.7
				c0-0.3,0-0.4,0-0.5c0-0.1,0-0.1,0-0.1c0,0-0.1,0-0.1-0.1c-0.1,0-0.2,0-0.4,0l0,0V62.5z"/>
			<path class="st0" d="M86.2,62.5L86.2,62.5l0,0.2l0,0c-0.2,0-0.4,0-0.5,0c-0.1,0-0.1,0-0.1,0.1c0,0,0,0.1,0,0.2c0,0.1,0,0.5,0,1
				v1.5c0,0.2,0,0.5,0,0.8c0,0.3,0,0.4,0,0.5c0,0,0.1,0.1,0.1,0.1c0.1,0,0.2,0,0.5,0l0,0v0.2l0,0c-0.4,0-0.7,0-1,0
				c-0.2,0-0.5,0-0.9,0l0,0v-0.2l0,0c0.2,0,0.4,0,0.5,0c0.1,0,0.1,0,0.1-0.1c0,0,0-0.1,0-0.2c0-0.1,0-0.5,0-1v-2.5l-1.2,2.4
				c-0.3,0.6-0.5,1.2-0.8,1.7h-0.1c-0.1-0.3-0.2-0.5-0.3-0.7L81,63.3v2.3c0,0.2,0,0.5,0,0.8c0,0.3,0,0.4,0,0.5c0,0,0.1,0.1,0.1,0.1
				c0.1,0,0.2,0,0.5,0l0,0v0.2l0,0l-0.2,0c-0.2,0-0.4,0-0.6,0c-0.1,0-0.3,0-0.8,0l0,0v-0.2l0,0c0.2,0,0.4,0,0.5,0
				c0.1,0,0.1,0,0.1-0.1c0,0,0-0.1,0-0.2c0-0.1,0-0.5,0-1v-1.5c0-0.2,0-0.5,0-0.7c0-0.3,0-0.5,0-0.5c0,0-0.1-0.1-0.1-0.1
				c-0.1,0-0.2,0-0.5,0l0,0v-0.2l0,0c0.2,0,0.4,0,0.6,0c0.2,0,0.5,0,0.6,0c0.2,0.4,0.4,0.8,0.5,1.2l1.3,2.6l1.1-2.4
				c0.3-0.6,0.5-1.1,0.6-1.4c0.2,0,0.4,0,0.6,0C85.7,62.5,86,62.5,86.2,62.5z"/>
			<path class="st0" d="M86.7,67.3L86.7,67.3l0-0.2l0,0c0.2,0,0.3,0,0.3,0c0,0,0.1,0,0.1-0.1c0,0,0.1-0.2,0.2-0.4l0.4-0.8l0.9-2.1
				c0.2-0.4,0.3-0.8,0.5-1.2h0.2l1.4,3.4l0.2,0.4c0.1,0.1,0.1,0.3,0.2,0.4c0.1,0.1,0.1,0.2,0.2,0.3c0,0,0.1,0,0.1,0.1
				c0,0,0.1,0,0.3,0l0,0v0.2l0,0c-0.2,0-0.4,0-0.6,0c-0.4,0-0.7,0-1.1,0l0,0v-0.2l0,0c0.2,0,0.4,0,0.5,0c0.1,0,0.1-0.1,0.1-0.1
				c0,0,0-0.1,0-0.2l-0.4-1h-1.9l-0.4,0.9c-0.1,0.2-0.1,0.3-0.1,0.3c0,0.1,0,0.1,0.1,0.1c0.1,0,0.2,0,0.5,0l0,0v0.2l0,0
				c-0.3,0-0.5,0-0.8,0C87.2,67.2,86.9,67.2,86.7,67.3z M88.2,65.4h1.7l-0.8-2L88.2,65.4z"/>
			<path class="st0" d="M92.1,62.5L92.1,62.5c0.6,0,0.9,0,1,0c0.1,0,0.4,0,1,0l0,0v0.2l0,0c-0.2,0-0.3,0-0.4,0c-0.1,0-0.1,0-0.2,0.1
				c0,0-0.1,0.1-0.1,0.2c0,0.1,0,0.2,0,0.4l0,0.8v1.5c0,0.4,0,0.6,0,0.8l0,0.6h0.7c0.5,0,0.9,0,1,0c0.1,0,0.3,0,0.4-0.1
				c0-0.1,0.1-0.2,0.1-0.4c0-0.2,0.1-0.3,0.1-0.3l0,0h0.2l0,0c0,0.1,0,0.3-0.1,0.5c0,0.3,0,0.5,0,0.6l0,0c-0.4,0-1,0-1.7,0l-1,0
				c-0.2,0-0.5,0-0.7,0l0,0v-0.1l0,0c0.1-0.1,0.2-0.1,0.2-0.1c0,0,0-0.2,0-0.4c0-0.3,0-0.6,0-1v-1.4l0-0.7c0-0.3,0-0.4,0-0.5
				c0-0.1,0-0.1,0-0.1c0,0-0.1,0-0.1-0.1c-0.1,0-0.2,0-0.4,0l0,0V62.5z"/>
			<path class="st0" d="M98.3,62.5L98.3,62.5c0.6,0,0.9,0,1,0c0.1,0,0.4,0,1,0l0,0v0.2l0,0c-0.2,0-0.3,0-0.4,0c-0.1,0-0.1,0-0.2,0.1
				c0,0-0.1,0.1-0.1,0.2c0,0.1,0,0.2,0,0.4l0,0.8v1.1c0,0.4,0,0.6,0,0.8c0,0.2,0,0.3,0.1,0.4c0,0.1,0.1,0.2,0.2,0.3
				c0.1,0.1,0.2,0.1,0.4,0.2c0.2,0.1,0.4,0.1,0.6,0.1c0.2,0,0.5,0,0.7-0.1c0.2-0.1,0.4-0.2,0.5-0.3c0.1-0.1,0.2-0.3,0.2-0.5
				c0-0.2,0.1-0.5,0.1-0.9v-1c0-0.2,0-0.4,0-0.7c0-0.3,0-0.5,0-0.5c0,0-0.1-0.1-0.1-0.1c-0.1,0-0.2,0-0.5,0l0,0v-0.2l0,0
				c0.3,0,0.6,0,0.8,0c0.2,0,0.4,0,0.8,0l0,0v0.2l0,0c-0.2,0-0.3,0-0.4,0c-0.1,0-0.1,0-0.1,0.1c0,0,0,0.1-0.1,0.1c0,0.1,0,0.2,0,0.4
				l0,0.8v1c0,0.4,0,0.7,0,1c0,0.2-0.1,0.4-0.2,0.6c-0.1,0.2-0.2,0.3-0.4,0.4c-0.1,0.1-0.3,0.2-0.6,0.2c-0.2,0.1-0.5,0.1-0.7,0.1
				c-0.3,0-0.6,0-0.8-0.1c-0.2-0.1-0.4-0.2-0.6-0.3c-0.1-0.1-0.2-0.2-0.3-0.4C99,66.5,99,66.3,99,66.2c0-0.2,0-0.4,0-0.8v-1.3l0-0.7
				c0-0.3,0-0.4,0-0.5c0-0.1,0-0.1,0-0.1c0,0-0.1,0-0.1-0.1c-0.1,0-0.2,0-0.4,0l0,0V62.5z"/>
			<path class="st0" d="M103.9,67.3L103.9,67.3l0-0.2l0,0c0.1,0,0.2,0,0.3,0c0.1,0,0.1,0,0.2-0.1c0,0,0-0.1,0-0.2c0-0.1,0-0.2,0-0.5
				c0-0.2,0-0.4,0-0.5v-2.7c0-0.1,0-0.2-0.1-0.3s-0.1-0.1-0.2-0.1c-0.1,0-0.2,0-0.4,0l0,0v-0.2l0,0c0.3,0,0.5,0,0.6,0
				c0.2,0,0.4,0,0.6,0l1.1,1.4l1.6,2c0.2,0.2,0.4,0.5,0.6,0.7V64c0-0.1,0-0.3,0-0.5c0-0.3,0-0.4,0-0.5c0-0.1,0-0.1-0.1-0.1
				c0,0-0.1,0-0.2-0.1c-0.1,0-0.2,0-0.3,0l0,0v-0.2l0,0c0.2,0,0.4,0,0.8,0c0.3,0,0.5,0,0.7,0l0,0v0.2l0,0c-0.1,0-0.3,0-0.3,0
				c-0.1,0-0.1,0-0.2,0.1c0,0,0,0.1,0,0.1c0,0.1,0,0.2,0,0.5c0,0.2,0,0.4,0,0.5v1.6l0,0.9c0,0.3,0,0.6,0,0.9c-0.1,0-0.3-0.1-0.6-0.1
				l-0.2-0.3l-0.7-0.9l-2.3-2.8v2.6c0,0.1,0,0.3,0,0.5c0,0.3,0,0.4,0,0.5c0,0.1,0,0.1,0,0.1c0,0,0.1,0,0.1,0.1c0.1,0,0.2,0,0.4,0
				l0,0v0.2l0,0c-0.1,0-0.3,0-0.6,0C104.4,67.2,104.1,67.2,103.9,67.3z"/>
			<path class="st0" d="M109.7,62.5l0.4,0c0.3,0,0.5,0,0.5,0c0.1,0,0.4,0,1,0l0,0v0.2l0,0c-0.2,0-0.3,0-0.4,0c-0.1,0-0.1,0-0.2,0.1
				c0,0-0.1,0.1-0.1,0.2c0,0.1,0,0.2,0,0.4l0,0.8v1.6l0,0.7c0,0.3,0,0.4,0,0.5c0,0.1,0,0.1,0,0.1c0,0,0.1,0,0.1,0.1
				c0.1,0,0.2,0,0.4,0l0,0v0.2l0,0c0,0-0.2,0-0.6,0c-0.2,0-0.3,0-0.4,0c-0.1,0-0.4,0-1,0l0,0v-0.2l0,0c0.2,0,0.3,0,0.4,0
				c0.1,0,0.1,0,0.1-0.1c0,0,0-0.1,0.1-0.1c0-0.1,0-0.2,0-0.5l0-0.7v-1.6l0-0.7c0-0.3,0-0.4,0-0.5c0-0.1,0-0.1,0-0.1
				c0,0-0.1,0-0.1-0.1c-0.1,0-0.2,0-0.4,0l0,0L109.7,62.5L109.7,62.5z"/>
			<path class="st0" d="M114.3,67.3c0-0.1-0.2-0.5-0.4-1.1l-1.1-2.8c-0.1-0.3-0.2-0.5-0.2-0.5c0,0-0.2-0.1-0.4-0.1l0,0v-0.2l0,0
				c0.3,0,0.6,0,0.9,0c0.2,0,0.5,0,0.9,0l0,0v0.2l0,0c-0.3,0-0.4,0-0.5,0c-0.1,0-0.1,0-0.1,0.1c0,0,0,0.1,0.1,0.4
				c0.1,0.2,0.1,0.4,0.2,0.5l1,2.6l0.9-2.2c0.1-0.1,0.1-0.4,0.3-0.7c0.1-0.3,0.2-0.5,0.2-0.6c0-0.1,0-0.1-0.1-0.1
				c-0.1,0-0.2,0-0.5-0.1l0,0v-0.2l0,0c0.4,0,0.6,0,0.7,0c0.1,0,0.3,0,0.7,0l0,0v0.2l0,0c-0.2,0-0.3,0-0.3,0c0,0-0.1,0.1-0.1,0.1
				c0,0.1-0.1,0.2-0.2,0.5l-1,2.6c-0.2,0.6-0.4,1-0.5,1.3H114.3z"/>
			<path class="st0" d="M117.3,62.5L117.3,62.5c0.8,0,1.3,0,1.5,0c0.7,0,1.4,0,2,0l0,0c-0.1,0.2-0.1,0.6-0.1,1l0,0h-0.2l0,0
				c0,0,0,0,0-0.1c0-0.2,0-0.4,0-0.5c-0.1-0.1-0.3-0.1-0.6-0.1c-0.2,0-0.4,0-0.6,0c-0.2,0-0.4,0-0.7,0l0,0.5l0,0.6l0,0.7
				c0.2,0,0.5,0,0.7,0c0.2,0,0.4,0,0.5,0c0.1,0,0.2,0,0.2,0c0,0,0,0,0.1-0.1c0,0,0-0.1,0-0.2l0-0.2l0,0h0.2l0,0c0,0.2,0,0.5,0,0.7
				l0,0.8l0,0h-0.2l0,0l0-0.2c0-0.2,0-0.2,0-0.3c0,0,0-0.1-0.1-0.1c0,0-0.1,0-0.2-0.1c-0.1,0-0.3,0-0.6,0c-0.1,0-0.3,0-0.6,0
				c0,0.2,0,0.5,0,0.9c0,0.5,0,0.8,0,1h0.6c0.5,0,0.9,0,1,0s0.3,0,0.4-0.1c0-0.1,0.1-0.2,0.1-0.4c0-0.2,0.1-0.3,0.1-0.4l0,0h0.2l0,0
				c0,0.1,0,0.3-0.1,0.5c0,0.2,0,0.4,0,0.6l0,0c-0.4,0-1,0-1.7,0l-0.9,0c-0.2,0-0.4,0-0.7,0l0,0v-0.1l0,0c0.1-0.1,0.2-0.1,0.2-0.1
				c0,0,0-0.2,0-0.6c0-0.4,0-0.7,0-0.9v-1.2l0-0.8c0-0.2,0-0.3,0-0.4c0-0.1,0-0.2,0-0.2c0,0,0-0.1,0-0.1c0,0,0,0-0.1,0
				c0,0-0.1,0-0.2,0l-0.3,0l0,0V62.5z"/>
			<path class="st0" d="M121.5,62.5L121.5,62.5c0.4,0,0.8,0,1,0c0.3,0,0.6,0,1,0c0.2,0,0.3,0,0.3,0c0.6,0,0.9,0.1,1.1,0.3
				c0.2,0.2,0.3,0.4,0.3,0.7c0,0.2,0,0.4-0.1,0.6c-0.1,0.2-0.2,0.3-0.4,0.5c-0.2,0.1-0.5,0.2-0.8,0.3c0.1,0.1,0.2,0.2,0.3,0.5
				l0.5,0.6c0.2,0.2,0.3,0.4,0.5,0.7c0.2,0.2,0.3,0.4,0.3,0.4c0.1,0,0.1,0,0.1,0.1c0,0,0.1,0,0.2,0l0,0v0.2l0,0c-0.1,0-0.2,0-0.4,0
				c-0.2,0-0.3,0-0.5,0c-0.2-0.2-0.4-0.5-0.7-1c-0.4-0.5-0.8-1-1.2-1.5l0-0.1c0.1,0,0.2,0,0.3,0c0.4,0,0.7-0.1,0.9-0.3
				c0.2-0.2,0.3-0.4,0.3-0.8c0-0.3-0.1-0.5-0.3-0.7c-0.2-0.2-0.5-0.2-0.8-0.2c-0.2,0-0.5,0-0.7,0.1c0,0-0.1,0.5-0.1,1.3v1.6l0,0.7
				c0,0.3,0,0.4,0,0.5c0,0.1,0,0.1,0,0.1c0,0,0.1,0,0.1,0.1c0.1,0,0.2,0,0.4,0l0,0v0.2l0,0c0,0-0.2,0-0.6,0c-0.2,0-0.3,0-0.4,0
				c-0.1,0-0.4,0-1,0l0,0v-0.2l0,0c0.2,0,0.3,0,0.4,0c0.1,0,0.1,0,0.1-0.1c0,0,0-0.1,0.1-0.1c0-0.1,0-0.2,0-0.5l0-0.7v-1.6l0-0.7
				c0-0.3,0-0.4,0-0.5c0-0.1,0-0.1,0-0.1c0,0-0.1,0-0.1-0.1c-0.1,0-0.2,0-0.4,0l0,0V62.5z"/>
			<path class="st0" d="M126.4,66.1L126.4,66.1l0.2,0l0,0c0,0.3,0,0.5,0,0.5c0,0.1,0.1,0.1,0.2,0.2c0.1,0.1,0.2,0.1,0.4,0.2
				c0.2,0,0.3,0.1,0.5,0.1c0.2,0,0.4,0,0.6-0.1c0.2-0.1,0.3-0.2,0.4-0.4c0.1-0.2,0.2-0.4,0.2-0.6c0-0.1,0-0.3-0.1-0.4
				c-0.1-0.1-0.1-0.2-0.2-0.3c-0.1-0.1-0.2-0.1-0.3-0.1c-0.1,0-0.3-0.1-0.5-0.1c-0.2,0-0.4-0.1-0.5-0.1c-0.1,0-0.3-0.1-0.4-0.1
				c-0.1-0.1-0.2-0.1-0.3-0.2c-0.1-0.1-0.2-0.2-0.2-0.3c-0.1-0.1-0.1-0.3-0.1-0.4c0-0.4,0.1-0.8,0.4-1c0.3-0.3,0.7-0.4,1.2-0.4
				c0.2,0,0.4,0,0.6,0.1c0.2,0,0.4,0.1,0.6,0.2l0,0c0,0.2-0.1,0.5-0.1,0.9l0,0h-0.2l0,0c0-0.3,0-0.4,0-0.5c0-0.1-0.1-0.2-0.3-0.3
				c-0.2-0.1-0.4-0.2-0.6-0.2c-0.2,0-0.4,0-0.5,0.1c-0.2,0.1-0.3,0.2-0.4,0.4c-0.1,0.2-0.1,0.3-0.1,0.5c0,0.1,0,0.2,0.1,0.3
				c0.1,0.1,0.1,0.2,0.2,0.2c0.1,0.1,0.2,0.1,0.3,0.1c0.1,0,0.3,0.1,0.6,0.1c0.4,0.1,0.7,0.1,0.9,0.2c0.2,0.1,0.3,0.2,0.4,0.4
				c0.1,0.2,0.2,0.4,0.2,0.6c0,0.5-0.2,0.9-0.6,1.2c-0.4,0.3-0.9,0.5-1.4,0.5c-0.5,0-0.9-0.1-1.2-0.2l0,0
				C126.3,66.9,126.3,66.6,126.4,66.1z"/>
			<path class="st0" d="M130,62.5l0.4,0c0.3,0,0.5,0,0.5,0c0.1,0,0.4,0,1,0l0,0v0.2l0,0c-0.2,0-0.3,0-0.4,0c-0.1,0-0.1,0-0.2,0.1
				c0,0-0.1,0.1-0.1,0.2c0,0.1,0,0.2,0,0.4l0,0.8v1.6l0,0.7c0,0.3,0,0.4,0,0.5c0,0.1,0,0.1,0,0.1c0,0,0.1,0,0.1,0.1
				c0.1,0,0.2,0,0.4,0l0,0v0.2l0,0c0,0-0.2,0-0.6,0c-0.2,0-0.3,0-0.4,0c-0.1,0-0.4,0-1,0l0,0v-0.2l0,0c0.2,0,0.3,0,0.4,0
				c0.1,0,0.1,0,0.1-0.1c0,0,0-0.1,0.1-0.1s0-0.2,0-0.5l0-0.7v-1.6l0-0.7c0-0.3,0-0.4,0-0.5c0-0.1,0-0.1,0-0.1c0,0-0.1,0-0.1-0.1
				c-0.1,0-0.2,0-0.4,0l0,0L130,62.5L130,62.5z"/>
			<path class="st0" d="M136.3,62.5L136.3,62.5c0,0.2,0,0.6,0,1.1l0,0h-0.2l0,0l0-0.3c0-0.2,0-0.3,0-0.3c0,0,0-0.1,0-0.1
				c0,0-0.1,0-0.2,0c-0.1,0-0.3,0-0.4,0h-0.6c0,0.5,0,0.8,0,0.9v2l0,0.7c0,0.3,0,0.4,0,0.5c0,0.1,0,0.1,0,0.1c0,0,0.1,0,0.1,0.1
				c0.1,0,0.2,0,0.4,0l0,0v0.2l0,0c-0.6,0-0.9,0-1,0c-0.1,0-0.4,0-1,0l0,0v-0.2l0,0c0.2,0,0.3,0,0.4,0c0.1,0,0.1,0,0.1-0.1
				c0,0,0-0.1,0.1-0.1c0-0.1,0-0.2,0-0.5l0-0.7v-2c0,0,0-0.3,0-0.9h-0.5c-0.2,0-0.4,0-0.5,0c-0.1,0-0.2,0-0.3,0.1c0,0,0,0.2-0.1,0.4
				l0,0.3l0,0h-0.2l0,0c0-0.5,0-0.9,0-1.1l0,0c0.4,0,1,0,1.9,0C135.3,62.5,135.9,62.5,136.3,62.5z"/>
			<path class="st0" d="M136.7,62.8L136.7,62.8l0-0.2l0,0l0.9-0.2c0.1,0,0.1,0.1,0.2,0.2c0.1,0.1,0.2,0.2,0.3,0.4
				c0.1,0.2,0.3,0.5,0.5,0.8c0.2,0.3,0.4,0.7,0.6,1.1l0.3-0.5l0.4-0.6l0.7-1.2c0.1,0,0.2,0,0.3,0c0.1,0,0.1,0,0.2,0l0,0v0.1
				c-0.1,0.1-0.3,0.3-0.5,0.7c-0.2,0.3-0.4,0.6-0.5,0.8s-0.3,0.4-0.4,0.7c-0.2,0.3-0.3,0.4-0.3,0.5c0,0.1,0,0.1,0,0.2v0.5l0,0.5
				c0,0.2,0,0.3,0,0.4c0,0.1,0,0.1,0.1,0.2c0,0,0.1,0,0.1,0.1c0.1,0,0.2,0,0.4,0l0,0v0.2l0,0c0,0-0.2,0-0.6,0c-0.2,0-0.3,0-0.4,0
				c-0.1,0-0.4,0-1,0l0,0v-0.2l0,0c0.2,0,0.4,0,0.4,0c0.1,0,0.1,0,0.1-0.1c0,0,0-0.1,0.1-0.1c0-0.1,0-0.2,0-0.4l0-0.6v-0.6
				c0-0.1-0.2-0.4-0.5-0.9l-0.3-0.5c-0.1-0.2-0.2-0.3-0.4-0.5c-0.1-0.2-0.3-0.3-0.3-0.4c-0.1-0.1-0.1-0.1-0.2-0.1
				C137,62.8,136.9,62.8,136.7,62.8z"/>
		</g>
	</g>
	<g>
		<path class="st1" d="M112.6,18.3c0,0-0.4-0.6,0-0.5c0,0,0.2,0,0.2,0.2c0,0,3.8,3.6,4.3,3.9c0,0,0.5,0.7,2.9,0.6
			c0,0,0.5-0.3,0.4,0.4c-0.9,0.6-2.3,1.8-3.2,2.1c-1.3,0.4-1.8-0.7-2.7-2.5c0,0-0.1-0.1,0-0.3C114.1,20.8,113.2,19.5,112.6,18.3
			 M112.1,4.7c0,0,1.4,0.8,1.9,1.8c0.1,0,0.7,1.2,0.2,2.7c-0.3,1.2-1,4.3-1.3,5.4c0,0-0.6,1.1,0.4,0.7c0,0,4-0.5,2.7-2.2
			c0,0-1-1.7,0.2-0.9c0,0,0.9,0.9,1.5,0.9c0,0,1.1-0.1,0.8,0.6c0.1,0-0.5,1.1-1.3,1.4c-0.6,0.2-0.9,0.2-2,0.5c0,0-2.9,0.8-3.2,2.2
			c-0.2,1.4-1.9,7.7-7.1,6.7c0,0-0.9-0.1-1.1-0.9c0.1-0.2,0-0.3,0.7-0.1c0.9,0.1,3.9,0.6,6.2-5.4c0.2-0.3,0.2-0.7,0-0.6
			c-0.3,0.2-0.8,0.2-1.9,0.7c-2.5,1.1-3.8,2.2-4.1,1.5c0,0-0.9-1.6-0.3-1.6c0.3,0,0.3,0.2,0.6,0.3c0.3,0.1,1.2-0.3,1.9-0.6
			c1.1-0.4,3.4-1.1,4.3-1.9c0.3-0.2,0.3-0.6,0.3-1c0.1-0.1,0.7-4.3,0.6-7.5C112.1,7.2,111.5,4.6,112.1,4.7"/>
	</g>
	<g>
		<path class="st1" d="M79.1,14.1c0,0-0.3,0.1-0.4,0.3l0,0.3c0,0-0.2,0.1-0.2,0.3c0,0-0.4,0.1-0.4,0.3c0.1,0.4-0.3,1-0.3,1.4
			c0,0-0.2,0.3,0.5,0.2c0.3,0.2,1.7-1.5,1.9-1.9c0.1-0.2,0.3-0.5,0.4-0.6c0.1-0.1,0.2-0.4,0.1-0.5c-0.1-0.2-0.9,0.1-1.1,0.2
			C79.5,14,79.2,14,79.1,14.1 M76,10.9c0.5-0.5,3.8-1.9,4.6-1.9l1,0c0.4,0.2,0.4,0.8-0.1,1c-0.3,0.2-1.6,1.4-1.8,1.5
			c0,0.1-1.9,1.4-2.1,1.4c-0.2,0-0.3,0.3-0.1,0.4c0.4,0.2,0.6,0.3,0.8,0.7c0.1,0,0.3,0,0.4-0.1c0.3-0.1,0.8-0.3,1.1-0.4
			c0.3-0.1,1.1-0.2,1.4-0.2c0.1,0,0.3,0,0.4,0.1c0.2,0.3,0.3,0.5,0.2,0.9c-0.8,1.6-1.6,2.1-2.5,3.3c-0.1,0.2-0.9,0.9-1.1,0.8
			c-0.1-0.1-0.2,0-0.2-0.1c0,0-0.1-0.2-0.2,0.1c-0.2,0.5-0.1,2.2-0.1,2.9c0,0-0.1,0.9,0,2c0.2,0.1,0,1.5,0,1.8
			c-0.2,0.6-0.3,1.1-0.8,1.6c-0.1,0.1-0.2,0.2-0.5-0.3c0,0-0.2-0.6-0.4-1c0,0,0-0.5,0-0.5c0-1.9,0.3-3.8,0.3-5.7
			c0-0.5-0.1-0.8,0.3-1.2c0,0,0.1-0.1,0-0.1c-0.1,0,0.1-0.1,0.1-0.1c0-0.6,0-1.5-0.2-1.4c-0.1,0.1-0.2,0.1-0.2,0.1l0,0.2
			c0,0-0.1,0.1-0.1,0.2c0,0-0.2,0.1-0.2,0.3c-0.1,0.2-0.1-0.2-0.3-0.1l0-0.4c0,0,0.4-0.5,0.5-0.5c0.2-0.1,0.6-0.5,0.6-0.7
			c0-0.4,0.2-1-0.1-1.3c0,0-0.2-0.4-0.2-0.4c0-0.1,0-0.2,0.1-0.3c0.2-0.3,0.1-0.5,0.5-0.7c0.1,0,0.2-0.1,0.2-0.2
			c0-0.3-0.4-0.3-0.6-0.3c-0.1,0-0.1,0.2-0.4,0.2c0,0-0.8-0.7-0.5-0.9C75.9,11.1,75.9,11,76,10.9 M74.4,17.4c-0.2,0-0.4,0.2-0.3,0.4
			c0,0.1,0.1,0.1,0.1,0.2c0,0,0,0,0,0c0,0,0,0,0,0c0.1,0,0.1,0.1,0.2,0.1c0.1,0,0.1,0,0.2-0.1c0.3-0.4,0.8-0.4,0.5-0.8
			C75,16.9,74.6,17.3,74.4,17.4 M72.7,18.2c0-0.3-0.1-0.2-0.2-0.1c-0.3,0.5-0.7,1.3-0.8,1.3c0,0,0.2,0.3,0.3,0
			C72.1,19.4,72.7,18.3,72.7,18.2 M70.9,18.5c0.3,0.1,0.6,0,0.7,0.1c0.1,0.1,0,0.4-0.1,0.6c0,0-0.3,0.5-0.4,0.8c0,0-0.3,1.6,1.3,1
			c0,0,0.9-0.4,0.7-1.3c0.2-0.7,0.5-1.2,0.6-1.9c0-0.2,0-0.2-0.1-0.3c-0.3-0.4-0.4-0.6-1-0.3L71,17.9C70.9,17.9,70.4,18.2,70.9,18.5
			 M68.5,16.9c0,0,0.6-0.3,0.5,0.2c-0.1,0.5,0.1,1.1,0.3,1.6c0.5,1,0.9,2.8,0,3.7c-0.2,0.2-0.3,0.1-0.8-0.2
			c-0.6-0.5-0.8-0.9-0.7-1.9c0.1-0.6,0.3-0.9,0.5-1.2c0.1-0.2,0.1-0.5,0.1-0.8C68.3,18.2,68.2,17.2,68.5,16.9 M69.1,15.5
			c0,0,0.3,0,0.5,0c0.2,0,0.3,0,0.4-0.1c0.3-0.2,0.8-0.5,0.9-0.5c0,0,0.4-0.2,0.3,0.3c0,0-0.5,0.4-0.3,1c0,0,0,0.3,0.5,0.4
			c0.8,0.1,2,0.3,1.7-0.6c0-0.3-0.3-0.6-0.6-0.7c0,0-0.3-0.2,0.2-0.6c0,0,1.3-1.4,1.1-2.1c-0.4-0.7-1.3-0.1-1.8,0.1
			c0,0-2,1.3-2.9,2.1C68.9,15.1,68.5,15.4,69.1,15.5 M71.1,5.8c0.3,0,2.4,0.3,2.4,1.7c0,0,0.2,0.5-1,1.3c-1.5,1.2-4.9,7.3-5.9,7.3
			c-0.4,0-0.2-0.4-0.1-0.6c0.7-1,1.4-2.3,2.2-3.2c0.9-1.2,3.5-4.8,2.7-5.7C71.4,6.6,70.3,5.8,71.1,5.8"/>
	</g>
	<g>
		<path class="st1" d="M87.3,6.6c0,0.1,0.1,0.2,0.1,0.4l0,2.1c0.1,0.4,0.5,0,0.5,0.6c0,0.1,0.1,1-0.5,1.7c-0.3,0.4-1,0.5-1.4-0.1
			c-0.2-0.4-0.4-1-0.4-1.3c0-1,0.8-2.3,1.2-3C86.8,6.7,87.1,6.2,87.3,6.6 M90.3,7.5c0,0-0.4,0.1-0.9,0.3C89.1,8,89,8,89,8.3
			c0,0,0.1,0,0.1,0.1c0,0.1,1.6,0.5,1.6,1.2c0.1,0.2,0.3,0.5,0.5,0.6c0.4,0.3,1.4-0.3,1.4-0.9c0.2-0.5-0.2-0.6-0.4-0.8
			c-0.2-0.2,0.4-0.6,0.6-0.8c0.2-0.2,2.8-1.5,2.7-0.7c-0.6,0.9-1.4,1.5-2.2,2c0,0-0.3,0.1-0.1,0.2c0,0,0.2,0.1,0.4,0
			c0.6-0.4,3.3-2.1,4.4-2.4c0,0,0.6-0.1,0.5-0.4l-0.1-0.3c0,0-0.1-0.2-0.3-0.3c-0.2-0.1-0.4-0.3-0.5-0.3c-0.6-0.5-1,0.1-1.2,0.3
			c0,0-0.2,0.3-0.9,0.4c-1.2,0.4-2.5,1-3.7,1.5c-0.4,0.2-0.7,0.1-1,0C90.7,7.6,90.8,7.4,90.3,7.5 M88.1,13.5c0,0,0.4-0.1,0.8-0.5
			c0.4-0.4,0.6-0.8,0.3-1.3c-0.1-0.1,0.5-1,1-0.1c0.1,0.3,0.1,0.7,0.1,1.2c0,0,0,0.2,0.2,0.3c0.1,0.1,0,0.4-0.1,0.4
			c-0.1,0-0.4,0.6-0.1,0.7c0,0,1.1-0.4,1.5-0.3c0.4,0.2,1,0.9-0.5,2.4c-0.1,0.2-0.4,0.2-0.4,0.6c0,0.2,0.1,0.7,0.2,0.5
			c0.1-0.1,0.2,0.3,0.3,0.5c0.2,0.4,0.6,1.5,0,2.4c0,0-0.5,0.6-1.5,0.7c-0.2,0.4-0.4,1.8-0.5,2.5c-0.1,0.8-0.4,1.5-0.5,2.2
			c-0.1,0.4-0.2,1.8-1.2,0.5c0,0-0.4-0.8-0.7-1.4l0-0.7c0.2-0.2,1-2.3,0.5-2.1c-0.8,0.3-1.6,1.1-2.1,1.4c-0.4,0.3-0.4,0.4-0.8,0.3
			c0,0-1-0.4-0.5-1.6c0.6-1,0.9-1.1,1.6-1.9c0.5-0.5,2.8-2.1,2-2.5c0,0-0.3-0.5,0.2-0.7c0.5-0.2,0.5-0.3,0.5-0.3s0.1-0.1,0-0.4
			c-0.1-0.3,0.2-0.6-0.4-0.1c-0.2,0.2-1.4,1.3-1.4,1.3S86,18.3,85.6,18c-0.2-0.4-0.3-0.8,0.1-1.4c0,0,0.2-0.6,0.4-0.7
			c0.2-0.1,0.3,0,0.3,0.3c0,0.2-0.1,0.6,0.2,0.3c0.3-0.3,0.5-0.4,0.5-0.4c0,0,0.1,0,0.4-0.2c0.3-0.2,1.2-0.4,1.2-1.2
			c0-0.8,0-0.8-0.3-0.7C88,14.1,87.7,13.9,88.1,13.5 M87.6,19.7c0.1-0.1,0.4,0.6,0.1,1c-0.6,0.2-1.4,0.5-2,0.9
			c-0.4,0.3-0.9,0.3-0.6,0.1C86,20.9,86.9,20,87.6,19.7 M90.1,15.4c0,0.3,0.1,0.4,0.3,0.2c0,0,1-0.8,0.7-1.1c0,0,0-0.1-0.1-0.2
			c-0.1-0.1-0.4,0-0.7,0.2C90.2,14.8,90.1,15.1,90.1,15.4 M90.2,18.9c-0.1,0.4-0.3,0.9-0.5,0.7c-0.1-0.7,0-1.2,0.4-1.8
			C90.1,17.5,90.3,18.5,90.2,18.9 M95.6,13.1c-0.1,0-0.4-0.1-0.2-0.3c0.2-0.1,1.9-0.9,2.1-1c0.2-0.1,0-0.3,0.6-0.1
			c0.3,0.1,1,0.3,0.8,1.2c0,0.1-0.1,0.2-0.3,0.4c-0.1,0.1-0.5,0.3-0.6,0.5c-0.2,0.2-1.3,1.6-1.9,2.2c-0.1,0.1-0.4,0.4-0.2,0.6
			c0.1,0.1,0,0.1,0.3,0.1c0.1,0,0.4,0.1,0.5,0.2c0.1,0.1,0.4,0.3,0.5,0.4c0.1,0.1,0,0.6,0,0.6c0.1,0-0.2,0.2-0.6,0.3
			c-0.1,0-0.4-0.1-0.6-0.1c-0.4-0.2-0.7-0.5-0.8-0.6c-0.2-0.2-0.3-0.6-0.3-0.8c0-0.3,0.1-0.7,0.2-0.8c0-0.1,0.1-0.1,0.2-0.3
			c0.6-0.8,1-1.7,1.4-2.1c0.3-0.3,0.3-0.5,0.1-0.5C96.6,12.7,96.1,13,95.6,13.1 M94.7,15.1l0,2.7c0,0.5,0.4,1.7,0,2.2
			c-0.2,0.3-0.2,1.7-0.2,2c0,0,0.1,0.2,0.4,0.2c1.8,0,3.3-0.3,4.9-0.5c0.2,0,0.8-0.1,0.8-0.5c0-0.4,0-0.4,0.1-0.4
			c0.3,0-0.3-3.1-0.4-3.4c-0.2-0.4-0.5-0.9-0.2-1.1c0.3-0.2,0.3,0,0.4,0.1c0.7,1,1.3,4.1,1.9,5.1c0,0,0.2,0.2,0.1,1.1
			c-0.1,0.6-0.1,0.4-0.8,0.8c-1.2,0.6-6.1,0.8-7.9,0.2c-0.4-0.5-1.1-1.4-1.1-1.7c-0.3-1.8,0.6-4.4,0.6-4.8c0-0.3,0.4-0.6,0.6-0.9
			c0.1-0.2,0.3-0.5,0.4-0.8C94.4,15,94.6,14.8,94.7,15.1"/>
	</g>
	<g>
		<path class="st1" d="M36.8,4.8c0,0,1.4,0.9,1.8,1.1c0,0,1,0.7,0.8,2.4c-0.5,4-1.1,10.7-0.1,14.5c0,0,0.5,3.5-1.7,3.7
			c0,0-0.5-0.1-0.5-0.4c0,0-1.3-2.5-1.7-0.8c0.2-0.1-1.8,4.4-4.1,3.9c0,0-2.3-2.1-0.9-2.7c0.1,0,0.8-0.4,1.2-1.5
			c0,0,2.5-3.9,0.1-6.1c0,0-1.4-1,0.4-1.1c0.5,0,3.5,0.5,3.6,2.1c0,0-0.1,1.2-1.2,1.2c-0.4,0-1.9,2.9-1.9,3.3c0,0.3-0.1,0.7,0.8,0.2
			c0.9-0.5,1.8-1.9,2.5-1.7c0.7,0.3-0.3,0.6,0,1c0.3,0.5,0.7,0.4,0.6-0.3c0-0.7-0.5-3.6-0.3-4.7c0,0,0.1-7.2,0.4-8.3
			c0,0,0.7-3,0.4-4.9C37.1,5.8,36.5,5.2,36.8,4.8 M49.1,12.7C48,10.4,46,9.1,45.4,7.3c-0.7-1.2-0.7-0.7-1-0.2
			C44,7.6,43.9,7.9,43.7,9C43.4,10,43,15.7,43,15.7c0.2,1.8-1,1.8-2.2,2.5c-1.1,0.7-0.6,0.6-0.6,0.7c0,0,3-1.3,2.9-0.1
			c0,0,0.2,1.4,0,3.4c-0.5,3.7,4.5,2.7,6.5,1.8c1.5-0.7,1.2-0.7,1.1-1c0-0.2-0.1-0.5-0.1-0.7c0-0.2,0-0.3-0.1-0.4
			c-0.8-0.9-1.7-0.2-2.8,0.5c-1.2,0.7-2.3,1.2-2-0.5c0.4-2.2-0.7-4.5,1.1-4.2c0,0,0.5,0.2,1.5-0.9C49.1,16,50.2,14.6,49.1,12.7
			 M45.6,14.1c0,0-0.2,1.9,0.9,0.8c1.1-1.2,2.1-0.8,1.7-2.1c-0.5-1.3-2.6-4.3-2.6-4.3S45,7.2,45,8.9c0,0,0.4,1.4,0.5,1.9
			C45.6,11.3,45.6,14.1,45.6,14.1"/>
	</g>
	<g>
		<path class="st1" d="M132.4,8.7c0,0,0.3-0.3,0.4,0c0,0.4,0,1.1,0.2,1.2c0,0-0.1,0.5-0.3,0.3c0,0,0-0.3-0.1-0.5
			C132.6,9.5,132.3,9.2,132.4,8.7 M131.8,9.7c0.1,0.5,0.3,1.9,0.3,2.2c0,0.3-0.2,0.4-0.8,0.6c-0.6,0.2-1.3,0.6-1.8,0.8
			c0,0-0.4,0.2-0.3,0c0.2-0.3,0.4-1,0.9-1.4c0,0,0.3-0.3,0.4-0.1c0.2,0.2,0.6,0.6,0.8,0.3c0.2-0.3,0.6-0.6,0.1-1
			c-0.1-0.1-0.2-0.2-0.3-0.2c-0.1,0-0.2-0.3-0.1-0.4c0.1-0.1,0.1-0.1,0.1-0.2C131,10.2,131.6,9.3,131.8,9.7 M124.6,24.8
			c0.3,0.5,3,1.6,4.9,1.6c0.6,0,1,0.1,1.3,0c0.1-0.1,0.2-0.3,0.1-0.4c-0.3-0.7,0.1-3.9,0-4.1c-0.1-0.2-0.1-0.1-0.4-0.1
			c-0.6,0.2-1,0.3-1.4,0.5c-0.2,0.1-0.8,0.2-1.5,0.5c-0.4,0.2-0.8,0.4-1.2,0.7c-0.3,0.3-0.6,0.7-0.9,0.7
			C124.5,24.6,124.4,24.7,124.6,24.8 M132.1,7.8l0.6,0c0.2,0,0.4,0,0.6,0.1c1.1,0.5,0.4,3.1,0,3.7l0,0.5c0,0,0.2,0.3,0.3,0
			c1.2-2.4,2.1-4.7,3.1-7.1c0-0.1,0.2-0.2,0-0.3c-0.2-0.1-0.1-0.1-0.4,0.1c-0.3,0.1-1,0.5-1.3,0.8c-0.3,0.3-2.9,2-2.9,2.1
			C132.2,7.8,132.1,7.8,132.1,7.8 M126.3,5.3c0.3,0.3,0.7,0.4,1,0.5c0.6,0.3,2,1.2,1.9,2c0.1,0.1,0.2,0.2,0.3,0.1
			c0.4-0.7,1.8-2.7,1.5-3.3c0,0,0.1-0.1-0.1-0.3l0-0.5c0.3-0.7,2,0.4,2.3,1.1c0.2,0.5-0.2,0.7-0.7,0.9c0,0-0.3,0.5-0.7,0.8
			C131.4,7,131,7.4,131,7.5c0,0.2,0,0.1,0.2,0c0.2-0.1,0.2,0,0.3-0.1c0.4-0.4,2.2-1.5,2.9-1.9c0.1,0,0.9-0.6,1.1-0.7
			c0.3-0.1,0.7-0.5,1-0.4c0.2-0.2,0.6-0.3,0.8-0.2c0.2,0.2,0.4,0.2,0.3,0.6c-0.3,0.2-1.6,5.6-2.3,6.8c-0.1,0.2-0.2,0.4-0.3,0.7
			c0,0,0.1,0.2,0.2,0c0.8-0.2,3.1-1.5,2.7,0.7c0,0.1-0.2,0.1-0.3,0.3c-0.7,0.8-2.5,2-3.8,2.7c-0.6,0.3-1,0.6-1.2,0.7
			c-0.3,0.2-0.6,0.1-0.4,0.4c0.1,0,0.5,0.1,0.5,0.2c0.1,0.2,0.2,0.6,0,0.8c0,0-0.1,0.1-0.2,0.1c0,0-0.1,0.1-0.1,0.2
			c-0.1,0.1-0.2,1-0.1,1.1c0,0.2,0.4,0.3,0.5,0.3c0.2,0.1,0.9-0.2,1.1-0.4c0.1-0.1,0.3-0.3,0.4-0.4c0.2-0.1,0.3-0.1,0.4,0.1
			c0.4,0.4,1,0.5,1.3,1c0.3,0.5,0,0.5-0.1,0.9c-0.1,0.2-0.2,0.5-0.4,0.5c0,0-0.2,0.1-0.4,0c-0.4-0.1-0.5-0.1-1-0.1
			c-0.5,0-1.1,0-1.5,0.1c-0.5,0.1-0.8,0.2-0.8,0.4c-0.1,0.4,0.2,1.5,0.1,2.7c-0.1,0.7,0.1,1.4,0.2,1.9c0.1,0.4,0,1.2-0.1,1.5
			c-0.3,0.6-0.6,0.6-1.2,0.2c-0.2-0.1-0.4-0.2-0.6-0.3c-2.2-0.8-4.8-1.5-6.7-3.2c-0.5-0.3-1-0.5-0.2-1.3c0.2,0,0.5-0.4,0.7-0.5
			c2.2-1.3,4.4-2.4,7.4-3c0.1,0,0.3-1.3,0.2-1.5c0-0.1,0.1-0.3-0.1-0.3c-0.2,0-0.5,0-0.8,0.1c-0.5,0.2-0.9,0.1-1-0.2
			c-0.1-0.4,0.1-0.6,0.2-0.8c0.3-0.2,0.5-0.2,0.9-0.3c0.3-0.1,0.5-0.2,0.9-0.4c0.4-0.2,1.7-0.8,1.8-0.9c1-0.5,3.6-2.2,4.2-2.7
			c0,0,0-0.1,0-0.2c-0.4-0.4-0.6-0.3-1.2-0.3c-0.2,0-1.5,0.5-1.6,0.5c-0.3,0-0.5,1-1.2,0.8c0,0-0.1,0.1-0.2,0.2
			c-0.1,0.1-0.4,0.2-0.6,0l-0.3,0c-0.5,0.3-2.6,1.4-3.5,2c-0.8,0.6-3.7,2.6-4.5,3.7c-0.6,0.9-1.4,1.6-1.9,1.5
			c-0.5-0.1-0.9-0.6-0.9-1c-0.1-1.2,2-2.9,3-3.8c0.6-0.5,1.3-1.3,1.8-1.7c0.4-0.3,1.4-0.8,1.7-1.1c0.2-0.1,0.1-0.6,0.4-0.9
			c0.7-0.8,1-1.7,0.6-1.8c-0.2-0.1-0.3-0.2-0.1-0.4c0.2-0.1,0.4,0,0.5-0.1c0.2-0.1,0.3-0.3,0.4-0.5c0.1-0.2,0.3-0.5,0.3-0.7
			c0,0-0.2-0.4-0.5,0c-1.1,1.4-2.5,2.8-3.5,4.4c-0.1,0.7-1.4,1.5-1.6,0.8c-0.2-0.5-0.3-1.1-0.2-1.7c0.1-0.4,0.1-1.2-0.3-1.5
			c-0.4-0.5-0.1-0.8-0.1-0.8c0.4-0.3,1,0.4,1.1,0.7c0.2,0.5,0.3,0.5,0.4,0.7c0,0,0.2,1.2,0.8,0.6c0.7-0.7,0.8-2.6,0.5-3.4
			c-0.3-0.8-0.4-1.6-0.7-2.3c-0.1-0.3-0.4-0.7-0.7-1C125,4.7,125.9,4.9,126.3,5.3"/>
	</g>
	<g>
		<path class="st1" d="M56.6,16c0,0,0.1-0.1,0.2-0.2c0.1-0.1,0.1,0.1,0.2,0.3c0.1,0.2-0.1,0.5,0.3,0.5c0.4,0,0.7-0.6,1.1-0.9
			c0,0,0.8-0.8,1.4-1.2c0.2-0.1,1.9-1.3,2.2-1.2c0.2,0.1,0.6,0.4,0.6,0.5c0.1,0.1-0.1,0.3-0.6,0.9c-0.6,0.6-1.7,1.9-0.9,1.6
			c0.4-0.1,0.4-0.2,0.5,0.1c0.1,0.3,0.2,0.7-0.1,0.9c-0.6,0.2-1,0.2-2,0.7c0,0-0.5,0.1-0.6-0.2c-0.1-0.2-0.2-0.2-0.1-0.4
			c0.5-0.7,1.2-1.6,1.7-2.2c0.2-0.2,0.1-0.2,0.2-0.4c0.1-0.2,0.2-0.5-0.2-0.2c-0.4,0.3-1.3,0.8-1.8,1.4c-0.2,0.2-0.9,1.1-0.9,1.3
			c0,0.2,0.2,0.2,0.2,1.1c0,0.2-0.2,0.2-0.3,0.3c-0.2,0.1-0.3,0.2-0.4,0.1c-0.2-0.2-0.4-0.6-0.7-1.3c-0.1-0.2-0.2-0.4-0.2-0.6
			C56.5,16.5,56.6,16.4,56.6,16 M60.9,23.1c0.1,0.3,0.1,0.2,0.1,0.3c0,0.2,0.3,0,0.5-0.1c0.2-0.1,0.3,0,0.5,0.2
			c0.1,0.2,0.5-0.1,0.7-0.1c0.3-0.1,0.4-0.2,0.4-0.4c0-0.2,0.1-0.8,0-0.9c-0.7-0.6-1.4-1.4-2-2c-0.3-0.3-0.3-0.2-0.7-0.4
			c-0.4-0.2-0.7,0-0.7,0c-0.1,0.4-0.4-0.6-0.5-0.7c-0.1-0.2-0.2-0.3-0.3-0.3c-0.2,0-0.3,0.2-0.4,0.5c-0.1,0.5-0.1,0.6-0.1,1.2
			c0,0.3,0,0.2,0,0.5c0.1,0.9,0,1.9,0.1,2.7c0.1,0.6-1.2,0.2-1.5,0.2c-0.3,0-0.7-0.2-1-0.3c-0.3-0.1,0-0.3,0-0.5
			c0.1-0.2,0.8-0.8,0.9-0.9c0.2-0.2,0.3-0.2,0.5-0.4c0.2-0.1,0.3-0.2,0.3-0.3c0-0.1,0-0.1,0.2-0.3c0.3-0.2,0.2-0.4,0.2-0.4h-0.3
			c0,0-0.3,0.2-0.7,0.6c-0.5,0.5-1.7,1.6-2.1,1.9c-0.3,0.3-0.4,0.4-0.8,0.5c-0.4,0-0.4,0.1-0.5-0.1c-0.2-0.2-0.4-0.3-0.4,0.2
			c-0.1,0.5,0,0.3,0.2,0.6c0.1,0.2,0.4,0.5,0.5,0.6c0.3,0.3,0.7,0.5,0.9-0.1c0.2-0.7,0-0.3,0.1-0.5c0.1-0.2,0-0.2,0.1-0.4
			c0.1-0.1-0.2-0.2,0.5-0.2c0.7,0.4,1.5,0.7,2.2,1.2c0.4,0.3,0.6,0.6,1,0.8c0.8,0.5,0.8,0,0.8-0.6c0-1,0-1.9,0-2.9
			c0-0.3-0.6-2.6,0-2.4c0.2,0.1,0.2,0,0.5,0.1c0.7-0.1,0.6,1.6,0.6,1.9C60.8,22.9,60.7,22.6,60.9,23.1 M52.8,14c0,0,0.1,0.1,0.1,0.6
			c0,0.1,0,0.3,0.1,0.3c0.8,0,2.3-1,2.4-1.1c0.6-0.4,1.1-0.7,1.9-1.2c1.2-0.8,2.4-1.5,3.6-2.1c0.3-0.2,0.6-0.3,1.1-0.6
			c0.3-0.2,0.6-0.1,0.8-0.3c0.3-0.3,0.6-0.5,0.6-0.7c0-0.5,0.6-0.9,1-0.7c0.3,0.1,0.4,0.2,0.7,0.3c0.3,0.1,0.6,0.2,0.7,0.6
			c0,0.2-0.2,0.5-0.9,0.6c-0.5,0.1-0.5,0.2-1,0.4c-0.4,0.2-0.9,0.5-1.4,0.7c-0.7,0.4-1.3,0.8-1.9,1.1c-0.7,0.4-0.7,0.5-1.6,0.9
			c-0.1,0-0.1,0-0.2,0c-0.1,0,0-0.2,0.1-0.3c0.8-0.4,2-1.2,3.2-2.2c0.2-0.2,0.1-0.3,0-0.2c-0.2,0.1-0.6,0.4-0.8,0.5
			c-1.2,0.7-2.6,1.6-3.7,2.4c-0.8,0.5-1.9,1.2-2.7,2c-0.3,0.4-0.5,0.9-0.8,1.2c-0.2,0.3-0.2,0.4-0.6,0.4c-0.7,0.1-0.9-0.1-1.3-0.8
			c-0.4-0.6-0.4-1.4-0.1-1.9c0.1-0.1,0.2-0.2,0.3-0.3C52.7,13.6,52.7,13.9,52.8,14 M58.4,5.3c-0.1,0.2,0.2,0.6,0.4,0.7
			c0.5,0.4,0.9,0.7,1,1.1c0.3,0.6-0.5,0.5-0.4,0.9c0.1,0.5,1.1-0.3,1.2-0.1c0.3,0.3,1.1-0.1,1.2-0.5c0.2-0.6-0.3-1.3-1-1.8
			C59.9,5.1,58.5,5.1,58.4,5.3"/>
	</g>
</g>
</svg>
