<?xml version="1.0" encoding="utf-8"?>
<!-- Generator: Adobe Illustrator 22.0.0, SVG Export Plug-In . SVG Version: 6.00 Build 0)  -->
<svg version="1.1" id="图层_1" xmlns="http://www.w3.org/2000/svg" xmlns:xlink="http://www.w3.org/1999/xlink" x="0px" y="0px"
	 viewBox="0 0 82.7 83.4" style="enable-background:new 0 0 82.7 83.4;" xml:space="preserve">
<style type="text/css">
	.st0{fill:#FFFFFF;}
	.st1{fill:#004986;}
	.st2{fill-rule:evenodd;clip-rule:evenodd;fill:#004986;}
</style>
<g>
	
		<ellipse transform="matrix(0.7071 -0.7071 0.7071 0.7071 -17.1138 41.9412)" class="st0" cx="42.1" cy="41.6" rx="36.1" ry="36.1"/>
	<ellipse transform="matrix(0.1265 -0.992 0.992 0.1265 -4.699 78.1669)" class="st1" cx="42" cy="41.8" rx="25" ry="25"/>
	<g>
		<path class="st0" d="M49.5,24C49.5,24,49.6,24,49.5,24C49.6,24,49.5,24,49.5,24z"/>
		<path class="st2" d="M41.8,13.6c15.5,0,28.1,12.6,28.1,28.1c0,15.5-12.6,28.1-28.1,28.1c-15.5,0-28.1-12.6-28.1-28.1
			C13.8,26.2,26.4,13.6,41.8,13.6 M41.8,15.2c14.6,0,26.5,11.9,26.5,26.5c0,14.6-11.9,26.5-26.5,26.5c-14.6,0-26.5-11.9-26.5-26.5
			C15.4,27.1,27.3,15.2,41.8,15.2"/>
		<path class="st2" d="M41.8,4.6c20.4,0,37.1,16.7,37.1,37.1c0,20.4-16.7,37.1-37.1,37.1S4.7,62.1,4.7,41.7
			C4.7,21.2,21.4,4.6,41.8,4.6 M41.8,6.4c19.4,0,35.3,15.9,35.3,35.3C77.1,61.1,61.3,77,41.8,77C22.4,77,6.5,61.1,6.5,41.7
			C6.5,22.2,22.4,6.4,41.8,6.4"/>
		<path class="st1" d="M18.9,22.7c-1,0.2-2.1-0.1-3.3-0.8c1.2,1,1.5,2.2,1,3.8l-0.1,0c0-1.4-0.6-2.6-1.8-3.4
			c-0.2-0.1-0.4-0.3-0.6-0.4l0.7-0.7c0.1-0.1,0.1-0.1,0.1-0.1c0.1,0,0.1,0.2,0,0.4c0,0,0.1,0,0.1,0.1c1.4,0.6,2.6,0.6,3.7,0l0.1,0.1
			C18.7,21.9,18.7,22.2,18.9,22.7z"/>
		<path class="st1" d="M19.7,21.8L19.7,21.8c0.2-0.9,0.4-1.6,0.4-2.2c-0.6-0.1-1.3-0.4-2-1l-0.6,0.6l-0.1-0.1l1.4-1.3
			c-0.1,0.1-0.2,0.1-0.3,0c-0.2-0.2-0.4-0.3-0.6-0.3l0-0.1c0.5-0.5,0.9-0.6,1.1-0.3c0.2,0.2,0.1,0.4,0,0.6l0.8-0.8l-0.1-0.6l0.9-0.1
			c0.1,0,0.1,0,0.1,0c0,0,0,0.1-0.1,0.2l-0.4,0.4c0.4,0.7,0.6,1.5,0.6,2.1c0.5-0.1,1-0.4,1.6-0.9l0,0.1c-0.1,0.2-0.1,0.6,0.1,1
			c-0.7,0.4-1.4,0.6-1.9,0.6C20.6,20.2,20.2,21,19.7,21.8z M18.2,18.5c0.7,0.3,1.4,0.4,1.9,0.4c-0.1-0.5-0.3-1.1-0.6-1.6L18.2,18.5z
			"/>
		<path class="st1" d="M24.1,16.2c-0.1,0.1-0.2,0-0.3-0.1c-0.1-0.2-0.3-0.3-0.5-0.5l1.1,1.7c0.1,0.1,0.1,0.2,0,0.3
			c-0.1,0.1-0.2,0.2-0.4,0.3c-0.1-0.2-0.3-0.4-0.5-0.7c-0.2-0.3-0.4-0.6-0.5-0.7c0,0.4-0.1,0.8-0.2,1.2l-0.1,0
			c-0.1-0.8-0.2-1.4-0.4-2l-0.6,0.4L21.7,16l0.7-0.5L22,14.9c-0.2,0.2-0.4,0.3-0.6,0.5l-0.1-0.1c0.4-0.5,0.8-1,1-1.5l0.7,0
			c0,0,0.1,0,0.1,0.1c0,0.1-0.1,0.2-0.2,0.2c0,0-0.1,0.1-0.2,0.2c-0.1,0.1-0.1,0.1-0.2,0.2l0.5,0.7l0,0l0-0.4l0.6,0l0,0c0,0,0,0,0,0
			c-0.3-0.4-0.5-0.7-0.6-0.8l0.8-0.3l0.5-0.3l0-0.4l0.7-0.1c0,0,0.1,0,0.1,0c0,0.1,0,0.2,0,0.3l0.9,1.4c0.2,0.3,0.4,0.7,0.7,1.1
			c0,0,0,0.1,0,0.1c0,0-0.1,0-0.1,0.1c-0.2,0.1-0.3,0.2-0.3,0.3L26,15.8l-0.6,0.4l0.1,0.2c0.1,0.1,0,0.1-0.1,0.2
			c-0.1,0.1-0.3,0.2-0.4,0.3c-0.1-0.2-0.3-0.4-0.5-0.8c-0.1-0.2-0.2-0.4-0.3-0.4l-0.6-1l0,0c0,0,0,0.1-0.1,0.1L23,15.3l0.2,0.3
			c0.5-0.1,0.8-0.1,1,0.1C24.3,15.9,24.2,16.1,24.1,16.2z M24.4,13.4l-0.6,0.4l1.6,2.4l0.6-0.4L24.4,13.4z"/>
		<path class="st1" d="M26.8,12.2c-0.2,0.1-0.3,0-0.3-0.1c-0.1-0.2-0.3-0.4-0.4-0.5l0-0.1c0.5-0.1,0.8-0.1,0.9,0.1
			C27.1,11.8,27.1,12,26.8,12.2z M28,15.5c-0.1-0.3-0.3-0.8-0.6-1.4l-0.1-0.2c-0.1,0.2-0.3,0.4-0.4,0.6l-0.1,0
			c0.3-0.8,0.4-1.5,0.4-2.1l-1,0.4l0-0.1l0.9-0.4l0.1-0.4l0.8,0.1l0,0c0,0,0,0,0.1,0c0,0.1,0,0.1-0.1,0.2c-0.1,0.5-0.1,0.8-0.2,1
			l0,0.1c0.5-0.1,0.8-0.1,0.9,0.2c0.1,0.2,0,0.4-0.2,0.5c-0.1,0.1-0.2,0-0.3-0.1c-0.1-0.2-0.3-0.4-0.4-0.5l0.8,1.7
			c0,0.1,0,0.2-0.1,0.2C28.3,15.3,28.1,15.4,28,15.5z M30.8,13.4l0.8,0.1c0.1,0,0.1,0,0.1,0.1c0,0,0,0.1-0.1,0.1l-2.7,1.2l0-0.1
			l1-0.5l-0.9-2.1L28,12.6l0-0.1l0.8-0.4l-0.2-0.5c0,0,0-0.1-0.1-0.2c-0.2-0.3-0.3-0.6-0.4-0.8l0.8-0.3c0.1,0,0.1,0,0.1,0
			c0,0.1,0,0.2-0.1,0.3l0.5,1.2l0.1,0l0.1-0.5l0.7,0.2c0.1,0,0.1,0,0.1,0.1c0,0,0,0.1-0.1,0.1l-0.8,0.4l0.9,2.1l0.2-0.1L30.8,13.4z"
			/>
		<path class="st1" d="M35.3,10.5c-0.8-0.1-1.4-0.5-1.9-1c-0.3,0.8-0.9,1.5-1.9,2.1l-0.1,0c0.5-0.7,0.9-1.3,1-1.9
			c0.1-0.3,0.1-0.5,0.1-0.7l1,0c0.1,0,0.1,0,0.1,0.1c0,0.1,0,0.1-0.2,0.2l0,0c0.6,0.3,1.3,0.4,2.2,0.2l0,0.1
			C35.5,9.7,35.4,10,35.3,10.5z M35.1,10.5l0.7,0.3c0.1,0,0.1,0.1,0.1,0.1c0,0,0,0.1-0.1,0.1l-1.8,0.5c-0.3,0.5-0.6,1-0.8,1.2
			l1.6-0.5c-0.2-0.2-0.4-0.4-0.6-0.6l0-0.1c0.9,0.1,1.5,0.4,1.6,0.7c0,0.3-0.1,0.4-0.4,0.5c-0.1,0-0.2,0-0.3-0.1
			c-0.1-0.1-0.1-0.2-0.2-0.3c-0.7,0.3-1.3,0.6-2,0.9c0,0.2,0,0.2-0.1,0.3c0,0-0.1,0-0.1-0.1l-0.4-0.6c0.2-0.1,0.4-0.1,0.4-0.2
			c0.1-0.3,0.1-0.6,0.2-0.9L31.7,12l0-0.1l3.2-0.8L35.1,10.5z M33.9,10.1l0.7,0.3c0,0,0.1,0,0.1,0.1c0,0-0.1,0.1-0.1,0.1l-2,0.5
			l0-0.1l1.2-0.3L33.9,10.1z"/>
		<path class="st1" d="M38.5,10.8c-0.1,0-0.2-0.1-0.2-0.2c0-0.3-0.1-0.5-0.2-0.6l0.2,2.2c0,0.1,0,0.2-0.2,0.2
			c-0.2,0-0.4,0.1-0.5,0.1c0-0.5,0-1.1-0.1-1.7c-0.1,0.3-0.4,0.6-0.7,0.9l-0.1-0.1c0.3-0.7,0.5-1.3,0.6-2l-0.6,0l0-0.1l0.7-0.1
			l-0.1-0.7c-0.2,0.1-0.4,0.1-0.7,0.1l0-0.1c0.6-0.3,1.1-0.6,1.3-0.9l0.6,0.4c0.1,0,0.1,0.1,0.1,0.1c0,0.1,0,0.1-0.1,0.1
			c-0.1,0-0.1,0-0.2,0c-0.1,0-0.3,0.1-0.4,0.1L38,9.4l0,0L38.3,9l0.5,0.4c0,0,0.1,0,0,0.1c0,0-0.1,0-0.1,0L38,9.6l0,0.3
			c0.5,0.1,0.7,0.3,0.7,0.5C38.8,10.6,38.7,10.7,38.5,10.8z M40.8,10l0.5,0.3c0.1,0.1,0,0.1,0,0.1l-0.6,0.1c0,0.5,0.1,1,0.1,1.4
			c0,0.1,0,0.2-0.1,0.2c-0.2,0.1-0.4,0.1-0.6,0.1c0-0.5,0-0.5,0-0.1c0-0.4,0-0.9-0.1-1.3l0-0.1l-1.5,0.3l0-0.1l1.5-0.4l-0.1-1.8
			c0-0.1,0-0.3-0.1-0.5c0-0.2,0-0.4,0-0.5l0.8,0c0.1,0,0.1,0,0.1,0c0,0.1,0,0.2-0.2,0.2l0.2,2.3L40.8,10z M39.4,10.5
			c-0.1,0-0.2-0.1-0.3-0.2c-0.1-0.3-0.3-0.5-0.4-0.7l0,0c0.7,0,1,0.2,1,0.5C39.7,10.4,39.6,10.5,39.4,10.5z M39.4,9.3
			c-0.1,0-0.2-0.1-0.3-0.2c-0.1-0.2-0.2-0.5-0.4-0.7l0,0c0.7,0,1,0.2,1,0.5C39.7,9.1,39.6,9.3,39.4,9.3z"/>
		<path class="st1" d="M42.3,9.8c-0.2,0-0.3-0.2-0.3-0.4c0-0.1,0.1-0.2,0.2-0.3c0.2-0.1,0.4-0.3,0.4-0.6l0.1,0
			c0.1,0.1,0.1,0.2,0.1,0.4l2,0.2C45,8.7,45.1,8.3,45.2,8L46,8.3c0.1,0,0.1,0,0.1,0.1c0,0.1-0.1,0.1-0.3,0.1
			c-0.3,0.2-0.5,0.4-0.7,0.5l0.5,0L46,8.8l0.6,0.5c0,0,0.1,0.1,0.1,0.1c0,0.1-0.1,0.1-0.3,0.1c-0.2,0.1-0.4,0.2-0.7,0.3l0.1,0.1
			c0.1,0,0.1,0.1,0.1,0.1c0,0.1-0.1,0.1-0.3,0.1c-0.3,0.1-0.5,0.2-0.8,0.2c0,0,0.1,0,0.1,0.1c0,0.1-0.1,0.1-0.2,0.2l0,0.2l0.9,0.1
			l0.4-0.4l0.6,0.5c0,0,0.1,0.1,0,0.1c0,0-0.1,0-0.1,0l-1.8-0.2c0,0.1,0,0.3,0,0.5c0,0.2,0,0.4,0,0.5c0,0.3-0.3,0.5-1,0.5
			c0-0.4-0.3-0.6-0.8-0.8l0-0.1l0.9,0.1c0.2,0,0.3,0,0.3-0.2l0-0.4l0-0.2l-1.9-0.2l0-0.1l1.9,0.2c0-0.1,0-0.1,0-0.2
			c0-0.1,0-0.2,0-0.3l0.6,0.1l0.4-0.5l-1.9-0.2l0-0.1l1.8,0.2l0.3-0.3l0.4,0.3l0.2-0.4L42.8,9c0,0,0,0,0,0.1c0,0,0,0.1,0,0.1
			C42.8,9.6,42.6,9.8,42.3,9.8z M43.3,8.9c-0.1,0-0.2-0.1-0.2-0.2c0-0.3-0.1-0.5-0.2-0.7l0,0c0.6,0.1,0.9,0.3,0.9,0.6
			C43.7,8.8,43.6,8.9,43.3,8.9z M44.3,8.9c-0.1,0-0.2-0.1-0.2-0.3c0-0.3-0.1-0.6-0.2-0.7l0,0c0.6,0.2,0.9,0.4,0.9,0.6
			C44.7,8.7,44.5,8.9,44.3,8.9z"/>
		<path class="st1" d="M47.1,12.7c0-0.1,0.1-0.2,0.1-0.4c0.1-0.2,0.1-0.4,0.1-0.4l0.2-0.6c0-0.1,0.1-0.2,0.1-0.4
			c0-0.1,0.1-0.2,0.1-0.3l0.8,0.4l2.1,0.6l0.3-0.3l0.6,0.4c0.1,0,0.1,0.1,0.1,0.1c0,0.1-0.1,0.1-0.3,0.2l-0.1,0.3c0,0,0,0.1-0.1,0.2
			C51,12.8,51,13,50.9,13.2c-0.1,0.3-0.4,0.4-1,0.3c0.1-0.3,0-0.5-0.2-0.6c-0.2,0-0.3,0-0.4-0.1l0.1-0.2l-0.6-0.2l0,0.1
			c0,0.1,0,0.1-0.1,0.1c-0.1,0-0.2,0-0.4-0.1c-0.1,0-0.1,0-0.2,0c0,0,0-0.2,0.1-0.3c0-0.2,0.1-0.3,0.1-0.3l0-0.2c0,0,0-0.1,0.1-0.2
			c0-0.1,0-0.2,0.1-0.3l0.6,0.4l0.4,0.1l0.2-0.3l0.5,0.4l0,0c0,0,0.1,0.1,0.1,0.1c0,0.1-0.1,0.1-0.2,0.2L50,12.8l0,0l0.1,0
			c0.1,0,0.2,0,0.3-0.2l0.3-1.1L48.3,11l-0.5,1.7c0,0.1-0.1,0.1-0.2,0.1C47.5,12.8,47.3,12.7,47.1,12.7z M51.7,9.6l0.4,0.5
			c0,0,0,0.1,0,0.1c0,0-0.1,0-0.1,0l-4.2-1.1l0-0.1l1.8,0.5c0,0,0-0.1,0-0.1c0-0.2,0-0.3-0.1-0.5l0,0c0.6,0.1,0.8,0.3,0.8,0.6
			c0,0.1-0.1,0.2-0.2,0.2l1.2,0.3L51.7,9.6z M50.2,11.1l0-0.2l-1.4-0.4l0,0.1c0,0.1-0.1,0.1-0.2,0.1c-0.1,0-0.2,0-0.3-0.1
			c-0.1,0-0.1,0-0.2,0c0,0,0-0.1,0.1-0.3c0.1-0.1,0.1-0.2,0.1-0.3l0-0.1c0.1-0.2,0.1-0.4,0.1-0.5l0.7,0.4l1.2,0.3l0.3-0.3l0.6,0.4
			c0,0,0.1,0.1,0,0.1c0,0.1-0.1,0.1-0.2,0.2l0,0.1c0,0.2-0.1,0.4-0.1,0.6c0,0.1,0,0.1-0.1,0.1C50.6,11.2,50.4,11.2,50.2,11.1z
			 M49.6,11.9L49,11.7l-0.2,0.6l0.6,0.2L49.6,11.9z M50.4,10.3L49,9.9l-0.2,0.6l1.4,0.4L50.4,10.3z"/>
		<path class="st1" d="M55.9,13.7l0.4,0.6c0,0.1,0,0.1,0,0.1c0,0-0.1,0-0.2,0L55.3,14c0,0-0.1,0.1-0.1,0.3c-0.1,0.2-0.2,0.4-0.2,0.5
			c-0.1,0.3-0.5,0.4-1.2,0.1c0.2-0.3,0.1-0.5-0.3-0.8l0-0.1l0.6,0.3c0.1,0.1,0.2,0,0.3-0.1l0.2-0.5l-2.3-1.1l0-0.1l2.3,1.1l0.2-0.5
			l-2.4-1.1l0.1-0.1l1.6,0.7l0.2-0.4l0-0.1l-1.2-0.5l0-0.1l1.2,0.5c0,0,0.1-0.1,0.1-0.3c0-0.1,0.1-0.1,0.1-0.2l0.2,0.1
			c0.1-0.1,0.2-0.2,0.3-0.3l-1-0.4c0.3,0.2,0.4,0.4,0.3,0.6c-0.1,0.2-0.2,0.2-0.5,0.1c-0.1,0-0.2-0.1-0.1-0.3C54,11.3,54,11.1,54,11
			L54,11c-0.4,0.2-0.8,0.3-1.3,0.3l0-0.1c0.5-0.3,0.9-0.7,1.2-1l0.7,0.5c0,0,0.1,0,0,0.1c0,0.1-0.1,0.1-0.3,0l-0.2,0.1l0.4,0.2
			l0.4-0.2l0.3,0.5c0.2-0.2,0.3-0.3,0.4-0.5l0.6,0.5c0,0,0.1,0.1,0,0.1c0,0.1-0.1,0.1-0.3,0.1c-0.1,0-0.2,0.1-0.3,0.1l0.7,0.3
			l0.4-0.2l0.3,0.6c0,0,0,0.1,0,0.1c0,0-0.1,0-0.1,0l-1.3-0.6c0.3,0.2,0.4,0.4,0.4,0.5c-0.1,0.2-0.2,0.2-0.4,0.1
			c-0.1,0-0.1-0.1-0.1-0.2c0.1-0.2,0.1-0.3,0.1-0.5l-0.1-0.1c-0.2,0.1-0.4,0.1-0.7,0.2l0.4,0.2c0.1,0.1,0.1,0.1,0.1,0.1
			c0,0.1-0.1,0.1-0.3,0.1l-0.1,0.1l0.7,0.3l0.4-0.2l0.3,0.6c0,0,0,0.1,0,0.1c0,0-0.1,0-0.2,0L55,12.5L54.8,13l0.9,0.4l0.5-0.3
			l0.4,0.6c0,0.1,0,0.1,0,0.1c0,0-0.1,0-0.1,0l-0.9-0.4l-0.2,0.5l0.1,0.1L55.9,13.7z M53,14.1c-0.1,0-0.2-0.1-0.2-0.3
			c0.1-0.3,0.1-0.5,0-0.8l0.1,0c0.6,0.3,0.8,0.6,0.7,0.9C53.4,14.1,53.2,14.2,53,14.1z"/>
		<path class="st1" d="M56.9,14.7L56.9,14.7c0.7-0.5,1.2-1,1.7-1.5l-0.4-0.3l0.1-0.1l0.9,0.6l0.5-0.2l0.2,0.6c0,0.1,0,0.1,0,0.1
			c0,0-0.1,0-0.1-0.1l-0.5-0.3c-0.3,0.3-0.6,0.5-0.9,0.6l0.1,0.1l0.1,0.1l0.3-0.2l0.3,0.5c0,0,0,0.1,0,0.1c0,0-0.1,0.1-0.3,0.1
			l-0.3,0.4c-0.2,0.2-0.4,0.6-0.7,1c0,0.1-0.1,0.1-0.2,0.1c-0.1,0-0.2-0.1-0.4-0.2l0.2-0.3l-0.2-0.1L57,16.1c0,0.1-0.1,0.1-0.2,0
			c-0.1,0-0.2-0.1-0.3-0.1c-0.1,0-0.1,0-0.1-0.1c0.1-0.1,0.2-0.3,0.4-0.5c0.1-0.1,0.1-0.2,0.2-0.2l0.4-0.6c-0.1,0-0.1,0-0.2,0.1
			C57.1,14.6,57,14.6,56.9,14.7z M61.8,14.6l0.2,0.6c0,0.1,0,0.1,0,0.1c0,0-0.1,0-0.1-0.1L61.5,15l-0.7,1.1l0.3-0.1l0.2,0.6
			c0,0.1,0,0.1,0,0.1c0,0-0.1,0-0.2,0l-0.4-0.3l-0.4,0.6c0,0-0.1,0.2-0.3,0.4c-0.3,0.4-0.5,0.7-0.5,0.8c0,0.1-0.1,0.1-0.2,0
			c-0.1-0.1-0.3-0.1-0.5-0.3c0.1-0.2,0.3-0.5,0.6-0.9c0.1-0.2,0.2-0.2,0.2-0.3l0.5-0.7l-0.4-0.3c-0.7,1.1-1.6,1.4-2.7,1.1l0-0.1
			c0.9,0,1.6-0.5,2.1-1.4l-0.3-0.2l0.1-0.1l0.3,0.2l0.1-0.1l0.7-1.1l-0.2-0.1l0.1-0.1l1.4,0.9L61.8,14.6z M58.4,14.5l-0.2-0.1
			l-0.9,1.3l0.2,0.1L58.4,14.5z M59.9,15.5l-0.1,0.1l0.4,0.3l0.8-1.2l-0.4-0.3L59.9,15.5z"/>
		<path class="st1" d="M60.1,18.8L60.1,18.8c1.1,0.3,1.9,0.2,2.4-0.3l-0.8-0.8l0.1-0.1l0.8,0.8c0.1-0.1,0.1-0.1,0.2-0.2
			c0.1-0.1,0.2-0.2,0.3-0.3c-0.5-0.1-1-0.3-1.4-0.6l0-0.1c0.8,0.1,1.4,0.1,1.8-0.1l0.3,0.7c0,0.1,0,0.1,0,0.1c-0.1,0-0.2,0-0.3-0.1
			c-0.2,0-0.3,0-0.4,0l0.5,0.6c0,0,0.1,0.1,0,0.1c-0.1,0.1-0.2,0.1-0.3,0c-0.1,0.1-0.2,0.2-0.3,0.2l0.3,0.3l0.4-0.1l0.3,0.7
			c0,0.1,0,0.1,0,0.1c-0.1,0.1-0.2,0.1-0.3,0l-0.6,0.6c-0.1,0.1-0.1,0.2,0,0.2l0.1,0.1c0.1,0.1,0.2,0.1,0.3,0l0.7-0.3l0,0.1L64,21.1
			c-0.1,0.1-0.1,0.2-0.1,0.3c0,0.1,0,0.2-0.1,0.3c-0.2,0.2-0.5,0.1-0.8-0.2L62.5,21c-0.3-0.3-0.3-0.5,0-0.8l0.9-0.9L63,19
			C62.3,19.7,61.3,19.6,60.1,18.8z M62.3,17c-0.1-0.1-0.1-0.3,0-0.5c0.1-0.1,0.2-0.1,0.3-0.1c0.3,0.1,0.5,0,0.8-0.1l0,0
			c0,0.1-0.1,0.2-0.1,0.3l0.9,0.8c0,0,0-0.1,0.1-0.1c0.1-0.2,0.2-0.4,0.2-0.5l0,0c0.5,0.4,0.6,0.7,0.4,0.9c-0.1,0.1-0.2,0.1-0.4,0.1
			l0.8,0.7l0.4-0.1l0.2,0.8c0,0.1,0,0.1,0,0.1c-0.1,0.1-0.1,0-0.3-0.1c-0.3-0.1-0.5-0.1-0.7-0.2c0.2,0.4,0.2,0.6,0.1,0.7
			c-0.2,0.2-0.4,0.2-0.6,0.1c-0.1-0.1-0.1-0.2-0.1-0.4c0-0.5-0.1-1-0.2-1.5l0.1,0c0.3,0.4,0.5,0.7,0.6,0.9l0.4-0.2l-2-1.9
			c0,0.1-0.1,0.1-0.1,0.2C62.8,17.2,62.6,17.2,62.3,17z"/>
		<path class="st1" d="M64.9,22.5c0.2-0.2,0.3-0.3,0.3-0.5l-0.9,0.6c-0.1,0.1-0.1,0.1-0.2,0c-0.2-0.2-0.3-0.3-0.3-0.4
			c0.6-0.4,1.2-0.9,1.8-1.3l0.6-0.5c0.4-0.3,0.7-0.5,0.9-0.7l0.3,0.7l0.1,0.1l0.4,0l0.1,0.7c0,0,0,0,0,0.1c0,0,0,0,0,0.1
			c-0.1,0-0.2,0-0.3-0.1c-0.4,0.1-0.8,0.1-1.3,0.1c0,0.6-0.1,1-0.5,1.3C65.6,23,65.3,22.9,64.9,22.5z M64.3,23.1L64.3,23.1
			c0.8,0.3,1.5,0.2,2.3-0.4l-0.3-0.4l0.1-0.1l1.2,1.6l0.5,0l0,0.8c0,0,0,0.1,0,0.1c0,0-0.1,0-0.1-0.1L67.5,24l-1,0.7
			c-0.1,0-0.1,0.1,0,0.1l0,0c0,0.1,0.1,0.1,0.3,0l0.9-0.3l0,0.1l-0.6,0.4c-0.1,0.1-0.2,0.2-0.2,0.3c0,0.1,0,0.2-0.1,0.2
			c-0.2,0.1-0.4,0.1-0.7-0.2L65.9,25c-0.2-0.3-0.2-0.5,0.2-0.8l1.1-0.8L67,23.3C66.1,24,65.2,23.9,64.3,23.1z M67.5,20.8l-0.2-0.3
			l-2,1.5l0.1,0.1c0.1,0.1,0.1,0.1,0.3,0c0.3-0.2,0.6-0.5,0.7-0.8L67.5,20.8z M67.1,22c-0.1-0.2-0.1-0.4,0.1-0.5
			c0.1-0.1,0.2-0.1,0.3,0c0.2,0.1,0.4,0,0.6,0l0,0c0,0.1-0.1,0.1-0.1,0.2c0,0,0,0,0,0l0.3,0.5c0-0.1,0-0.1,0.1-0.2
			c0.1-0.1,0.3-0.3,0.3-0.4l0,0c0.3,0.5,0.4,0.8,0.2,0.9c-0.1,0.1-0.3,0.1-0.4,0l0.3,0.5l0.5,0l0,0.7c0,0.1,0,0.1,0,0.1
			c-0.1,0.1-0.1,0-0.2-0.1c-0.2-0.1-0.4-0.2-0.6-0.3l0,0.4c0,0.1,0,0.1,0,0.1c0,0-0.1,0-0.1-0.1l-1.2-1.6l0.1-0.1l0.8,1l0.5,0l0,0.1
			l0.3-0.1l-0.9-1.3c-0.1,0.1-0.1,0.1-0.2,0.2C67.5,22.2,67.3,22.2,67.1,22z"/>
		<path class="st1" d="M11.6,28.6l2.7,1.2L14.1,30l-2.7-1.2L11.6,28.6z"/>
		<path class="st1" d="M10.5,31.3l2.8-0.7L11,29.8l0.1-0.3l2.8,1l-0.1,0.3l-2.8,0.7l2.2,0.8l-0.1,0.3l-2.8-1L10.5,31.3z"/>
		<path class="st1" d="M9.9,33c0.1-0.4,0.3-0.7,0.6-0.9l0.2,0.3c-0.3,0.2-0.4,0.4-0.5,0.7c-0.1,0.4,0,0.7,0.4,0.8c0.1,0,0.3,0,0.4,0
			c0.1-0.1,0.1-0.1,0.2-0.3l0.1-0.3c0.1-0.2,0.2-0.4,0.4-0.5c0.2-0.1,0.4-0.1,0.6-0.1c0.5,0.1,0.7,0.6,0.6,1.1
			c-0.1,0.4-0.3,0.6-0.5,0.8l-0.1-0.2c0.2-0.1,0.3-0.3,0.4-0.6c0.1-0.4-0.1-0.7-0.4-0.7c-0.1,0-0.3,0-0.4,0
			c-0.1,0.1-0.2,0.2-0.3,0.3l-0.1,0.3c-0.1,0.3-0.2,0.4-0.3,0.5c-0.2,0.1-0.4,0.2-0.6,0.1C10,34.1,9.8,33.6,9.9,33z"/>
		<path class="st1" d="M12,35.9l-2.6-0.5l0.1-0.3l2.6,0.5l0.2-0.8l0.3,0.1l-0.4,2l-0.3-0.1L12,35.9z"/>
		<path class="st1" d="M9.2,36.6l2.9,0.5L12,37.4l-2.9-0.5L9.2,36.6z"/>
		<path class="st1" d="M11.6,38.8l-2.7-0.3l0-0.3l2.7,0.3l0.1-0.8l0.3,0l-0.2,2l-0.3,0L11.6,38.8z"/>
		<path class="st1" d="M8.7,40.7c0-0.6,0.4-1,1-1l2,0.1l0,0.3l-2-0.1C9.3,40,9,40.3,9,40.7c0,0.4,0.3,0.7,0.7,0.7l2,0.1l0,0.3
			l-2-0.1C9.1,41.8,8.7,41.3,8.7,40.7z"/>
		<path class="st1" d="M11.4,43.2l-2.7,0.1l0-0.3l2.7-0.1l0-0.9l0.3,0l0.1,2l-0.3,0L11.4,43.2z"/>
		<path class="st1" d="M8.8,44.6l2.9-0.3l0.2,1.8l-0.3,0l-0.2-1.5l-1,0.1l0.1,1.3l-0.3,0l-0.1-1.3l-1.1,0.1l0.2,1.5l-0.3,0L8.8,44.6
			z"/>
		<path class="st1" d="M9.8,49.4c-0.2-0.2-0.4-0.4-0.5-0.7c-0.1-0.3,0-0.6,0.1-0.8c0.2-0.3,0.5-0.4,1.1-0.5c0.6-0.1,0.9-0.2,1.2,0
			c0.2,0.2,0.4,0.4,0.5,0.7c0.1,0.3,0,0.6-0.1,0.8c-0.2,0.3-0.5,0.4-1.1,0.5C10.5,49.5,10.2,49.6,9.8,49.4z M12,48.7
			c0.1-0.2,0.1-0.4,0.1-0.5c0-0.2-0.2-0.4-0.3-0.5c-0.2-0.1-0.4-0.1-1,0c-0.6,0.1-0.8,0.2-0.9,0.4c-0.1,0.2-0.1,0.4-0.1,0.5
			c0,0.2,0.2,0.4,0.3,0.5c0.2,0.1,0.4,0.1,1,0C11.6,49,11.8,48.9,12,48.7z"/>
		<path class="st1" d="M12.4,49.9l-1,0.3l0.4,1.2l-0.3,0.1l-0.4-1.2l-1.3,0.4l-0.1-0.3l2.8-0.8l0.5,1.8l-0.3,0.1L12.4,49.9z"/>
		<path class="st1" d="M11.4,54.9l0.5-0.5l-0.5-1.2l-0.7,0L10.6,53l3.1-0.1l0.1,0.2l-2.3,2.1L11.4,54.9z M13.4,53.2l-1.7,0.1l0.4,1
			L13.4,53.2z"/>
		<path class="st1" d="M12.7,57c-0.2-0.1-0.4-0.3-0.6-0.6l-0.4-0.9l2.7-1.3l0.4,0.9c0.1,0.3,0.2,0.6,0.1,0.8
			c-0.1,0.4-0.6,0.6-0.9,0.8C13.5,56.9,13.1,57.2,12.7,57z M14.5,55.9c0.1-0.2,0-0.4-0.1-0.6l-0.3-0.6l-2.1,1l0.3,0.6
			c0.1,0.2,0.2,0.4,0.4,0.4c0.3,0.1,0.7-0.1,1-0.3C14.1,56.3,14.4,56.2,14.5,55.9z"/>
		<path class="st1" d="M13.2,58.6l-0.1-0.2l2.1-2.3l0.2,0.3l-1.7,1.9l2.5-0.5l0.2,0.3L13.2,58.6z"/>
		<path class="st1" d="M14.8,61.1l0.4-0.6l-0.7-1.1l-0.7,0.2l-0.2-0.3l3.1-0.7l0.1,0.2L15,61.4L14.8,61.1z M16.4,59l-1.6,0.4
			l0.6,0.9L16.4,59z"/>
		<path class="st1" d="M16.4,63.1l0.9-2.7l-1.9,1.5l-0.2-0.2l2.3-1.8l0.2,0.2l-0.9,2.7l1.9-1.5l0.2,0.2l-2.3,1.8L16.4,63.1z"/>
		<path class="st1" d="M17.7,64.6c-0.2-0.2-0.3-0.5-0.3-0.8c0-0.4,0.2-0.6,0.7-1c0.5-0.4,0.7-0.6,1.1-0.6c0.3,0,0.5,0.1,0.7,0.3
			c0.4,0.4,0.4,0.9,0.1,1.3l-0.2-0.2c0.2-0.3,0.2-0.6,0-0.9c-0.1-0.1-0.3-0.2-0.5-0.2c-0.3,0-0.4,0.1-0.9,0.5
			c-0.5,0.4-0.6,0.6-0.6,0.8c0,0.2,0.1,0.4,0.2,0.5c0.3,0.3,0.6,0.3,0.9,0.1l0.2,0.2C18.5,65.1,18,65,17.7,64.6z"/>
		<path class="st1" d="M18.8,65.8l2-2.2l1.3,1.2L22,65.1l-1.1-1l-0.7,0.8l1,0.9l-0.2,0.2L20,65l-0.7,0.8l1.1,1L20.2,67L18.8,65.8z"
			/>
		<path class="st1" d="M22.1,68.2c-0.3,0-0.5-0.1-0.8-0.2l-0.8-0.6l1.8-2.3l0.8,0.6c0.2,0.2,0.4,0.4,0.4,0.7
			c0.1,0.4-0.2,0.8-0.5,1.1C22.9,67.8,22.6,68.2,22.1,68.2z M23.3,66.4c0-0.2-0.1-0.4-0.3-0.5l-0.5-0.4L21,67.3l0.5,0.4
			c0.2,0.1,0.4,0.2,0.6,0.2c0.3,0,0.6-0.4,0.8-0.7C23.1,67,23.3,66.7,23.3,66.4z"/>
		<path class="st1" d="M24,69.9c-0.4-0.2-0.6-0.5-0.6-0.9l0.3-0.1c0.1,0.3,0.2,0.5,0.5,0.7c0.4,0.2,0.7,0.2,0.9-0.1
			c0.1-0.1,0.1-0.3,0.1-0.4c0-0.1-0.1-0.2-0.2-0.3l-0.3-0.2c-0.2-0.2-0.3-0.3-0.3-0.5c-0.1-0.2,0-0.4,0.1-0.6
			c0.3-0.4,0.8-0.5,1.2-0.2c0.3,0.2,0.5,0.4,0.6,0.7l-0.3,0.1c-0.1-0.2-0.2-0.4-0.4-0.6c-0.3-0.2-0.6-0.1-0.8,0.1
			c-0.1,0.1-0.1,0.2-0.1,0.4c0,0.1,0.1,0.2,0.2,0.4l0.2,0.2c0.2,0.2,0.3,0.3,0.3,0.5c0.1,0.2,0,0.4-0.1,0.6
			C25.1,70.2,24.5,70.2,24,69.9z"/>
		<path class="st1" d="M27.4,68.8l-1.3,2.3L25.9,71l1.3-2.3l-0.8-0.4l0.1-0.2l1.8,1l-0.1,0.2L27.4,68.8z"/>
		<path class="st1" d="M28.2,72.2c-0.5-0.2-0.8-0.8-0.5-1.3l0.8-1.8l0.3,0.1l-0.8,1.8c-0.2,0.4,0,0.8,0.3,1c0.4,0.2,0.8,0,1-0.4
			l0.8-1.8l0.3,0.1l-0.8,1.8C29.3,72.2,28.7,72.4,28.2,72.2z"/>
		<path class="st1" d="M31.5,73.1c-0.2,0.1-0.5,0.1-0.8,0l-1-0.3l1-2.8l1,0.3c0.3,0.1,0.5,0.3,0.6,0.5c0.2,0.4,0,0.8-0.1,1.2
			C32.1,72.5,31.9,73,31.5,73.1z M32.1,71c-0.1-0.2-0.3-0.3-0.5-0.4L31,70.4l-0.8,2.3l0.6,0.2c0.2,0.1,0.4,0.1,0.6,0
			c0.3-0.1,0.4-0.5,0.5-0.9C32,71.6,32.2,71.3,32.1,71z"/>
		<path class="st1" d="M32.3,73.7l0.8-2.8l0.3,0.1l-0.8,2.8L32.3,73.7z"/>
		<path class="st1" d="M33.3,74l0.7-2.9l1.8,0.4l-0.1,0.3l-1.5-0.4l-0.2,1l1.3,0.3L35.1,73l-1.3-0.3l-0.3,1l1.5,0.4L35,74.4L33.3,74
			z"/>
		<path class="st1" d="M36.3,74.6c-0.4-0.1-0.7-0.2-0.9-0.6l0.2-0.2c0.2,0.3,0.4,0.4,0.7,0.5c0.4,0.1,0.7-0.1,0.8-0.4
			c0-0.2,0-0.3-0.1-0.4c-0.1-0.1-0.1-0.1-0.4-0.2l-0.3-0.1c-0.2-0.1-0.4-0.2-0.5-0.3c-0.1-0.2-0.2-0.3-0.1-0.6
			c0.1-0.5,0.5-0.8,1.1-0.7c0.4,0.1,0.6,0.2,0.8,0.5l-0.2,0.2c-0.2-0.2-0.3-0.3-0.6-0.4c-0.4-0.1-0.7,0.1-0.7,0.4
			c0,0.1,0,0.3,0.1,0.4c0.1,0.1,0.2,0.2,0.4,0.2l0.3,0.1c0.3,0.1,0.4,0.2,0.5,0.3c0.1,0.2,0.2,0.4,0.1,0.6
			C37.4,74.5,36.9,74.7,36.3,74.6z"/>
		<path class="st1" d="M38.7,74.9l0.3-2.9l0.3,0L39,75L38.7,74.9z"/>
		<path class="st1" d="M41.6,75.1l-1.5-2.4L40,75l-0.3,0l0.1-3l0.3,0l1.5,2.4l0.1-2.4l0.3,0l-0.1,3L41.6,75.1z"/>
		<path class="st1" d="M45.2,74.9l-0.1-1.3l-1.4,0.1l0.1,1.3l-0.3,0l-0.2-2.9l0.3,0l0.1,1.3l1.4-0.1L45,72l0.3,0l0.2,2.9L45.2,74.9z
			"/>
		<path class="st1" d="M47.2,74.7c-0.6,0.1-1.1-0.2-1.2-0.8l-0.3-2l0.3-0.1l0.3,1.9c0.1,0.4,0.4,0.7,0.8,0.6
			c0.4-0.1,0.7-0.4,0.6-0.9l-0.3-1.9l0.3-0.1l0.3,2C48.2,74.1,47.8,74.6,47.2,74.7z"/>
		<path class="st1" d="M51.1,73.8l-0.6-2.2l-0.3,1.9L50,73.6l-1.2-1.5l0.6,2.2L49,74.3l-0.7-2.9l0.3-0.1l1.5,1.8l0.4-2.3l0.3-0.1
			l0.7,2.9L51.1,73.8z"/>
		<path class="st1" d="M53.8,72.9l-0.4-0.5l-1.2,0.4l0,0.7l-0.3,0.1l0-3.1l0.2-0.1l2,2.4L53.8,72.9z M52.1,70.8l0,1.7l1-0.4
			L52.1,70.8z"/>
		<path class="st1" d="M56.2,71.8l-2.4-1.5l1,2.2l-0.3,0.1l-1.2-2.7l0.3-0.1l2.4,1.5l-1-2.2l0.3-0.1l1.2,2.7L56.2,71.8z"/>
		<path class="st1" d="M57.1,71.4l-1.4-2.6l0.3-0.1l1.4,2.6L57.1,71.4z"/>
		<path class="st1" d="M57.4,68.1l1.4,2.3l-0.3,0.2l-1.4-2.3l-0.7,0.4l-0.1-0.2l1.7-1l0.1,0.2L57.4,68.1z"/>
		<path class="st1" d="M59.8,69.8l-1.6-2.5l0.3-0.2l1.6,2.5L59.8,69.8z"/>
		<path class="st1" d="M60.6,69.2l-1.7-2.4l1.5-1.1l0.2,0.2l-1.2,0.9l0.6,0.8l1-0.8l0.2,0.2l-1,0.8l0.6,0.9l1.2-0.9l0.2,0.2
			L60.6,69.2z"/>
		<path class="st1" d="M63.1,67.4c-0.3,0.3-0.6,0.4-1,0.4l0-0.3c0.3,0,0.6-0.1,0.8-0.3c0.3-0.3,0.4-0.6,0.2-0.9
			c-0.1-0.1-0.2-0.2-0.3-0.2c-0.1,0-0.2,0-0.4,0.1l-0.3,0.2c-0.2,0.1-0.4,0.2-0.6,0.2c-0.2,0-0.4-0.1-0.5-0.3
			c-0.3-0.4-0.3-0.9,0.2-1.2c0.3-0.2,0.5-0.3,0.9-0.3l0,0.3c-0.2,0-0.5,0-0.7,0.2c-0.3,0.3-0.3,0.6-0.1,0.8c0.1,0.1,0.2,0.2,0.3,0.2
			c0.1,0,0.3-0.1,0.4-0.1l0.3-0.2c0.2-0.1,0.4-0.2,0.5-0.2c0.2,0,0.4,0.1,0.6,0.3C63.7,66.5,63.6,67,63.1,67.4z"/>
		<path class="st1" d="M66.1,64.5l-0.6-0.3l-0.9,0.9l0.3,0.6L64.6,66l-1.3-2.8l0.2-0.2l2.9,1.3L66.1,64.5z M63.7,63.4l0.7,1.5
			l0.8-0.8L63.7,63.4z"/>
		<path class="st1" d="M67.8,62.5L65,62.2l1.8,1.5L66.6,64l-2.3-1.9l0.2-0.2l2.8,0.3l-1.8-1.5l0.2-0.2l2.3,1.9L67.8,62.5z"/>
		<path class="st1" d="M69.2,60.1c0,0.2,0,0.5-0.2,0.8l-0.6,0.8L66,60l0.6-0.8c0.2-0.3,0.4-0.4,0.7-0.5c0.4-0.1,0.8,0.2,1.1,0.4
			C68.7,59.4,69.2,59.7,69.2,60.1z M67.3,59c-0.2,0-0.4,0.2-0.5,0.4l-0.4,0.5l2,1.4l0.4-0.5c0.1-0.2,0.2-0.4,0.2-0.6
			c-0.1-0.3-0.4-0.5-0.7-0.7C67.9,59.2,67.6,59,67.3,59z"/>
		<path class="st1" d="M70.8,58.1c-0.2,0.4-0.5,0.6-0.8,0.7l-0.1-0.3c0.3-0.1,0.5-0.3,0.7-0.5c0.2-0.4,0.2-0.7-0.1-0.9
			C70.3,57,70.1,57,70,57c-0.1,0-0.2,0.1-0.3,0.3l-0.2,0.3c-0.1,0.2-0.3,0.3-0.5,0.4c-0.2,0.1-0.4,0-0.6-0.1
			c-0.4-0.2-0.6-0.7-0.3-1.2c0.2-0.3,0.4-0.5,0.7-0.6l0.1,0.3c-0.2,0.1-0.4,0.2-0.6,0.5c-0.2,0.3-0.1,0.7,0.2,0.8
			c0.1,0.1,0.2,0.1,0.4,0c0.1,0,0.2-0.1,0.3-0.3l0.2-0.3c0.2-0.2,0.3-0.3,0.4-0.4c0.2-0.1,0.4-0.1,0.6,0.1
			C71,57.1,71.1,57.6,70.8,58.1z"/>
		<path class="st1" d="M71.9,55.1c0.1,0.3,0.1,0.5,0,0.8c-0.1,0.3-0.3,0.5-0.6,0.6c-0.4,0.1-0.6,0-1.2-0.2c-0.6-0.3-0.8-0.4-1-0.8
			c-0.1-0.3-0.1-0.5,0-0.8c0.1-0.3,0.3-0.5,0.6-0.6c0.4-0.1,0.6,0,1.2,0.2C71.5,54.6,71.8,54.7,71.9,55.1z M69.8,54.4
			c-0.2,0.1-0.3,0.2-0.4,0.4c-0.1,0.2-0.1,0.4,0,0.6c0.1,0.2,0.3,0.4,0.8,0.6c0.6,0.3,0.8,0.3,1,0.2c0.2-0.1,0.3-0.2,0.4-0.4
			c0.1-0.2,0.1-0.4,0-0.6c-0.1-0.2-0.3-0.4-0.8-0.6C70.3,54.4,70.1,54.3,69.8,54.4z"/>
		<path class="st1" d="M72.9,53.5c-0.1,0.3-0.3,0.5-0.5,0.6c-0.4,0.2-0.6,0.1-1.2-0.2c-0.6-0.2-0.9-0.3-1-0.7
			c-0.1-0.3-0.1-0.5,0-0.8c0.2-0.5,0.6-0.8,1.2-0.7l-0.1,0.3c-0.4-0.1-0.7,0.1-0.8,0.4c-0.1,0.2-0.1,0.4,0,0.6
			c0.1,0.2,0.3,0.3,0.9,0.5c0.6,0.2,0.8,0.3,1,0.2c0.2-0.1,0.3-0.2,0.4-0.4c0.1-0.3,0-0.7-0.3-0.9l0.1-0.3
			C72.9,52.5,73.1,53,72.9,53.5z"/>
		<path class="st1" d="M73.4,52l-2.8-0.9l0.1-0.3l2.8,0.9L73.4,52z"/>
		<path class="st1" d="M74.1,49.4l-0.7,0.1l-0.3,1.2l0.6,0.4l-0.1,0.3L71,49.6l0.1-0.3l3.1-0.3L74.1,49.4z M71.5,49.6l1.4,0.9
			l0.3-1.1L71.5,49.6z"/>
		<path class="st1" d="M74.3,48.7l-2.9-0.5l0.1-0.3l2.6,0.5l0.3-1.5l0.3,0.1L74.3,48.7z"/>
		<path class="st1" d="M74.9,44.9c0,0.4-0.2,0.7-0.5,1l-0.2-0.2c0.3-0.2,0.4-0.4,0.4-0.8c0-0.4-0.1-0.7-0.5-0.7
			c-0.2,0-0.3,0-0.4,0.1c-0.1,0.1-0.1,0.2-0.2,0.4l-0.1,0.3c-0.1,0.2-0.1,0.4-0.3,0.5c-0.1,0.1-0.3,0.2-0.6,0.2
			c-0.5,0-0.8-0.4-0.7-1c0-0.4,0.2-0.6,0.4-0.8l0.2,0.2c-0.2,0.2-0.3,0.4-0.3,0.7c0,0.4,0.2,0.6,0.5,0.7c0.1,0,0.3,0,0.4-0.1
			c0.1-0.1,0.2-0.2,0.2-0.4l0.1-0.3c0.1-0.3,0.1-0.4,0.3-0.5c0.2-0.1,0.4-0.2,0.6-0.2C74.6,43.8,74.9,44.3,74.9,44.9z"/>
		<path class="st1" d="M75,42.4c0,0.3-0.1,0.6-0.3,0.7c-0.3,0.3-0.6,0.3-1.2,0.3c-0.6,0-0.9,0-1.2-0.3c-0.2-0.2-0.3-0.5-0.3-0.8
			c0-0.5,0.3-0.9,0.9-1l0,0.3c-0.4,0.1-0.6,0.3-0.6,0.7c0,0.2,0.1,0.4,0.2,0.5c0.2,0.2,0.4,0.2,1,0.2c0.6,0,0.8,0,1-0.2
			c0.1-0.1,0.2-0.3,0.2-0.5c0-0.4-0.2-0.6-0.6-0.7l0-0.3C74.7,41.5,75,41.9,75,42.4z"/>
		<path class="st1" d="M74.9,40.8L72,40.9l0-0.3l2.9-0.1L74.9,40.8z"/>
		<path class="st1" d="M74.9,39.8L72,40.1l-0.2-1.8l0.3,0l0.1,1.5l1-0.1l-0.1-1.3l0.3,0l0.1,1.3l1.1-0.1L74.5,38l0.3,0L74.9,39.8z"
			/>
		<path class="st1" d="M74.3,35.6l-2.1,1.9l2.3-0.4l0.1,0.3l-2.9,0.5l-0.1-0.3l2.1-1.9l-2.3,0.4l-0.1-0.3l2.9-0.5L74.3,35.6z"/>
		<path class="st1" d="M73.9,33.6c0.1,0.3,0,0.6-0.1,0.8c-0.2,0.3-0.5,0.4-1.1,0.6c-0.6,0.2-0.9,0.2-1.2,0c-0.2-0.1-0.4-0.4-0.5-0.7
			c-0.1-0.5,0.1-1,0.6-1.2l0.1,0.3c-0.3,0.2-0.5,0.5-0.4,0.8c0,0.2,0.2,0.4,0.3,0.4c0.2,0.1,0.4,0.1,1-0.1c0.6-0.2,0.8-0.2,0.9-0.5
			c0.1-0.2,0.1-0.4,0.1-0.5c-0.1-0.4-0.4-0.6-0.8-0.5l-0.1-0.3C73.4,32.8,73.8,33.1,73.9,33.6z"/>
		<path class="st1" d="M73.5,32.1l-2.8,1l-0.6-1.7l0.3-0.1l0.5,1.4l1-0.3l-0.4-1.2l0.3-0.1l0.4,1.2l1-0.3l-0.5-1.4l0.3-0.1
			L73.5,32.1z"/>
		<path class="st1" d="M72.4,29.1c0.2,0.4,0.2,0.7,0,1.1l-0.3-0.1c0.1-0.3,0.1-0.6,0-0.9c-0.2-0.4-0.5-0.6-0.8-0.4
			c-0.1,0.1-0.2,0.2-0.3,0.3c0,0.1,0,0.2,0,0.4l0.1,0.3c0.1,0.2,0.1,0.4,0,0.6c-0.1,0.2-0.2,0.3-0.4,0.4c-0.5,0.2-0.9,0-1.1-0.5
			c-0.1-0.3-0.2-0.6,0-0.9l0.3,0.1c-0.1,0.2-0.1,0.4,0,0.7c0.2,0.4,0.4,0.5,0.7,0.4c0.1-0.1,0.2-0.1,0.3-0.3c0-0.1,0-0.3,0-0.4
			l-0.1-0.3c-0.1-0.3-0.1-0.4,0-0.6c0.1-0.2,0.2-0.4,0.4-0.5C71.7,28.3,72.2,28.6,72.4,29.1z"/>
	</g>
	<g>
		<path class="st0" d="M55.8,56.6c0,0,0-0.1,0-0.1c0-0.2,0-0.4-0.1-0.5c0,0,0-0.1,0-0.2c0-0.1-0.1-0.3-0.1-0.4c0,0,0-0.1,0-0.1
			c0-0.2-0.1-0.4-0.1-0.6c-0.1-0.3-0.2-0.7-0.3-1c-0.1-0.2-0.1-0.5-0.2-0.8c-0.1-0.3-0.2-0.6-0.3-0.9c0,0,0,0,0-0.1
			c-0.1-0.3-0.1-0.6-0.2-0.9c-0.1-0.3-0.2-0.6-0.3-0.9c0,0,0,0,0-0.1c0-0.3-0.1-0.5-0.1-0.8c-0.1-0.3-0.1-0.6-0.2-0.9
			c-0.1-0.4-0.1-0.7-0.2-1.1c-0.1-0.3-0.1-0.6-0.2-1c-0.1-0.4-0.1-0.8-0.2-1.2C53,44.8,53,44.4,53,44c-0.1-0.8-0.2-1.6-0.3-2.4
			c0-0.4,0-0.8-0.1-1.2c-0.1-0.8-0.1-1.6-0.1-2.4c0-0.9-0.1-1.7-0.1-2.6c0-1.1-0.1-2.2-0.1-3.3c0-0.5,0-1.1-0.1-1.6
			c0-0.4,0-0.8-0.1-1.1c-0.1-0.4-0.2-0.8-0.3-1.2c-0.1-0.3-0.3-0.6-0.5-0.9c-0.3-0.5-0.7-0.8-1.1-1.1c-0.2-0.2-0.4-0.3-0.7-0.5
			c-0.3-0.2-0.6-0.3-1-0.5c-0.1,0-0.1-0.1-0.2-0.1c-0.2-0.1-0.3-0.2-0.5-0.2c-0.3-0.1-0.6-0.2-0.9-0.2c-0.5-0.1-1-0.1-1.5-0.2
			c-0.5-0.1-0.8-0.2-0.9-0.5c-0.2-1-0.3-1.8-0.5-2.6c-0.1-0.4-0.3-0.8-0.6-1.1c-0.4-0.5-0.7-0.7-1.3-0.8c-0.2,0-0.7,0-1,0.1
			c-0.3,0.1-0.7,0.3-1,0.7c-0.3,0.5-0.5,1.1-0.6,1.7c0,0.6-0.3,1.8-0.5,2.2c-0.2,0.2-0.6,0.3-0.9,0.4c-0.2,0.1-1.1,0.2-1.3,0.3
			c-0.4,0.1-0.8,0.3-1.2,0.4c-0.3,0.1-0.7,0.3-1,0.5c-0.2,0.1-0.5,0.3-0.7,0.5c-0.4,0.3-0.8,0.7-1.1,1.1c-0.2,0.3-0.4,0.6-0.5,0.9
			c-0.1,0.4-0.3,0.8-0.3,1.2c-0.1,0.4-0.1,0.8-0.1,1.1c0,0.5,0,1-0.1,1.6c0,1.1-0.1,2.2-0.1,3.3c0,0.9-0.1,1.7-0.1,2.6
			c0,0.8,0,1.6-0.1,2.4c-0.1,0.4,0,0.8-0.1,1.2c-0.1,0.8-0.2,1.6-0.3,2.4c0,0.4,0,0.8-0.2,1.3c-0.1,0.4-0.1,0.8-0.2,1.2
			c-0.1,0.3-0.1,0.6-0.2,1c-0.1,0.4-0.1,0.7-0.2,1.1c-0.1,0.3-0.1,0.6-0.2,0.9c-0.1,0.3-0.1,0.5-0.1,0.8c0,0,0,0,0,0.1
			c-0.1,0.3-0.2,0.6-0.3,0.9c-0.1,0.3-0.1,0.6-0.2,0.9c0,0,0,0,0,0.1c-0.1,0.3-0.2,0.6-0.3,0.9c-0.1,0.2-0.1,0.5-0.2,0.8
			c-0.1,0.3-0.2,0.7-0.3,1c0,0.2-0.1,0.4-0.1,0.6c0,0,0,0.1,0,0.1c0,0.1-0.1,0.2-0.1,0.4c0,0.1,0,0.2,0,0.2
			c-0.1,0.2-0.1,0.3-0.1,0.5c0,0,0,0.1,0,0.1c0,0.1-0.1,0.1-0.2,0.2c0.2,0.1,0.2,0.2,0.4,0.2c0.5,0,0.9-0.1,1.3-0.3
			c0.1-0.1,0.2-0.1,0.3-0.2c0.1-0.1,0.1-0.1,0.2-0.2c0.1,0,0.2-0.1,0.4-0.3c0,0,0.1-0.1,0.1-0.1c0.3-0.3,0.5-0.7,0.8-1
			c0.2-0.3,0.3-0.6,0.5-0.9c0.1,0.1,0.2,0.2,0.3,0.1c0.4-0.5,0.8-2.1,0.8-2.9c0,0,0,0,0-0.1c0.1-0.3,0.2-0.6,0.2-0.9
			c0.1-0.4,0.2-0.8,0.3-1.2c0.1-0.6,0.2-1.2,0.3-1.8c0,0,0-0.1,0-0.1c0.1,0,0.2-0.1,0.2-0.3c0-0.3,0-0.7-0.1-0.9c0,0,0,0,0-0.1
			c0-0.2,0-0.3,0-0.5c0-0.1,0-0.2,0-0.3c0,0,0,0,0,0c0.1-0.2,0.1-0.5,0.1-0.7c0-0.2,0-0.4,0.1-0.6c0.1-0.9,0.3-3.7,0.3-4.3
			c0-0.4,0.1-0.9,0.1-1.3c0-0.5,0-1,0.1-1.5c0-0.5,0.1-1,0.1-1.5c0-0.2,0-0.3,0-0.5c0.2,0.1,0.3,0.1,0.5,0.2
			c0.2,0.1,0.4,0.1,0.6,0.2c0.2,0.1,0.5,0.2,0.7,0.3c0.1,0.1,0.3,0.1,0.4,0.2c0.3,0.2,0.6,0.3,0.9,0.5c0.3,0.2,0.6,0.4,0.9,0.6
			c0.2,0.1,0.4,0.3,0.6,0.4c0.2,0.2,0.5,0.4,0.7,0.7c0,0,0,0.1,0,0.2c-0.1,0.2-0.2,0.3-0.4,0.5c-0.1,0.2-0.3,0.4-0.4,0.6
			c-0.2,0.3-0.4,0.7-0.6,1c-0.2,0.4-0.4,0.7-0.6,1.1c-0.1,0.3-0.3,0.6-0.4,0.9c-0.2,0.5-0.4,0.9-0.6,1.4c-0.1,0.2-0.2,0.4-0.3,0.7
			c-0.1,0.2-0.1,0.4-0.2,0.6c-0.1,0.2-0.1,0.4-0.2,0.6c0,0,0,0,0,0c-0.2,0.4-0.2,0.9-0.4,1.3c-0.1,0.4-0.3,0.8-0.4,1.2
			c0,0.1,0,0.1-0.1,0.2c-0.1,0.2-0.1,0.3-0.2,0.5c0,0.1-0.1,0.3-0.1,0.4c-0.2,0.5-0.3,1.1-0.4,1.6c0,0.2,0.1,0.3,0.3,0.3
			c0.1,0,0.1,0,0.2-0.1c0.1-0.1,0.2,0,0.2,0.1c0,0,0.1,0.1,0.1,0.1c0.2,0,0.4-0.2,0.5-0.3c0.1-0.2,0.2-0.5,0.5-0.6
			c0.1,0,0.1-0.1,0.2-0.2c0.1-0.1,0.1-0.2,0.2-0.4c0,0.1,0,0.1,0.1,0.2c0.1,0.1,0.2,0.1,0.2,0c0.1-0.2,0.2-0.3,0.2-0.5
			c0-0.3,0.2-0.4,0.4-0.5c0.2-0.2,0.3-0.4,0.4-0.7c0-0.1,0-0.1-0.1-0.1c-0.1,0-0.1,0-0.2,0c0,0-0.1,0.1-0.1,0.1c0,0,0-0.1-0.1-0.1
			c0-0.1,0.1-0.2,0.2-0.2c0,0,0.1,0,0.1,0c0.1-0.1,0.5-0.4,0.6-0.5c0.1-0.2,0.2-0.4,0.3-0.6c0-0.1,0.1-0.1,0.1-0.2
			c0-0.1,0.1-0.2,0.1-0.2l0,0c0,0,0,0,0-0.1c0.2-0.4,0.3-0.8,0.5-1.3c0.2-0.4,0.3-0.8,0.5-1.2c0.2-0.3,0.3-0.7,0.5-1
			c0-0.1,0.1-0.1,0.1-0.2c0,0,0,0,0,0c0.1-0.3,0.3-0.6,0.4-0.9c0.2-0.4,0.4-0.8,0.7-1.2l0,0c0.1-0.1,0.1-0.2,0.2-0.3
			c0.1,0,0.1,0.1,0.1,0.1c0.3,0.5,0.7,0.9,1,1.4c0.2,0.3,0.4,0.6,0.6,1c0.1,0.3,0.3,0.6,0.4,0.9c0.2,0.4,0.3,0.8,0.5,1.2
			c0.2,0.5,0.4,1,0.6,1.5c0,0.1,0.1,0.2,0.1,0.3c0.2,0.4,0.4,0.8,0.5,1.2c0.2,0.5,0.4,0.9,0.6,1.4c0.2,0.5,0.5,1,0.9,1.4
			c0.1,0.1,0.3,0.3,0.5,0.4c0.2,0.1,0.4,0.1,0.6,0c0,0,0.1-0.1,0.1-0.1c0,0,0-0.1,0.1-0.2c0,0,0.1-0.1,0.1-0.1c0,0,0-0.1,0-0.2
			c0.1-0.1,0-0.2-0.1-0.3c0.1-0.2,0.1-0.3,0-0.3c0,0,0,0,0,0.1c0,0,0,0-0.1,0c0-0.1,0-0.2,0-0.2c0.1,0,0.1-0.1,0.1-0.2
			c0-0.2-0.1-0.3-0.1-0.5c0-0.1,0-0.3-0.1-0.5c0,0,0,0,0-0.1c0-0.1-0.1-0.1-0.1-0.2c0-0.2-0.1-0.4-0.1-0.6c0-0.2-0.1-0.3-0.2-0.5
			c0,0,0,0,0,0c0-0.1,0-0.2,0-0.3c0,0,0,0.1,0,0.1c0,0,0-0.1,0-0.1c0-0.1,0-0.3,0-0.4c-0.1-0.1-0.1-0.2-0.1-0.3
			c-0.1-0.3-0.1-0.7-0.2-1c-0.1-0.2-0.2-0.5-0.2-0.7c0-0.1-0.1-0.3-0.1-0.4c-0.1-0.3-0.2-0.7-0.4-1c-0.1-0.4-0.3-0.8-0.5-1.1
			c-0.1-0.1-0.1-0.3-0.2-0.4c-0.2-0.3-0.3-0.7-0.5-1c-0.2-0.3-0.4-0.7-0.6-1c-0.1-0.1-0.1-0.3-0.2-0.4c0,0,0,0,0,0l0,0
			c-0.1-0.1-0.2-0.3-0.3-0.4c-0.2-0.3-0.5-0.6-0.7-0.9c-0.1-0.2-0.2-0.3,0-0.4c0.4-0.4,0.7-0.7,1.1-1c0.3-0.3,0.7-0.5,1.1-0.8
			c0.2-0.1,0.3-0.2,0.5-0.3c0.2-0.1,0.4-0.2,0.5-0.2c0.2-0.1,0.5-0.2,0.7-0.3c0.2-0.1,0.9-0.4,1.1-0.4c0,0.2,0.1,0.8,0.1,0.9
			c0,0.5,0.1,1,0.1,1.5c0,0.5,0,1,0.1,1.5c0,0.4,0.1,0.9,0.1,1.3c0,0.5,0.1,1.1,0.1,1.6c0,0.3,0.1,0.7,0.1,1
			c0.1,0.9,0.1,0.7,0.2,1.6c0,0.6,0.1,1.1,0.2,1.7c0.1,0.6,0.1,1.2,0.2,1.8c0.1,0.6,0.2,1.2,0.3,1.8c0.1,0.4,0.2,0.8,0.3,1.2
			c0.1,0.3,0.2,0.7,0.3,1c0.1,0.5,0.3,1,0.5,1.4c0.1,0.2,0.1,0.4,0.1,0.6c0,0.2,0.1,0.4,0.2,0.6c0.1,0.3,0.3,0.6,0.5,0.9
			c-0.2-0.1-0.3-0.2-0.3-0.3c-0.2-0.1-0.3,0-0.2,0.2c0.2,0.4,0.5,0.7,0.7,1c0.4,0.4,0.6,0.6,0.7,0.8c0.1,0.3,0.4,0.5,0.8,0.5
			c0.1,0,0.2,0,0.2-0.1c0.1,0,0.1-0.1,0.1-0.1c0,0-0.1,0-0.1-0.1c0,0,0,0,0,0c0,0,0.1,0.1,0.1,0.1c0,0,0,0,0.1,0c0,0-0.1,0.1,0,0.1
			c0.1,0.1,0.1,0.3,0.2,0.3c0.1,0,0.2-0.1,0.3-0.2c0.3,0.1,0.5,0.1,0.8,0.1c0.2,0,0.3-0.1,0.4-0.2C55.9,56.8,55.8,56.8,55.8,56.6z
			 M40.8,24c0-0.5,0.2-2.1,1-2.1c0.5,0,0.9,0.9,1,1.3c0.1,0.5,0.2,1.5,0.2,1.8s0,0.9-0.2,0.9c-0.1,0.1-0.4,0.2-0.5,0.2s-0.4,0-0.7,0
			c-0.2,0-0.8,0-0.8-0.1C40.7,25.9,40.7,24.5,40.8,24z M47.3,31.1c0,0-0.1,0.1-0.1,0.1c-0.3,0.1-0.4,0.3-0.7,0.4
			c-0.2,0.1-0.5,0.3-0.7,0.5v0c-0.2,0.1-0.5,0.3-0.7,0.4c-0.4,0.3-0.8,0.6-1.2,0.9c-0.5,0.3-0.9,0.7-1.3,1.1
			c-0.1,0.1-0.1,0.1-0.2,0.2c-0.1,0.1-0.2,0.1-0.3,0c-0.4-0.4-0.9-0.7-1.3-1.1c-0.3-0.2-0.6-0.5-0.9-0.7c-0.4-0.3-0.8-0.5-1.1-0.8
			c-0.3-0.2-0.6-0.4-0.9-0.5c-0.3-0.1-0.5-0.3-0.8-0.4l-0.2-0.6c0-0.7,0.3-1.2,0.6-1.3c0.2-0.1,0.4-0.2,0.6-0.2
			c0.4-0.2,0.9-0.2,1.3-0.2c0.4-0.1,0.8,0,1.2-0.1c0.4,0,2.2-0.1,2.5,0c0.7,0.1,1.5,0,2.2,0c0.2,0,0.4,0,0.6,0
			c0.1,0,0.4,0.1,0.5,0.2c0.2,0.1,0.4,0.3,0.6,0.4c0.2,0.1,0.6,0.7,0.6,1.5C47.4,30.9,47.4,31.1,47.3,31.1z"/>
		<g>
			<path class="st0" d="M38.5,58.9c-0.3,0.3-0.8,0.5-1.4,0.5h-1.8V52h1.8c0.7,0,1.1,0.1,1.4,0.5c0.3,0.3,0.5,0.8,0.5,1.5
				c0,0.5-0.1,0.9-0.4,1.2c-0.1,0.1-0.2,0.2-0.4,0.3c0.2,0.1,0.3,0.2,0.4,0.3c0.4,0.4,0.4,0.9,0.4,1.4C39,58,38.9,58.5,38.5,58.9z
				 M36.9,53h-0.5v2h0.5c0.6,0,0.9-0.3,0.9-1C37.8,53.3,37.6,53,36.9,53z M37,56h-0.6v2.3H37c0.6,0,0.9-0.3,0.9-1.1
				C37.8,56.3,37.6,56,37,56z"/>
			<path class="st0" d="M43,59.3L41.3,55v4.4h-1.2V52h1l1.7,4.4V52H44v7.3H43z"/>
			<path class="st0" d="M48.4,58.9c-0.4,0.4-0.8,0.5-1.4,0.5c-0.5,0-1-0.2-1.4-0.5c-0.3-0.3-0.5-0.8-0.5-1.4V52h1.2v5.6
				c0,0.5,0.3,0.8,0.7,0.8c0.4,0,0.7-0.3,0.7-0.8V52h1.2v5.5C48.9,58.1,48.8,58.6,48.4,58.9z"/>
		</g>
	</g>
</g>
</svg>
