<?xml version="1.0" encoding="utf-8"?>
<!-- Generator: Adobe Illustrator 22.0.0, SVG Export Plug-In . SVG Version: 6.00 Build 0)  -->
<svg version="1.1" id="图层_1" xmlns="http://www.w3.org/2000/svg" xmlns:xlink="http://www.w3.org/1999/xlink" x="0px" y="0px"
	 viewBox="0 0 81.1 80.2" style="enable-background:new 0 0 81.1 80.2;" xml:space="preserve">
<style type="text/css">
	.st0{fill:#FFFFFF;}
	.st1{fill:#005EAC;}
	.st2{fill:#00995B;}
</style>
<g>
	<circle class="st0" cx="40.5" cy="40.1" r="37.5"/>
	<g>
		<path class="st1" d="M20.5,19.1l-0.3-0.4l-1.6,1.6l0.2,0.2c0.1,0.1,0.1,0.2,0,0.2c-0.2,0.3-0.3,0.5-0.5,0.6
			c-0.4-0.5-0.9-1-1.6-1.7L16,18.9c-0.4-0.4-0.7-0.7-0.9-0.9l1-0.5l0.2-0.2c-0.1-0.1-0.2-0.2-0.4-0.4c-0.1-0.1-0.2-0.2-0.2-0.3
			l0.8-0.6c0.1-0.1,0.2-0.1,0.2-0.1c0.1,0.1,0,0.2-0.1,0.4c0,0.2,0,0.5,0,0.7l1-1l-0.1-0.5l0.9-0.3c0.1,0,0.1,0,0.1,0
			c0.1,0,0.1,0.2,0.1,0.4l0.9,1c0.4,0.4,0.9,0.9,1.6,1.6c0.1,0.1,0.1,0.2,0,0.3C20.9,18.7,20.7,18.9,20.5,19.1z M17.7,16.2L16,17.7
			l0.7,0.8l1.6-1.6L17.7,16.2z M16.9,18.6l0.7,0.8l1.6-1.6L18.5,17L16.9,18.6z M17.7,19.5l0.7,0.8l1.6-1.6l-0.7-0.8L17.7,19.5z"/>
		<path class="st1" d="M21.5,15.3c-0.1,0.1-0.2,0.1-0.3,0c-0.1-0.2-0.2-0.3-0.3-0.4c0,0.2-0.1,0.4-0.1,0.6l-0.1,0
			c-0.1-0.9-0.4-1.8-0.8-2.5l0.9-0.4c0.1,0,0.1,0,0.1,0c0,0.1,0,0.2-0.1,0.3c0,0,0,0.1,0.1,0.2c0,0.1,0,0.2,0,0.3l0.3-0.2l0-0.5
			l0.8-0.1c0.1,0,0.1,0,0.1,0c0,0.1,0,0.2-0.1,0.3l0.1,0.3l0.4-0.3c0,0-0.1-0.1-0.1-0.2c-0.1-0.1-0.1-0.2-0.1-0.2
			c-0.1-0.2-0.3-0.4-0.5-0.7c0,0,0,0,0-0.1l0.8-0.5c0.1,0,0.1,0,0.1,0c0,0,0,0.1-0.1,0.3c0,0,0,0,0,0l0.2,0.3
			c0.2,0.3,0.3,0.5,0.4,0.7l0.5-0.3l0.1-0.5l0.7,0c0.1,0,0.1,0,0.1,0.1c0,0,0,0.1-0.1,0.1l-1,0.7c0.5,0.3,1.2,0.4,1.9,0.2l0,0.1
			C25,13.2,24.9,13.5,25,14c-0.7-0.1-1.3-0.6-1.8-1.3l0,0c0.5,0.9,0.3,1.8-0.5,2.9l-0.1,0c0.3-0.9,0.3-1.7-0.1-2.4l-0.4,0.3
			c0.3,1,0.1,2.1-0.7,3.2l-0.1-0.1c0.2-0.7,0.3-1.3,0.3-1.6C21.6,15.1,21.5,15.2,21.5,15.3z M20.8,13.6c0,0.1,0,0.2,0,0.3
			c0.3-0.1,0.5-0.2,0.6-0.1c-0.1-0.2-0.1-0.4-0.2-0.6L20.8,13.6z M21.4,14.4c-0.1,0.1-0.2,0.1-0.3,0c-0.1-0.1-0.2-0.2-0.3-0.2
			c0,0.2,0,0.4,0,0.6c0.4-0.2,0.6-0.2,0.7,0c0,0,0,0,0,0.1c0,0,0,0.1,0,0.1c0-0.2,0-0.5-0.1-0.7C21.5,14.3,21.5,14.3,21.4,14.4z
			 M22.3,17.5c-0.2,0.1-0.4,0.1-0.6-0.2c-0.1-0.1-0.1-0.3,0-0.4c0.2-0.2,0.2-0.5,0.2-0.7l0,0c0.2,0.1,0.4,0.2,0.5,0.4
			C22.7,16.9,22.6,17.3,22.3,17.5z M23.6,16.6c-0.2,0.1-0.3,0.1-0.4-0.1c-0.2-0.2-0.4-0.5-0.6-0.7l0,0c0.6-0.1,1-0.1,1.2,0.1
			C23.9,16.2,23.9,16.4,23.6,16.6z M23.4,12.1c-0.1,0.1-0.2,0.1-0.3,0c-0.2-0.2-0.3-0.3-0.5-0.4l0-0.1c0.5-0.2,0.8-0.3,0.9-0.1
			C23.6,11.8,23.6,11.9,23.4,12.1z M24.7,15.8c-0.1,0.1-0.3,0.1-0.4-0.1c-0.2-0.3-0.5-0.5-0.7-0.6l0,0c0.7-0.2,1.1-0.2,1.3,0.1
			C25,15.4,25,15.6,24.7,15.8z M26,15.1c-0.2,0.1-0.3,0.1-0.4,0c-0.2-0.2-0.4-0.4-0.7-0.6c0,0-0.1,0-0.1-0.1l0-0.1
			c0.8-0.2,1.3-0.2,1.4,0C26.3,14.7,26.2,14.9,26,15.1z"/>
		<path class="st1" d="M28,12.1c-0.1,0.1-0.2,0-0.3-0.1c-0.1-0.3-0.3-0.5-0.4-0.6l1,2.4c0.1,0.1,0,0.2-0.1,0.3
			c-0.2,0.1-0.4,0.2-0.5,0.3c-0.2-0.5-0.4-1.2-0.7-1.9c-0.1,0.3-0.2,0.8-0.5,1.3l-0.1,0c0.1-0.9,0.1-1.7,0-2.4l-0.6,0.3l0-0.1
			l0.7-0.3L26,10.3c-0.2,0.1-0.4,0.3-0.7,0.4l-0.1-0.1c0.6-0.6,1-1,1.2-1.5l0.8,0.2c0.1,0,0.1,0,0.1,0.1c0,0.1,0,0.1-0.1,0.2
			c-0.1,0-0.1,0-0.2,0c-0.1,0.1-0.3,0.2-0.4,0.3l0.4,0.9l0,0l0.1-0.6l0.7,0.2c0.1,0,0.1,0,0.1,0.1c0,0-0.1,0.1-0.1,0.1l-0.8,0.3
			l0.1,0.3c0.6,0,0.9,0.1,1,0.3C28.3,11.8,28.2,12,28,12.1z M28.6,10.1c-0.2,0.1-0.3,0-0.4-0.1c-0.2-0.2-0.4-0.5-0.7-0.6l0-0.1
			c0.7-0.2,1.2-0.1,1.3,0.2C28.9,9.8,28.8,10,28.6,10.1z M29,11.5c-0.2,0.1-0.3,0-0.4-0.1c-0.2-0.3-0.5-0.5-0.7-0.6l0-0.1
			c0.7-0.2,1.2-0.1,1.3,0.2C29.3,11.2,29.2,11.4,29,11.5z M30.4,10.5l0.7,0.2c0.1,0,0.1,0.1,0,0.2l-0.6,0.4c0.2,0.6,0.4,1,0.6,1.5
			c0,0.1,0,0.2-0.1,0.2c-0.2,0.1-0.4,0.2-0.7,0.3c-0.2-0.6-0.2-0.6-0.1-0.1c-0.2-0.5-0.3-1-0.5-1.4l0-0.1l-1.5,0.9l0-0.1l1.5-0.9
			l-0.8-1.9c-0.1-0.1-0.1-0.3-0.2-0.6c-0.1-0.2-0.2-0.4-0.2-0.5l0.9-0.3c0.1,0,0.1,0,0.1,0c0,0.1,0,0.2-0.1,0.3l1,2.5L30.4,10.5z"/>
		<path class="st1" d="M32,9.7c-0.2,0-0.4-0.1-0.5-0.3c0-0.2,0-0.3,0.1-0.4C31.9,8.7,32,8.4,32,8.2l0.1,0c0.1,0.1,0.2,0.2,0.3,0.4
			L34.6,8c0.1-0.5,0.1-0.9,0.1-1.3l1,0.1c0.1,0,0.1,0,0.1,0.1c0,0.1-0.1,0.2-0.3,0.2c-0.2,0.4-0.4,0.6-0.6,0.9l0.6-0.1l0.3-0.5
			l0.9,0.4c0.1,0,0.1,0.1,0.1,0.1c0,0.1-0.1,0.2-0.3,0.2c-0.2,0.2-0.4,0.4-0.7,0.6l0.1,0.1C36,8.7,36,8.8,36,8.8
			C36.1,8.9,36,9,35.7,9c-0.3,0.2-0.5,0.4-0.8,0.5c0,0,0.1,0,0.1,0c0,0.1-0.1,0.2-0.2,0.3l0,0.2l1.1-0.2l0.3-0.6l0.8,0.4
			c0.1,0,0.1,0.1,0.1,0.1c0,0-0.1,0.1-0.1,0.1l-2.1,0.4c0,0.1,0.1,0.3,0.1,0.6c0.1,0.3,0.1,0.5,0.1,0.5c0.1,0.4-0.2,0.7-1,0.9
			c-0.1-0.4-0.5-0.6-1.2-0.6v-0.1l1-0.1c0.2,0,0.3-0.1,0.2-0.3l-0.1-0.5l0-0.2l-2.2,0.4l0-0.1l2.2-0.4c0-0.1,0-0.1-0.1-0.3
			c0-0.1-0.1-0.3-0.1-0.3l0.7,0l0.3-0.7l-2.2,0.4l0-0.1l2.1-0.4l0.3-0.4l0.5,0.2L35.6,8l-3.3,0.6c0,0,0,0,0,0.1c0,0,0,0.1,0,0.1
			C32.5,9.3,32.4,9.6,32,9.7z M32.8,8.3c-0.2,0-0.3,0-0.4-0.2c-0.1-0.3-0.3-0.6-0.5-0.7l0,0c0.8-0.1,1.2,0.1,1.2,0.4
			C33.2,8.1,33.1,8.2,32.8,8.3z M33.9,8c-0.2,0-0.3-0.1-0.3-0.2c-0.1-0.3-0.3-0.6-0.5-0.8l0,0c0.7,0,1.1,0.1,1.2,0.4
			C34.4,7.7,34.2,7.9,33.9,8z"/>
		<path class="st1" d="M42.5,6.5l0.6,0.5c0,0,0.1,0.1,0,0.1c0,0-0.1,0-0.2,0l-5.1,0l0-0.1l2.2,0c0,0,0-0.1,0-0.1
			c0-0.2-0.1-0.3-0.2-0.5l0,0c0.7,0,1,0.1,1,0.4c0,0.1-0.1,0.2-0.2,0.3l1.5,0L42.5,6.5z M38.3,11.4c0-0.1,0-0.3,0-0.5
			c0-0.3,0-0.4,0-0.5l0-0.8c0-0.1,0-0.3,0-0.5c0-0.2,0-0.3,0-0.3l1,0.2l2.6,0l0.2-0.4l0.8,0.3C43,8.9,43,8.9,43,8.9
			C43,9,43,9.1,42.8,9.2l0,0.4c0,0,0,0.1,0,0.3c0,0.4,0,0.6,0,0.8c0,0.4-0.3,0.6-1,0.7c0-0.3-0.2-0.5-0.5-0.6c-0.2,0-0.3,0-0.5,0
			l0-0.3l-0.7,0l0,0.2c0,0.1,0,0.1-0.1,0.1c-0.1,0-0.2,0-0.4,0c-0.1,0-0.2,0-0.2,0c0-0.1,0-0.2,0-0.4c0-0.2,0-0.3,0-0.4l0-0.2
			c0-0.1,0-0.2,0-0.3c0-0.1,0-0.3,0-0.3l0.8,0.2l0.5,0L41,9.2l0.7,0.2l0,0c0.1,0,0.1,0,0.1,0.1c0,0.1-0.1,0.2-0.2,0.2l0,0.8l0,0
			l0.1,0c0.2,0,0.2-0.1,0.2-0.3l0-1.3l-2.8,0l0,2.1c0,0.1-0.1,0.1-0.2,0.1C38.8,11.4,38.5,11.4,38.3,11.4z M41.3,8.7l0-0.2l-1.7,0
			l0,0.1c0,0.1-0.1,0.2-0.2,0.2c-0.1,0-0.2,0-0.4,0c-0.1,0-0.2,0-0.2,0c0-0.1,0-0.2,0-0.3c0-0.2,0-0.3,0-0.4l0-0.2
			c0-0.2,0-0.4,0-0.6l0.9,0.2l1.5,0l0.2-0.4l0.8,0.3c0.1,0,0.1,0.1,0.1,0.1c0,0.1-0.1,0.2-0.2,0.2l0,0.1c0,0.2,0,0.4,0,0.7
			c0,0.1,0,0.1-0.1,0.1C41.9,8.6,41.6,8.7,41.3,8.7z M41.3,7.6l-1.7,0l0,0.7l1.7,0L41.3,7.6z M40.9,9.7l-0.7,0l0,0.8l0.7,0L40.9,9.7
			z"/>
		<path class="st1" d="M48.6,10l0.6,0.5c0.1,0.1,0.1,0.1,0,0.1c0,0-0.1,0-0.2,0l-1-0.2c0,0,0,0.2-0.1,0.3c0,0.3-0.1,0.5-0.1,0.6
			c0,0.4-0.5,0.6-1.3,0.5c0.1-0.3-0.1-0.6-0.6-0.9l0-0.1l0.8,0.2c0.2,0,0.3,0,0.3-0.2l0.1-0.6l-3-0.6l0-0.1l3,0.6l0.1-0.6l-3.1-0.6
			l0-0.2l2.1,0.4l0.1-0.5l0-0.1l-1.5-0.3l0-0.1l1.5,0.3c0-0.1,0-0.2,0-0.3c0-0.1,0-0.2,0-0.2l0.2,0.1c0.1-0.1,0.2-0.3,0.3-0.4
			l-1.2-0.2c0.4,0.2,0.6,0.4,0.6,0.6c-0.1,0.2-0.2,0.3-0.5,0.3c-0.1,0-0.2-0.1-0.2-0.3c0-0.2,0.1-0.4,0-0.6l-0.1,0
			c-0.4,0.3-0.8,0.5-1.3,0.7L44.2,8c0.5-0.5,0.9-1,1.1-1.5l0.9,0.4c0.1,0,0.1,0,0.1,0.1C46.3,7,46.2,7,46,7.1l-0.2,0.2l0.5,0.1
			L46.7,7l0.5,0.5c0.1-0.2,0.2-0.4,0.3-0.6l0.8,0.3c0.1,0,0.1,0.1,0.1,0.1c0,0.1-0.1,0.1-0.3,0.1c-0.1,0.1-0.2,0.1-0.3,0.2l0.9,0.2
			l0.4-0.4L49.7,8c0.1,0,0.1,0.1,0,0.1c0,0-0.1,0-0.2,0l-1.6-0.3c0.4,0.2,0.6,0.3,0.6,0.5c-0.1,0.2-0.2,0.3-0.5,0.3
			c-0.1,0-0.2-0.1-0.2-0.2c0-0.2,0-0.4,0-0.6l-0.2,0C47.5,7.9,47.2,8,47,8.1l0.5,0.1c0.1,0,0.2,0.1,0.2,0.1c0,0.1-0.1,0.1-0.3,0.2
			l0,0.2l0.9,0.2l0.4-0.4L49.1,9c0.1,0,0.1,0.1,0,0.1c0,0-0.1,0-0.2,0l-1.7-0.3l-0.1,0.6l1.2,0.2l0.4-0.4l0.6,0.6
			c0.1,0.1,0.1,0.1,0,0.1c0,0-0.1,0-0.2,0l-1.1-0.2L48,10.4l0.2,0L48.6,10z M45.4,11.2c-0.2,0-0.2-0.1-0.2-0.3
			c0-0.3-0.1-0.6-0.2-0.9l0.1,0c0.8,0.2,1.1,0.5,1,0.8C45.9,11.1,45.7,11.3,45.4,11.2z"/>
		<path class="st1" d="M50,10.8L50,10.8c0.6-0.8,1.1-1.5,1.5-2.2L51,8.3l0-0.1l1.2,0.5l0.5-0.3L53.2,9c0,0.1,0,0.1,0,0.1
			c0,0-0.1,0-0.2,0l-0.6-0.2c-0.3,0.4-0.6,0.7-0.9,1l0.1,0.1l0.1,0l0.4-0.3l0.5,0.5c0,0,0.1,0.1,0.1,0.1c0,0.1-0.1,0.1-0.3,0.2
			l-0.2,0.6c-0.1,0.3-0.3,0.7-0.5,1.3c0,0.1-0.1,0.2-0.2,0.1c-0.1,0-0.3-0.1-0.5-0.1L51,12l-0.3-0.1l-0.2,0.5c0,0.1-0.1,0.1-0.2,0.1
			c-0.1,0-0.2,0-0.3-0.1c-0.1,0-0.1,0-0.2,0c0-0.1,0.1-0.4,0.3-0.7c0.1-0.2,0.1-0.3,0.1-0.3l0.3-0.8c-0.1,0-0.1,0.1-0.2,0.1
			C50.2,10.7,50.1,10.7,50,10.8z M55.6,9.4l0.4,0.7c0,0.1,0,0.1,0,0.1c0,0-0.1,0-0.2,0L55.4,10l-0.6,1.4l0.3-0.2l0.3,0.6
			c0,0.1,0,0.1,0,0.1c0,0-0.1,0-0.2,0l-0.5-0.2l-0.3,0.7c0,0-0.1,0.2-0.2,0.5c-0.2,0.6-0.3,0.9-0.4,1.1c0,0.1-0.1,0.1-0.2,0.1
			c-0.2,0-0.4-0.1-0.6-0.2c0.1-0.2,0.3-0.6,0.5-1.2c0.1-0.2,0.1-0.3,0.1-0.4l0.4-1l-0.5-0.2c-0.5,1.4-1.4,2-2.8,1.9l0-0.1
			c1-0.3,1.7-1,2.1-2.1l-0.4-0.2l0-0.1l0.4,0.2l0.1-0.1l0.6-1.4l-0.2-0.1l0-0.1l1.9,0.7L55.6,9.4z M51.7,10.2l-0.3-0.1l-0.7,1.7
			l0.3,0.1L51.7,10.2z M53.6,11l-0.1,0.1l0.5,0.2l0.6-1.6l-0.5-0.2L53.6,11z"/>
		<path class="st1" d="M54.7,14.7L54.7,14.7c1.3,0.1,2.2-0.2,2.7-0.9l-1.1-0.7l0.1-0.1l1.1,0.7c0-0.1,0.1-0.2,0.1-0.2
			c0.1-0.2,0.2-0.3,0.3-0.4c-0.6,0-1.2-0.1-1.8-0.3l0-0.1c0.9,0,1.6-0.2,2.1-0.5l0.6,0.7c0,0.1,0,0.1,0,0.1c-0.1,0.1-0.2,0-0.4-0.1
			c-0.2,0-0.3,0-0.5,0l0.8,0.6c0.1,0,0.1,0.1,0.1,0.1c-0.1,0.1-0.2,0.1-0.4,0.1c-0.1,0.2-0.2,0.3-0.2,0.3l0.4,0.2l0.4-0.2l0.5,0.7
			c0,0.1,0.1,0.1,0,0.2c-0.1,0.1-0.2,0.1-0.4,0.1l-0.5,0.8c-0.1,0.1-0.1,0.2,0,0.3l0.2,0.1c0.1,0.1,0.2,0.1,0.4-0.1l0.7-0.5l0,0.1
			l-0.4,0.6c-0.1,0.1-0.1,0.3,0,0.3c0.1,0.1,0.1,0.2,0,0.4c-0.2,0.2-0.6,0.2-1-0.1L58,16.6c-0.4-0.2-0.4-0.5-0.2-0.9l0.8-1.3
			l-0.5-0.3C57.4,15.1,56.3,15.3,54.7,14.7z M56.8,12.1c-0.2-0.1-0.2-0.3-0.1-0.6c0.1-0.1,0.2-0.2,0.3-0.2c0.3,0,0.6-0.1,0.9-0.3
			l0,0c0,0.1-0.1,0.2-0.1,0.4l1.2,0.8c0,0,0-0.1,0-0.2c0.1-0.2,0.1-0.4,0.1-0.6l0,0c0.6,0.4,0.9,0.7,0.7,0.9
			c-0.1,0.1-0.2,0.2-0.4,0.2l1.1,0.7l0.5-0.2l0.5,0.9c0,0.1,0,0.1,0,0.1c0,0.1-0.2,0.1-0.4-0.1c-0.3,0-0.6,0-0.9-0.1
			c0.3,0.4,0.4,0.7,0.3,0.8c-0.2,0.2-0.4,0.3-0.6,0.2c-0.1,0-0.1-0.2-0.2-0.4c-0.1-0.5-0.3-1.1-0.6-1.7l0.1,0c0.4,0.4,0.7,0.7,1,0.9
			l0.4-0.4l-2.8-1.8c0,0.1-0.1,0.1-0.1,0.2C57.4,12.2,57.1,12.3,56.8,12.1z"/>
		<path class="st1" d="M61.1,17.9c0.2-0.2,0.3-0.4,0.2-0.6l-0.9,0.9c-0.1,0.1-0.1,0.1-0.2,0.1c-0.2-0.2-0.4-0.3-0.5-0.4
			c0.6-0.6,1.2-1.3,1.8-1.9l0.6-0.7c0.4-0.4,0.7-0.7,0.9-1l0.5,0.7l0.1,0.1l0.5-0.1l0.3,0.8c0,0,0,0,0,0.1c0,0,0,0.1,0,0.1
			c-0.1,0.1-0.2,0.1-0.3,0c-0.4,0.2-0.9,0.3-1.5,0.4c0.2,0.7,0.1,1.2-0.3,1.5C62,18.2,61.6,18.2,61.1,17.9z M60.5,18.7L60.5,18.7
			c1,0.2,1.8-0.1,2.5-0.9l-0.4-0.4l0.1-0.1l1.7,1.6l0.6-0.1l0.2,0.9c0,0.1,0,0.1,0,0.1c0,0-0.1,0-0.1-0.1L64.4,19l-1,1
			c-0.1,0.1,0,0.1,0,0.2l0,0c0.1,0.1,0.2,0.1,0.3,0l0.9-0.5l0.1,0.1l-0.6,0.6C64,20.5,64,20.7,64,20.8c0,0.1,0,0.2-0.1,0.3
			c-0.2,0.2-0.5,0.2-0.8-0.1l-0.4-0.4c-0.3-0.3-0.3-0.6,0-0.9l1.1-1.1l-0.2-0.2C62.8,19.2,61.8,19.4,60.5,18.7z M63.7,15.3L63.4,15
			l-2,2.1l0.1,0.1c0.1,0.1,0.2,0.1,0.3,0c0.3-0.3,0.5-0.7,0.6-1.1L63.7,15.3z M63.5,16.8c-0.2-0.2-0.2-0.4,0-0.6
			c0.1-0.1,0.2-0.1,0.3-0.1c0.2,0,0.4,0,0.7-0.1l0,0c0,0.1,0,0.2-0.1,0.3c0,0,0,0,0,0l0.5,0.5c0-0.1,0-0.1,0.1-0.2
			c0.1-0.2,0.2-0.4,0.3-0.6l0,0c0.5,0.5,0.6,0.8,0.4,1c-0.1,0.1-0.3,0.1-0.5,0.1l0.5,0.5l0.5-0.1l0.2,0.8c0,0.1,0,0.1,0,0.1
			c-0.1,0.1-0.2,0.1-0.3-0.1c-0.2-0.1-0.4-0.1-0.7-0.2l0.1,0.4c0,0.1,0,0.1,0,0.1c0,0-0.1,0-0.1-0.1L63.6,17l0.1-0.1l1.1,1l0.6-0.1
			l0,0.2l0.3-0.2l-1.3-1.3c-0.1,0.1-0.1,0.1-0.2,0.2C63.9,16.9,63.7,17,63.5,16.8z"/>
		<path class="st1" d="M10.1,26.8l0.7,0.1l0.5-1l-0.5-0.5l0.2-0.4l2.6,2.4l-0.2,0.3l-3.5-0.5L10.1,26.8z M12.7,27.2l-1.2-1L11.2,27
			L12.7,27.2z"/>
		<path class="st1" d="M9.4,29.3c-0.1-0.2-0.1-0.5,0-0.8l0.4-1l3.1,1.2l-0.4,1c-0.1,0.3-0.3,0.5-0.6,0.6c-0.5,0.2-0.9,0-1.4-0.2
			C10.1,29.9,9.6,29.7,9.4,29.3z M11.7,29.9c0.2-0.1,0.3-0.2,0.4-0.4l0.2-0.5L10,28.1l-0.2,0.5c-0.1,0.2-0.1,0.4,0,0.5
			c0.1,0.2,0.5,0.3,0.9,0.5C11.2,29.8,11.5,29.9,11.7,29.9z"/>
		<path class="st1" d="M8.6,30.9l0.1-0.3l3.5,0.1L12,31L9.5,31l2.1,1.3l-0.1,0.4L8.6,30.9z"/>
		<path class="st1" d="M7.9,33.5l0.7,0l0.3-1.1L8.2,32l0.1-0.5l3,1.8l-0.1,0.3L7.8,34L7.9,33.5z M10.6,33.4l-1.3-0.8L9,33.5
			L10.6,33.4z"/>
		<path class="st1" d="M7.5,36.1l2.5-1l-2.3-0.4l0.1-0.4l3.3,0.5L11,35.2l-2.5,1l2.3,0.3L10.7,37l-3.3-0.5L7.5,36.1z"/>
		<path class="st1" d="M7.2,38.1c0-0.3,0.2-0.6,0.4-0.7C8,37.1,8.4,37.1,9,37.2c0.6,0,1,0.1,1.3,0.4c0.2,0.2,0.3,0.5,0.3,0.8
			c0,0.5-0.4,0.9-1.1,1l0-0.4c0.3,0,0.6-0.2,0.6-0.5c0-0.2-0.1-0.3-0.2-0.4c-0.2-0.2-0.4-0.2-1-0.2c-0.7,0-0.9,0-1.1,0.1
			c-0.1,0.1-0.2,0.2-0.2,0.4c0,0.3,0.2,0.5,0.5,0.6l0,0.4C7.5,39.1,7.2,38.6,7.2,38.1z"/>
		<path class="st1" d="M7.2,39.6l3.3,0l0,1.9l-0.5,0l0-1.4l-1,0l0,1.2l-0.5,0l0-1.2l-1,0l0,1.4l-0.5,0L7.2,39.6z"/>
		<path class="st1" d="M7.7,43.8c-0.2-0.2-0.3-0.4-0.4-0.7l-0.1-1l3.3-0.3l0.1,1c0,0.3-0.1,0.6-0.3,0.8c-0.3,0.3-0.8,0.4-1.3,0.4
			C8.6,44,8.1,44,7.7,43.8z M10,43.3c0.1-0.1,0.2-0.3,0.2-0.5l0-0.5l-2.4,0.2l0,0.5c0,0.2,0.1,0.4,0.3,0.5c0.2,0.1,0.6,0.1,1,0.1
			C9.5,43.5,9.8,43.4,10,43.3z"/>
		<path class="st1" d="M7.6,45.4l3.3-0.5l0.1,0.4l-3.3,0.5L7.6,45.4z"/>
		<path class="st1" d="M8.1,48.2l2-1.8l-2.3,0.5l-0.1-0.4l3.3-0.7l0.1,0.4l-2,1.8l2.3-0.5l0.1,0.4l-3.3,0.7L8.1,48.2z"/>
		<path class="st1" d="M8.6,50c-0.1-0.4-0.1-0.8,0.1-1.1L9.1,49c-0.2,0.3-0.2,0.5-0.1,0.8c0.1,0.4,0.4,0.5,0.7,0.4
			c0.1,0,0.2-0.1,0.3-0.2c0.1-0.1,0.1-0.2,0-0.3l0-0.3c0-0.2,0-0.4,0.1-0.6c0.1-0.2,0.3-0.3,0.6-0.4c0.6-0.2,1,0.1,1.2,0.6
			c0.1,0.4,0.1,0.7-0.1,1l-0.4-0.2c0.1-0.2,0.1-0.4,0.1-0.7c-0.1-0.3-0.4-0.4-0.7-0.4c-0.1,0-0.2,0.1-0.3,0.2
			c-0.1,0.1-0.1,0.2-0.1,0.4l0,0.3c0,0.3,0,0.4-0.1,0.6c-0.1,0.2-0.3,0.3-0.6,0.4C9.2,50.9,8.8,50.6,8.6,50z"/>
		<path class="st1" d="M12.1,51.3l-2.7,1l-0.2-0.4l2.7-1l-0.3-0.7l0.4-0.2l0.7,1.9l-0.4,0.2L12.1,51.3z"/>
		<path class="st1" d="M9.9,53.4l3.1-1.3l0.2,0.4L10,53.8L9.9,53.4z"/>
		<path class="st1" d="M13.3,54l-2.6,1.3l-0.2-0.4l2.6-1.3l-0.4-0.7l0.4-0.2l0.9,1.8l-0.4,0.2L13.3,54z"/>
		<path class="st1" d="M11.7,57.2c-0.3-0.5-0.1-1.1,0.5-1.5l1.9-1.1l0.2,0.4l-1.9,1.1c-0.4,0.2-0.5,0.6-0.3,0.9
			c0.2,0.3,0.5,0.4,0.9,0.2L15,56l0.2,0.4l-1.9,1.1C12.7,57.9,12,57.7,11.7,57.2z"/>
		<path class="st1" d="M15.6,57.8l-2.4,1.6l-0.3-0.4l2.4-1.6l-0.5-0.7l0.4-0.3l1.2,1.7L16,58.5L15.6,57.8z"/>
		<path class="st1" d="M13.9,60.4l2.6-2.1l1.2,1.5l-0.4,0.3L16.4,59l-0.8,0.6l0.8,0.9l-0.4,0.3l-0.8-0.9l-0.8,0.6l0.9,1.1l-0.4,0.3
			L13.9,60.4z"/>
		<path class="st1" d="M17.3,63.8c-0.3,0-0.6-0.1-0.8-0.3c-0.2-0.2-0.3-0.5-0.3-0.8c0-0.4,0.3-0.7,0.8-1.1c0.5-0.4,0.7-0.7,1.2-0.7
			c0.3,0,0.6,0.1,0.8,0.3c0.2,0.2,0.3,0.5,0.3,0.8c0,0.4-0.3,0.7-0.8,1.1C18,63.6,17.8,63.8,17.3,63.8z M18.8,61.9
			c0-0.2,0-0.3-0.2-0.5c-0.1-0.1-0.3-0.2-0.4-0.2c-0.2,0-0.4,0.1-0.9,0.6c-0.5,0.5-0.6,0.6-0.6,0.8c0,0.2,0,0.3,0.2,0.5
			c0.1,0.1,0.3,0.2,0.4,0.2c0.2,0,0.4-0.1,0.9-0.6C18.7,62.3,18.8,62.2,18.8,61.9z"/>
		<path class="st1" d="M20,62.8l-0.7,0.8l0.9,0.8l-0.3,0.3L19,63.9L18,65l-0.3-0.3l2.2-2.5l1.4,1.2L21,63.7L20,62.8z"/>
		<path class="st1" d="M21.5,67.7l0.3-2.7l-1.4,1.9L20,66.7l2-2.7l0.3,0.2L22,66.9l1.4-1.9l0.4,0.3l-2,2.7L21.5,67.7z"/>
		<path class="st1" d="M23.8,69.2l0.2-0.7l-1-0.6l-0.5,0.5l-0.4-0.2l2.6-2.3L25,66l-0.8,3.4L23.8,69.2z M24.5,66.6l-1.2,1l0.8,0.5
			L24.5,66.6z"/>
		<path class="st1" d="M26.5,67.4l-1.3,2.6l-0.4-0.2l1.3-2.6l-0.7-0.4l0.2-0.4l1.8,1l-0.2,0.4L26.5,67.4z"/>
		<path class="st1" d="M27.1,70.9c-0.5-0.2-0.8-0.8-0.5-1.5l0.9-2l0.4,0.2l-0.9,2c-0.2,0.4-0.1,0.8,0.3,0.9c0.3,0.1,0.7,0,0.8-0.4
			l0.9-2l0.4,0.2l-0.9,2C28.3,70.9,27.7,71.1,27.1,70.9z"/>
		<path class="st1" d="M30.2,72.1l-0.1-1.5l-0.5-0.2l-0.5,1.3l-0.4-0.1l1.1-3.2l1.1,0.4c0.5,0.2,0.7,0.7,0.5,1.2
			c-0.2,0.5-0.5,0.7-0.8,0.6l0.1,1.6L30.2,72.1z M30.7,69.2l-0.6-0.2l-0.4,1l0.6,0.2c0.3,0.1,0.5,0,0.6-0.3
			C31.1,69.5,31,69.3,30.7,69.2z"/>
		<path class="st1" d="M32.7,72.8l0-0.7l-1.1-0.3l-0.4,0.6l-0.5-0.1l1.9-3l0.3,0.1l0.2,3.5L32.7,72.8z M32.7,70.1l-0.8,1.3l0.9,0.2
			L32.7,70.1z"/>
		<path class="st1" d="M33.5,72.9l0.6-3.3l0.4,0.1L34,72.6l1.4,0.3l-0.1,0.4L33.5,72.9z"/>
		<path class="st1" d="M37.2,73.6c-0.4,0-0.7-0.2-1-0.5l0.3-0.3c0.2,0.3,0.4,0.4,0.7,0.4c0.4,0,0.6-0.1,0.6-0.5c0-0.1,0-0.3-0.1-0.4
			c-0.1-0.1-0.1-0.1-0.3-0.2L37.2,72c-0.2-0.1-0.4-0.2-0.5-0.3c-0.1-0.2-0.2-0.4-0.1-0.7c0.1-0.6,0.5-0.9,1.1-0.9
			c0.4,0,0.6,0.2,0.9,0.5l-0.3,0.3c-0.2-0.2-0.4-0.3-0.6-0.3c-0.3,0-0.6,0.2-0.6,0.5c0,0.1,0,0.2,0.1,0.3c0.1,0.1,0.2,0.2,0.3,0.2
			l0.3,0.1c0.3,0.1,0.4,0.2,0.5,0.3c0.1,0.2,0.2,0.4,0.2,0.7C38.3,73.3,37.8,73.6,37.2,73.6z"/>
		<path class="st1" d="M39.7,73.7c-0.3,0-0.6-0.1-0.8-0.4c-0.3-0.3-0.3-0.7-0.2-1.4c0-0.6,0-1,0.3-1.3c0.2-0.2,0.5-0.3,0.8-0.3
			c0.5,0,0.9,0.4,1,1.1l-0.4,0c-0.1-0.3-0.3-0.6-0.6-0.6c-0.2,0-0.3,0.1-0.4,0.2c-0.1,0.2-0.2,0.4-0.2,1c0,0.7,0,0.9,0.1,1
			c0.1,0.1,0.3,0.2,0.4,0.2c0.3,0,0.5-0.2,0.6-0.6l0.4,0C40.7,73.4,40.3,73.7,39.7,73.7z"/>
		<path class="st1" d="M41.2,73.7l-0.1-3.3l0.4,0l0.1,3.3L41.2,73.7z"/>
		<path class="st1" d="M42.3,73.7L42,70.3l1.9-0.1l0,0.5l-1.4,0.1l0.1,1l1.2-0.1l0,0.5l-1.2,0.1l0.1,1l1.4-0.1l0,0.5L42.3,73.7z"/>
		<path class="st1" d="M46.4,73.2l-1.7-2.1l0.4,2.3l-0.4,0.1l-0.5-3.3l0.4-0.1l1.7,2.1l-0.4-2.3l0.4-0.1l0.5,3.3L46.4,73.2z"/>
		<path class="st1" d="M48.4,72.8c-0.3,0.1-0.6,0-0.8-0.2c-0.4-0.3-0.4-0.6-0.6-1.2c-0.2-0.6-0.2-1,0-1.4c0.1-0.3,0.4-0.5,0.7-0.5
			c0.5-0.1,1,0.1,1.3,0.8l-0.4,0.1c-0.1-0.3-0.4-0.5-0.7-0.4c-0.2,0-0.3,0.2-0.4,0.3c-0.1,0.2-0.1,0.4,0.1,1.1
			c0.2,0.7,0.2,0.8,0.4,1c0.1,0.1,0.3,0.1,0.5,0.1c0.3-0.1,0.5-0.4,0.4-0.7l0.4-0.1C49.2,72.2,48.9,72.7,48.4,72.8z"/>
		<path class="st1" d="M49.9,72.4l-1-3.2l1.8-0.6l0.1,0.4l-1.4,0.4l0.3,0.9l1.2-0.4l0.1,0.4l-1.2,0.4l0.3,1l1.4-0.4l0.1,0.4
			L49.9,72.4z"/>
		<path class="st1" d="M52.9,71.4c-0.4,0.2-0.7,0.2-1.1,0l0.1-0.4c0.3,0.1,0.5,0.1,0.8,0c0.4-0.1,0.5-0.4,0.4-0.7
			C53,70.1,52.9,70,52.8,70c-0.1,0-0.2-0.1-0.3,0L52.1,70c-0.2,0.1-0.4,0-0.6,0c-0.2-0.1-0.3-0.3-0.4-0.5c-0.2-0.5,0-1,0.5-1.3
			c0.4-0.1,0.6-0.1,1,0l-0.1,0.4c-0.2-0.1-0.5-0.1-0.7,0c-0.3,0.1-0.4,0.4-0.3,0.7c0,0.1,0.1,0.2,0.2,0.2c0.1,0,0.2,0.1,0.4,0
			l0.3-0.1c0.3-0.1,0.4,0,0.6,0c0.2,0.1,0.4,0.3,0.5,0.5C53.7,70.6,53.4,71.1,52.9,71.4z"/>
		<path class="st1" d="M56,69.9l-1,0.5l-1.5-3l1-0.5c0.5-0.2,0.9-0.1,1.2,0.4c0.2,0.3,0.1,0.6,0,0.8c0.2,0,0.6,0.1,0.7,0.5
			C56.7,69.2,56.5,69.6,56,69.9z M54.6,67.3L54,67.6l0.4,0.9l0.6-0.3c0.3-0.1,0.3-0.4,0.2-0.6C55.1,67.3,54.9,67.2,54.6,67.3z
			 M55.3,68.6l-0.6,0.3l0.5,0.9l0.6-0.3c0.3-0.1,0.3-0.4,0.2-0.7C55.8,68.5,55.6,68.4,55.3,68.6z"/>
		<path class="st1" d="M57.3,69.2l-1.8-2.8l1.6-1l0.2,0.4l-1.2,0.7l0.5,0.8l1-0.6l0.2,0.4l-1,0.6l0.5,0.9l1.2-0.7l0.2,0.4L57.3,69.2
			z"/>
		<path class="st1" d="M59.3,67.9l-1.9-2.8l0.4-0.2l1.9,2.8L59.3,67.9z"/>
		<path class="st1" d="M60.4,67.1c-0.2,0.2-0.5,0.2-0.8,0.2l0-0.4c0.2,0,0.3,0,0.5-0.1c0.3-0.2,0.3-0.5,0-0.9l-1.4-1.8l0.4-0.3
			l1.4,1.8C61,66.2,60.9,66.8,60.4,67.1z"/>
		<path class="st1" d="M61.6,66.2l-2.1-2.6l0.3-0.3l2.1,2.6L61.6,66.2z"/>
		<path class="st1" d="M63.8,64.3l-2.6-0.8l1.6,1.7l-0.3,0.3L60.2,63l0.3-0.3l2.6,0.8l-1.6-1.7l0.3-0.3l2.3,2.4L63.8,64.3z"/>
		<path class="st1" d="M65.5,62c0,0.3-0.1,0.6-0.3,0.8c-0.2,0.2-0.5,0.3-0.8,0.3c-0.4,0-0.7-0.3-1.2-0.7c-0.5-0.4-0.8-0.7-0.8-1.1
			c0-0.3,0-0.6,0.3-0.8c0.4-0.5,1-0.4,1.5-0.1l-0.3,0.3c-0.3-0.2-0.6-0.2-0.8,0.1c-0.1,0.1-0.2,0.3-0.1,0.5c0,0.2,0.2,0.4,0.6,0.8
			c0.5,0.5,0.7,0.6,0.9,0.6c0.2,0,0.3-0.1,0.4-0.2C65,62.4,65,62.2,65,62c0-0.2-0.1-0.3-0.3-0.5l-0.1-0.1l-0.4,0.5l-0.3-0.3l0.7-0.8
			l0.4,0.3C65.3,61.4,65.4,61.7,65.5,62z"/>
		<path class="st1" d="M67.8,59.5l-2.7-0.3l1.9,1.4L66.8,61l-2.7-2l0.2-0.3L67,59l-1.9-1.4l0.3-0.4l2.7,2L67.8,59.5z"/>
		<path class="st1" d="M69.1,57c0.1,0.3,0.1,0.6-0.1,0.8c-0.2,0.3-0.4,0.4-0.7,0.5c-0.4,0.1-0.7-0.1-1.3-0.5c-0.5-0.3-0.9-0.5-1-0.9
			c-0.1-0.3-0.1-0.6,0.1-0.8c0.2-0.3,0.4-0.4,0.7-0.5c0.4-0.1,0.7,0.1,1.3,0.5C68.6,56.4,68.9,56.6,69.1,57z M66.8,56
			c-0.2,0-0.3,0.1-0.4,0.3c-0.1,0.1-0.1,0.3-0.1,0.5c0.1,0.2,0.2,0.3,0.8,0.7c0.6,0.4,0.7,0.4,1,0.4c0.2,0,0.3-0.1,0.4-0.3
			c0.1-0.1,0.1-0.3,0.1-0.5c-0.1-0.2-0.2-0.3-0.8-0.7C67.2,56.1,67.1,56,66.8,56z"/>
		<path class="st1" d="M70.5,55l-1.5-0.1l-0.3,0.5l1.3,0.6l-0.2,0.4l-3-1.5l0.5-1c0.3-0.5,0.8-0.6,1.3-0.4c0.4,0.2,0.6,0.6,0.5,0.9
			l1.6,0.1L70.5,55z M67.7,54.2l-0.3,0.6l0.9,0.5l0.3-0.6c0.1-0.3,0.1-0.5-0.2-0.7C68.1,53.8,67.8,53.9,67.7,54.2z"/>
		<path class="st1" d="M72,51.4l-2.1-0.8l1.3,1.2l-0.1,0.3l-1.8,0.1l2.1,0.8l-0.2,0.4l-3.1-1.2l0.2-0.4l2.2-0.1l-1.6-1.5l0.2-0.4
			l3.1,1.2L72,51.4z"/>
		<path class="st1" d="M72.8,48.7l-0.7,0l-0.3,1.1l0.6,0.4l-0.1,0.5l-2.9-1.9l0.1-0.3l3.5-0.1L72.8,48.7z M70.1,48.8l1.3,0.8
			l0.2-0.9L70.1,48.8z"/>
		<path class="st1" d="M73,48l-3.3-0.7l0.1-0.4l2.8,0.6l0.3-1.4l0.4,0.1L73,48z"/>
		<path class="st1" d="M73.7,44c-0.1,0.6-0.6,1-1.3,0.9l-2.2-0.2l0-0.4l2.2,0.2c0.4,0,0.7-0.2,0.8-0.5c0-0.4-0.2-0.6-0.7-0.7
			L70.4,43l0-0.4l2.2,0.2C73.4,42.9,73.8,43.4,73.7,44z"/>
		<path class="st1" d="M73.9,40.5l-2.4,1.3l2.4,0.1l0,0.4l-3.3-0.1l0-0.4l2.4-1.3l-2.3-0.1l0-0.4l3.3,0.1L73.9,40.5z"/>
		<path class="st1" d="M73.9,39.5l-3.3,0.1l0-0.4l3.3-0.1L73.9,39.5z"/>
		<path class="st1" d="M73.8,37.5l0,0.3l-3.3,1.2l0-0.5l2.4-0.9l-2.5-0.5l0-0.5L73.8,37.5z"/>
		<path class="st1" d="M73.6,36.2l-3.3,0.5L70,34.9l0.5-0.1l0.2,1.4l1-0.1l-0.2-1.2l0.4-0.1l0.2,1.2l1-0.2l-0.2-1.4l0.5-0.1
			L73.6,36.2z"/>
		<path class="st1" d="M72.9,32.3l-1.2,0.9l0.1,0.5l1.4-0.3l0.1,0.4L70,34.6l-0.3-1.1c-0.1-0.5,0.2-1,0.8-1.1c0.5-0.1,0.8,0.1,1,0.4
			l1.3-1L72.9,32.3z M70.2,33.5l0.1,0.6l1-0.2l-0.1-0.6c-0.1-0.3-0.3-0.4-0.6-0.4C70.3,32.9,70.1,33.2,70.2,33.5z"/>
		<path class="st1" d="M72.5,30.6c0.1,0.4,0.1,0.8-0.1,1.1l-0.4-0.2c0.2-0.3,0.2-0.5,0.1-0.8c-0.1-0.4-0.4-0.5-0.7-0.4
			c-0.1,0-0.2,0.1-0.3,0.2c-0.1,0.1-0.1,0.2,0,0.3l0,0.3c0,0.2,0,0.4-0.1,0.6c-0.1,0.2-0.3,0.3-0.5,0.4c-0.6,0.2-1-0.1-1.2-0.6
			c-0.1-0.4-0.1-0.7,0.1-1l0.4,0.2c-0.1,0.2-0.1,0.4-0.1,0.7c0.1,0.3,0.4,0.4,0.7,0.4c0.1,0,0.2-0.1,0.3-0.2
			c0.1-0.1,0.1-0.2,0.1-0.4l0-0.3c0-0.3,0-0.4,0.1-0.6c0.1-0.2,0.3-0.3,0.6-0.4C71.8,29.7,72.3,30.1,72.5,30.6z"/>
		<path class="st1" d="M72,29.2l-3.1,1.1l-0.2-0.4l3.1-1.1L72,29.2z"/>
		<path class="st1" d="M68.6,28.4l2.7-1.1l0.2,0.4l-2.7,1.1l0.3,0.7l-0.4,0.2l-0.8-1.9l0.4-0.2L68.6,28.4z"/>
		<path class="st1" d="M69.1,26l1.2-0.6l0.2,0.4l-1.2,0.6L67.9,28l-0.2-0.4l1-1.2l-1.6,0.1l-0.2-0.4L69.1,26z"/>
		<g>
			<path class="st1" d="M40.5,65.9c-14.3,0-25.8-11.6-25.8-25.8s11.6-25.8,25.8-25.8c14.3,0,25.8,11.6,25.8,25.8
				S54.8,65.9,40.5,65.9z M40.5,15c-13.8,0-25,11.2-25,25s11.2,25,25,25c13.8,0,25-11.2,25-25S54.3,15,40.5,15z"/>
		</g>
		<path class="st1" d="M40.5,67.7c-15.2,0-27.6-12.4-27.6-27.6s12.4-27.6,27.6-27.6c15.2,0,27.6,12.4,27.6,27.6S55.8,67.7,40.5,67.7
			z M40.5,13.3c-14.8,0-26.8,12-26.8,26.8s12,26.8,26.8,26.8c14.8,0,26.8-12,26.8-26.8S55.3,13.3,40.5,13.3z"/>
		<path class="st1" d="M40.5,76.6c-20.1,0-36.5-16.4-36.5-36.5S20.4,3.6,40.5,3.6C60.7,3.6,77,20,77,40.1S60.7,76.6,40.5,76.6z
			 M40.5,4.4c-19.7,0-35.7,16-35.7,35.7s16,35.7,35.7,35.7c19.7,0,35.7-16,35.7-35.7S60.2,4.4,40.5,4.4z"/>
		<g>
			<g>
				<path class="st2" d="M40.5,58.2c-0.6,0-1-0.5-1-1c0-2.5,4.4-4.6,13.6-6.4c0.6-0.1,1.1,0.2,1.2,0.8c0.1,0.6-0.2,1.1-0.8,1.2
					c-11.6,2.3-12,4.4-12,4.4C41.6,57.8,41.1,58.2,40.5,58.2z"/>
			</g>
			<g>
				<path class="st2" d="M40.5,58.2c-0.6,0-1-0.5-1-1c0-0.1-0.5-2.1-12-4.4c-0.6-0.1-0.9-0.6-0.8-1.2c0.1-0.6,0.6-0.9,1.2-0.8
					c9.2,1.8,13.6,3.9,13.6,6.4C41.6,57.8,41.1,58.2,40.5,58.2z"/>
			</g>
			<g>
				<path class="st2" d="M40.5,62.7c-0.6,0-1-0.5-1-1c0-2.9,5.3-5.3,16.1-7.5c0.6-0.1,1.1,0.2,1.2,0.8c0.1,0.6-0.2,1.1-0.8,1.2
					c-14.3,2.9-14.5,5.5-14.5,5.5C41.6,62.3,41.1,62.7,40.5,62.7z"/>
			</g>
			<g>
				<path class="st2" d="M40.5,62.7c-0.6,0-1-0.5-1-1c0,0-0.2-2.6-14.5-5.5c-0.6-0.1-0.9-0.6-0.8-1.2c0.1-0.6,0.6-0.9,1.2-0.8
					c10.8,2.2,16.1,4.6,16.1,7.5C41.6,62.3,41.1,62.7,40.5,62.7z"/>
			</g>
		</g>
		<g>
			<g>
				<g>
					<path class="st2" d="M47.7,50.9c-0.1,0-0.2,0-0.3-0.1c-0.5-0.2-0.8-0.8-0.6-1.3c0.9-2.7,0.8-5.6-0.5-8.1
						c-1.2-2.6-3.4-4.5-6.1-5.4c-3.2-1.1-5.8-3.4-7.2-6.5c-1.5-3.1-1.7-6.5-0.5-9.7c0.2-0.5,0.8-0.8,1.3-0.6s0.8,0.8,0.6,1.3
						c-1.9,5.5,1,11.6,6.5,13.6c3.2,1.1,5.8,3.4,7.2,6.5c1.5,3.1,1.7,6.5,0.5,9.7C48.5,50.6,48.1,50.9,47.7,50.9z"/>
				</g>
				<g>
					<path class="st2" d="M46.4,40.2c-0.1,0-0.2,0-0.3-0.1c-0.5-0.2-0.8-0.8-0.6-1.3c1.1-3-0.5-6.4-3.6-7.4c-2-0.7-3.6-2.1-4.5-4
						c-0.9-1.9-1-4-0.3-6c0.2-0.5,0.8-0.8,1.3-0.6c0.5,0.2,0.8,0.8,0.6,1.3c-0.5,1.5-0.4,3,0.2,4.5c0.7,1.4,1.9,2.5,3.3,3
						c4.1,1.4,6.3,5.9,4.8,10C47.2,39.9,46.8,40.2,46.4,40.2z"/>
				</g>
				<g>
					<path class="st2" d="M43.1,49.4c-0.1,0-0.2,0-0.3-0.1c-0.5-0.2-0.8-0.8-0.6-1.3c0.5-1.5,0.4-3-0.2-4.5c-0.7-1.4-1.9-2.5-3.3-3
						c-2-0.7-3.6-2.1-4.5-4c-0.9-1.9-1-4-0.3-6c0.2-0.5,0.8-0.8,1.3-0.6c0.5,0.2,0.8,0.8,0.6,1.3c-0.5,1.5-0.4,3,0.2,4.5
						c0.7,1.4,1.9,2.5,3.3,3c2,0.7,3.6,2.1,4.5,4c0.9,1.9,1,4,0.3,6C44,49.2,43.6,49.4,43.1,49.4z"/>
				</g>
				<g>
					<path class="st2" d="M43.2,49.3c-0.1,0-0.2,0-0.3-0.1c-0.5-0.2-0.8-0.8-0.6-1.3c1.1-3-0.5-6.4-3.6-7.4c-2-0.7-3.6-2.1-4.5-4
						c-0.9-1.9-1-4-0.3-6c0.2-0.5,0.8-0.8,1.3-0.6c0.5,0.2,0.8,0.8,0.6,1.3c-0.5,1.5-0.4,3,0.2,4.5c0.7,1.4,1.9,2.5,3.3,3
						c4.1,1.4,6.3,5.9,4.8,10C44,49,43.6,49.3,43.2,49.3z"/>
				</g>
			</g>
			<g>
				<path class="st2" d="M47.7,50.9c-0.4,0-0.7-0.2-0.9-0.6c-0.2-0.5,0-1.1,0.5-1.4c5.3-2.6,8.8-8,8.8-13.9c0-5.9-3.4-11.4-8.8-13.9
					c-0.5-0.2-0.7-0.9-0.5-1.4c0.2-0.5,0.9-0.7,1.4-0.5c6,2.9,9.9,9.1,9.9,15.8c0,6.7-3.9,12.9-9.9,15.8
					C48,50.9,47.8,50.9,47.7,50.9z"/>
			</g>
			<g>
				<path class="st2" d="M33.4,50.9c-0.1,0-0.3,0-0.4-0.1c-6-2.9-9.9-9.1-9.9-15.8c0-6.7,3.9-12.9,9.9-15.8c0.5-0.2,1.1,0,1.4,0.5
					c0.2,0.5,0,1.1-0.5,1.4c-5.3,2.6-8.8,8-8.8,13.9c0,5.9,3.4,11.4,8.8,13.9c0.5,0.2,0.7,0.9,0.5,1.4
					C34.1,50.7,33.8,50.9,33.4,50.9z"/>
			</g>
			<g>
				<path class="st2" d="M33.4,45.5c-0.2,0-0.4-0.1-0.6-0.2c-3.3-2.5-5.2-6.2-5.2-10.3c0-3.8,1.7-7.4,4.6-9.9
					c0.4-0.4,1.1-0.3,1.4,0.1c0.4,0.4,0.3,1.1-0.1,1.4c-2.4,2.1-3.8,5.1-3.8,8.3c0,3.4,1.6,6.6,4.3,8.7c0.5,0.3,0.5,1,0.2,1.4
					C34,45.4,33.7,45.5,33.4,45.5z"/>
			</g>
			<g>
				<path class="st2" d="M48.4,45c-0.3,0-0.6-0.1-0.8-0.4c-0.4-0.4-0.3-1.1,0.1-1.4c2.4-2.1,3.7-5.1,3.7-8.2c0-3.4-1.6-6.6-4.3-8.7
					c-0.5-0.3-0.5-1-0.2-1.4c0.3-0.5,1-0.5,1.4-0.2c3.3,2.5,5.2,6.2,5.2,10.3c0,3.7-1.6,7.3-4.4,9.7C48.8,44.9,48.6,45,48.4,45z"/>
			</g>
		</g>
	</g>
</g>
</svg>
